<svg width="501" height="362" viewBox="0 0 501 362" fill="none" xmlns="http://www.w3.org/2000/svg" xmlns:xlink="http://www.w3.org/1999/xlink">
<path d="M0 0H500V362H0V0Z" fill="white"/>
<path d="M500 0H499V362H500H501V0H500Z" fill="#E9E9E9"/>
<path d="M434 288H56C46.6112 288 39 295.611 39 305V321C39 321 44.6904 323.442 48.5 324.5C64.5465 328.955 74.3628 321.735 91 321C110.312 320.147 121.184 320.228 140.5 321C158.307 321.712 168.259 326.189 186 324.5C199.768 323.19 206.946 332.753 220.5 330C242.774 325.476 255.277 321.487 278 321C296.222 320.61 306.308 326.116 324.5 325C335.139 324.347 340.892 322.043 351.5 321L351.814 320.969C372.803 318.905 385.081 317.697 406 321C424.123 323.862 451 334.5 451 334.5V305C451 295.611 443.389 288 434 288Z" fill="#9A8D81" stroke="#304436" stroke-width="2"/>
<path d="M451 354V334.5C451 334.5 424.123 323.861 406 321C385.081 317.697 372.803 318.905 351.814 320.969L351.5 321C340.892 322.043 335.139 324.347 324.5 325C306.308 326.116 296.222 320.61 278 321C255.277 321.487 242.774 325.476 220.5 330C206.946 332.753 199.768 323.189 186 324.5C168.259 326.189 158.307 321.712 140.5 321C121.184 320.228 110.312 320.147 91 321C74.3628 321.735 64.5465 328.955 48.5 324.5C44.6904 323.442 39 321 39 321V354H278H451Z" fill="#624D45" stroke="#304436" stroke-width="2"/>
<path d="M208 301H216" stroke="#304436" stroke-width="2" stroke-linecap="round"/>
<path d="M78 298H86" stroke="#304436" stroke-width="2" stroke-linecap="round"/>
<path d="M53 319H61" stroke="#304436" stroke-width="2" stroke-linecap="round"/>
<path d="M392 295H400" stroke="#304436" stroke-width="2" stroke-linecap="round"/>
<path d="M352.5 314H344.5" stroke="#304436" stroke-width="2" stroke-linecap="round"/>
<path d="M361 300H353" stroke="#304436" stroke-width="2" stroke-linecap="round"/>
<path d="M425.5 346H417.5" stroke="#304436" stroke-width="2" stroke-linecap="round"/>
<path d="M328.5 298H320.5" stroke="#304436" stroke-width="2" stroke-linecap="round"/>
<path d="M401.5 330H393.5" stroke="#304436" stroke-width="2" stroke-linecap="round"/>
<path d="M224 312H232" stroke="#304436" stroke-width="2" stroke-linecap="round"/>
<path d="M94 309H102" stroke="#304436" stroke-width="2" stroke-linecap="round"/>
<path d="M162 297H170" stroke="#304436" stroke-width="2" stroke-linecap="round"/>
<path d="M142 309H150" stroke="#304436" stroke-width="2" stroke-linecap="round"/>
<path d="M48 306H56" stroke="#304436" stroke-width="2" stroke-linecap="round"/>
<path d="M408 306H416" stroke="#304436" stroke-width="2" stroke-linecap="round"/>
<path d="M314 331H322" stroke="#304436" stroke-width="2" stroke-linecap="round"/>
<path d="M277 327H285" stroke="#304436" stroke-width="2" stroke-linecap="round"/>
<path d="M260 335H268" stroke="#304436" stroke-width="2" stroke-linecap="round"/>
<path d="M272 299H280" stroke="#304436" stroke-width="2" stroke-linecap="round"/>
<path d="M199 316H207" stroke="#304436" stroke-width="2" stroke-linecap="round"/>
<path d="M345 331H353" stroke="#304436" stroke-width="2" stroke-linecap="round"/>
<path d="M289 312H281" stroke="#304436" stroke-width="2" stroke-linecap="round"/>
<path d="M361.5 344H353.5" stroke="#304436" stroke-width="2" stroke-linecap="round"/>
<path d="M255 306H258" stroke="#304436" stroke-width="2" stroke-linecap="round"/>
<path d="M125 303H128" stroke="#304436" stroke-width="2" stroke-linecap="round"/>
<path d="M180 319H183" stroke="#304436" stroke-width="2" stroke-linecap="round"/>
<path d="M439 300H442" stroke="#304436" stroke-width="2" stroke-linecap="round"/>
<path d="M374 312H377" stroke="#304436" stroke-width="2" stroke-linecap="round"/>
<path d="M328 338H331" stroke="#304436" stroke-width="2" stroke-linecap="round"/>
<path d="M291 334H294" stroke="#304436" stroke-width="2" stroke-linecap="round"/>
<path d="M265 349L266 349" stroke="#304436" stroke-width="2" stroke-linecap="round"/>
<path d="M305.5 319H302.5" stroke="#304436" stroke-width="2" stroke-linecap="round"/>
<path d="M378.5 351H375.5" stroke="#304436" stroke-width="2" stroke-linecap="round"/>
<path d="M225.5 301L229.5 301" stroke="#304436" stroke-width="2" stroke-linecap="round"/>
<path d="M95.5 298L99.5 298" stroke="#304436" stroke-width="2" stroke-linecap="round"/>
<path d="M160 319L164 319" stroke="#304436" stroke-width="2" stroke-linecap="round"/>
<path d="M119 317L123 317" stroke="#304436" stroke-width="2" stroke-linecap="round"/>
<path d="M409.5 295L413.5 295" stroke="#304436" stroke-width="2" stroke-linecap="round"/>
<path d="M309 340L313 340" stroke="#304436" stroke-width="2" stroke-linecap="round"/>
<path d="M335 314L331 314" stroke="#304436" stroke-width="2" stroke-linecap="round"/>
<path d="M408 346L404 346" stroke="#304436" stroke-width="2" stroke-linecap="round"/>
<path d="M316 298L312 298" stroke="#304436" stroke-width="2" stroke-linecap="round"/>
<path d="M389 330L385 330" stroke="#304436" stroke-width="2" stroke-linecap="round"/>
<path d="M241.5 312L245.5 312" stroke="#304436" stroke-width="2" stroke-linecap="round"/>
<path d="M106 309L110 309" stroke="#304436" stroke-width="2" stroke-linecap="round"/>
<path d="M174 297L178 297" stroke="#304436" stroke-width="2" stroke-linecap="round"/>
<path d="M186 309L190 309" stroke="#304436" stroke-width="2" stroke-linecap="round"/>
<path d="M74 320L78 320" stroke="#304436" stroke-width="2" stroke-linecap="round"/>
<path d="M425.5 306L429.5 306" stroke="#304436" stroke-width="2" stroke-linecap="round"/>
<path d="M314.5 344L318.5 344" stroke="#304436" stroke-width="2" stroke-linecap="round"/>
<path d="M277.5 340L281.5 340" stroke="#304436" stroke-width="2" stroke-linecap="round"/>
<path d="M238 333L242 333" stroke="#304436" stroke-width="2" stroke-linecap="round"/>
<path d="M247 349L257 349" stroke="#304436" stroke-width="2" stroke-linecap="round"/>
<g filter="url(#filter0_d_2300_3263)">
<rect x="32" y="288" width="128" height="23" fill="white" shape-rendering="crispEdges"/>
<rect x="32.5" y="288.5" width="127" height="22" stroke="#304436" shape-rendering="crispEdges"/>
<path d="M35.442 306V296.2H38.438C40.594 296.2 41.924 297.306 41.924 299.126C41.924 300.316 41.35 301.198 40.342 301.66L43.408 306H41.07L38.452 302.038H37.43V306H35.442ZM38.55 297.852H37.43V300.386H38.55C39.39 300.386 39.88 299.896 39.88 299.098C39.88 298.356 39.39 297.852 38.55 297.852ZM48.5039 297.824H46.7959L48.2519 295.5H50.1839L48.5039 297.824ZM50.8979 304.852C50.2399 305.734 49.1479 306.28 47.8179 306.28C45.3119 306.28 43.8979 304.53 43.8979 302.472C43.8979 300.386 45.2139 298.664 47.5239 298.664C49.4839 298.664 50.7719 299.994 50.7719 301.842C50.7719 302.234 50.7159 302.598 50.6599 302.836H45.7179C45.8859 304.152 46.6979 304.684 47.8039 304.684C48.5739 304.684 49.2459 304.348 49.6239 303.844L50.8979 304.852ZM47.4819 300.12C46.5719 300.12 45.9699 300.624 45.7739 301.548H49.0219C48.9939 300.834 48.4759 300.12 47.4819 300.12ZM51.7976 304.978L52.9736 303.914C53.4076 304.46 53.9256 304.852 54.5976 304.852C55.1716 304.852 55.4656 304.516 55.4656 304.096C55.4656 302.864 52.0916 303.326 52.0916 300.848C52.0916 299.602 53.1416 298.664 54.6116 298.664C55.6896 298.664 56.6696 299.182 57.1736 299.868L55.9976 300.904C55.6336 300.456 55.1716 300.092 54.6256 300.092C54.0656 300.092 53.7996 300.4 53.7996 300.764C53.7996 301.968 57.1736 301.548 57.1736 303.984C57.1456 305.468 55.9556 306.28 54.6256 306.28C53.3656 306.28 52.4696 305.776 51.7976 304.978ZM65.2807 304.852C64.6227 305.734 63.5307 306.28 62.2007 306.28C59.6947 306.28 58.2807 304.53 58.2807 302.472C58.2807 300.386 59.5967 298.664 61.9067 298.664C63.8667 298.664 65.1547 299.994 65.1547 301.842C65.1547 302.234 65.0987 302.598 65.0427 302.836H60.1007C60.2687 304.152 61.0807 304.684 62.1867 304.684C62.9567 304.684 63.6287 304.348 64.0067 303.844L65.2807 304.852ZM61.8647 300.12C60.9547 300.12 60.3527 300.624 60.1567 301.548H63.4047C63.3767 300.834 62.8587 300.12 61.8647 300.12ZM68.7844 306.21C67.3704 306.21 66.4044 305.398 66.4044 304.096C66.4044 303.032 67.2304 302.234 68.7424 301.982L70.8984 301.618V301.436C70.8984 300.694 70.3384 300.218 69.5264 300.218C68.8404 300.218 68.3084 300.54 67.9304 301.058L66.6284 300.064C67.2584 299.196 68.2944 298.664 69.5824 298.664C71.6264 298.664 72.6764 299.882 72.6764 301.436V306H70.8984V305.314C70.4504 305.86 69.6104 306.21 68.7844 306.21ZM68.1684 304.012C68.1684 304.488 68.5464 304.796 69.1484 304.796C69.9604 304.796 70.5484 304.418 70.8984 303.858V302.864L69.2184 303.144C68.4764 303.27 68.1684 303.578 68.1684 304.012ZM79.3604 302.948V298.944H81.1524V302.864C81.1524 304.978 79.9204 306.28 77.8484 306.28C75.7764 306.28 74.5584 304.978 74.5584 302.864V298.944H76.3504V302.948C76.3504 303.97 76.8824 304.6 77.8624 304.6C78.8284 304.6 79.3604 303.97 79.3604 302.948ZM86.3901 302.472C86.3901 300.414 87.7481 298.664 89.9741 298.664C90.9261 298.664 91.6121 298.958 92.1581 299.504V295.5H93.9501V306H92.1581V305.44C91.6121 305.986 90.9261 306.28 89.9741 306.28C87.7481 306.28 86.3901 304.53 86.3901 302.472ZM88.2521 302.472C88.2521 303.704 89.0221 304.6 90.2261 304.6C91.0241 304.6 91.6821 304.264 92.1581 303.62V301.324C91.6821 300.68 91.0241 300.344 90.2261 300.344C89.0221 300.344 88.2521 301.24 88.2521 302.472ZM102.578 304.852C101.92 305.734 100.828 306.28 99.4976 306.28C96.9916 306.28 95.5776 304.53 95.5776 302.472C95.5776 300.386 96.8936 298.664 99.2036 298.664C101.164 298.664 102.452 299.994 102.452 301.842C102.452 302.234 102.396 302.598 102.34 302.836H97.3976C97.5656 304.152 98.3776 304.684 99.4836 304.684C100.254 304.684 100.926 304.348 101.304 303.844L102.578 304.852ZM99.1616 300.12C98.2516 300.12 97.6496 300.624 97.4536 301.548H100.702C100.674 300.834 100.156 300.12 99.1616 300.12ZM111.35 304.6C112.05 304.6 112.61 304.278 112.946 303.788L114.332 304.852C113.674 305.72 112.638 306.28 111.35 306.28C108.914 306.28 107.458 304.53 107.458 302.472C107.458 300.414 108.914 298.664 111.35 298.664C112.638 298.664 113.674 299.224 114.332 300.092L112.946 301.156C112.61 300.666 112.05 300.344 111.322 300.344C110.16 300.344 109.306 301.24 109.306 302.472C109.306 303.718 110.16 304.6 111.35 304.6ZM115.66 306V295.5H117.438V299.504C117.928 299.028 118.586 298.664 119.524 298.664C121.05 298.664 122.268 299.714 122.268 301.8V306H120.476V301.87C120.476 300.932 119.958 300.344 119.076 300.344C118.18 300.344 117.704 300.946 117.438 301.394V306H115.66ZM126.275 306.21C124.861 306.21 123.895 305.398 123.895 304.096C123.895 303.032 124.721 302.234 126.233 301.982L128.389 301.618V301.436C128.389 300.694 127.829 300.218 127.017 300.218C126.331 300.218 125.799 300.54 125.421 301.058L124.119 300.064C124.749 299.196 125.785 298.664 127.073 298.664C129.117 298.664 130.167 299.882 130.167 301.436V306H128.389V305.314C127.941 305.86 127.101 306.21 126.275 306.21ZM125.659 304.012C125.659 304.488 126.037 304.796 126.639 304.796C127.451 304.796 128.039 304.418 128.389 303.858V302.864L126.709 303.144C125.967 303.27 125.659 303.578 125.659 304.012ZM132.203 306V295.5H133.981V306H132.203ZM142.609 304.852C141.951 305.734 140.859 306.28 139.529 306.28C137.023 306.28 135.609 304.53 135.609 302.472C135.609 300.386 136.925 298.664 139.235 298.664C141.195 298.664 142.483 299.994 142.483 301.842C142.483 302.234 142.427 302.598 142.371 302.836H137.429C137.597 304.152 138.409 304.684 139.515 304.684C140.285 304.684 140.957 304.348 141.335 303.844L142.609 304.852ZM139.193 300.12C138.283 300.12 137.681 300.624 137.485 301.548H140.733C140.705 300.834 140.187 300.12 139.193 300.12ZM148.786 302.948V298.944H150.578V302.864C150.578 304.978 149.346 306.28 147.274 306.28C145.202 306.28 143.984 304.978 143.984 302.864V298.944H145.776V302.948C145.776 303.97 146.308 304.6 147.288 304.6C148.254 304.6 148.786 303.97 148.786 302.948ZM152.546 306V298.944H154.324V299.644C154.786 299.168 155.388 298.804 156.186 298.804C156.424 298.804 156.634 298.846 156.802 298.902V300.652C156.578 300.596 156.34 300.554 156.018 300.554C155.15 300.554 154.59 301.03 154.324 301.478V306H152.546Z" fill="#304436"/>
</g>
<path d="M205.641 75H418.641V306H205.641V75Z" fill="#F3E1D1" stroke="#304436" stroke-width="2"/>
<path fill-rule="evenodd" clip-rule="evenodd" d="M242.688 208.547V212.955C242.688 212.668 242.93 212.436 243.228 212.436H246.472C246.771 212.436 247.013 212.668 247.013 212.955V208.547C247.013 208.834 246.771 209.066 246.472 209.066H243.228C242.93 209.066 242.688 208.834 242.688 208.547Z" fill="white"/>
<path d="M247.013 228.769V212.955C247.013 212.668 246.771 212.436 246.472 212.436H243.228C242.93 212.436 242.688 212.668 242.688 212.955V228.769C242.688 229.055 242.93 229.287 243.228 229.287H246.472C246.771 229.287 247.013 229.055 247.013 228.769Z" fill="white"/>
<path d="M246.472 205.696H243.228C242.93 205.696 242.688 205.928 242.688 206.214V208.547C242.688 208.834 242.93 209.066 243.228 209.066H246.472C246.771 209.066 247.013 208.834 247.013 208.547V206.214C247.013 205.928 246.771 205.696 246.472 205.696Z" fill="white"/>
<path fill-rule="evenodd" clip-rule="evenodd" d="M246.906 208.547V212.955C246.906 212.668 247.148 212.436 247.447 212.436H250.691C250.989 212.436 251.231 212.668 251.231 212.955V208.547C251.231 208.834 250.989 209.066 250.691 209.066H247.447C247.148 209.066 246.906 208.834 246.906 208.547Z" fill="white"/>
<path d="M251.231 228.769V212.955C251.231 212.668 250.989 212.436 250.691 212.436H247.447C247.148 212.436 246.906 212.668 246.906 212.955V228.769C246.906 229.055 247.148 229.287 247.447 229.287H250.691C250.989 229.287 251.231 229.055 251.231 228.769Z" fill="white"/>
<path d="M250.691 205.696H247.447C247.148 205.696 246.906 205.928 246.906 206.214V208.547C246.906 208.834 247.148 209.066 247.447 209.066H250.691C250.989 209.066 251.231 208.834 251.231 208.547V206.214C251.231 205.928 250.989 205.696 250.691 205.696Z" fill="white"/>
<path fill-rule="evenodd" clip-rule="evenodd" d="M251.125 208.539V212.946C251.125 212.66 251.367 212.428 251.666 212.428H254.909C255.208 212.428 255.45 212.66 255.45 212.946V208.539C255.45 208.826 255.208 209.058 254.909 209.058H251.666C251.367 209.058 251.125 208.826 251.125 208.539Z" fill="white"/>
<path d="M255.45 228.76V212.946C255.45 212.66 255.208 212.428 254.909 212.428H251.666C251.367 212.428 251.125 212.66 251.125 212.946V228.76C251.125 229.047 251.367 229.279 251.666 229.279H254.909C255.208 229.279 255.45 229.047 255.45 228.76Z" fill="white"/>
<path d="M254.909 205.688H251.666C251.367 205.688 251.125 205.92 251.125 206.206V208.539C251.125 208.826 251.367 209.058 251.666 209.058H254.909C255.208 209.058 255.45 208.826 255.45 208.539V206.206C255.45 205.92 255.208 205.688 254.909 205.688Z" fill="white"/>
<path fill-rule="evenodd" clip-rule="evenodd" d="M255.766 208.539V212.946C255.766 212.66 256.008 212.428 256.306 212.428H259.55C259.849 212.428 260.091 212.66 260.091 212.946V208.539C260.091 208.826 259.849 209.058 259.55 209.058H256.306C256.008 209.058 255.766 208.826 255.766 208.539Z" fill="white"/>
<path d="M260.091 228.76V212.946C260.091 212.66 259.849 212.428 259.55 212.428H256.306C256.008 212.428 255.766 212.66 255.766 212.946V228.76C255.766 229.047 256.008 229.279 256.306 229.279H259.55C259.849 229.279 260.091 229.047 260.091 228.76Z" fill="white"/>
<path d="M259.55 205.688H256.306C256.008 205.688 255.766 205.92 255.766 206.206V208.539C255.766 208.826 256.008 209.058 256.306 209.058H259.55C259.849 209.058 260.091 208.826 260.091 208.539V206.206C260.091 205.92 259.849 205.688 259.55 205.688Z" fill="white"/>
<path fill-rule="evenodd" clip-rule="evenodd" d="M259.984 208.539V212.946C259.984 212.66 260.226 212.428 260.525 212.428H263.769C264.067 212.428 264.309 212.66 264.309 212.946V208.539C264.309 208.826 264.067 209.058 263.769 209.058H260.525C260.226 209.058 259.984 208.826 259.984 208.539Z" fill="white"/>
<path d="M264.309 228.76V212.946C264.309 212.66 264.067 212.428 263.769 212.428H260.525C260.226 212.428 259.984 212.66 259.984 212.946V228.76C259.984 229.047 260.226 229.279 260.525 229.279H263.769C264.067 229.279 264.309 229.047 264.309 228.76Z" fill="white"/>
<path d="M263.769 205.688H260.525C260.226 205.688 259.984 205.92 259.984 206.206V208.539C259.984 208.826 260.226 209.058 260.525 209.058H263.769C264.067 209.058 264.309 208.826 264.309 208.539V206.206C264.309 205.92 264.067 205.688 263.769 205.688Z" fill="white"/>
<path d="M246.712 208.541V206.206C246.712 205.817 246.09 205.688 245.804 205.688V229.295C246.09 229.295 246.712 229.295 246.712 228.776V212.951V208.541Z" fill="#565656" fill-opacity="0.3"/>
<path fill-rule="evenodd" clip-rule="evenodd" d="M242.58 208.547V212.955C242.58 212.668 242.822 212.436 243.121 212.436H246.365C246.663 212.436 246.905 212.668 246.905 212.955V208.547C246.905 208.834 246.663 209.066 246.365 209.066H243.121C242.822 209.066 242.58 208.834 242.58 208.547Z" fill="#565656" fill-opacity="0.3"/>
<path d="M242.58 228.769V206.214M242.58 228.769C242.58 229.055 242.822 229.287 243.121 229.287H246.365C246.663 229.287 246.905 229.055 246.905 228.769M242.58 228.769V212.955M246.905 228.769V206.214M246.905 228.769V212.955M246.905 206.214C246.905 205.928 246.663 205.696 246.365 205.696H243.121C242.822 205.696 242.58 205.928 242.58 206.214M246.905 206.214V208.547M246.905 206.214V212.955M242.58 206.214V208.547M242.58 206.214V212.955M242.58 208.547C242.58 208.834 242.822 209.066 243.121 209.066H246.365C246.663 209.066 246.905 208.834 246.905 208.547M242.58 208.547V212.955M246.905 208.547V212.955M246.905 212.955C246.905 212.668 246.663 212.436 246.365 212.436H243.121C242.822 212.436 242.58 212.668 242.58 212.955" stroke="#304436"/>
<path d="M251.037 208.541V206.206C251.037 205.817 250.415 205.688 250.129 205.688V229.295C250.415 229.295 251.037 229.295 251.037 228.776V212.951V208.541Z" fill="#565656" fill-opacity="0.3"/>
<path fill-rule="evenodd" clip-rule="evenodd" d="M246.905 208.547V212.955C246.905 212.668 247.147 212.436 247.446 212.436H250.69C250.988 212.436 251.23 212.668 251.23 212.955V208.547C251.23 208.834 250.988 209.066 250.69 209.066H247.446C247.147 209.066 246.905 208.834 246.905 208.547Z" fill="#565656" fill-opacity="0.3"/>
<path d="M246.905 228.769V206.214M246.905 228.769C246.905 229.055 247.147 229.287 247.446 229.287H250.69C250.988 229.287 251.23 229.055 251.23 228.769M246.905 228.769V212.955M251.23 228.769V206.214M251.23 228.769V212.955M251.23 206.214C251.23 205.928 250.988 205.696 250.69 205.696H247.446C247.147 205.696 246.905 205.928 246.905 206.214M251.23 206.214V208.547M251.23 206.214V212.955M246.905 206.214V208.547M246.905 206.214V212.955M246.905 208.547C246.905 208.834 247.147 209.066 247.446 209.066H250.69C250.988 209.066 251.23 208.834 251.23 208.547M246.905 208.547V212.955M251.23 208.547V212.955M251.23 212.955C251.23 212.668 250.988 212.436 250.69 212.436H247.446C247.147 212.436 246.905 212.668 246.905 212.955" stroke="#304436"/>
<path d="M255.363 208.541V206.206C255.363 205.817 254.741 205.688 254.454 205.688V229.295C254.741 229.295 255.363 229.295 255.363 228.776V212.951V208.541Z" fill="#565656" fill-opacity="0.3"/>
<path fill-rule="evenodd" clip-rule="evenodd" d="M251.23 208.547V212.955C251.23 212.668 251.472 212.436 251.771 212.436H255.015C255.313 212.436 255.555 212.668 255.555 212.955V208.547C255.555 208.834 255.313 209.066 255.015 209.066H251.771C251.472 209.066 251.23 208.834 251.23 208.547Z" fill="#565656" fill-opacity="0.3"/>
<path d="M251.23 228.769V206.214M251.23 228.769C251.23 229.055 251.472 229.287 251.771 229.287H255.015C255.313 229.287 255.555 229.055 255.555 228.769M251.23 228.769V212.955M255.555 228.769V206.214M255.555 228.769V212.955M255.555 206.214C255.555 205.928 255.313 205.696 255.015 205.696H251.771C251.472 205.696 251.23 205.928 251.23 206.214M255.555 206.214V208.547M255.555 206.214V212.955M251.23 206.214V208.547M251.23 206.214V212.955M251.23 208.547C251.23 208.834 251.472 209.066 251.771 209.066H255.015C255.313 209.066 255.555 208.834 255.555 208.547M251.23 208.547V212.955M255.555 208.547V212.955M255.555 212.955C255.555 212.668 255.313 212.436 255.015 212.436H251.771C251.472 212.436 251.23 212.668 251.23 212.955" stroke="#304436"/>
<path d="M259.688 208.541V206.206C259.688 205.817 259.066 205.688 258.779 205.688V229.295C259.066 229.295 259.688 229.295 259.688 228.776V212.951V208.541Z" fill="#565656" fill-opacity="0.3"/>
<path fill-rule="evenodd" clip-rule="evenodd" d="M255.556 208.547V212.955C255.556 212.668 255.798 212.436 256.096 212.436H259.34C259.639 212.436 259.881 212.668 259.881 212.955V208.547C259.881 208.834 259.639 209.066 259.34 209.066H256.096C255.798 209.066 255.556 208.834 255.556 208.547Z" fill="#565656" fill-opacity="0.3"/>
<path d="M255.556 228.769V206.214M255.556 228.769C255.556 229.055 255.798 229.287 256.096 229.287H259.34C259.639 229.287 259.881 229.055 259.881 228.769M255.556 228.769V212.955M259.881 228.769V206.214M259.881 228.769V212.955M259.881 206.214C259.881 205.928 259.639 205.696 259.34 205.696H256.096C255.798 205.696 255.556 205.928 255.556 206.214M259.881 206.214V208.547M259.881 206.214V212.955M255.556 206.214V208.547M255.556 206.214V212.955M255.556 208.547C255.556 208.834 255.798 209.066 256.096 209.066H259.34C259.639 209.066 259.881 208.834 259.881 208.547M255.556 208.547V212.955M259.881 208.547V212.955M259.881 212.955C259.881 212.668 259.639 212.436 259.34 212.436H256.096C255.798 212.436 255.556 212.668 255.556 212.955" stroke="#304436"/>
<path d="M264.013 208.541V206.206C264.013 205.817 263.391 205.688 263.104 205.688V229.295C263.391 229.295 264.013 229.295 264.013 228.776V212.951V208.541Z" fill="#565656" fill-opacity="0.3"/>
<path fill-rule="evenodd" clip-rule="evenodd" d="M259.881 208.547V212.955C259.881 212.668 260.123 212.436 260.421 212.436H263.665C263.964 212.436 264.206 212.668 264.206 212.955V208.547C264.206 208.834 263.964 209.066 263.665 209.066H260.421C260.123 209.066 259.881 208.834 259.881 208.547Z" fill="#565656" fill-opacity="0.3"/>
<path d="M259.881 228.769V206.214M259.881 228.769C259.881 229.055 260.123 229.287 260.421 229.287H263.665C263.964 229.287 264.206 229.055 264.206 228.769M259.881 228.769V212.955M264.206 228.769V206.214M264.206 228.769V212.955M264.206 206.214C264.206 205.928 263.964 205.696 263.665 205.696H260.421C260.123 205.696 259.881 205.928 259.881 206.214M264.206 206.214V208.547M264.206 206.214V212.955M259.881 206.214V208.547M259.881 206.214V212.955M259.881 208.547C259.881 208.834 260.123 209.066 260.421 209.066H263.665C263.964 209.066 264.206 208.834 264.206 208.547M259.881 208.547V212.955M264.206 208.547V212.955M264.206 212.955C264.206 212.668 263.964 212.436 263.665 212.436H260.421C260.123 212.436 259.881 212.668 259.881 212.955" stroke="#304436"/>
<path d="M242.558 208.274L241.908 208.274C241.407 208.274 241 207.867 241 207.366C241 206.864 241.407 206.458 241.908 206.458L242.558 206.458L242.558 208.274Z" stroke="#304436"/>
<path d="M242.58 208.44L241.99 208.44C241.448 208.44 241.007 208 241.007 207.457C241.007 206.914 241.448 206.474 241.99 206.474L242.58 206.474L242.58 208.44Z" fill="white" stroke="#304436"/>
<path d="M264.206 206.474H264.795C265.338 206.474 265.778 206.914 265.778 207.457C265.778 208 265.338 208.44 264.795 208.44H264.206L264.206 206.474Z" fill="white" stroke="#304436"/>
<path fill-rule="evenodd" clip-rule="evenodd" d="M242.688 126.547V130.955C242.688 130.668 242.93 130.436 243.228 130.436H246.472C246.771 130.436 247.013 130.668 247.013 130.955V126.547C247.013 126.834 246.771 127.066 246.472 127.066H243.228C242.93 127.066 242.688 126.834 242.688 126.547Z" fill="white"/>
<path d="M247.013 146.769V130.955C247.013 130.668 246.771 130.436 246.472 130.436H243.228C242.93 130.436 242.688 130.668 242.688 130.955V146.769C242.688 147.055 242.93 147.287 243.228 147.287H246.472C246.771 147.287 247.013 147.055 247.013 146.769Z" fill="white"/>
<path d="M246.472 123.696H243.228C242.93 123.696 242.688 123.928 242.688 124.214V126.547C242.688 126.834 242.93 127.066 243.228 127.066H246.472C246.771 127.066 247.013 126.834 247.013 126.547V124.214C247.013 123.928 246.771 123.696 246.472 123.696Z" fill="white"/>
<path fill-rule="evenodd" clip-rule="evenodd" d="M246.906 126.547V130.955C246.906 130.668 247.148 130.436 247.447 130.436H250.691C250.989 130.436 251.231 130.668 251.231 130.955V126.547C251.231 126.834 250.989 127.066 250.691 127.066H247.447C247.148 127.066 246.906 126.834 246.906 126.547Z" fill="white"/>
<path d="M251.231 146.769V130.955C251.231 130.668 250.989 130.436 250.691 130.436H247.447C247.148 130.436 246.906 130.668 246.906 130.955V146.769C246.906 147.055 247.148 147.287 247.447 147.287H250.691C250.989 147.287 251.231 147.055 251.231 146.769Z" fill="white"/>
<path d="M250.691 123.696H247.447C247.148 123.696 246.906 123.928 246.906 124.214V126.547C246.906 126.834 247.148 127.066 247.447 127.066H250.691C250.989 127.066 251.231 126.834 251.231 126.547V124.214C251.231 123.928 250.989 123.696 250.691 123.696Z" fill="white"/>
<path fill-rule="evenodd" clip-rule="evenodd" d="M251.125 126.539V130.946C251.125 130.66 251.367 130.428 251.666 130.428H254.909C255.208 130.428 255.45 130.66 255.45 130.946V126.539C255.45 126.826 255.208 127.058 254.909 127.058H251.666C251.367 127.058 251.125 126.826 251.125 126.539Z" fill="white"/>
<path d="M255.45 146.76V130.946C255.45 130.66 255.208 130.428 254.909 130.428H251.666C251.367 130.428 251.125 130.66 251.125 130.946V146.76C251.125 147.047 251.367 147.279 251.666 147.279H254.909C255.208 147.279 255.45 147.047 255.45 146.76Z" fill="white"/>
<path d="M254.909 123.688H251.666C251.367 123.688 251.125 123.92 251.125 124.206V126.539C251.125 126.826 251.367 127.058 251.666 127.058H254.909C255.208 127.058 255.45 126.826 255.45 126.539V124.206C255.45 123.92 255.208 123.688 254.909 123.688Z" fill="white"/>
<path fill-rule="evenodd" clip-rule="evenodd" d="M255.766 126.539V130.946C255.766 130.66 256.008 130.428 256.306 130.428H259.55C259.849 130.428 260.091 130.66 260.091 130.946V126.539C260.091 126.826 259.849 127.058 259.55 127.058H256.306C256.008 127.058 255.766 126.826 255.766 126.539Z" fill="white"/>
<path d="M260.091 146.76V130.946C260.091 130.66 259.849 130.428 259.55 130.428H256.306C256.008 130.428 255.766 130.66 255.766 130.946V146.76C255.766 147.047 256.008 147.279 256.306 147.279H259.55C259.849 147.279 260.091 147.047 260.091 146.76Z" fill="white"/>
<path d="M259.55 123.688H256.306C256.008 123.688 255.766 123.92 255.766 124.206V126.539C255.766 126.826 256.008 127.058 256.306 127.058H259.55C259.849 127.058 260.091 126.826 260.091 126.539V124.206C260.091 123.92 259.849 123.688 259.55 123.688Z" fill="white"/>
<path fill-rule="evenodd" clip-rule="evenodd" d="M259.984 126.539V130.946C259.984 130.66 260.226 130.428 260.525 130.428H263.769C264.067 130.428 264.309 130.66 264.309 130.946V126.539C264.309 126.826 264.067 127.058 263.769 127.058H260.525C260.226 127.058 259.984 126.826 259.984 126.539Z" fill="white"/>
<path d="M264.309 146.76V130.946C264.309 130.66 264.067 130.428 263.769 130.428H260.525C260.226 130.428 259.984 130.66 259.984 130.946V146.76C259.984 147.047 260.226 147.279 260.525 147.279H263.769C264.067 147.279 264.309 147.047 264.309 146.76Z" fill="white"/>
<path d="M263.769 123.688H260.525C260.226 123.688 259.984 123.92 259.984 124.206V126.539C259.984 126.826 260.226 127.058 260.525 127.058H263.769C264.067 127.058 264.309 126.826 264.309 126.539V124.206C264.309 123.92 264.067 123.688 263.769 123.688Z" fill="white"/>
<path d="M246.712 126.541V124.206C246.712 123.817 246.09 123.688 245.804 123.688V147.295C246.09 147.295 246.712 147.295 246.712 146.776V130.951V126.541Z" fill="#565656" fill-opacity="0.3"/>
<path fill-rule="evenodd" clip-rule="evenodd" d="M242.58 126.547V130.955C242.58 130.668 242.822 130.436 243.121 130.436H246.365C246.663 130.436 246.905 130.668 246.905 130.955V126.547C246.905 126.834 246.663 127.066 246.365 127.066H243.121C242.822 127.066 242.58 126.834 242.58 126.547Z" fill="#565656" fill-opacity="0.3"/>
<path d="M242.58 146.769V124.214M242.58 146.769C242.58 147.055 242.822 147.287 243.121 147.287H246.365C246.663 147.287 246.905 147.055 246.905 146.769M242.58 146.769V130.955M246.905 146.769V124.214M246.905 146.769V130.955M246.905 124.214C246.905 123.928 246.663 123.696 246.365 123.696H243.121C242.822 123.696 242.58 123.928 242.58 124.214M246.905 124.214V126.547M246.905 124.214V130.955M242.58 124.214V126.547M242.58 124.214V130.955M242.58 126.547C242.58 126.834 242.822 127.066 243.121 127.066H246.365C246.663 127.066 246.905 126.834 246.905 126.547M242.58 126.547V130.955M246.905 126.547V130.955M246.905 130.955C246.905 130.668 246.663 130.436 246.365 130.436H243.121C242.822 130.436 242.58 130.668 242.58 130.955" stroke="#304436"/>
<path d="M251.037 126.541V124.206C251.037 123.817 250.415 123.688 250.129 123.688V147.295C250.415 147.295 251.037 147.295 251.037 146.776V130.951V126.541Z" fill="#565656" fill-opacity="0.3"/>
<path fill-rule="evenodd" clip-rule="evenodd" d="M246.905 126.547V130.955C246.905 130.668 247.147 130.436 247.446 130.436H250.69C250.988 130.436 251.23 130.668 251.23 130.955V126.547C251.23 126.834 250.988 127.066 250.69 127.066H247.446C247.147 127.066 246.905 126.834 246.905 126.547Z" fill="#565656" fill-opacity="0.3"/>
<path d="M246.905 146.769V124.214M246.905 146.769C246.905 147.055 247.147 147.287 247.446 147.287H250.69C250.988 147.287 251.23 147.055 251.23 146.769M246.905 146.769V130.955M251.23 146.769V124.214M251.23 146.769V130.955M251.23 124.214C251.23 123.928 250.988 123.696 250.69 123.696H247.446C247.147 123.696 246.905 123.928 246.905 124.214M251.23 124.214V126.547M251.23 124.214V130.955M246.905 124.214V126.547M246.905 124.214V130.955M246.905 126.547C246.905 126.834 247.147 127.066 247.446 127.066H250.69C250.988 127.066 251.23 126.834 251.23 126.547M246.905 126.547V130.955M251.23 126.547V130.955M251.23 130.955C251.23 130.668 250.988 130.436 250.69 130.436H247.446C247.147 130.436 246.905 130.668 246.905 130.955" stroke="#304436"/>
<path d="M255.363 126.541V124.206C255.363 123.817 254.741 123.688 254.454 123.688V147.295C254.741 147.295 255.363 147.295 255.363 146.776V130.951V126.541Z" fill="#565656" fill-opacity="0.3"/>
<path fill-rule="evenodd" clip-rule="evenodd" d="M251.23 126.547V130.955C251.23 130.668 251.472 130.436 251.771 130.436H255.015C255.313 130.436 255.555 130.668 255.555 130.955V126.547C255.555 126.834 255.313 127.066 255.015 127.066H251.771C251.472 127.066 251.23 126.834 251.23 126.547Z" fill="#565656" fill-opacity="0.3"/>
<path d="M251.23 146.769V124.214M251.23 146.769C251.23 147.055 251.472 147.287 251.771 147.287H255.015C255.313 147.287 255.555 147.055 255.555 146.769M251.23 146.769V130.955M255.555 146.769V124.214M255.555 146.769V130.955M255.555 124.214C255.555 123.928 255.313 123.696 255.015 123.696H251.771C251.472 123.696 251.23 123.928 251.23 124.214M255.555 124.214V126.547M255.555 124.214V130.955M251.23 124.214V126.547M251.23 124.214V130.955M251.23 126.547C251.23 126.834 251.472 127.066 251.771 127.066H255.015C255.313 127.066 255.555 126.834 255.555 126.547M251.23 126.547V130.955M255.555 126.547V130.955M255.555 130.955C255.555 130.668 255.313 130.436 255.015 130.436H251.771C251.472 130.436 251.23 130.668 251.23 130.955" stroke="#304436"/>
<path d="M259.688 126.541V124.206C259.688 123.817 259.066 123.688 258.779 123.688V147.295C259.066 147.295 259.688 147.295 259.688 146.776V130.951V126.541Z" fill="#565656" fill-opacity="0.3"/>
<path fill-rule="evenodd" clip-rule="evenodd" d="M255.556 126.547V130.955C255.556 130.668 255.798 130.436 256.096 130.436H259.34C259.639 130.436 259.881 130.668 259.881 130.955V126.547C259.881 126.834 259.639 127.066 259.34 127.066H256.096C255.798 127.066 255.556 126.834 255.556 126.547Z" fill="#565656" fill-opacity="0.3"/>
<path d="M255.556 146.769V124.214M255.556 146.769C255.556 147.055 255.798 147.287 256.096 147.287H259.34C259.639 147.287 259.881 147.055 259.881 146.769M255.556 146.769V130.955M259.881 146.769V124.214M259.881 146.769V130.955M259.881 124.214C259.881 123.928 259.639 123.696 259.34 123.696H256.096C255.798 123.696 255.556 123.928 255.556 124.214M259.881 124.214V126.547M259.881 124.214V130.955M255.556 124.214V126.547M255.556 124.214V130.955M255.556 126.547C255.556 126.834 255.798 127.066 256.096 127.066H259.34C259.639 127.066 259.881 126.834 259.881 126.547M255.556 126.547V130.955M259.881 126.547V130.955M259.881 130.955C259.881 130.668 259.639 130.436 259.34 130.436H256.096C255.798 130.436 255.556 130.668 255.556 130.955" stroke="#304436"/>
<path d="M264.013 126.541V124.206C264.013 123.817 263.391 123.688 263.104 123.688V147.295C263.391 147.295 264.013 147.295 264.013 146.776V130.951V126.541Z" fill="#565656" fill-opacity="0.3"/>
<path fill-rule="evenodd" clip-rule="evenodd" d="M259.881 126.547V130.955C259.881 130.668 260.123 130.436 260.421 130.436H263.665C263.964 130.436 264.206 130.668 264.206 130.955V126.547C264.206 126.834 263.964 127.066 263.665 127.066H260.421C260.123 127.066 259.881 126.834 259.881 126.547Z" fill="#565656" fill-opacity="0.3"/>
<path d="M259.881 146.769V124.214M259.881 146.769C259.881 147.055 260.123 147.287 260.421 147.287H263.665C263.964 147.287 264.206 147.055 264.206 146.769M259.881 146.769V130.955M264.206 146.769V124.214M264.206 146.769V130.955M264.206 124.214C264.206 123.928 263.964 123.696 263.665 123.696H260.421C260.123 123.696 259.881 123.928 259.881 124.214M264.206 124.214V126.547M264.206 124.214V130.955M259.881 124.214V126.547M259.881 124.214V130.955M259.881 126.547C259.881 126.834 260.123 127.066 260.421 127.066H263.665C263.964 127.066 264.206 126.834 264.206 126.547M259.881 126.547V130.955M264.206 126.547V130.955M264.206 130.955C264.206 130.668 263.964 130.436 263.665 130.436H260.421C260.123 130.436 259.881 130.668 259.881 130.955" stroke="#304436"/>
<path d="M242.558 126.274L241.908 126.274C241.407 126.274 241 125.867 241 125.366C241 124.864 241.407 124.458 241.908 124.458L242.558 124.458L242.558 126.274Z" stroke="#304436"/>
<path d="M242.58 126.44L241.99 126.44C241.448 126.44 241.007 126 241.007 125.457C241.007 124.914 241.448 124.474 241.99 124.474L242.58 124.474L242.58 126.44Z" fill="white" stroke="#304436"/>
<path d="M264.206 124.474H264.795C265.338 124.474 265.778 124.914 265.778 125.457C265.778 126 265.338 126.44 264.795 126.44H264.206L264.206 124.474Z" fill="white" stroke="#304436"/>
<rect x="231.641" y="155" width="186" height="4" fill="#CBB9A9"/>
<rect x="231.641" y="239" width="186" height="4" fill="#CBB9A9"/>
<rect x="231.641" y="70" width="188" height="6" fill="#727B74"/>
<rect x="278.641" y="76" width="167" height="3.99999" transform="rotate(90 278.641 76)" fill="#CBB9A9"/>
<rect x="355.641" y="76" width="167" height="3.99999" transform="rotate(90 355.641 76)" fill="#CBB9A9"/>
<path d="M361 147.5H356.5V226.5V234M356.5 234V291.5H318.5V218.5M356.5 234H361M300 143.5H318.5V218.5M318.5 218.5H303" stroke="#465FB1" stroke-width="2" stroke-linecap="round" stroke-linejoin="round"/>
<path fill-rule="evenodd" clip-rule="evenodd" d="M285.953 208.547V212.955C285.953 212.668 286.195 212.436 286.494 212.436H289.738C290.036 212.436 290.278 212.668 290.278 212.955V208.547C290.278 208.834 290.036 209.066 289.738 209.066H286.494C286.195 209.066 285.953 208.834 285.953 208.547Z" fill="white"/>
<path d="M290.278 228.769V212.955C290.278 212.668 290.036 212.436 289.738 212.436H286.494C286.195 212.436 285.953 212.668 285.953 212.955V228.769C285.953 229.055 286.195 229.287 286.494 229.287H289.738C290.036 229.287 290.278 229.055 290.278 228.769Z" fill="white"/>
<path d="M289.738 205.696H286.494C286.195 205.696 285.953 205.928 285.953 206.214V208.547C285.953 208.834 286.195 209.066 286.494 209.066H289.738C290.036 209.066 290.278 208.834 290.278 208.547V206.214C290.278 205.928 290.036 205.696 289.738 205.696Z" fill="white"/>
<path fill-rule="evenodd" clip-rule="evenodd" d="M290.172 208.547V212.955C290.172 212.668 290.414 212.436 290.713 212.436H293.956C294.255 212.436 294.497 212.668 294.497 212.955V208.547C294.497 208.834 294.255 209.066 293.956 209.066H290.713C290.414 209.066 290.172 208.834 290.172 208.547Z" fill="white"/>
<path d="M294.497 228.769V212.955C294.497 212.668 294.255 212.436 293.956 212.436H290.713C290.414 212.436 290.172 212.668 290.172 212.955V228.769C290.172 229.055 290.414 229.287 290.713 229.287H293.956C294.255 229.287 294.497 229.055 294.497 228.769Z" fill="white"/>
<path d="M293.956 205.696H290.713C290.414 205.696 290.172 205.928 290.172 206.214V208.547C290.172 208.834 290.414 209.066 290.713 209.066H293.956C294.255 209.066 294.497 208.834 294.497 208.547V206.214C294.497 205.928 294.255 205.696 293.956 205.696Z" fill="white"/>
<path fill-rule="evenodd" clip-rule="evenodd" d="M294.391 208.539V212.946C294.391 212.66 294.633 212.428 294.931 212.428H298.175C298.474 212.428 298.716 212.66 298.716 212.946V208.539C298.716 208.826 298.474 209.058 298.175 209.058H294.931C294.633 209.058 294.391 208.826 294.391 208.539Z" fill="white"/>
<path d="M298.716 228.76V212.946C298.716 212.66 298.474 212.428 298.175 212.428H294.931C294.633 212.428 294.391 212.66 294.391 212.946V228.76C294.391 229.047 294.633 229.279 294.931 229.279H298.175C298.474 229.279 298.716 229.047 298.716 228.76Z" fill="white"/>
<path d="M298.175 205.688H294.931C294.633 205.688 294.391 205.92 294.391 206.206V208.539C294.391 208.826 294.633 209.058 294.931 209.058H298.175C298.474 209.058 298.716 208.826 298.716 208.539V206.206C298.716 205.92 298.474 205.688 298.175 205.688Z" fill="white"/>
<path fill-rule="evenodd" clip-rule="evenodd" d="M299.031 208.539V212.946C299.031 212.66 299.273 212.428 299.572 212.428H302.816C303.114 212.428 303.356 212.66 303.356 212.946V208.539C303.356 208.826 303.114 209.058 302.816 209.058H299.572C299.273 209.058 299.031 208.826 299.031 208.539Z" fill="white"/>
<path d="M303.356 228.76V212.946C303.356 212.66 303.114 212.428 302.816 212.428H299.572C299.273 212.428 299.031 212.66 299.031 212.946V228.76C299.031 229.047 299.273 229.279 299.572 229.279H302.816C303.114 229.279 303.356 229.047 303.356 228.76Z" fill="white"/>
<path d="M302.816 205.688H299.572C299.273 205.688 299.031 205.92 299.031 206.206V208.539C299.031 208.826 299.273 209.058 299.572 209.058H302.816C303.114 209.058 303.356 208.826 303.356 208.539V206.206C303.356 205.92 303.114 205.688 302.816 205.688Z" fill="white"/>
<path fill-rule="evenodd" clip-rule="evenodd" d="M303.25 208.539V212.946C303.25 212.66 303.492 212.428 303.791 212.428H307.034C307.333 212.428 307.575 212.66 307.575 212.946V208.539C307.575 208.826 307.333 209.058 307.034 209.058H303.791C303.492 209.058 303.25 208.826 303.25 208.539Z" fill="white"/>
<path d="M307.575 228.76V212.946C307.575 212.66 307.333 212.428 307.034 212.428H303.791C303.492 212.428 303.25 212.66 303.25 212.946V228.76C303.25 229.047 303.492 229.279 303.791 229.279H307.034C307.333 229.279 307.575 229.047 307.575 228.76Z" fill="white"/>
<path d="M307.034 205.688H303.791C303.492 205.688 303.25 205.92 303.25 206.206V208.539C303.25 208.826 303.492 209.058 303.791 209.058H307.034C307.333 209.058 307.575 208.826 307.575 208.539V206.206C307.575 205.92 307.333 205.688 307.034 205.688Z" fill="white"/>
<path d="M289.978 208.541V206.206C289.978 205.817 289.356 205.688 289.069 205.688V229.295C289.356 229.295 289.978 229.295 289.978 228.776V212.951V208.541Z" fill="#565656" fill-opacity="0.3"/>
<path fill-rule="evenodd" clip-rule="evenodd" d="M285.846 208.547V212.955C285.846 212.668 286.088 212.436 286.386 212.436H289.63C289.929 212.436 290.171 212.668 290.171 212.955V208.547C290.171 208.834 289.929 209.066 289.63 209.066H286.386C286.088 209.066 285.846 208.834 285.846 208.547Z" fill="#565656" fill-opacity="0.3"/>
<path d="M285.846 228.769V206.214M285.846 228.769C285.846 229.055 286.088 229.287 286.386 229.287H289.63C289.929 229.287 290.171 229.055 290.171 228.769M285.846 228.769V212.955M290.171 228.769V206.214M290.171 228.769V212.955M290.171 206.214C290.171 205.928 289.929 205.696 289.63 205.696H286.386C286.088 205.696 285.846 205.928 285.846 206.214M290.171 206.214V208.547M290.171 206.214V212.955M285.846 206.214V208.547M285.846 206.214V212.955M285.846 208.547C285.846 208.834 286.088 209.066 286.386 209.066H289.63C289.929 209.066 290.171 208.834 290.171 208.547M285.846 208.547V212.955M290.171 208.547V212.955M290.171 212.955C290.171 212.668 289.929 212.436 289.63 212.436H286.386C286.088 212.436 285.846 212.668 285.846 212.955" stroke="#304436"/>
<path d="M294.303 208.541V206.206C294.303 205.817 293.681 205.688 293.394 205.688V229.295C293.681 229.295 294.303 229.295 294.303 228.776V212.951V208.541Z" fill="#565656" fill-opacity="0.3"/>
<path fill-rule="evenodd" clip-rule="evenodd" d="M290.171 208.547V212.955C290.171 212.668 290.413 212.436 290.712 212.436H293.955C294.254 212.436 294.496 212.668 294.496 212.955V208.547C294.496 208.834 294.254 209.066 293.955 209.066H290.712C290.413 209.066 290.171 208.834 290.171 208.547Z" fill="#565656" fill-opacity="0.3"/>
<path d="M290.171 228.769V206.214M290.171 228.769C290.171 229.055 290.413 229.287 290.712 229.287H293.955C294.254 229.287 294.496 229.055 294.496 228.769M290.171 228.769V212.955M294.496 228.769V206.214M294.496 228.769V212.955M294.496 206.214C294.496 205.928 294.254 205.696 293.955 205.696H290.712C290.413 205.696 290.171 205.928 290.171 206.214M294.496 206.214V208.547M294.496 206.214V212.955M290.171 206.214V208.547M290.171 206.214V212.955M290.171 208.547C290.171 208.834 290.413 209.066 290.712 209.066H293.955C294.254 209.066 294.496 208.834 294.496 208.547M290.171 208.547V212.955M294.496 208.547V212.955M294.496 212.955C294.496 212.668 294.254 212.436 293.955 212.436H290.712C290.413 212.436 290.171 212.668 290.171 212.955" stroke="#304436"/>
<path d="M298.628 208.541V206.206C298.628 205.817 298.006 205.688 297.719 205.688V229.295C298.006 229.295 298.628 229.295 298.628 228.776V212.951V208.541Z" fill="#565656" fill-opacity="0.3"/>
<path fill-rule="evenodd" clip-rule="evenodd" d="M294.496 208.547V212.955C294.496 212.668 294.738 212.436 295.037 212.436H298.28C298.579 212.436 298.821 212.668 298.821 212.955V208.547C298.821 208.834 298.579 209.066 298.28 209.066H295.037C294.738 209.066 294.496 208.834 294.496 208.547Z" fill="#565656" fill-opacity="0.3"/>
<path d="M294.496 228.769V206.214M294.496 228.769C294.496 229.055 294.738 229.287 295.037 229.287H298.28C298.579 229.287 298.821 229.055 298.821 228.769M294.496 228.769V212.955M298.821 228.769V206.214M298.821 228.769V212.955M298.821 206.214C298.821 205.928 298.579 205.696 298.28 205.696H295.037C294.738 205.696 294.496 205.928 294.496 206.214M298.821 206.214V208.547M298.821 206.214V212.955M294.496 206.214V208.547M294.496 206.214V212.955M294.496 208.547C294.496 208.834 294.738 209.066 295.037 209.066H298.28C298.579 209.066 298.821 208.834 298.821 208.547M294.496 208.547V212.955M298.821 208.547V212.955M298.821 212.955C298.821 212.668 298.579 212.436 298.28 212.436H295.037C294.738 212.436 294.496 212.668 294.496 212.955" stroke="#304436"/>
<path d="M302.953 208.541V206.206C302.953 205.817 302.331 205.688 302.045 205.688V229.295C302.331 229.295 302.953 229.295 302.953 228.776V212.951V208.541Z" fill="#565656" fill-opacity="0.3"/>
<path fill-rule="evenodd" clip-rule="evenodd" d="M298.821 208.547V212.955C298.821 212.668 299.063 212.436 299.362 212.436H302.606C302.904 212.436 303.146 212.668 303.146 212.955V208.547C303.146 208.834 302.904 209.066 302.606 209.066H299.362C299.063 209.066 298.821 208.834 298.821 208.547Z" fill="#565656" fill-opacity="0.3"/>
<path d="M298.821 228.769V206.214M298.821 228.769C298.821 229.055 299.063 229.287 299.362 229.287H302.606C302.904 229.287 303.146 229.055 303.146 228.769M298.821 228.769V212.955M303.146 228.769V206.214M303.146 228.769V212.955M303.146 206.214C303.146 205.928 302.904 205.696 302.606 205.696H299.362C299.063 205.696 298.821 205.928 298.821 206.214M303.146 206.214V208.547M303.146 206.214V212.955M298.821 206.214V208.547M298.821 206.214V212.955M298.821 208.547C298.821 208.834 299.063 209.066 299.362 209.066H302.606C302.904 209.066 303.146 208.834 303.146 208.547M298.821 208.547V212.955M303.146 208.547V212.955M303.146 212.955C303.146 212.668 302.904 212.436 302.606 212.436H299.362C299.063 212.436 298.821 212.668 298.821 212.955" stroke="#304436"/>
<path d="M307.278 208.541V206.206C307.278 205.817 306.656 205.688 306.37 205.688V229.295C306.656 229.295 307.278 229.295 307.278 228.776V212.951V208.541Z" fill="#565656" fill-opacity="0.3"/>
<path fill-rule="evenodd" clip-rule="evenodd" d="M303.146 208.547V212.955C303.146 212.668 303.388 212.436 303.687 212.436H306.931C307.229 212.436 307.471 212.668 307.471 212.955V208.547C307.471 208.834 307.229 209.066 306.931 209.066H303.687C303.388 209.066 303.146 208.834 303.146 208.547Z" fill="#565656" fill-opacity="0.3"/>
<path d="M303.146 228.769V206.214M303.146 228.769C303.146 229.055 303.388 229.287 303.687 229.287H306.931C307.229 229.287 307.471 229.055 307.471 228.769M303.146 228.769V212.955M307.471 228.769V206.214M307.471 228.769V212.955M307.471 206.214C307.471 205.928 307.229 205.696 306.931 205.696H303.687C303.388 205.696 303.146 205.928 303.146 206.214M307.471 206.214V208.547M307.471 206.214V212.955M303.146 206.214V208.547M303.146 206.214V212.955M303.146 208.547C303.146 208.834 303.388 209.066 303.687 209.066H306.931C307.229 209.066 307.471 208.834 307.471 208.547M303.146 208.547V212.955M307.471 208.547V212.955M307.471 212.955C307.471 212.668 307.229 212.436 306.931 212.436H303.687C303.388 212.436 303.146 212.668 303.146 212.955" stroke="#304436"/>
<path d="M285.824 208.274L285.174 208.274C284.672 208.274 284.266 207.867 284.266 207.366C284.266 206.864 284.672 206.458 285.174 206.458L285.824 206.458L285.824 208.274Z" stroke="#304436"/>
<path d="M285.846 208.44L285.256 208.44C284.713 208.44 284.273 208 284.273 207.457C284.273 206.914 284.713 206.474 285.256 206.474L285.846 206.474L285.846 208.44Z" fill="white" stroke="#304436"/>
<path d="M307.471 206.474H308.061C308.604 206.474 309.044 206.914 309.044 207.457C309.044 208 308.604 208.44 308.061 208.44H307.471L307.471 206.474Z" fill="white" stroke="#304436"/>
<path fill-rule="evenodd" clip-rule="evenodd" d="M285.953 126.547V130.955C285.953 130.668 286.195 130.436 286.494 130.436H289.738C290.036 130.436 290.278 130.668 290.278 130.955V126.547C290.278 126.834 290.036 127.066 289.738 127.066H286.494C286.195 127.066 285.953 126.834 285.953 126.547Z" fill="white"/>
<path d="M290.278 146.769V130.955C290.278 130.668 290.036 130.436 289.738 130.436H286.494C286.195 130.436 285.953 130.668 285.953 130.955V146.769C285.953 147.055 286.195 147.287 286.494 147.287H289.738C290.036 147.287 290.278 147.055 290.278 146.769Z" fill="white"/>
<path d="M289.738 123.696H286.494C286.195 123.696 285.953 123.928 285.953 124.214V126.547C285.953 126.834 286.195 127.066 286.494 127.066H289.738C290.036 127.066 290.278 126.834 290.278 126.547V124.214C290.278 123.928 290.036 123.696 289.738 123.696Z" fill="white"/>
<path fill-rule="evenodd" clip-rule="evenodd" d="M290.172 126.547V130.955C290.172 130.668 290.414 130.436 290.713 130.436H293.956C294.255 130.436 294.497 130.668 294.497 130.955V126.547C294.497 126.834 294.255 127.066 293.956 127.066H290.713C290.414 127.066 290.172 126.834 290.172 126.547Z" fill="white"/>
<path d="M294.497 146.769V130.955C294.497 130.668 294.255 130.436 293.956 130.436H290.713C290.414 130.436 290.172 130.668 290.172 130.955V146.769C290.172 147.055 290.414 147.287 290.713 147.287H293.956C294.255 147.287 294.497 147.055 294.497 146.769Z" fill="white"/>
<path d="M293.956 123.696H290.713C290.414 123.696 290.172 123.928 290.172 124.214V126.547C290.172 126.834 290.414 127.066 290.713 127.066H293.956C294.255 127.066 294.497 126.834 294.497 126.547V124.214C294.497 123.928 294.255 123.696 293.956 123.696Z" fill="white"/>
<path fill-rule="evenodd" clip-rule="evenodd" d="M294.391 126.539V130.946C294.391 130.66 294.633 130.428 294.931 130.428H298.175C298.474 130.428 298.716 130.66 298.716 130.946V126.539C298.716 126.826 298.474 127.058 298.175 127.058H294.931C294.633 127.058 294.391 126.826 294.391 126.539Z" fill="white"/>
<path d="M298.716 146.76V130.946C298.716 130.66 298.474 130.428 298.175 130.428H294.931C294.633 130.428 294.391 130.66 294.391 130.946V146.76C294.391 147.047 294.633 147.279 294.931 147.279H298.175C298.474 147.279 298.716 147.047 298.716 146.76Z" fill="white"/>
<path d="M298.175 123.688H294.931C294.633 123.688 294.391 123.92 294.391 124.206V126.539C294.391 126.826 294.633 127.058 294.931 127.058H298.175C298.474 127.058 298.716 126.826 298.716 126.539V124.206C298.716 123.92 298.474 123.688 298.175 123.688Z" fill="white"/>
<path fill-rule="evenodd" clip-rule="evenodd" d="M299.031 126.539V130.946C299.031 130.66 299.273 130.428 299.572 130.428H302.816C303.114 130.428 303.356 130.66 303.356 130.946V126.539C303.356 126.826 303.114 127.058 302.816 127.058H299.572C299.273 127.058 299.031 126.826 299.031 126.539Z" fill="white"/>
<path d="M303.356 146.76V130.946C303.356 130.66 303.114 130.428 302.816 130.428H299.572C299.273 130.428 299.031 130.66 299.031 130.946V146.76C299.031 147.047 299.273 147.279 299.572 147.279H302.816C303.114 147.279 303.356 147.047 303.356 146.76Z" fill="white"/>
<path d="M302.816 123.688H299.572C299.273 123.688 299.031 123.92 299.031 124.206V126.539C299.031 126.826 299.273 127.058 299.572 127.058H302.816C303.114 127.058 303.356 126.826 303.356 126.539V124.206C303.356 123.92 303.114 123.688 302.816 123.688Z" fill="white"/>
<path fill-rule="evenodd" clip-rule="evenodd" d="M303.25 126.539V130.946C303.25 130.66 303.492 130.428 303.791 130.428H307.034C307.333 130.428 307.575 130.66 307.575 130.946V126.539C307.575 126.826 307.333 127.058 307.034 127.058H303.791C303.492 127.058 303.25 126.826 303.25 126.539Z" fill="white"/>
<path d="M307.575 146.76V130.946C307.575 130.66 307.333 130.428 307.034 130.428H303.791C303.492 130.428 303.25 130.66 303.25 130.946V146.76C303.25 147.047 303.492 147.279 303.791 147.279H307.034C307.333 147.279 307.575 147.047 307.575 146.76Z" fill="white"/>
<path d="M307.034 123.688H303.791C303.492 123.688 303.25 123.92 303.25 124.206V126.539C303.25 126.826 303.492 127.058 303.791 127.058H307.034C307.333 127.058 307.575 126.826 307.575 126.539V124.206C307.575 123.92 307.333 123.688 307.034 123.688Z" fill="white"/>
<path d="M289.978 126.541V124.206C289.978 123.817 289.356 123.688 289.069 123.688V147.295C289.356 147.295 289.978 147.295 289.978 146.776V130.951V126.541Z" fill="#565656" fill-opacity="0.3"/>
<path fill-rule="evenodd" clip-rule="evenodd" d="M285.846 126.547V130.955C285.846 130.668 286.088 130.436 286.386 130.436H289.63C289.929 130.436 290.171 130.668 290.171 130.955V126.547C290.171 126.834 289.929 127.066 289.63 127.066H286.386C286.088 127.066 285.846 126.834 285.846 126.547Z" fill="#565656" fill-opacity="0.3"/>
<path d="M285.846 146.769V124.214M285.846 146.769C285.846 147.055 286.088 147.287 286.386 147.287H289.63C289.929 147.287 290.171 147.055 290.171 146.769M285.846 146.769V130.955M290.171 146.769V124.214M290.171 146.769V130.955M290.171 124.214C290.171 123.928 289.929 123.696 289.63 123.696H286.386C286.088 123.696 285.846 123.928 285.846 124.214M290.171 124.214V126.547M290.171 124.214V130.955M285.846 124.214V126.547M285.846 124.214V130.955M285.846 126.547C285.846 126.834 286.088 127.066 286.386 127.066H289.63C289.929 127.066 290.171 126.834 290.171 126.547M285.846 126.547V130.955M290.171 126.547V130.955M290.171 130.955C290.171 130.668 289.929 130.436 289.63 130.436H286.386C286.088 130.436 285.846 130.668 285.846 130.955" stroke="#304436"/>
<path d="M294.303 126.541V124.206C294.303 123.817 293.681 123.688 293.394 123.688V147.295C293.681 147.295 294.303 147.295 294.303 146.776V130.951V126.541Z" fill="#565656" fill-opacity="0.3"/>
<path fill-rule="evenodd" clip-rule="evenodd" d="M290.171 126.547V130.955C290.171 130.668 290.413 130.436 290.712 130.436H293.955C294.254 130.436 294.496 130.668 294.496 130.955V126.547C294.496 126.834 294.254 127.066 293.955 127.066H290.712C290.413 127.066 290.171 126.834 290.171 126.547Z" fill="#565656" fill-opacity="0.3"/>
<path d="M290.171 146.769V124.214M290.171 146.769C290.171 147.055 290.413 147.287 290.712 147.287H293.955C294.254 147.287 294.496 147.055 294.496 146.769M290.171 146.769V130.955M294.496 146.769V124.214M294.496 146.769V130.955M294.496 124.214C294.496 123.928 294.254 123.696 293.955 123.696H290.712C290.413 123.696 290.171 123.928 290.171 124.214M294.496 124.214V126.547M294.496 124.214V130.955M290.171 124.214V126.547M290.171 124.214V130.955M290.171 126.547C290.171 126.834 290.413 127.066 290.712 127.066H293.955C294.254 127.066 294.496 126.834 294.496 126.547M290.171 126.547V130.955M294.496 126.547V130.955M294.496 130.955C294.496 130.668 294.254 130.436 293.955 130.436H290.712C290.413 130.436 290.171 130.668 290.171 130.955" stroke="#304436"/>
<path d="M298.628 126.541V124.206C298.628 123.817 298.006 123.688 297.719 123.688V147.295C298.006 147.295 298.628 147.295 298.628 146.776V130.951V126.541Z" fill="#565656" fill-opacity="0.3"/>
<path fill-rule="evenodd" clip-rule="evenodd" d="M294.496 126.547V130.955C294.496 130.668 294.738 130.436 295.037 130.436H298.28C298.579 130.436 298.821 130.668 298.821 130.955V126.547C298.821 126.834 298.579 127.066 298.28 127.066H295.037C294.738 127.066 294.496 126.834 294.496 126.547Z" fill="#565656" fill-opacity="0.3"/>
<path d="M294.496 146.769V124.214M294.496 146.769C294.496 147.055 294.738 147.287 295.037 147.287H298.28C298.579 147.287 298.821 147.055 298.821 146.769M294.496 146.769V130.955M298.821 146.769V124.214M298.821 146.769V130.955M298.821 124.214C298.821 123.928 298.579 123.696 298.28 123.696H295.037C294.738 123.696 294.496 123.928 294.496 124.214M298.821 124.214V126.547M298.821 124.214V130.955M294.496 124.214V126.547M294.496 124.214V130.955M294.496 126.547C294.496 126.834 294.738 127.066 295.037 127.066H298.28C298.579 127.066 298.821 126.834 298.821 126.547M294.496 126.547V130.955M298.821 126.547V130.955M298.821 130.955C298.821 130.668 298.579 130.436 298.28 130.436H295.037C294.738 130.436 294.496 130.668 294.496 130.955" stroke="#304436"/>
<path d="M302.953 126.541V124.206C302.953 123.817 302.331 123.688 302.045 123.688V147.295C302.331 147.295 302.953 147.295 302.953 146.776V130.951V126.541Z" fill="#565656" fill-opacity="0.3"/>
<path fill-rule="evenodd" clip-rule="evenodd" d="M298.821 126.547V130.955C298.821 130.668 299.063 130.436 299.362 130.436H302.606C302.904 130.436 303.146 130.668 303.146 130.955V126.547C303.146 126.834 302.904 127.066 302.606 127.066H299.362C299.063 127.066 298.821 126.834 298.821 126.547Z" fill="#565656" fill-opacity="0.3"/>
<path d="M298.821 146.769V124.214M298.821 146.769C298.821 147.055 299.063 147.287 299.362 147.287H302.606C302.904 147.287 303.146 147.055 303.146 146.769M298.821 146.769V130.955M303.146 146.769V124.214M303.146 146.769V130.955M303.146 124.214C303.146 123.928 302.904 123.696 302.606 123.696H299.362C299.063 123.696 298.821 123.928 298.821 124.214M303.146 124.214V126.547M303.146 124.214V130.955M298.821 124.214V126.547M298.821 124.214V130.955M298.821 126.547C298.821 126.834 299.063 127.066 299.362 127.066H302.606C302.904 127.066 303.146 126.834 303.146 126.547M298.821 126.547V130.955M303.146 126.547V130.955M303.146 130.955C303.146 130.668 302.904 130.436 302.606 130.436H299.362C299.063 130.436 298.821 130.668 298.821 130.955" stroke="#304436"/>
<path d="M307.278 126.541V124.206C307.278 123.817 306.656 123.688 306.37 123.688V147.295C306.656 147.295 307.278 147.295 307.278 146.776V130.951V126.541Z" fill="#565656" fill-opacity="0.3"/>
<path fill-rule="evenodd" clip-rule="evenodd" d="M303.146 126.547V130.955C303.146 130.668 303.388 130.436 303.687 130.436H306.931C307.229 130.436 307.471 130.668 307.471 130.955V126.547C307.471 126.834 307.229 127.066 306.931 127.066H303.687C303.388 127.066 303.146 126.834 303.146 126.547Z" fill="#565656" fill-opacity="0.3"/>
<path d="M303.146 146.769V124.214M303.146 146.769C303.146 147.055 303.388 147.287 303.687 147.287H306.931C307.229 147.287 307.471 147.055 307.471 146.769M303.146 146.769V130.955M307.471 146.769V124.214M307.471 146.769V130.955M307.471 124.214C307.471 123.928 307.229 123.696 306.931 123.696H303.687C303.388 123.696 303.146 123.928 303.146 124.214M307.471 124.214V126.547M307.471 124.214V130.955M303.146 124.214V126.547M303.146 124.214V130.955M303.146 126.547C303.146 126.834 303.388 127.066 303.687 127.066H306.931C307.229 127.066 307.471 126.834 307.471 126.547M303.146 126.547V130.955M307.471 126.547V130.955M307.471 130.955C307.471 130.668 307.229 130.436 306.931 130.436H303.687C303.388 130.436 303.146 130.668 303.146 130.955" stroke="#304436"/>
<path d="M285.824 126.274L285.174 126.274C284.672 126.274 284.266 125.867 284.266 125.366C284.266 124.864 284.672 124.458 285.174 124.458L285.824 124.458L285.824 126.274Z" stroke="#304436"/>
<path d="M285.846 126.44L285.256 126.44C284.713 126.44 284.273 126 284.273 125.457C284.273 124.914 284.713 124.474 285.256 124.474L285.846 124.474L285.846 126.44Z" fill="white" stroke="#304436"/>
<path d="M307.471 124.474H308.061C308.604 124.474 309.044 124.914 309.044 125.457C309.044 126 308.604 126.44 308.061 126.44H307.471L307.471 124.474Z" fill="white" stroke="#304436"/>
<path d="M373.411 203.681L374.641 204.91" stroke="#304436" stroke-linecap="round"/>
<path d="M371.567 205.525L373.616 207.575" stroke="#304436" stroke-linecap="round"/>
<path d="M369.722 207.37L371.772 209.419" stroke="#304436" stroke-linecap="round"/>
<path d="M367.878 209.214L369.107 210.444" stroke="#304436" stroke-linecap="round"/>
<path d="M363.641 200H360.641V239H363.641L363.641 202.5L363.641 200Z" fill="white"/>
<path d="M363.641 202.5L363.641 239H360.641V200H363.641L363.641 202.5ZM363.641 202.5L366.641 204" stroke="#304436"/>
<path d="M372.762 202.506C372.762 202.506 370.256 200 367.035 203.221C363.813 206.443 366.319 208.948 366.319 208.948L372.762 202.506Z" fill="white" stroke="#304436"/>
<path d="M373.411 119.681L374.641 120.91" stroke="#304436" stroke-linecap="round"/>
<path d="M371.567 121.525L373.616 123.575" stroke="#304436" stroke-linecap="round"/>
<path d="M369.722 123.37L371.772 125.419" stroke="#304436" stroke-linecap="round"/>
<path d="M367.878 125.214L369.107 126.444" stroke="#304436" stroke-linecap="round"/>
<path d="M363.641 116H360.641V155H363.641L363.641 118.5L363.641 116Z" fill="white"/>
<path d="M363.641 118.5L363.641 155H360.641V116H363.641L363.641 118.5ZM363.641 118.5L366.641 120" stroke="#304436"/>
<path d="M372.762 118.506C372.762 118.506 370.256 116 367.035 119.221C363.813 122.443 366.319 124.948 366.319 124.948L372.762 118.506Z" fill="white" stroke="#304436"/>
<path d="M238.035 19H404.035C412.871 19 420.035 26.1634 420.035 35V71H238.035V19Z" fill="#CCC4C4"/>
<path d="M334 315V303C334 302.448 334.448 302 335 302C335.552 302 336 302.448 336 303V315L335.995 315.103C335.944 315.607 335.518 316 335 316C334.482 316 334.056 315.607 334.005 315.103L334 315ZM341 314.04V303C341 302.448 341.448 302 342 302C342.552 302 343 302.448 343 303V314.04C343 314.592 342.552 315.04 342 315.04C341.448 315.04 341 314.592 341 314.04Z" fill="white" stroke="#304436" stroke-linecap="round" stroke-linejoin="round"/>
<path d="M324 281.01C324 280.452 324.769 280 325.718 280L337.992 280L350.631 280C351.58 280 352.349 280.452 352.349 281.01V303.99C352.349 304.548 351.58 305 350.631 305H325.718C324.769 305 324 304.548 324 303.99V281.01Z" fill="white" stroke="#304436"/>
<path d="M201.591 76.2019H205.473H265.417V70.1587H201.591V76.2019Z" fill="#E2D2C3" stroke="#304436" stroke-width="2"/>
<path d="M205.641 86.7959V306H269.468C269.468 306 251.003 289.399 246.044 274.538C236.483 245.887 272.419 241.04 269.468 216.495C267.477 199.937 254.406 194.999 251.087 178.694C248.399 165.489 252.919 157.109 251.048 144.061C249.136 130.727 243.716 119.959 238.576 109.748C235.957 104.545 231.037 91.976 229.065 86.7959C228.215 83.3255 227.706 79.751 227.675 76H205.641V86.7959Z" fill="url(#pattern0_2300_3263)" stroke="#304436" stroke-width="2"/>
<path d="M205.606 157.906H200V151H205.606H210.35H220.269H230.054H240.835H250.826V157.906H240.835H230.054H220.269H210.35H205.606Z" fill="#E2D2C3"/>
<path d="M250.826 157.906H210.35M250.826 157.906H220.269M250.826 157.906V151M250.826 151H210.35M250.826 151H220.269M210.35 151H205.606H200V157.906H205.606H210.35M210.35 151V157.906M210.35 151H220.269M210.35 157.906H220.269M220.269 151V157.906M230.054 151V157.906M240.835 151V157.906" stroke="#304436" stroke-width="2"/>
<path d="M205.606 242.906H200V236H205.606H210.35H220.269H230.054H240.835H251.641H262.141L256.141 242.906H251.641H240.835H230.054H220.269H210.35H205.606Z" fill="#E2D2C3"/>
<path d="M256.141 242.906H210.35M256.141 242.906H220.269M256.141 242.906L262.141 236M262.141 236H210.35M262.141 236H220.269M210.35 236H205.606H200V242.906H205.606H210.35M210.35 236V242.906M210.35 236H220.269M210.35 242.906H220.269M220.269 236V242.906M230.054 236V242.906M240.835 236V242.906M251.641 236V242.906" stroke="#304436" stroke-width="2"/>
<path d="M233.169 17.4966L206 70.1586H266.054C265.599 45.0187 254.732 17.4966 254.732 17.4966H233.169Z" fill="#858181" stroke="#304436" stroke-width="2"/>
<path d="M246.97 19.9507L253.438 16.8305L266.376 10.59L285.783 19.9507V70.1585H253.438H246.97V19.9507Z" fill="#F3E1D1" stroke="#274430" stroke-width="2"/>
<g clip-path="url(#clip0_2300_3263)">
<rect x="252.145" y="21.813" width="28.4629" height="46.6189" rx="2" fill="#93D3F6"/>
<path d="M252.145 42.2087L269.66 21.813H280.608L252.145 56.7771V42.2087Z" fill="white" fill-opacity="0.3"/>
<path d="M253.239 68.4318L280.608 35.4102V41.2375L257.618 68.4318H253.239Z" fill="white" fill-opacity="0.3"/>
<rect x="252.145" y="21.813" width="28.4629" height="7.76981" fill="#565656" fill-opacity="0.3"/>
</g>
<rect x="252.145" y="21.813" width="28.4629" height="46.6189" rx="2" stroke="#274430" stroke-width="2"/>
<path fill-rule="evenodd" clip-rule="evenodd" d="M265.945 70.1585L265.945 21.813L267.67 21.813L267.67 70.1585L265.945 70.1585Z" fill="#304436"/>
<path fill-rule="evenodd" clip-rule="evenodd" d="M280.608 45.9857L252.145 45.9857L252.145 44.2591L280.608 44.2591L280.608 45.9857Z" fill="#304436"/>
<rect x="244.382" y="66.7052" width="43.9881" height="3.45325" rx="1.72662" fill="#F3E1D1" stroke="#274430" stroke-width="2"/>
<path d="M209.912 299V290H211.436V299H209.912ZM216.144 292.712C218.112 292.712 219.456 294.164 219.456 295.976C219.456 297.788 218.112 299.24 216.144 299.24C214.176 299.24 212.832 297.788 212.832 295.976C212.832 294.164 214.176 292.712 216.144 292.712ZM216.168 297.8C217.14 297.8 217.872 297.02 217.872 295.976C217.872 294.92 217.14 294.152 216.168 294.152C215.16 294.152 214.416 294.92 214.416 295.976C214.416 297.032 215.16 297.8 216.168 297.8ZM223.808 297.8C224.408 297.8 224.888 297.524 225.176 297.104L226.364 298.016C225.8 298.76 224.912 299.24 223.808 299.24C221.72 299.24 220.472 297.74 220.472 295.976C220.472 294.212 221.72 292.712 223.808 292.712C224.912 292.712 225.8 293.192 226.364 293.936L225.176 294.848C224.888 294.428 224.408 294.152 223.784 294.152C222.788 294.152 222.056 294.92 222.056 295.976C222.056 297.044 222.788 297.8 223.808 297.8ZM229.1 299.18C227.888 299.18 227.06 298.484 227.06 297.368C227.06 296.456 227.768 295.772 229.064 295.556L230.912 295.244V295.088C230.912 294.452 230.432 294.044 229.736 294.044C229.148 294.044 228.692 294.32 228.368 294.764L227.252 293.912C227.792 293.168 228.68 292.712 229.784 292.712C231.536 292.712 232.436 293.756 232.436 295.088V299H230.912V298.412C230.528 298.88 229.808 299.18 229.1 299.18ZM228.572 297.296C228.572 297.704 228.896 297.968 229.412 297.968C230.108 297.968 230.612 297.644 230.912 297.164V296.312L229.472 296.552C228.836 296.66 228.572 296.924 228.572 297.296ZM234.182 299V290H235.706V299H234.182Z" fill="#535F57"/>
<path d="M34.932 318.25C35.2795 318.25 35.6271 318.683 35.9143 319.377L328.005 319.377C328.922 319.377 329.665 318.642 329.665 317.734L329.665 313.782C328.947 313.504 328.541 313.187 328.541 312.851C328.541 311.75 332.904 310.857 338.286 310.857C343.668 310.857 348.031 311.75 348.031 312.851C348.031 313.202 347.589 313.531 346.813 313.817L346.813 317.734C346.813 318.642 347.556 319.377 348.473 319.377L453.654 319.377C453.95 318.627 454.291 318.199 454.653 318.199C455.791 318.199 456.714 322.419 456.714 327.626C456.714 332.832 455.791 337.052 454.653 337.052C454.305 337.052 453.978 336.659 453.691 335.964L35.9338 335.964C35.6379 336.715 35.347 337.143 34.9186 337.143C33.7801 337.143 32.8572 332.922 32.8572 327.716C32.8572 322.51 33.7935 318.25 34.932 318.25Z" fill="white"/>
<path d="M35.9143 319.377C35.6271 318.683 35.2795 318.25 34.932 318.25C33.7935 318.25 32.8572 322.51 32.8572 327.716C32.8572 332.922 33.7801 337.143 34.9186 337.143C35.347 337.143 35.6379 336.715 35.9338 335.964M35.9143 319.377L328.005 319.377C328.922 319.377 329.665 318.642 329.665 317.734L329.665 313.782C328.947 313.504 328.541 313.187 328.541 312.851C328.541 311.75 332.904 310.857 338.286 310.857M35.9143 319.377C35.9143 319.377 36.875 321.5 36.875 327.75C36.875 334 35.9338 335.964 35.9338 335.964M338.286 310.857C343.668 310.857 348.031 311.75 348.031 312.851C348.031 313.202 347.589 313.531 346.813 313.817L346.813 317.734C346.813 318.642 347.556 319.377 348.473 319.377L453.654 319.377C453.95 318.627 454.291 318.199 454.653 318.199C455.791 318.199 456.714 322.419 456.714 327.626C456.714 332.832 455.791 337.052 454.653 337.052C454.305 337.052 453.978 336.659 453.691 335.964L35.9338 335.964M338.286 310.857C336.802 310.857 335.395 310.925 334.136 311.046" stroke="#304436" stroke-width="2"/>
<ellipse cx="34.5" cy="327" rx="9" ry="2.5" transform="rotate(-90 34.5 327)" fill="#304436"/>
<path d="M347.183 314.163C347.99 313.803 348.438 313.398 348.438 312.957C348.438 311.572 343.901 310.449 338.305 310.449C336.762 310.449 335.299 310.534 333.99 310.687C330.551 311.088 328.171 311.954 328.171 312.957C328.171 313.38 328.59 313.784 329.336 314.133C330.361 313.652 331.997 313.264 333.99 313.032C335.299 312.879 336.762 312.794 338.305 312.794C342.128 312.794 345.457 313.362 347.183 314.163Z" fill="#565656" fill-opacity="0.3"/>
<path d="M453.721 336.022C454.006 336.738 454.33 337.143 454.674 337.143C455.403 337.143 456.043 335.321 456.404 332.58C456.601 331.087 456.5 327.392 456.5 325.5C451.102 327.001 392.277 334.521 392.277 334.521L453.721 336.022Z" fill="#565656" fill-opacity="0.3"/>
<path d="M333 283C333 288.95 343 280.217 343 286.167C343 292.116 333 283.384 333 289.333C333 295.283 343 286.55 343 292.5C343 298.449 333 289.717 333 295.667C333 301.616 343 292.884 343 298.833C343 304.783 333 296.05 333 302" stroke="#304436" stroke-width="2" stroke-linecap="round" stroke-linejoin="round"/>
<defs>
<filter id="filter0_d_2300_3263" x="32" y="288" width="129" height="24" filterUnits="userSpaceOnUse" color-interpolation-filters="sRGB">
<feFlood flood-opacity="0" result="BackgroundImageFix"/>
<feColorMatrix in="SourceAlpha" type="matrix" values="0 0 0 0 0 0 0 0 0 0 0 0 0 0 0 0 0 0 127 0" result="hardAlpha"/>
<feOffset dx="1" dy="1"/>
<feComposite in2="hardAlpha" operator="out"/>
<feColorMatrix type="matrix" values="0 0 0 0 0.188235 0 0 0 0 0.266667 0 0 0 0 0.211765 0 0 0 1 0"/>
<feBlend mode="normal" in2="BackgroundImageFix" result="effect1_dropShadow_2300_3263"/>
<feBlend mode="normal" in="SourceGraphic" in2="effect1_dropShadow_2300_3263" result="shape"/>
</filter>
<clipPath id="clip0_2300_3263">
<rect x="252.145" y="21.813" width="28.4629" height="46.6189" rx="2" fill="white"/>
</clipPath>
<pattern id="pattern0_2300_3263" patternUnits="userSpaceOnUse" patternTransform="matrix(17 0 0 14 205.141 75.5)" preserveAspectRatio="none" viewBox="-0.5 -0.5 17 14" width="1" height="1">
<use xlink:href="#pattern0_2300_3263_inner" transform="translate(-25.5 -7)"/>
<use xlink:href="#pattern0_2300_3263_inner" transform="translate(-8.5 -7)"/>
<use xlink:href="#pattern0_2300_3263_inner" transform="translate(8.5 -7)"/>
<use xlink:href="#pattern0_2300_3263_inner" transform="translate(-34 0)"/>
<use xlink:href="#pattern0_2300_3263_inner" transform="translate(-17 0)"/>
<g id="pattern0_2300_3263_inner">
<rect width="17" height="7" fill="#F3E1D1" stroke="white"/>
</g>
<use xlink:href="#pattern0_2300_3263_inner" transform="translate(-25.5 7)"/>
<use xlink:href="#pattern0_2300_3263_inner" transform="translate(-8.5 7)"/>
<use xlink:href="#pattern0_2300_3263_inner" transform="translate(8.5 7)"/>
</pattern></defs>
</svg>
