<svg width="509" height="362" viewBox="0 0 509 362" fill="none" xmlns="http://www.w3.org/2000/svg" xmlns:xlink="http://www.w3.org/1999/xlink">
<path d="M0 0H500V362H0V0Z" fill="white"/>
<path d="M500 0H499V362H500H501V0H500Z" fill="#E9E9E9"/>
<path d="M434 288H56C46.6112 288 39 295.611 39 305V321C39 321 44.6904 323.442 48.5 324.5C64.5465 328.955 74.3628 321.735 91 321C110.312 320.147 121.184 320.228 140.5 321C158.307 321.712 168.259 326.189 186 324.5C199.768 323.19 206.946 332.753 220.5 330C242.774 325.476 255.277 321.487 278 321C296.222 320.61 306.308 326.116 324.5 325C335.139 324.347 340.892 322.043 351.5 321L351.814 320.969C372.803 318.905 385.081 317.697 406 321C424.123 323.862 451 334.5 451 334.5V305C451 295.611 443.389 288 434 288Z" fill="#9A8D81" stroke="#304436" stroke-width="2"/>
<path d="M39 354H451V334.5C451 334.5 424.123 323.861 406 321C385.081 317.697 372.803 318.905 351.814 320.969L351.5 321C340.892 322.043 335.139 324.347 324.5 325C306.308 326.116 296.222 320.61 278 321C255.277 321.487 242.774 325.476 220.5 330C206.946 332.753 199.768 323.189 186 324.5C168.259 326.189 158.307 321.712 140.5 321C121.184 320.228 110.312 320.147 91 321C74.3628 321.735 64.5465 328.955 48.5 324.5C44.6904 323.442 39 321 39 321V354Z" fill="#624D45" stroke="#304436" stroke-width="2"/>
<path d="M53.5 332H61.5" stroke="#304436" stroke-width="2" stroke-linecap="round"/>
<path d="M208 301H216" stroke="#304436" stroke-width="2" stroke-linecap="round"/>
<path d="M53 319H61" stroke="#304436" stroke-width="2" stroke-linecap="round"/>
<path d="M392 295H400" stroke="#304436" stroke-width="2" stroke-linecap="round"/>
<path d="M281 333H289" stroke="#304436" stroke-width="2" stroke-linecap="round"/>
<path d="M217 347H225" stroke="#304436" stroke-width="2" stroke-linecap="round"/>
<path d="M198 345H190" stroke="#304436" stroke-width="2" stroke-linecap="round"/>
<path d="M352.5 314H344.5" stroke="#304436" stroke-width="2" stroke-linecap="round"/>
<path d="M361 300H353" stroke="#304436" stroke-width="2" stroke-linecap="round"/>
<path d="M425.5 346H417.5" stroke="#304436" stroke-width="2" stroke-linecap="round"/>
<path d="M174 329H166" stroke="#304436" stroke-width="2" stroke-linecap="round"/>
<path d="M328.5 298H320.5" stroke="#304436" stroke-width="2" stroke-linecap="round"/>
<path d="M401.5 330H393.5" stroke="#304436" stroke-width="2" stroke-linecap="round"/>
<path d="M69.5 343H77.5" stroke="#304436" stroke-width="2" stroke-linecap="round"/>
<path d="M224 312H232" stroke="#304436" stroke-width="2" stroke-linecap="round"/>
<path d="M48 306H56" stroke="#304436" stroke-width="2" stroke-linecap="round"/>
<path d="M408 306H416" stroke="#304436" stroke-width="2" stroke-linecap="round"/>
<path d="M297 344H305" stroke="#304436" stroke-width="2" stroke-linecap="round"/>
<path d="M233 336H241" stroke="#304436" stroke-width="2" stroke-linecap="round"/>
<path d="M117.5 330H125.5" stroke="#304436" stroke-width="2" stroke-linecap="round"/>
<path d="M272 299H280" stroke="#304436" stroke-width="2" stroke-linecap="round"/>
<path d="M199 316H207" stroke="#304436" stroke-width="2" stroke-linecap="round"/>
<path d="M345 331H353" stroke="#304436" stroke-width="2" stroke-linecap="round"/>
<path d="M134 343H126" stroke="#304436" stroke-width="2" stroke-linecap="round"/>
<path d="M288.5 312H280.5" stroke="#304436" stroke-width="2" stroke-linecap="round"/>
<path d="M361.5 344H353.5" stroke="#304436" stroke-width="2" stroke-linecap="round"/>
<path d="M100.5 337H103.5" stroke="#304436" stroke-width="2" stroke-linecap="round"/>
<path d="M255 306H258" stroke="#304436" stroke-width="2" stroke-linecap="round"/>
<path d="M180 319H183" stroke="#304436" stroke-width="2" stroke-linecap="round"/>
<path d="M439 300H442" stroke="#304436" stroke-width="2" stroke-linecap="round"/>
<path d="M374 312H377" stroke="#304436" stroke-width="2" stroke-linecap="round"/>
<path d="M328 338H331" stroke="#304436" stroke-width="2" stroke-linecap="round"/>
<path d="M264 342H267" stroke="#304436" stroke-width="2" stroke-linecap="round"/>
<path d="M151 350H148" stroke="#304436" stroke-width="2" stroke-linecap="round"/>
<path d="M305.5 319H302.5" stroke="#304436" stroke-width="2" stroke-linecap="round"/>
<path d="M378.5 351H375.5" stroke="#304436" stroke-width="2" stroke-linecap="round"/>
<path d="M71 332L75 332" stroke="#304436" stroke-width="2" stroke-linecap="round"/>
<path d="M225.5 301L229.5 301" stroke="#304436" stroke-width="2" stroke-linecap="round"/>
<path d="M160 319L164 319" stroke="#304436" stroke-width="2" stroke-linecap="round"/>
<path d="M119 317L123 317" stroke="#304436" stroke-width="2" stroke-linecap="round"/>
<path d="M409.5 295L413.5 295" stroke="#304436" stroke-width="2" stroke-linecap="round"/>
<path d="M298.5 333L302.5 333" stroke="#304436" stroke-width="2" stroke-linecap="round"/>
<path d="M234.5 347L238.5 347" stroke="#304436" stroke-width="2" stroke-linecap="round"/>
<path d="M180.5 345L176.5 345" stroke="#304436" stroke-width="2" stroke-linecap="round"/>
<path d="M335 314L331 314" stroke="#304436" stroke-width="2" stroke-linecap="round"/>
<path d="M408 346L404 346" stroke="#304436" stroke-width="2" stroke-linecap="round"/>
<path d="M161.5 329L157.5 329" stroke="#304436" stroke-width="2" stroke-linecap="round"/>
<path d="M316 298L312 298" stroke="#304436" stroke-width="2" stroke-linecap="round"/>
<path d="M389 330L385 330" stroke="#304436" stroke-width="2" stroke-linecap="round"/>
<path d="M87 343L91 343" stroke="#304436" stroke-width="2" stroke-linecap="round"/>
<path d="M241.5 312L245.5 312" stroke="#304436" stroke-width="2" stroke-linecap="round"/>
<path d="M74 320L78 320" stroke="#304436" stroke-width="2" stroke-linecap="round"/>
<path d="M425.5 306L429.5 306" stroke="#304436" stroke-width="2" stroke-linecap="round"/>
<path d="M314.5 344L318.5 344" stroke="#304436" stroke-width="2" stroke-linecap="round"/>
<path d="M250.5 336L254.5 336" stroke="#304436" stroke-width="2" stroke-linecap="round"/>
<path d="M203 75H416V306H203V75Z" fill="#F3E1D1" stroke="#304436" stroke-width="2"/>
<path d="M194 274H306" stroke="#535F57" stroke-width="2"/>
<rect x="229" y="155" width="186" height="4" fill="#CBB9A9"/>
<rect x="229" y="239" width="186" height="4" fill="#CBB9A9"/>
<rect x="229" y="70" width="188" height="6" fill="#727B74"/>
<rect x="276" y="76" width="167" height="3.99999" transform="rotate(90 276 76)" fill="#CBB9A9"/>
<rect x="353" y="76" width="167" height="3.99999" transform="rotate(90 353 76)" fill="#CBB9A9"/>
<path d="M130.118 275.89C129.076 275.611 128.298 274.973 127.784 273.976C127.269 272.98 127.165 271.909 127.472 270.764L129.971 271.435C129.867 271.824 129.9 272.182 130.069 272.51C130.238 272.839 130.5 273.049 130.853 273.143C131.207 273.238 131.54 273.186 131.85 272.987C132.161 272.787 132.367 272.493 132.471 272.105C132.575 271.716 132.542 271.358 132.372 271.031C132.203 270.703 131.942 270.492 131.589 270.396L103.471 262.855L104.206 260.108L132.324 267.649C133.365 267.929 134.143 268.567 134.658 269.563C135.172 270.56 135.276 271.631 134.97 272.775C134.664 273.92 134.039 274.795 133.095 275.401C132.152 276.006 131.159 276.17 130.118 275.89ZM105.677 254.614L106.412 251.867L139.529 260.749C140.07 260.894 140.57 260.82 141.028 260.526C141.487 260.232 141.795 259.787 141.955 259.192C142.114 258.597 142.069 258.057 141.819 257.573C141.569 257.089 141.173 256.774 140.632 256.629C140.09 256.484 139.59 256.558 139.132 256.852C138.674 257.146 138.365 257.591 138.206 258.186L135.706 257.516C136.068 256.165 136.795 255.139 137.887 254.438C138.979 253.737 140.139 253.552 141.367 253.882C142.596 254.211 143.508 254.953 144.104 256.107C144.7 257.261 144.816 258.513 144.454 259.862C144.093 261.213 143.366 262.239 142.275 262.94C141.183 263.641 140.023 263.827 138.793 263.496L105.677 254.614ZM139.601 275.489L140.336 272.742C140.878 272.888 141.378 272.813 141.836 272.519C142.294 272.225 142.603 271.78 142.762 271.185C142.922 270.59 142.876 270.05 142.627 269.566C142.377 269.082 141.981 268.767 141.439 268.622L104.574 258.735L105.309 255.988L142.175 265.875C143.404 266.205 144.316 266.946 144.911 268.1C145.507 269.254 145.624 270.506 145.262 271.855C144.9 273.206 144.174 274.232 143.082 274.933C141.991 275.635 140.83 275.82 139.601 275.489Z" fill="#304436"/>
<path d="M151.129 261.882C151.129 259.857 152.843 258.215 154.958 258.215H196.124C198.239 258.215 199.953 259.857 199.953 261.882V282.971C199.953 284.996 198.239 286.638 196.124 286.638H154.958C152.843 286.638 151.129 284.996 151.129 282.971V261.882Z" fill="white" stroke="#304436"/>
<path d="M161.534 263.742C160.261 264.592 159.801 266.977 160.638 268.448C161.013 268.965 161.398 269.268 161.398 269.268C161.076 269.059 160.825 268.776 160.638 268.448C160.21 267.858 159.795 266.989 159.977 265.973C160.317 264.067 161.534 263.742 161.534 263.742Z" fill="white" fill-opacity="0.3"/>
<path d="M183.042 265.503H193.458" stroke="#304436" stroke-width="2" stroke-linecap="round"/>
<path d="M183.042 269.4H193.458" stroke="#304436" stroke-width="2" stroke-linecap="round"/>
<path d="M183.042 273.12H193.458" stroke="#304436" stroke-width="2" stroke-linecap="round"/>
<path d="M163.289 271.079L161.006 268.827C160.131 267.964 160.238 266.521 161.312 265.923C161.952 265.566 162.66 265.229 163.289 265.056C165.047 264.575 167.958 264.904 167.958 264.904" stroke="#304436" stroke-width="2" stroke-linecap="round" stroke-linejoin="round"/>
<path d="M168.137 272.421L171.301 271.584C172.482 271.272 173.662 272.066 173.653 273.273C173.647 274.009 173.591 274.798 173.425 275.432C172.968 277.175 171.224 279.497 171.224 279.497" stroke="#304436" stroke-width="2" stroke-linecap="round" stroke-linejoin="round"/>
<path d="M164.317 275.869L163.469 278.99C163.153 280.154 161.866 280.766 160.811 280.154C160.168 279.782 159.503 279.339 159.029 278.88C157.728 277.619 156.561 274.968 156.561 274.968" stroke="#304436" stroke-width="2" stroke-linecap="round" stroke-linejoin="round"/>
<path d="M363 256.5H355V245.25V234M359.5 147.5H355V226.5V234M355 234H359.5M329.5 271H345.5H362" stroke="#465FB1" stroke-width="2" stroke-linecap="round" stroke-linejoin="round"/>
<path d="M304 253.182C304 251.977 304.802 251 305.792 251L318.595 251L331.779 251C332.769 251 333.571 251.977 333.571 253.182V302.818C333.571 304.023 332.769 305 331.779 305H305.792C304.802 305 304 304.023 304 302.818V253.182Z" fill="white" stroke="#304436"/>
<path d="M318.948 281.073C318.696 280.76 318.532 280.571 318.532 280.571C318.532 280.571 318.367 280.76 318.115 281.073C317.3 282.089 315.572 284.424 315.572 285.954C315.572 286.751 315.883 287.515 316.439 288.079C316.994 288.642 317.747 288.958 318.532 288.958C319.317 288.958 320.07 288.642 320.625 288.079C321.18 287.515 321.492 286.751 321.492 285.954C321.492 284.424 319.763 282.089 318.948 281.073Z" fill="#304436"/>
<path d="M310.428 259.874C310.428 259.234 310.942 258.714 311.575 258.714H325.996C326.63 258.714 327.143 259.234 327.143 259.874V263.34C327.143 263.981 326.63 264.5 325.996 264.5H311.575C310.942 264.5 310.428 263.981 310.428 263.34V259.874Z" fill="#93D3F6" stroke="#304436"/>
<path d="M311.714 263.857L317.929 259.357H319.857L313.643 263.857H311.714Z" fill="white" fill-opacity="0.3"/>
<path d="M314.714 263.857L320.929 259.357H322L315.786 263.857H314.714Z" fill="white" fill-opacity="0.3"/>
<ellipse cx="316.68" cy="268.824" rx="1.10894" ry="1.10997" fill="#304436"/>
<ellipse cx="321.116" cy="268.824" rx="1.10894" ry="1.10997" fill="#304436"/>
<path d="M370.771 203.681L372 204.91" stroke="#304436" stroke-linecap="round"/>
<path d="M368.926 205.525L370.976 207.575" stroke="#304436" stroke-linecap="round"/>
<path d="M367.081 207.37L369.131 209.419" stroke="#304436" stroke-linecap="round"/>
<path d="M365.237 209.215L366.466 210.444" stroke="#304436" stroke-linecap="round"/>
<path d="M361 200H358V239H361L361 202.5L361 200Z" fill="white"/>
<path d="M361 202.5L361 239H358V200H361L361 202.5ZM361 202.5L364 204" stroke="#304436"/>
<path d="M370.121 202.506C370.121 202.506 367.615 200 364.394 203.221C361.172 206.443 363.678 208.948 363.678 208.948L370.121 202.506Z" fill="white" stroke="#304436"/>
<path d="M370.771 119.681L372 120.91" stroke="#304436" stroke-linecap="round"/>
<path d="M368.926 121.525L370.976 123.575" stroke="#304436" stroke-linecap="round"/>
<path d="M367.081 123.37L369.131 125.419" stroke="#304436" stroke-linecap="round"/>
<path d="M365.237 125.215L366.466 126.444" stroke="#304436" stroke-linecap="round"/>
<path d="M361 116H358V155H361L361 118.5L361 116Z" fill="white"/>
<path d="M361 118.5L361 155H358V116H361L361 118.5ZM361 118.5L364 120" stroke="#304436"/>
<path d="M370.121 118.506C370.121 118.506 367.615 116 364.394 119.221C361.172 122.443 363.678 124.948 363.678 124.948L370.121 118.506Z" fill="white" stroke="#304436"/>
<path d="M294.129 45.8823C294.129 43.8567 295.843 42.2147 297.958 42.2147H339.124C341.239 42.2147 342.953 43.8567 342.953 45.8823V66.9709C342.953 68.9965 341.239 70.6385 339.124 70.6385H297.958C295.843 70.6385 294.129 68.9965 294.129 66.9709V45.8823Z" fill="white" stroke="#304436"/>
<path d="M304.534 47.7415C303.261 48.5921 302.801 50.9771 303.638 52.4477C304.013 52.9652 304.398 53.2684 304.398 53.2684C304.076 53.0585 303.825 52.7759 303.638 52.4477C303.21 51.8577 302.795 50.9889 302.977 49.9733C303.317 48.0671 304.534 47.7415 304.534 47.7415Z" fill="white" fill-opacity="0.3"/>
<path d="M326.042 49.5029H336.458" stroke="#304436" stroke-width="2" stroke-linecap="round"/>
<path d="M326.042 53.4H336.458" stroke="#304436" stroke-width="2" stroke-linecap="round"/>
<path d="M326.042 57.12H336.458" stroke="#304436" stroke-width="2" stroke-linecap="round"/>
<path d="M306.289 55.0793L304.006 52.8273C303.131 51.9637 303.238 50.5212 304.312 49.923C304.952 49.5664 305.66 49.2287 306.289 49.0564C308.047 48.5752 310.958 48.9038 310.958 48.9038" stroke="#304436" stroke-width="2" stroke-linecap="round" stroke-linejoin="round"/>
<path d="M311.137 56.4207L314.301 55.5844C315.482 55.2724 316.662 56.0658 316.653 57.2731C316.647 58.009 316.591 58.7978 316.425 59.4321C315.968 61.1745 314.224 63.4971 314.224 63.4971" stroke="#304436" stroke-width="2" stroke-linecap="round" stroke-linejoin="round"/>
<path d="M307.317 59.8687L306.469 62.99C306.153 64.1541 304.866 64.7658 303.811 64.1543C303.168 63.7816 302.503 63.3393 302.029 62.8801C300.728 61.6189 299.561 58.9677 299.561 58.9677" stroke="#304436" stroke-width="2" stroke-linecap="round" stroke-linejoin="round"/>
<path d="M359.873 248.87C359.873 246.66 361.664 244.87 363.873 244.87L371.844 244.87L380.127 244.87C382.336 244.87 384.127 246.66 384.127 248.87V272.715C384.127 274.924 382.336 276.715 380.127 276.715H363.873C361.664 276.715 359.873 274.924 359.873 272.715V248.87Z" fill="white" stroke="#274430"/>
<path d="M380.959 244.87L382.49 244.87C383.358 244.87 384.061 245.573 384.061 246.441V273.612C384.061 275.326 382.672 276.715 380.959 276.715V244.87Z" fill="#565656" fill-opacity="0.3"/>
<ellipse cx="372" cy="252.505" rx="4.04236" ry="4.00393" fill="#304436" stroke="#274430" stroke-width="2"/>
<path d="M372 250.103L372.61 252.522C372.711 252.92 372.41 253.306 372 253.306C371.59 253.306 371.289 252.92 371.389 252.522L372 250.103Z" fill="white"/>
<ellipse cx="372" cy="268.707" rx="3.23388" ry="3.20315" fill="#304436" stroke="#274430" stroke-width="2"/>
<ellipse cx="372" cy="268.707" rx="1.61694" ry="1.60157" fill="white" fill-opacity="0.3"/>
<path d="M362.975 276.715H381.025V276.95C381.025 278.054 380.129 278.95 379.025 278.95H364.975C363.871 278.95 362.975 278.054 362.975 276.95V276.715Z" fill="white" stroke="#274430"/>
<rect width="0.806557" height="3.57766" transform="matrix(0.868081 -0.496423 0.503585 0.863945 370.787 267.306)" fill="white"/>
<path d="M380.743 276.994H379.673C379.289 276.994 378.908 277.05 378.538 277.155C377.88 277.342 376.769 277.65 375.948 277.832C373.668 278.337 370.026 278.67 370.026 278.67H380.743V276.994Z" fill="#565656" fill-opacity="0.3"/>
<g filter="url(#filter0_d_2277_6642)">
<rect x="271" y="310" width="96" height="20" fill="white" shape-rendering="crispEdges"/>
<rect x="271.5" y="310.5" width="95" height="19" stroke="#304436" shape-rendering="crispEdges"/>
<path d="M279.096 322.356V317.1H280.8V322.212C280.8 324.42 279.504 325.74 277.392 325.74C275.292 325.74 273.996 324.42 273.996 322.212V317.1H275.7V322.356C275.7 323.484 276.336 324.144 277.404 324.144C278.448 324.144 279.096 323.484 279.096 322.356ZM282.631 325.5V319.452H284.155V319.932C284.575 319.524 285.139 319.212 285.943 319.212C287.251 319.212 288.295 320.112 288.295 321.9V325.5H286.759V321.96C286.759 321.156 286.303 320.652 285.559 320.652C284.791 320.652 284.383 321.168 284.155 321.552V325.5H282.631ZM290.793 318.396C290.253 318.396 289.797 317.94 289.797 317.4C289.797 316.86 290.253 316.404 290.793 316.404C291.333 316.404 291.777 316.86 291.777 317.4C291.777 317.94 291.333 318.396 290.793 318.396ZM290.025 325.5V319.452H291.549V325.5H290.025ZM293.761 323.292V320.82H292.633V319.452H293.761V317.94H295.297V319.452H297.145V320.82H295.297V323.292C295.297 323.964 295.657 324.228 296.257 324.228C296.677 324.228 296.953 324.18 297.157 324.096V325.428C296.857 325.56 296.497 325.62 295.993 325.62C294.481 325.62 293.761 324.768 293.761 323.292ZM301.908 318.492H300.444L301.692 316.5H303.348L301.908 318.492ZM303.96 324.516C303.396 325.272 302.46 325.74 301.32 325.74C299.172 325.74 297.96 324.24 297.96 322.476C297.96 320.688 299.088 319.212 301.068 319.212C302.748 319.212 303.852 320.352 303.852 321.936C303.852 322.272 303.804 322.584 303.756 322.788H299.52C299.664 323.916 300.36 324.372 301.308 324.372C301.968 324.372 302.544 324.084 302.868 323.652L303.96 324.516ZM301.032 320.46C300.252 320.46 299.736 320.892 299.568 321.684H302.352C302.328 321.072 301.884 320.46 301.032 320.46ZM309.344 318.396C308.804 318.396 308.348 317.94 308.348 317.4C308.348 316.86 308.804 316.404 309.344 316.404C309.884 316.404 310.328 316.86 310.328 317.4C310.328 317.94 309.884 318.396 309.344 318.396ZM308.576 325.5V319.452H310.1V325.5H308.576ZM311.928 325.5V319.452H313.452V319.932C313.872 319.524 314.436 319.212 315.24 319.212C316.548 319.212 317.592 320.112 317.592 321.9V325.5H316.056V321.96C316.056 321.156 315.6 320.652 314.856 320.652C314.088 320.652 313.68 321.168 313.452 321.552V325.5H311.928ZM319.706 323.292V320.82H318.578V319.452H319.706V317.94H321.242V319.452H323.09V320.82H321.242V323.292C321.242 323.964 321.602 324.228 322.202 324.228C322.622 324.228 322.898 324.18 323.102 324.096V325.428C322.802 325.56 322.442 325.62 321.938 325.62C320.426 325.62 319.706 324.768 319.706 323.292ZM327.854 318.492H326.39L327.638 316.5H329.294L327.854 318.492ZM329.906 324.516C329.342 325.272 328.406 325.74 327.266 325.74C325.118 325.74 323.906 324.24 323.906 322.476C323.906 320.688 325.034 319.212 327.014 319.212C328.694 319.212 329.798 320.352 329.798 321.936C329.798 322.272 329.75 322.584 329.702 322.788H325.466C325.61 323.916 326.306 324.372 327.254 324.372C327.914 324.372 328.49 324.084 328.814 323.652L329.906 324.516ZM326.978 320.46C326.198 320.46 325.682 320.892 325.514 321.684H328.298C328.274 321.072 327.83 320.46 326.978 320.46ZM331.287 325.5V319.452H332.811V320.052C333.207 319.644 333.723 319.332 334.407 319.332C334.611 319.332 334.791 319.368 334.935 319.416V320.916C334.743 320.868 334.539 320.832 334.263 320.832C333.519 320.832 333.039 321.24 332.811 321.624V325.5H331.287ZM336.93 318.396C336.39 318.396 335.934 317.94 335.934 317.4C335.934 316.86 336.39 316.404 336.93 316.404C337.47 316.404 337.914 316.86 337.914 317.4C337.914 317.94 337.47 318.396 336.93 318.396ZM336.162 325.5V319.452H337.686V325.5H336.162ZM345.082 324.516C344.518 325.272 343.582 325.74 342.442 325.74C340.294 325.74 339.082 324.24 339.082 322.476C339.082 320.688 340.21 319.212 342.19 319.212C343.87 319.212 344.974 320.352 344.974 321.936C344.974 322.272 344.926 322.584 344.878 322.788H340.642C340.786 323.916 341.482 324.372 342.43 324.372C343.09 324.372 343.666 324.084 343.99 323.652L345.082 324.516ZM342.154 320.46C341.374 320.46 340.858 320.892 340.69 321.684H343.474C343.45 321.072 343.006 320.46 342.154 320.46ZM350.376 322.884V319.452H351.912V322.812C351.912 324.624 350.856 325.74 349.08 325.74C347.304 325.74 346.26 324.624 346.26 322.812V319.452H347.796V322.884C347.796 323.76 348.252 324.3 349.092 324.3C349.92 324.3 350.376 323.76 350.376 322.884ZM353.6 325.5V319.452H355.124V320.052C355.52 319.644 356.036 319.332 356.72 319.332C356.924 319.332 357.104 319.368 357.248 319.416V320.916C357.056 320.868 356.852 320.832 356.576 320.832C355.832 320.832 355.352 321.24 355.124 321.624V325.5H353.6ZM363.785 324.516C363.221 325.272 362.285 325.74 361.145 325.74C358.997 325.74 357.785 324.24 357.785 322.476C357.785 320.688 358.913 319.212 360.893 319.212C362.573 319.212 363.677 320.352 363.677 321.936C363.677 322.272 363.629 322.584 363.581 322.788H359.345C359.489 323.916 360.185 324.372 361.133 324.372C361.793 324.372 362.369 324.084 362.693 323.652L363.785 324.516ZM360.857 320.46C360.077 320.46 359.561 320.892 359.393 321.684H362.177C362.153 321.072 361.709 320.46 360.857 320.46Z" fill="#304436"/>
</g>
<g filter="url(#filter1_d_2277_6642)">
<rect x="387" y="249" width="121" height="21" fill="white" shape-rendering="crispEdges"/>
<rect x="387.5" y="249.5" width="120" height="20" stroke="#304436" shape-rendering="crispEdges"/>
<path d="M390.236 265V256.6H392.708C394.46 256.6 395.528 257.464 395.528 258.88C395.528 259.564 395.216 260.152 394.628 260.536C395.516 260.932 396.008 261.652 396.008 262.528C396.008 264.064 394.82 265 392.888 265H390.236ZM392.744 258.016H391.94V259.912H392.744C393.392 259.912 393.776 259.564 393.776 258.952C393.776 258.364 393.392 258.016 392.744 258.016ZM392.984 261.328H391.94V263.584H392.984C393.776 263.584 394.256 263.164 394.256 262.456C394.256 261.736 393.776 261.328 392.984 261.328ZM399.257 265.18C398.045 265.18 397.217 264.484 397.217 263.368C397.217 262.456 397.925 261.772 399.221 261.556L401.069 261.244V261.088C401.069 260.452 400.589 260.044 399.893 260.044C399.305 260.044 398.849 260.32 398.525 260.764L397.409 259.912C397.949 259.168 398.837 258.712 399.941 258.712C401.693 258.712 402.593 259.756 402.593 261.088V265H401.069V264.412C400.685 264.88 399.965 265.18 399.257 265.18ZM398.729 263.296C398.729 263.704 399.053 263.968 399.569 263.968C400.265 263.968 400.769 263.644 401.069 263.164V262.312L399.629 262.552C398.993 262.66 398.729 262.924 398.729 263.296ZM404.338 265V256H405.862V265H404.338ZM407.689 265V256H409.213V265H407.689ZM413.921 258.712C415.889 258.712 417.233 260.164 417.233 261.976C417.233 263.788 415.889 265.24 413.921 265.24C411.953 265.24 410.609 263.788 410.609 261.976C410.609 260.164 411.953 258.712 413.921 258.712ZM413.945 263.8C414.917 263.8 415.649 263.02 415.649 261.976C415.649 260.92 414.917 260.152 413.945 260.152C412.937 260.152 412.193 260.92 412.193 261.976C412.193 263.032 412.937 263.8 413.945 263.8ZM418.623 265V258.952H420.147V259.432C420.567 259.024 421.131 258.712 421.935 258.712C423.243 258.712 424.287 259.612 424.287 261.4V265H422.751V261.46C422.751 260.656 422.295 260.152 421.551 260.152C420.783 260.152 420.375 260.668 420.147 261.052V265H418.623ZM428.82 261.976C428.82 260.212 429.984 258.712 431.892 258.712C432.708 258.712 433.296 258.964 433.764 259.432V256H435.3V265H433.764V264.52C433.296 264.988 432.708 265.24 431.892 265.24C429.984 265.24 428.82 263.74 428.82 261.976ZM430.416 261.976C430.416 263.032 431.076 263.8 432.108 263.8C432.792 263.8 433.356 263.512 433.764 262.96V260.992C433.356 260.44 432.792 260.152 432.108 260.152C431.076 260.152 430.416 260.92 430.416 261.976ZM437.941 260.056H436.525L437.605 256.6H439.333L437.941 260.056ZM445.425 264.016C444.861 264.772 443.925 265.24 442.785 265.24C440.637 265.24 439.425 263.74 439.425 261.976C439.425 260.188 440.553 258.712 442.533 258.712C444.213 258.712 445.317 259.852 445.317 261.436C445.317 261.772 445.269 262.084 445.221 262.288H440.985C441.129 263.416 441.825 263.872 442.773 263.872C443.433 263.872 444.009 263.584 444.333 263.152L445.425 264.016ZM442.497 259.96C441.717 259.96 441.201 260.392 441.033 261.184H443.817C443.793 260.572 443.349 259.96 442.497 259.96ZM448.429 265.18C447.217 265.18 446.389 264.484 446.389 263.368C446.389 262.456 447.097 261.772 448.393 261.556L450.241 261.244V261.088C450.241 260.452 449.761 260.044 449.065 260.044C448.477 260.044 448.021 260.32 447.697 260.764L446.581 259.912C447.121 259.168 448.009 258.712 449.113 258.712C450.865 258.712 451.765 259.756 451.765 261.088V265H450.241V264.412C449.857 264.88 449.137 265.18 448.429 265.18ZM447.901 263.296C447.901 263.704 448.225 263.968 448.741 263.968C449.437 263.968 449.941 263.644 450.241 263.164V262.312L448.801 262.552C448.165 262.66 447.901 262.924 447.901 263.296ZM457.494 262.384V258.952H459.03V262.312C459.03 264.124 457.974 265.24 456.198 265.24C454.422 265.24 453.378 264.124 453.378 262.312V258.952H454.914V262.384C454.914 263.26 455.37 263.8 456.21 263.8C457.038 263.8 457.494 263.26 457.494 262.384ZM466.855 263.8C467.455 263.8 467.935 263.524 468.223 263.104L469.411 264.016C468.847 264.76 467.959 265.24 466.855 265.24C464.767 265.24 463.519 263.74 463.519 261.976C463.519 260.212 464.767 258.712 466.855 258.712C467.959 258.712 468.847 259.192 469.411 259.936L468.223 260.848C467.935 260.428 467.455 260.152 466.831 260.152C465.835 260.152 465.103 260.92 465.103 261.976C465.103 263.044 465.835 263.8 466.855 263.8ZM470.549 265V256H472.073V259.432C472.493 259.024 473.057 258.712 473.861 258.712C475.169 258.712 476.213 259.612 476.213 261.4V265H474.677V261.46C474.677 260.656 474.233 260.152 473.477 260.152C472.709 260.152 472.301 260.668 472.073 261.052V265H470.549ZM479.647 265.18C478.435 265.18 477.607 264.484 477.607 263.368C477.607 262.456 478.315 261.772 479.611 261.556L481.459 261.244V261.088C481.459 260.452 480.979 260.044 480.283 260.044C479.695 260.044 479.239 260.32 478.915 260.764L477.799 259.912C478.339 259.168 479.227 258.712 480.331 258.712C482.083 258.712 482.983 259.756 482.983 261.088V265H481.459V264.412C481.075 264.88 480.355 265.18 479.647 265.18ZM479.119 263.296C479.119 263.704 479.443 263.968 479.959 263.968C480.655 263.968 481.159 263.644 481.459 263.164V262.312L480.019 262.552C479.383 262.66 479.119 262.924 479.119 263.296ZM488.712 262.384V258.952H490.248V262.312C490.248 264.124 489.192 265.24 487.416 265.24C485.64 265.24 484.596 264.124 484.596 262.312V258.952H486.132V262.384C486.132 263.26 486.588 263.8 487.428 263.8C488.256 263.8 488.712 263.26 488.712 262.384ZM491.503 261.976C491.503 260.212 492.667 258.712 494.575 258.712C495.391 258.712 495.979 258.964 496.447 259.432V256H497.983V265H496.447V264.52C495.979 264.988 495.391 265.24 494.575 265.24C492.667 265.24 491.503 263.74 491.503 261.976ZM493.099 261.976C493.099 263.032 493.759 263.8 494.791 263.8C495.475 263.8 496.039 263.512 496.447 262.96V260.992C496.039 260.44 495.475 260.152 494.791 260.152C493.759 260.152 493.099 260.92 493.099 261.976ZM505.378 264.016C504.814 264.772 503.878 265.24 502.738 265.24C500.59 265.24 499.378 263.74 499.378 261.976C499.378 260.188 500.506 258.712 502.486 258.712C504.166 258.712 505.27 259.852 505.27 261.436C505.27 261.772 505.222 262.084 505.174 262.288H500.938C501.082 263.416 501.778 263.872 502.726 263.872C503.386 263.872 503.962 263.584 504.286 263.152L505.378 264.016ZM502.45 259.96C501.67 259.96 501.154 260.392 500.986 261.184H503.77C503.746 260.572 503.302 259.96 502.45 259.96Z" fill="#304436"/>
</g>
<g filter="url(#filter2_d_2277_6642)">
<rect x="107" y="223" width="22" height="20" fill="white" shape-rendering="crispEdges"/>
<rect x="107.5" y="223.5" width="21" height="19" stroke="#304436" shape-rendering="crispEdges"/>
<path d="M109.18 238.5L112.36 230.1H114.592L117.772 238.5H115.96L115.156 236.316H111.796L110.992 238.5H109.18ZM112.324 234.864H114.628L113.476 231.708L112.324 234.864ZM119.996 231.396C119.456 231.396 119 230.94 119 230.4C119 229.86 119.456 229.404 119.996 229.404C120.536 229.404 120.98 229.86 120.98 230.4C120.98 230.94 120.536 231.396 119.996 231.396ZM119.228 238.5V232.452H120.752V238.5H119.228ZM122.58 238.5V232.452H124.104V233.052C124.5 232.644 125.016 232.332 125.7 232.332C125.904 232.332 126.084 232.368 126.228 232.416V233.916C126.036 233.868 125.832 233.832 125.556 233.832C124.812 233.832 124.332 234.24 124.104 234.624V238.5H122.58Z" fill="#304436"/>
</g>
<path d="M209.912 299V290H211.436V299H209.912ZM216.144 292.712C218.112 292.712 219.456 294.164 219.456 295.976C219.456 297.788 218.112 299.24 216.144 299.24C214.176 299.24 212.832 297.788 212.832 295.976C212.832 294.164 214.176 292.712 216.144 292.712ZM216.168 297.8C217.14 297.8 217.872 297.02 217.872 295.976C217.872 294.92 217.14 294.152 216.168 294.152C215.16 294.152 214.416 294.92 214.416 295.976C214.416 297.032 215.16 297.8 216.168 297.8ZM223.808 297.8C224.408 297.8 224.888 297.524 225.176 297.104L226.364 298.016C225.8 298.76 224.912 299.24 223.808 299.24C221.72 299.24 220.472 297.74 220.472 295.976C220.472 294.212 221.72 292.712 223.808 292.712C224.912 292.712 225.8 293.192 226.364 293.936L225.176 294.848C224.888 294.428 224.408 294.152 223.784 294.152C222.788 294.152 222.056 294.92 222.056 295.976C222.056 297.044 222.788 297.8 223.808 297.8ZM229.1 299.18C227.888 299.18 227.06 298.484 227.06 297.368C227.06 296.456 227.768 295.772 229.064 295.556L230.912 295.244V295.088C230.912 294.452 230.432 294.044 229.736 294.044C229.148 294.044 228.692 294.32 228.368 294.764L227.252 293.912C227.792 293.168 228.68 292.712 229.784 292.712C231.536 292.712 232.436 293.756 232.436 295.088V299H230.912V298.412C230.528 298.88 229.808 299.18 229.1 299.18ZM228.572 297.296C228.572 297.704 228.896 297.968 229.412 297.968C230.108 297.968 230.612 297.644 230.912 297.164V296.312L229.472 296.552C228.836 296.66 228.572 296.924 228.572 297.296ZM234.182 299V290H235.706V299H234.182Z" fill="#535F57"/>
<path d="M235 19H401C409.837 19 417 26.1634 417 35V71H235V19Z" fill="#CCC4C4"/>
<path d="M328.062 47.5935C328.062 45.6877 329.676 44.1428 331.667 44.1428H370.411C372.401 44.1428 374.015 45.6877 374.015 47.5935V67.435C374.015 69.3408 372.401 70.8857 370.411 70.8857H331.667C329.676 70.8857 328.062 69.3408 328.062 67.435V47.5935Z" fill="white" stroke="#304436" stroke-dasharray="2 2"/>
<path d="M337.856 49.3429C336.657 50.1432 336.224 52.3871 337.012 53.7707C337.365 54.2576 337.727 54.5429 337.727 54.5429C337.425 54.3454 337.188 54.0795 337.012 53.7707C336.61 53.2156 336.219 52.3982 336.39 51.4427C336.711 49.6492 337.856 49.3429 337.856 49.3429Z" fill="white" fill-opacity="0.3"/>
<path d="M358.099 51H367.901" stroke="#304436" stroke-width="2" stroke-linecap="round"/>
<path d="M358.099 54.6667H367.901" stroke="#304436" stroke-width="2" stroke-linecap="round"/>
<path d="M358.099 58.1667H367.901" stroke="#304436" stroke-width="2" stroke-linecap="round"/>
<path d="M339.507 56.2466L337.457 54.2254C336.582 53.3618 336.688 51.9166 337.768 51.3283C338.338 51.0181 338.954 50.7312 339.507 50.58C341.162 50.1272 343.901 50.4364 343.901 50.4364" stroke="#304436" stroke-width="2" stroke-linecap="round" stroke-linejoin="round"/>
<path d="M344.07 57.5087L346.917 56.7565C348.097 56.4447 349.28 57.2381 349.26 58.445C349.249 59.098 349.193 59.7836 349.047 60.3421C348.617 61.9814 346.976 64.1666 346.976 64.1666" stroke="#304436" stroke-width="2" stroke-linecap="round" stroke-linejoin="round"/>
<path d="M340.475 60.7528L339.712 63.56C339.396 64.7238 338.108 65.337 337.058 64.7165C336.49 64.3807 335.916 63.9903 335.498 63.5861C334.273 62.3995 333.175 59.9051 333.175 59.9051" stroke="#304436" stroke-width="2" stroke-linecap="round" stroke-linejoin="round"/>
<path d="M203 86.7959V306H266.827C266.827 306 248.362 289.399 243.403 274.538C233.842 245.887 269.778 241.04 266.827 216.495C264.836 199.937 251.765 194.999 248.446 178.694C245.758 165.489 250.278 157.109 248.407 144.061C246.495 130.727 241.075 119.959 235.935 109.748C233.315 104.545 228.396 91.976 226.424 86.7959C225.574 83.3255 225.065 79.751 225.034 76H203V86.7959Z" fill="url(#pattern0_2277_6642)" stroke="#304436" stroke-width="2"/>
<path d="M209.912 300V291H211.436V300H209.912ZM216.144 293.712C218.112 293.712 219.456 295.164 219.456 296.976C219.456 298.788 218.112 300.24 216.144 300.24C214.176 300.24 212.832 298.788 212.832 296.976C212.832 295.164 214.176 293.712 216.144 293.712ZM216.168 298.8C217.14 298.8 217.872 298.02 217.872 296.976C217.872 295.92 217.14 295.152 216.168 295.152C215.16 295.152 214.416 295.92 214.416 296.976C214.416 298.032 215.16 298.8 216.168 298.8ZM223.808 298.8C224.408 298.8 224.888 298.524 225.176 298.104L226.364 299.016C225.8 299.76 224.912 300.24 223.808 300.24C221.72 300.24 220.472 298.74 220.472 296.976C220.472 295.212 221.72 293.712 223.808 293.712C224.912 293.712 225.8 294.192 226.364 294.936L225.176 295.848C224.888 295.428 224.408 295.152 223.784 295.152C222.788 295.152 222.056 295.92 222.056 296.976C222.056 298.044 222.788 298.8 223.808 298.8ZM229.1 300.18C227.888 300.18 227.06 299.484 227.06 298.368C227.06 297.456 227.768 296.772 229.064 296.556L230.912 296.244V296.088C230.912 295.452 230.432 295.044 229.736 295.044C229.148 295.044 228.692 295.32 228.368 295.764L227.252 294.912C227.792 294.168 228.68 293.712 229.784 293.712C231.536 293.712 232.436 294.756 232.436 296.088V300H230.912V299.412C230.528 299.88 229.808 300.18 229.1 300.18ZM228.572 298.296C228.572 298.704 228.896 298.968 229.412 298.968C230.108 298.968 230.612 298.644 230.912 298.164V297.312L229.472 297.552C228.836 297.66 228.572 297.924 228.572 298.296ZM234.182 300V291H235.706V300H234.182Z" fill="#535F57"/>
<path d="M202.965 157.906H197.359V151H202.965H207.709H217.628H227.413H238.194H248.185V157.906H238.194H227.413H217.628H207.709H202.965Z" fill="#E2D2C3"/>
<path d="M248.185 157.906H207.709M248.185 157.906H217.628M248.185 157.906V151M248.185 151H207.709M248.185 151H217.628M207.709 151H202.965H197.359V157.906H202.965H207.709M207.709 151V157.906M207.709 151H217.628M207.709 157.906H217.628M217.628 151V157.906M227.413 151V157.906M238.194 151V157.906" stroke="#304436" stroke-width="2"/>
<path d="M202.965 242.906H197.359V236H202.965H207.709H217.628H227.413H238.194H249H259.5L253.5 242.906H249H238.194H227.413H217.628H207.709H202.965Z" fill="#E2D2C3"/>
<path d="M253.5 242.906H207.709M253.5 242.906H217.628M253.5 242.906L259.5 236M259.5 236H207.709M259.5 236H217.628M207.709 236H202.965H197.359V242.906H202.965H207.709M207.709 236V242.906M207.709 236H217.628M207.709 242.906H217.628M217.628 236V242.906M227.413 236V242.906M238.194 236V242.906M249 236V242.906" stroke="#304436" stroke-width="2"/>
<path d="M198.95 76.2017H202.832H262.776V70.1585H198.95V76.2017Z" fill="#E2D2C3" stroke="#304436" stroke-width="2"/>
<path d="M230.134 17.4964L202.965 70.1585H263.019C262.564 45.0186 251.697 17.4964 251.697 17.4964H230.134Z" fill="#858181" stroke="#304436" stroke-width="2"/>
<path d="M243.935 19.9507L250.403 16.8304L263.341 10.5899L282.748 19.9507V70.1585H250.403H243.935V19.9507Z" fill="#F3E1D1" stroke="#274430" stroke-width="2"/>
<g clip-path="url(#clip0_2277_6642)">
<rect x="249.11" y="21.813" width="28.4629" height="46.6189" rx="2" fill="#93D3F6"/>
<path d="M249.11 42.2087L266.625 21.813H277.573L249.11 56.7771V42.2087Z" fill="white" fill-opacity="0.3"/>
<path d="M250.204 68.4318L277.573 35.4102V41.2375L254.583 68.4318H250.204Z" fill="white" fill-opacity="0.3"/>
<rect x="249.11" y="21.813" width="28.4629" height="7.76981" fill="#565656" fill-opacity="0.3"/>
</g>
<rect x="249.11" y="21.813" width="28.4629" height="46.6189" rx="2" stroke="#274430" stroke-width="2"/>
<path fill-rule="evenodd" clip-rule="evenodd" d="M262.91 70.1585L262.91 21.813L264.635 21.813L264.635 70.1585L262.91 70.1585Z" fill="#304436"/>
<path fill-rule="evenodd" clip-rule="evenodd" d="M277.573 45.9857L249.11 45.9857L249.11 44.2591L277.573 44.2591L277.573 45.9857Z" fill="#304436"/>
<rect x="241.347" y="66.7052" width="43.9881" height="3.45325" rx="1.72662" fill="#F3E1D1" stroke="#274430" stroke-width="2"/>
<g filter="url(#filter3_d_2277_6642)">
<rect x="96" y="292" width="98" height="20" fill="white" shape-rendering="crispEdges"/>
<rect x="96.5" y="292.5" width="97" height="19" stroke="#304436" shape-rendering="crispEdges"/>
<path d="M104.096 304.356V299.1H105.8V304.212C105.8 306.42 104.504 307.74 102.392 307.74C100.292 307.74 98.996 306.42 98.996 304.212V299.1H100.7V304.356C100.7 305.484 101.336 306.144 102.404 306.144C103.448 306.144 104.096 305.484 104.096 304.356ZM107.631 307.5V301.452H109.155V301.932C109.575 301.524 110.139 301.212 110.943 301.212C112.251 301.212 113.295 302.112 113.295 303.9V307.5H111.759V303.96C111.759 303.156 111.303 302.652 110.559 302.652C109.791 302.652 109.383 303.168 109.155 303.552V307.5H107.631ZM115.793 300.396C115.253 300.396 114.797 299.94 114.797 299.4C114.797 298.86 115.253 298.404 115.793 298.404C116.333 298.404 116.777 298.86 116.777 299.4C116.777 299.94 116.333 300.396 115.793 300.396ZM115.025 307.5V301.452H116.549V307.5H115.025ZM118.761 305.292V302.82H117.633V301.452H118.761V299.94H120.297V301.452H122.145V302.82H120.297V305.292C120.297 305.964 120.657 306.228 121.257 306.228C121.677 306.228 121.953 306.18 122.157 306.096V307.428C121.857 307.56 121.497 307.62 120.993 307.62C119.481 307.62 118.761 306.768 118.761 305.292ZM126.908 300.492H125.444L126.692 298.5H128.348L126.908 300.492ZM128.96 306.516C128.396 307.272 127.46 307.74 126.32 307.74C124.172 307.74 122.96 306.24 122.96 304.476C122.96 302.688 124.088 301.212 126.068 301.212C127.748 301.212 128.852 302.352 128.852 303.936C128.852 304.272 128.804 304.584 128.756 304.788H124.52C124.664 305.916 125.36 306.372 126.308 306.372C126.968 306.372 127.544 306.084 127.868 305.652L128.96 306.516ZM126.032 302.46C125.252 302.46 124.736 302.892 124.568 303.684H127.352C127.328 303.072 126.884 302.46 126.032 302.46ZM139.144 306.516C138.58 307.272 137.644 307.74 136.504 307.74C134.356 307.74 133.144 306.24 133.144 304.476C133.144 302.688 134.272 301.212 136.252 301.212C137.932 301.212 139.036 302.352 139.036 303.936C139.036 304.272 138.988 304.584 138.94 304.788H134.704C134.848 305.916 135.544 306.372 136.492 306.372C137.152 306.372 137.728 306.084 138.052 305.652L139.144 306.516ZM136.216 302.46C135.436 302.46 134.92 302.892 134.752 303.684H137.536C137.512 303.072 137.068 302.46 136.216 302.46ZM141.395 307.5H139.643L141.779 304.392L139.763 301.452H141.503L142.751 303.312L143.999 301.452H145.751L143.723 304.392L145.859 307.5H144.119L142.751 305.472L141.395 307.5ZM147.319 305.292V302.82H146.191V301.452H147.319V299.94H148.855V301.452H150.703V302.82H148.855V305.292C148.855 305.964 149.215 306.228 149.815 306.228C150.235 306.228 150.511 306.18 150.715 306.096V307.428C150.415 307.56 150.055 307.62 149.551 307.62C148.039 307.62 147.319 306.768 147.319 305.292ZM155.467 300.492H154.003L155.251 298.5H156.907L155.467 300.492ZM157.519 306.516C156.955 307.272 156.019 307.74 154.879 307.74C152.731 307.74 151.519 306.24 151.519 304.476C151.519 302.688 152.647 301.212 154.627 301.212C156.307 301.212 157.411 302.352 157.411 303.936C157.411 304.272 157.363 304.584 157.315 304.788H153.079C153.223 305.916 153.919 306.372 154.867 306.372C155.527 306.372 156.103 306.084 156.427 305.652L157.519 306.516ZM154.591 302.46C153.811 302.46 153.295 302.892 153.127 303.684H155.911C155.887 303.072 155.443 302.46 154.591 302.46ZM158.9 307.5V301.452H160.424V302.052C160.82 301.644 161.336 301.332 162.02 301.332C162.224 301.332 162.404 301.368 162.548 301.416V302.916C162.356 302.868 162.152 302.832 161.876 302.832C161.132 302.832 160.652 303.24 160.424 303.624V307.5H158.9ZM164.543 300.396C164.003 300.396 163.547 299.94 163.547 299.4C163.547 298.86 164.003 298.404 164.543 298.404C165.083 298.404 165.527 298.86 165.527 299.4C165.527 299.94 165.083 300.396 164.543 300.396ZM163.775 307.5V301.452H165.299V307.5H163.775ZM172.695 306.516C172.131 307.272 171.195 307.74 170.055 307.74C167.907 307.74 166.695 306.24 166.695 304.476C166.695 302.688 167.823 301.212 169.803 301.212C171.483 301.212 172.587 302.352 172.587 303.936C172.587 304.272 172.539 304.584 172.491 304.788H168.255C168.399 305.916 169.095 306.372 170.043 306.372C170.703 306.372 171.279 306.084 171.603 305.652L172.695 306.516ZM169.767 302.46C168.987 302.46 168.471 302.892 168.303 303.684H171.087C171.063 303.072 170.619 302.46 169.767 302.46ZM177.99 304.884V301.452H179.526V304.812C179.526 306.624 178.47 307.74 176.694 307.74C174.918 307.74 173.874 306.624 173.874 304.812V301.452H175.41V304.884C175.41 305.76 175.866 306.3 176.706 306.3C177.534 306.3 177.99 305.76 177.99 304.884ZM181.213 307.5V301.452H182.737V302.052C183.133 301.644 183.649 301.332 184.333 301.332C184.537 301.332 184.717 301.368 184.861 301.416V302.916C184.669 302.868 184.465 302.832 184.189 302.832C183.445 302.832 182.965 303.24 182.737 303.624V307.5H181.213ZM191.398 306.516C190.834 307.272 189.898 307.74 188.758 307.74C186.61 307.74 185.398 306.24 185.398 304.476C185.398 302.688 186.526 301.212 188.506 301.212C190.186 301.212 191.29 302.352 191.29 303.936C191.29 304.272 191.242 304.584 191.194 304.788H186.958C187.102 305.916 187.798 306.372 188.746 306.372C189.406 306.372 189.982 306.084 190.306 305.652L191.398 306.516ZM188.47 302.46C187.69 302.46 187.174 302.892 187.006 303.684H189.79C189.766 303.072 189.322 302.46 188.47 302.46Z" fill="#304436"/>
</g>
<defs>
<filter id="filter0_d_2277_6642" x="271" y="310" width="97" height="21" filterUnits="userSpaceOnUse" color-interpolation-filters="sRGB">
<feFlood flood-opacity="0" result="BackgroundImageFix"/>
<feColorMatrix in="SourceAlpha" type="matrix" values="0 0 0 0 0 0 0 0 0 0 0 0 0 0 0 0 0 0 127 0" result="hardAlpha"/>
<feOffset dx="1" dy="1"/>
<feComposite in2="hardAlpha" operator="out"/>
<feColorMatrix type="matrix" values="0 0 0 0 0.188235 0 0 0 0 0.266667 0 0 0 0 0.211765 0 0 0 1 0"/>
<feBlend mode="normal" in2="BackgroundImageFix" result="effect1_dropShadow_2277_6642"/>
<feBlend mode="normal" in="SourceGraphic" in2="effect1_dropShadow_2277_6642" result="shape"/>
</filter>
<filter id="filter1_d_2277_6642" x="387" y="249" width="122" height="22" filterUnits="userSpaceOnUse" color-interpolation-filters="sRGB">
<feFlood flood-opacity="0" result="BackgroundImageFix"/>
<feColorMatrix in="SourceAlpha" type="matrix" values="0 0 0 0 0 0 0 0 0 0 0 0 0 0 0 0 0 0 127 0" result="hardAlpha"/>
<feOffset dx="1" dy="1"/>
<feComposite in2="hardAlpha" operator="out"/>
<feColorMatrix type="matrix" values="0 0 0 0 0.188235 0 0 0 0 0.266667 0 0 0 0 0.211765 0 0 0 1 0"/>
<feBlend mode="normal" in2="BackgroundImageFix" result="effect1_dropShadow_2277_6642"/>
<feBlend mode="normal" in="SourceGraphic" in2="effect1_dropShadow_2277_6642" result="shape"/>
</filter>
<filter id="filter2_d_2277_6642" x="107" y="223" width="23" height="21" filterUnits="userSpaceOnUse" color-interpolation-filters="sRGB">
<feFlood flood-opacity="0" result="BackgroundImageFix"/>
<feColorMatrix in="SourceAlpha" type="matrix" values="0 0 0 0 0 0 0 0 0 0 0 0 0 0 0 0 0 0 127 0" result="hardAlpha"/>
<feOffset dx="1" dy="1"/>
<feComposite in2="hardAlpha" operator="out"/>
<feColorMatrix type="matrix" values="0 0 0 0 0.188235 0 0 0 0 0.266667 0 0 0 0 0.211765 0 0 0 1 0"/>
<feBlend mode="normal" in2="BackgroundImageFix" result="effect1_dropShadow_2277_6642"/>
<feBlend mode="normal" in="SourceGraphic" in2="effect1_dropShadow_2277_6642" result="shape"/>
</filter>
<filter id="filter3_d_2277_6642" x="96" y="292" width="99" height="21" filterUnits="userSpaceOnUse" color-interpolation-filters="sRGB">
<feFlood flood-opacity="0" result="BackgroundImageFix"/>
<feColorMatrix in="SourceAlpha" type="matrix" values="0 0 0 0 0 0 0 0 0 0 0 0 0 0 0 0 0 0 127 0" result="hardAlpha"/>
<feOffset dx="1" dy="1"/>
<feComposite in2="hardAlpha" operator="out"/>
<feColorMatrix type="matrix" values="0 0 0 0 0.188235 0 0 0 0 0.266667 0 0 0 0 0.211765 0 0 0 1 0"/>
<feBlend mode="normal" in2="BackgroundImageFix" result="effect1_dropShadow_2277_6642"/>
<feBlend mode="normal" in="SourceGraphic" in2="effect1_dropShadow_2277_6642" result="shape"/>
</filter>
<clipPath id="clip0_2277_6642">
<rect x="249.11" y="21.813" width="28.4629" height="46.6189" rx="2" fill="white"/>
</clipPath>
<pattern id="pattern0_2277_6642" patternUnits="userSpaceOnUse" patternTransform="matrix(17 0 0 14 202.5 75.5)" preserveAspectRatio="none" viewBox="-0.5 -0.5 17 14" width="1" height="1">
<use xlink:href="#pattern0_2277_6642_inner" transform="translate(-25.5 -7)"/>
<use xlink:href="#pattern0_2277_6642_inner" transform="translate(-8.5 -7)"/>
<use xlink:href="#pattern0_2277_6642_inner" transform="translate(8.5 -7)"/>
<use xlink:href="#pattern0_2277_6642_inner" transform="translate(-34 0)"/>
<use xlink:href="#pattern0_2277_6642_inner" transform="translate(-17 0)"/>
<g id="pattern0_2277_6642_inner">
<rect width="17" height="7" fill="#F3E1D1" stroke="white"/>
</g>
<use xlink:href="#pattern0_2277_6642_inner" transform="translate(-25.5 7)"/>
<use xlink:href="#pattern0_2277_6642_inner" transform="translate(-8.5 7)"/>
<use xlink:href="#pattern0_2277_6642_inner" transform="translate(8.5 7)"/>
</pattern></defs>
</svg>
