<svg width="501" height="362" viewBox="0 0 501 362" fill="none" xmlns="http://www.w3.org/2000/svg" xmlns:xlink="http://www.w3.org/1999/xlink">
<path d="M0 0H500V362H0V0Z" fill="white"/>
<path d="M500 0H499V362H500H501V0H500Z" fill="#E9E9E9"/>
<path d="M434 288H56C46.6112 288 39 295.611 39 305V321C39 321 44.6904 323.442 48.5 324.5C64.5465 328.955 74.3628 321.735 91 321C110.312 320.147 121.184 320.228 140.5 321C158.307 321.712 168.259 326.189 186 324.5C199.768 323.19 206.946 332.753 220.5 330C242.774 325.476 255.277 321.487 278 321C296.222 320.61 306.308 326.116 324.5 325C335.139 324.347 340.892 322.043 351.5 321L351.814 320.969C372.803 318.905 385.081 317.697 406 321C424.123 323.862 451 334.5 451 334.5V305C451 295.611 443.389 288 434 288Z" fill="#9A8D81" stroke="#304436" stroke-width="2"/>
<path d="M451 354V334.5C451 334.5 424.123 323.861 406 321C385.081 317.697 372.803 318.905 351.814 320.969L351.5 321C340.892 322.043 335.139 324.347 324.5 325C306.308 326.116 296.222 320.61 278 321C255.277 321.487 242.774 325.476 220.5 330C206.946 332.753 199.768 323.189 186 324.5C168.259 326.189 158.307 321.712 140.5 321C121.184 320.228 110.312 320.147 91 321C74.3628 321.735 64.5465 328.955 48.5 324.5C44.6904 323.442 39 321 39 321V354H278H451Z" fill="#624D45" stroke="#304436" stroke-width="2"/>
<path d="M140.5 321C158.307 321.712 168.259 326.189 186 324.5C195.565 323.59 201.949 327.927 209.5 329.737C223.5 334 243.5 354 232.5 354H39V321C39 321 44.6904 323.442 48.5 324.5C64.5465 328.955 74.3628 321.735 91 321C110.312 320.147 121.184 320.228 140.5 321Z" fill="#5FCDEA"/>
<path d="M278 354C278 354 250.269 354 232.5 354M232.5 354C156.934 354 39 354 39 354V321C39 321 44.6904 323.442 48.5 324.5C64.5465 328.955 74.3628 321.735 91 321C110.312 320.147 121.184 320.228 140.5 321C158.307 321.712 168.259 326.189 186 324.5C195.565 323.59 201.949 327.927 209.5 329.737C223.5 334 243.5 354 232.5 354Z" stroke="#304436" stroke-width="2"/>
<path d="M109 338H103" stroke="white" stroke-opacity="0.9" stroke-width="2" stroke-linecap="round"/>
<path d="M91 330H85" stroke="white" stroke-opacity="0.8" stroke-width="2" stroke-linecap="round"/>
<path d="M49 331H55" stroke="white" stroke-opacity="0.9" stroke-width="2" stroke-linecap="round"/>
<path d="M61 337H55" stroke="white" stroke-opacity="0.8" stroke-width="2" stroke-linecap="round"/>
<path d="M74 341H72" stroke="white" stroke-opacity="0.8" stroke-width="2" stroke-linecap="round"/>
<path d="M96 338L93 338" stroke="white" stroke-opacity="0.9" stroke-width="2" stroke-linecap="round"/>
<path d="M82 330L79 330" stroke="white" stroke-opacity="0.9" stroke-width="2" stroke-linecap="round"/>
<path d="M136 328L133 328" stroke="white" stroke-opacity="0.9" stroke-width="2" stroke-linecap="round"/>
<path d="M142 332L139 332" stroke="white" stroke-opacity="0.4" stroke-width="2" stroke-linecap="round"/>
<path d="M133 344L122 344" stroke="white" stroke-opacity="0.4" stroke-width="2" stroke-linecap="round"/>
<path d="M196 340L185 340" stroke="white" stroke-opacity="0.4" stroke-width="2" stroke-linecap="round"/>
<path d="M209 347L204 347" stroke="white" stroke-opacity="0.9" stroke-width="2" stroke-linecap="round"/>
<path d="M208 301H216" stroke="#304436" stroke-width="2" stroke-linecap="round"/>
<path d="M78 298H86" stroke="#304436" stroke-width="2" stroke-linecap="round"/>
<path d="M53 319H61" stroke="#304436" stroke-width="2" stroke-linecap="round"/>
<path d="M392 295H400" stroke="#304436" stroke-width="2" stroke-linecap="round"/>
<path d="M352.5 314H344.5" stroke="#304436" stroke-width="2" stroke-linecap="round"/>
<path d="M361 300H353" stroke="#304436" stroke-width="2" stroke-linecap="round"/>
<path d="M425.5 346H417.5" stroke="#304436" stroke-width="2" stroke-linecap="round"/>
<path d="M328.5 298H320.5" stroke="#304436" stroke-width="2" stroke-linecap="round"/>
<path d="M401.5 330H393.5" stroke="#304436" stroke-width="2" stroke-linecap="round"/>
<path d="M224 312H232" stroke="#304436" stroke-width="2" stroke-linecap="round"/>
<path d="M94 309H102" stroke="#304436" stroke-width="2" stroke-linecap="round"/>
<path d="M162 297H170" stroke="#304436" stroke-width="2" stroke-linecap="round"/>
<path d="M142 309H150" stroke="#304436" stroke-width="2" stroke-linecap="round"/>
<path d="M48 306H56" stroke="#304436" stroke-width="2" stroke-linecap="round"/>
<path d="M408 306H416" stroke="#304436" stroke-width="2" stroke-linecap="round"/>
<path d="M314 331H322" stroke="#304436" stroke-width="2" stroke-linecap="round"/>
<path d="M277 327H285" stroke="#304436" stroke-width="2" stroke-linecap="round"/>
<path d="M260 335H268" stroke="#304436" stroke-width="2" stroke-linecap="round"/>
<path d="M272 299H280" stroke="#304436" stroke-width="2" stroke-linecap="round"/>
<path d="M199 316H207" stroke="#304436" stroke-width="2" stroke-linecap="round"/>
<path d="M345 331H353" stroke="#304436" stroke-width="2" stroke-linecap="round"/>
<path d="M289 312H281" stroke="#304436" stroke-width="2" stroke-linecap="round"/>
<path d="M361.5 344H353.5" stroke="#304436" stroke-width="2" stroke-linecap="round"/>
<path d="M255 306H258" stroke="#304436" stroke-width="2" stroke-linecap="round"/>
<path d="M125 303H128" stroke="#304436" stroke-width="2" stroke-linecap="round"/>
<path d="M180 319H183" stroke="#304436" stroke-width="2" stroke-linecap="round"/>
<path d="M439 300H442" stroke="#304436" stroke-width="2" stroke-linecap="round"/>
<path d="M374 312H377" stroke="#304436" stroke-width="2" stroke-linecap="round"/>
<path d="M328 338H331" stroke="#304436" stroke-width="2" stroke-linecap="round"/>
<path d="M291 334H294" stroke="#304436" stroke-width="2" stroke-linecap="round"/>
<path d="M265 349L266 349" stroke="#304436" stroke-width="2" stroke-linecap="round"/>
<path d="M305.5 319H302.5" stroke="#304436" stroke-width="2" stroke-linecap="round"/>
<path d="M378.5 351H375.5" stroke="#304436" stroke-width="2" stroke-linecap="round"/>
<path d="M225.5 301L229.5 301" stroke="#304436" stroke-width="2" stroke-linecap="round"/>
<path d="M95.5 298L99.5 298" stroke="#304436" stroke-width="2" stroke-linecap="round"/>
<path d="M160 319L164 319" stroke="#304436" stroke-width="2" stroke-linecap="round"/>
<path d="M119 317L123 317" stroke="#304436" stroke-width="2" stroke-linecap="round"/>
<path d="M409.5 295L413.5 295" stroke="#304436" stroke-width="2" stroke-linecap="round"/>
<path d="M309 340L313 340" stroke="#304436" stroke-width="2" stroke-linecap="round"/>
<path d="M335 314L331 314" stroke="#304436" stroke-width="2" stroke-linecap="round"/>
<path d="M408 346L404 346" stroke="#304436" stroke-width="2" stroke-linecap="round"/>
<path d="M316 298L312 298" stroke="#304436" stroke-width="2" stroke-linecap="round"/>
<path d="M389 330L385 330" stroke="#304436" stroke-width="2" stroke-linecap="round"/>
<path d="M241.5 312L245.5 312" stroke="#304436" stroke-width="2" stroke-linecap="round"/>
<path d="M106 309L110 309" stroke="#304436" stroke-width="2" stroke-linecap="round"/>
<path d="M174 297L178 297" stroke="#304436" stroke-width="2" stroke-linecap="round"/>
<path d="M186 309L190 309" stroke="#304436" stroke-width="2" stroke-linecap="round"/>
<path d="M74 320L78 320" stroke="#304436" stroke-width="2" stroke-linecap="round"/>
<path d="M425.5 306L429.5 306" stroke="#304436" stroke-width="2" stroke-linecap="round"/>
<path d="M314.5 344L318.5 344" stroke="#304436" stroke-width="2" stroke-linecap="round"/>
<path d="M277.5 340L281.5 340" stroke="#304436" stroke-width="2" stroke-linecap="round"/>
<path d="M238 333L242 333" stroke="#304436" stroke-width="2" stroke-linecap="round"/>
<path d="M247 349L257 349" stroke="#304436" stroke-width="2" stroke-linecap="round"/>
<rect x="152" y="335" width="8" height="3" fill="#304436"/>
<rect x="154" y="338" width="4" height="3" fill="#304436"/>
<rect x="169" y="335" width="7" height="3" fill="#304436"/>
<path d="M164.732 347.531L163.706 347.432C162.886 347.353 162.206 347.224 161.551 346.85C160.946 346.504 160.367 345.944 159.746 345.1L161.815 343.666L155.336 342.066L154.56 348.694L156.64 347.252C157.683 348.628 158.9 349.348 160.263 349.392C161.394 349.429 162.62 348.995 163.911 348.1L164.732 347.531Z" fill="#D05D4B"/>
<path d="M171.731 339L172.169 339.931C172.519 340.674 172.869 341.269 173.441 341.758C173.97 342.21 174.691 342.565 175.693 342.864L176.343 340.438L180.027 345.984L174.063 348.945L174.717 346.506C173.074 345.99 171.988 345.089 171.487 343.824C171.072 342.775 171.067 341.477 171.473 339.963L171.731 339Z" fill="#4760B2"/>
<g filter="url(#filter0_d_2160_4105)">
<rect x="21" y="239" width="157" height="23" fill="white" shape-rendering="crispEdges"/>
<rect x="21.5" y="239.5" width="156" height="22" stroke="#304436" shape-rendering="crispEdges"/>
<path d="M28.95 255.418C29.874 255.418 30.672 255.096 31.232 254.564V252.856H28.74V251.162H33.22V255.278C32.31 256.496 30.784 257.28 28.95 257.28C25.772 257.28 23.602 254.9 23.602 252.1C23.602 249.3 25.716 246.92 28.81 246.92C30.588 246.92 32.044 247.718 32.94 248.908L31.372 250.126C30.812 249.328 29.93 248.782 28.81 248.782C26.962 248.782 25.646 250.224 25.646 252.1C25.646 253.976 27.032 255.418 28.95 255.418ZM39.4043 248.824H37.6963L39.1523 246.5H41.0843L39.4043 248.824ZM41.7983 255.852C41.1403 256.734 40.0483 257.28 38.7183 257.28C36.2123 257.28 34.7983 255.53 34.7983 253.472C34.7983 251.386 36.1143 249.664 38.4243 249.664C40.3843 249.664 41.6723 250.994 41.6723 252.842C41.6723 253.234 41.6163 253.598 41.5603 253.836H36.6183C36.7863 255.152 37.5983 255.684 38.7043 255.684C39.4743 255.684 40.1463 255.348 40.5243 254.844L41.7983 255.852ZM38.3823 251.12C37.4723 251.12 36.8703 251.624 36.6743 252.548H39.9223C39.8943 251.834 39.3763 251.12 38.3823 251.12ZM46.715 249.664C49.011 249.664 50.579 251.358 50.579 253.472C50.579 255.586 49.011 257.28 46.715 257.28C44.419 257.28 42.851 255.586 42.851 253.472C42.851 251.358 44.419 249.664 46.715 249.664ZM46.743 255.6C47.877 255.6 48.731 254.69 48.731 253.472C48.731 252.24 47.877 251.344 46.743 251.344C45.567 251.344 44.699 252.24 44.699 253.472C44.699 254.704 45.567 255.6 46.743 255.6ZM52.5667 254.424V251.54H51.2507V249.944H52.5667V248.18H54.3587V249.944H56.5147V251.54H54.3587V254.424C54.3587 255.208 54.7787 255.516 55.4787 255.516C55.9687 255.516 56.2907 255.46 56.5287 255.362V256.916C56.1787 257.07 55.7587 257.14 55.1707 257.14C53.4067 257.14 52.5667 256.146 52.5667 254.424ZM58.107 257V246.5H59.885V250.504C60.375 250.028 61.033 249.664 61.971 249.664C63.497 249.664 64.715 250.714 64.715 252.8V257H62.923V252.87C62.923 251.932 62.405 251.344 61.523 251.344C60.627 251.344 60.151 251.946 59.885 252.394V257H58.107ZM73.2299 255.852C72.5719 256.734 71.4799 257.28 70.1499 257.28C67.6439 257.28 66.2299 255.53 66.2299 253.472C66.2299 251.386 67.5459 249.664 69.8559 249.664C71.8159 249.664 73.1039 250.994 73.1039 252.842C73.1039 253.234 73.0479 253.598 72.9919 253.836H68.0499C68.2179 255.152 69.0299 255.684 70.1359 255.684C70.9059 255.684 71.5779 255.348 71.9559 254.844L73.2299 255.852ZM69.8139 251.12C68.9039 251.12 68.3019 251.624 68.1059 252.548H71.3539C71.3259 251.834 70.8079 251.12 69.8139 251.12ZM74.8413 257V249.944H76.6193V250.644C77.0813 250.168 77.6833 249.804 78.4813 249.804C78.7193 249.804 78.9293 249.846 79.0973 249.902V251.652C78.8733 251.596 78.6353 251.554 78.3133 251.554C77.4453 251.554 76.8853 252.03 76.6193 252.478V257H74.8413ZM80.5288 257V249.944H82.3068V250.476C82.7828 250.014 83.3848 249.664 84.2528 249.664C85.1488 249.664 85.9328 250.056 86.3948 250.812C86.8988 250.196 87.5708 249.664 88.7608 249.664C90.2168 249.664 91.3648 250.672 91.3648 252.66V257H89.5728V252.73C89.5728 251.876 89.1108 251.344 88.3128 251.344C87.5428 251.344 87.1228 251.876 86.8428 252.352C86.8568 252.45 86.8568 252.548 86.8568 252.66V257H85.0648V252.73C85.0648 251.876 84.6028 251.344 83.8048 251.344C82.9928 251.344 82.5728 251.946 82.3068 252.394V257H80.5288ZM94.2901 248.712C93.6601 248.712 93.1281 248.18 93.1281 247.55C93.1281 246.92 93.6601 246.388 94.2901 246.388C94.9201 246.388 95.4381 246.92 95.4381 247.55C95.4381 248.18 94.9201 248.712 94.2901 248.712ZM93.3941 257V249.944H95.1721V257H93.3941ZM103.8 255.852C103.142 256.734 102.05 257.28 100.72 257.28C98.2142 257.28 96.8002 255.53 96.8002 253.472C96.8002 251.386 98.1162 249.664 100.426 249.664C102.386 249.664 103.674 250.994 103.674 252.842C103.674 253.234 103.618 253.598 103.562 253.836H98.6202C98.7882 255.152 99.6002 255.684 100.706 255.684C101.476 255.684 102.148 255.348 102.526 254.844L103.8 255.852ZM100.384 251.12C99.4742 251.12 98.8722 251.624 98.6762 252.548H101.924C101.896 251.834 101.378 251.12 100.384 251.12ZM108.569 255.978L109.745 254.914C110.179 255.46 110.697 255.852 111.369 255.852C111.943 255.852 112.237 255.516 112.237 255.096C112.237 253.864 108.863 254.326 108.863 251.848C108.863 250.602 109.913 249.664 111.383 249.664C112.461 249.664 113.441 250.182 113.945 250.868L112.769 251.904C112.405 251.456 111.943 251.092 111.397 251.092C110.837 251.092 110.571 251.4 110.571 251.764C110.571 252.968 113.945 252.548 113.945 254.984C113.917 256.468 112.727 257.28 111.397 257.28C110.137 257.28 109.241 256.776 108.569 255.978ZM120.232 253.948V249.944H122.024V253.864C122.024 255.978 120.792 257.28 118.72 257.28C116.648 257.28 115.43 255.978 115.43 253.864V249.944H117.222V253.948C117.222 254.97 117.754 255.6 118.734 255.6C119.7 255.6 120.232 254.97 120.232 253.948ZM123.992 257V249.944H125.77V250.644C126.232 250.168 126.834 249.804 127.632 249.804C127.87 249.804 128.08 249.846 128.248 249.902V251.652C128.024 251.596 127.786 251.554 127.464 251.554C126.596 251.554 126.036 252.03 125.77 252.478V257H123.992ZM133.453 257V249.944H135.231V250.504C135.721 250.028 136.379 249.664 137.317 249.664C138.843 249.664 140.061 250.714 140.061 252.8V257H138.269V252.87C138.269 251.932 137.737 251.344 136.869 251.344C135.973 251.344 135.497 251.946 135.231 252.394V257H133.453ZM144.068 257.21C142.654 257.21 141.688 256.398 141.688 255.096C141.688 254.032 142.514 253.234 144.026 252.982L146.182 252.618V252.436C146.182 251.694 145.622 251.218 144.81 251.218C144.124 251.218 143.592 251.54 143.214 252.058L141.912 251.064C142.542 250.196 143.578 249.664 144.866 249.664C146.91 249.664 147.96 250.882 147.96 252.436V257H146.182V256.314C145.734 256.86 144.894 257.21 144.068 257.21ZM143.452 255.012C143.452 255.488 143.83 255.796 144.432 255.796C145.244 255.796 145.832 255.418 146.182 254.858V253.864L144.502 254.144C143.76 254.27 143.452 254.578 143.452 255.012ZM149.996 260.444V249.944H151.774V250.518C152.32 249.972 153.006 249.664 153.972 249.664C156.212 249.664 157.556 251.414 157.556 253.472C157.556 255.53 156.212 257.28 153.972 257.28C153.006 257.28 152.32 256.972 151.774 256.426V260.444H149.996ZM153.72 251.344C152.894 251.344 152.222 251.708 151.774 252.366V254.578C152.25 255.25 152.908 255.6 153.72 255.6C154.924 255.6 155.708 254.704 155.708 253.472C155.708 252.24 154.924 251.344 153.72 251.344ZM159.183 260.444V249.944H160.961V250.518C161.507 249.972 162.193 249.664 163.159 249.664C165.399 249.664 166.743 251.414 166.743 253.472C166.743 255.53 165.399 257.28 163.159 257.28C162.193 257.28 161.507 256.972 160.961 256.426V260.444H159.183ZM162.907 251.344C162.081 251.344 161.409 251.708 160.961 252.366V254.578C161.437 255.25 162.095 255.6 162.907 255.6C164.111 255.6 164.895 254.704 164.895 253.472C164.895 252.24 164.111 251.344 162.907 251.344ZM174.935 255.852C174.277 256.734 173.185 257.28 171.855 257.28C169.349 257.28 167.935 255.53 167.935 253.472C167.935 251.386 169.251 249.664 171.561 249.664C173.521 249.664 174.809 250.994 174.809 252.842C174.809 253.234 174.753 253.598 174.697 253.836H169.755C169.923 255.152 170.735 255.684 171.841 255.684C172.611 255.684 173.283 255.348 173.661 254.844L174.935 255.852ZM171.519 251.12C170.609 251.12 170.007 251.624 169.811 252.548H173.059C173.031 251.834 172.513 251.12 171.519 251.12Z" fill="#304436"/>
</g>
<g filter="url(#filter1_d_2160_4105)">
<rect x="233" y="310" width="103" height="23" fill="white" shape-rendering="crispEdges"/>
<rect x="233.5" y="310.5" width="102" height="22" stroke="#304436" shape-rendering="crispEdges"/>
<path d="M242.112 324.332V318.2H244.1V324.164C244.1 326.74 242.588 328.28 240.124 328.28C237.674 328.28 236.162 326.74 236.162 324.164V318.2H238.15V324.332C238.15 325.648 238.892 326.418 240.138 326.418C241.356 326.418 242.112 325.648 242.112 324.332ZM246.236 328V320.944H248.014V321.504C248.504 321.028 249.162 320.664 250.1 320.664C251.626 320.664 252.844 321.714 252.844 323.8V328H251.052V323.87C251.052 322.932 250.52 322.344 249.652 322.344C248.756 322.344 248.28 322.946 248.014 323.394V328H246.236ZM255.759 319.712C255.129 319.712 254.597 319.18 254.597 318.55C254.597 317.92 255.129 317.388 255.759 317.388C256.389 317.388 256.907 317.92 256.907 318.55C256.907 319.18 256.389 319.712 255.759 319.712ZM254.863 328V320.944H256.641V328H254.863ZM259.221 325.424V322.54H257.905V320.944H259.221V319.18H261.013V320.944H263.169V322.54H261.013V325.424C261.013 326.208 261.433 326.516 262.133 326.516C262.623 326.516 262.945 326.46 263.183 326.362V327.916C262.833 328.07 262.413 328.14 261.825 328.14C260.061 328.14 259.221 327.146 259.221 325.424ZM268.727 319.824H267.019L268.475 317.5H270.407L268.727 319.824ZM271.121 326.852C270.463 327.734 269.371 328.28 268.041 328.28C265.535 328.28 264.121 326.53 264.121 324.472C264.121 322.386 265.437 320.664 267.747 320.664C269.707 320.664 270.995 321.994 270.995 323.842C270.995 324.234 270.939 324.598 270.883 324.836H265.941C266.109 326.152 266.921 326.684 268.027 326.684C268.797 326.684 269.469 326.348 269.847 325.844L271.121 326.852ZM267.705 322.12C266.795 322.12 266.193 322.624 265.997 323.548H269.245C269.217 322.834 268.699 322.12 267.705 322.12ZM277.401 319.712C276.771 319.712 276.239 319.18 276.239 318.55C276.239 317.92 276.771 317.388 277.401 317.388C278.031 317.388 278.549 317.92 278.549 318.55C278.549 319.18 278.031 319.712 277.401 319.712ZM276.505 328V320.944H278.283V328H276.505ZM280.416 328V320.944H282.194V321.504C282.684 321.028 283.342 320.664 284.28 320.664C285.806 320.664 287.024 321.714 287.024 323.8V328H285.232V323.87C285.232 322.932 284.7 322.344 283.832 322.344C282.936 322.344 282.46 322.946 282.194 323.394V328H280.416ZM289.491 325.424V322.54H288.175V320.944H289.491V319.18H291.283V320.944H293.439V322.54H291.283V325.424C291.283 326.208 291.703 326.516 292.403 326.516C292.893 326.516 293.215 326.46 293.453 326.362V327.916C293.103 328.07 292.683 328.14 292.095 328.14C290.331 328.14 289.491 327.146 289.491 325.424ZM298.996 319.824H297.288L298.744 317.5H300.676L298.996 319.824ZM301.39 326.852C300.732 327.734 299.64 328.28 298.31 328.28C295.804 328.28 294.39 326.53 294.39 324.472C294.39 322.386 295.706 320.664 298.016 320.664C299.976 320.664 301.264 321.994 301.264 323.842C301.264 324.234 301.208 324.598 301.152 324.836H296.21C296.378 326.152 297.19 326.684 298.296 326.684C299.066 326.684 299.738 326.348 300.116 325.844L301.39 326.852ZM297.974 322.12C297.064 322.12 296.462 322.624 296.266 323.548H299.514C299.486 322.834 298.968 322.12 297.974 322.12ZM303.002 328V320.944H304.78V321.644C305.242 321.168 305.844 320.804 306.642 320.804C306.88 320.804 307.09 320.846 307.258 320.902V322.652C307.034 322.596 306.796 322.554 306.474 322.554C305.606 322.554 305.046 323.03 304.78 323.478V328H303.002ZM309.585 319.712C308.955 319.712 308.423 319.18 308.423 318.55C308.423 317.92 308.955 317.388 309.585 317.388C310.215 317.388 310.733 317.92 310.733 318.55C310.733 319.18 310.215 319.712 309.585 319.712ZM308.689 328V320.944H310.467V328H308.689ZM319.095 326.852C318.437 327.734 317.345 328.28 316.015 328.28C313.509 328.28 312.095 326.53 312.095 324.472C312.095 322.386 313.411 320.664 315.721 320.664C317.681 320.664 318.969 321.994 318.969 323.842C318.969 324.234 318.913 324.598 318.857 324.836H313.915C314.083 326.152 314.895 326.684 316.001 326.684C316.771 326.684 317.443 326.348 317.821 325.844L319.095 326.852ZM315.679 322.12C314.769 322.12 314.167 322.624 313.971 323.548H317.219C317.191 322.834 316.673 322.12 315.679 322.12ZM325.273 324.948V320.944H327.065V324.864C327.065 326.978 325.833 328.28 323.761 328.28C321.689 328.28 320.471 326.978 320.471 324.864V320.944H322.263V324.948C322.263 325.97 322.795 326.6 323.775 326.6C324.741 326.6 325.273 325.97 325.273 324.948ZM329.033 328V320.944H330.811V321.644C331.273 321.168 331.875 320.804 332.673 320.804C332.911 320.804 333.121 320.846 333.289 320.902V322.652C333.065 322.596 332.827 322.554 332.505 322.554C331.637 322.554 331.077 323.03 330.811 323.478V328H329.033Z" fill="#304436"/>
</g>
<path d="M205.641 75H418.641V306H205.641V75Z" fill="#F3E1D1" stroke="#304436" stroke-width="2"/>
<path fill-rule="evenodd" clip-rule="evenodd" d="M242.688 208.547V212.955C242.688 212.668 242.93 212.436 243.228 212.436H246.472C246.771 212.436 247.013 212.668 247.013 212.955V208.547C247.013 208.834 246.771 209.066 246.472 209.066H243.228C242.93 209.066 242.688 208.834 242.688 208.547Z" fill="white"/>
<path d="M247.013 228.769V212.955C247.013 212.668 246.771 212.436 246.472 212.436H243.228C242.93 212.436 242.688 212.668 242.688 212.955V228.769C242.688 229.055 242.93 229.287 243.228 229.287H246.472C246.771 229.287 247.013 229.055 247.013 228.769Z" fill="white"/>
<path d="M246.472 205.696H243.228C242.93 205.696 242.688 205.928 242.688 206.214V208.547C242.688 208.834 242.93 209.066 243.228 209.066H246.472C246.771 209.066 247.013 208.834 247.013 208.547V206.214C247.013 205.928 246.771 205.696 246.472 205.696Z" fill="white"/>
<path fill-rule="evenodd" clip-rule="evenodd" d="M246.906 208.547V212.955C246.906 212.668 247.148 212.436 247.447 212.436H250.691C250.989 212.436 251.231 212.668 251.231 212.955V208.547C251.231 208.834 250.989 209.066 250.691 209.066H247.447C247.148 209.066 246.906 208.834 246.906 208.547Z" fill="white"/>
<path d="M251.231 228.769V212.955C251.231 212.668 250.989 212.436 250.691 212.436H247.447C247.148 212.436 246.906 212.668 246.906 212.955V228.769C246.906 229.055 247.148 229.287 247.447 229.287H250.691C250.989 229.287 251.231 229.055 251.231 228.769Z" fill="white"/>
<path d="M250.691 205.696H247.447C247.148 205.696 246.906 205.928 246.906 206.214V208.547C246.906 208.834 247.148 209.066 247.447 209.066H250.691C250.989 209.066 251.231 208.834 251.231 208.547V206.214C251.231 205.928 250.989 205.696 250.691 205.696Z" fill="white"/>
<path fill-rule="evenodd" clip-rule="evenodd" d="M251.125 208.539V212.946C251.125 212.66 251.367 212.428 251.666 212.428H254.909C255.208 212.428 255.45 212.66 255.45 212.946V208.539C255.45 208.826 255.208 209.058 254.909 209.058H251.666C251.367 209.058 251.125 208.826 251.125 208.539Z" fill="white"/>
<path d="M255.45 228.76V212.946C255.45 212.66 255.208 212.428 254.909 212.428H251.666C251.367 212.428 251.125 212.66 251.125 212.946V228.76C251.125 229.047 251.367 229.279 251.666 229.279H254.909C255.208 229.279 255.45 229.047 255.45 228.76Z" fill="white"/>
<path d="M254.909 205.688H251.666C251.367 205.688 251.125 205.92 251.125 206.206V208.539C251.125 208.826 251.367 209.058 251.666 209.058H254.909C255.208 209.058 255.45 208.826 255.45 208.539V206.206C255.45 205.92 255.208 205.688 254.909 205.688Z" fill="white"/>
<path fill-rule="evenodd" clip-rule="evenodd" d="M255.766 208.539V212.946C255.766 212.66 256.008 212.428 256.306 212.428H259.55C259.849 212.428 260.091 212.66 260.091 212.946V208.539C260.091 208.826 259.849 209.058 259.55 209.058H256.306C256.008 209.058 255.766 208.826 255.766 208.539Z" fill="white"/>
<path d="M260.091 228.76V212.946C260.091 212.66 259.849 212.428 259.55 212.428H256.306C256.008 212.428 255.766 212.66 255.766 212.946V228.76C255.766 229.047 256.008 229.279 256.306 229.279H259.55C259.849 229.279 260.091 229.047 260.091 228.76Z" fill="white"/>
<path d="M259.55 205.688H256.306C256.008 205.688 255.766 205.92 255.766 206.206V208.539C255.766 208.826 256.008 209.058 256.306 209.058H259.55C259.849 209.058 260.091 208.826 260.091 208.539V206.206C260.091 205.92 259.849 205.688 259.55 205.688Z" fill="white"/>
<path fill-rule="evenodd" clip-rule="evenodd" d="M259.984 208.539V212.946C259.984 212.66 260.226 212.428 260.525 212.428H263.769C264.067 212.428 264.309 212.66 264.309 212.946V208.539C264.309 208.826 264.067 209.058 263.769 209.058H260.525C260.226 209.058 259.984 208.826 259.984 208.539Z" fill="white"/>
<path d="M264.309 228.76V212.946C264.309 212.66 264.067 212.428 263.769 212.428H260.525C260.226 212.428 259.984 212.66 259.984 212.946V228.76C259.984 229.047 260.226 229.279 260.525 229.279H263.769C264.067 229.279 264.309 229.047 264.309 228.76Z" fill="white"/>
<path d="M263.769 205.688H260.525C260.226 205.688 259.984 205.92 259.984 206.206V208.539C259.984 208.826 260.226 209.058 260.525 209.058H263.769C264.067 209.058 264.309 208.826 264.309 208.539V206.206C264.309 205.92 264.067 205.688 263.769 205.688Z" fill="white"/>
<path d="M246.712 208.541V206.206C246.712 205.817 246.09 205.688 245.804 205.688V229.295C246.09 229.295 246.712 229.295 246.712 228.776V212.951V208.541Z" fill="#565656" fill-opacity="0.3"/>
<path fill-rule="evenodd" clip-rule="evenodd" d="M242.58 208.547V212.955C242.58 212.668 242.822 212.436 243.121 212.436H246.365C246.663 212.436 246.905 212.668 246.905 212.955V208.547C246.905 208.834 246.663 209.066 246.365 209.066H243.121C242.822 209.066 242.58 208.834 242.58 208.547Z" fill="#565656" fill-opacity="0.3"/>
<path d="M242.58 228.769V206.214M242.58 228.769C242.58 229.055 242.822 229.287 243.121 229.287H246.365C246.663 229.287 246.905 229.055 246.905 228.769M242.58 228.769V212.955M246.905 228.769V206.214M246.905 228.769V212.955M246.905 206.214C246.905 205.928 246.663 205.696 246.365 205.696H243.121C242.822 205.696 242.58 205.928 242.58 206.214M246.905 206.214V208.547M246.905 206.214V212.955M242.58 206.214V208.547M242.58 206.214V212.955M242.58 208.547C242.58 208.834 242.822 209.066 243.121 209.066H246.365C246.663 209.066 246.905 208.834 246.905 208.547M242.58 208.547V212.955M246.905 208.547V212.955M246.905 212.955C246.905 212.668 246.663 212.436 246.365 212.436H243.121C242.822 212.436 242.58 212.668 242.58 212.955" stroke="#304436"/>
<path d="M251.037 208.541V206.206C251.037 205.817 250.415 205.688 250.129 205.688V229.295C250.415 229.295 251.037 229.295 251.037 228.776V212.951V208.541Z" fill="#565656" fill-opacity="0.3"/>
<path fill-rule="evenodd" clip-rule="evenodd" d="M246.905 208.547V212.955C246.905 212.668 247.147 212.436 247.446 212.436H250.69C250.988 212.436 251.23 212.668 251.23 212.955V208.547C251.23 208.834 250.988 209.066 250.69 209.066H247.446C247.147 209.066 246.905 208.834 246.905 208.547Z" fill="#565656" fill-opacity="0.3"/>
<path d="M246.905 228.769V206.214M246.905 228.769C246.905 229.055 247.147 229.287 247.446 229.287H250.69C250.988 229.287 251.23 229.055 251.23 228.769M246.905 228.769V212.955M251.23 228.769V206.214M251.23 228.769V212.955M251.23 206.214C251.23 205.928 250.988 205.696 250.69 205.696H247.446C247.147 205.696 246.905 205.928 246.905 206.214M251.23 206.214V208.547M251.23 206.214V212.955M246.905 206.214V208.547M246.905 206.214V212.955M246.905 208.547C246.905 208.834 247.147 209.066 247.446 209.066H250.69C250.988 209.066 251.23 208.834 251.23 208.547M246.905 208.547V212.955M251.23 208.547V212.955M251.23 212.955C251.23 212.668 250.988 212.436 250.69 212.436H247.446C247.147 212.436 246.905 212.668 246.905 212.955" stroke="#304436"/>
<path d="M255.363 208.541V206.206C255.363 205.817 254.741 205.688 254.454 205.688V229.295C254.741 229.295 255.363 229.295 255.363 228.776V212.951V208.541Z" fill="#565656" fill-opacity="0.3"/>
<path fill-rule="evenodd" clip-rule="evenodd" d="M251.23 208.547V212.955C251.23 212.668 251.472 212.436 251.771 212.436H255.015C255.313 212.436 255.555 212.668 255.555 212.955V208.547C255.555 208.834 255.313 209.066 255.015 209.066H251.771C251.472 209.066 251.23 208.834 251.23 208.547Z" fill="#565656" fill-opacity="0.3"/>
<path d="M251.23 228.769V206.214M251.23 228.769C251.23 229.055 251.472 229.287 251.771 229.287H255.015C255.313 229.287 255.555 229.055 255.555 228.769M251.23 228.769V212.955M255.555 228.769V206.214M255.555 228.769V212.955M255.555 206.214C255.555 205.928 255.313 205.696 255.015 205.696H251.771C251.472 205.696 251.23 205.928 251.23 206.214M255.555 206.214V208.547M255.555 206.214V212.955M251.23 206.214V208.547M251.23 206.214V212.955M251.23 208.547C251.23 208.834 251.472 209.066 251.771 209.066H255.015C255.313 209.066 255.555 208.834 255.555 208.547M251.23 208.547V212.955M255.555 208.547V212.955M255.555 212.955C255.555 212.668 255.313 212.436 255.015 212.436H251.771C251.472 212.436 251.23 212.668 251.23 212.955" stroke="#304436"/>
<path d="M259.688 208.541V206.206C259.688 205.817 259.066 205.688 258.779 205.688V229.295C259.066 229.295 259.688 229.295 259.688 228.776V212.951V208.541Z" fill="#565656" fill-opacity="0.3"/>
<path fill-rule="evenodd" clip-rule="evenodd" d="M255.556 208.547V212.955C255.556 212.668 255.798 212.436 256.096 212.436H259.34C259.639 212.436 259.881 212.668 259.881 212.955V208.547C259.881 208.834 259.639 209.066 259.34 209.066H256.096C255.798 209.066 255.556 208.834 255.556 208.547Z" fill="#565656" fill-opacity="0.3"/>
<path d="M255.556 228.769V206.214M255.556 228.769C255.556 229.055 255.798 229.287 256.096 229.287H259.34C259.639 229.287 259.881 229.055 259.881 228.769M255.556 228.769V212.955M259.881 228.769V206.214M259.881 228.769V212.955M259.881 206.214C259.881 205.928 259.639 205.696 259.34 205.696H256.096C255.798 205.696 255.556 205.928 255.556 206.214M259.881 206.214V208.547M259.881 206.214V212.955M255.556 206.214V208.547M255.556 206.214V212.955M255.556 208.547C255.556 208.834 255.798 209.066 256.096 209.066H259.34C259.639 209.066 259.881 208.834 259.881 208.547M255.556 208.547V212.955M259.881 208.547V212.955M259.881 212.955C259.881 212.668 259.639 212.436 259.34 212.436H256.096C255.798 212.436 255.556 212.668 255.556 212.955" stroke="#304436"/>
<path d="M264.013 208.541V206.206C264.013 205.817 263.391 205.688 263.104 205.688V229.295C263.391 229.295 264.013 229.295 264.013 228.776V212.951V208.541Z" fill="#565656" fill-opacity="0.3"/>
<path fill-rule="evenodd" clip-rule="evenodd" d="M259.881 208.547V212.955C259.881 212.668 260.123 212.436 260.421 212.436H263.665C263.964 212.436 264.206 212.668 264.206 212.955V208.547C264.206 208.834 263.964 209.066 263.665 209.066H260.421C260.123 209.066 259.881 208.834 259.881 208.547Z" fill="#565656" fill-opacity="0.3"/>
<path d="M259.881 228.769V206.214M259.881 228.769C259.881 229.055 260.123 229.287 260.421 229.287H263.665C263.964 229.287 264.206 229.055 264.206 228.769M259.881 228.769V212.955M264.206 228.769V206.214M264.206 228.769V212.955M264.206 206.214C264.206 205.928 263.964 205.696 263.665 205.696H260.421C260.123 205.696 259.881 205.928 259.881 206.214M264.206 206.214V208.547M264.206 206.214V212.955M259.881 206.214V208.547M259.881 206.214V212.955M259.881 208.547C259.881 208.834 260.123 209.066 260.421 209.066H263.665C263.964 209.066 264.206 208.834 264.206 208.547M259.881 208.547V212.955M264.206 208.547V212.955M264.206 212.955C264.206 212.668 263.964 212.436 263.665 212.436H260.421C260.123 212.436 259.881 212.668 259.881 212.955" stroke="#304436"/>
<path d="M242.558 208.274L241.908 208.274C241.407 208.274 241 207.867 241 207.366C241 206.864 241.407 206.458 241.908 206.458L242.558 206.458L242.558 208.274Z" stroke="#304436"/>
<path d="M242.58 208.44L241.99 208.44C241.448 208.44 241.007 208 241.007 207.457C241.007 206.914 241.448 206.474 241.99 206.474L242.58 206.474L242.58 208.44Z" fill="white" stroke="#304436"/>
<path d="M264.206 206.474H264.795C265.338 206.474 265.778 206.914 265.778 207.457C265.778 208 265.338 208.44 264.795 208.44H264.206L264.206 206.474Z" fill="white" stroke="#304436"/>
<rect x="231.641" y="155" width="186" height="4" fill="#CBB9A9"/>
<rect x="231.641" y="239" width="186" height="4" fill="#CBB9A9"/>
<rect x="231.641" y="70" width="188" height="6" fill="#727B74"/>
<rect x="278.641" y="76" width="167" height="3.99999" transform="rotate(90 278.641 76)" fill="#CBB9A9"/>
<rect x="355.641" y="76" width="167" height="3.99999" transform="rotate(90 355.641 76)" fill="#CBB9A9"/>
<path d="M295 269.5H318.5M318.5 269.5V218.5M318.5 269.5H356.5V234M361 147.5H356.5V226.5V234M356.5 234H361M261.5 143.5H318.5V218.5M318.5 218.5H303" stroke="#465FB1" stroke-width="2" stroke-linecap="round" stroke-linejoin="round"/>
<path d="M325.806 250.797C325.806 248.588 327.597 246.797 329.806 246.797L336.856 246.797L344.194 246.797C346.403 246.797 348.194 248.588 348.194 250.797V271.988C348.194 274.198 346.403 275.988 344.194 275.988H329.806C327.597 275.988 325.806 274.198 325.806 271.988V250.797Z" fill="white" stroke="#274430"/>
<path d="M345.27 246.797L346.683 246.797C347.484 246.797 348.134 247.446 348.134 248.247V273.125C348.134 274.706 346.851 275.988 345.27 275.988V246.797Z" fill="#565656" fill-opacity="0.3"/>
<ellipse cx="337" cy="253.796" rx="3.7314" ry="3.67027" fill="#304436" stroke="#274430" stroke-width="2"/>
<path d="M337 251.594L337.562 253.807C337.656 254.174 337.378 254.53 337 254.53C336.621 254.53 336.344 254.174 336.437 253.807L337 251.594Z" fill="white"/>
<ellipse cx="337" cy="268.648" rx="2.98512" ry="2.93622" fill="#304436" stroke="#274430" stroke-width="2"/>
<ellipse cx="337" cy="268.648" rx="1.49256" ry="1.46811" fill="white" fill-opacity="0.3"/>
<path d="M328.669 275.989H345.331V276.037C345.331 277.142 344.435 278.037 343.331 278.037H330.669C329.565 278.037 328.669 277.142 328.669 276.037V275.989Z" fill="white" stroke="#274430"/>
<rect width="0.743243" height="3.28536" transform="matrix(0.869565 -0.493819 0.506207 0.862412 335.881 267.363)" fill="white"/>
<path d="M345.07 276.245H344.123C343.742 276.245 343.363 276.299 342.996 276.403C342.384 276.576 341.386 276.849 340.645 277.013C338.54 277.476 335.178 277.781 335.178 277.781H345.07V276.245Z" fill="#565656" fill-opacity="0.3"/>
<path fill-rule="evenodd" clip-rule="evenodd" d="M285.953 208.547V212.955C285.953 212.668 286.195 212.436 286.494 212.436H289.738C290.036 212.436 290.278 212.668 290.278 212.955V208.547C290.278 208.834 290.036 209.066 289.738 209.066H286.494C286.195 209.066 285.953 208.834 285.953 208.547Z" fill="white"/>
<path d="M290.278 228.769V212.955C290.278 212.668 290.036 212.436 289.738 212.436H286.494C286.195 212.436 285.953 212.668 285.953 212.955V228.769C285.953 229.055 286.195 229.287 286.494 229.287H289.738C290.036 229.287 290.278 229.055 290.278 228.769Z" fill="white"/>
<path d="M289.738 205.696H286.494C286.195 205.696 285.953 205.928 285.953 206.214V208.547C285.953 208.834 286.195 209.066 286.494 209.066H289.738C290.036 209.066 290.278 208.834 290.278 208.547V206.214C290.278 205.928 290.036 205.696 289.738 205.696Z" fill="white"/>
<path fill-rule="evenodd" clip-rule="evenodd" d="M290.172 208.547V212.955C290.172 212.668 290.414 212.436 290.713 212.436H293.956C294.255 212.436 294.497 212.668 294.497 212.955V208.547C294.497 208.834 294.255 209.066 293.956 209.066H290.713C290.414 209.066 290.172 208.834 290.172 208.547Z" fill="white"/>
<path d="M294.497 228.769V212.955C294.497 212.668 294.255 212.436 293.956 212.436H290.713C290.414 212.436 290.172 212.668 290.172 212.955V228.769C290.172 229.055 290.414 229.287 290.713 229.287H293.956C294.255 229.287 294.497 229.055 294.497 228.769Z" fill="white"/>
<path d="M293.956 205.696H290.713C290.414 205.696 290.172 205.928 290.172 206.214V208.547C290.172 208.834 290.414 209.066 290.713 209.066H293.956C294.255 209.066 294.497 208.834 294.497 208.547V206.214C294.497 205.928 294.255 205.696 293.956 205.696Z" fill="white"/>
<path fill-rule="evenodd" clip-rule="evenodd" d="M294.391 208.539V212.946C294.391 212.66 294.633 212.428 294.931 212.428H298.175C298.474 212.428 298.716 212.66 298.716 212.946V208.539C298.716 208.826 298.474 209.058 298.175 209.058H294.931C294.633 209.058 294.391 208.826 294.391 208.539Z" fill="white"/>
<path d="M298.716 228.76V212.946C298.716 212.66 298.474 212.428 298.175 212.428H294.931C294.633 212.428 294.391 212.66 294.391 212.946V228.76C294.391 229.047 294.633 229.279 294.931 229.279H298.175C298.474 229.279 298.716 229.047 298.716 228.76Z" fill="white"/>
<path d="M298.175 205.688H294.931C294.633 205.688 294.391 205.92 294.391 206.206V208.539C294.391 208.826 294.633 209.058 294.931 209.058H298.175C298.474 209.058 298.716 208.826 298.716 208.539V206.206C298.716 205.92 298.474 205.688 298.175 205.688Z" fill="white"/>
<path fill-rule="evenodd" clip-rule="evenodd" d="M299.031 208.539V212.946C299.031 212.66 299.273 212.428 299.572 212.428H302.816C303.114 212.428 303.356 212.66 303.356 212.946V208.539C303.356 208.826 303.114 209.058 302.816 209.058H299.572C299.273 209.058 299.031 208.826 299.031 208.539Z" fill="white"/>
<path d="M303.356 228.76V212.946C303.356 212.66 303.114 212.428 302.816 212.428H299.572C299.273 212.428 299.031 212.66 299.031 212.946V228.76C299.031 229.047 299.273 229.279 299.572 229.279H302.816C303.114 229.279 303.356 229.047 303.356 228.76Z" fill="white"/>
<path d="M302.816 205.688H299.572C299.273 205.688 299.031 205.92 299.031 206.206V208.539C299.031 208.826 299.273 209.058 299.572 209.058H302.816C303.114 209.058 303.356 208.826 303.356 208.539V206.206C303.356 205.92 303.114 205.688 302.816 205.688Z" fill="white"/>
<path fill-rule="evenodd" clip-rule="evenodd" d="M303.25 208.539V212.946C303.25 212.66 303.492 212.428 303.791 212.428H307.034C307.333 212.428 307.575 212.66 307.575 212.946V208.539C307.575 208.826 307.333 209.058 307.034 209.058H303.791C303.492 209.058 303.25 208.826 303.25 208.539Z" fill="white"/>
<path d="M307.575 228.76V212.946C307.575 212.66 307.333 212.428 307.034 212.428H303.791C303.492 212.428 303.25 212.66 303.25 212.946V228.76C303.25 229.047 303.492 229.279 303.791 229.279H307.034C307.333 229.279 307.575 229.047 307.575 228.76Z" fill="white"/>
<path d="M307.034 205.688H303.791C303.492 205.688 303.25 205.92 303.25 206.206V208.539C303.25 208.826 303.492 209.058 303.791 209.058H307.034C307.333 209.058 307.575 208.826 307.575 208.539V206.206C307.575 205.92 307.333 205.688 307.034 205.688Z" fill="white"/>
<path d="M289.978 208.541V206.206C289.978 205.817 289.356 205.688 289.069 205.688V229.295C289.356 229.295 289.978 229.295 289.978 228.776V212.951V208.541Z" fill="#565656" fill-opacity="0.3"/>
<path fill-rule="evenodd" clip-rule="evenodd" d="M285.846 208.547V212.955C285.846 212.668 286.088 212.436 286.386 212.436H289.63C289.929 212.436 290.171 212.668 290.171 212.955V208.547C290.171 208.834 289.929 209.066 289.63 209.066H286.386C286.088 209.066 285.846 208.834 285.846 208.547Z" fill="#565656" fill-opacity="0.3"/>
<path d="M285.846 228.769V206.214M285.846 228.769C285.846 229.055 286.088 229.287 286.386 229.287H289.63C289.929 229.287 290.171 229.055 290.171 228.769M285.846 228.769V212.955M290.171 228.769V206.214M290.171 228.769V212.955M290.171 206.214C290.171 205.928 289.929 205.696 289.63 205.696H286.386C286.088 205.696 285.846 205.928 285.846 206.214M290.171 206.214V208.547M290.171 206.214V212.955M285.846 206.214V208.547M285.846 206.214V212.955M285.846 208.547C285.846 208.834 286.088 209.066 286.386 209.066H289.63C289.929 209.066 290.171 208.834 290.171 208.547M285.846 208.547V212.955M290.171 208.547V212.955M290.171 212.955C290.171 212.668 289.929 212.436 289.63 212.436H286.386C286.088 212.436 285.846 212.668 285.846 212.955" stroke="#304436"/>
<path d="M294.303 208.541V206.206C294.303 205.817 293.681 205.688 293.394 205.688V229.295C293.681 229.295 294.303 229.295 294.303 228.776V212.951V208.541Z" fill="#565656" fill-opacity="0.3"/>
<path fill-rule="evenodd" clip-rule="evenodd" d="M290.171 208.547V212.955C290.171 212.668 290.413 212.436 290.712 212.436H293.955C294.254 212.436 294.496 212.668 294.496 212.955V208.547C294.496 208.834 294.254 209.066 293.955 209.066H290.712C290.413 209.066 290.171 208.834 290.171 208.547Z" fill="#565656" fill-opacity="0.3"/>
<path d="M290.171 228.769V206.214M290.171 228.769C290.171 229.055 290.413 229.287 290.712 229.287H293.955C294.254 229.287 294.496 229.055 294.496 228.769M290.171 228.769V212.955M294.496 228.769V206.214M294.496 228.769V212.955M294.496 206.214C294.496 205.928 294.254 205.696 293.955 205.696H290.712C290.413 205.696 290.171 205.928 290.171 206.214M294.496 206.214V208.547M294.496 206.214V212.955M290.171 206.214V208.547M290.171 206.214V212.955M290.171 208.547C290.171 208.834 290.413 209.066 290.712 209.066H293.955C294.254 209.066 294.496 208.834 294.496 208.547M290.171 208.547V212.955M294.496 208.547V212.955M294.496 212.955C294.496 212.668 294.254 212.436 293.955 212.436H290.712C290.413 212.436 290.171 212.668 290.171 212.955" stroke="#304436"/>
<path d="M298.628 208.541V206.206C298.628 205.817 298.006 205.688 297.719 205.688V229.295C298.006 229.295 298.628 229.295 298.628 228.776V212.951V208.541Z" fill="#565656" fill-opacity="0.3"/>
<path fill-rule="evenodd" clip-rule="evenodd" d="M294.496 208.547V212.955C294.496 212.668 294.738 212.436 295.037 212.436H298.28C298.579 212.436 298.821 212.668 298.821 212.955V208.547C298.821 208.834 298.579 209.066 298.28 209.066H295.037C294.738 209.066 294.496 208.834 294.496 208.547Z" fill="#565656" fill-opacity="0.3"/>
<path d="M294.496 228.769V206.214M294.496 228.769C294.496 229.055 294.738 229.287 295.037 229.287H298.28C298.579 229.287 298.821 229.055 298.821 228.769M294.496 228.769V212.955M298.821 228.769V206.214M298.821 228.769V212.955M298.821 206.214C298.821 205.928 298.579 205.696 298.28 205.696H295.037C294.738 205.696 294.496 205.928 294.496 206.214M298.821 206.214V208.547M298.821 206.214V212.955M294.496 206.214V208.547M294.496 206.214V212.955M294.496 208.547C294.496 208.834 294.738 209.066 295.037 209.066H298.28C298.579 209.066 298.821 208.834 298.821 208.547M294.496 208.547V212.955M298.821 208.547V212.955M298.821 212.955C298.821 212.668 298.579 212.436 298.28 212.436H295.037C294.738 212.436 294.496 212.668 294.496 212.955" stroke="#304436"/>
<path d="M302.953 208.541V206.206C302.953 205.817 302.331 205.688 302.045 205.688V229.295C302.331 229.295 302.953 229.295 302.953 228.776V212.951V208.541Z" fill="#565656" fill-opacity="0.3"/>
<path fill-rule="evenodd" clip-rule="evenodd" d="M298.821 208.547V212.955C298.821 212.668 299.063 212.436 299.362 212.436H302.606C302.904 212.436 303.146 212.668 303.146 212.955V208.547C303.146 208.834 302.904 209.066 302.606 209.066H299.362C299.063 209.066 298.821 208.834 298.821 208.547Z" fill="#565656" fill-opacity="0.3"/>
<path d="M298.821 228.769V206.214M298.821 228.769C298.821 229.055 299.063 229.287 299.362 229.287H302.606C302.904 229.287 303.146 229.055 303.146 228.769M298.821 228.769V212.955M303.146 228.769V206.214M303.146 228.769V212.955M303.146 206.214C303.146 205.928 302.904 205.696 302.606 205.696H299.362C299.063 205.696 298.821 205.928 298.821 206.214M303.146 206.214V208.547M303.146 206.214V212.955M298.821 206.214V208.547M298.821 206.214V212.955M298.821 208.547C298.821 208.834 299.063 209.066 299.362 209.066H302.606C302.904 209.066 303.146 208.834 303.146 208.547M298.821 208.547V212.955M303.146 208.547V212.955M303.146 212.955C303.146 212.668 302.904 212.436 302.606 212.436H299.362C299.063 212.436 298.821 212.668 298.821 212.955" stroke="#304436"/>
<path d="M307.278 208.541V206.206C307.278 205.817 306.656 205.688 306.37 205.688V229.295C306.656 229.295 307.278 229.295 307.278 228.776V212.951V208.541Z" fill="#565656" fill-opacity="0.3"/>
<path fill-rule="evenodd" clip-rule="evenodd" d="M303.146 208.547V212.955C303.146 212.668 303.388 212.436 303.687 212.436H306.931C307.229 212.436 307.471 212.668 307.471 212.955V208.547C307.471 208.834 307.229 209.066 306.931 209.066H303.687C303.388 209.066 303.146 208.834 303.146 208.547Z" fill="#565656" fill-opacity="0.3"/>
<path d="M303.146 228.769V206.214M303.146 228.769C303.146 229.055 303.388 229.287 303.687 229.287H306.931C307.229 229.287 307.471 229.055 307.471 228.769M303.146 228.769V212.955M307.471 228.769V206.214M307.471 228.769V212.955M307.471 206.214C307.471 205.928 307.229 205.696 306.931 205.696H303.687C303.388 205.696 303.146 205.928 303.146 206.214M307.471 206.214V208.547M307.471 206.214V212.955M303.146 206.214V208.547M303.146 206.214V212.955M303.146 208.547C303.146 208.834 303.388 209.066 303.687 209.066H306.931C307.229 209.066 307.471 208.834 307.471 208.547M303.146 208.547V212.955M307.471 208.547V212.955M307.471 212.955C307.471 212.668 307.229 212.436 306.931 212.436H303.687C303.388 212.436 303.146 212.668 303.146 212.955" stroke="#304436"/>
<path d="M285.824 208.274L285.174 208.274C284.672 208.274 284.266 207.867 284.266 207.366C284.266 206.864 284.672 206.458 285.174 206.458L285.824 206.458L285.824 208.274Z" stroke="#304436"/>
<path d="M285.846 208.44L285.256 208.44C284.713 208.44 284.273 208 284.273 207.457C284.273 206.914 284.713 206.474 285.256 206.474L285.846 206.474L285.846 208.44Z" fill="white" stroke="#304436"/>
<path d="M307.471 206.474H308.061C308.604 206.474 309.044 206.914 309.044 207.457C309.044 208 308.604 208.44 308.061 208.44H307.471L307.471 206.474Z" fill="white" stroke="#304436"/>
<path fill-rule="evenodd" clip-rule="evenodd" d="M285.953 126.547V130.955C285.953 130.668 286.195 130.436 286.494 130.436H289.738C290.036 130.436 290.278 130.668 290.278 130.955V126.547C290.278 126.834 290.036 127.066 289.738 127.066H286.494C286.195 127.066 285.953 126.834 285.953 126.547Z" fill="white"/>
<path d="M290.278 146.769V130.955C290.278 130.668 290.036 130.436 289.738 130.436H286.494C286.195 130.436 285.953 130.668 285.953 130.955V146.769C285.953 147.055 286.195 147.287 286.494 147.287H289.738C290.036 147.287 290.278 147.055 290.278 146.769Z" fill="white"/>
<path d="M289.738 123.696H286.494C286.195 123.696 285.953 123.928 285.953 124.214V126.547C285.953 126.834 286.195 127.066 286.494 127.066H289.738C290.036 127.066 290.278 126.834 290.278 126.547V124.214C290.278 123.928 290.036 123.696 289.738 123.696Z" fill="white"/>
<path fill-rule="evenodd" clip-rule="evenodd" d="M290.172 126.547V130.955C290.172 130.668 290.414 130.436 290.713 130.436H293.956C294.255 130.436 294.497 130.668 294.497 130.955V126.547C294.497 126.834 294.255 127.066 293.956 127.066H290.713C290.414 127.066 290.172 126.834 290.172 126.547Z" fill="white"/>
<path d="M294.497 146.769V130.955C294.497 130.668 294.255 130.436 293.956 130.436H290.713C290.414 130.436 290.172 130.668 290.172 130.955V146.769C290.172 147.055 290.414 147.287 290.713 147.287H293.956C294.255 147.287 294.497 147.055 294.497 146.769Z" fill="white"/>
<path d="M293.956 123.696H290.713C290.414 123.696 290.172 123.928 290.172 124.214V126.547C290.172 126.834 290.414 127.066 290.713 127.066H293.956C294.255 127.066 294.497 126.834 294.497 126.547V124.214C294.497 123.928 294.255 123.696 293.956 123.696Z" fill="white"/>
<path fill-rule="evenodd" clip-rule="evenodd" d="M294.391 126.539V130.946C294.391 130.66 294.633 130.428 294.931 130.428H298.175C298.474 130.428 298.716 130.66 298.716 130.946V126.539C298.716 126.826 298.474 127.058 298.175 127.058H294.931C294.633 127.058 294.391 126.826 294.391 126.539Z" fill="white"/>
<path d="M298.716 146.76V130.946C298.716 130.66 298.474 130.428 298.175 130.428H294.931C294.633 130.428 294.391 130.66 294.391 130.946V146.76C294.391 147.047 294.633 147.279 294.931 147.279H298.175C298.474 147.279 298.716 147.047 298.716 146.76Z" fill="white"/>
<path d="M298.175 123.688H294.931C294.633 123.688 294.391 123.92 294.391 124.206V126.539C294.391 126.826 294.633 127.058 294.931 127.058H298.175C298.474 127.058 298.716 126.826 298.716 126.539V124.206C298.716 123.92 298.474 123.688 298.175 123.688Z" fill="white"/>
<path fill-rule="evenodd" clip-rule="evenodd" d="M299.031 126.539V130.946C299.031 130.66 299.273 130.428 299.572 130.428H302.816C303.114 130.428 303.356 130.66 303.356 130.946V126.539C303.356 126.826 303.114 127.058 302.816 127.058H299.572C299.273 127.058 299.031 126.826 299.031 126.539Z" fill="white"/>
<path d="M303.356 146.76V130.946C303.356 130.66 303.114 130.428 302.816 130.428H299.572C299.273 130.428 299.031 130.66 299.031 130.946V146.76C299.031 147.047 299.273 147.279 299.572 147.279H302.816C303.114 147.279 303.356 147.047 303.356 146.76Z" fill="white"/>
<path d="M302.816 123.688H299.572C299.273 123.688 299.031 123.92 299.031 124.206V126.539C299.031 126.826 299.273 127.058 299.572 127.058H302.816C303.114 127.058 303.356 126.826 303.356 126.539V124.206C303.356 123.92 303.114 123.688 302.816 123.688Z" fill="white"/>
<path fill-rule="evenodd" clip-rule="evenodd" d="M303.25 126.539V130.946C303.25 130.66 303.492 130.428 303.791 130.428H307.034C307.333 130.428 307.575 130.66 307.575 130.946V126.539C307.575 126.826 307.333 127.058 307.034 127.058H303.791C303.492 127.058 303.25 126.826 303.25 126.539Z" fill="white"/>
<path d="M307.575 146.76V130.946C307.575 130.66 307.333 130.428 307.034 130.428H303.791C303.492 130.428 303.25 130.66 303.25 130.946V146.76C303.25 147.047 303.492 147.279 303.791 147.279H307.034C307.333 147.279 307.575 147.047 307.575 146.76Z" fill="white"/>
<path d="M307.034 123.688H303.791C303.492 123.688 303.25 123.92 303.25 124.206V126.539C303.25 126.826 303.492 127.058 303.791 127.058H307.034C307.333 127.058 307.575 126.826 307.575 126.539V124.206C307.575 123.92 307.333 123.688 307.034 123.688Z" fill="white"/>
<path d="M289.978 126.541V124.206C289.978 123.817 289.356 123.688 289.069 123.688V147.295C289.356 147.295 289.978 147.295 289.978 146.776V130.951V126.541Z" fill="#565656" fill-opacity="0.3"/>
<path fill-rule="evenodd" clip-rule="evenodd" d="M285.846 126.547V130.955C285.846 130.668 286.088 130.436 286.386 130.436H289.63C289.929 130.436 290.171 130.668 290.171 130.955V126.547C290.171 126.834 289.929 127.066 289.63 127.066H286.386C286.088 127.066 285.846 126.834 285.846 126.547Z" fill="#565656" fill-opacity="0.3"/>
<path d="M285.846 146.769V124.214M285.846 146.769C285.846 147.055 286.088 147.287 286.386 147.287H289.63C289.929 147.287 290.171 147.055 290.171 146.769M285.846 146.769V130.955M290.171 146.769V124.214M290.171 146.769V130.955M290.171 124.214C290.171 123.928 289.929 123.696 289.63 123.696H286.386C286.088 123.696 285.846 123.928 285.846 124.214M290.171 124.214V126.547M290.171 124.214V130.955M285.846 124.214V126.547M285.846 124.214V130.955M285.846 126.547C285.846 126.834 286.088 127.066 286.386 127.066H289.63C289.929 127.066 290.171 126.834 290.171 126.547M285.846 126.547V130.955M290.171 126.547V130.955M290.171 130.955C290.171 130.668 289.929 130.436 289.63 130.436H286.386C286.088 130.436 285.846 130.668 285.846 130.955" stroke="#304436"/>
<path d="M294.303 126.541V124.206C294.303 123.817 293.681 123.688 293.394 123.688V147.295C293.681 147.295 294.303 147.295 294.303 146.776V130.951V126.541Z" fill="#565656" fill-opacity="0.3"/>
<path fill-rule="evenodd" clip-rule="evenodd" d="M290.171 126.547V130.955C290.171 130.668 290.413 130.436 290.712 130.436H293.955C294.254 130.436 294.496 130.668 294.496 130.955V126.547C294.496 126.834 294.254 127.066 293.955 127.066H290.712C290.413 127.066 290.171 126.834 290.171 126.547Z" fill="#565656" fill-opacity="0.3"/>
<path d="M290.171 146.769V124.214M290.171 146.769C290.171 147.055 290.413 147.287 290.712 147.287H293.955C294.254 147.287 294.496 147.055 294.496 146.769M290.171 146.769V130.955M294.496 146.769V124.214M294.496 146.769V130.955M294.496 124.214C294.496 123.928 294.254 123.696 293.955 123.696H290.712C290.413 123.696 290.171 123.928 290.171 124.214M294.496 124.214V126.547M294.496 124.214V130.955M290.171 124.214V126.547M290.171 124.214V130.955M290.171 126.547C290.171 126.834 290.413 127.066 290.712 127.066H293.955C294.254 127.066 294.496 126.834 294.496 126.547M290.171 126.547V130.955M294.496 126.547V130.955M294.496 130.955C294.496 130.668 294.254 130.436 293.955 130.436H290.712C290.413 130.436 290.171 130.668 290.171 130.955" stroke="#304436"/>
<path d="M298.628 126.541V124.206C298.628 123.817 298.006 123.688 297.719 123.688V147.295C298.006 147.295 298.628 147.295 298.628 146.776V130.951V126.541Z" fill="#565656" fill-opacity="0.3"/>
<path fill-rule="evenodd" clip-rule="evenodd" d="M294.496 126.547V130.955C294.496 130.668 294.738 130.436 295.037 130.436H298.28C298.579 130.436 298.821 130.668 298.821 130.955V126.547C298.821 126.834 298.579 127.066 298.28 127.066H295.037C294.738 127.066 294.496 126.834 294.496 126.547Z" fill="#565656" fill-opacity="0.3"/>
<path d="M294.496 146.769V124.214M294.496 146.769C294.496 147.055 294.738 147.287 295.037 147.287H298.28C298.579 147.287 298.821 147.055 298.821 146.769M294.496 146.769V130.955M298.821 146.769V124.214M298.821 146.769V130.955M298.821 124.214C298.821 123.928 298.579 123.696 298.28 123.696H295.037C294.738 123.696 294.496 123.928 294.496 124.214M298.821 124.214V126.547M298.821 124.214V130.955M294.496 124.214V126.547M294.496 124.214V130.955M294.496 126.547C294.496 126.834 294.738 127.066 295.037 127.066H298.28C298.579 127.066 298.821 126.834 298.821 126.547M294.496 126.547V130.955M298.821 126.547V130.955M298.821 130.955C298.821 130.668 298.579 130.436 298.28 130.436H295.037C294.738 130.436 294.496 130.668 294.496 130.955" stroke="#304436"/>
<path d="M302.953 126.541V124.206C302.953 123.817 302.331 123.688 302.045 123.688V147.295C302.331 147.295 302.953 147.295 302.953 146.776V130.951V126.541Z" fill="#565656" fill-opacity="0.3"/>
<path fill-rule="evenodd" clip-rule="evenodd" d="M298.821 126.547V130.955C298.821 130.668 299.063 130.436 299.362 130.436H302.606C302.904 130.436 303.146 130.668 303.146 130.955V126.547C303.146 126.834 302.904 127.066 302.606 127.066H299.362C299.063 127.066 298.821 126.834 298.821 126.547Z" fill="#565656" fill-opacity="0.3"/>
<path d="M298.821 146.769V124.214M298.821 146.769C298.821 147.055 299.063 147.287 299.362 147.287H302.606C302.904 147.287 303.146 147.055 303.146 146.769M298.821 146.769V130.955M303.146 146.769V124.214M303.146 146.769V130.955M303.146 124.214C303.146 123.928 302.904 123.696 302.606 123.696H299.362C299.063 123.696 298.821 123.928 298.821 124.214M303.146 124.214V126.547M303.146 124.214V130.955M298.821 124.214V126.547M298.821 124.214V130.955M298.821 126.547C298.821 126.834 299.063 127.066 299.362 127.066H302.606C302.904 127.066 303.146 126.834 303.146 126.547M298.821 126.547V130.955M303.146 126.547V130.955M303.146 130.955C303.146 130.668 302.904 130.436 302.606 130.436H299.362C299.063 130.436 298.821 130.668 298.821 130.955" stroke="#304436"/>
<path d="M307.278 126.541V124.206C307.278 123.817 306.656 123.688 306.37 123.688V147.295C306.656 147.295 307.278 147.295 307.278 146.776V130.951V126.541Z" fill="#565656" fill-opacity="0.3"/>
<path fill-rule="evenodd" clip-rule="evenodd" d="M303.146 126.547V130.955C303.146 130.668 303.388 130.436 303.687 130.436H306.931C307.229 130.436 307.471 130.668 307.471 130.955V126.547C307.471 126.834 307.229 127.066 306.931 127.066H303.687C303.388 127.066 303.146 126.834 303.146 126.547Z" fill="#565656" fill-opacity="0.3"/>
<path d="M303.146 146.769V124.214M303.146 146.769C303.146 147.055 303.388 147.287 303.687 147.287H306.931C307.229 147.287 307.471 147.055 307.471 146.769M303.146 146.769V130.955M307.471 146.769V124.214M307.471 146.769V130.955M307.471 124.214C307.471 123.928 307.229 123.696 306.931 123.696H303.687C303.388 123.696 303.146 123.928 303.146 124.214M307.471 124.214V126.547M307.471 124.214V130.955M303.146 124.214V126.547M303.146 124.214V130.955M303.146 126.547C303.146 126.834 303.388 127.066 303.687 127.066H306.931C307.229 127.066 307.471 126.834 307.471 126.547M303.146 126.547V130.955M307.471 126.547V130.955M307.471 130.955C307.471 130.668 307.229 130.436 306.931 130.436H303.687C303.388 130.436 303.146 130.668 303.146 130.955" stroke="#304436"/>
<path d="M285.824 126.274L285.174 126.274C284.672 126.274 284.266 125.867 284.266 125.366C284.266 124.864 284.672 124.458 285.174 124.458L285.824 124.458L285.824 126.274Z" stroke="#304436"/>
<path d="M285.846 126.44L285.256 126.44C284.713 126.44 284.273 126 284.273 125.457C284.273 124.914 284.713 124.474 285.256 124.474L285.846 124.474L285.846 126.44Z" fill="white" stroke="#304436"/>
<path d="M307.471 124.474H308.061C308.604 124.474 309.044 124.914 309.044 125.457C309.044 126 308.604 126.44 308.061 126.44H307.471L307.471 124.474Z" fill="white" stroke="#304436"/>
<path d="M373.411 203.681L374.641 204.91" stroke="#304436" stroke-linecap="round"/>
<path d="M371.567 205.525L373.616 207.575" stroke="#304436" stroke-linecap="round"/>
<path d="M369.722 207.37L371.772 209.419" stroke="#304436" stroke-linecap="round"/>
<path d="M367.878 209.214L369.107 210.444" stroke="#304436" stroke-linecap="round"/>
<path d="M363.641 200H360.641V239H363.641L363.641 202.5L363.641 200Z" fill="white"/>
<path d="M363.641 202.5L363.641 239H360.641V200H363.641L363.641 202.5ZM363.641 202.5L366.641 204" stroke="#304436"/>
<path d="M372.762 202.506C372.762 202.506 370.256 200 367.035 203.221C363.813 206.443 366.319 208.948 366.319 208.948L372.762 202.506Z" fill="white" stroke="#304436"/>
<path d="M373.411 119.681L374.641 120.91" stroke="#304436" stroke-linecap="round"/>
<path d="M371.567 121.525L373.616 123.575" stroke="#304436" stroke-linecap="round"/>
<path d="M369.722 123.37L371.772 125.419" stroke="#304436" stroke-linecap="round"/>
<path d="M367.878 125.214L369.107 126.444" stroke="#304436" stroke-linecap="round"/>
<path d="M363.641 116H360.641V155H363.641L363.641 118.5L363.641 116Z" fill="white"/>
<path d="M363.641 118.5L363.641 155H360.641V116H363.641L363.641 118.5ZM363.641 118.5L366.641 120" stroke="#304436"/>
<path d="M372.762 118.506C372.762 118.506 370.256 116 367.035 119.221C363.813 122.443 366.319 124.948 366.319 124.948L372.762 118.506Z" fill="white" stroke="#304436"/>
<path d="M238.035 19H404.035C412.871 19 420.035 26.1634 420.035 35V71H238.035V19Z" fill="#CCC4C4"/>
<path d="M156 335V277H272.5" stroke="#D05D4B" stroke-width="4"/>
<path d="M172.5 335L172.5 284L272.5 284" stroke="#4760B2" stroke-width="4"/>
<path d="M270.5 254.141C270.5 252.959 271.269 252 272.218 252L284.492 252L297.131 252C298.08 252 298.849 252.959 298.849 254.141V302.859C298.849 304.041 298.08 305 297.131 305H272.218C271.269 305 270.5 304.041 270.5 302.859V254.141Z" fill="white" stroke="#304436"/>
<path d="M284.83 280.83C284.589 280.529 284.431 280.349 284.431 280.349C284.431 280.349 284.273 280.529 284.032 280.83C283.25 281.804 281.593 284.042 281.593 285.509C281.593 286.273 281.892 287.005 282.424 287.546C282.956 288.086 283.678 288.389 284.431 288.389C285.183 288.389 285.905 288.086 286.437 287.546C286.97 287.005 287.269 286.273 287.269 285.509C287.269 284.042 285.612 281.804 284.83 280.83Z" fill="#304436"/>
<path d="M276.663 260.507C276.663 259.893 277.155 259.395 277.762 259.395H291.587C292.194 259.395 292.686 259.893 292.686 260.507V263.83C292.686 264.444 292.194 264.942 291.587 264.942H277.762C277.155 264.942 276.663 264.444 276.663 263.83V260.507Z" fill="#93D3F6" stroke="#304436"/>
<path d="M277.895 264.326L283.853 260.012H285.702L279.744 264.326H277.895Z" fill="white" fill-opacity="0.3"/>
<path d="M280.771 264.326L286.729 260.012H287.756L281.798 264.326H280.771Z" fill="white" fill-opacity="0.3"/>
<ellipse cx="282.656" cy="269.087" rx="1.0631" ry="1.06408" fill="#304436"/>
<ellipse cx="286.909" cy="269.087" rx="1.0631" ry="1.06408" fill="#304436"/>
<path d="M209.912 299V290H211.436V299H209.912ZM216.144 292.712C218.112 292.712 219.456 294.164 219.456 295.976C219.456 297.788 218.112 299.24 216.144 299.24C214.176 299.24 212.832 297.788 212.832 295.976C212.832 294.164 214.176 292.712 216.144 292.712ZM216.168 297.8C217.14 297.8 217.872 297.02 217.872 295.976C217.872 294.92 217.14 294.152 216.168 294.152C215.16 294.152 214.416 294.92 214.416 295.976C214.416 297.032 215.16 297.8 216.168 297.8ZM223.808 297.8C224.408 297.8 224.888 297.524 225.176 297.104L226.364 298.016C225.8 298.76 224.912 299.24 223.808 299.24C221.72 299.24 220.472 297.74 220.472 295.976C220.472 294.212 221.72 292.712 223.808 292.712C224.912 292.712 225.8 293.192 226.364 293.936L225.176 294.848C224.888 294.428 224.408 294.152 223.784 294.152C222.788 294.152 222.056 294.92 222.056 295.976C222.056 297.044 222.788 297.8 223.808 297.8ZM229.1 299.18C227.888 299.18 227.06 298.484 227.06 297.368C227.06 296.456 227.768 295.772 229.064 295.556L230.912 295.244V295.088C230.912 294.452 230.432 294.044 229.736 294.044C229.148 294.044 228.692 294.32 228.368 294.764L227.252 293.912C227.792 293.168 228.68 292.712 229.784 292.712C231.536 292.712 232.436 293.756 232.436 295.088V299H230.912V298.412C230.528 298.88 229.808 299.18 229.1 299.18ZM228.572 297.296C228.572 297.704 228.896 297.968 229.412 297.968C230.108 297.968 230.612 297.644 230.912 297.164V296.312L229.472 296.552C228.836 296.66 228.572 296.924 228.572 297.296ZM234.182 299V290H235.706V299H234.182Z" fill="#535F57"/>
<path fill-rule="evenodd" clip-rule="evenodd" d="M242.688 126.547V130.955C242.688 130.668 242.93 130.436 243.228 130.436H246.472C246.771 130.436 247.013 130.668 247.013 130.955V126.547C247.013 126.834 246.771 127.066 246.472 127.066H243.228C242.93 127.066 242.688 126.834 242.688 126.547Z" fill="white"/>
<path d="M247.013 146.769V130.955C247.013 130.668 246.771 130.436 246.472 130.436H243.228C242.93 130.436 242.688 130.668 242.688 130.955V146.769C242.688 147.055 242.93 147.287 243.228 147.287H246.472C246.771 147.287 247.013 147.055 247.013 146.769Z" fill="white"/>
<path d="M246.472 123.696H243.228C242.93 123.696 242.688 123.928 242.688 124.214V126.547C242.688 126.834 242.93 127.066 243.228 127.066H246.472C246.771 127.066 247.013 126.834 247.013 126.547V124.214C247.013 123.928 246.771 123.696 246.472 123.696Z" fill="white"/>
<path fill-rule="evenodd" clip-rule="evenodd" d="M246.906 126.547V130.955C246.906 130.668 247.148 130.436 247.447 130.436H250.691C250.989 130.436 251.231 130.668 251.231 130.955V126.547C251.231 126.834 250.989 127.066 250.691 127.066H247.447C247.148 127.066 246.906 126.834 246.906 126.547Z" fill="white"/>
<path d="M251.231 146.769V130.955C251.231 130.668 250.989 130.436 250.691 130.436H247.447C247.148 130.436 246.906 130.668 246.906 130.955V146.769C246.906 147.055 247.148 147.287 247.447 147.287H250.691C250.989 147.287 251.231 147.055 251.231 146.769Z" fill="white"/>
<path d="M250.691 123.696H247.447C247.148 123.696 246.906 123.928 246.906 124.214V126.547C246.906 126.834 247.148 127.066 247.447 127.066H250.691C250.989 127.066 251.231 126.834 251.231 126.547V124.214C251.231 123.928 250.989 123.696 250.691 123.696Z" fill="white"/>
<path fill-rule="evenodd" clip-rule="evenodd" d="M251.125 126.539V130.946C251.125 130.66 251.367 130.428 251.666 130.428H254.909C255.208 130.428 255.45 130.66 255.45 130.946V126.539C255.45 126.826 255.208 127.058 254.909 127.058H251.666C251.367 127.058 251.125 126.826 251.125 126.539Z" fill="white"/>
<path d="M255.45 146.76V130.946C255.45 130.66 255.208 130.428 254.909 130.428H251.666C251.367 130.428 251.125 130.66 251.125 130.946V146.76C251.125 147.047 251.367 147.279 251.666 147.279H254.909C255.208 147.279 255.45 147.047 255.45 146.76Z" fill="white"/>
<path d="M254.909 123.688H251.666C251.367 123.688 251.125 123.92 251.125 124.206V126.539C251.125 126.826 251.367 127.058 251.666 127.058H254.909C255.208 127.058 255.45 126.826 255.45 126.539V124.206C255.45 123.92 255.208 123.688 254.909 123.688Z" fill="white"/>
<path fill-rule="evenodd" clip-rule="evenodd" d="M255.766 126.539V130.946C255.766 130.66 256.008 130.428 256.306 130.428H259.55C259.849 130.428 260.091 130.66 260.091 130.946V126.539C260.091 126.826 259.849 127.058 259.55 127.058H256.306C256.008 127.058 255.766 126.826 255.766 126.539Z" fill="white"/>
<path d="M260.091 146.76V130.946C260.091 130.66 259.849 130.428 259.55 130.428H256.306C256.008 130.428 255.766 130.66 255.766 130.946V146.76C255.766 147.047 256.008 147.279 256.306 147.279H259.55C259.849 147.279 260.091 147.047 260.091 146.76Z" fill="white"/>
<path d="M259.55 123.688H256.306C256.008 123.688 255.766 123.92 255.766 124.206V126.539C255.766 126.826 256.008 127.058 256.306 127.058H259.55C259.849 127.058 260.091 126.826 260.091 126.539V124.206C260.091 123.92 259.849 123.688 259.55 123.688Z" fill="white"/>
<path fill-rule="evenodd" clip-rule="evenodd" d="M259.984 126.539V130.946C259.984 130.66 260.226 130.428 260.525 130.428H263.769C264.067 130.428 264.309 130.66 264.309 130.946V126.539C264.309 126.826 264.067 127.058 263.769 127.058H260.525C260.226 127.058 259.984 126.826 259.984 126.539Z" fill="white"/>
<path d="M264.309 146.76V130.946C264.309 130.66 264.067 130.428 263.769 130.428H260.525C260.226 130.428 259.984 130.66 259.984 130.946V146.76C259.984 147.047 260.226 147.279 260.525 147.279H263.769C264.067 147.279 264.309 147.047 264.309 146.76Z" fill="white"/>
<path d="M263.769 123.688H260.525C260.226 123.688 259.984 123.92 259.984 124.206V126.539C259.984 126.826 260.226 127.058 260.525 127.058H263.769C264.067 127.058 264.309 126.826 264.309 126.539V124.206C264.309 123.92 264.067 123.688 263.769 123.688Z" fill="white"/>
<path d="M246.712 126.541V124.206C246.712 123.817 246.09 123.688 245.804 123.688V147.295C246.09 147.295 246.712 147.295 246.712 146.776V130.951V126.541Z" fill="#565656" fill-opacity="0.3"/>
<path fill-rule="evenodd" clip-rule="evenodd" d="M242.58 126.547V130.955C242.58 130.668 242.822 130.436 243.121 130.436H246.365C246.663 130.436 246.905 130.668 246.905 130.955V126.547C246.905 126.834 246.663 127.066 246.365 127.066H243.121C242.822 127.066 242.58 126.834 242.58 126.547Z" fill="#565656" fill-opacity="0.3"/>
<path d="M242.58 146.769V124.214M242.58 146.769C242.58 147.055 242.822 147.287 243.121 147.287H246.365C246.663 147.287 246.905 147.055 246.905 146.769M242.58 146.769V130.955M246.905 146.769V124.214M246.905 146.769V130.955M246.905 124.214C246.905 123.928 246.663 123.696 246.365 123.696H243.121C242.822 123.696 242.58 123.928 242.58 124.214M246.905 124.214V126.547M246.905 124.214V130.955M242.58 124.214V126.547M242.58 124.214V130.955M242.58 126.547C242.58 126.834 242.822 127.066 243.121 127.066H246.365C246.663 127.066 246.905 126.834 246.905 126.547M242.58 126.547V130.955M246.905 126.547V130.955M246.905 130.955C246.905 130.668 246.663 130.436 246.365 130.436H243.121C242.822 130.436 242.58 130.668 242.58 130.955" stroke="#304436"/>
<path d="M251.037 126.541V124.206C251.037 123.817 250.415 123.688 250.129 123.688V147.295C250.415 147.295 251.037 147.295 251.037 146.776V130.951V126.541Z" fill="#565656" fill-opacity="0.3"/>
<path fill-rule="evenodd" clip-rule="evenodd" d="M246.905 126.547V130.955C246.905 130.668 247.147 130.436 247.446 130.436H250.69C250.988 130.436 251.23 130.668 251.23 130.955V126.547C251.23 126.834 250.988 127.066 250.69 127.066H247.446C247.147 127.066 246.905 126.834 246.905 126.547Z" fill="#565656" fill-opacity="0.3"/>
<path d="M246.905 146.769V124.214M246.905 146.769C246.905 147.055 247.147 147.287 247.446 147.287H250.69C250.988 147.287 251.23 147.055 251.23 146.769M246.905 146.769V130.955M251.23 146.769V124.214M251.23 146.769V130.955M251.23 124.214C251.23 123.928 250.988 123.696 250.69 123.696H247.446C247.147 123.696 246.905 123.928 246.905 124.214M251.23 124.214V126.547M251.23 124.214V130.955M246.905 124.214V126.547M246.905 124.214V130.955M246.905 126.547C246.905 126.834 247.147 127.066 247.446 127.066H250.69C250.988 127.066 251.23 126.834 251.23 126.547M246.905 126.547V130.955M251.23 126.547V130.955M251.23 130.955C251.23 130.668 250.988 130.436 250.69 130.436H247.446C247.147 130.436 246.905 130.668 246.905 130.955" stroke="#304436"/>
<path d="M255.363 126.541V124.206C255.363 123.817 254.741 123.688 254.454 123.688V147.295C254.741 147.295 255.363 147.295 255.363 146.776V130.951V126.541Z" fill="#565656" fill-opacity="0.3"/>
<path fill-rule="evenodd" clip-rule="evenodd" d="M251.23 126.547V130.955C251.23 130.668 251.472 130.436 251.771 130.436H255.015C255.313 130.436 255.555 130.668 255.555 130.955V126.547C255.555 126.834 255.313 127.066 255.015 127.066H251.771C251.472 127.066 251.23 126.834 251.23 126.547Z" fill="#565656" fill-opacity="0.3"/>
<path d="M251.23 146.769V124.214M251.23 146.769C251.23 147.055 251.472 147.287 251.771 147.287H255.015C255.313 147.287 255.555 147.055 255.555 146.769M251.23 146.769V130.955M255.555 146.769V124.214M255.555 146.769V130.955M255.555 124.214C255.555 123.928 255.313 123.696 255.015 123.696H251.771C251.472 123.696 251.23 123.928 251.23 124.214M255.555 124.214V126.547M255.555 124.214V130.955M251.23 124.214V126.547M251.23 124.214V130.955M251.23 126.547C251.23 126.834 251.472 127.066 251.771 127.066H255.015C255.313 127.066 255.555 126.834 255.555 126.547M251.23 126.547V130.955M255.555 126.547V130.955M255.555 130.955C255.555 130.668 255.313 130.436 255.015 130.436H251.771C251.472 130.436 251.23 130.668 251.23 130.955" stroke="#304436"/>
<path d="M259.688 126.541V124.206C259.688 123.817 259.066 123.688 258.779 123.688V147.295C259.066 147.295 259.688 147.295 259.688 146.776V130.951V126.541Z" fill="#565656" fill-opacity="0.3"/>
<path fill-rule="evenodd" clip-rule="evenodd" d="M255.556 126.547V130.955C255.556 130.668 255.798 130.436 256.096 130.436H259.34C259.639 130.436 259.881 130.668 259.881 130.955V126.547C259.881 126.834 259.639 127.066 259.34 127.066H256.096C255.798 127.066 255.556 126.834 255.556 126.547Z" fill="#565656" fill-opacity="0.3"/>
<path d="M255.556 146.769V124.214M255.556 146.769C255.556 147.055 255.798 147.287 256.096 147.287H259.34C259.639 147.287 259.881 147.055 259.881 146.769M255.556 146.769V130.955M259.881 146.769V124.214M259.881 146.769V130.955M259.881 124.214C259.881 123.928 259.639 123.696 259.34 123.696H256.096C255.798 123.696 255.556 123.928 255.556 124.214M259.881 124.214V126.547M259.881 124.214V130.955M255.556 124.214V126.547M255.556 124.214V130.955M255.556 126.547C255.556 126.834 255.798 127.066 256.096 127.066H259.34C259.639 127.066 259.881 126.834 259.881 126.547M255.556 126.547V130.955M259.881 126.547V130.955M259.881 130.955C259.881 130.668 259.639 130.436 259.34 130.436H256.096C255.798 130.436 255.556 130.668 255.556 130.955" stroke="#304436"/>
<path d="M264.013 126.541V124.206C264.013 123.817 263.391 123.688 263.104 123.688V147.295C263.391 147.295 264.013 147.295 264.013 146.776V130.951V126.541Z" fill="#565656" fill-opacity="0.3"/>
<path fill-rule="evenodd" clip-rule="evenodd" d="M259.881 126.547V130.955C259.881 130.668 260.123 130.436 260.421 130.436H263.665C263.964 130.436 264.206 130.668 264.206 130.955V126.547C264.206 126.834 263.964 127.066 263.665 127.066H260.421C260.123 127.066 259.881 126.834 259.881 126.547Z" fill="#565656" fill-opacity="0.3"/>
<path d="M259.881 146.769V124.214M259.881 146.769C259.881 147.055 260.123 147.287 260.421 147.287H263.665C263.964 147.287 264.206 147.055 264.206 146.769M259.881 146.769V130.955M264.206 146.769V124.214M264.206 146.769V130.955M264.206 124.214C264.206 123.928 263.964 123.696 263.665 123.696H260.421C260.123 123.696 259.881 123.928 259.881 124.214M264.206 124.214V126.547M264.206 124.214V130.955M259.881 124.214V126.547M259.881 124.214V130.955M259.881 126.547C259.881 126.834 260.123 127.066 260.421 127.066H263.665C263.964 127.066 264.206 126.834 264.206 126.547M259.881 126.547V130.955M264.206 126.547V130.955M264.206 130.955C264.206 130.668 263.964 130.436 263.665 130.436H260.421C260.123 130.436 259.881 130.668 259.881 130.955" stroke="#304436"/>
<path d="M242.558 126.274L241.908 126.274C241.407 126.274 241 125.867 241 125.366C241 124.864 241.407 124.458 241.908 124.458L242.558 124.458L242.558 126.274Z" stroke="#304436"/>
<path d="M242.58 126.44L241.99 126.44C241.448 126.44 241.007 126 241.007 125.457C241.007 124.914 241.448 124.474 241.99 124.474L242.58 124.474L242.58 126.44Z" fill="white" stroke="#304436"/>
<path d="M264.206 124.474H264.795C265.338 124.474 265.778 124.914 265.778 125.457C265.778 126 265.338 126.44 264.795 126.44H264.206L264.206 124.474Z" fill="white" stroke="#304436"/>
<path d="M201.591 76.2019H205.473H265.417V70.1587H201.591V76.2019Z" fill="#E2D2C3" stroke="#304436" stroke-width="2"/>
<path d="M205.641 86.7959V306H269.468C269.468 306 251.003 289.399 246.044 274.538C236.483 245.887 272.419 241.04 269.468 216.495C267.477 199.937 254.406 194.999 251.087 178.694C248.399 165.489 252.919 157.109 251.048 144.061C249.136 130.727 243.716 119.959 238.576 109.748C235.957 104.545 231.037 91.976 229.065 86.7959C228.215 83.3255 227.706 79.751 227.675 76H205.641V86.7959Z" fill="url(#pattern0_2160_4105)" stroke="#304436" stroke-width="2"/>
<path d="M212.912 299V290H214.436V299H212.912ZM219.144 292.712C221.112 292.712 222.456 294.164 222.456 295.976C222.456 297.788 221.112 299.24 219.144 299.24C217.176 299.24 215.832 297.788 215.832 295.976C215.832 294.164 217.176 292.712 219.144 292.712ZM219.168 297.8C220.14 297.8 220.872 297.02 220.872 295.976C220.872 294.92 220.14 294.152 219.168 294.152C218.16 294.152 217.416 294.92 217.416 295.976C217.416 297.032 218.16 297.8 219.168 297.8ZM226.808 297.8C227.408 297.8 227.888 297.524 228.176 297.104L229.364 298.016C228.8 298.76 227.912 299.24 226.808 299.24C224.72 299.24 223.472 297.74 223.472 295.976C223.472 294.212 224.72 292.712 226.808 292.712C227.912 292.712 228.8 293.192 229.364 293.936L228.176 294.848C227.888 294.428 227.408 294.152 226.784 294.152C225.788 294.152 225.056 294.92 225.056 295.976C225.056 297.044 225.788 297.8 226.808 297.8ZM232.1 299.18C230.888 299.18 230.06 298.484 230.06 297.368C230.06 296.456 230.768 295.772 232.064 295.556L233.912 295.244V295.088C233.912 294.452 233.432 294.044 232.736 294.044C232.148 294.044 231.692 294.32 231.368 294.764L230.252 293.912C230.792 293.168 231.68 292.712 232.784 292.712C234.536 292.712 235.436 293.756 235.436 295.088V299H233.912V298.412C233.528 298.88 232.808 299.18 232.1 299.18ZM231.572 297.296C231.572 297.704 231.896 297.968 232.412 297.968C233.108 297.968 233.612 297.644 233.912 297.164V296.312L232.472 296.552C231.836 296.66 231.572 296.924 231.572 297.296ZM237.182 299V290H238.706V299H237.182Z" fill="#535F57"/>
<path d="M205.606 157.906H200V151H205.606H210.35H220.269H230.054H240.835H250.826V157.906H240.835H230.054H220.269H210.35H205.606Z" fill="#E2D2C3"/>
<path d="M250.826 157.906H210.35M250.826 157.906H220.269M250.826 157.906V151M250.826 151H210.35M250.826 151H220.269M210.35 151H205.606H200V157.906H205.606H210.35M210.35 151V157.906M210.35 151H220.269M210.35 157.906H220.269M220.269 151V157.906M230.054 151V157.906M240.835 151V157.906" stroke="#304436" stroke-width="2"/>
<path d="M205.606 242.906H200V236H205.606H210.35H220.269H230.054H240.835H251.641H262.141L256.141 242.906H251.641H240.835H230.054H220.269H210.35H205.606Z" fill="#E2D2C3"/>
<path d="M256.141 242.906H210.35M256.141 242.906H220.269M256.141 242.906L262.141 236M262.141 236H210.35M262.141 236H220.269M210.35 236H205.606H200V242.906H205.606H210.35M210.35 236V242.906M210.35 236H220.269M210.35 242.906H220.269M220.269 236V242.906M230.054 236V242.906M240.835 236V242.906M251.641 236V242.906" stroke="#304436" stroke-width="2"/>
<path d="M233.169 17.4966L206 70.1586H266.054C265.599 45.0187 254.732 17.4966 254.732 17.4966H233.169Z" fill="#858181" stroke="#304436" stroke-width="2"/>
<path d="M246.97 19.9507L253.438 16.8305L266.376 10.59L285.783 19.9507V70.1585H253.438H246.97V19.9507Z" fill="#F3E1D1" stroke="#274430" stroke-width="2"/>
<g clip-path="url(#clip0_2160_4105)">
<rect x="252.145" y="21.813" width="28.4629" height="46.6189" rx="2" fill="#93D3F6"/>
<path d="M252.145 42.2087L269.66 21.813H280.608L252.145 56.7771V42.2087Z" fill="white" fill-opacity="0.3"/>
<path d="M253.239 68.4318L280.608 35.4102V41.2375L257.618 68.4318H253.239Z" fill="white" fill-opacity="0.3"/>
<rect x="252.145" y="21.813" width="28.4629" height="7.76981" fill="#565656" fill-opacity="0.3"/>
</g>
<rect x="252.145" y="21.813" width="28.4629" height="46.6189" rx="2" stroke="#274430" stroke-width="2"/>
<path fill-rule="evenodd" clip-rule="evenodd" d="M265.945 70.1585L265.945 21.813L267.67 21.813L267.67 70.1585L265.945 70.1585Z" fill="#304436"/>
<path fill-rule="evenodd" clip-rule="evenodd" d="M280.608 45.9857L252.145 45.9857L252.145 44.2591L280.608 44.2591L280.608 45.9857Z" fill="#304436"/>
<rect x="244.382" y="66.7052" width="43.9881" height="3.45325" rx="1.72662" fill="#F3E1D1" stroke="#274430" stroke-width="2"/>
<g filter="url(#filter2_d_2160_4105)">
<rect x="349" y="275" width="141" height="23" fill="white" shape-rendering="crispEdges"/>
<rect x="349.5" y="275.5" width="140" height="22" stroke="#304436" shape-rendering="crispEdges"/>
<path d="M352.442 293V283.2H355.326C357.37 283.2 358.616 284.208 358.616 285.86C358.616 286.658 358.252 287.344 357.566 287.792C358.602 288.254 359.176 289.094 359.176 290.116C359.176 291.908 357.79 293 355.536 293H352.442ZM355.368 284.852H354.43V287.064H355.368C356.124 287.064 356.572 286.658 356.572 285.944C356.572 285.258 356.124 284.852 355.368 284.852ZM355.648 288.716H354.43V291.348H355.648C356.572 291.348 357.132 290.858 357.132 290.032C357.132 289.192 356.572 288.716 355.648 288.716ZM362.966 293.21C361.552 293.21 360.586 292.398 360.586 291.096C360.586 290.032 361.412 289.234 362.924 288.982L365.08 288.618V288.436C365.08 287.694 364.52 287.218 363.708 287.218C363.022 287.218 362.49 287.54 362.112 288.058L360.81 287.064C361.44 286.196 362.476 285.664 363.764 285.664C365.808 285.664 366.858 286.882 366.858 288.436V293H365.08V292.314C364.632 292.86 363.792 293.21 362.966 293.21ZM362.35 291.012C362.35 291.488 362.728 291.796 363.33 291.796C364.142 291.796 364.73 291.418 365.08 290.858V289.864L363.4 290.144C362.658 290.27 362.35 290.578 362.35 291.012ZM368.894 293V282.5H370.672V293H368.894ZM372.804 293V282.5H374.582V293H372.804ZM380.074 285.664C382.37 285.664 383.938 287.358 383.938 289.472C383.938 291.586 382.37 293.28 380.074 293.28C377.778 293.28 376.21 291.586 376.21 289.472C376.21 287.358 377.778 285.664 380.074 285.664ZM380.102 291.6C381.236 291.6 382.09 290.69 382.09 289.472C382.09 288.24 381.236 287.344 380.102 287.344C378.926 287.344 378.058 288.24 378.058 289.472C378.058 290.704 378.926 291.6 380.102 291.6ZM385.56 293V285.944H387.338V286.504C387.828 286.028 388.486 285.664 389.424 285.664C390.95 285.664 392.168 286.714 392.168 288.8V293H390.376V288.87C390.376 287.932 389.844 287.344 388.976 287.344C388.08 287.344 387.604 287.946 387.338 288.394V293H385.56ZM397.456 289.472C397.456 287.414 398.814 285.664 401.04 285.664C401.992 285.664 402.678 285.958 403.224 286.504V282.5H405.016V293H403.224V292.44C402.678 292.986 401.992 293.28 401.04 293.28C398.814 293.28 397.456 291.53 397.456 289.472ZM399.318 289.472C399.318 290.704 400.088 291.6 401.292 291.6C402.09 291.6 402.748 291.264 403.224 290.62V288.324C402.748 287.68 402.09 287.344 401.292 287.344C400.088 287.344 399.318 288.24 399.318 289.472ZM408.097 287.232H406.445L407.705 283.2H409.721L408.097 287.232ZM416.83 291.852C416.172 292.734 415.08 293.28 413.75 293.28C411.244 293.28 409.83 291.53 409.83 289.472C409.83 287.386 411.146 285.664 413.456 285.664C415.416 285.664 416.704 286.994 416.704 288.842C416.704 289.234 416.648 289.598 416.592 289.836H411.65C411.818 291.152 412.63 291.684 413.736 291.684C414.506 291.684 415.178 291.348 415.556 290.844L416.83 291.852ZM413.414 287.12C412.504 287.12 411.902 287.624 411.706 288.548H414.954C414.926 287.834 414.408 287.12 413.414 287.12ZM420.333 293.21C418.919 293.21 417.953 292.398 417.953 291.096C417.953 290.032 418.779 289.234 420.291 288.982L422.447 288.618V288.436C422.447 287.694 421.887 287.218 421.075 287.218C420.389 287.218 419.857 287.54 419.479 288.058L418.177 287.064C418.807 286.196 419.843 285.664 421.131 285.664C423.175 285.664 424.225 286.882 424.225 288.436V293H422.447V292.314C421.999 292.86 421.159 293.21 420.333 293.21ZM419.717 291.012C419.717 291.488 420.095 291.796 420.697 291.796C421.509 291.796 422.097 291.418 422.447 290.858V289.864L420.767 290.144C420.025 290.27 419.717 290.578 419.717 291.012ZM430.909 289.948V285.944H432.701V289.864C432.701 291.978 431.469 293.28 429.397 293.28C427.325 293.28 426.107 291.978 426.107 289.864V285.944H427.899V289.948C427.899 290.97 428.431 291.6 429.411 291.6C430.377 291.6 430.909 290.97 430.909 289.948ZM441.831 291.6C442.531 291.6 443.091 291.278 443.427 290.788L444.813 291.852C444.155 292.72 443.119 293.28 441.831 293.28C439.395 293.28 437.939 291.53 437.939 289.472C437.939 287.414 439.395 285.664 441.831 285.664C443.119 285.664 444.155 286.224 444.813 287.092L443.427 288.156C443.091 287.666 442.531 287.344 441.803 287.344C440.641 287.344 439.787 288.24 439.787 289.472C439.787 290.718 440.641 291.6 441.831 291.6ZM446.14 293V282.5H447.918V286.504C448.408 286.028 449.066 285.664 450.004 285.664C451.53 285.664 452.748 286.714 452.748 288.8V293H450.956V288.87C450.956 287.932 450.438 287.344 449.556 287.344C448.66 287.344 448.184 287.946 447.918 288.394V293H446.14ZM456.755 293.21C455.341 293.21 454.375 292.398 454.375 291.096C454.375 290.032 455.201 289.234 456.713 288.982L458.869 288.618V288.436C458.869 287.694 458.309 287.218 457.497 287.218C456.811 287.218 456.279 287.54 455.901 288.058L454.599 287.064C455.229 286.196 456.265 285.664 457.553 285.664C459.597 285.664 460.647 286.882 460.647 288.436V293H458.869V292.314C458.421 292.86 457.581 293.21 456.755 293.21ZM456.139 291.012C456.139 291.488 456.517 291.796 457.119 291.796C457.931 291.796 458.519 291.418 458.869 290.858V289.864L457.189 290.144C456.447 290.27 456.139 290.578 456.139 291.012ZM467.331 289.948V285.944H469.123V289.864C469.123 291.978 467.891 293.28 465.819 293.28C463.747 293.28 462.529 291.978 462.529 289.864V285.944H464.321V289.948C464.321 290.97 464.853 291.6 465.833 291.6C466.799 291.6 467.331 290.97 467.331 289.948ZM470.587 289.472C470.587 287.414 471.945 285.664 474.171 285.664C475.123 285.664 475.809 285.958 476.355 286.504V282.5H478.147V293H476.355V292.44C475.809 292.986 475.123 293.28 474.171 293.28C471.945 293.28 470.587 291.53 470.587 289.472ZM472.449 289.472C472.449 290.704 473.219 291.6 474.423 291.6C475.221 291.6 475.879 291.264 476.355 290.62V288.324C475.879 287.68 475.221 287.344 474.423 287.344C473.219 287.344 472.449 288.24 472.449 289.472ZM486.775 291.852C486.117 292.734 485.025 293.28 483.695 293.28C481.189 293.28 479.775 291.53 479.775 289.472C479.775 287.386 481.091 285.664 483.401 285.664C485.361 285.664 486.649 286.994 486.649 288.842C486.649 289.234 486.593 289.598 486.537 289.836H481.595C481.763 291.152 482.575 291.684 483.681 291.684C484.451 291.684 485.123 291.348 485.501 290.844L486.775 291.852ZM483.359 287.12C482.449 287.12 481.847 287.624 481.651 288.548H484.899C484.871 287.834 484.353 287.12 483.359 287.12Z" fill="#304436"/>
</g>
<defs>
<filter id="filter0_d_2160_4105" x="21" y="239" width="158" height="24" filterUnits="userSpaceOnUse" color-interpolation-filters="sRGB">
<feFlood flood-opacity="0" result="BackgroundImageFix"/>
<feColorMatrix in="SourceAlpha" type="matrix" values="0 0 0 0 0 0 0 0 0 0 0 0 0 0 0 0 0 0 127 0" result="hardAlpha"/>
<feOffset dx="1" dy="1"/>
<feComposite in2="hardAlpha" operator="out"/>
<feColorMatrix type="matrix" values="0 0 0 0 0.188235 0 0 0 0 0.266667 0 0 0 0 0.211765 0 0 0 1 0"/>
<feBlend mode="normal" in2="BackgroundImageFix" result="effect1_dropShadow_2160_4105"/>
<feBlend mode="normal" in="SourceGraphic" in2="effect1_dropShadow_2160_4105" result="shape"/>
</filter>
<filter id="filter1_d_2160_4105" x="233" y="310" width="104" height="24" filterUnits="userSpaceOnUse" color-interpolation-filters="sRGB">
<feFlood flood-opacity="0" result="BackgroundImageFix"/>
<feColorMatrix in="SourceAlpha" type="matrix" values="0 0 0 0 0 0 0 0 0 0 0 0 0 0 0 0 0 0 127 0" result="hardAlpha"/>
<feOffset dx="1" dy="1"/>
<feComposite in2="hardAlpha" operator="out"/>
<feColorMatrix type="matrix" values="0 0 0 0 0.188235 0 0 0 0 0.266667 0 0 0 0 0.211765 0 0 0 1 0"/>
<feBlend mode="normal" in2="BackgroundImageFix" result="effect1_dropShadow_2160_4105"/>
<feBlend mode="normal" in="SourceGraphic" in2="effect1_dropShadow_2160_4105" result="shape"/>
</filter>
<filter id="filter2_d_2160_4105" x="349" y="275" width="142" height="24" filterUnits="userSpaceOnUse" color-interpolation-filters="sRGB">
<feFlood flood-opacity="0" result="BackgroundImageFix"/>
<feColorMatrix in="SourceAlpha" type="matrix" values="0 0 0 0 0 0 0 0 0 0 0 0 0 0 0 0 0 0 127 0" result="hardAlpha"/>
<feOffset dx="1" dy="1"/>
<feComposite in2="hardAlpha" operator="out"/>
<feColorMatrix type="matrix" values="0 0 0 0 0.188235 0 0 0 0 0.266667 0 0 0 0 0.211765 0 0 0 1 0"/>
<feBlend mode="normal" in2="BackgroundImageFix" result="effect1_dropShadow_2160_4105"/>
<feBlend mode="normal" in="SourceGraphic" in2="effect1_dropShadow_2160_4105" result="shape"/>
</filter>
<clipPath id="clip0_2160_4105">
<rect x="252.145" y="21.813" width="28.4629" height="46.6189" rx="2" fill="white"/>
</clipPath>
<pattern id="pattern0_2160_4105" patternUnits="userSpaceOnUse" patternTransform="matrix(17 0 0 14 205.141 75.5)" preserveAspectRatio="none" viewBox="-0.5 -0.5 17 14" width="1" height="1">
<use xlink:href="#pattern0_2160_4105_inner" transform="translate(-25.5 -7)"/>
<use xlink:href="#pattern0_2160_4105_inner" transform="translate(-8.5 -7)"/>
<use xlink:href="#pattern0_2160_4105_inner" transform="translate(8.5 -7)"/>
<use xlink:href="#pattern0_2160_4105_inner" transform="translate(-34 0)"/>
<use xlink:href="#pattern0_2160_4105_inner" transform="translate(-17 0)"/>
<g id="pattern0_2160_4105_inner">
<rect width="17" height="7" fill="#F3E1D1" stroke="white"/>
</g>
<use xlink:href="#pattern0_2160_4105_inner" transform="translate(-25.5 7)"/>
<use xlink:href="#pattern0_2160_4105_inner" transform="translate(-8.5 7)"/>
<use xlink:href="#pattern0_2160_4105_inner" transform="translate(8.5 7)"/>
</pattern></defs>
</svg>
