<svg width="501" height="362" viewBox="0 0 501 362" fill="none" xmlns="http://www.w3.org/2000/svg" xmlns:xlink="http://www.w3.org/1999/xlink">
<path d="M0 0H500V362H0V0Z" fill="white"/>
<path d="M500 0H499V362H500H501V0H500Z" fill="#E9E9E9"/>
<path d="M434 288H56C46.6112 288 39 295.611 39 305V321C39 321 44.6904 323.442 48.5 324.5C64.5465 328.955 74.3628 321.735 91 321C110.312 320.147 121.184 320.228 140.5 321C158.307 321.712 168.259 326.189 186 324.5C199.768 323.19 206.946 332.753 220.5 330C242.774 325.476 255.277 321.487 278 321C296.222 320.61 306.308 326.116 324.5 325C335.139 324.347 340.892 322.043 351.5 321L351.814 320.969C372.803 318.905 385.081 317.697 406 321C424.123 323.862 451 334.5 451 334.5V305C451 295.611 443.389 288 434 288Z" fill="#9A8D81" stroke="#304436" stroke-width="2"/>
<path d="M39 354H451V334.5C451 334.5 424.123 323.861 406 321C385.081 317.697 372.803 318.905 351.814 320.969L351.5 321C340.892 322.043 335.139 324.347 324.5 325C306.308 326.116 296.222 320.61 278 321C255.277 321.487 242.774 325.476 220.5 330C206.946 332.753 199.768 323.189 186 324.5C168.259 326.189 158.307 321.712 140.5 321C121.184 320.228 110.312 320.147 91 321C74.3628 321.735 64.5465 328.955 48.5 324.5C44.6904 323.442 39 321 39 321V354Z" fill="#624D45" stroke="#304436" stroke-width="2"/>
<path d="M53.5 332H61.5" stroke="#304436" stroke-width="2" stroke-linecap="round"/>
<path d="M208 301H216" stroke="#304436" stroke-width="2" stroke-linecap="round"/>
<path d="M53 319H61" stroke="#304436" stroke-width="2" stroke-linecap="round"/>
<path d="M392 295H400" stroke="#304436" stroke-width="2" stroke-linecap="round"/>
<path d="M281 333H289" stroke="#304436" stroke-width="2" stroke-linecap="round"/>
<path d="M217 347H225" stroke="#304436" stroke-width="2" stroke-linecap="round"/>
<path d="M198 345H190" stroke="#304436" stroke-width="2" stroke-linecap="round"/>
<path d="M352.5 314H344.5" stroke="#304436" stroke-width="2" stroke-linecap="round"/>
<path d="M361 300H353" stroke="#304436" stroke-width="2" stroke-linecap="round"/>
<path d="M425.5 346H417.5" stroke="#304436" stroke-width="2" stroke-linecap="round"/>
<path d="M174 329H166" stroke="#304436" stroke-width="2" stroke-linecap="round"/>
<path d="M328.5 298H320.5" stroke="#304436" stroke-width="2" stroke-linecap="round"/>
<path d="M401.5 330H393.5" stroke="#304436" stroke-width="2" stroke-linecap="round"/>
<path d="M69.5 343H77.5" stroke="#304436" stroke-width="2" stroke-linecap="round"/>
<path d="M224 312H232" stroke="#304436" stroke-width="2" stroke-linecap="round"/>
<path d="M48 306H56" stroke="#304436" stroke-width="2" stroke-linecap="round"/>
<path d="M408 306H416" stroke="#304436" stroke-width="2" stroke-linecap="round"/>
<path d="M297 344H305" stroke="#304436" stroke-width="2" stroke-linecap="round"/>
<path d="M233 336H241" stroke="#304436" stroke-width="2" stroke-linecap="round"/>
<path d="M117.5 330H125.5" stroke="#304436" stroke-width="2" stroke-linecap="round"/>
<path d="M272 299H280" stroke="#304436" stroke-width="2" stroke-linecap="round"/>
<path d="M199 316H207" stroke="#304436" stroke-width="2" stroke-linecap="round"/>
<path d="M345 331H353" stroke="#304436" stroke-width="2" stroke-linecap="round"/>
<path d="M134 343H126" stroke="#304436" stroke-width="2" stroke-linecap="round"/>
<path d="M288.5 312H280.5" stroke="#304436" stroke-width="2" stroke-linecap="round"/>
<path d="M361.5 344H353.5" stroke="#304436" stroke-width="2" stroke-linecap="round"/>
<path d="M100.5 337H103.5" stroke="#304436" stroke-width="2" stroke-linecap="round"/>
<path d="M255 306H258" stroke="#304436" stroke-width="2" stroke-linecap="round"/>
<path d="M180 319H183" stroke="#304436" stroke-width="2" stroke-linecap="round"/>
<path d="M439 300H442" stroke="#304436" stroke-width="2" stroke-linecap="round"/>
<path d="M374 312H377" stroke="#304436" stroke-width="2" stroke-linecap="round"/>
<path d="M328 338H331" stroke="#304436" stroke-width="2" stroke-linecap="round"/>
<path d="M264 342H267" stroke="#304436" stroke-width="2" stroke-linecap="round"/>
<path d="M151 350H148" stroke="#304436" stroke-width="2" stroke-linecap="round"/>
<path d="M305.5 319H302.5" stroke="#304436" stroke-width="2" stroke-linecap="round"/>
<path d="M378.5 351H375.5" stroke="#304436" stroke-width="2" stroke-linecap="round"/>
<path d="M71 332L75 332" stroke="#304436" stroke-width="2" stroke-linecap="round"/>
<path d="M225.5 301L229.5 301" stroke="#304436" stroke-width="2" stroke-linecap="round"/>
<path d="M160 319L164 319" stroke="#304436" stroke-width="2" stroke-linecap="round"/>
<path d="M119 317L123 317" stroke="#304436" stroke-width="2" stroke-linecap="round"/>
<path d="M409.5 295L413.5 295" stroke="#304436" stroke-width="2" stroke-linecap="round"/>
<path d="M298.5 333L302.5 333" stroke="#304436" stroke-width="2" stroke-linecap="round"/>
<path d="M234.5 347L238.5 347" stroke="#304436" stroke-width="2" stroke-linecap="round"/>
<path d="M180.5 345L176.5 345" stroke="#304436" stroke-width="2" stroke-linecap="round"/>
<path d="M335 314L331 314" stroke="#304436" stroke-width="2" stroke-linecap="round"/>
<path d="M408 346L404 346" stroke="#304436" stroke-width="2" stroke-linecap="round"/>
<path d="M161.5 329L157.5 329" stroke="#304436" stroke-width="2" stroke-linecap="round"/>
<path d="M316 298L312 298" stroke="#304436" stroke-width="2" stroke-linecap="round"/>
<path d="M389 330L385 330" stroke="#304436" stroke-width="2" stroke-linecap="round"/>
<path d="M87 343L91 343" stroke="#304436" stroke-width="2" stroke-linecap="round"/>
<path d="M241.5 312L245.5 312" stroke="#304436" stroke-width="2" stroke-linecap="round"/>
<path d="M74 320L78 320" stroke="#304436" stroke-width="2" stroke-linecap="round"/>
<path d="M425.5 306L429.5 306" stroke="#304436" stroke-width="2" stroke-linecap="round"/>
<path d="M314.5 344L318.5 344" stroke="#304436" stroke-width="2" stroke-linecap="round"/>
<path d="M250.5 336L254.5 336" stroke="#304436" stroke-width="2" stroke-linecap="round"/>
<g filter="url(#filter0_d_2156_1434)">
<rect x="10" y="261" width="155" height="20" fill="white" shape-rendering="crispEdges"/>
<rect x="10.5" y="261.5" width="154" height="19" stroke="#304436" shape-rendering="crispEdges"/>
<path d="M17.95 275.918C18.874 275.918 19.672 275.596 20.232 275.064V273.356H17.74V271.662H22.22V275.778C21.31 276.996 19.784 277.78 17.95 277.78C14.772 277.78 12.602 275.4 12.602 272.6C12.602 269.8 14.716 267.42 17.81 267.42C19.588 267.42 21.044 268.218 21.94 269.408L20.372 270.626C19.812 269.828 18.93 269.282 17.81 269.282C15.962 269.282 14.646 270.724 14.646 272.6C14.646 274.476 16.032 275.918 17.95 275.918ZM28.4043 269.324H26.6963L28.1523 267H30.0843L28.4043 269.324ZM30.7983 276.352C30.1403 277.234 29.0483 277.78 27.7183 277.78C25.2123 277.78 23.7983 276.03 23.7983 273.972C23.7983 271.886 25.1143 270.164 27.4243 270.164C29.3843 270.164 30.6723 271.494 30.6723 273.342C30.6723 273.734 30.6163 274.098 30.5603 274.336H25.6183C25.7863 275.652 26.5983 276.184 27.7043 276.184C28.4743 276.184 29.1463 275.848 29.5243 275.344L30.7983 276.352ZM27.3823 271.62C26.4723 271.62 25.8703 272.124 25.6743 273.048H28.9223C28.8943 272.334 28.3763 271.62 27.3823 271.62ZM35.715 270.164C38.011 270.164 39.579 271.858 39.579 273.972C39.579 276.086 38.011 277.78 35.715 277.78C33.419 277.78 31.851 276.086 31.851 273.972C31.851 271.858 33.419 270.164 35.715 270.164ZM35.743 276.1C36.877 276.1 37.731 275.19 37.731 273.972C37.731 272.74 36.877 271.844 35.743 271.844C34.567 271.844 33.699 272.74 33.699 273.972C33.699 275.204 34.567 276.1 35.743 276.1ZM41.5667 274.924V272.04H40.2507V270.444H41.5667V268.68H43.3587V270.444H45.5147V272.04H43.3587V274.924C43.3587 275.708 43.7787 276.016 44.4787 276.016C44.9687 276.016 45.2907 275.96 45.5287 275.862V277.416C45.1787 277.57 44.7587 277.64 44.1707 277.64C42.4067 277.64 41.5667 276.646 41.5667 274.924ZM47.107 277.5V267H48.885V271.004C49.375 270.528 50.033 270.164 50.971 270.164C52.497 270.164 53.715 271.214 53.715 273.3V277.5H51.923V273.37C51.923 272.432 51.405 271.844 50.523 271.844C49.627 271.844 49.151 272.446 48.885 272.894V277.5H47.107ZM62.2299 276.352C61.5719 277.234 60.4799 277.78 59.1499 277.78C56.6439 277.78 55.2299 276.03 55.2299 273.972C55.2299 271.886 56.5459 270.164 58.8559 270.164C60.8159 270.164 62.1039 271.494 62.1039 273.342C62.1039 273.734 62.0479 274.098 61.9919 274.336H57.0499C57.2179 275.652 58.0299 276.184 59.1359 276.184C59.9059 276.184 60.5779 275.848 60.9559 275.344L62.2299 276.352ZM58.8139 271.62C57.9039 271.62 57.3019 272.124 57.1059 273.048H60.3539C60.3259 272.334 59.8079 271.62 58.8139 271.62ZM63.8413 277.5V270.444H65.6193V271.144C66.0813 270.668 66.6833 270.304 67.4813 270.304C67.7193 270.304 67.9293 270.346 68.0973 270.402V272.152C67.8733 272.096 67.6353 272.054 67.3133 272.054C66.4453 272.054 65.8853 272.53 65.6193 272.978V277.5H63.8413ZM69.5288 277.5V270.444H71.3068V270.976C71.7828 270.514 72.3848 270.164 73.2528 270.164C74.1488 270.164 74.9328 270.556 75.3948 271.312C75.8988 270.696 76.5708 270.164 77.7608 270.164C79.2168 270.164 80.3648 271.172 80.3648 273.16V277.5H78.5728V273.23C78.5728 272.376 78.1108 271.844 77.3128 271.844C76.5428 271.844 76.1228 272.376 75.8428 272.852C75.8568 272.95 75.8568 273.048 75.8568 273.16V277.5H74.0648V273.23C74.0648 272.376 73.6028 271.844 72.8048 271.844C71.9928 271.844 71.5728 272.446 71.3068 272.894V277.5H69.5288ZM83.2901 269.212C82.6601 269.212 82.1281 268.68 82.1281 268.05C82.1281 267.42 82.6601 266.888 83.2901 266.888C83.9201 266.888 84.4381 267.42 84.4381 268.05C84.4381 268.68 83.9201 269.212 83.2901 269.212ZM82.3941 277.5V270.444H84.1721V277.5H82.3941ZM92.8002 276.352C92.1422 277.234 91.0502 277.78 89.7202 277.78C87.2142 277.78 85.8002 276.03 85.8002 273.972C85.8002 271.886 87.1162 270.164 89.4262 270.164C91.3862 270.164 92.6742 271.494 92.6742 273.342C92.6742 273.734 92.6182 274.098 92.5622 274.336H87.6202C87.7882 275.652 88.6002 276.184 89.7062 276.184C90.4762 276.184 91.1482 275.848 91.5262 275.344L92.8002 276.352ZM89.3842 271.62C88.4742 271.62 87.8722 272.124 87.6762 273.048H90.9242C90.8962 272.334 90.3782 271.62 89.3842 271.62ZM97.5691 276.478L98.7451 275.414C99.1791 275.96 99.6971 276.352 100.369 276.352C100.943 276.352 101.237 276.016 101.237 275.596C101.237 274.364 97.8631 274.826 97.8631 272.348C97.8631 271.102 98.9131 270.164 100.383 270.164C101.461 270.164 102.441 270.682 102.945 271.368L101.769 272.404C101.405 271.956 100.943 271.592 100.397 271.592C99.8371 271.592 99.5711 271.9 99.5711 272.264C99.5711 273.468 102.945 273.048 102.945 275.484C102.917 276.968 101.727 277.78 100.397 277.78C99.1371 277.78 98.2411 277.276 97.5691 276.478ZM109.232 274.448V270.444H111.024V274.364C111.024 276.478 109.792 277.78 107.72 277.78C105.648 277.78 104.43 276.478 104.43 274.364V270.444H106.222V274.448C106.222 275.47 106.754 276.1 107.734 276.1C108.7 276.1 109.232 275.47 109.232 274.448ZM112.992 277.5V270.444H114.77V271.144C115.232 270.668 115.834 270.304 116.632 270.304C116.87 270.304 117.08 270.346 117.248 270.402V272.152C117.024 272.096 116.786 272.054 116.464 272.054C115.596 272.054 115.036 272.53 114.77 272.978V277.5H112.992ZM121.837 276.478L123.013 275.414C123.447 275.96 123.965 276.352 124.637 276.352C125.211 276.352 125.505 276.016 125.505 275.596C125.505 274.364 122.131 274.826 122.131 272.348C122.131 271.102 123.181 270.164 124.651 270.164C125.729 270.164 126.709 270.682 127.213 271.368L126.037 272.404C125.673 271.956 125.211 271.592 124.665 271.592C124.105 271.592 123.839 271.9 123.839 272.264C123.839 273.468 127.213 273.048 127.213 275.484C127.185 276.968 125.995 277.78 124.665 277.78C123.405 277.78 122.509 277.276 121.837 276.478ZM132.184 270.164C134.48 270.164 136.048 271.858 136.048 273.972C136.048 276.086 134.48 277.78 132.184 277.78C129.888 277.78 128.32 276.086 128.32 273.972C128.32 271.858 129.888 270.164 132.184 270.164ZM132.212 276.1C133.346 276.1 134.2 275.19 134.2 273.972C134.2 272.74 133.346 271.844 132.212 271.844C131.036 271.844 130.168 272.74 130.168 273.972C130.168 275.204 131.036 276.1 132.212 276.1ZM137.669 277.5V270.444H139.447V271.004C139.937 270.528 140.595 270.164 141.533 270.164C143.059 270.164 144.277 271.214 144.277 273.3V277.5H142.485V273.37C142.485 272.432 141.953 271.844 141.085 271.844C140.189 271.844 139.713 272.446 139.447 272.894V277.5H137.669ZM145.792 273.972C145.792 271.914 147.15 270.164 149.376 270.164C150.328 270.164 151.014 270.458 151.56 271.004V267H153.352V277.5H151.56V276.94C151.014 277.486 150.328 277.78 149.376 277.78C147.15 277.78 145.792 276.03 145.792 273.972ZM147.654 273.972C147.654 275.204 148.424 276.1 149.628 276.1C150.426 276.1 151.084 275.764 151.56 275.12V272.824C151.084 272.18 150.426 271.844 149.628 271.844C148.424 271.844 147.654 272.74 147.654 273.972ZM161.98 276.352C161.322 277.234 160.23 277.78 158.9 277.78C156.394 277.78 154.98 276.03 154.98 273.972C154.98 271.886 156.296 270.164 158.606 270.164C160.566 270.164 161.854 271.494 161.854 273.342C161.854 273.734 161.798 274.098 161.742 274.336H156.8C156.968 275.652 157.78 276.184 158.886 276.184C159.656 276.184 160.328 275.848 160.706 275.344L161.98 276.352ZM158.564 271.62C157.654 271.62 157.052 272.124 156.856 273.048H160.104C160.076 272.334 159.558 271.62 158.564 271.62Z" fill="#304436"/>
</g>
<path d="M219.641 74H432.641V305H219.641V74Z" fill="#F3E1D1" stroke="#304436" stroke-width="2"/>
<g filter="url(#filter1_d_2156_1434)">
<rect x="247" y="312" width="103" height="23" fill="white" shape-rendering="crispEdges"/>
<rect x="247.5" y="312.5" width="102" height="22" stroke="#304436" shape-rendering="crispEdges"/>
<path d="M256.112 326.332V320.2H258.1V326.164C258.1 328.74 256.588 330.28 254.124 330.28C251.674 330.28 250.162 328.74 250.162 326.164V320.2H252.15V326.332C252.15 327.648 252.892 328.418 254.138 328.418C255.356 328.418 256.112 327.648 256.112 326.332ZM260.236 330V322.944H262.014V323.504C262.504 323.028 263.162 322.664 264.1 322.664C265.626 322.664 266.844 323.714 266.844 325.8V330H265.052V325.87C265.052 324.932 264.52 324.344 263.652 324.344C262.756 324.344 262.28 324.946 262.014 325.394V330H260.236ZM269.759 321.712C269.129 321.712 268.597 321.18 268.597 320.55C268.597 319.92 269.129 319.388 269.759 319.388C270.389 319.388 270.907 319.92 270.907 320.55C270.907 321.18 270.389 321.712 269.759 321.712ZM268.863 330V322.944H270.641V330H268.863ZM273.221 327.424V324.54H271.905V322.944H273.221V321.18H275.013V322.944H277.169V324.54H275.013V327.424C275.013 328.208 275.433 328.516 276.133 328.516C276.623 328.516 276.945 328.46 277.183 328.362V329.916C276.833 330.07 276.413 330.14 275.825 330.14C274.061 330.14 273.221 329.146 273.221 327.424ZM282.727 321.824H281.019L282.475 319.5H284.407L282.727 321.824ZM285.121 328.852C284.463 329.734 283.371 330.28 282.041 330.28C279.535 330.28 278.121 328.53 278.121 326.472C278.121 324.386 279.437 322.664 281.747 322.664C283.707 322.664 284.995 323.994 284.995 325.842C284.995 326.234 284.939 326.598 284.883 326.836H279.941C280.109 328.152 280.921 328.684 282.027 328.684C282.797 328.684 283.469 328.348 283.847 327.844L285.121 328.852ZM281.705 324.12C280.795 324.12 280.193 324.624 279.997 325.548H283.245C283.217 324.834 282.699 324.12 281.705 324.12ZM291.401 321.712C290.771 321.712 290.239 321.18 290.239 320.55C290.239 319.92 290.771 319.388 291.401 319.388C292.031 319.388 292.549 319.92 292.549 320.55C292.549 321.18 292.031 321.712 291.401 321.712ZM290.505 330V322.944H292.283V330H290.505ZM294.416 330V322.944H296.194V323.504C296.684 323.028 297.342 322.664 298.28 322.664C299.806 322.664 301.024 323.714 301.024 325.8V330H299.232V325.87C299.232 324.932 298.7 324.344 297.832 324.344C296.936 324.344 296.46 324.946 296.194 325.394V330H294.416ZM303.491 327.424V324.54H302.175V322.944H303.491V321.18H305.283V322.944H307.439V324.54H305.283V327.424C305.283 328.208 305.703 328.516 306.403 328.516C306.893 328.516 307.215 328.46 307.453 328.362V329.916C307.103 330.07 306.683 330.14 306.095 330.14C304.331 330.14 303.491 329.146 303.491 327.424ZM312.996 321.824H311.288L312.744 319.5H314.676L312.996 321.824ZM315.39 328.852C314.732 329.734 313.64 330.28 312.31 330.28C309.804 330.28 308.39 328.53 308.39 326.472C308.39 324.386 309.706 322.664 312.016 322.664C313.976 322.664 315.264 323.994 315.264 325.842C315.264 326.234 315.208 326.598 315.152 326.836H310.21C310.378 328.152 311.19 328.684 312.296 328.684C313.066 328.684 313.738 328.348 314.116 327.844L315.39 328.852ZM311.974 324.12C311.064 324.12 310.462 324.624 310.266 325.548H313.514C313.486 324.834 312.968 324.12 311.974 324.12ZM317.002 330V322.944H318.78V323.644C319.242 323.168 319.844 322.804 320.642 322.804C320.88 322.804 321.09 322.846 321.258 322.902V324.652C321.034 324.596 320.796 324.554 320.474 324.554C319.606 324.554 319.046 325.03 318.78 325.478V330H317.002ZM323.585 321.712C322.955 321.712 322.423 321.18 322.423 320.55C322.423 319.92 322.955 319.388 323.585 319.388C324.215 319.388 324.733 319.92 324.733 320.55C324.733 321.18 324.215 321.712 323.585 321.712ZM322.689 330V322.944H324.467V330H322.689ZM333.095 328.852C332.437 329.734 331.345 330.28 330.015 330.28C327.509 330.28 326.095 328.53 326.095 326.472C326.095 324.386 327.411 322.664 329.721 322.664C331.681 322.664 332.969 323.994 332.969 325.842C332.969 326.234 332.913 326.598 332.857 326.836H327.915C328.083 328.152 328.895 328.684 330.001 328.684C330.771 328.684 331.443 328.348 331.821 327.844L333.095 328.852ZM329.679 324.12C328.769 324.12 328.167 324.624 327.971 325.548H331.219C331.191 324.834 330.673 324.12 329.679 324.12ZM339.273 326.948V322.944H341.065V326.864C341.065 328.978 339.833 330.28 337.761 330.28C335.689 330.28 334.471 328.978 334.471 326.864V322.944H336.263V326.948C336.263 327.97 336.795 328.6 337.775 328.6C338.741 328.6 339.273 327.97 339.273 326.948ZM343.033 330V322.944H344.811V323.644C345.273 323.168 345.875 322.804 346.673 322.804C346.911 322.804 347.121 322.846 347.289 322.902V324.652C347.065 324.596 346.827 324.554 346.505 324.554C345.637 324.554 345.077 325.03 344.811 325.478V330H343.033Z" fill="#304436"/>
</g>
<g filter="url(#filter2_d_2156_1434)">
<rect x="353" y="285" width="141" height="23" fill="white" shape-rendering="crispEdges"/>
<rect x="353.5" y="285.5" width="140" height="22" stroke="#304436" shape-rendering="crispEdges"/>
<path d="M356.442 303V293.2H359.326C361.37 293.2 362.616 294.208 362.616 295.86C362.616 296.658 362.252 297.344 361.566 297.792C362.602 298.254 363.176 299.094 363.176 300.116C363.176 301.908 361.79 303 359.536 303H356.442ZM359.368 294.852H358.43V297.064H359.368C360.124 297.064 360.572 296.658 360.572 295.944C360.572 295.258 360.124 294.852 359.368 294.852ZM359.648 298.716H358.43V301.348H359.648C360.572 301.348 361.132 300.858 361.132 300.032C361.132 299.192 360.572 298.716 359.648 298.716ZM366.966 303.21C365.552 303.21 364.586 302.398 364.586 301.096C364.586 300.032 365.412 299.234 366.924 298.982L369.08 298.618V298.436C369.08 297.694 368.52 297.218 367.708 297.218C367.022 297.218 366.49 297.54 366.112 298.058L364.81 297.064C365.44 296.196 366.476 295.664 367.764 295.664C369.808 295.664 370.858 296.882 370.858 298.436V303H369.08V302.314C368.632 302.86 367.792 303.21 366.966 303.21ZM366.35 301.012C366.35 301.488 366.728 301.796 367.33 301.796C368.142 301.796 368.73 301.418 369.08 300.858V299.864L367.4 300.144C366.658 300.27 366.35 300.578 366.35 301.012ZM372.894 303V292.5H374.672V303H372.894ZM376.804 303V292.5H378.582V303H376.804ZM384.074 295.664C386.37 295.664 387.938 297.358 387.938 299.472C387.938 301.586 386.37 303.28 384.074 303.28C381.778 303.28 380.21 301.586 380.21 299.472C380.21 297.358 381.778 295.664 384.074 295.664ZM384.102 301.6C385.236 301.6 386.09 300.69 386.09 299.472C386.09 298.24 385.236 297.344 384.102 297.344C382.926 297.344 382.058 298.24 382.058 299.472C382.058 300.704 382.926 301.6 384.102 301.6ZM389.56 303V295.944H391.338V296.504C391.828 296.028 392.486 295.664 393.424 295.664C394.95 295.664 396.168 296.714 396.168 298.8V303H394.376V298.87C394.376 297.932 393.844 297.344 392.976 297.344C392.08 297.344 391.604 297.946 391.338 298.394V303H389.56ZM401.456 299.472C401.456 297.414 402.814 295.664 405.04 295.664C405.992 295.664 406.678 295.958 407.224 296.504V292.5H409.016V303H407.224V302.44C406.678 302.986 405.992 303.28 405.04 303.28C402.814 303.28 401.456 301.53 401.456 299.472ZM403.318 299.472C403.318 300.704 404.088 301.6 405.292 301.6C406.09 301.6 406.748 301.264 407.224 300.62V298.324C406.748 297.68 406.09 297.344 405.292 297.344C404.088 297.344 403.318 298.24 403.318 299.472ZM412.097 297.232H410.445L411.705 293.2H413.721L412.097 297.232ZM420.83 301.852C420.172 302.734 419.08 303.28 417.75 303.28C415.244 303.28 413.83 301.53 413.83 299.472C413.83 297.386 415.146 295.664 417.456 295.664C419.416 295.664 420.704 296.994 420.704 298.842C420.704 299.234 420.648 299.598 420.592 299.836H415.65C415.818 301.152 416.63 301.684 417.736 301.684C418.506 301.684 419.178 301.348 419.556 300.844L420.83 301.852ZM417.414 297.12C416.504 297.12 415.902 297.624 415.706 298.548H418.954C418.926 297.834 418.408 297.12 417.414 297.12ZM424.333 303.21C422.919 303.21 421.953 302.398 421.953 301.096C421.953 300.032 422.779 299.234 424.291 298.982L426.447 298.618V298.436C426.447 297.694 425.887 297.218 425.075 297.218C424.389 297.218 423.857 297.54 423.479 298.058L422.177 297.064C422.807 296.196 423.843 295.664 425.131 295.664C427.175 295.664 428.225 296.882 428.225 298.436V303H426.447V302.314C425.999 302.86 425.159 303.21 424.333 303.21ZM423.717 301.012C423.717 301.488 424.095 301.796 424.697 301.796C425.509 301.796 426.097 301.418 426.447 300.858V299.864L424.767 300.144C424.025 300.27 423.717 300.578 423.717 301.012ZM434.909 299.948V295.944H436.701V299.864C436.701 301.978 435.469 303.28 433.397 303.28C431.325 303.28 430.107 301.978 430.107 299.864V295.944H431.899V299.948C431.899 300.97 432.431 301.6 433.411 301.6C434.377 301.6 434.909 300.97 434.909 299.948ZM445.831 301.6C446.531 301.6 447.091 301.278 447.427 300.788L448.813 301.852C448.155 302.72 447.119 303.28 445.831 303.28C443.395 303.28 441.939 301.53 441.939 299.472C441.939 297.414 443.395 295.664 445.831 295.664C447.119 295.664 448.155 296.224 448.813 297.092L447.427 298.156C447.091 297.666 446.531 297.344 445.803 297.344C444.641 297.344 443.787 298.24 443.787 299.472C443.787 300.718 444.641 301.6 445.831 301.6ZM450.14 303V292.5H451.918V296.504C452.408 296.028 453.066 295.664 454.004 295.664C455.53 295.664 456.748 296.714 456.748 298.8V303H454.956V298.87C454.956 297.932 454.438 297.344 453.556 297.344C452.66 297.344 452.184 297.946 451.918 298.394V303H450.14ZM460.755 303.21C459.341 303.21 458.375 302.398 458.375 301.096C458.375 300.032 459.201 299.234 460.713 298.982L462.869 298.618V298.436C462.869 297.694 462.309 297.218 461.497 297.218C460.811 297.218 460.279 297.54 459.901 298.058L458.599 297.064C459.229 296.196 460.265 295.664 461.553 295.664C463.597 295.664 464.647 296.882 464.647 298.436V303H462.869V302.314C462.421 302.86 461.581 303.21 460.755 303.21ZM460.139 301.012C460.139 301.488 460.517 301.796 461.119 301.796C461.931 301.796 462.519 301.418 462.869 300.858V299.864L461.189 300.144C460.447 300.27 460.139 300.578 460.139 301.012ZM471.331 299.948V295.944H473.123V299.864C473.123 301.978 471.891 303.28 469.819 303.28C467.747 303.28 466.529 301.978 466.529 299.864V295.944H468.321V299.948C468.321 300.97 468.853 301.6 469.833 301.6C470.799 301.6 471.331 300.97 471.331 299.948ZM474.587 299.472C474.587 297.414 475.945 295.664 478.171 295.664C479.123 295.664 479.809 295.958 480.355 296.504V292.5H482.147V303H480.355V302.44C479.809 302.986 479.123 303.28 478.171 303.28C475.945 303.28 474.587 301.53 474.587 299.472ZM476.449 299.472C476.449 300.704 477.219 301.6 478.423 301.6C479.221 301.6 479.879 301.264 480.355 300.62V298.324C479.879 297.68 479.221 297.344 478.423 297.344C477.219 297.344 476.449 298.24 476.449 299.472ZM490.775 301.852C490.117 302.734 489.025 303.28 487.695 303.28C485.189 303.28 483.775 301.53 483.775 299.472C483.775 297.386 485.091 295.664 487.401 295.664C489.361 295.664 490.649 296.994 490.649 298.842C490.649 299.234 490.593 299.598 490.537 299.836H485.595C485.763 301.152 486.575 301.684 487.681 301.684C488.451 301.684 489.123 301.348 489.501 300.844L490.775 301.852ZM487.359 297.12C486.449 297.12 485.847 297.624 485.651 298.548H488.899C488.871 297.834 488.353 297.12 487.359 297.12Z" fill="#304436"/>
</g>
<path d="M75.5 299.5V305H196V311.5H69.5V293.5H189.5V270H286.5" stroke="#D05D4B" stroke-width="4"/>
<path d="M73.5 299L196 299L196 276L288.5 276" stroke="url(#paint0_linear_2156_1434)" stroke-width="4"/>
<path fill-rule="evenodd" clip-rule="evenodd" d="M256.688 207.547V211.955C256.688 211.668 256.93 211.436 257.228 211.436H260.472C260.771 211.436 261.013 211.668 261.013 211.955V207.547C261.013 207.834 260.771 208.066 260.472 208.066H257.228C256.93 208.066 256.688 207.834 256.688 207.547Z" fill="white"/>
<path d="M261.013 227.769V211.955C261.013 211.668 260.771 211.436 260.472 211.436H257.228C256.93 211.436 256.688 211.668 256.688 211.955V227.769C256.688 228.055 256.93 228.287 257.228 228.287H260.472C260.771 228.287 261.013 228.055 261.013 227.769Z" fill="white"/>
<path d="M260.472 204.696H257.228C256.93 204.696 256.688 204.928 256.688 205.214V207.547C256.688 207.834 256.93 208.066 257.228 208.066H260.472C260.771 208.066 261.013 207.834 261.013 207.547V205.214C261.013 204.928 260.771 204.696 260.472 204.696Z" fill="white"/>
<path fill-rule="evenodd" clip-rule="evenodd" d="M260.906 207.547V211.955C260.906 211.668 261.148 211.436 261.447 211.436H264.691C264.989 211.436 265.231 211.668 265.231 211.955V207.547C265.231 207.834 264.989 208.066 264.691 208.066H261.447C261.148 208.066 260.906 207.834 260.906 207.547Z" fill="white"/>
<path d="M265.231 227.769V211.955C265.231 211.668 264.989 211.436 264.691 211.436H261.447C261.148 211.436 260.906 211.668 260.906 211.955V227.769C260.906 228.055 261.148 228.287 261.447 228.287H264.691C264.989 228.287 265.231 228.055 265.231 227.769Z" fill="white"/>
<path d="M264.691 204.696H261.447C261.148 204.696 260.906 204.928 260.906 205.214V207.547C260.906 207.834 261.148 208.066 261.447 208.066H264.691C264.989 208.066 265.231 207.834 265.231 207.547V205.214C265.231 204.928 264.989 204.696 264.691 204.696Z" fill="white"/>
<path fill-rule="evenodd" clip-rule="evenodd" d="M265.125 207.539V211.946C265.125 211.66 265.367 211.428 265.666 211.428H268.909C269.208 211.428 269.45 211.66 269.45 211.946V207.539C269.45 207.826 269.208 208.058 268.909 208.058H265.666C265.367 208.058 265.125 207.826 265.125 207.539Z" fill="white"/>
<path d="M269.45 227.76V211.946C269.45 211.66 269.208 211.428 268.909 211.428H265.666C265.367 211.428 265.125 211.66 265.125 211.946V227.76C265.125 228.047 265.367 228.279 265.666 228.279H268.909C269.208 228.279 269.45 228.047 269.45 227.76Z" fill="white"/>
<path d="M268.909 204.688H265.666C265.367 204.688 265.125 204.92 265.125 205.206V207.539C265.125 207.826 265.367 208.058 265.666 208.058H268.909C269.208 208.058 269.45 207.826 269.45 207.539V205.206C269.45 204.92 269.208 204.688 268.909 204.688Z" fill="white"/>
<path fill-rule="evenodd" clip-rule="evenodd" d="M269.766 207.539V211.946C269.766 211.66 270.008 211.428 270.306 211.428H273.55C273.849 211.428 274.091 211.66 274.091 211.946V207.539C274.091 207.826 273.849 208.058 273.55 208.058H270.306C270.008 208.058 269.766 207.826 269.766 207.539Z" fill="white"/>
<path d="M274.091 227.76V211.946C274.091 211.66 273.849 211.428 273.55 211.428H270.306C270.008 211.428 269.766 211.66 269.766 211.946V227.76C269.766 228.047 270.008 228.279 270.306 228.279H273.55C273.849 228.279 274.091 228.047 274.091 227.76Z" fill="white"/>
<path d="M273.55 204.688H270.306C270.008 204.688 269.766 204.92 269.766 205.206V207.539C269.766 207.826 270.008 208.058 270.306 208.058H273.55C273.849 208.058 274.091 207.826 274.091 207.539V205.206C274.091 204.92 273.849 204.688 273.55 204.688Z" fill="white"/>
<path fill-rule="evenodd" clip-rule="evenodd" d="M273.984 207.539V211.946C273.984 211.66 274.226 211.428 274.525 211.428H277.769C278.067 211.428 278.309 211.66 278.309 211.946V207.539C278.309 207.826 278.067 208.058 277.769 208.058H274.525C274.226 208.058 273.984 207.826 273.984 207.539Z" fill="white"/>
<path d="M278.309 227.76V211.946C278.309 211.66 278.067 211.428 277.769 211.428H274.525C274.226 211.428 273.984 211.66 273.984 211.946V227.76C273.984 228.047 274.226 228.279 274.525 228.279H277.769C278.067 228.279 278.309 228.047 278.309 227.76Z" fill="white"/>
<path d="M277.769 204.688H274.525C274.226 204.688 273.984 204.92 273.984 205.206V207.539C273.984 207.826 274.226 208.058 274.525 208.058H277.769C278.067 208.058 278.309 207.826 278.309 207.539V205.206C278.309 204.92 278.067 204.688 277.769 204.688Z" fill="white"/>
<path d="M260.712 207.541V205.206C260.712 204.817 260.09 204.688 259.804 204.688V228.295C260.09 228.295 260.712 228.295 260.712 227.776V211.951V207.541Z" fill="#565656" fill-opacity="0.3"/>
<path fill-rule="evenodd" clip-rule="evenodd" d="M256.58 207.547V211.955C256.58 211.668 256.822 211.436 257.121 211.436H260.365C260.663 211.436 260.905 211.668 260.905 211.955V207.547C260.905 207.834 260.663 208.066 260.365 208.066H257.121C256.822 208.066 256.58 207.834 256.58 207.547Z" fill="#565656" fill-opacity="0.3"/>
<path d="M256.58 227.769V205.214M256.58 227.769C256.58 228.055 256.822 228.287 257.121 228.287H260.365C260.663 228.287 260.905 228.055 260.905 227.769M256.58 227.769V211.955M260.905 227.769V205.214M260.905 227.769V211.955M260.905 205.214C260.905 204.928 260.663 204.696 260.365 204.696H257.121C256.822 204.696 256.58 204.928 256.58 205.214M260.905 205.214V207.547M260.905 205.214V211.955M256.58 205.214V207.547M256.58 205.214V211.955M256.58 207.547C256.58 207.834 256.822 208.066 257.121 208.066H260.365C260.663 208.066 260.905 207.834 260.905 207.547M256.58 207.547V211.955M260.905 207.547V211.955M260.905 211.955C260.905 211.668 260.663 211.436 260.365 211.436H257.121C256.822 211.436 256.58 211.668 256.58 211.955" stroke="#304436"/>
<path d="M265.037 207.541V205.206C265.037 204.817 264.415 204.688 264.129 204.688V228.295C264.415 228.295 265.037 228.295 265.037 227.776V211.951V207.541Z" fill="#565656" fill-opacity="0.3"/>
<path fill-rule="evenodd" clip-rule="evenodd" d="M260.905 207.547V211.955C260.905 211.668 261.147 211.436 261.446 211.436H264.69C264.988 211.436 265.23 211.668 265.23 211.955V207.547C265.23 207.834 264.988 208.066 264.69 208.066H261.446C261.147 208.066 260.905 207.834 260.905 207.547Z" fill="#565656" fill-opacity="0.3"/>
<path d="M260.905 227.769V205.214M260.905 227.769C260.905 228.055 261.147 228.287 261.446 228.287H264.69C264.988 228.287 265.23 228.055 265.23 227.769M260.905 227.769V211.955M265.23 227.769V205.214M265.23 227.769V211.955M265.23 205.214C265.23 204.928 264.988 204.696 264.69 204.696H261.446C261.147 204.696 260.905 204.928 260.905 205.214M265.23 205.214V207.547M265.23 205.214V211.955M260.905 205.214V207.547M260.905 205.214V211.955M260.905 207.547C260.905 207.834 261.147 208.066 261.446 208.066H264.69C264.988 208.066 265.23 207.834 265.23 207.547M260.905 207.547V211.955M265.23 207.547V211.955M265.23 211.955C265.23 211.668 264.988 211.436 264.69 211.436H261.446C261.147 211.436 260.905 211.668 260.905 211.955" stroke="#304436"/>
<path d="M269.363 207.541V205.206C269.363 204.817 268.741 204.688 268.454 204.688V228.295C268.741 228.295 269.363 228.295 269.363 227.776V211.951V207.541Z" fill="#565656" fill-opacity="0.3"/>
<path fill-rule="evenodd" clip-rule="evenodd" d="M265.23 207.547V211.955C265.23 211.668 265.472 211.436 265.771 211.436H269.015C269.313 211.436 269.555 211.668 269.555 211.955V207.547C269.555 207.834 269.313 208.066 269.015 208.066H265.771C265.472 208.066 265.23 207.834 265.23 207.547Z" fill="#565656" fill-opacity="0.3"/>
<path d="M265.23 227.769V205.214M265.23 227.769C265.23 228.055 265.472 228.287 265.771 228.287H269.015C269.313 228.287 269.555 228.055 269.555 227.769M265.23 227.769V211.955M269.555 227.769V205.214M269.555 227.769V211.955M269.555 205.214C269.555 204.928 269.313 204.696 269.015 204.696H265.771C265.472 204.696 265.23 204.928 265.23 205.214M269.555 205.214V207.547M269.555 205.214V211.955M265.23 205.214V207.547M265.23 205.214V211.955M265.23 207.547C265.23 207.834 265.472 208.066 265.771 208.066H269.015C269.313 208.066 269.555 207.834 269.555 207.547M265.23 207.547V211.955M269.555 207.547V211.955M269.555 211.955C269.555 211.668 269.313 211.436 269.015 211.436H265.771C265.472 211.436 265.23 211.668 265.23 211.955" stroke="#304436"/>
<path d="M273.688 207.541V205.206C273.688 204.817 273.066 204.688 272.779 204.688V228.295C273.066 228.295 273.688 228.295 273.688 227.776V211.951V207.541Z" fill="#565656" fill-opacity="0.3"/>
<path fill-rule="evenodd" clip-rule="evenodd" d="M269.556 207.547V211.955C269.556 211.668 269.798 211.436 270.096 211.436H273.34C273.639 211.436 273.881 211.668 273.881 211.955V207.547C273.881 207.834 273.639 208.066 273.34 208.066H270.096C269.798 208.066 269.556 207.834 269.556 207.547Z" fill="#565656" fill-opacity="0.3"/>
<path d="M269.556 227.769V205.214M269.556 227.769C269.556 228.055 269.798 228.287 270.096 228.287H273.34C273.639 228.287 273.881 228.055 273.881 227.769M269.556 227.769V211.955M273.881 227.769V205.214M273.881 227.769V211.955M273.881 205.214C273.881 204.928 273.639 204.696 273.34 204.696H270.096C269.798 204.696 269.556 204.928 269.556 205.214M273.881 205.214V207.547M273.881 205.214V211.955M269.556 205.214V207.547M269.556 205.214V211.955M269.556 207.547C269.556 207.834 269.798 208.066 270.096 208.066H273.34C273.639 208.066 273.881 207.834 273.881 207.547M269.556 207.547V211.955M273.881 207.547V211.955M273.881 211.955C273.881 211.668 273.639 211.436 273.34 211.436H270.096C269.798 211.436 269.556 211.668 269.556 211.955" stroke="#304436"/>
<path d="M278.013 207.541V205.206C278.013 204.817 277.391 204.688 277.104 204.688V228.295C277.391 228.295 278.013 228.295 278.013 227.776V211.951V207.541Z" fill="#565656" fill-opacity="0.3"/>
<path fill-rule="evenodd" clip-rule="evenodd" d="M273.881 207.547V211.955C273.881 211.668 274.123 211.436 274.421 211.436H277.665C277.964 211.436 278.206 211.668 278.206 211.955V207.547C278.206 207.834 277.964 208.066 277.665 208.066H274.421C274.123 208.066 273.881 207.834 273.881 207.547Z" fill="#565656" fill-opacity="0.3"/>
<path d="M273.881 227.769V205.214M273.881 227.769C273.881 228.055 274.123 228.287 274.421 228.287H277.665C277.964 228.287 278.206 228.055 278.206 227.769M273.881 227.769V211.955M278.206 227.769V205.214M278.206 227.769V211.955M278.206 205.214C278.206 204.928 277.964 204.696 277.665 204.696H274.421C274.123 204.696 273.881 204.928 273.881 205.214M278.206 205.214V207.547M278.206 205.214V211.955M273.881 205.214V207.547M273.881 205.214V211.955M273.881 207.547C273.881 207.834 274.123 208.066 274.421 208.066H277.665C277.964 208.066 278.206 207.834 278.206 207.547M273.881 207.547V211.955M278.206 207.547V211.955M278.206 211.955C278.206 211.668 277.964 211.436 277.665 211.436H274.421C274.123 211.436 273.881 211.668 273.881 211.955" stroke="#304436"/>
<path d="M256.558 207.274L255.908 207.274C255.407 207.274 255 206.867 255 206.366C255 205.864 255.407 205.458 255.908 205.458L256.558 205.458L256.558 207.274Z" stroke="#304436"/>
<path d="M256.58 207.44L255.99 207.44C255.448 207.44 255.007 207 255.007 206.457C255.007 205.914 255.448 205.474 255.99 205.474L256.58 205.474L256.58 207.44Z" fill="white" stroke="#304436"/>
<path d="M278.206 205.474H278.795C279.338 205.474 279.778 205.914 279.778 206.457C279.778 207 279.338 207.44 278.795 207.44H278.206L278.206 205.474Z" fill="white" stroke="#304436"/>
<rect x="245.641" y="154" width="186" height="4" fill="#CBB9A9"/>
<rect x="245.641" y="238" width="186" height="4" fill="#CBB9A9"/>
<rect x="245.641" y="69" width="188" height="6" fill="#727B74"/>
<rect x="292.641" y="75" width="167" height="3.99999" transform="rotate(90 292.641 75)" fill="#CBB9A9"/>
<rect x="369.641" y="75" width="167" height="3.99999" transform="rotate(90 369.641 75)" fill="#CBB9A9"/>
<path d="M309 268.5H332.5M332.5 268.5V217.5M332.5 268.5H370.5V233M375 146.5H370.5V225.5V233M370.5 233H375M269.5 142.5H332.5V217.5M332.5 217.5H317" stroke="#465FB1" stroke-width="2" stroke-linecap="round" stroke-linejoin="round"/>
<path d="M339.806 249.797C339.806 247.588 341.597 245.797 343.806 245.797L350.856 245.797L358.194 245.797C360.403 245.797 362.194 247.588 362.194 249.797V270.988C362.194 273.198 360.403 274.988 358.194 274.988H343.806C341.597 274.988 339.806 273.198 339.806 270.988V249.797Z" fill="white" stroke="#274430"/>
<path d="M359.27 245.797L360.683 245.797C361.484 245.797 362.134 246.446 362.134 247.247V272.125C362.134 273.706 360.851 274.988 359.27 274.988V245.797Z" fill="#565656" fill-opacity="0.3"/>
<ellipse cx="351" cy="252.796" rx="3.7314" ry="3.67027" fill="#304436" stroke="#274430" stroke-width="2"/>
<path d="M351 250.594L351.562 252.807C351.656 253.174 351.378 253.53 351 253.53C350.621 253.53 350.344 253.174 350.437 252.807L351 250.594Z" fill="white"/>
<ellipse cx="351" cy="267.648" rx="2.98512" ry="2.93622" fill="#304436" stroke="#274430" stroke-width="2"/>
<ellipse cx="351" cy="267.648" rx="1.49256" ry="1.46811" fill="white" fill-opacity="0.3"/>
<path d="M342.669 274.989H359.331V275.037C359.331 276.142 358.435 277.037 357.331 277.037H344.669C343.565 277.037 342.669 276.142 342.669 275.037V274.989Z" fill="white" stroke="#274430"/>
<rect width="0.743243" height="3.28536" transform="matrix(0.869565 -0.493819 0.506207 0.862412 349.881 266.363)" fill="white"/>
<path d="M359.07 275.245H358.123C357.742 275.245 357.363 275.299 356.996 275.403C356.384 275.576 355.386 275.849 354.645 276.013C352.54 276.476 349.178 276.781 349.178 276.781H359.07V275.245Z" fill="#565656" fill-opacity="0.3"/>
<path fill-rule="evenodd" clip-rule="evenodd" d="M299.953 207.547V211.955C299.953 211.668 300.195 211.436 300.494 211.436H303.738C304.036 211.436 304.278 211.668 304.278 211.955V207.547C304.278 207.834 304.036 208.066 303.738 208.066H300.494C300.195 208.066 299.953 207.834 299.953 207.547Z" fill="white"/>
<path d="M304.278 227.769V211.955C304.278 211.668 304.036 211.436 303.738 211.436H300.494C300.195 211.436 299.953 211.668 299.953 211.955V227.769C299.953 228.055 300.195 228.287 300.494 228.287H303.738C304.036 228.287 304.278 228.055 304.278 227.769Z" fill="white"/>
<path d="M303.738 204.696H300.494C300.195 204.696 299.953 204.928 299.953 205.214V207.547C299.953 207.834 300.195 208.066 300.494 208.066H303.738C304.036 208.066 304.278 207.834 304.278 207.547V205.214C304.278 204.928 304.036 204.696 303.738 204.696Z" fill="white"/>
<path fill-rule="evenodd" clip-rule="evenodd" d="M304.172 207.547V211.955C304.172 211.668 304.414 211.436 304.713 211.436H307.956C308.255 211.436 308.497 211.668 308.497 211.955V207.547C308.497 207.834 308.255 208.066 307.956 208.066H304.713C304.414 208.066 304.172 207.834 304.172 207.547Z" fill="white"/>
<path d="M308.497 227.769V211.955C308.497 211.668 308.255 211.436 307.956 211.436H304.713C304.414 211.436 304.172 211.668 304.172 211.955V227.769C304.172 228.055 304.414 228.287 304.713 228.287H307.956C308.255 228.287 308.497 228.055 308.497 227.769Z" fill="white"/>
<path d="M307.956 204.696H304.713C304.414 204.696 304.172 204.928 304.172 205.214V207.547C304.172 207.834 304.414 208.066 304.713 208.066H307.956C308.255 208.066 308.497 207.834 308.497 207.547V205.214C308.497 204.928 308.255 204.696 307.956 204.696Z" fill="white"/>
<path fill-rule="evenodd" clip-rule="evenodd" d="M308.391 207.539V211.946C308.391 211.66 308.633 211.428 308.931 211.428H312.175C312.474 211.428 312.716 211.66 312.716 211.946V207.539C312.716 207.826 312.474 208.058 312.175 208.058H308.931C308.633 208.058 308.391 207.826 308.391 207.539Z" fill="white"/>
<path d="M312.716 227.76V211.946C312.716 211.66 312.474 211.428 312.175 211.428H308.931C308.633 211.428 308.391 211.66 308.391 211.946V227.76C308.391 228.047 308.633 228.279 308.931 228.279H312.175C312.474 228.279 312.716 228.047 312.716 227.76Z" fill="white"/>
<path d="M312.175 204.688H308.931C308.633 204.688 308.391 204.92 308.391 205.206V207.539C308.391 207.826 308.633 208.058 308.931 208.058H312.175C312.474 208.058 312.716 207.826 312.716 207.539V205.206C312.716 204.92 312.474 204.688 312.175 204.688Z" fill="white"/>
<path fill-rule="evenodd" clip-rule="evenodd" d="M313.031 207.539V211.946C313.031 211.66 313.273 211.428 313.572 211.428H316.816C317.114 211.428 317.356 211.66 317.356 211.946V207.539C317.356 207.826 317.114 208.058 316.816 208.058H313.572C313.273 208.058 313.031 207.826 313.031 207.539Z" fill="white"/>
<path d="M317.356 227.76V211.946C317.356 211.66 317.114 211.428 316.816 211.428H313.572C313.273 211.428 313.031 211.66 313.031 211.946V227.76C313.031 228.047 313.273 228.279 313.572 228.279H316.816C317.114 228.279 317.356 228.047 317.356 227.76Z" fill="white"/>
<path d="M316.816 204.688H313.572C313.273 204.688 313.031 204.92 313.031 205.206V207.539C313.031 207.826 313.273 208.058 313.572 208.058H316.816C317.114 208.058 317.356 207.826 317.356 207.539V205.206C317.356 204.92 317.114 204.688 316.816 204.688Z" fill="white"/>
<path fill-rule="evenodd" clip-rule="evenodd" d="M317.25 207.539V211.946C317.25 211.66 317.492 211.428 317.791 211.428H321.034C321.333 211.428 321.575 211.66 321.575 211.946V207.539C321.575 207.826 321.333 208.058 321.034 208.058H317.791C317.492 208.058 317.25 207.826 317.25 207.539Z" fill="white"/>
<path d="M321.575 227.76V211.946C321.575 211.66 321.333 211.428 321.034 211.428H317.791C317.492 211.428 317.25 211.66 317.25 211.946V227.76C317.25 228.047 317.492 228.279 317.791 228.279H321.034C321.333 228.279 321.575 228.047 321.575 227.76Z" fill="white"/>
<path d="M321.034 204.688H317.791C317.492 204.688 317.25 204.92 317.25 205.206V207.539C317.25 207.826 317.492 208.058 317.791 208.058H321.034C321.333 208.058 321.575 207.826 321.575 207.539V205.206C321.575 204.92 321.333 204.688 321.034 204.688Z" fill="white"/>
<path d="M303.978 207.541V205.206C303.978 204.817 303.356 204.688 303.069 204.688V228.295C303.356 228.295 303.978 228.295 303.978 227.776V211.951V207.541Z" fill="#565656" fill-opacity="0.3"/>
<path fill-rule="evenodd" clip-rule="evenodd" d="M299.846 207.547V211.955C299.846 211.668 300.088 211.436 300.386 211.436H303.63C303.929 211.436 304.171 211.668 304.171 211.955V207.547C304.171 207.834 303.929 208.066 303.63 208.066H300.386C300.088 208.066 299.846 207.834 299.846 207.547Z" fill="#565656" fill-opacity="0.3"/>
<path d="M299.846 227.769V205.214M299.846 227.769C299.846 228.055 300.088 228.287 300.386 228.287H303.63C303.929 228.287 304.171 228.055 304.171 227.769M299.846 227.769V211.955M304.171 227.769V205.214M304.171 227.769V211.955M304.171 205.214C304.171 204.928 303.929 204.696 303.63 204.696H300.386C300.088 204.696 299.846 204.928 299.846 205.214M304.171 205.214V207.547M304.171 205.214V211.955M299.846 205.214V207.547M299.846 205.214V211.955M299.846 207.547C299.846 207.834 300.088 208.066 300.386 208.066H303.63C303.929 208.066 304.171 207.834 304.171 207.547M299.846 207.547V211.955M304.171 207.547V211.955M304.171 211.955C304.171 211.668 303.929 211.436 303.63 211.436H300.386C300.088 211.436 299.846 211.668 299.846 211.955" stroke="#304436"/>
<path d="M308.303 207.541V205.206C308.303 204.817 307.681 204.688 307.394 204.688V228.295C307.681 228.295 308.303 228.295 308.303 227.776V211.951V207.541Z" fill="#565656" fill-opacity="0.3"/>
<path fill-rule="evenodd" clip-rule="evenodd" d="M304.171 207.547V211.955C304.171 211.668 304.413 211.436 304.712 211.436H307.955C308.254 211.436 308.496 211.668 308.496 211.955V207.547C308.496 207.834 308.254 208.066 307.955 208.066H304.712C304.413 208.066 304.171 207.834 304.171 207.547Z" fill="#565656" fill-opacity="0.3"/>
<path d="M304.171 227.769V205.214M304.171 227.769C304.171 228.055 304.413 228.287 304.712 228.287H307.955C308.254 228.287 308.496 228.055 308.496 227.769M304.171 227.769V211.955M308.496 227.769V205.214M308.496 227.769V211.955M308.496 205.214C308.496 204.928 308.254 204.696 307.955 204.696H304.712C304.413 204.696 304.171 204.928 304.171 205.214M308.496 205.214V207.547M308.496 205.214V211.955M304.171 205.214V207.547M304.171 205.214V211.955M304.171 207.547C304.171 207.834 304.413 208.066 304.712 208.066H307.955C308.254 208.066 308.496 207.834 308.496 207.547M304.171 207.547V211.955M308.496 207.547V211.955M308.496 211.955C308.496 211.668 308.254 211.436 307.955 211.436H304.712C304.413 211.436 304.171 211.668 304.171 211.955" stroke="#304436"/>
<path d="M312.628 207.541V205.206C312.628 204.817 312.006 204.688 311.719 204.688V228.295C312.006 228.295 312.628 228.295 312.628 227.776V211.951V207.541Z" fill="#565656" fill-opacity="0.3"/>
<path fill-rule="evenodd" clip-rule="evenodd" d="M308.496 207.547V211.955C308.496 211.668 308.738 211.436 309.037 211.436H312.28C312.579 211.436 312.821 211.668 312.821 211.955V207.547C312.821 207.834 312.579 208.066 312.28 208.066H309.037C308.738 208.066 308.496 207.834 308.496 207.547Z" fill="#565656" fill-opacity="0.3"/>
<path d="M308.496 227.769V205.214M308.496 227.769C308.496 228.055 308.738 228.287 309.037 228.287H312.28C312.579 228.287 312.821 228.055 312.821 227.769M308.496 227.769V211.955M312.821 227.769V205.214M312.821 227.769V211.955M312.821 205.214C312.821 204.928 312.579 204.696 312.28 204.696H309.037C308.738 204.696 308.496 204.928 308.496 205.214M312.821 205.214V207.547M312.821 205.214V211.955M308.496 205.214V207.547M308.496 205.214V211.955M308.496 207.547C308.496 207.834 308.738 208.066 309.037 208.066H312.28C312.579 208.066 312.821 207.834 312.821 207.547M308.496 207.547V211.955M312.821 207.547V211.955M312.821 211.955C312.821 211.668 312.579 211.436 312.28 211.436H309.037C308.738 211.436 308.496 211.668 308.496 211.955" stroke="#304436"/>
<path d="M316.953 207.541V205.206C316.953 204.817 316.331 204.688 316.045 204.688V228.295C316.331 228.295 316.953 228.295 316.953 227.776V211.951V207.541Z" fill="#565656" fill-opacity="0.3"/>
<path fill-rule="evenodd" clip-rule="evenodd" d="M312.821 207.547V211.955C312.821 211.668 313.063 211.436 313.362 211.436H316.606C316.904 211.436 317.146 211.668 317.146 211.955V207.547C317.146 207.834 316.904 208.066 316.606 208.066H313.362C313.063 208.066 312.821 207.834 312.821 207.547Z" fill="#565656" fill-opacity="0.3"/>
<path d="M312.821 227.769V205.214M312.821 227.769C312.821 228.055 313.063 228.287 313.362 228.287H316.606C316.904 228.287 317.146 228.055 317.146 227.769M312.821 227.769V211.955M317.146 227.769V205.214M317.146 227.769V211.955M317.146 205.214C317.146 204.928 316.904 204.696 316.606 204.696H313.362C313.063 204.696 312.821 204.928 312.821 205.214M317.146 205.214V207.547M317.146 205.214V211.955M312.821 205.214V207.547M312.821 205.214V211.955M312.821 207.547C312.821 207.834 313.063 208.066 313.362 208.066H316.606C316.904 208.066 317.146 207.834 317.146 207.547M312.821 207.547V211.955M317.146 207.547V211.955M317.146 211.955C317.146 211.668 316.904 211.436 316.606 211.436H313.362C313.063 211.436 312.821 211.668 312.821 211.955" stroke="#304436"/>
<path d="M321.278 207.541V205.206C321.278 204.817 320.656 204.688 320.37 204.688V228.295C320.656 228.295 321.278 228.295 321.278 227.776V211.951V207.541Z" fill="#565656" fill-opacity="0.3"/>
<path fill-rule="evenodd" clip-rule="evenodd" d="M317.146 207.547V211.955C317.146 211.668 317.388 211.436 317.687 211.436H320.931C321.229 211.436 321.471 211.668 321.471 211.955V207.547C321.471 207.834 321.229 208.066 320.931 208.066H317.687C317.388 208.066 317.146 207.834 317.146 207.547Z" fill="#565656" fill-opacity="0.3"/>
<path d="M317.146 227.769V205.214M317.146 227.769C317.146 228.055 317.388 228.287 317.687 228.287H320.931C321.229 228.287 321.471 228.055 321.471 227.769M317.146 227.769V211.955M321.471 227.769V205.214M321.471 227.769V211.955M321.471 205.214C321.471 204.928 321.229 204.696 320.931 204.696H317.687C317.388 204.696 317.146 204.928 317.146 205.214M321.471 205.214V207.547M321.471 205.214V211.955M317.146 205.214V207.547M317.146 205.214V211.955M317.146 207.547C317.146 207.834 317.388 208.066 317.687 208.066H320.931C321.229 208.066 321.471 207.834 321.471 207.547M317.146 207.547V211.955M321.471 207.547V211.955M321.471 211.955C321.471 211.668 321.229 211.436 320.931 211.436H317.687C317.388 211.436 317.146 211.668 317.146 211.955" stroke="#304436"/>
<path d="M299.824 207.274L299.174 207.274C298.672 207.274 298.266 206.867 298.266 206.366C298.266 205.864 298.672 205.458 299.174 205.458L299.824 205.458L299.824 207.274Z" stroke="#304436"/>
<path d="M299.846 207.44L299.256 207.44C298.713 207.44 298.273 207 298.273 206.457C298.273 205.914 298.713 205.474 299.256 205.474L299.846 205.474L299.846 207.44Z" fill="white" stroke="#304436"/>
<path d="M321.471 205.474H322.061C322.604 205.474 323.044 205.914 323.044 206.457C323.044 207 322.604 207.44 322.061 207.44H321.471L321.471 205.474Z" fill="white" stroke="#304436"/>
<path fill-rule="evenodd" clip-rule="evenodd" d="M299.953 125.547V129.955C299.953 129.668 300.195 129.436 300.494 129.436H303.738C304.036 129.436 304.278 129.668 304.278 129.955V125.547C304.278 125.834 304.036 126.066 303.738 126.066H300.494C300.195 126.066 299.953 125.834 299.953 125.547Z" fill="white"/>
<path d="M304.278 145.769V129.955C304.278 129.668 304.036 129.436 303.738 129.436H300.494C300.195 129.436 299.953 129.668 299.953 129.955V145.769C299.953 146.055 300.195 146.287 300.494 146.287H303.738C304.036 146.287 304.278 146.055 304.278 145.769Z" fill="white"/>
<path d="M303.738 122.696H300.494C300.195 122.696 299.953 122.928 299.953 123.214V125.547C299.953 125.834 300.195 126.066 300.494 126.066H303.738C304.036 126.066 304.278 125.834 304.278 125.547V123.214C304.278 122.928 304.036 122.696 303.738 122.696Z" fill="white"/>
<path fill-rule="evenodd" clip-rule="evenodd" d="M304.172 125.547V129.955C304.172 129.668 304.414 129.436 304.713 129.436H307.956C308.255 129.436 308.497 129.668 308.497 129.955V125.547C308.497 125.834 308.255 126.066 307.956 126.066H304.713C304.414 126.066 304.172 125.834 304.172 125.547Z" fill="white"/>
<path d="M308.497 145.769V129.955C308.497 129.668 308.255 129.436 307.956 129.436H304.713C304.414 129.436 304.172 129.668 304.172 129.955V145.769C304.172 146.055 304.414 146.287 304.713 146.287H307.956C308.255 146.287 308.497 146.055 308.497 145.769Z" fill="white"/>
<path d="M307.956 122.696H304.713C304.414 122.696 304.172 122.928 304.172 123.214V125.547C304.172 125.834 304.414 126.066 304.713 126.066H307.956C308.255 126.066 308.497 125.834 308.497 125.547V123.214C308.497 122.928 308.255 122.696 307.956 122.696Z" fill="white"/>
<path fill-rule="evenodd" clip-rule="evenodd" d="M308.391 125.539V129.946C308.391 129.66 308.633 129.428 308.931 129.428H312.175C312.474 129.428 312.716 129.66 312.716 129.946V125.539C312.716 125.826 312.474 126.058 312.175 126.058H308.931C308.633 126.058 308.391 125.826 308.391 125.539Z" fill="white"/>
<path d="M312.716 145.76V129.946C312.716 129.66 312.474 129.428 312.175 129.428H308.931C308.633 129.428 308.391 129.66 308.391 129.946V145.76C308.391 146.047 308.633 146.279 308.931 146.279H312.175C312.474 146.279 312.716 146.047 312.716 145.76Z" fill="white"/>
<path d="M312.175 122.688H308.931C308.633 122.688 308.391 122.92 308.391 123.206V125.539C308.391 125.826 308.633 126.058 308.931 126.058H312.175C312.474 126.058 312.716 125.826 312.716 125.539V123.206C312.716 122.92 312.474 122.688 312.175 122.688Z" fill="white"/>
<path fill-rule="evenodd" clip-rule="evenodd" d="M313.031 125.539V129.946C313.031 129.66 313.273 129.428 313.572 129.428H316.816C317.114 129.428 317.356 129.66 317.356 129.946V125.539C317.356 125.826 317.114 126.058 316.816 126.058H313.572C313.273 126.058 313.031 125.826 313.031 125.539Z" fill="white"/>
<path d="M317.356 145.76V129.946C317.356 129.66 317.114 129.428 316.816 129.428H313.572C313.273 129.428 313.031 129.66 313.031 129.946V145.76C313.031 146.047 313.273 146.279 313.572 146.279H316.816C317.114 146.279 317.356 146.047 317.356 145.76Z" fill="white"/>
<path d="M316.816 122.688H313.572C313.273 122.688 313.031 122.92 313.031 123.206V125.539C313.031 125.826 313.273 126.058 313.572 126.058H316.816C317.114 126.058 317.356 125.826 317.356 125.539V123.206C317.356 122.92 317.114 122.688 316.816 122.688Z" fill="white"/>
<path fill-rule="evenodd" clip-rule="evenodd" d="M317.25 125.539V129.946C317.25 129.66 317.492 129.428 317.791 129.428H321.034C321.333 129.428 321.575 129.66 321.575 129.946V125.539C321.575 125.826 321.333 126.058 321.034 126.058H317.791C317.492 126.058 317.25 125.826 317.25 125.539Z" fill="white"/>
<path d="M321.575 145.76V129.946C321.575 129.66 321.333 129.428 321.034 129.428H317.791C317.492 129.428 317.25 129.66 317.25 129.946V145.76C317.25 146.047 317.492 146.279 317.791 146.279H321.034C321.333 146.279 321.575 146.047 321.575 145.76Z" fill="white"/>
<path d="M321.034 122.688H317.791C317.492 122.688 317.25 122.92 317.25 123.206V125.539C317.25 125.826 317.492 126.058 317.791 126.058H321.034C321.333 126.058 321.575 125.826 321.575 125.539V123.206C321.575 122.92 321.333 122.688 321.034 122.688Z" fill="white"/>
<path d="M303.978 125.541V123.206C303.978 122.817 303.356 122.688 303.069 122.688V146.295C303.356 146.295 303.978 146.295 303.978 145.776V129.951V125.541Z" fill="#565656" fill-opacity="0.3"/>
<path fill-rule="evenodd" clip-rule="evenodd" d="M299.846 125.547V129.955C299.846 129.668 300.088 129.436 300.386 129.436H303.63C303.929 129.436 304.171 129.668 304.171 129.955V125.547C304.171 125.834 303.929 126.066 303.63 126.066H300.386C300.088 126.066 299.846 125.834 299.846 125.547Z" fill="#565656" fill-opacity="0.3"/>
<path d="M299.846 145.769V123.214M299.846 145.769C299.846 146.055 300.088 146.287 300.386 146.287H303.63C303.929 146.287 304.171 146.055 304.171 145.769M299.846 145.769V129.955M304.171 145.769V123.214M304.171 145.769V129.955M304.171 123.214C304.171 122.928 303.929 122.696 303.63 122.696H300.386C300.088 122.696 299.846 122.928 299.846 123.214M304.171 123.214V125.547M304.171 123.214V129.955M299.846 123.214V125.547M299.846 123.214V129.955M299.846 125.547C299.846 125.834 300.088 126.066 300.386 126.066H303.63C303.929 126.066 304.171 125.834 304.171 125.547M299.846 125.547V129.955M304.171 125.547V129.955M304.171 129.955C304.171 129.668 303.929 129.436 303.63 129.436H300.386C300.088 129.436 299.846 129.668 299.846 129.955" stroke="#304436"/>
<path d="M308.303 125.541V123.206C308.303 122.817 307.681 122.688 307.394 122.688V146.295C307.681 146.295 308.303 146.295 308.303 145.776V129.951V125.541Z" fill="#565656" fill-opacity="0.3"/>
<path fill-rule="evenodd" clip-rule="evenodd" d="M304.171 125.547V129.955C304.171 129.668 304.413 129.436 304.712 129.436H307.955C308.254 129.436 308.496 129.668 308.496 129.955V125.547C308.496 125.834 308.254 126.066 307.955 126.066H304.712C304.413 126.066 304.171 125.834 304.171 125.547Z" fill="#565656" fill-opacity="0.3"/>
<path d="M304.171 145.769V123.214M304.171 145.769C304.171 146.055 304.413 146.287 304.712 146.287H307.955C308.254 146.287 308.496 146.055 308.496 145.769M304.171 145.769V129.955M308.496 145.769V123.214M308.496 145.769V129.955M308.496 123.214C308.496 122.928 308.254 122.696 307.955 122.696H304.712C304.413 122.696 304.171 122.928 304.171 123.214M308.496 123.214V125.547M308.496 123.214V129.955M304.171 123.214V125.547M304.171 123.214V129.955M304.171 125.547C304.171 125.834 304.413 126.066 304.712 126.066H307.955C308.254 126.066 308.496 125.834 308.496 125.547M304.171 125.547V129.955M308.496 125.547V129.955M308.496 129.955C308.496 129.668 308.254 129.436 307.955 129.436H304.712C304.413 129.436 304.171 129.668 304.171 129.955" stroke="#304436"/>
<path d="M312.628 125.541V123.206C312.628 122.817 312.006 122.688 311.719 122.688V146.295C312.006 146.295 312.628 146.295 312.628 145.776V129.951V125.541Z" fill="#565656" fill-opacity="0.3"/>
<path fill-rule="evenodd" clip-rule="evenodd" d="M308.496 125.547V129.955C308.496 129.668 308.738 129.436 309.037 129.436H312.28C312.579 129.436 312.821 129.668 312.821 129.955V125.547C312.821 125.834 312.579 126.066 312.28 126.066H309.037C308.738 126.066 308.496 125.834 308.496 125.547Z" fill="#565656" fill-opacity="0.3"/>
<path d="M308.496 145.769V123.214M308.496 145.769C308.496 146.055 308.738 146.287 309.037 146.287H312.28C312.579 146.287 312.821 146.055 312.821 145.769M308.496 145.769V129.955M312.821 145.769V123.214M312.821 145.769V129.955M312.821 123.214C312.821 122.928 312.579 122.696 312.28 122.696H309.037C308.738 122.696 308.496 122.928 308.496 123.214M312.821 123.214V125.547M312.821 123.214V129.955M308.496 123.214V125.547M308.496 123.214V129.955M308.496 125.547C308.496 125.834 308.738 126.066 309.037 126.066H312.28C312.579 126.066 312.821 125.834 312.821 125.547M308.496 125.547V129.955M312.821 125.547V129.955M312.821 129.955C312.821 129.668 312.579 129.436 312.28 129.436H309.037C308.738 129.436 308.496 129.668 308.496 129.955" stroke="#304436"/>
<path d="M316.953 125.541V123.206C316.953 122.817 316.331 122.688 316.045 122.688V146.295C316.331 146.295 316.953 146.295 316.953 145.776V129.951V125.541Z" fill="#565656" fill-opacity="0.3"/>
<path fill-rule="evenodd" clip-rule="evenodd" d="M312.821 125.547V129.955C312.821 129.668 313.063 129.436 313.362 129.436H316.606C316.904 129.436 317.146 129.668 317.146 129.955V125.547C317.146 125.834 316.904 126.066 316.606 126.066H313.362C313.063 126.066 312.821 125.834 312.821 125.547Z" fill="#565656" fill-opacity="0.3"/>
<path d="M312.821 145.769V123.214M312.821 145.769C312.821 146.055 313.063 146.287 313.362 146.287H316.606C316.904 146.287 317.146 146.055 317.146 145.769M312.821 145.769V129.955M317.146 145.769V123.214M317.146 145.769V129.955M317.146 123.214C317.146 122.928 316.904 122.696 316.606 122.696H313.362C313.063 122.696 312.821 122.928 312.821 123.214M317.146 123.214V125.547M317.146 123.214V129.955M312.821 123.214V125.547M312.821 123.214V129.955M312.821 125.547C312.821 125.834 313.063 126.066 313.362 126.066H316.606C316.904 126.066 317.146 125.834 317.146 125.547M312.821 125.547V129.955M317.146 125.547V129.955M317.146 129.955C317.146 129.668 316.904 129.436 316.606 129.436H313.362C313.063 129.436 312.821 129.668 312.821 129.955" stroke="#304436"/>
<path d="M321.278 125.541V123.206C321.278 122.817 320.656 122.688 320.37 122.688V146.295C320.656 146.295 321.278 146.295 321.278 145.776V129.951V125.541Z" fill="#565656" fill-opacity="0.3"/>
<path fill-rule="evenodd" clip-rule="evenodd" d="M317.146 125.547V129.955C317.146 129.668 317.388 129.436 317.687 129.436H320.931C321.229 129.436 321.471 129.668 321.471 129.955V125.547C321.471 125.834 321.229 126.066 320.931 126.066H317.687C317.388 126.066 317.146 125.834 317.146 125.547Z" fill="#565656" fill-opacity="0.3"/>
<path d="M317.146 145.769V123.214M317.146 145.769C317.146 146.055 317.388 146.287 317.687 146.287H320.931C321.229 146.287 321.471 146.055 321.471 145.769M317.146 145.769V129.955M321.471 145.769V123.214M321.471 145.769V129.955M321.471 123.214C321.471 122.928 321.229 122.696 320.931 122.696H317.687C317.388 122.696 317.146 122.928 317.146 123.214M321.471 123.214V125.547M321.471 123.214V129.955M317.146 123.214V125.547M317.146 123.214V129.955M317.146 125.547C317.146 125.834 317.388 126.066 317.687 126.066H320.931C321.229 126.066 321.471 125.834 321.471 125.547M317.146 125.547V129.955M321.471 125.547V129.955M321.471 129.955C321.471 129.668 321.229 129.436 320.931 129.436H317.687C317.388 129.436 317.146 129.668 317.146 129.955" stroke="#304436"/>
<path d="M299.824 125.274L299.174 125.274C298.672 125.274 298.266 124.867 298.266 124.366C298.266 123.864 298.672 123.458 299.174 123.458L299.824 123.458L299.824 125.274Z" stroke="#304436"/>
<path d="M299.846 125.44L299.256 125.44C298.713 125.44 298.273 125 298.273 124.457C298.273 123.914 298.713 123.474 299.256 123.474L299.846 123.474L299.846 125.44Z" fill="white" stroke="#304436"/>
<path d="M321.471 123.474H322.061C322.604 123.474 323.044 123.914 323.044 124.457C323.044 125 322.604 125.44 322.061 125.44H321.471L321.471 123.474Z" fill="white" stroke="#304436"/>
<path d="M387.411 202.681L388.641 203.91" stroke="#304436" stroke-linecap="round"/>
<path d="M385.567 204.525L387.616 206.575" stroke="#304436" stroke-linecap="round"/>
<path d="M383.722 206.37L385.772 208.419" stroke="#304436" stroke-linecap="round"/>
<path d="M381.878 208.214L383.107 209.444" stroke="#304436" stroke-linecap="round"/>
<path d="M377.641 199H374.641V238H377.641L377.641 201.5L377.641 199Z" fill="white"/>
<path d="M377.641 201.5L377.641 238H374.641V199H377.641L377.641 201.5ZM377.641 201.5L380.641 203" stroke="#304436"/>
<path d="M386.762 201.506C386.762 201.506 384.256 199 381.035 202.221C377.813 205.443 380.319 207.948 380.319 207.948L386.762 201.506Z" fill="white" stroke="#304436"/>
<path d="M387.411 118.681L388.641 119.91" stroke="#304436" stroke-linecap="round"/>
<path d="M385.567 120.525L387.616 122.575" stroke="#304436" stroke-linecap="round"/>
<path d="M383.722 122.37L385.772 124.419" stroke="#304436" stroke-linecap="round"/>
<path d="M381.878 124.214L383.107 125.444" stroke="#304436" stroke-linecap="round"/>
<path d="M377.641 115H374.641V154H377.641L377.641 117.5L377.641 115Z" fill="white"/>
<path d="M377.641 117.5L377.641 154H374.641V115H377.641L377.641 117.5ZM377.641 117.5L380.641 119" stroke="#304436"/>
<path d="M386.762 117.506C386.762 117.506 384.256 115 381.035 118.221C377.813 121.443 380.319 123.948 380.319 123.948L386.762 117.506Z" fill="white" stroke="#304436"/>
<path d="M252.035 18H418.035C426.871 18 434.035 25.1634 434.035 34V70H252.035V18Z" fill="#CCC4C4"/>
<path d="M284.5 253.141C284.5 251.959 285.269 251 286.218 251L298.492 251L311.131 251C312.08 251 312.849 251.959 312.849 253.141V301.859C312.849 303.041 312.08 304 311.131 304H286.218C285.269 304 284.5 303.041 284.5 301.859V253.141Z" fill="white" stroke="#304436"/>
<path d="M298.83 279.83C298.589 279.529 298.431 279.349 298.431 279.349C298.431 279.349 298.273 279.529 298.032 279.83C297.25 280.804 295.593 283.042 295.593 284.509C295.593 285.273 295.892 286.005 296.424 286.546C296.956 287.086 297.678 287.389 298.431 287.389C299.183 287.389 299.905 287.086 300.437 286.546C300.97 286.005 301.269 285.273 301.269 284.509C301.269 283.042 299.612 280.804 298.83 279.83Z" fill="#304436"/>
<path d="M290.663 259.507C290.663 258.893 291.155 258.395 291.762 258.395H305.587C306.194 258.395 306.686 258.893 306.686 259.507V262.83C306.686 263.444 306.194 263.942 305.587 263.942H291.762C291.155 263.942 290.663 263.444 290.663 262.83V259.507Z" fill="#93D3F6" stroke="#304436"/>
<path d="M291.895 263.326L297.853 259.012H299.702L293.744 263.326H291.895Z" fill="white" fill-opacity="0.3"/>
<path d="M294.771 263.326L300.729 259.012H301.756L295.798 263.326H294.771Z" fill="white" fill-opacity="0.3"/>
<ellipse cx="296.656" cy="268.087" rx="1.0631" ry="1.06408" fill="#304436"/>
<ellipse cx="300.909" cy="268.087" rx="1.0631" ry="1.06408" fill="#304436"/>
<path fill-rule="evenodd" clip-rule="evenodd" d="M256.688 125.547V129.955C256.688 129.668 256.93 129.436 257.228 129.436H260.472C260.771 129.436 261.013 129.668 261.013 129.955V125.547C261.013 125.834 260.771 126.066 260.472 126.066H257.228C256.93 126.066 256.688 125.834 256.688 125.547Z" fill="white"/>
<path d="M261.013 145.769V129.955C261.013 129.668 260.771 129.436 260.472 129.436H257.228C256.93 129.436 256.688 129.668 256.688 129.955V145.769C256.688 146.055 256.93 146.287 257.228 146.287H260.472C260.771 146.287 261.013 146.055 261.013 145.769Z" fill="white"/>
<path d="M260.472 122.696H257.228C256.93 122.696 256.688 122.928 256.688 123.214V125.547C256.688 125.834 256.93 126.066 257.228 126.066H260.472C260.771 126.066 261.013 125.834 261.013 125.547V123.214C261.013 122.928 260.771 122.696 260.472 122.696Z" fill="white"/>
<path fill-rule="evenodd" clip-rule="evenodd" d="M260.906 125.547V129.955C260.906 129.668 261.148 129.436 261.447 129.436H264.691C264.989 129.436 265.231 129.668 265.231 129.955V125.547C265.231 125.834 264.989 126.066 264.691 126.066H261.447C261.148 126.066 260.906 125.834 260.906 125.547Z" fill="white"/>
<path d="M265.231 145.769V129.955C265.231 129.668 264.989 129.436 264.691 129.436H261.447C261.148 129.436 260.906 129.668 260.906 129.955V145.769C260.906 146.055 261.148 146.287 261.447 146.287H264.691C264.989 146.287 265.231 146.055 265.231 145.769Z" fill="white"/>
<path d="M264.691 122.696H261.447C261.148 122.696 260.906 122.928 260.906 123.214V125.547C260.906 125.834 261.148 126.066 261.447 126.066H264.691C264.989 126.066 265.231 125.834 265.231 125.547V123.214C265.231 122.928 264.989 122.696 264.691 122.696Z" fill="white"/>
<path fill-rule="evenodd" clip-rule="evenodd" d="M265.125 125.539V129.946C265.125 129.66 265.367 129.428 265.666 129.428H268.909C269.208 129.428 269.45 129.66 269.45 129.946V125.539C269.45 125.826 269.208 126.058 268.909 126.058H265.666C265.367 126.058 265.125 125.826 265.125 125.539Z" fill="white"/>
<path d="M269.45 145.76V129.946C269.45 129.66 269.208 129.428 268.909 129.428H265.666C265.367 129.428 265.125 129.66 265.125 129.946V145.76C265.125 146.047 265.367 146.279 265.666 146.279H268.909C269.208 146.279 269.45 146.047 269.45 145.76Z" fill="white"/>
<path d="M268.909 122.688H265.666C265.367 122.688 265.125 122.92 265.125 123.206V125.539C265.125 125.826 265.367 126.058 265.666 126.058H268.909C269.208 126.058 269.45 125.826 269.45 125.539V123.206C269.45 122.92 269.208 122.688 268.909 122.688Z" fill="white"/>
<path fill-rule="evenodd" clip-rule="evenodd" d="M269.766 125.539V129.946C269.766 129.66 270.008 129.428 270.306 129.428H273.55C273.849 129.428 274.091 129.66 274.091 129.946V125.539C274.091 125.826 273.849 126.058 273.55 126.058H270.306C270.008 126.058 269.766 125.826 269.766 125.539Z" fill="white"/>
<path d="M274.091 145.76V129.946C274.091 129.66 273.849 129.428 273.55 129.428H270.306C270.008 129.428 269.766 129.66 269.766 129.946V145.76C269.766 146.047 270.008 146.279 270.306 146.279H273.55C273.849 146.279 274.091 146.047 274.091 145.76Z" fill="white"/>
<path d="M273.55 122.688H270.306C270.008 122.688 269.766 122.92 269.766 123.206V125.539C269.766 125.826 270.008 126.058 270.306 126.058H273.55C273.849 126.058 274.091 125.826 274.091 125.539V123.206C274.091 122.92 273.849 122.688 273.55 122.688Z" fill="white"/>
<path fill-rule="evenodd" clip-rule="evenodd" d="M273.984 125.539V129.946C273.984 129.66 274.226 129.428 274.525 129.428H277.769C278.067 129.428 278.309 129.66 278.309 129.946V125.539C278.309 125.826 278.067 126.058 277.769 126.058H274.525C274.226 126.058 273.984 125.826 273.984 125.539Z" fill="white"/>
<path d="M278.309 145.76V129.946C278.309 129.66 278.067 129.428 277.769 129.428H274.525C274.226 129.428 273.984 129.66 273.984 129.946V145.76C273.984 146.047 274.226 146.279 274.525 146.279H277.769C278.067 146.279 278.309 146.047 278.309 145.76Z" fill="white"/>
<path d="M277.769 122.688H274.525C274.226 122.688 273.984 122.92 273.984 123.206V125.539C273.984 125.826 274.226 126.058 274.525 126.058H277.769C278.067 126.058 278.309 125.826 278.309 125.539V123.206C278.309 122.92 278.067 122.688 277.769 122.688Z" fill="white"/>
<path d="M260.712 125.541V123.206C260.712 122.817 260.09 122.688 259.804 122.688V146.295C260.09 146.295 260.712 146.295 260.712 145.776V129.951V125.541Z" fill="#565656" fill-opacity="0.3"/>
<path fill-rule="evenodd" clip-rule="evenodd" d="M256.58 125.547V129.955C256.58 129.668 256.822 129.436 257.121 129.436H260.365C260.663 129.436 260.905 129.668 260.905 129.955V125.547C260.905 125.834 260.663 126.066 260.365 126.066H257.121C256.822 126.066 256.58 125.834 256.58 125.547Z" fill="#565656" fill-opacity="0.3"/>
<path d="M256.58 145.769V123.214M256.58 145.769C256.58 146.055 256.822 146.287 257.121 146.287H260.365C260.663 146.287 260.905 146.055 260.905 145.769M256.58 145.769V129.955M260.905 145.769V123.214M260.905 145.769V129.955M260.905 123.214C260.905 122.928 260.663 122.696 260.365 122.696H257.121C256.822 122.696 256.58 122.928 256.58 123.214M260.905 123.214V125.547M260.905 123.214V129.955M256.58 123.214V125.547M256.58 123.214V129.955M256.58 125.547C256.58 125.834 256.822 126.066 257.121 126.066H260.365C260.663 126.066 260.905 125.834 260.905 125.547M256.58 125.547V129.955M260.905 125.547V129.955M260.905 129.955C260.905 129.668 260.663 129.436 260.365 129.436H257.121C256.822 129.436 256.58 129.668 256.58 129.955" stroke="#304436"/>
<path d="M265.037 125.541V123.206C265.037 122.817 264.415 122.688 264.129 122.688V146.295C264.415 146.295 265.037 146.295 265.037 145.776V129.951V125.541Z" fill="#565656" fill-opacity="0.3"/>
<path fill-rule="evenodd" clip-rule="evenodd" d="M260.905 125.547V129.955C260.905 129.668 261.147 129.436 261.446 129.436H264.69C264.988 129.436 265.23 129.668 265.23 129.955V125.547C265.23 125.834 264.988 126.066 264.69 126.066H261.446C261.147 126.066 260.905 125.834 260.905 125.547Z" fill="#565656" fill-opacity="0.3"/>
<path d="M260.905 145.769V123.214M260.905 145.769C260.905 146.055 261.147 146.287 261.446 146.287H264.69C264.988 146.287 265.23 146.055 265.23 145.769M260.905 145.769V129.955M265.23 145.769V123.214M265.23 145.769V129.955M265.23 123.214C265.23 122.928 264.988 122.696 264.69 122.696H261.446C261.147 122.696 260.905 122.928 260.905 123.214M265.23 123.214V125.547M265.23 123.214V129.955M260.905 123.214V125.547M260.905 123.214V129.955M260.905 125.547C260.905 125.834 261.147 126.066 261.446 126.066H264.69C264.988 126.066 265.23 125.834 265.23 125.547M260.905 125.547V129.955M265.23 125.547V129.955M265.23 129.955C265.23 129.668 264.988 129.436 264.69 129.436H261.446C261.147 129.436 260.905 129.668 260.905 129.955" stroke="#304436"/>
<path d="M269.363 125.541V123.206C269.363 122.817 268.741 122.688 268.454 122.688V146.295C268.741 146.295 269.363 146.295 269.363 145.776V129.951V125.541Z" fill="#565656" fill-opacity="0.3"/>
<path fill-rule="evenodd" clip-rule="evenodd" d="M265.23 125.547V129.955C265.23 129.668 265.472 129.436 265.771 129.436H269.015C269.313 129.436 269.555 129.668 269.555 129.955V125.547C269.555 125.834 269.313 126.066 269.015 126.066H265.771C265.472 126.066 265.23 125.834 265.23 125.547Z" fill="#565656" fill-opacity="0.3"/>
<path d="M265.23 145.769V123.214M265.23 145.769C265.23 146.055 265.472 146.287 265.771 146.287H269.015C269.313 146.287 269.555 146.055 269.555 145.769M265.23 145.769V129.955M269.555 145.769V123.214M269.555 145.769V129.955M269.555 123.214C269.555 122.928 269.313 122.696 269.015 122.696H265.771C265.472 122.696 265.23 122.928 265.23 123.214M269.555 123.214V125.547M269.555 123.214V129.955M265.23 123.214V125.547M265.23 123.214V129.955M265.23 125.547C265.23 125.834 265.472 126.066 265.771 126.066H269.015C269.313 126.066 269.555 125.834 269.555 125.547M265.23 125.547V129.955M269.555 125.547V129.955M269.555 129.955C269.555 129.668 269.313 129.436 269.015 129.436H265.771C265.472 129.436 265.23 129.668 265.23 129.955" stroke="#304436"/>
<path d="M273.688 125.541V123.206C273.688 122.817 273.066 122.688 272.779 122.688V146.295C273.066 146.295 273.688 146.295 273.688 145.776V129.951V125.541Z" fill="#565656" fill-opacity="0.3"/>
<path fill-rule="evenodd" clip-rule="evenodd" d="M269.556 125.547V129.955C269.556 129.668 269.798 129.436 270.096 129.436H273.34C273.639 129.436 273.881 129.668 273.881 129.955V125.547C273.881 125.834 273.639 126.066 273.34 126.066H270.096C269.798 126.066 269.556 125.834 269.556 125.547Z" fill="#565656" fill-opacity="0.3"/>
<path d="M269.556 145.769V123.214M269.556 145.769C269.556 146.055 269.798 146.287 270.096 146.287H273.34C273.639 146.287 273.881 146.055 273.881 145.769M269.556 145.769V129.955M273.881 145.769V123.214M273.881 145.769V129.955M273.881 123.214C273.881 122.928 273.639 122.696 273.34 122.696H270.096C269.798 122.696 269.556 122.928 269.556 123.214M273.881 123.214V125.547M273.881 123.214V129.955M269.556 123.214V125.547M269.556 123.214V129.955M269.556 125.547C269.556 125.834 269.798 126.066 270.096 126.066H273.34C273.639 126.066 273.881 125.834 273.881 125.547M269.556 125.547V129.955M273.881 125.547V129.955M273.881 129.955C273.881 129.668 273.639 129.436 273.34 129.436H270.096C269.798 129.436 269.556 129.668 269.556 129.955" stroke="#304436"/>
<path d="M278.013 125.541V123.206C278.013 122.817 277.391 122.688 277.104 122.688V146.295C277.391 146.295 278.013 146.295 278.013 145.776V129.951V125.541Z" fill="#565656" fill-opacity="0.3"/>
<path fill-rule="evenodd" clip-rule="evenodd" d="M273.881 125.547V129.955C273.881 129.668 274.123 129.436 274.421 129.436H277.665C277.964 129.436 278.206 129.668 278.206 129.955V125.547C278.206 125.834 277.964 126.066 277.665 126.066H274.421C274.123 126.066 273.881 125.834 273.881 125.547Z" fill="#565656" fill-opacity="0.3"/>
<path d="M273.881 145.769V123.214M273.881 145.769C273.881 146.055 274.123 146.287 274.421 146.287H277.665C277.964 146.287 278.206 146.055 278.206 145.769M273.881 145.769V129.955M278.206 145.769V123.214M278.206 145.769V129.955M278.206 123.214C278.206 122.928 277.964 122.696 277.665 122.696H274.421C274.123 122.696 273.881 122.928 273.881 123.214M278.206 123.214V125.547M278.206 123.214V129.955M273.881 123.214V125.547M273.881 123.214V129.955M273.881 125.547C273.881 125.834 274.123 126.066 274.421 126.066H277.665C277.964 126.066 278.206 125.834 278.206 125.547M273.881 125.547V129.955M278.206 125.547V129.955M278.206 129.955C278.206 129.668 277.964 129.436 277.665 129.436H274.421C274.123 129.436 273.881 129.668 273.881 129.955" stroke="#304436"/>
<path d="M256.558 125.274L255.908 125.274C255.407 125.274 255 124.867 255 124.366C255 123.864 255.407 123.458 255.908 123.458L256.558 123.458L256.558 125.274Z" stroke="#304436"/>
<path d="M256.58 125.44L255.99 125.44C255.448 125.44 255.007 125 255.007 124.457C255.007 123.914 255.448 123.474 255.99 123.474L256.58 123.474L256.58 125.44Z" fill="white" stroke="#304436"/>
<path d="M278.206 123.474H278.795C279.338 123.474 279.778 123.914 279.778 124.457C279.778 125 279.338 125.44 278.795 125.44H278.206L278.206 123.474Z" fill="white" stroke="#304436"/>
<path d="M215.591 75.2019H219.473H279.417V69.1587H215.591V75.2019Z" fill="#E2D2C3" stroke="#304436" stroke-width="2"/>
<path d="M219.641 85.7959V305H283.468C283.468 305 265.003 288.399 260.044 273.538C250.483 244.887 286.419 240.04 283.468 215.495C281.477 198.937 268.406 193.999 265.087 177.694C262.399 164.489 266.919 156.109 265.048 143.061C263.136 129.727 257.716 118.959 252.576 108.748C249.957 103.545 245.037 90.976 243.065 85.7959C242.215 82.3255 241.706 78.751 241.675 75H219.641V85.7959Z" fill="url(#pattern0_2156_1434)" stroke="#304436" stroke-width="2"/>
<path d="M226.912 298V289H228.436V298H226.912ZM233.144 291.712C235.112 291.712 236.456 293.164 236.456 294.976C236.456 296.788 235.112 298.24 233.144 298.24C231.176 298.24 229.832 296.788 229.832 294.976C229.832 293.164 231.176 291.712 233.144 291.712ZM233.168 296.8C234.14 296.8 234.872 296.02 234.872 294.976C234.872 293.92 234.14 293.152 233.168 293.152C232.16 293.152 231.416 293.92 231.416 294.976C231.416 296.032 232.16 296.8 233.168 296.8ZM240.808 296.8C241.408 296.8 241.888 296.524 242.176 296.104L243.364 297.016C242.8 297.76 241.912 298.24 240.808 298.24C238.72 298.24 237.472 296.74 237.472 294.976C237.472 293.212 238.72 291.712 240.808 291.712C241.912 291.712 242.8 292.192 243.364 292.936L242.176 293.848C241.888 293.428 241.408 293.152 240.784 293.152C239.788 293.152 239.056 293.92 239.056 294.976C239.056 296.044 239.788 296.8 240.808 296.8ZM246.1 298.18C244.888 298.18 244.06 297.484 244.06 296.368C244.06 295.456 244.768 294.772 246.064 294.556L247.912 294.244V294.088C247.912 293.452 247.432 293.044 246.736 293.044C246.148 293.044 245.692 293.32 245.368 293.764L244.252 292.912C244.792 292.168 245.68 291.712 246.784 291.712C248.536 291.712 249.436 292.756 249.436 294.088V298H247.912V297.412C247.528 297.88 246.808 298.18 246.1 298.18ZM245.572 296.296C245.572 296.704 245.896 296.968 246.412 296.968C247.108 296.968 247.612 296.644 247.912 296.164V295.312L246.472 295.552C245.836 295.66 245.572 295.924 245.572 296.296ZM251.182 298V289H252.706V298H251.182Z" fill="#535F57"/>
<path d="M219.606 156.906H214V150H219.606H224.35H234.269H244.054H254.835H264.826V156.906H254.835H244.054H234.269H224.35H219.606Z" fill="#E2D2C3"/>
<path d="M264.826 156.906H224.35M264.826 156.906H234.269M264.826 156.906V150M264.826 150H224.35M264.826 150H234.269M224.35 150H219.606H214V156.906H219.606H224.35M224.35 150V156.906M224.35 150H234.269M224.35 156.906H234.269M234.269 150V156.906M244.054 150V156.906M254.835 150V156.906" stroke="#304436" stroke-width="2"/>
<path d="M219.606 241.906H214V235H219.606H224.35H234.269H244.054H254.835H265.641H276.141L270.141 241.906H265.641H254.835H244.054H234.269H224.35H219.606Z" fill="#E2D2C3"/>
<path d="M270.141 241.906H224.35M270.141 241.906H234.269M270.141 241.906L276.141 235M276.141 235H224.35M276.141 235H234.269M224.35 235H219.606H214V241.906H219.606H224.35M224.35 235V241.906M224.35 235H234.269M224.35 241.906H234.269M234.269 235V241.906M244.054 235V241.906M254.835 235V241.906M265.641 235V241.906" stroke="#304436" stroke-width="2"/>
<path d="M247.169 16.4966L220 69.1586H280.054C279.599 44.0187 268.732 16.4966 268.732 16.4966H247.169Z" fill="#858181" stroke="#304436" stroke-width="2"/>
<path d="M260.97 18.9507L267.438 15.8305L280.376 9.58997L299.783 18.9507V69.1585H267.438H260.97V18.9507Z" fill="#F3E1D1" stroke="#274430" stroke-width="2"/>
<g clip-path="url(#clip0_2156_1434)">
<rect x="266.145" y="20.813" width="28.4629" height="46.6189" rx="2" fill="#93D3F6"/>
<path d="M266.145 41.2087L283.66 20.813H294.608L266.145 55.7771V41.2087Z" fill="white" fill-opacity="0.3"/>
<path d="M267.239 67.4318L294.608 34.4102V40.2375L271.618 67.4318H267.239Z" fill="white" fill-opacity="0.3"/>
<rect x="266.145" y="20.813" width="28.4629" height="7.76981" fill="#565656" fill-opacity="0.3"/>
</g>
<rect x="266.145" y="20.813" width="28.4629" height="46.6189" rx="2" stroke="#274430" stroke-width="2"/>
<path fill-rule="evenodd" clip-rule="evenodd" d="M279.945 69.1585L279.945 20.813L281.67 20.813L281.67 69.1585L279.945 69.1585Z" fill="#304436"/>
<path fill-rule="evenodd" clip-rule="evenodd" d="M294.608 44.9857L266.145 44.9857L266.145 43.2591L294.608 43.2591L294.608 44.9857Z" fill="#304436"/>
<rect x="258.382" y="65.7052" width="43.9881" height="3.45325" rx="1.72662" fill="#F3E1D1" stroke="#274430" stroke-width="2"/>
<defs>
<filter id="filter0_d_2156_1434" x="10" y="261" width="156" height="21" filterUnits="userSpaceOnUse" color-interpolation-filters="sRGB">
<feFlood flood-opacity="0" result="BackgroundImageFix"/>
<feColorMatrix in="SourceAlpha" type="matrix" values="0 0 0 0 0 0 0 0 0 0 0 0 0 0 0 0 0 0 127 0" result="hardAlpha"/>
<feOffset dx="1" dy="1"/>
<feComposite in2="hardAlpha" operator="out"/>
<feColorMatrix type="matrix" values="0 0 0 0 0.188235 0 0 0 0 0.266667 0 0 0 0 0.211765 0 0 0 1 0"/>
<feBlend mode="normal" in2="BackgroundImageFix" result="effect1_dropShadow_2156_1434"/>
<feBlend mode="normal" in="SourceGraphic" in2="effect1_dropShadow_2156_1434" result="shape"/>
</filter>
<filter id="filter1_d_2156_1434" x="247" y="312" width="104" height="24" filterUnits="userSpaceOnUse" color-interpolation-filters="sRGB">
<feFlood flood-opacity="0" result="BackgroundImageFix"/>
<feColorMatrix in="SourceAlpha" type="matrix" values="0 0 0 0 0 0 0 0 0 0 0 0 0 0 0 0 0 0 127 0" result="hardAlpha"/>
<feOffset dx="1" dy="1"/>
<feComposite in2="hardAlpha" operator="out"/>
<feColorMatrix type="matrix" values="0 0 0 0 0.188235 0 0 0 0 0.266667 0 0 0 0 0.211765 0 0 0 1 0"/>
<feBlend mode="normal" in2="BackgroundImageFix" result="effect1_dropShadow_2156_1434"/>
<feBlend mode="normal" in="SourceGraphic" in2="effect1_dropShadow_2156_1434" result="shape"/>
</filter>
<filter id="filter2_d_2156_1434" x="353" y="285" width="142" height="24" filterUnits="userSpaceOnUse" color-interpolation-filters="sRGB">
<feFlood flood-opacity="0" result="BackgroundImageFix"/>
<feColorMatrix in="SourceAlpha" type="matrix" values="0 0 0 0 0 0 0 0 0 0 0 0 0 0 0 0 0 0 127 0" result="hardAlpha"/>
<feOffset dx="1" dy="1"/>
<feComposite in2="hardAlpha" operator="out"/>
<feColorMatrix type="matrix" values="0 0 0 0 0.188235 0 0 0 0 0.266667 0 0 0 0 0.211765 0 0 0 1 0"/>
<feBlend mode="normal" in2="BackgroundImageFix" result="effect1_dropShadow_2156_1434"/>
<feBlend mode="normal" in="SourceGraphic" in2="effect1_dropShadow_2156_1434" result="shape"/>
</filter>
<linearGradient id="paint0_linear_2156_1434" x1="99.5" y1="264.5" x2="143" y2="354" gradientUnits="userSpaceOnUse">
<stop offset="0.278846" stop-color="#D05D4B"/>
<stop offset="0.350962" stop-color="#465FB1"/>
</linearGradient>
<clipPath id="clip0_2156_1434">
<rect x="266.145" y="20.813" width="28.4629" height="46.6189" rx="2" fill="white"/>
</clipPath>
<pattern id="pattern0_2156_1434" patternUnits="userSpaceOnUse" patternTransform="matrix(17 0 0 14 219.141 74.5)" preserveAspectRatio="none" viewBox="-0.5 -0.5 17 14" width="1" height="1">
<use xlink:href="#pattern0_2156_1434_inner" transform="translate(-25.5 -7)"/>
<use xlink:href="#pattern0_2156_1434_inner" transform="translate(-8.5 -7)"/>
<use xlink:href="#pattern0_2156_1434_inner" transform="translate(8.5 -7)"/>
<use xlink:href="#pattern0_2156_1434_inner" transform="translate(-34 0)"/>
<use xlink:href="#pattern0_2156_1434_inner" transform="translate(-17 0)"/>
<g id="pattern0_2156_1434_inner">
<rect width="17" height="7" fill="#F3E1D1" stroke="white"/>
</g>
<use xlink:href="#pattern0_2156_1434_inner" transform="translate(-25.5 7)"/>
<use xlink:href="#pattern0_2156_1434_inner" transform="translate(-8.5 7)"/>
<use xlink:href="#pattern0_2156_1434_inner" transform="translate(8.5 7)"/>
</pattern></defs>
</svg>
