<svg width="501" height="362" viewBox="0 0 501 362" fill="none" xmlns="http://www.w3.org/2000/svg" xmlns:xlink="http://www.w3.org/1999/xlink">
<path d="M0 0H500V362H0V0Z" fill="white"/>
<path d="M500 0H499V362H500H501V0H500Z" fill="#E9E9E9"/>
<path d="M434 288H56C46.6112 288 39 295.611 39 305V321C39 321 44.6904 323.442 48.5 324.5C64.5465 328.955 74.3628 321.735 91 321C110.312 320.147 121.184 320.228 140.5 321C158.307 321.712 168.259 326.189 186 324.5C199.768 323.19 206.946 332.753 220.5 330C242.774 325.476 255.277 321.487 278 321C296.222 320.61 306.308 326.116 324.5 325C335.139 324.347 340.892 322.043 351.5 321L351.814 320.969C372.803 318.905 385.081 317.697 406 321C424.123 323.862 451 334.5 451 334.5V305C451 295.611 443.389 288 434 288Z" fill="#9A8D81" stroke="#304436" stroke-width="2"/>
<path d="M39 354H451V334.5C451 334.5 424.123 323.861 406 321C385.081 317.697 372.803 318.905 351.814 320.969L351.5 321C340.892 322.043 335.139 324.347 324.5 325C306.308 326.116 296.222 320.61 278 321C255.277 321.487 242.774 325.476 220.5 330C206.946 332.753 199.768 323.189 186 324.5C168.259 326.189 158.307 321.712 140.5 321C121.184 320.228 110.312 320.147 91 321C74.3628 321.735 64.5465 328.955 48.5 324.5C44.6904 323.442 39 321 39 321V354Z" fill="#624D45" stroke="#304436" stroke-width="2"/>
<path d="M53.5 332H61.5" stroke="#304436" stroke-width="2" stroke-linecap="round"/>
<path d="M208 301H216" stroke="#304436" stroke-width="2" stroke-linecap="round"/>
<path d="M53 319H61" stroke="#304436" stroke-width="2" stroke-linecap="round"/>
<path d="M392 295H400" stroke="#304436" stroke-width="2" stroke-linecap="round"/>
<path d="M281 333H289" stroke="#304436" stroke-width="2" stroke-linecap="round"/>
<path d="M217 347H225" stroke="#304436" stroke-width="2" stroke-linecap="round"/>
<path d="M198 345H190" stroke="#304436" stroke-width="2" stroke-linecap="round"/>
<path d="M352.5 314H344.5" stroke="#304436" stroke-width="2" stroke-linecap="round"/>
<path d="M361 300H353" stroke="#304436" stroke-width="2" stroke-linecap="round"/>
<path d="M425.5 346H417.5" stroke="#304436" stroke-width="2" stroke-linecap="round"/>
<path d="M174 329H166" stroke="#304436" stroke-width="2" stroke-linecap="round"/>
<path d="M328.5 298H320.5" stroke="#304436" stroke-width="2" stroke-linecap="round"/>
<path d="M401.5 330H393.5" stroke="#304436" stroke-width="2" stroke-linecap="round"/>
<path d="M69.5 343H77.5" stroke="#304436" stroke-width="2" stroke-linecap="round"/>
<path d="M224 312H232" stroke="#304436" stroke-width="2" stroke-linecap="round"/>
<path d="M48 306H56" stroke="#304436" stroke-width="2" stroke-linecap="round"/>
<path d="M408 306H416" stroke="#304436" stroke-width="2" stroke-linecap="round"/>
<path d="M297 344H305" stroke="#304436" stroke-width="2" stroke-linecap="round"/>
<path d="M233 336H241" stroke="#304436" stroke-width="2" stroke-linecap="round"/>
<path d="M117.5 330H125.5" stroke="#304436" stroke-width="2" stroke-linecap="round"/>
<path d="M272 299H280" stroke="#304436" stroke-width="2" stroke-linecap="round"/>
<path d="M199 316H207" stroke="#304436" stroke-width="2" stroke-linecap="round"/>
<path d="M345 331H353" stroke="#304436" stroke-width="2" stroke-linecap="round"/>
<path d="M134 343H126" stroke="#304436" stroke-width="2" stroke-linecap="round"/>
<path d="M288.5 312H280.5" stroke="#304436" stroke-width="2" stroke-linecap="round"/>
<path d="M361.5 344H353.5" stroke="#304436" stroke-width="2" stroke-linecap="round"/>
<path d="M100.5 337H103.5" stroke="#304436" stroke-width="2" stroke-linecap="round"/>
<path d="M255 306H258" stroke="#304436" stroke-width="2" stroke-linecap="round"/>
<path d="M180 319H183" stroke="#304436" stroke-width="2" stroke-linecap="round"/>
<path d="M439 300H442" stroke="#304436" stroke-width="2" stroke-linecap="round"/>
<path d="M374 312H377" stroke="#304436" stroke-width="2" stroke-linecap="round"/>
<path d="M328 338H331" stroke="#304436" stroke-width="2" stroke-linecap="round"/>
<path d="M264 342H267" stroke="#304436" stroke-width="2" stroke-linecap="round"/>
<path d="M151 350H148" stroke="#304436" stroke-width="2" stroke-linecap="round"/>
<path d="M305.5 319H302.5" stroke="#304436" stroke-width="2" stroke-linecap="round"/>
<path d="M378.5 351H375.5" stroke="#304436" stroke-width="2" stroke-linecap="round"/>
<path d="M71 332L75 332" stroke="#304436" stroke-width="2" stroke-linecap="round"/>
<path d="M225.5 301L229.5 301" stroke="#304436" stroke-width="2" stroke-linecap="round"/>
<path d="M160 319L164 319" stroke="#304436" stroke-width="2" stroke-linecap="round"/>
<path d="M119 317L123 317" stroke="#304436" stroke-width="2" stroke-linecap="round"/>
<path d="M409.5 295L413.5 295" stroke="#304436" stroke-width="2" stroke-linecap="round"/>
<path d="M298.5 333L302.5 333" stroke="#304436" stroke-width="2" stroke-linecap="round"/>
<path d="M234.5 347L238.5 347" stroke="#304436" stroke-width="2" stroke-linecap="round"/>
<path d="M180.5 345L176.5 345" stroke="#304436" stroke-width="2" stroke-linecap="round"/>
<path d="M335 314L331 314" stroke="#304436" stroke-width="2" stroke-linecap="round"/>
<path d="M408 346L404 346" stroke="#304436" stroke-width="2" stroke-linecap="round"/>
<path d="M161.5 329L157.5 329" stroke="#304436" stroke-width="2" stroke-linecap="round"/>
<path d="M316 298L312 298" stroke="#304436" stroke-width="2" stroke-linecap="round"/>
<path d="M389 330L385 330" stroke="#304436" stroke-width="2" stroke-linecap="round"/>
<path d="M87 343L91 343" stroke="#304436" stroke-width="2" stroke-linecap="round"/>
<path d="M241.5 312L245.5 312" stroke="#304436" stroke-width="2" stroke-linecap="round"/>
<path d="M74 320L78 320" stroke="#304436" stroke-width="2" stroke-linecap="round"/>
<path d="M425.5 306L429.5 306" stroke="#304436" stroke-width="2" stroke-linecap="round"/>
<path d="M314.5 344L318.5 344" stroke="#304436" stroke-width="2" stroke-linecap="round"/>
<path d="M250.5 336L254.5 336" stroke="#304436" stroke-width="2" stroke-linecap="round"/>
<path d="M203 75H416V306H203V75Z" fill="#F3E1D1" stroke="#304436" stroke-width="2"/>
<path d="M194 274H306" stroke="#535F57" stroke-width="2"/>
<rect x="229" y="155" width="186" height="4" fill="#CBB9A9"/>
<rect x="229" y="239" width="186" height="4" fill="#CBB9A9"/>
<rect x="229" y="70" width="188" height="6" fill="#727B74"/>
<rect x="276" y="76" width="167" height="3.99999" transform="rotate(90 276 76)" fill="#CBB9A9"/>
<rect x="353" y="76" width="167" height="3.99999" transform="rotate(90 353 76)" fill="#CBB9A9"/>
<path d="M130.118 275.89C129.076 275.611 128.298 274.973 127.784 273.976C127.269 272.98 127.165 271.909 127.472 270.764L129.971 271.435C129.867 271.824 129.9 272.182 130.069 272.51C130.238 272.839 130.5 273.049 130.853 273.143C131.207 273.238 131.54 273.186 131.85 272.987C132.161 272.787 132.367 272.493 132.471 272.105C132.575 271.716 132.542 271.358 132.372 271.031C132.203 270.703 131.942 270.492 131.589 270.396L103.471 262.855L104.206 260.108L132.324 267.649C133.365 267.929 134.143 268.567 134.658 269.563C135.172 270.56 135.276 271.631 134.97 272.775C134.664 273.92 134.039 274.795 133.095 275.401C132.152 276.006 131.159 276.17 130.118 275.89ZM105.677 254.614L106.412 251.867L139.529 260.749C140.07 260.894 140.57 260.82 141.028 260.526C141.487 260.232 141.795 259.787 141.955 259.192C142.114 258.597 142.069 258.057 141.819 257.573C141.569 257.089 141.173 256.774 140.632 256.629C140.09 256.484 139.59 256.558 139.132 256.852C138.674 257.146 138.365 257.591 138.206 258.186L135.706 257.516C136.068 256.165 136.795 255.139 137.887 254.438C138.979 253.737 140.139 253.552 141.367 253.882C142.596 254.211 143.508 254.953 144.104 256.107C144.7 257.261 144.816 258.513 144.454 259.862C144.093 261.213 143.366 262.239 142.275 262.94C141.183 263.641 140.023 263.827 138.793 263.496L105.677 254.614ZM139.601 275.489L140.336 272.742C140.878 272.888 141.378 272.813 141.836 272.519C142.294 272.225 142.603 271.78 142.762 271.185C142.922 270.59 142.876 270.05 142.627 269.566C142.377 269.082 141.981 268.767 141.439 268.622L104.574 258.735L105.309 255.988L142.175 265.875C143.404 266.205 144.316 266.946 144.911 268.1C145.507 269.254 145.624 270.506 145.262 271.855C144.9 273.206 144.174 274.232 143.082 274.933C141.991 275.635 140.83 275.82 139.601 275.489Z" fill="#304436"/>
<path d="M151.129 261.882C151.129 259.857 152.843 258.215 154.958 258.215H196.124C198.239 258.215 199.953 259.857 199.953 261.882V282.971C199.953 284.996 198.239 286.639 196.124 286.639H154.958C152.843 286.639 151.129 284.996 151.129 282.971V261.882Z" fill="white" stroke="#304436"/>
<path d="M161.534 263.742C160.261 264.592 159.801 266.977 160.638 268.448C161.013 268.965 161.398 269.268 161.398 269.268C161.076 269.059 160.825 268.776 160.638 268.448C160.21 267.858 159.795 266.989 159.977 265.973C160.317 264.067 161.534 263.742 161.534 263.742Z" fill="white" fill-opacity="0.3"/>
<path d="M183.042 265.503H193.458" stroke="#304436" stroke-width="2" stroke-linecap="round"/>
<path d="M183.042 269.4H193.458" stroke="#304436" stroke-width="2" stroke-linecap="round"/>
<path d="M183.042 273.12H193.458" stroke="#304436" stroke-width="2" stroke-linecap="round"/>
<path d="M163.289 271.079L161.006 268.827C160.131 267.964 160.238 266.521 161.312 265.923C161.952 265.566 162.66 265.229 163.289 265.056C165.047 264.575 167.958 264.904 167.958 264.904" stroke="#304436" stroke-width="2" stroke-linecap="round" stroke-linejoin="round"/>
<path d="M168.137 272.421L171.301 271.584C172.482 271.272 173.662 272.066 173.653 273.273C173.647 274.009 173.591 274.798 173.425 275.432C172.968 277.175 171.224 279.497 171.224 279.497" stroke="#304436" stroke-width="2" stroke-linecap="round" stroke-linejoin="round"/>
<path d="M164.317 275.869L163.469 278.99C163.153 280.154 161.866 280.766 160.811 280.154C160.168 279.782 159.503 279.339 159.029 278.88C157.728 277.619 156.561 274.968 156.561 274.968" stroke="#304436" stroke-width="2" stroke-linecap="round" stroke-linejoin="round"/>
<path d="M345.5 226.5L345.5 271H329.5M345.5 226.5H298.5M345.5 226.5L345.5 140.5H295.5" stroke="#465FB1" stroke-width="2" stroke-linecap="round" stroke-linejoin="round"/>
<path d="M304 253.182C304 251.977 304.802 251 305.792 251L318.595 251L331.779 251C332.769 251 333.571 251.977 333.571 253.182V302.818C333.571 304.023 332.769 305 331.779 305H305.792C304.802 305 304 304.023 304 302.818V253.182Z" fill="white" stroke="#304436"/>
<path d="M318.948 281.073C318.696 280.759 318.532 280.571 318.532 280.571C318.532 280.571 318.367 280.759 318.115 281.073C317.3 282.089 315.572 284.424 315.572 285.954C315.572 286.751 315.883 287.515 316.439 288.079C316.994 288.642 317.747 288.958 318.532 288.958C319.317 288.958 320.07 288.642 320.625 288.079C321.18 287.515 321.492 286.751 321.492 285.954C321.492 284.424 319.763 282.089 318.948 281.073Z" fill="#304436"/>
<path d="M310.428 259.874C310.428 259.234 310.942 258.714 311.575 258.714H325.996C326.63 258.714 327.143 259.234 327.143 259.874V263.34C327.143 263.981 326.63 264.5 325.996 264.5H311.575C310.942 264.5 310.428 263.981 310.428 263.34V259.874Z" fill="#93D3F6" stroke="#304436"/>
<path d="M311.714 263.857L317.929 259.357H319.857L313.643 263.857H311.714Z" fill="white" fill-opacity="0.3"/>
<path d="M314.714 263.857L320.929 259.357H322L315.786 263.857H314.714Z" fill="white" fill-opacity="0.3"/>
<ellipse cx="316.68" cy="268.824" rx="1.10894" ry="1.10997" fill="#304436"/>
<ellipse cx="321.116" cy="268.824" rx="1.10894" ry="1.10997" fill="#304436"/>
<path d="M294.129 45.8823C294.129 43.8567 295.843 42.2147 297.958 42.2147H339.124C341.239 42.2147 342.953 43.8567 342.953 45.8823V66.9709C342.953 68.9965 341.239 70.6385 339.124 70.6385H297.958C295.843 70.6385 294.129 68.9965 294.129 66.9709V45.8823Z" fill="white" stroke="#304436"/>
<path d="M304.534 47.7416C303.261 48.5922 302.801 50.9772 303.638 52.4478C304.013 52.9653 304.398 53.2684 304.398 53.2684C304.076 53.0585 303.825 52.7759 303.638 52.4478C303.21 51.8577 302.795 50.989 302.977 49.9734C303.317 48.0671 304.534 47.7416 304.534 47.7416Z" fill="white" fill-opacity="0.3"/>
<path d="M326.042 49.5029H336.458" stroke="#304436" stroke-width="2" stroke-linecap="round"/>
<path d="M326.042 53.4H336.458" stroke="#304436" stroke-width="2" stroke-linecap="round"/>
<path d="M326.042 57.12H336.458" stroke="#304436" stroke-width="2" stroke-linecap="round"/>
<path d="M306.289 55.0793L304.006 52.8273C303.131 51.9638 303.238 50.5212 304.312 49.923C304.952 49.5665 305.66 49.2287 306.289 49.0564C308.047 48.5752 310.958 48.9038 310.958 48.9038" stroke="#304436" stroke-width="2" stroke-linecap="round" stroke-linejoin="round"/>
<path d="M311.137 56.4207L314.301 55.5844C315.482 55.2724 316.662 56.0658 316.653 57.2731C316.647 58.009 316.591 58.7978 316.425 59.4321C315.968 61.1745 314.224 63.4971 314.224 63.4971" stroke="#304436" stroke-width="2" stroke-linecap="round" stroke-linejoin="round"/>
<path d="M307.317 59.8687L306.469 62.99C306.153 64.1541 304.866 64.7658 303.811 64.1543C303.168 63.7816 302.503 63.3393 302.029 62.8801C300.728 61.6189 299.561 58.9677 299.561 58.9677" stroke="#304436" stroke-width="2" stroke-linecap="round" stroke-linejoin="round"/>
<g filter="url(#filter0_d_2274_4644)">
<rect x="95" y="292" width="98" height="20" fill="white" shape-rendering="crispEdges"/>
<rect x="95.5" y="292.5" width="97" height="19" stroke="#304436" shape-rendering="crispEdges"/>
<path d="M103.096 304.356V299.1H104.8V304.212C104.8 306.42 103.504 307.74 101.392 307.74C99.292 307.74 97.996 306.42 97.996 304.212V299.1H99.7V304.356C99.7 305.484 100.336 306.144 101.404 306.144C102.448 306.144 103.096 305.484 103.096 304.356ZM106.631 307.5V301.452H108.155V301.932C108.575 301.524 109.139 301.212 109.943 301.212C111.251 301.212 112.295 302.112 112.295 303.9V307.5H110.759V303.96C110.759 303.156 110.303 302.652 109.559 302.652C108.791 302.652 108.383 303.168 108.155 303.552V307.5H106.631ZM114.793 300.396C114.253 300.396 113.797 299.94 113.797 299.4C113.797 298.86 114.253 298.404 114.793 298.404C115.333 298.404 115.777 298.86 115.777 299.4C115.777 299.94 115.333 300.396 114.793 300.396ZM114.025 307.5V301.452H115.549V307.5H114.025ZM117.761 305.292V302.82H116.633V301.452H117.761V299.94H119.297V301.452H121.145V302.82H119.297V305.292C119.297 305.964 119.657 306.228 120.257 306.228C120.677 306.228 120.953 306.18 121.157 306.096V307.428C120.857 307.56 120.497 307.62 119.993 307.62C118.481 307.62 117.761 306.768 117.761 305.292ZM125.908 300.492H124.444L125.692 298.5H127.348L125.908 300.492ZM127.96 306.516C127.396 307.272 126.46 307.74 125.32 307.74C123.172 307.74 121.96 306.24 121.96 304.476C121.96 302.688 123.088 301.212 125.068 301.212C126.748 301.212 127.852 302.352 127.852 303.936C127.852 304.272 127.804 304.584 127.756 304.788H123.52C123.664 305.916 124.36 306.372 125.308 306.372C125.968 306.372 126.544 306.084 126.868 305.652L127.96 306.516ZM125.032 302.46C124.252 302.46 123.736 302.892 123.568 303.684H126.352C126.328 303.072 125.884 302.46 125.032 302.46ZM138.144 306.516C137.58 307.272 136.644 307.74 135.504 307.74C133.356 307.74 132.144 306.24 132.144 304.476C132.144 302.688 133.272 301.212 135.252 301.212C136.932 301.212 138.036 302.352 138.036 303.936C138.036 304.272 137.988 304.584 137.94 304.788H133.704C133.848 305.916 134.544 306.372 135.492 306.372C136.152 306.372 136.728 306.084 137.052 305.652L138.144 306.516ZM135.216 302.46C134.436 302.46 133.92 302.892 133.752 303.684H136.536C136.512 303.072 136.068 302.46 135.216 302.46ZM140.395 307.5H138.643L140.779 304.392L138.763 301.452H140.503L141.751 303.312L142.999 301.452H144.751L142.723 304.392L144.859 307.5H143.119L141.751 305.472L140.395 307.5ZM146.319 305.292V302.82H145.191V301.452H146.319V299.94H147.855V301.452H149.703V302.82H147.855V305.292C147.855 305.964 148.215 306.228 148.815 306.228C149.235 306.228 149.511 306.18 149.715 306.096V307.428C149.415 307.56 149.055 307.62 148.551 307.62C147.039 307.62 146.319 306.768 146.319 305.292ZM154.467 300.492H153.003L154.251 298.5H155.907L154.467 300.492ZM156.519 306.516C155.955 307.272 155.019 307.74 153.879 307.74C151.731 307.74 150.519 306.24 150.519 304.476C150.519 302.688 151.647 301.212 153.627 301.212C155.307 301.212 156.411 302.352 156.411 303.936C156.411 304.272 156.363 304.584 156.315 304.788H152.079C152.223 305.916 152.919 306.372 153.867 306.372C154.527 306.372 155.103 306.084 155.427 305.652L156.519 306.516ZM153.591 302.46C152.811 302.46 152.295 302.892 152.127 303.684H154.911C154.887 303.072 154.443 302.46 153.591 302.46ZM157.9 307.5V301.452H159.424V302.052C159.82 301.644 160.336 301.332 161.02 301.332C161.224 301.332 161.404 301.368 161.548 301.416V302.916C161.356 302.868 161.152 302.832 160.876 302.832C160.132 302.832 159.652 303.24 159.424 303.624V307.5H157.9ZM163.543 300.396C163.003 300.396 162.547 299.94 162.547 299.4C162.547 298.86 163.003 298.404 163.543 298.404C164.083 298.404 164.527 298.86 164.527 299.4C164.527 299.94 164.083 300.396 163.543 300.396ZM162.775 307.5V301.452H164.299V307.5H162.775ZM171.695 306.516C171.131 307.272 170.195 307.74 169.055 307.74C166.907 307.74 165.695 306.24 165.695 304.476C165.695 302.688 166.823 301.212 168.803 301.212C170.483 301.212 171.587 302.352 171.587 303.936C171.587 304.272 171.539 304.584 171.491 304.788H167.255C167.399 305.916 168.095 306.372 169.043 306.372C169.703 306.372 170.279 306.084 170.603 305.652L171.695 306.516ZM168.767 302.46C167.987 302.46 167.471 302.892 167.303 303.684H170.087C170.063 303.072 169.619 302.46 168.767 302.46ZM176.99 304.884V301.452H178.526V304.812C178.526 306.624 177.47 307.74 175.694 307.74C173.918 307.74 172.874 306.624 172.874 304.812V301.452H174.41V304.884C174.41 305.76 174.866 306.3 175.706 306.3C176.534 306.3 176.99 305.76 176.99 304.884ZM180.213 307.5V301.452H181.737V302.052C182.133 301.644 182.649 301.332 183.333 301.332C183.537 301.332 183.717 301.368 183.861 301.416V302.916C183.669 302.868 183.465 302.832 183.189 302.832C182.445 302.832 181.965 303.24 181.737 303.624V307.5H180.213ZM190.398 306.516C189.834 307.272 188.898 307.74 187.758 307.74C185.61 307.74 184.398 306.24 184.398 304.476C184.398 302.688 185.526 301.212 187.506 301.212C189.186 301.212 190.29 302.352 190.29 303.936C190.29 304.272 190.242 304.584 190.194 304.788H185.958C186.102 305.916 186.798 306.372 187.746 306.372C188.406 306.372 188.982 306.084 189.306 305.652L190.398 306.516ZM187.47 302.46C186.69 302.46 186.174 302.892 186.006 303.684H188.79C188.766 303.072 188.322 302.46 187.47 302.46Z" fill="#304436"/>
</g>
<g filter="url(#filter1_d_2274_4644)">
<rect x="271" y="310" width="96" height="20" fill="white" shape-rendering="crispEdges"/>
<rect x="271.5" y="310.5" width="95" height="19" stroke="#304436" shape-rendering="crispEdges"/>
<path d="M279.096 322.356V317.1H280.8V322.212C280.8 324.42 279.504 325.74 277.392 325.74C275.292 325.74 273.996 324.42 273.996 322.212V317.1H275.7V322.356C275.7 323.484 276.336 324.144 277.404 324.144C278.448 324.144 279.096 323.484 279.096 322.356ZM282.631 325.5V319.452H284.155V319.932C284.575 319.524 285.139 319.212 285.943 319.212C287.251 319.212 288.295 320.112 288.295 321.9V325.5H286.759V321.96C286.759 321.156 286.303 320.652 285.559 320.652C284.791 320.652 284.383 321.168 284.155 321.552V325.5H282.631ZM290.793 318.396C290.253 318.396 289.797 317.94 289.797 317.4C289.797 316.86 290.253 316.404 290.793 316.404C291.333 316.404 291.777 316.86 291.777 317.4C291.777 317.94 291.333 318.396 290.793 318.396ZM290.025 325.5V319.452H291.549V325.5H290.025ZM293.761 323.292V320.82H292.633V319.452H293.761V317.94H295.297V319.452H297.145V320.82H295.297V323.292C295.297 323.964 295.657 324.228 296.257 324.228C296.677 324.228 296.953 324.18 297.157 324.096V325.428C296.857 325.56 296.497 325.62 295.993 325.62C294.481 325.62 293.761 324.768 293.761 323.292ZM301.908 318.492H300.444L301.692 316.5H303.348L301.908 318.492ZM303.96 324.516C303.396 325.272 302.46 325.74 301.32 325.74C299.172 325.74 297.96 324.24 297.96 322.476C297.96 320.688 299.088 319.212 301.068 319.212C302.748 319.212 303.852 320.352 303.852 321.936C303.852 322.272 303.804 322.584 303.756 322.788H299.52C299.664 323.916 300.36 324.372 301.308 324.372C301.968 324.372 302.544 324.084 302.868 323.652L303.96 324.516ZM301.032 320.46C300.252 320.46 299.736 320.892 299.568 321.684H302.352C302.328 321.072 301.884 320.46 301.032 320.46ZM309.344 318.396C308.804 318.396 308.348 317.94 308.348 317.4C308.348 316.86 308.804 316.404 309.344 316.404C309.884 316.404 310.328 316.86 310.328 317.4C310.328 317.94 309.884 318.396 309.344 318.396ZM308.576 325.5V319.452H310.1V325.5H308.576ZM311.928 325.5V319.452H313.452V319.932C313.872 319.524 314.436 319.212 315.24 319.212C316.548 319.212 317.592 320.112 317.592 321.9V325.5H316.056V321.96C316.056 321.156 315.6 320.652 314.856 320.652C314.088 320.652 313.68 321.168 313.452 321.552V325.5H311.928ZM319.706 323.292V320.82H318.578V319.452H319.706V317.94H321.242V319.452H323.09V320.82H321.242V323.292C321.242 323.964 321.602 324.228 322.202 324.228C322.622 324.228 322.898 324.18 323.102 324.096V325.428C322.802 325.56 322.442 325.62 321.938 325.62C320.426 325.62 319.706 324.768 319.706 323.292ZM327.854 318.492H326.39L327.638 316.5H329.294L327.854 318.492ZM329.906 324.516C329.342 325.272 328.406 325.74 327.266 325.74C325.118 325.74 323.906 324.24 323.906 322.476C323.906 320.688 325.034 319.212 327.014 319.212C328.694 319.212 329.798 320.352 329.798 321.936C329.798 322.272 329.75 322.584 329.702 322.788H325.466C325.61 323.916 326.306 324.372 327.254 324.372C327.914 324.372 328.49 324.084 328.814 323.652L329.906 324.516ZM326.978 320.46C326.198 320.46 325.682 320.892 325.514 321.684H328.298C328.274 321.072 327.83 320.46 326.978 320.46ZM331.287 325.5V319.452H332.811V320.052C333.207 319.644 333.723 319.332 334.407 319.332C334.611 319.332 334.791 319.368 334.935 319.416V320.916C334.743 320.868 334.539 320.832 334.263 320.832C333.519 320.832 333.039 321.24 332.811 321.624V325.5H331.287ZM336.93 318.396C336.39 318.396 335.934 317.94 335.934 317.4C335.934 316.86 336.39 316.404 336.93 316.404C337.47 316.404 337.914 316.86 337.914 317.4C337.914 317.94 337.47 318.396 336.93 318.396ZM336.162 325.5V319.452H337.686V325.5H336.162ZM345.082 324.516C344.518 325.272 343.582 325.74 342.442 325.74C340.294 325.74 339.082 324.24 339.082 322.476C339.082 320.688 340.21 319.212 342.19 319.212C343.87 319.212 344.974 320.352 344.974 321.936C344.974 322.272 344.926 322.584 344.878 322.788H340.642C340.786 323.916 341.482 324.372 342.43 324.372C343.09 324.372 343.666 324.084 343.99 323.652L345.082 324.516ZM342.154 320.46C341.374 320.46 340.858 320.892 340.69 321.684H343.474C343.45 321.072 343.006 320.46 342.154 320.46ZM350.376 322.884V319.452H351.912V322.812C351.912 324.624 350.856 325.74 349.08 325.74C347.304 325.74 346.26 324.624 346.26 322.812V319.452H347.796V322.884C347.796 323.76 348.252 324.3 349.092 324.3C349.92 324.3 350.376 323.76 350.376 322.884ZM353.6 325.5V319.452H355.124V320.052C355.52 319.644 356.036 319.332 356.72 319.332C356.924 319.332 357.104 319.368 357.248 319.416V320.916C357.056 320.868 356.852 320.832 356.576 320.832C355.832 320.832 355.352 321.24 355.124 321.624V325.5H353.6ZM363.785 324.516C363.221 325.272 362.285 325.74 361.145 325.74C358.997 325.74 357.785 324.24 357.785 322.476C357.785 320.688 358.913 319.212 360.893 319.212C362.573 319.212 363.677 320.352 363.677 321.936C363.677 322.272 363.629 322.584 363.581 322.788H359.345C359.489 323.916 360.185 324.372 361.133 324.372C361.793 324.372 362.369 324.084 362.693 323.652L363.785 324.516ZM360.857 320.46C360.077 320.46 359.561 320.892 359.393 321.684H362.177C362.153 321.072 361.709 320.46 360.857 320.46Z" fill="#304436"/>
</g>
<g filter="url(#filter2_d_2274_4644)">
<rect x="107" y="223" width="22" height="20" fill="white" shape-rendering="crispEdges"/>
<rect x="107.5" y="223.5" width="21" height="19" stroke="#304436" shape-rendering="crispEdges"/>
<path d="M109.18 238.5L112.36 230.1H114.592L117.772 238.5H115.96L115.156 236.316H111.796L110.992 238.5H109.18ZM112.324 234.864H114.628L113.476 231.708L112.324 234.864ZM119.996 231.396C119.456 231.396 119 230.94 119 230.4C119 229.86 119.456 229.404 119.996 229.404C120.536 229.404 120.98 229.86 120.98 230.4C120.98 230.94 120.536 231.396 119.996 231.396ZM119.228 238.5V232.452H120.752V238.5H119.228ZM122.58 238.5V232.452H124.104V233.052C124.5 232.644 125.016 232.332 125.7 232.332C125.904 232.332 126.084 232.368 126.228 232.416V233.916C126.036 233.868 125.832 233.832 125.556 233.832C124.812 233.832 124.332 234.24 124.104 234.624V238.5H122.58Z" fill="#304436"/>
</g>
<path fill-rule="evenodd" clip-rule="evenodd" d="M282.297 218.537V221.965C282.297 221.742 282.485 221.561 282.717 221.561H285.24C285.473 221.561 285.661 221.742 285.661 221.965V218.537C285.661 218.76 285.473 218.94 285.24 218.94H282.717C282.485 218.94 282.297 218.76 282.297 218.537Z" fill="white"/>
<path d="M285.661 234.264V221.965C285.661 221.742 285.473 221.561 285.24 221.561H282.717C282.485 221.561 282.297 221.742 282.297 221.965V234.264C282.297 234.487 282.485 234.668 282.717 234.668H285.24C285.473 234.668 285.661 234.487 285.661 234.264Z" fill="white"/>
<path d="M285.24 216.319H282.717C282.485 216.319 282.297 216.499 282.297 216.722V218.537C282.297 218.76 282.485 218.94 282.717 218.94H285.24C285.473 218.94 285.661 218.76 285.661 218.537V216.722C285.661 216.499 285.473 216.319 285.24 216.319Z" fill="white"/>
<path fill-rule="evenodd" clip-rule="evenodd" d="M285.578 218.537V221.965C285.578 221.742 285.766 221.561 285.999 221.561H288.522C288.754 221.561 288.942 221.742 288.942 221.965V218.537C288.942 218.76 288.754 218.94 288.522 218.94H285.999C285.766 218.94 285.578 218.76 285.578 218.537Z" fill="white"/>
<path d="M288.942 234.264V221.965C288.942 221.742 288.754 221.561 288.522 221.561H285.999C285.766 221.561 285.578 221.742 285.578 221.965V234.264C285.578 234.487 285.766 234.668 285.999 234.668H288.522C288.754 234.668 288.942 234.487 288.942 234.264Z" fill="white"/>
<path d="M288.522 216.319H285.999C285.766 216.319 285.578 216.499 285.578 216.722V218.537C285.578 218.76 285.766 218.94 285.999 218.94H288.522C288.754 218.94 288.942 218.76 288.942 218.537V216.722C288.942 216.499 288.754 216.319 288.522 216.319Z" fill="white"/>
<path fill-rule="evenodd" clip-rule="evenodd" d="M288.859 218.53V221.958C288.859 221.736 289.048 221.555 289.28 221.555H291.803C292.035 221.555 292.223 221.736 292.223 221.958V218.53C292.223 218.753 292.035 218.934 291.803 218.934H289.28C289.048 218.934 288.859 218.753 288.859 218.53Z" fill="white"/>
<path d="M292.223 234.258V221.958C292.223 221.736 292.035 221.555 291.803 221.555H289.28C289.048 221.555 288.859 221.736 288.859 221.958V234.258C288.859 234.481 289.048 234.661 289.28 234.661H291.803C292.035 234.661 292.223 234.481 292.223 234.258Z" fill="white"/>
<path d="M291.803 216.312H289.28C289.048 216.312 288.859 216.493 288.859 216.716V218.53C288.859 218.753 289.048 218.934 289.28 218.934H291.803C292.035 218.934 292.223 218.753 292.223 218.53V216.716C292.223 216.493 292.035 216.312 291.803 216.312Z" fill="white"/>
<path fill-rule="evenodd" clip-rule="evenodd" d="M292.469 218.53V221.958C292.469 221.736 292.657 221.555 292.889 221.555H295.412C295.644 221.555 295.833 221.736 295.833 221.958V218.53C295.833 218.753 295.644 218.934 295.412 218.934H292.889C292.657 218.934 292.469 218.753 292.469 218.53Z" fill="white"/>
<path d="M295.833 234.258V221.958C295.833 221.736 295.644 221.555 295.412 221.555H292.889C292.657 221.555 292.469 221.736 292.469 221.958V234.258C292.469 234.481 292.657 234.661 292.889 234.661H295.412C295.644 234.661 295.833 234.481 295.833 234.258Z" fill="white"/>
<path d="M295.412 216.312H292.889C292.657 216.312 292.469 216.493 292.469 216.716V218.53C292.469 218.753 292.657 218.934 292.889 218.934H295.412C295.644 218.934 295.833 218.753 295.833 218.53V216.716C295.833 216.493 295.644 216.312 295.412 216.312Z" fill="white"/>
<path fill-rule="evenodd" clip-rule="evenodd" d="M295.75 218.53V221.958C295.75 221.736 295.938 221.555 296.17 221.555H298.693C298.926 221.555 299.114 221.736 299.114 221.958V218.53C299.114 218.753 298.926 218.934 298.693 218.934H296.17C295.938 218.934 295.75 218.753 295.75 218.53Z" fill="white"/>
<path d="M299.114 234.258V221.958C299.114 221.736 298.926 221.555 298.693 221.555H296.17C295.938 221.555 295.75 221.736 295.75 221.958V234.258C295.75 234.481 295.938 234.661 296.17 234.661H298.693C298.926 234.661 299.114 234.481 299.114 234.258Z" fill="white"/>
<path d="M298.693 216.312H296.17C295.938 216.312 295.75 216.493 295.75 216.716V218.53C295.75 218.753 295.938 218.934 296.17 218.934H298.693C298.926 218.934 299.114 218.753 299.114 218.53V216.716C299.114 216.493 298.926 216.312 298.693 216.312Z" fill="white"/>
<path d="M285.427 218.532V216.716C285.427 216.413 284.944 216.312 284.72 216.312V234.674C284.944 234.674 285.427 234.674 285.427 234.27V221.962V218.532Z" fill="#565656" fill-opacity="0.3"/>
<path fill-rule="evenodd" clip-rule="evenodd" d="M282.213 218.537V221.965C282.213 221.742 282.402 221.561 282.634 221.561H285.157C285.389 221.561 285.577 221.742 285.577 221.965V218.537C285.577 218.76 285.389 218.94 285.157 218.94H282.634C282.402 218.94 282.213 218.76 282.213 218.537Z" fill="#565656" fill-opacity="0.3"/>
<path d="M282.213 234.264V216.722M282.213 234.264C282.213 234.487 282.402 234.668 282.634 234.668H285.157C285.389 234.668 285.577 234.487 285.577 234.264M282.213 234.264V221.965M285.577 234.264V216.722M285.577 234.264V221.965M285.577 216.722C285.577 216.499 285.389 216.319 285.157 216.319H282.634C282.402 216.319 282.213 216.499 282.213 216.722M285.577 216.722V218.537M285.577 216.722V221.965M282.213 216.722V218.537M282.213 216.722V221.965M282.213 218.537C282.213 218.76 282.402 218.94 282.634 218.94H285.157C285.389 218.94 285.577 218.76 285.577 218.537M282.213 218.537V221.965M285.577 218.537V221.965M285.577 221.965C285.577 221.742 285.389 221.561 285.157 221.561H282.634C282.402 221.561 282.213 221.742 282.213 221.965" stroke="#304436"/>
<path d="M288.791 218.532V216.716C288.791 216.413 288.308 216.312 288.084 216.312V234.674C288.308 234.674 288.791 234.674 288.791 234.27V221.962V218.532Z" fill="#565656" fill-opacity="0.3"/>
<path fill-rule="evenodd" clip-rule="evenodd" d="M285.577 218.537V221.965C285.577 221.742 285.766 221.561 285.998 221.561H288.521C288.753 221.561 288.941 221.742 288.941 221.965V218.537C288.941 218.76 288.753 218.94 288.521 218.94H285.998C285.766 218.94 285.577 218.76 285.577 218.537Z" fill="#565656" fill-opacity="0.3"/>
<path d="M285.577 234.264V216.722M285.577 234.264C285.577 234.487 285.766 234.668 285.998 234.668H288.521C288.753 234.668 288.941 234.487 288.941 234.264M285.577 234.264V221.965M288.941 234.264V216.722M288.941 234.264V221.965M288.941 216.722C288.941 216.499 288.753 216.319 288.521 216.319H285.998C285.766 216.319 285.577 216.499 285.577 216.722M288.941 216.722V218.537M288.941 216.722V221.965M285.577 216.722V218.537M285.577 216.722V221.965M285.577 218.537C285.577 218.76 285.766 218.94 285.998 218.94H288.521C288.753 218.94 288.941 218.76 288.941 218.537M285.577 218.537V221.965M288.941 218.537V221.965M288.941 221.965C288.941 221.742 288.753 221.561 288.521 221.561H285.998C285.766 221.561 285.577 221.742 285.577 221.965" stroke="#304436"/>
<path d="M292.155 218.532V216.716C292.155 216.413 291.672 216.312 291.448 216.312V234.674C291.672 234.674 292.155 234.674 292.155 234.27V221.962V218.532Z" fill="#565656" fill-opacity="0.3"/>
<path fill-rule="evenodd" clip-rule="evenodd" d="M288.941 218.537V221.965C288.941 221.742 289.13 221.561 289.362 221.561H291.885C292.117 221.561 292.305 221.742 292.305 221.965V218.537C292.305 218.76 292.117 218.94 291.885 218.94H289.362C289.13 218.94 288.941 218.76 288.941 218.537Z" fill="#565656" fill-opacity="0.3"/>
<path d="M288.941 234.264V216.722M288.941 234.264C288.941 234.487 289.13 234.668 289.362 234.668H291.885C292.117 234.668 292.305 234.487 292.305 234.264M288.941 234.264V221.965M292.305 234.264V216.722M292.305 234.264V221.965M292.305 216.722C292.305 216.499 292.117 216.319 291.885 216.319H289.362C289.13 216.319 288.941 216.499 288.941 216.722M292.305 216.722V218.537M292.305 216.722V221.965M288.941 216.722V218.537M288.941 216.722V221.965M288.941 218.537C288.941 218.76 289.13 218.94 289.362 218.94H291.885C292.117 218.94 292.305 218.76 292.305 218.537M288.941 218.537V221.965M292.305 218.537V221.965M292.305 221.965C292.305 221.742 292.117 221.561 291.885 221.561H289.362C289.13 221.561 288.941 221.742 288.941 221.965" stroke="#304436"/>
<path d="M295.519 218.532V216.716C295.519 216.413 295.035 216.312 294.812 216.312V234.674C295.035 234.674 295.519 234.674 295.519 234.27V221.962V218.532Z" fill="#565656" fill-opacity="0.3"/>
<path fill-rule="evenodd" clip-rule="evenodd" d="M292.305 218.537V221.965C292.305 221.742 292.493 221.561 292.726 221.561H295.249C295.481 221.561 295.669 221.742 295.669 221.965V218.537C295.669 218.76 295.481 218.94 295.249 218.94H292.726C292.493 218.94 292.305 218.76 292.305 218.537Z" fill="#565656" fill-opacity="0.3"/>
<path d="M292.305 234.264V216.722M292.305 234.264C292.305 234.487 292.493 234.668 292.726 234.668H295.249C295.481 234.668 295.669 234.487 295.669 234.264M292.305 234.264V221.965M295.669 234.264V216.722M295.669 234.264V221.965M295.669 216.722C295.669 216.499 295.481 216.319 295.249 216.319H292.726C292.493 216.319 292.305 216.499 292.305 216.722M295.669 216.722V218.537M295.669 216.722V221.965M292.305 216.722V218.537M292.305 216.722V221.965M292.305 218.537C292.305 218.76 292.493 218.94 292.726 218.94H295.249C295.481 218.94 295.669 218.76 295.669 218.537M292.305 218.537V221.965M295.669 218.537V221.965M295.669 221.965C295.669 221.742 295.481 221.561 295.249 221.561H292.726C292.493 221.561 292.305 221.742 292.305 221.965" stroke="#304436"/>
<path d="M298.883 218.532V216.716C298.883 216.413 298.399 216.312 298.176 216.312V234.674C298.399 234.674 298.883 234.674 298.883 234.27V221.962V218.532Z" fill="#565656" fill-opacity="0.3"/>
<path fill-rule="evenodd" clip-rule="evenodd" d="M295.669 218.537V221.965C295.669 221.742 295.857 221.561 296.09 221.561H298.613C298.845 221.561 299.033 221.742 299.033 221.965V218.537C299.033 218.76 298.845 218.94 298.613 218.94H296.09C295.857 218.94 295.669 218.76 295.669 218.537Z" fill="#565656" fill-opacity="0.3"/>
<path d="M295.669 234.264V216.722M295.669 234.264C295.669 234.487 295.857 234.668 296.09 234.668H298.613C298.845 234.668 299.033 234.487 299.033 234.264M295.669 234.264V221.965M299.033 234.264V216.722M299.033 234.264V221.965M299.033 216.722C299.033 216.499 298.845 216.319 298.613 216.319H296.09C295.857 216.319 295.669 216.499 295.669 216.722M299.033 216.722V218.537M299.033 216.722V221.965M295.669 216.722V218.537M295.669 216.722V221.965M295.669 218.537C295.669 218.76 295.857 218.94 296.09 218.94H298.613C298.845 218.94 299.033 218.76 299.033 218.537M295.669 218.537V221.965M299.033 218.537V221.965M299.033 221.965C299.033 221.742 298.845 221.561 298.613 221.561H296.09C295.857 221.561 295.669 221.742 295.669 221.965" stroke="#304436"/>
<path d="M282.196 218.324L281.691 218.324C281.301 218.324 280.984 218.008 280.984 217.618C280.984 217.228 281.301 216.912 281.691 216.912L282.196 216.912L282.196 218.324Z" stroke="#304436"/>
<path d="M282.213 218.453L281.755 218.453C281.332 218.453 280.99 218.111 280.99 217.689C280.99 217.266 281.332 216.924 281.755 216.924L282.213 216.924L282.213 218.453Z" fill="white" stroke="#304436"/>
<path d="M299.033 216.924H299.492C299.914 216.924 300.256 217.266 300.256 217.689C300.256 218.111 299.914 218.453 299.492 218.453H299.033L299.033 216.924Z" fill="white" stroke="#304436"/>
<path fill-rule="evenodd" clip-rule="evenodd" d="M282.297 133.537V136.965C282.297 136.742 282.485 136.561 282.717 136.561H285.24C285.473 136.561 285.661 136.742 285.661 136.965V133.537C285.661 133.76 285.473 133.94 285.24 133.94H282.717C282.485 133.94 282.297 133.76 282.297 133.537Z" fill="white"/>
<path d="M285.661 149.264V136.965C285.661 136.742 285.473 136.561 285.24 136.561H282.717C282.485 136.561 282.297 136.742 282.297 136.965V149.264C282.297 149.487 282.485 149.668 282.717 149.668H285.24C285.473 149.668 285.661 149.487 285.661 149.264Z" fill="white"/>
<path d="M285.24 131.319H282.717C282.485 131.319 282.297 131.499 282.297 131.722V133.537C282.297 133.76 282.485 133.94 282.717 133.94H285.24C285.473 133.94 285.661 133.76 285.661 133.537V131.722C285.661 131.499 285.473 131.319 285.24 131.319Z" fill="white"/>
<path fill-rule="evenodd" clip-rule="evenodd" d="M285.578 133.537V136.965C285.578 136.742 285.766 136.561 285.999 136.561H288.522C288.754 136.561 288.942 136.742 288.942 136.965V133.537C288.942 133.76 288.754 133.94 288.522 133.94H285.999C285.766 133.94 285.578 133.76 285.578 133.537Z" fill="white"/>
<path d="M288.942 149.264V136.965C288.942 136.742 288.754 136.561 288.522 136.561H285.999C285.766 136.561 285.578 136.742 285.578 136.965V149.264C285.578 149.487 285.766 149.668 285.999 149.668H288.522C288.754 149.668 288.942 149.487 288.942 149.264Z" fill="white"/>
<path d="M288.522 131.319H285.999C285.766 131.319 285.578 131.499 285.578 131.722V133.537C285.578 133.76 285.766 133.94 285.999 133.94H288.522C288.754 133.94 288.942 133.76 288.942 133.537V131.722C288.942 131.499 288.754 131.319 288.522 131.319Z" fill="white"/>
<path fill-rule="evenodd" clip-rule="evenodd" d="M288.859 133.53V136.958C288.859 136.736 289.048 136.555 289.28 136.555H291.803C292.035 136.555 292.223 136.736 292.223 136.958V133.53C292.223 133.753 292.035 133.934 291.803 133.934H289.28C289.048 133.934 288.859 133.753 288.859 133.53Z" fill="white"/>
<path d="M292.223 149.258V136.958C292.223 136.736 292.035 136.555 291.803 136.555H289.28C289.048 136.555 288.859 136.736 288.859 136.958V149.258C288.859 149.481 289.048 149.661 289.28 149.661H291.803C292.035 149.661 292.223 149.481 292.223 149.258Z" fill="white"/>
<path d="M291.803 131.312H289.28C289.048 131.312 288.859 131.493 288.859 131.716V133.53C288.859 133.753 289.048 133.934 289.28 133.934H291.803C292.035 133.934 292.223 133.753 292.223 133.53V131.716C292.223 131.493 292.035 131.312 291.803 131.312Z" fill="white"/>
<path fill-rule="evenodd" clip-rule="evenodd" d="M292.469 133.53V136.958C292.469 136.736 292.657 136.555 292.889 136.555H295.412C295.644 136.555 295.833 136.736 295.833 136.958V133.53C295.833 133.753 295.644 133.934 295.412 133.934H292.889C292.657 133.934 292.469 133.753 292.469 133.53Z" fill="white"/>
<path d="M295.833 149.258V136.958C295.833 136.736 295.644 136.555 295.412 136.555H292.889C292.657 136.555 292.469 136.736 292.469 136.958V149.258C292.469 149.481 292.657 149.661 292.889 149.661H295.412C295.644 149.661 295.833 149.481 295.833 149.258Z" fill="white"/>
<path d="M295.412 131.312H292.889C292.657 131.312 292.469 131.493 292.469 131.716V133.53C292.469 133.753 292.657 133.934 292.889 133.934H295.412C295.644 133.934 295.833 133.753 295.833 133.53V131.716C295.833 131.493 295.644 131.312 295.412 131.312Z" fill="white"/>
<path fill-rule="evenodd" clip-rule="evenodd" d="M295.75 133.53V136.958C295.75 136.736 295.938 136.555 296.17 136.555H298.693C298.926 136.555 299.114 136.736 299.114 136.958V133.53C299.114 133.753 298.926 133.934 298.693 133.934H296.17C295.938 133.934 295.75 133.753 295.75 133.53Z" fill="white"/>
<path d="M299.114 149.258V136.958C299.114 136.736 298.926 136.555 298.693 136.555H296.17C295.938 136.555 295.75 136.736 295.75 136.958V149.258C295.75 149.481 295.938 149.661 296.17 149.661H298.693C298.926 149.661 299.114 149.481 299.114 149.258Z" fill="white"/>
<path d="M298.693 131.312H296.17C295.938 131.312 295.75 131.493 295.75 131.716V133.53C295.75 133.753 295.938 133.934 296.17 133.934H298.693C298.926 133.934 299.114 133.753 299.114 133.53V131.716C299.114 131.493 298.926 131.312 298.693 131.312Z" fill="white"/>
<path d="M285.427 133.532V131.716C285.427 131.413 284.944 131.312 284.72 131.312V149.674C284.944 149.674 285.427 149.674 285.427 149.27V136.962V133.532Z" fill="#565656" fill-opacity="0.3"/>
<path fill-rule="evenodd" clip-rule="evenodd" d="M282.213 133.537V136.965C282.213 136.742 282.402 136.561 282.634 136.561H285.157C285.389 136.561 285.577 136.742 285.577 136.965V133.537C285.577 133.76 285.389 133.94 285.157 133.94H282.634C282.402 133.94 282.213 133.76 282.213 133.537Z" fill="#565656" fill-opacity="0.3"/>
<path d="M282.213 149.264V131.722M282.213 149.264C282.213 149.487 282.402 149.668 282.634 149.668H285.157C285.389 149.668 285.577 149.487 285.577 149.264M282.213 149.264V136.965M285.577 149.264V131.722M285.577 149.264V136.965M285.577 131.722C285.577 131.499 285.389 131.319 285.157 131.319H282.634C282.402 131.319 282.213 131.499 282.213 131.722M285.577 131.722V133.537M285.577 131.722V136.965M282.213 131.722V133.537M282.213 131.722V136.965M282.213 133.537C282.213 133.76 282.402 133.94 282.634 133.94H285.157C285.389 133.94 285.577 133.76 285.577 133.537M282.213 133.537V136.965M285.577 133.537V136.965M285.577 136.965C285.577 136.742 285.389 136.561 285.157 136.561H282.634C282.402 136.561 282.213 136.742 282.213 136.965" stroke="#304436"/>
<path d="M288.791 133.532V131.716C288.791 131.413 288.308 131.312 288.084 131.312V149.674C288.308 149.674 288.791 149.674 288.791 149.27V136.962V133.532Z" fill="#565656" fill-opacity="0.3"/>
<path fill-rule="evenodd" clip-rule="evenodd" d="M285.577 133.537V136.965C285.577 136.742 285.766 136.561 285.998 136.561H288.521C288.753 136.561 288.941 136.742 288.941 136.965V133.537C288.941 133.76 288.753 133.94 288.521 133.94H285.998C285.766 133.94 285.577 133.76 285.577 133.537Z" fill="#565656" fill-opacity="0.3"/>
<path d="M285.577 149.264V131.722M285.577 149.264C285.577 149.487 285.766 149.668 285.998 149.668H288.521C288.753 149.668 288.941 149.487 288.941 149.264M285.577 149.264V136.965M288.941 149.264V131.722M288.941 149.264V136.965M288.941 131.722C288.941 131.499 288.753 131.319 288.521 131.319H285.998C285.766 131.319 285.577 131.499 285.577 131.722M288.941 131.722V133.537M288.941 131.722V136.965M285.577 131.722V133.537M285.577 131.722V136.965M285.577 133.537C285.577 133.76 285.766 133.94 285.998 133.94H288.521C288.753 133.94 288.941 133.76 288.941 133.537M285.577 133.537V136.965M288.941 133.537V136.965M288.941 136.965C288.941 136.742 288.753 136.561 288.521 136.561H285.998C285.766 136.561 285.577 136.742 285.577 136.965" stroke="#304436"/>
<path d="M292.155 133.532V131.716C292.155 131.413 291.672 131.312 291.448 131.312V149.674C291.672 149.674 292.155 149.674 292.155 149.27V136.962V133.532Z" fill="#565656" fill-opacity="0.3"/>
<path fill-rule="evenodd" clip-rule="evenodd" d="M288.941 133.537V136.965C288.941 136.742 289.13 136.561 289.362 136.561H291.885C292.117 136.561 292.305 136.742 292.305 136.965V133.537C292.305 133.76 292.117 133.94 291.885 133.94H289.362C289.13 133.94 288.941 133.76 288.941 133.537Z" fill="#565656" fill-opacity="0.3"/>
<path d="M288.941 149.264V131.722M288.941 149.264C288.941 149.487 289.13 149.668 289.362 149.668H291.885C292.117 149.668 292.305 149.487 292.305 149.264M288.941 149.264V136.965M292.305 149.264V131.722M292.305 149.264V136.965M292.305 131.722C292.305 131.499 292.117 131.319 291.885 131.319H289.362C289.13 131.319 288.941 131.499 288.941 131.722M292.305 131.722V133.537M292.305 131.722V136.965M288.941 131.722V133.537M288.941 131.722V136.965M288.941 133.537C288.941 133.76 289.13 133.94 289.362 133.94H291.885C292.117 133.94 292.305 133.76 292.305 133.537M288.941 133.537V136.965M292.305 133.537V136.965M292.305 136.965C292.305 136.742 292.117 136.561 291.885 136.561H289.362C289.13 136.561 288.941 136.742 288.941 136.965" stroke="#304436"/>
<path d="M295.519 133.532V131.716C295.519 131.413 295.035 131.312 294.812 131.312V149.674C295.035 149.674 295.519 149.674 295.519 149.27V136.962V133.532Z" fill="#565656" fill-opacity="0.3"/>
<path fill-rule="evenodd" clip-rule="evenodd" d="M292.305 133.537V136.965C292.305 136.742 292.493 136.561 292.726 136.561H295.249C295.481 136.561 295.669 136.742 295.669 136.965V133.537C295.669 133.76 295.481 133.94 295.249 133.94H292.726C292.493 133.94 292.305 133.76 292.305 133.537Z" fill="#565656" fill-opacity="0.3"/>
<path d="M292.305 149.264V131.722M292.305 149.264C292.305 149.487 292.493 149.668 292.726 149.668H295.249C295.481 149.668 295.669 149.487 295.669 149.264M292.305 149.264V136.965M295.669 149.264V131.722M295.669 149.264V136.965M295.669 131.722C295.669 131.499 295.481 131.319 295.249 131.319H292.726C292.493 131.319 292.305 131.499 292.305 131.722M295.669 131.722V133.537M295.669 131.722V136.965M292.305 131.722V133.537M292.305 131.722V136.965M292.305 133.537C292.305 133.76 292.493 133.94 292.726 133.94H295.249C295.481 133.94 295.669 133.76 295.669 133.537M292.305 133.537V136.965M295.669 133.537V136.965M295.669 136.965C295.669 136.742 295.481 136.561 295.249 136.561H292.726C292.493 136.561 292.305 136.742 292.305 136.965" stroke="#304436"/>
<path d="M298.883 133.532V131.716C298.883 131.413 298.399 131.312 298.176 131.312V149.674C298.399 149.674 298.883 149.674 298.883 149.27V136.962V133.532Z" fill="#565656" fill-opacity="0.3"/>
<path fill-rule="evenodd" clip-rule="evenodd" d="M295.669 133.537V136.965C295.669 136.742 295.857 136.561 296.09 136.561H298.613C298.845 136.561 299.033 136.742 299.033 136.965V133.537C299.033 133.76 298.845 133.94 298.613 133.94H296.09C295.857 133.94 295.669 133.76 295.669 133.537Z" fill="#565656" fill-opacity="0.3"/>
<path d="M295.669 149.264V131.722M295.669 149.264C295.669 149.487 295.857 149.668 296.09 149.668H298.613C298.845 149.668 299.033 149.487 299.033 149.264M295.669 149.264V136.965M299.033 149.264V131.722M299.033 149.264V136.965M299.033 131.722C299.033 131.499 298.845 131.319 298.613 131.319H296.09C295.857 131.319 295.669 131.499 295.669 131.722M299.033 131.722V133.537M299.033 131.722V136.965M295.669 131.722V133.537M295.669 131.722V136.965M295.669 133.537C295.669 133.76 295.857 133.94 296.09 133.94H298.613C298.845 133.94 299.033 133.76 299.033 133.537M295.669 133.537V136.965M299.033 133.537V136.965M299.033 136.965C299.033 136.742 298.845 136.561 298.613 136.561H296.09C295.857 136.561 295.669 136.742 295.669 136.965" stroke="#304436"/>
<path d="M282.196 133.324L281.691 133.324C281.301 133.324 280.984 133.008 280.984 132.618C280.984 132.228 281.301 131.912 281.691 131.912L282.196 131.912L282.196 133.324Z" stroke="#304436"/>
<path d="M282.213 133.453L281.755 133.453C281.332 133.453 280.99 133.111 280.99 132.689C280.99 132.266 281.332 131.924 281.755 131.924L282.213 131.924L282.213 133.453Z" fill="white" stroke="#304436"/>
<path d="M299.033 131.924H299.492C299.914 131.924 300.256 132.266 300.256 132.689C300.256 133.111 299.914 133.453 299.492 133.453H299.033L299.033 131.924Z" fill="white" stroke="#304436"/>
<path d="M209.912 299V290H211.436V299H209.912ZM216.144 292.712C218.112 292.712 219.456 294.164 219.456 295.976C219.456 297.788 218.112 299.24 216.144 299.24C214.176 299.24 212.832 297.788 212.832 295.976C212.832 294.164 214.176 292.712 216.144 292.712ZM216.168 297.8C217.14 297.8 217.872 297.02 217.872 295.976C217.872 294.92 217.14 294.152 216.168 294.152C215.16 294.152 214.416 294.92 214.416 295.976C214.416 297.032 215.16 297.8 216.168 297.8ZM223.808 297.8C224.408 297.8 224.888 297.524 225.176 297.104L226.364 298.016C225.8 298.76 224.912 299.24 223.808 299.24C221.72 299.24 220.472 297.74 220.472 295.976C220.472 294.212 221.72 292.712 223.808 292.712C224.912 292.712 225.8 293.192 226.364 293.936L225.176 294.848C224.888 294.428 224.408 294.152 223.784 294.152C222.788 294.152 222.056 294.92 222.056 295.976C222.056 297.044 222.788 297.8 223.808 297.8ZM229.1 299.18C227.888 299.18 227.06 298.484 227.06 297.368C227.06 296.456 227.768 295.772 229.064 295.556L230.912 295.244V295.088C230.912 294.452 230.432 294.044 229.736 294.044C229.148 294.044 228.692 294.32 228.368 294.764L227.252 293.912C227.792 293.168 228.68 292.712 229.784 292.712C231.536 292.712 232.436 293.756 232.436 295.088V299H230.912V298.412C230.528 298.88 229.808 299.18 229.1 299.18ZM228.572 297.296C228.572 297.704 228.896 297.968 229.412 297.968C230.108 297.968 230.612 297.644 230.912 297.164V296.312L229.472 296.552C228.836 296.66 228.572 296.924 228.572 297.296ZM234.182 299V290H235.706V299H234.182Z" fill="#535F57"/>
<path d="M235 19H401C409.837 19 417 26.1634 417 35V71H235V19Z" fill="#CCC4C4"/>
<path d="M328.062 47.5935C328.062 45.6877 329.676 44.1428 331.667 44.1428H370.411C372.401 44.1428 374.015 45.6877 374.015 47.5935V67.435C374.015 69.3408 372.401 70.8857 370.411 70.8857H331.667C329.676 70.8857 328.062 69.3408 328.062 67.435V47.5935Z" fill="white" stroke="#304436" stroke-dasharray="2 2"/>
<path d="M337.856 49.3428C336.657 50.1431 336.224 52.3871 337.012 53.7707C337.365 54.2576 337.727 54.5428 337.727 54.5428C337.425 54.3454 337.188 54.0795 337.012 53.7707C336.61 53.2155 336.219 52.3982 336.39 51.4426C336.711 49.6491 337.856 49.3428 337.856 49.3428Z" fill="white" fill-opacity="0.3"/>
<path d="M358.099 51H367.901" stroke="#304436" stroke-linecap="round" stroke-dasharray="2 2"/>
<path d="M358.099 54.6667H367.901" stroke="#304436" stroke-linecap="round" stroke-dasharray="2 2"/>
<path d="M358.099 58.1667C361.927 58.1667 364.073 58.1667 367.901 58.1667" stroke="#304436" stroke-linecap="round" stroke-dasharray="2 2"/>
<path d="M339.507 56.2466L337.457 54.2254C336.582 53.3618 336.688 51.9166 337.768 51.3283C338.338 51.018 338.954 50.7312 339.507 50.5799C341.162 50.1272 343.901 50.4363 343.901 50.4363" stroke="#304436" stroke-linecap="round" stroke-linejoin="round" stroke-dasharray="3 7"/>
<path d="M344.07 57.5088L346.917 56.7566C348.097 56.4447 349.28 57.2381 349.26 58.4451C349.249 59.0981 349.193 59.7837 349.047 60.3421C348.617 61.9814 346.976 64.1667 346.976 64.1667" stroke="#304436" stroke-linecap="round" stroke-linejoin="round" stroke-dasharray="3 7"/>
<path d="M340.475 60.7528L339.712 63.56C339.396 64.7238 338.108 65.337 337.058 64.7164C336.49 64.3807 335.916 63.9903 335.498 63.5861C334.273 62.3995 333.175 59.9051 333.175 59.9051" stroke="#304436" stroke-linecap="round" stroke-linejoin="round" stroke-dasharray="3 7"/>
<path d="M203 86.7959V306H266.827C266.827 306 248.362 289.399 243.403 274.538C233.842 245.887 269.778 241.04 266.827 216.495C264.836 199.937 251.765 194.999 248.446 178.694C245.758 165.489 250.278 157.109 248.407 144.061C246.495 130.727 241.075 119.959 235.935 109.748C233.315 104.545 228.396 91.976 226.424 86.7959C225.574 83.3255 225.065 79.751 225.034 76H203V86.7959Z" fill="url(#pattern0_2274_4644)" stroke="#304436" stroke-width="2"/>
<path d="M211.912 298V289H213.436V298H211.912ZM218.144 291.712C220.112 291.712 221.456 293.164 221.456 294.976C221.456 296.788 220.112 298.24 218.144 298.24C216.176 298.24 214.832 296.788 214.832 294.976C214.832 293.164 216.176 291.712 218.144 291.712ZM218.168 296.8C219.14 296.8 219.872 296.02 219.872 294.976C219.872 293.92 219.14 293.152 218.168 293.152C217.16 293.152 216.416 293.92 216.416 294.976C216.416 296.032 217.16 296.8 218.168 296.8ZM225.808 296.8C226.408 296.8 226.888 296.524 227.176 296.104L228.364 297.016C227.8 297.76 226.912 298.24 225.808 298.24C223.72 298.24 222.472 296.74 222.472 294.976C222.472 293.212 223.72 291.712 225.808 291.712C226.912 291.712 227.8 292.192 228.364 292.936L227.176 293.848C226.888 293.428 226.408 293.152 225.784 293.152C224.788 293.152 224.056 293.92 224.056 294.976C224.056 296.044 224.788 296.8 225.808 296.8ZM231.1 298.18C229.888 298.18 229.06 297.484 229.06 296.368C229.06 295.456 229.768 294.772 231.064 294.556L232.912 294.244V294.088C232.912 293.452 232.432 293.044 231.736 293.044C231.148 293.044 230.692 293.32 230.368 293.764L229.252 292.912C229.792 292.168 230.68 291.712 231.784 291.712C233.536 291.712 234.436 292.756 234.436 294.088V298H232.912V297.412C232.528 297.88 231.808 298.18 231.1 298.18ZM230.572 296.296C230.572 296.704 230.896 296.968 231.412 296.968C232.108 296.968 232.612 296.644 232.912 296.164V295.312L231.472 295.552C230.836 295.66 230.572 295.924 230.572 296.296ZM236.182 298V289H237.706V298H236.182Z" fill="#535F57"/>
<path d="M202.965 157.906H197.359V151H202.965H207.709H217.628H227.413H238.194H248.185V157.906H238.194H227.413H217.628H207.709H202.965Z" fill="#E2D2C3"/>
<path d="M248.185 157.906H207.709M248.185 157.906H217.628M248.185 157.906V151M248.185 151H207.709M248.185 151H217.628M207.709 151H202.965H197.359V157.906H202.965H207.709M207.709 151V157.906M207.709 151H217.628M207.709 157.906H217.628M217.628 151V157.906M227.413 151V157.906M238.194 151V157.906" stroke="#304436" stroke-width="2"/>
<path d="M202.965 242.906H197.359V236H202.965H207.709H217.628H227.413H238.194H249H259.5L253.5 242.906H249H238.194H227.413H217.628H207.709H202.965Z" fill="#E2D2C3"/>
<path d="M253.5 242.906H207.709M253.5 242.906H217.628M253.5 242.906L259.5 236M259.5 236H207.709M259.5 236H217.628M207.709 236H202.965H197.359V242.906H202.965H207.709M207.709 236V242.906M207.709 236H217.628M207.709 242.906H217.628M217.628 236V242.906M227.413 236V242.906M238.194 236V242.906M249 236V242.906" stroke="#304436" stroke-width="2"/>
<path d="M198.95 76.2017H202.832H262.776V70.1585H198.95V76.2017Z" fill="#E2D2C3" stroke="#304436" stroke-width="2"/>
<path d="M230.134 17.4964L202.965 70.1584H263.019C262.564 45.0185 251.697 17.4964 251.697 17.4964H230.134Z" fill="#858181" stroke="#304436" stroke-width="2"/>
<path d="M243.935 19.9507L250.403 16.8305L263.341 10.59L282.748 19.9507V70.1585H250.403H243.935V19.9507Z" fill="#F3E1D1" stroke="#274430" stroke-width="2"/>
<g clip-path="url(#clip0_2274_4644)">
<rect x="249.11" y="21.813" width="28.4629" height="46.6189" rx="2" fill="#93D3F6"/>
<path d="M249.11 42.2087L266.625 21.813H277.573L249.11 56.7771V42.2087Z" fill="white" fill-opacity="0.3"/>
<path d="M250.204 68.4318L277.573 35.4102V41.2375L254.583 68.4318H250.204Z" fill="white" fill-opacity="0.3"/>
<rect x="249.11" y="21.813" width="28.4629" height="7.76981" fill="#565656" fill-opacity="0.3"/>
</g>
<rect x="249.11" y="21.813" width="28.4629" height="46.6189" rx="2" stroke="#274430" stroke-width="2"/>
<path fill-rule="evenodd" clip-rule="evenodd" d="M262.91 70.1585L262.91 21.813L264.635 21.813L264.635 70.1585L262.91 70.1585Z" fill="#304436"/>
<path fill-rule="evenodd" clip-rule="evenodd" d="M277.573 45.9857L249.11 45.9857L249.11 44.2591L277.573 44.2591L277.573 45.9857Z" fill="#304436"/>
<rect x="241.347" y="66.7052" width="43.9881" height="3.45325" rx="1.72662" fill="#F3E1D1" stroke="#274430" stroke-width="2"/>
<defs>
<filter id="filter0_d_2274_4644" x="95" y="292" width="99" height="21" filterUnits="userSpaceOnUse" color-interpolation-filters="sRGB">
<feFlood flood-opacity="0" result="BackgroundImageFix"/>
<feColorMatrix in="SourceAlpha" type="matrix" values="0 0 0 0 0 0 0 0 0 0 0 0 0 0 0 0 0 0 127 0" result="hardAlpha"/>
<feOffset dx="1" dy="1"/>
<feComposite in2="hardAlpha" operator="out"/>
<feColorMatrix type="matrix" values="0 0 0 0 0.188235 0 0 0 0 0.266667 0 0 0 0 0.211765 0 0 0 1 0"/>
<feBlend mode="normal" in2="BackgroundImageFix" result="effect1_dropShadow_2274_4644"/>
<feBlend mode="normal" in="SourceGraphic" in2="effect1_dropShadow_2274_4644" result="shape"/>
</filter>
<filter id="filter1_d_2274_4644" x="271" y="310" width="97" height="21" filterUnits="userSpaceOnUse" color-interpolation-filters="sRGB">
<feFlood flood-opacity="0" result="BackgroundImageFix"/>
<feColorMatrix in="SourceAlpha" type="matrix" values="0 0 0 0 0 0 0 0 0 0 0 0 0 0 0 0 0 0 127 0" result="hardAlpha"/>
<feOffset dx="1" dy="1"/>
<feComposite in2="hardAlpha" operator="out"/>
<feColorMatrix type="matrix" values="0 0 0 0 0.188235 0 0 0 0 0.266667 0 0 0 0 0.211765 0 0 0 1 0"/>
<feBlend mode="normal" in2="BackgroundImageFix" result="effect1_dropShadow_2274_4644"/>
<feBlend mode="normal" in="SourceGraphic" in2="effect1_dropShadow_2274_4644" result="shape"/>
</filter>
<filter id="filter2_d_2274_4644" x="107" y="223" width="23" height="21" filterUnits="userSpaceOnUse" color-interpolation-filters="sRGB">
<feFlood flood-opacity="0" result="BackgroundImageFix"/>
<feColorMatrix in="SourceAlpha" type="matrix" values="0 0 0 0 0 0 0 0 0 0 0 0 0 0 0 0 0 0 127 0" result="hardAlpha"/>
<feOffset dx="1" dy="1"/>
<feComposite in2="hardAlpha" operator="out"/>
<feColorMatrix type="matrix" values="0 0 0 0 0.188235 0 0 0 0 0.266667 0 0 0 0 0.211765 0 0 0 1 0"/>
<feBlend mode="normal" in2="BackgroundImageFix" result="effect1_dropShadow_2274_4644"/>
<feBlend mode="normal" in="SourceGraphic" in2="effect1_dropShadow_2274_4644" result="shape"/>
</filter>
<clipPath id="clip0_2274_4644">
<rect x="249.11" y="21.813" width="28.4629" height="46.6189" rx="2" fill="white"/>
</clipPath>
<pattern id="pattern0_2274_4644" patternUnits="userSpaceOnUse" patternTransform="matrix(17 0 0 14 202.5 75.5)" preserveAspectRatio="none" viewBox="-0.5 -0.5 17 14" width="1" height="1">
<use xlink:href="#pattern0_2274_4644_inner" transform="translate(-25.5 -7)"/>
<use xlink:href="#pattern0_2274_4644_inner" transform="translate(-8.5 -7)"/>
<use xlink:href="#pattern0_2274_4644_inner" transform="translate(8.5 -7)"/>
<use xlink:href="#pattern0_2274_4644_inner" transform="translate(-34 0)"/>
<use xlink:href="#pattern0_2274_4644_inner" transform="translate(-17 0)"/>
<g id="pattern0_2274_4644_inner">
<rect width="17" height="7" fill="#F3E1D1" stroke="white"/>
</g>
<use xlink:href="#pattern0_2274_4644_inner" transform="translate(-25.5 7)"/>
<use xlink:href="#pattern0_2274_4644_inner" transform="translate(-8.5 7)"/>
<use xlink:href="#pattern0_2274_4644_inner" transform="translate(8.5 7)"/>
</pattern></defs>
</svg>
