<svg width="501" height="362" viewBox="0 0 501 362" fill="none" xmlns="http://www.w3.org/2000/svg" xmlns:xlink="http://www.w3.org/1999/xlink">
<path d="M0 0H500V362H0V0Z" fill="white"/>
<path d="M500 0H499V362H500H501V0H500Z" fill="#E9E9E9"/>
<path d="M434 288H56C46.6112 288 39 295.611 39 305V321C39 321 44.6904 323.442 48.5 324.5C64.5465 328.955 74.3628 321.735 91 321C110.312 320.147 121.184 320.228 140.5 321C158.307 321.712 168.259 326.189 186 324.5C199.768 323.19 206.946 332.753 220.5 330C242.774 325.476 255.277 321.487 278 321C296.222 320.61 306.308 326.116 324.5 325C335.139 324.347 340.892 322.043 351.5 321L351.814 320.969C372.803 318.905 385.081 317.697 406 321C424.123 323.862 451 334.5 451 334.5V305C451 295.611 443.389 288 434 288Z" fill="#9A8D81" stroke="#304436" stroke-width="2"/>
<path d="M451 354V334.5C451 334.5 424.123 323.861 406 321C385.081 317.697 372.803 318.905 351.814 320.969L351.5 321C340.892 322.043 335.139 324.347 324.5 325C306.308 326.116 296.222 320.61 278 321C255.277 321.487 242.774 325.476 220.5 330C206.946 332.753 199.768 323.189 186 324.5C168.259 326.189 158.307 321.712 140.5 321C121.184 320.228 110.312 320.147 91 321C74.3628 321.735 64.5465 328.955 48.5 324.5C44.6904 323.442 39 321 39 321V354H278H451Z" fill="#624D45" stroke="#304436" stroke-width="2"/>
<path d="M140.5 321C158.307 321.712 168.259 326.189 186 324.5C195.565 323.59 201.949 327.927 209.5 329.737C223.5 334 243.5 354 232.5 354H39V321C39 321 44.6904 323.442 48.5 324.5C64.5465 328.955 74.3628 321.735 91 321C110.312 320.147 121.184 320.228 140.5 321Z" fill="#5FCDEA"/>
<path d="M278 354C278 354 250.269 354 232.5 354M232.5 354C156.934 354 39 354 39 354V321C39 321 44.6904 323.442 48.5 324.5C64.5465 328.955 74.3628 321.735 91 321C110.312 320.147 121.184 320.228 140.5 321C158.307 321.712 168.259 326.189 186 324.5C195.565 323.59 201.949 327.927 209.5 329.737C223.5 334 243.5 354 232.5 354Z" stroke="#304436" stroke-width="2"/>
<path d="M109 338H103" stroke="white" stroke-opacity="0.9" stroke-width="2" stroke-linecap="round"/>
<path d="M91 330H85" stroke="white" stroke-opacity="0.8" stroke-width="2" stroke-linecap="round"/>
<path d="M49 331H55" stroke="white" stroke-opacity="0.9" stroke-width="2" stroke-linecap="round"/>
<path d="M61 337H55" stroke="white" stroke-opacity="0.8" stroke-width="2" stroke-linecap="round"/>
<path d="M74 341H72" stroke="white" stroke-opacity="0.8" stroke-width="2" stroke-linecap="round"/>
<path d="M96 338L93 338" stroke="white" stroke-opacity="0.9" stroke-width="2" stroke-linecap="round"/>
<path d="M82 330L79 330" stroke="white" stroke-opacity="0.9" stroke-width="2" stroke-linecap="round"/>
<path d="M136 328L133 328" stroke="white" stroke-opacity="0.9" stroke-width="2" stroke-linecap="round"/>
<path d="M142 332L139 332" stroke="white" stroke-opacity="0.4" stroke-width="2" stroke-linecap="round"/>
<path d="M133 344L122 344" stroke="white" stroke-opacity="0.4" stroke-width="2" stroke-linecap="round"/>
<path d="M196 340L185 340" stroke="white" stroke-opacity="0.4" stroke-width="2" stroke-linecap="round"/>
<path d="M209 347L204 347" stroke="white" stroke-opacity="0.9" stroke-width="2" stroke-linecap="round"/>
<path d="M208 301H216" stroke="#304436" stroke-width="2" stroke-linecap="round"/>
<path d="M78 298H86" stroke="#304436" stroke-width="2" stroke-linecap="round"/>
<path d="M53 319H61" stroke="#304436" stroke-width="2" stroke-linecap="round"/>
<path d="M392 295H400" stroke="#304436" stroke-width="2" stroke-linecap="round"/>
<path d="M352.5 314H344.5" stroke="#304436" stroke-width="2" stroke-linecap="round"/>
<path d="M361 300H353" stroke="#304436" stroke-width="2" stroke-linecap="round"/>
<path d="M425.5 346H417.5" stroke="#304436" stroke-width="2" stroke-linecap="round"/>
<path d="M328.5 298H320.5" stroke="#304436" stroke-width="2" stroke-linecap="round"/>
<path d="M401.5 330H393.5" stroke="#304436" stroke-width="2" stroke-linecap="round"/>
<path d="M224 312H232" stroke="#304436" stroke-width="2" stroke-linecap="round"/>
<path d="M94 309H102" stroke="#304436" stroke-width="2" stroke-linecap="round"/>
<path d="M162 297H170" stroke="#304436" stroke-width="2" stroke-linecap="round"/>
<path d="M142 309H150" stroke="#304436" stroke-width="2" stroke-linecap="round"/>
<path d="M48 306H56" stroke="#304436" stroke-width="2" stroke-linecap="round"/>
<path d="M408 306H416" stroke="#304436" stroke-width="2" stroke-linecap="round"/>
<path d="M314 331H322" stroke="#304436" stroke-width="2" stroke-linecap="round"/>
<path d="M277 327H285" stroke="#304436" stroke-width="2" stroke-linecap="round"/>
<path d="M260 335H268" stroke="#304436" stroke-width="2" stroke-linecap="round"/>
<path d="M272 299H280" stroke="#304436" stroke-width="2" stroke-linecap="round"/>
<path d="M199 316H207" stroke="#304436" stroke-width="2" stroke-linecap="round"/>
<path d="M345 331H353" stroke="#304436" stroke-width="2" stroke-linecap="round"/>
<path d="M289 312H281" stroke="#304436" stroke-width="2" stroke-linecap="round"/>
<path d="M361.5 344H353.5" stroke="#304436" stroke-width="2" stroke-linecap="round"/>
<path d="M255 306H258" stroke="#304436" stroke-width="2" stroke-linecap="round"/>
<path d="M125 303H128" stroke="#304436" stroke-width="2" stroke-linecap="round"/>
<path d="M180 319H183" stroke="#304436" stroke-width="2" stroke-linecap="round"/>
<path d="M439 300H442" stroke="#304436" stroke-width="2" stroke-linecap="round"/>
<path d="M374 312H377" stroke="#304436" stroke-width="2" stroke-linecap="round"/>
<path d="M328 338H331" stroke="#304436" stroke-width="2" stroke-linecap="round"/>
<path d="M291 334H294" stroke="#304436" stroke-width="2" stroke-linecap="round"/>
<path d="M265 349L266 349" stroke="#304436" stroke-width="2" stroke-linecap="round"/>
<path d="M305.5 319H302.5" stroke="#304436" stroke-width="2" stroke-linecap="round"/>
<path d="M378.5 351H375.5" stroke="#304436" stroke-width="2" stroke-linecap="round"/>
<path d="M225.5 301L229.5 301" stroke="#304436" stroke-width="2" stroke-linecap="round"/>
<path d="M95.5 298L99.5 298" stroke="#304436" stroke-width="2" stroke-linecap="round"/>
<path d="M160 319L164 319" stroke="#304436" stroke-width="2" stroke-linecap="round"/>
<path d="M119 317L123 317" stroke="#304436" stroke-width="2" stroke-linecap="round"/>
<path d="M409.5 295L413.5 295" stroke="#304436" stroke-width="2" stroke-linecap="round"/>
<path d="M309 340L313 340" stroke="#304436" stroke-width="2" stroke-linecap="round"/>
<path d="M335 314L331 314" stroke="#304436" stroke-width="2" stroke-linecap="round"/>
<path d="M408 346L404 346" stroke="#304436" stroke-width="2" stroke-linecap="round"/>
<path d="M316 298L312 298" stroke="#304436" stroke-width="2" stroke-linecap="round"/>
<path d="M389 330L385 330" stroke="#304436" stroke-width="2" stroke-linecap="round"/>
<path d="M241.5 312L245.5 312" stroke="#304436" stroke-width="2" stroke-linecap="round"/>
<path d="M106 309L110 309" stroke="#304436" stroke-width="2" stroke-linecap="round"/>
<path d="M174 297L178 297" stroke="#304436" stroke-width="2" stroke-linecap="round"/>
<path d="M186 309L190 309" stroke="#304436" stroke-width="2" stroke-linecap="round"/>
<path d="M74 320L78 320" stroke="#304436" stroke-width="2" stroke-linecap="round"/>
<path d="M425.5 306L429.5 306" stroke="#304436" stroke-width="2" stroke-linecap="round"/>
<path d="M314.5 344L318.5 344" stroke="#304436" stroke-width="2" stroke-linecap="round"/>
<path d="M277.5 340L281.5 340" stroke="#304436" stroke-width="2" stroke-linecap="round"/>
<path d="M238 333L242 333" stroke="#304436" stroke-width="2" stroke-linecap="round"/>
<path d="M247 349L257 349" stroke="#304436" stroke-width="2" stroke-linecap="round"/>
<rect x="152" y="335" width="8" height="3" fill="#304436"/>
<rect x="154" y="338" width="4" height="3" fill="#304436"/>
<rect x="169" y="335" width="7" height="3" fill="#304436"/>
<path d="M164.732 347.531L163.706 347.432C162.886 347.353 162.206 347.224 161.551 346.85C160.946 346.504 160.367 345.944 159.746 345.1L161.815 343.666L155.336 342.066L154.56 348.694L156.64 347.252C157.683 348.628 158.9 349.348 160.263 349.392C161.394 349.429 162.62 348.995 163.911 348.1L164.732 347.531Z" fill="#D05D4B"/>
<path d="M171.731 339L172.169 339.931C172.519 340.674 172.869 341.269 173.441 341.758C173.97 342.21 174.691 342.565 175.693 342.864L176.343 340.438L180.027 345.984L174.063 348.945L174.717 346.506C173.074 345.99 171.988 345.089 171.487 343.824C171.072 342.775 171.067 341.477 171.473 339.963L171.731 339Z" fill="#4760B2"/>
<g filter="url(#filter0_d_2275_5498)">
<rect x="33" y="244" width="157" height="23" fill="white" shape-rendering="crispEdges"/>
<rect x="33.5" y="244.5" width="156" height="22" stroke="#304436" shape-rendering="crispEdges"/>
<path d="M40.95 260.418C41.874 260.418 42.672 260.096 43.232 259.564V257.856H40.74V256.162H45.22V260.278C44.31 261.496 42.784 262.28 40.95 262.28C37.772 262.28 35.602 259.9 35.602 257.1C35.602 254.3 37.716 251.92 40.81 251.92C42.588 251.92 44.044 252.718 44.94 253.908L43.372 255.126C42.812 254.328 41.93 253.782 40.81 253.782C38.962 253.782 37.646 255.224 37.646 257.1C37.646 258.976 39.032 260.418 40.95 260.418ZM51.4043 253.824H49.6963L51.1523 251.5H53.0843L51.4043 253.824ZM53.7983 260.852C53.1403 261.734 52.0483 262.28 50.7183 262.28C48.2123 262.28 46.7983 260.53 46.7983 258.472C46.7983 256.386 48.1143 254.664 50.4243 254.664C52.3843 254.664 53.6723 255.994 53.6723 257.842C53.6723 258.234 53.6163 258.598 53.5603 258.836H48.6183C48.7863 260.152 49.5983 260.684 50.7043 260.684C51.4743 260.684 52.1463 260.348 52.5243 259.844L53.7983 260.852ZM50.3823 256.12C49.4723 256.12 48.8703 256.624 48.6743 257.548H51.9223C51.8943 256.834 51.3763 256.12 50.3823 256.12ZM58.715 254.664C61.011 254.664 62.579 256.358 62.579 258.472C62.579 260.586 61.011 262.28 58.715 262.28C56.419 262.28 54.851 260.586 54.851 258.472C54.851 256.358 56.419 254.664 58.715 254.664ZM58.743 260.6C59.877 260.6 60.731 259.69 60.731 258.472C60.731 257.24 59.877 256.344 58.743 256.344C57.567 256.344 56.699 257.24 56.699 258.472C56.699 259.704 57.567 260.6 58.743 260.6ZM64.5667 259.424V256.54H63.2507V254.944H64.5667V253.18H66.3587V254.944H68.5147V256.54H66.3587V259.424C66.3587 260.208 66.7787 260.516 67.4787 260.516C67.9687 260.516 68.2907 260.46 68.5287 260.362V261.916C68.1787 262.07 67.7587 262.14 67.1707 262.14C65.4067 262.14 64.5667 261.146 64.5667 259.424ZM70.107 262V251.5H71.885V255.504C72.375 255.028 73.033 254.664 73.971 254.664C75.497 254.664 76.715 255.714 76.715 257.8V262H74.923V257.87C74.923 256.932 74.405 256.344 73.523 256.344C72.627 256.344 72.151 256.946 71.885 257.394V262H70.107ZM85.2299 260.852C84.5719 261.734 83.4799 262.28 82.1499 262.28C79.6439 262.28 78.2299 260.53 78.2299 258.472C78.2299 256.386 79.5459 254.664 81.8559 254.664C83.8159 254.664 85.1039 255.994 85.1039 257.842C85.1039 258.234 85.0479 258.598 84.9919 258.836H80.0499C80.2179 260.152 81.0299 260.684 82.1359 260.684C82.9059 260.684 83.5779 260.348 83.9559 259.844L85.2299 260.852ZM81.8139 256.12C80.9039 256.12 80.3019 256.624 80.1059 257.548H83.3539C83.3259 256.834 82.8079 256.12 81.8139 256.12ZM86.8413 262V254.944H88.6193V255.644C89.0813 255.168 89.6833 254.804 90.4813 254.804C90.7193 254.804 90.9293 254.846 91.0973 254.902V256.652C90.8733 256.596 90.6353 256.554 90.3133 256.554C89.4453 256.554 88.8853 257.03 88.6193 257.478V262H86.8413ZM92.5288 262V254.944H94.3068V255.476C94.7828 255.014 95.3848 254.664 96.2528 254.664C97.1488 254.664 97.9328 255.056 98.3948 255.812C98.8988 255.196 99.5708 254.664 100.761 254.664C102.217 254.664 103.365 255.672 103.365 257.66V262H101.573V257.73C101.573 256.876 101.111 256.344 100.313 256.344C99.5428 256.344 99.1228 256.876 98.8428 257.352C98.8568 257.45 98.8568 257.548 98.8568 257.66V262H97.0648V257.73C97.0648 256.876 96.6028 256.344 95.8048 256.344C94.9928 256.344 94.5728 256.946 94.3068 257.394V262H92.5288ZM106.29 253.712C105.66 253.712 105.128 253.18 105.128 252.55C105.128 251.92 105.66 251.388 106.29 251.388C106.92 251.388 107.438 251.92 107.438 252.55C107.438 253.18 106.92 253.712 106.29 253.712ZM105.394 262V254.944H107.172V262H105.394ZM115.8 260.852C115.142 261.734 114.05 262.28 112.72 262.28C110.214 262.28 108.8 260.53 108.8 258.472C108.8 256.386 110.116 254.664 112.426 254.664C114.386 254.664 115.674 255.994 115.674 257.842C115.674 258.234 115.618 258.598 115.562 258.836H110.62C110.788 260.152 111.6 260.684 112.706 260.684C113.476 260.684 114.148 260.348 114.526 259.844L115.8 260.852ZM112.384 256.12C111.474 256.12 110.872 256.624 110.676 257.548H113.924C113.896 256.834 113.378 256.12 112.384 256.12ZM120.569 260.978L121.745 259.914C122.179 260.46 122.697 260.852 123.369 260.852C123.943 260.852 124.237 260.516 124.237 260.096C124.237 258.864 120.863 259.326 120.863 256.848C120.863 255.602 121.913 254.664 123.383 254.664C124.461 254.664 125.441 255.182 125.945 255.868L124.769 256.904C124.405 256.456 123.943 256.092 123.397 256.092C122.837 256.092 122.571 256.4 122.571 256.764C122.571 257.968 125.945 257.548 125.945 259.984C125.917 261.468 124.727 262.28 123.397 262.28C122.137 262.28 121.241 261.776 120.569 260.978ZM132.232 258.948V254.944H134.024V258.864C134.024 260.978 132.792 262.28 130.72 262.28C128.648 262.28 127.43 260.978 127.43 258.864V254.944H129.222V258.948C129.222 259.97 129.754 260.6 130.734 260.6C131.7 260.6 132.232 259.97 132.232 258.948ZM135.992 262V254.944H137.77V255.644C138.232 255.168 138.834 254.804 139.632 254.804C139.87 254.804 140.08 254.846 140.248 254.902V256.652C140.024 256.596 139.786 256.554 139.464 256.554C138.596 256.554 138.036 257.03 137.77 257.478V262H135.992ZM145.453 262V254.944H147.231V255.504C147.721 255.028 148.379 254.664 149.317 254.664C150.843 254.664 152.061 255.714 152.061 257.8V262H150.269V257.87C150.269 256.932 149.737 256.344 148.869 256.344C147.973 256.344 147.497 256.946 147.231 257.394V262H145.453ZM156.068 262.21C154.654 262.21 153.688 261.398 153.688 260.096C153.688 259.032 154.514 258.234 156.026 257.982L158.182 257.618V257.436C158.182 256.694 157.622 256.218 156.81 256.218C156.124 256.218 155.592 256.54 155.214 257.058L153.912 256.064C154.542 255.196 155.578 254.664 156.866 254.664C158.91 254.664 159.96 255.882 159.96 257.436V262H158.182V261.314C157.734 261.86 156.894 262.21 156.068 262.21ZM155.452 260.012C155.452 260.488 155.83 260.796 156.432 260.796C157.244 260.796 157.832 260.418 158.182 259.858V258.864L156.502 259.144C155.76 259.27 155.452 259.578 155.452 260.012ZM161.996 265.444V254.944H163.774V255.518C164.32 254.972 165.006 254.664 165.972 254.664C168.212 254.664 169.556 256.414 169.556 258.472C169.556 260.53 168.212 262.28 165.972 262.28C165.006 262.28 164.32 261.972 163.774 261.426V265.444H161.996ZM165.72 256.344C164.894 256.344 164.222 256.708 163.774 257.366V259.578C164.25 260.25 164.908 260.6 165.72 260.6C166.924 260.6 167.708 259.704 167.708 258.472C167.708 257.24 166.924 256.344 165.72 256.344ZM171.183 265.444V254.944H172.961V255.518C173.507 254.972 174.193 254.664 175.159 254.664C177.399 254.664 178.743 256.414 178.743 258.472C178.743 260.53 177.399 262.28 175.159 262.28C174.193 262.28 173.507 261.972 172.961 261.426V265.444H171.183ZM174.907 256.344C174.081 256.344 173.409 256.708 172.961 257.366V259.578C173.437 260.25 174.095 260.6 174.907 260.6C176.111 260.6 176.895 259.704 176.895 258.472C176.895 257.24 176.111 256.344 174.907 256.344ZM186.935 260.852C186.277 261.734 185.185 262.28 183.855 262.28C181.349 262.28 179.935 260.53 179.935 258.472C179.935 256.386 181.251 254.664 183.561 254.664C185.521 254.664 186.809 255.994 186.809 257.842C186.809 258.234 186.753 258.598 186.697 258.836H181.755C181.923 260.152 182.735 260.684 183.841 260.684C184.611 260.684 185.283 260.348 185.661 259.844L186.935 260.852ZM183.519 256.12C182.609 256.12 182.007 256.624 181.811 257.548H185.059C185.031 256.834 184.513 256.12 183.519 256.12Z" fill="#304436"/>
</g>
<path d="M205.641 75H418.641V306H205.641V75Z" fill="#F3E1D1" stroke="#304436" stroke-width="2"/>
<g filter="url(#filter1_d_2275_5498)">
<rect x="232" y="313" width="103" height="23" fill="white" shape-rendering="crispEdges"/>
<rect x="232.5" y="313.5" width="102" height="22" stroke="#304436" shape-rendering="crispEdges"/>
<path d="M241.112 327.332V321.2H243.1V327.164C243.1 329.74 241.588 331.28 239.124 331.28C236.674 331.28 235.162 329.74 235.162 327.164V321.2H237.15V327.332C237.15 328.648 237.892 329.418 239.138 329.418C240.356 329.418 241.112 328.648 241.112 327.332ZM245.236 331V323.944H247.014V324.504C247.504 324.028 248.162 323.664 249.1 323.664C250.626 323.664 251.844 324.714 251.844 326.8V331H250.052V326.87C250.052 325.932 249.52 325.344 248.652 325.344C247.756 325.344 247.28 325.946 247.014 326.394V331H245.236ZM254.759 322.712C254.129 322.712 253.597 322.18 253.597 321.55C253.597 320.92 254.129 320.388 254.759 320.388C255.389 320.388 255.907 320.92 255.907 321.55C255.907 322.18 255.389 322.712 254.759 322.712ZM253.863 331V323.944H255.641V331H253.863ZM258.221 328.424V325.54H256.905V323.944H258.221V322.18H260.013V323.944H262.169V325.54H260.013V328.424C260.013 329.208 260.433 329.516 261.133 329.516C261.623 329.516 261.945 329.46 262.183 329.362V330.916C261.833 331.07 261.413 331.14 260.825 331.14C259.061 331.14 258.221 330.146 258.221 328.424ZM267.727 322.824H266.019L267.475 320.5H269.407L267.727 322.824ZM270.121 329.852C269.463 330.734 268.371 331.28 267.041 331.28C264.535 331.28 263.121 329.53 263.121 327.472C263.121 325.386 264.437 323.664 266.747 323.664C268.707 323.664 269.995 324.994 269.995 326.842C269.995 327.234 269.939 327.598 269.883 327.836H264.941C265.109 329.152 265.921 329.684 267.027 329.684C267.797 329.684 268.469 329.348 268.847 328.844L270.121 329.852ZM266.705 325.12C265.795 325.12 265.193 325.624 264.997 326.548H268.245C268.217 325.834 267.699 325.12 266.705 325.12ZM276.401 322.712C275.771 322.712 275.239 322.18 275.239 321.55C275.239 320.92 275.771 320.388 276.401 320.388C277.031 320.388 277.549 320.92 277.549 321.55C277.549 322.18 277.031 322.712 276.401 322.712ZM275.505 331V323.944H277.283V331H275.505ZM279.416 331V323.944H281.194V324.504C281.684 324.028 282.342 323.664 283.28 323.664C284.806 323.664 286.024 324.714 286.024 326.8V331H284.232V326.87C284.232 325.932 283.7 325.344 282.832 325.344C281.936 325.344 281.46 325.946 281.194 326.394V331H279.416ZM288.491 328.424V325.54H287.175V323.944H288.491V322.18H290.283V323.944H292.439V325.54H290.283V328.424C290.283 329.208 290.703 329.516 291.403 329.516C291.893 329.516 292.215 329.46 292.453 329.362V330.916C292.103 331.07 291.683 331.14 291.095 331.14C289.331 331.14 288.491 330.146 288.491 328.424ZM297.996 322.824H296.288L297.744 320.5H299.676L297.996 322.824ZM300.39 329.852C299.732 330.734 298.64 331.28 297.31 331.28C294.804 331.28 293.39 329.53 293.39 327.472C293.39 325.386 294.706 323.664 297.016 323.664C298.976 323.664 300.264 324.994 300.264 326.842C300.264 327.234 300.208 327.598 300.152 327.836H295.21C295.378 329.152 296.19 329.684 297.296 329.684C298.066 329.684 298.738 329.348 299.116 328.844L300.39 329.852ZM296.974 325.12C296.064 325.12 295.462 325.624 295.266 326.548H298.514C298.486 325.834 297.968 325.12 296.974 325.12ZM302.002 331V323.944H303.78V324.644C304.242 324.168 304.844 323.804 305.642 323.804C305.88 323.804 306.09 323.846 306.258 323.902V325.652C306.034 325.596 305.796 325.554 305.474 325.554C304.606 325.554 304.046 326.03 303.78 326.478V331H302.002ZM308.585 322.712C307.955 322.712 307.423 322.18 307.423 321.55C307.423 320.92 307.955 320.388 308.585 320.388C309.215 320.388 309.733 320.92 309.733 321.55C309.733 322.18 309.215 322.712 308.585 322.712ZM307.689 331V323.944H309.467V331H307.689ZM318.095 329.852C317.437 330.734 316.345 331.28 315.015 331.28C312.509 331.28 311.095 329.53 311.095 327.472C311.095 325.386 312.411 323.664 314.721 323.664C316.681 323.664 317.969 324.994 317.969 326.842C317.969 327.234 317.913 327.598 317.857 327.836H312.915C313.083 329.152 313.895 329.684 315.001 329.684C315.771 329.684 316.443 329.348 316.821 328.844L318.095 329.852ZM314.679 325.12C313.769 325.12 313.167 325.624 312.971 326.548H316.219C316.191 325.834 315.673 325.12 314.679 325.12ZM324.273 327.948V323.944H326.065V327.864C326.065 329.978 324.833 331.28 322.761 331.28C320.689 331.28 319.471 329.978 319.471 327.864V323.944H321.263V327.948C321.263 328.97 321.795 329.6 322.775 329.6C323.741 329.6 324.273 328.97 324.273 327.948ZM328.033 331V323.944H329.811V324.644C330.273 324.168 330.875 323.804 331.673 323.804C331.911 323.804 332.121 323.846 332.289 323.902V325.652C332.065 325.596 331.827 325.554 331.505 325.554C330.637 325.554 330.077 326.03 329.811 326.478V331H328.033Z" fill="#304436"/>
</g>
<path fill-rule="evenodd" clip-rule="evenodd" d="M242.688 208.547V212.955C242.688 212.668 242.93 212.436 243.228 212.436H246.472C246.771 212.436 247.013 212.668 247.013 212.955V208.547C247.013 208.834 246.771 209.066 246.472 209.066H243.228C242.93 209.066 242.688 208.834 242.688 208.547Z" fill="white"/>
<path d="M247.013 228.769V212.955C247.013 212.668 246.771 212.436 246.472 212.436H243.228C242.93 212.436 242.688 212.668 242.688 212.955V228.769C242.688 229.055 242.93 229.287 243.228 229.287H246.472C246.771 229.287 247.013 229.055 247.013 228.769Z" fill="white"/>
<path d="M246.472 205.696H243.228C242.93 205.696 242.688 205.928 242.688 206.214V208.547C242.688 208.834 242.93 209.066 243.228 209.066H246.472C246.771 209.066 247.013 208.834 247.013 208.547V206.214C247.013 205.928 246.771 205.696 246.472 205.696Z" fill="white"/>
<path fill-rule="evenodd" clip-rule="evenodd" d="M246.906 208.547V212.955C246.906 212.668 247.148 212.436 247.447 212.436H250.691C250.989 212.436 251.231 212.668 251.231 212.955V208.547C251.231 208.834 250.989 209.066 250.691 209.066H247.447C247.148 209.066 246.906 208.834 246.906 208.547Z" fill="white"/>
<path d="M251.231 228.769V212.955C251.231 212.668 250.989 212.436 250.691 212.436H247.447C247.148 212.436 246.906 212.668 246.906 212.955V228.769C246.906 229.055 247.148 229.287 247.447 229.287H250.691C250.989 229.287 251.231 229.055 251.231 228.769Z" fill="white"/>
<path d="M250.691 205.696H247.447C247.148 205.696 246.906 205.928 246.906 206.214V208.547C246.906 208.834 247.148 209.066 247.447 209.066H250.691C250.989 209.066 251.231 208.834 251.231 208.547V206.214C251.231 205.928 250.989 205.696 250.691 205.696Z" fill="white"/>
<path fill-rule="evenodd" clip-rule="evenodd" d="M251.125 208.539V212.946C251.125 212.66 251.367 212.428 251.666 212.428H254.909C255.208 212.428 255.45 212.66 255.45 212.946V208.539C255.45 208.826 255.208 209.058 254.909 209.058H251.666C251.367 209.058 251.125 208.826 251.125 208.539Z" fill="white"/>
<path d="M255.45 228.76V212.946C255.45 212.66 255.208 212.428 254.909 212.428H251.666C251.367 212.428 251.125 212.66 251.125 212.946V228.76C251.125 229.047 251.367 229.279 251.666 229.279H254.909C255.208 229.279 255.45 229.047 255.45 228.76Z" fill="white"/>
<path d="M254.909 205.688H251.666C251.367 205.688 251.125 205.92 251.125 206.206V208.539C251.125 208.826 251.367 209.058 251.666 209.058H254.909C255.208 209.058 255.45 208.826 255.45 208.539V206.206C255.45 205.92 255.208 205.688 254.909 205.688Z" fill="white"/>
<path fill-rule="evenodd" clip-rule="evenodd" d="M255.766 208.539V212.946C255.766 212.66 256.008 212.428 256.306 212.428H259.55C259.849 212.428 260.091 212.66 260.091 212.946V208.539C260.091 208.826 259.849 209.058 259.55 209.058H256.306C256.008 209.058 255.766 208.826 255.766 208.539Z" fill="white"/>
<path d="M260.091 228.76V212.946C260.091 212.66 259.849 212.428 259.55 212.428H256.306C256.008 212.428 255.766 212.66 255.766 212.946V228.76C255.766 229.047 256.008 229.279 256.306 229.279H259.55C259.849 229.279 260.091 229.047 260.091 228.76Z" fill="white"/>
<path d="M259.55 205.688H256.306C256.008 205.688 255.766 205.92 255.766 206.206V208.539C255.766 208.826 256.008 209.058 256.306 209.058H259.55C259.849 209.058 260.091 208.826 260.091 208.539V206.206C260.091 205.92 259.849 205.688 259.55 205.688Z" fill="white"/>
<path fill-rule="evenodd" clip-rule="evenodd" d="M259.984 208.539V212.946C259.984 212.66 260.226 212.428 260.525 212.428H263.769C264.067 212.428 264.309 212.66 264.309 212.946V208.539C264.309 208.826 264.067 209.058 263.769 209.058H260.525C260.226 209.058 259.984 208.826 259.984 208.539Z" fill="white"/>
<path d="M264.309 228.76V212.946C264.309 212.66 264.067 212.428 263.769 212.428H260.525C260.226 212.428 259.984 212.66 259.984 212.946V228.76C259.984 229.047 260.226 229.279 260.525 229.279H263.769C264.067 229.279 264.309 229.047 264.309 228.76Z" fill="white"/>
<path d="M263.769 205.688H260.525C260.226 205.688 259.984 205.92 259.984 206.206V208.539C259.984 208.826 260.226 209.058 260.525 209.058H263.769C264.067 209.058 264.309 208.826 264.309 208.539V206.206C264.309 205.92 264.067 205.688 263.769 205.688Z" fill="white"/>
<path d="M246.712 208.541V206.206C246.712 205.817 246.09 205.688 245.804 205.688V229.295C246.09 229.295 246.712 229.295 246.712 228.776V212.951V208.541Z" fill="#565656" fill-opacity="0.3"/>
<path fill-rule="evenodd" clip-rule="evenodd" d="M242.58 208.547V212.955C242.58 212.668 242.822 212.436 243.121 212.436H246.365C246.663 212.436 246.905 212.668 246.905 212.955V208.547C246.905 208.834 246.663 209.066 246.365 209.066H243.121C242.822 209.066 242.58 208.834 242.58 208.547Z" fill="#565656" fill-opacity="0.3"/>
<path d="M242.58 228.769V206.214M242.58 228.769C242.58 229.055 242.822 229.287 243.121 229.287H246.365C246.663 229.287 246.905 229.055 246.905 228.769M242.58 228.769V212.955M246.905 228.769V206.214M246.905 228.769V212.955M246.905 206.214C246.905 205.928 246.663 205.696 246.365 205.696H243.121C242.822 205.696 242.58 205.928 242.58 206.214M246.905 206.214V208.547M246.905 206.214V212.955M242.58 206.214V208.547M242.58 206.214V212.955M242.58 208.547C242.58 208.834 242.822 209.066 243.121 209.066H246.365C246.663 209.066 246.905 208.834 246.905 208.547M242.58 208.547V212.955M246.905 208.547V212.955M246.905 212.955C246.905 212.668 246.663 212.436 246.365 212.436H243.121C242.822 212.436 242.58 212.668 242.58 212.955" stroke="#304436"/>
<path d="M251.037 208.541V206.206C251.037 205.817 250.415 205.688 250.129 205.688V229.295C250.415 229.295 251.037 229.295 251.037 228.776V212.951V208.541Z" fill="#565656" fill-opacity="0.3"/>
<path fill-rule="evenodd" clip-rule="evenodd" d="M246.905 208.547V212.955C246.905 212.668 247.147 212.436 247.446 212.436H250.69C250.988 212.436 251.23 212.668 251.23 212.955V208.547C251.23 208.834 250.988 209.066 250.69 209.066H247.446C247.147 209.066 246.905 208.834 246.905 208.547Z" fill="#565656" fill-opacity="0.3"/>
<path d="M246.905 228.769V206.214M246.905 228.769C246.905 229.055 247.147 229.287 247.446 229.287H250.69C250.988 229.287 251.23 229.055 251.23 228.769M246.905 228.769V212.955M251.23 228.769V206.214M251.23 228.769V212.955M251.23 206.214C251.23 205.928 250.988 205.696 250.69 205.696H247.446C247.147 205.696 246.905 205.928 246.905 206.214M251.23 206.214V208.547M251.23 206.214V212.955M246.905 206.214V208.547M246.905 206.214V212.955M246.905 208.547C246.905 208.834 247.147 209.066 247.446 209.066H250.69C250.988 209.066 251.23 208.834 251.23 208.547M246.905 208.547V212.955M251.23 208.547V212.955M251.23 212.955C251.23 212.668 250.988 212.436 250.69 212.436H247.446C247.147 212.436 246.905 212.668 246.905 212.955" stroke="#304436"/>
<path d="M255.363 208.541V206.206C255.363 205.817 254.741 205.688 254.454 205.688V229.295C254.741 229.295 255.363 229.295 255.363 228.776V212.951V208.541Z" fill="#565656" fill-opacity="0.3"/>
<path fill-rule="evenodd" clip-rule="evenodd" d="M251.23 208.547V212.955C251.23 212.668 251.472 212.436 251.771 212.436H255.015C255.313 212.436 255.555 212.668 255.555 212.955V208.547C255.555 208.834 255.313 209.066 255.015 209.066H251.771C251.472 209.066 251.23 208.834 251.23 208.547Z" fill="#565656" fill-opacity="0.3"/>
<path d="M251.23 228.769V206.214M251.23 228.769C251.23 229.055 251.472 229.287 251.771 229.287H255.015C255.313 229.287 255.555 229.055 255.555 228.769M251.23 228.769V212.955M255.555 228.769V206.214M255.555 228.769V212.955M255.555 206.214C255.555 205.928 255.313 205.696 255.015 205.696H251.771C251.472 205.696 251.23 205.928 251.23 206.214M255.555 206.214V208.547M255.555 206.214V212.955M251.23 206.214V208.547M251.23 206.214V212.955M251.23 208.547C251.23 208.834 251.472 209.066 251.771 209.066H255.015C255.313 209.066 255.555 208.834 255.555 208.547M251.23 208.547V212.955M255.555 208.547V212.955M255.555 212.955C255.555 212.668 255.313 212.436 255.015 212.436H251.771C251.472 212.436 251.23 212.668 251.23 212.955" stroke="#304436"/>
<path d="M259.688 208.541V206.206C259.688 205.817 259.066 205.688 258.779 205.688V229.295C259.066 229.295 259.688 229.295 259.688 228.776V212.951V208.541Z" fill="#565656" fill-opacity="0.3"/>
<path fill-rule="evenodd" clip-rule="evenodd" d="M255.556 208.547V212.955C255.556 212.668 255.798 212.436 256.096 212.436H259.34C259.639 212.436 259.881 212.668 259.881 212.955V208.547C259.881 208.834 259.639 209.066 259.34 209.066H256.096C255.798 209.066 255.556 208.834 255.556 208.547Z" fill="#565656" fill-opacity="0.3"/>
<path d="M255.556 228.769V206.214M255.556 228.769C255.556 229.055 255.798 229.287 256.096 229.287H259.34C259.639 229.287 259.881 229.055 259.881 228.769M255.556 228.769V212.955M259.881 228.769V206.214M259.881 228.769V212.955M259.881 206.214C259.881 205.928 259.639 205.696 259.34 205.696H256.096C255.798 205.696 255.556 205.928 255.556 206.214M259.881 206.214V208.547M259.881 206.214V212.955M255.556 206.214V208.547M255.556 206.214V212.955M255.556 208.547C255.556 208.834 255.798 209.066 256.096 209.066H259.34C259.639 209.066 259.881 208.834 259.881 208.547M255.556 208.547V212.955M259.881 208.547V212.955M259.881 212.955C259.881 212.668 259.639 212.436 259.34 212.436H256.096C255.798 212.436 255.556 212.668 255.556 212.955" stroke="#304436"/>
<path d="M264.013 208.541V206.206C264.013 205.817 263.391 205.688 263.104 205.688V229.295C263.391 229.295 264.013 229.295 264.013 228.776V212.951V208.541Z" fill="#565656" fill-opacity="0.3"/>
<path fill-rule="evenodd" clip-rule="evenodd" d="M259.881 208.547V212.955C259.881 212.668 260.123 212.436 260.421 212.436H263.665C263.964 212.436 264.206 212.668 264.206 212.955V208.547C264.206 208.834 263.964 209.066 263.665 209.066H260.421C260.123 209.066 259.881 208.834 259.881 208.547Z" fill="#565656" fill-opacity="0.3"/>
<path d="M259.881 228.769V206.214M259.881 228.769C259.881 229.055 260.123 229.287 260.421 229.287H263.665C263.964 229.287 264.206 229.055 264.206 228.769M259.881 228.769V212.955M264.206 228.769V206.214M264.206 228.769V212.955M264.206 206.214C264.206 205.928 263.964 205.696 263.665 205.696H260.421C260.123 205.696 259.881 205.928 259.881 206.214M264.206 206.214V208.547M264.206 206.214V212.955M259.881 206.214V208.547M259.881 206.214V212.955M259.881 208.547C259.881 208.834 260.123 209.066 260.421 209.066H263.665C263.964 209.066 264.206 208.834 264.206 208.547M259.881 208.547V212.955M264.206 208.547V212.955M264.206 212.955C264.206 212.668 263.964 212.436 263.665 212.436H260.421C260.123 212.436 259.881 212.668 259.881 212.955" stroke="#304436"/>
<path d="M242.558 208.274L241.908 208.274C241.407 208.274 241 207.867 241 207.366C241 206.864 241.407 206.458 241.908 206.458L242.558 206.458L242.558 208.274Z" stroke="#304436"/>
<path d="M242.58 208.44L241.99 208.44C241.448 208.44 241.007 208 241.007 207.457C241.007 206.914 241.448 206.474 241.99 206.474L242.58 206.474L242.58 208.44Z" fill="white" stroke="#304436"/>
<path d="M264.206 206.474H264.795C265.338 206.474 265.778 206.914 265.778 207.457C265.778 208 265.338 208.44 264.795 208.44H264.206L264.206 206.474Z" fill="white" stroke="#304436"/>
<rect x="231.641" y="155" width="186" height="4" fill="#CBB9A9"/>
<rect x="231.641" y="239" width="186" height="4" fill="#CBB9A9"/>
<rect x="231.641" y="70" width="188" height="6" fill="#727B74"/>
<rect x="278.641" y="76" width="167" height="3.99999" transform="rotate(90 278.641 76)" fill="#CBB9A9"/>
<rect x="355.641" y="76" width="167" height="3.99999" transform="rotate(90 355.641 76)" fill="#CBB9A9"/>
<path d="M295 269.5H318.5V218.5M259.5 143.5H318.5V218.5M318.5 218.5H303" stroke="#465FB1" stroke-width="2" stroke-linecap="round" stroke-linejoin="round"/>
<path fill-rule="evenodd" clip-rule="evenodd" d="M285.953 208.547V212.955C285.953 212.668 286.195 212.436 286.494 212.436H289.738C290.036 212.436 290.278 212.668 290.278 212.955V208.547C290.278 208.834 290.036 209.066 289.738 209.066H286.494C286.195 209.066 285.953 208.834 285.953 208.547Z" fill="white"/>
<path d="M290.278 228.769V212.955C290.278 212.668 290.036 212.436 289.738 212.436H286.494C286.195 212.436 285.953 212.668 285.953 212.955V228.769C285.953 229.055 286.195 229.287 286.494 229.287H289.738C290.036 229.287 290.278 229.055 290.278 228.769Z" fill="white"/>
<path d="M289.738 205.696H286.494C286.195 205.696 285.953 205.928 285.953 206.214V208.547C285.953 208.834 286.195 209.066 286.494 209.066H289.738C290.036 209.066 290.278 208.834 290.278 208.547V206.214C290.278 205.928 290.036 205.696 289.738 205.696Z" fill="white"/>
<path fill-rule="evenodd" clip-rule="evenodd" d="M290.172 208.547V212.955C290.172 212.668 290.414 212.436 290.713 212.436H293.956C294.255 212.436 294.497 212.668 294.497 212.955V208.547C294.497 208.834 294.255 209.066 293.956 209.066H290.713C290.414 209.066 290.172 208.834 290.172 208.547Z" fill="white"/>
<path d="M294.497 228.769V212.955C294.497 212.668 294.255 212.436 293.956 212.436H290.713C290.414 212.436 290.172 212.668 290.172 212.955V228.769C290.172 229.055 290.414 229.287 290.713 229.287H293.956C294.255 229.287 294.497 229.055 294.497 228.769Z" fill="white"/>
<path d="M293.956 205.696H290.713C290.414 205.696 290.172 205.928 290.172 206.214V208.547C290.172 208.834 290.414 209.066 290.713 209.066H293.956C294.255 209.066 294.497 208.834 294.497 208.547V206.214C294.497 205.928 294.255 205.696 293.956 205.696Z" fill="white"/>
<path fill-rule="evenodd" clip-rule="evenodd" d="M294.391 208.539V212.946C294.391 212.66 294.633 212.428 294.931 212.428H298.175C298.474 212.428 298.716 212.66 298.716 212.946V208.539C298.716 208.826 298.474 209.058 298.175 209.058H294.931C294.633 209.058 294.391 208.826 294.391 208.539Z" fill="white"/>
<path d="M298.716 228.76V212.946C298.716 212.66 298.474 212.428 298.175 212.428H294.931C294.633 212.428 294.391 212.66 294.391 212.946V228.76C294.391 229.047 294.633 229.279 294.931 229.279H298.175C298.474 229.279 298.716 229.047 298.716 228.76Z" fill="white"/>
<path d="M298.175 205.688H294.931C294.633 205.688 294.391 205.92 294.391 206.206V208.539C294.391 208.826 294.633 209.058 294.931 209.058H298.175C298.474 209.058 298.716 208.826 298.716 208.539V206.206C298.716 205.92 298.474 205.688 298.175 205.688Z" fill="white"/>
<path fill-rule="evenodd" clip-rule="evenodd" d="M299.031 208.539V212.946C299.031 212.66 299.273 212.428 299.572 212.428H302.816C303.114 212.428 303.356 212.66 303.356 212.946V208.539C303.356 208.826 303.114 209.058 302.816 209.058H299.572C299.273 209.058 299.031 208.826 299.031 208.539Z" fill="white"/>
<path d="M303.356 228.76V212.946C303.356 212.66 303.114 212.428 302.816 212.428H299.572C299.273 212.428 299.031 212.66 299.031 212.946V228.76C299.031 229.047 299.273 229.279 299.572 229.279H302.816C303.114 229.279 303.356 229.047 303.356 228.76Z" fill="white"/>
<path d="M302.816 205.688H299.572C299.273 205.688 299.031 205.92 299.031 206.206V208.539C299.031 208.826 299.273 209.058 299.572 209.058H302.816C303.114 209.058 303.356 208.826 303.356 208.539V206.206C303.356 205.92 303.114 205.688 302.816 205.688Z" fill="white"/>
<path fill-rule="evenodd" clip-rule="evenodd" d="M303.25 208.539V212.946C303.25 212.66 303.492 212.428 303.791 212.428H307.034C307.333 212.428 307.575 212.66 307.575 212.946V208.539C307.575 208.826 307.333 209.058 307.034 209.058H303.791C303.492 209.058 303.25 208.826 303.25 208.539Z" fill="white"/>
<path d="M307.575 228.76V212.946C307.575 212.66 307.333 212.428 307.034 212.428H303.791C303.492 212.428 303.25 212.66 303.25 212.946V228.76C303.25 229.047 303.492 229.279 303.791 229.279H307.034C307.333 229.279 307.575 229.047 307.575 228.76Z" fill="white"/>
<path d="M307.034 205.688H303.791C303.492 205.688 303.25 205.92 303.25 206.206V208.539C303.25 208.826 303.492 209.058 303.791 209.058H307.034C307.333 209.058 307.575 208.826 307.575 208.539V206.206C307.575 205.92 307.333 205.688 307.034 205.688Z" fill="white"/>
<path d="M289.978 208.541V206.206C289.978 205.817 289.356 205.688 289.069 205.688V229.295C289.356 229.295 289.978 229.295 289.978 228.776V212.951V208.541Z" fill="#565656" fill-opacity="0.3"/>
<path fill-rule="evenodd" clip-rule="evenodd" d="M285.846 208.547V212.955C285.846 212.668 286.088 212.436 286.386 212.436H289.63C289.929 212.436 290.171 212.668 290.171 212.955V208.547C290.171 208.834 289.929 209.066 289.63 209.066H286.386C286.088 209.066 285.846 208.834 285.846 208.547Z" fill="#565656" fill-opacity="0.3"/>
<path d="M285.846 228.769V206.214M285.846 228.769C285.846 229.055 286.088 229.287 286.386 229.287H289.63C289.929 229.287 290.171 229.055 290.171 228.769M285.846 228.769V212.955M290.171 228.769V206.214M290.171 228.769V212.955M290.171 206.214C290.171 205.928 289.929 205.696 289.63 205.696H286.386C286.088 205.696 285.846 205.928 285.846 206.214M290.171 206.214V208.547M290.171 206.214V212.955M285.846 206.214V208.547M285.846 206.214V212.955M285.846 208.547C285.846 208.834 286.088 209.066 286.386 209.066H289.63C289.929 209.066 290.171 208.834 290.171 208.547M285.846 208.547V212.955M290.171 208.547V212.955M290.171 212.955C290.171 212.668 289.929 212.436 289.63 212.436H286.386C286.088 212.436 285.846 212.668 285.846 212.955" stroke="#304436"/>
<path d="M294.303 208.541V206.206C294.303 205.817 293.681 205.688 293.394 205.688V229.295C293.681 229.295 294.303 229.295 294.303 228.776V212.951V208.541Z" fill="#565656" fill-opacity="0.3"/>
<path fill-rule="evenodd" clip-rule="evenodd" d="M290.171 208.547V212.955C290.171 212.668 290.413 212.436 290.712 212.436H293.955C294.254 212.436 294.496 212.668 294.496 212.955V208.547C294.496 208.834 294.254 209.066 293.955 209.066H290.712C290.413 209.066 290.171 208.834 290.171 208.547Z" fill="#565656" fill-opacity="0.3"/>
<path d="M290.171 228.769V206.214M290.171 228.769C290.171 229.055 290.413 229.287 290.712 229.287H293.955C294.254 229.287 294.496 229.055 294.496 228.769M290.171 228.769V212.955M294.496 228.769V206.214M294.496 228.769V212.955M294.496 206.214C294.496 205.928 294.254 205.696 293.955 205.696H290.712C290.413 205.696 290.171 205.928 290.171 206.214M294.496 206.214V208.547M294.496 206.214V212.955M290.171 206.214V208.547M290.171 206.214V212.955M290.171 208.547C290.171 208.834 290.413 209.066 290.712 209.066H293.955C294.254 209.066 294.496 208.834 294.496 208.547M290.171 208.547V212.955M294.496 208.547V212.955M294.496 212.955C294.496 212.668 294.254 212.436 293.955 212.436H290.712C290.413 212.436 290.171 212.668 290.171 212.955" stroke="#304436"/>
<path d="M298.628 208.541V206.206C298.628 205.817 298.006 205.688 297.719 205.688V229.295C298.006 229.295 298.628 229.295 298.628 228.776V212.951V208.541Z" fill="#565656" fill-opacity="0.3"/>
<path fill-rule="evenodd" clip-rule="evenodd" d="M294.496 208.547V212.955C294.496 212.668 294.738 212.436 295.037 212.436H298.28C298.579 212.436 298.821 212.668 298.821 212.955V208.547C298.821 208.834 298.579 209.066 298.28 209.066H295.037C294.738 209.066 294.496 208.834 294.496 208.547Z" fill="#565656" fill-opacity="0.3"/>
<path d="M294.496 228.769V206.214M294.496 228.769C294.496 229.055 294.738 229.287 295.037 229.287H298.28C298.579 229.287 298.821 229.055 298.821 228.769M294.496 228.769V212.955M298.821 228.769V206.214M298.821 228.769V212.955M298.821 206.214C298.821 205.928 298.579 205.696 298.28 205.696H295.037C294.738 205.696 294.496 205.928 294.496 206.214M298.821 206.214V208.547M298.821 206.214V212.955M294.496 206.214V208.547M294.496 206.214V212.955M294.496 208.547C294.496 208.834 294.738 209.066 295.037 209.066H298.28C298.579 209.066 298.821 208.834 298.821 208.547M294.496 208.547V212.955M298.821 208.547V212.955M298.821 212.955C298.821 212.668 298.579 212.436 298.28 212.436H295.037C294.738 212.436 294.496 212.668 294.496 212.955" stroke="#304436"/>
<path d="M302.953 208.541V206.206C302.953 205.817 302.331 205.688 302.045 205.688V229.295C302.331 229.295 302.953 229.295 302.953 228.776V212.951V208.541Z" fill="#565656" fill-opacity="0.3"/>
<path fill-rule="evenodd" clip-rule="evenodd" d="M298.821 208.547V212.955C298.821 212.668 299.063 212.436 299.362 212.436H302.606C302.904 212.436 303.146 212.668 303.146 212.955V208.547C303.146 208.834 302.904 209.066 302.606 209.066H299.362C299.063 209.066 298.821 208.834 298.821 208.547Z" fill="#565656" fill-opacity="0.3"/>
<path d="M298.821 228.769V206.214M298.821 228.769C298.821 229.055 299.063 229.287 299.362 229.287H302.606C302.904 229.287 303.146 229.055 303.146 228.769M298.821 228.769V212.955M303.146 228.769V206.214M303.146 228.769V212.955M303.146 206.214C303.146 205.928 302.904 205.696 302.606 205.696H299.362C299.063 205.696 298.821 205.928 298.821 206.214M303.146 206.214V208.547M303.146 206.214V212.955M298.821 206.214V208.547M298.821 206.214V212.955M298.821 208.547C298.821 208.834 299.063 209.066 299.362 209.066H302.606C302.904 209.066 303.146 208.834 303.146 208.547M298.821 208.547V212.955M303.146 208.547V212.955M303.146 212.955C303.146 212.668 302.904 212.436 302.606 212.436H299.362C299.063 212.436 298.821 212.668 298.821 212.955" stroke="#304436"/>
<path d="M307.278 208.541V206.206C307.278 205.817 306.656 205.688 306.37 205.688V229.295C306.656 229.295 307.278 229.295 307.278 228.776V212.951V208.541Z" fill="#565656" fill-opacity="0.3"/>
<path fill-rule="evenodd" clip-rule="evenodd" d="M303.146 208.547V212.955C303.146 212.668 303.388 212.436 303.687 212.436H306.931C307.229 212.436 307.471 212.668 307.471 212.955V208.547C307.471 208.834 307.229 209.066 306.931 209.066H303.687C303.388 209.066 303.146 208.834 303.146 208.547Z" fill="#565656" fill-opacity="0.3"/>
<path d="M303.146 228.769V206.214M303.146 228.769C303.146 229.055 303.388 229.287 303.687 229.287H306.931C307.229 229.287 307.471 229.055 307.471 228.769M303.146 228.769V212.955M307.471 228.769V206.214M307.471 228.769V212.955M307.471 206.214C307.471 205.928 307.229 205.696 306.931 205.696H303.687C303.388 205.696 303.146 205.928 303.146 206.214M307.471 206.214V208.547M307.471 206.214V212.955M303.146 206.214V208.547M303.146 206.214V212.955M303.146 208.547C303.146 208.834 303.388 209.066 303.687 209.066H306.931C307.229 209.066 307.471 208.834 307.471 208.547M303.146 208.547V212.955M307.471 208.547V212.955M307.471 212.955C307.471 212.668 307.229 212.436 306.931 212.436H303.687C303.388 212.436 303.146 212.668 303.146 212.955" stroke="#304436"/>
<path d="M285.824 208.274L285.174 208.274C284.672 208.274 284.266 207.867 284.266 207.366C284.266 206.864 284.672 206.458 285.174 206.458L285.824 206.458L285.824 208.274Z" stroke="#304436"/>
<path d="M285.846 208.44L285.256 208.44C284.713 208.44 284.273 208 284.273 207.457C284.273 206.914 284.713 206.474 285.256 206.474L285.846 206.474L285.846 208.44Z" fill="white" stroke="#304436"/>
<path d="M307.471 206.474H308.061C308.604 206.474 309.044 206.914 309.044 207.457C309.044 208 308.604 208.44 308.061 208.44H307.471L307.471 206.474Z" fill="white" stroke="#304436"/>
<path fill-rule="evenodd" clip-rule="evenodd" d="M285.953 126.547V130.955C285.953 130.668 286.195 130.436 286.494 130.436H289.738C290.036 130.436 290.278 130.668 290.278 130.955V126.547C290.278 126.834 290.036 127.066 289.738 127.066H286.494C286.195 127.066 285.953 126.834 285.953 126.547Z" fill="white"/>
<path d="M290.278 146.769V130.955C290.278 130.668 290.036 130.436 289.738 130.436H286.494C286.195 130.436 285.953 130.668 285.953 130.955V146.769C285.953 147.055 286.195 147.287 286.494 147.287H289.738C290.036 147.287 290.278 147.055 290.278 146.769Z" fill="white"/>
<path d="M289.738 123.696H286.494C286.195 123.696 285.953 123.928 285.953 124.214V126.547C285.953 126.834 286.195 127.066 286.494 127.066H289.738C290.036 127.066 290.278 126.834 290.278 126.547V124.214C290.278 123.928 290.036 123.696 289.738 123.696Z" fill="white"/>
<path fill-rule="evenodd" clip-rule="evenodd" d="M290.172 126.547V130.955C290.172 130.668 290.414 130.436 290.713 130.436H293.956C294.255 130.436 294.497 130.668 294.497 130.955V126.547C294.497 126.834 294.255 127.066 293.956 127.066H290.713C290.414 127.066 290.172 126.834 290.172 126.547Z" fill="white"/>
<path d="M294.497 146.769V130.955C294.497 130.668 294.255 130.436 293.956 130.436H290.713C290.414 130.436 290.172 130.668 290.172 130.955V146.769C290.172 147.055 290.414 147.287 290.713 147.287H293.956C294.255 147.287 294.497 147.055 294.497 146.769Z" fill="white"/>
<path d="M293.956 123.696H290.713C290.414 123.696 290.172 123.928 290.172 124.214V126.547C290.172 126.834 290.414 127.066 290.713 127.066H293.956C294.255 127.066 294.497 126.834 294.497 126.547V124.214C294.497 123.928 294.255 123.696 293.956 123.696Z" fill="white"/>
<path fill-rule="evenodd" clip-rule="evenodd" d="M294.391 126.539V130.946C294.391 130.66 294.633 130.428 294.931 130.428H298.175C298.474 130.428 298.716 130.66 298.716 130.946V126.539C298.716 126.826 298.474 127.058 298.175 127.058H294.931C294.633 127.058 294.391 126.826 294.391 126.539Z" fill="white"/>
<path d="M298.716 146.76V130.946C298.716 130.66 298.474 130.428 298.175 130.428H294.931C294.633 130.428 294.391 130.66 294.391 130.946V146.76C294.391 147.047 294.633 147.279 294.931 147.279H298.175C298.474 147.279 298.716 147.047 298.716 146.76Z" fill="white"/>
<path d="M298.175 123.688H294.931C294.633 123.688 294.391 123.92 294.391 124.206V126.539C294.391 126.826 294.633 127.058 294.931 127.058H298.175C298.474 127.058 298.716 126.826 298.716 126.539V124.206C298.716 123.92 298.474 123.688 298.175 123.688Z" fill="white"/>
<path fill-rule="evenodd" clip-rule="evenodd" d="M299.031 126.539V130.946C299.031 130.66 299.273 130.428 299.572 130.428H302.816C303.114 130.428 303.356 130.66 303.356 130.946V126.539C303.356 126.826 303.114 127.058 302.816 127.058H299.572C299.273 127.058 299.031 126.826 299.031 126.539Z" fill="white"/>
<path d="M303.356 146.76V130.946C303.356 130.66 303.114 130.428 302.816 130.428H299.572C299.273 130.428 299.031 130.66 299.031 130.946V146.76C299.031 147.047 299.273 147.279 299.572 147.279H302.816C303.114 147.279 303.356 147.047 303.356 146.76Z" fill="white"/>
<path d="M302.816 123.688H299.572C299.273 123.688 299.031 123.92 299.031 124.206V126.539C299.031 126.826 299.273 127.058 299.572 127.058H302.816C303.114 127.058 303.356 126.826 303.356 126.539V124.206C303.356 123.92 303.114 123.688 302.816 123.688Z" fill="white"/>
<path fill-rule="evenodd" clip-rule="evenodd" d="M303.25 126.539V130.946C303.25 130.66 303.492 130.428 303.791 130.428H307.034C307.333 130.428 307.575 130.66 307.575 130.946V126.539C307.575 126.826 307.333 127.058 307.034 127.058H303.791C303.492 127.058 303.25 126.826 303.25 126.539Z" fill="white"/>
<path d="M307.575 146.76V130.946C307.575 130.66 307.333 130.428 307.034 130.428H303.791C303.492 130.428 303.25 130.66 303.25 130.946V146.76C303.25 147.047 303.492 147.279 303.791 147.279H307.034C307.333 147.279 307.575 147.047 307.575 146.76Z" fill="white"/>
<path d="M307.034 123.688H303.791C303.492 123.688 303.25 123.92 303.25 124.206V126.539C303.25 126.826 303.492 127.058 303.791 127.058H307.034C307.333 127.058 307.575 126.826 307.575 126.539V124.206C307.575 123.92 307.333 123.688 307.034 123.688Z" fill="white"/>
<path d="M289.978 126.541V124.206C289.978 123.817 289.356 123.688 289.069 123.688V147.295C289.356 147.295 289.978 147.295 289.978 146.776V130.951V126.541Z" fill="#565656" fill-opacity="0.3"/>
<path fill-rule="evenodd" clip-rule="evenodd" d="M285.846 126.547V130.955C285.846 130.668 286.088 130.436 286.386 130.436H289.63C289.929 130.436 290.171 130.668 290.171 130.955V126.547C290.171 126.834 289.929 127.066 289.63 127.066H286.386C286.088 127.066 285.846 126.834 285.846 126.547Z" fill="#565656" fill-opacity="0.3"/>
<path d="M285.846 146.769V124.214M285.846 146.769C285.846 147.055 286.088 147.287 286.386 147.287H289.63C289.929 147.287 290.171 147.055 290.171 146.769M285.846 146.769V130.955M290.171 146.769V124.214M290.171 146.769V130.955M290.171 124.214C290.171 123.928 289.929 123.696 289.63 123.696H286.386C286.088 123.696 285.846 123.928 285.846 124.214M290.171 124.214V126.547M290.171 124.214V130.955M285.846 124.214V126.547M285.846 124.214V130.955M285.846 126.547C285.846 126.834 286.088 127.066 286.386 127.066H289.63C289.929 127.066 290.171 126.834 290.171 126.547M285.846 126.547V130.955M290.171 126.547V130.955M290.171 130.955C290.171 130.668 289.929 130.436 289.63 130.436H286.386C286.088 130.436 285.846 130.668 285.846 130.955" stroke="#304436"/>
<path d="M294.303 126.541V124.206C294.303 123.817 293.681 123.688 293.394 123.688V147.295C293.681 147.295 294.303 147.295 294.303 146.776V130.951V126.541Z" fill="#565656" fill-opacity="0.3"/>
<path fill-rule="evenodd" clip-rule="evenodd" d="M290.171 126.547V130.955C290.171 130.668 290.413 130.436 290.712 130.436H293.955C294.254 130.436 294.496 130.668 294.496 130.955V126.547C294.496 126.834 294.254 127.066 293.955 127.066H290.712C290.413 127.066 290.171 126.834 290.171 126.547Z" fill="#565656" fill-opacity="0.3"/>
<path d="M290.171 146.769V124.214M290.171 146.769C290.171 147.055 290.413 147.287 290.712 147.287H293.955C294.254 147.287 294.496 147.055 294.496 146.769M290.171 146.769V130.955M294.496 146.769V124.214M294.496 146.769V130.955M294.496 124.214C294.496 123.928 294.254 123.696 293.955 123.696H290.712C290.413 123.696 290.171 123.928 290.171 124.214M294.496 124.214V126.547M294.496 124.214V130.955M290.171 124.214V126.547M290.171 124.214V130.955M290.171 126.547C290.171 126.834 290.413 127.066 290.712 127.066H293.955C294.254 127.066 294.496 126.834 294.496 126.547M290.171 126.547V130.955M294.496 126.547V130.955M294.496 130.955C294.496 130.668 294.254 130.436 293.955 130.436H290.712C290.413 130.436 290.171 130.668 290.171 130.955" stroke="#304436"/>
<path d="M298.628 126.541V124.206C298.628 123.817 298.006 123.688 297.719 123.688V147.295C298.006 147.295 298.628 147.295 298.628 146.776V130.951V126.541Z" fill="#565656" fill-opacity="0.3"/>
<path fill-rule="evenodd" clip-rule="evenodd" d="M294.496 126.547V130.955C294.496 130.668 294.738 130.436 295.037 130.436H298.28C298.579 130.436 298.821 130.668 298.821 130.955V126.547C298.821 126.834 298.579 127.066 298.28 127.066H295.037C294.738 127.066 294.496 126.834 294.496 126.547Z" fill="#565656" fill-opacity="0.3"/>
<path d="M294.496 146.769V124.214M294.496 146.769C294.496 147.055 294.738 147.287 295.037 147.287H298.28C298.579 147.287 298.821 147.055 298.821 146.769M294.496 146.769V130.955M298.821 146.769V124.214M298.821 146.769V130.955M298.821 124.214C298.821 123.928 298.579 123.696 298.28 123.696H295.037C294.738 123.696 294.496 123.928 294.496 124.214M298.821 124.214V126.547M298.821 124.214V130.955M294.496 124.214V126.547M294.496 124.214V130.955M294.496 126.547C294.496 126.834 294.738 127.066 295.037 127.066H298.28C298.579 127.066 298.821 126.834 298.821 126.547M294.496 126.547V130.955M298.821 126.547V130.955M298.821 130.955C298.821 130.668 298.579 130.436 298.28 130.436H295.037C294.738 130.436 294.496 130.668 294.496 130.955" stroke="#304436"/>
<path d="M302.953 126.541V124.206C302.953 123.817 302.331 123.688 302.045 123.688V147.295C302.331 147.295 302.953 147.295 302.953 146.776V130.951V126.541Z" fill="#565656" fill-opacity="0.3"/>
<path fill-rule="evenodd" clip-rule="evenodd" d="M298.821 126.547V130.955C298.821 130.668 299.063 130.436 299.362 130.436H302.606C302.904 130.436 303.146 130.668 303.146 130.955V126.547C303.146 126.834 302.904 127.066 302.606 127.066H299.362C299.063 127.066 298.821 126.834 298.821 126.547Z" fill="#565656" fill-opacity="0.3"/>
<path d="M298.821 146.769V124.214M298.821 146.769C298.821 147.055 299.063 147.287 299.362 147.287H302.606C302.904 147.287 303.146 147.055 303.146 146.769M298.821 146.769V130.955M303.146 146.769V124.214M303.146 146.769V130.955M303.146 124.214C303.146 123.928 302.904 123.696 302.606 123.696H299.362C299.063 123.696 298.821 123.928 298.821 124.214M303.146 124.214V126.547M303.146 124.214V130.955M298.821 124.214V126.547M298.821 124.214V130.955M298.821 126.547C298.821 126.834 299.063 127.066 299.362 127.066H302.606C302.904 127.066 303.146 126.834 303.146 126.547M298.821 126.547V130.955M303.146 126.547V130.955M303.146 130.955C303.146 130.668 302.904 130.436 302.606 130.436H299.362C299.063 130.436 298.821 130.668 298.821 130.955" stroke="#304436"/>
<path d="M307.278 126.541V124.206C307.278 123.817 306.656 123.688 306.37 123.688V147.295C306.656 147.295 307.278 147.295 307.278 146.776V130.951V126.541Z" fill="#565656" fill-opacity="0.3"/>
<path fill-rule="evenodd" clip-rule="evenodd" d="M303.146 126.547V130.955C303.146 130.668 303.388 130.436 303.687 130.436H306.931C307.229 130.436 307.471 130.668 307.471 130.955V126.547C307.471 126.834 307.229 127.066 306.931 127.066H303.687C303.388 127.066 303.146 126.834 303.146 126.547Z" fill="#565656" fill-opacity="0.3"/>
<path d="M303.146 146.769V124.214M303.146 146.769C303.146 147.055 303.388 147.287 303.687 147.287H306.931C307.229 147.287 307.471 147.055 307.471 146.769M303.146 146.769V130.955M307.471 146.769V124.214M307.471 146.769V130.955M307.471 124.214C307.471 123.928 307.229 123.696 306.931 123.696H303.687C303.388 123.696 303.146 123.928 303.146 124.214M307.471 124.214V126.547M307.471 124.214V130.955M303.146 124.214V126.547M303.146 124.214V130.955M303.146 126.547C303.146 126.834 303.388 127.066 303.687 127.066H306.931C307.229 127.066 307.471 126.834 307.471 126.547M303.146 126.547V130.955M307.471 126.547V130.955M307.471 130.955C307.471 130.668 307.229 130.436 306.931 130.436H303.687C303.388 130.436 303.146 130.668 303.146 130.955" stroke="#304436"/>
<path d="M285.824 126.274L285.174 126.274C284.672 126.274 284.266 125.867 284.266 125.366C284.266 124.864 284.672 124.458 285.174 124.458L285.824 124.458L285.824 126.274Z" stroke="#304436"/>
<path d="M285.846 126.44L285.256 126.44C284.713 126.44 284.273 126 284.273 125.457C284.273 124.914 284.713 124.474 285.256 124.474L285.846 124.474L285.846 126.44Z" fill="white" stroke="#304436"/>
<path d="M307.471 124.474H308.061C308.604 124.474 309.044 124.914 309.044 125.457C309.044 126 308.604 126.44 308.061 126.44H307.471L307.471 124.474Z" fill="white" stroke="#304436"/>
<path d="M238.035 19H404.035C412.871 19 420.035 26.1634 420.035 35V71H238.035V19Z" fill="#CCC4C4"/>
<path d="M156 335V277H272.5" stroke="#D05D4B" stroke-width="4"/>
<path d="M172.5 335L172.5 284L272.5 284" stroke="#4760B2" stroke-width="4"/>
<path d="M270.5 254.141C270.5 252.959 271.269 252 272.218 252L284.492 252L297.131 252C298.08 252 298.849 252.959 298.849 254.141V302.859C298.849 304.041 298.08 305 297.131 305H272.218C271.269 305 270.5 304.041 270.5 302.859V254.141Z" fill="white" stroke="#304436"/>
<path d="M284.83 280.83C284.589 280.529 284.431 280.349 284.431 280.349C284.431 280.349 284.273 280.529 284.032 280.83C283.25 281.804 281.593 284.042 281.593 285.509C281.593 286.273 281.892 287.005 282.424 287.546C282.956 288.086 283.678 288.389 284.431 288.389C285.183 288.389 285.905 288.086 286.437 287.546C286.97 287.005 287.269 286.273 287.269 285.509C287.269 284.042 285.612 281.804 284.83 280.83Z" fill="#304436"/>
<path d="M276.663 260.507C276.663 259.893 277.155 259.395 277.762 259.395H291.587C292.194 259.395 292.686 259.893 292.686 260.507V263.83C292.686 264.444 292.194 264.942 291.587 264.942H277.762C277.155 264.942 276.663 264.444 276.663 263.83V260.507Z" fill="#93D3F6" stroke="#304436"/>
<path d="M277.895 264.326L283.853 260.012H285.702L279.744 264.326H277.895Z" fill="white" fill-opacity="0.3"/>
<path d="M280.771 264.326L286.729 260.012H287.756L281.798 264.326H280.771Z" fill="white" fill-opacity="0.3"/>
<ellipse cx="282.656" cy="269.087" rx="1.0631" ry="1.06408" fill="#304436"/>
<ellipse cx="286.909" cy="269.087" rx="1.0631" ry="1.06408" fill="#304436"/>
<path d="M209.912 299V290H211.436V299H209.912ZM216.144 292.712C218.112 292.712 219.456 294.164 219.456 295.976C219.456 297.788 218.112 299.24 216.144 299.24C214.176 299.24 212.832 297.788 212.832 295.976C212.832 294.164 214.176 292.712 216.144 292.712ZM216.168 297.8C217.14 297.8 217.872 297.02 217.872 295.976C217.872 294.92 217.14 294.152 216.168 294.152C215.16 294.152 214.416 294.92 214.416 295.976C214.416 297.032 215.16 297.8 216.168 297.8ZM223.808 297.8C224.408 297.8 224.888 297.524 225.176 297.104L226.364 298.016C225.8 298.76 224.912 299.24 223.808 299.24C221.72 299.24 220.472 297.74 220.472 295.976C220.472 294.212 221.72 292.712 223.808 292.712C224.912 292.712 225.8 293.192 226.364 293.936L225.176 294.848C224.888 294.428 224.408 294.152 223.784 294.152C222.788 294.152 222.056 294.92 222.056 295.976C222.056 297.044 222.788 297.8 223.808 297.8ZM229.1 299.18C227.888 299.18 227.06 298.484 227.06 297.368C227.06 296.456 227.768 295.772 229.064 295.556L230.912 295.244V295.088C230.912 294.452 230.432 294.044 229.736 294.044C229.148 294.044 228.692 294.32 228.368 294.764L227.252 293.912C227.792 293.168 228.68 292.712 229.784 292.712C231.536 292.712 232.436 293.756 232.436 295.088V299H230.912V298.412C230.528 298.88 229.808 299.18 229.1 299.18ZM228.572 297.296C228.572 297.704 228.896 297.968 229.412 297.968C230.108 297.968 230.612 297.644 230.912 297.164V296.312L229.472 296.552C228.836 296.66 228.572 296.924 228.572 297.296ZM234.182 299V290H235.706V299H234.182Z" fill="#535F57"/>
<path fill-rule="evenodd" clip-rule="evenodd" d="M242.688 126.547V130.955C242.688 130.668 242.93 130.436 243.228 130.436H246.472C246.771 130.436 247.013 130.668 247.013 130.955V126.547C247.013 126.834 246.771 127.066 246.472 127.066H243.228C242.93 127.066 242.688 126.834 242.688 126.547Z" fill="white"/>
<path d="M247.013 146.769V130.955C247.013 130.668 246.771 130.436 246.472 130.436H243.228C242.93 130.436 242.688 130.668 242.688 130.955V146.769C242.688 147.055 242.93 147.287 243.228 147.287H246.472C246.771 147.287 247.013 147.055 247.013 146.769Z" fill="white"/>
<path d="M246.472 123.696H243.228C242.93 123.696 242.688 123.928 242.688 124.214V126.547C242.688 126.834 242.93 127.066 243.228 127.066H246.472C246.771 127.066 247.013 126.834 247.013 126.547V124.214C247.013 123.928 246.771 123.696 246.472 123.696Z" fill="white"/>
<path fill-rule="evenodd" clip-rule="evenodd" d="M246.906 126.547V130.955C246.906 130.668 247.148 130.436 247.447 130.436H250.691C250.989 130.436 251.231 130.668 251.231 130.955V126.547C251.231 126.834 250.989 127.066 250.691 127.066H247.447C247.148 127.066 246.906 126.834 246.906 126.547Z" fill="white"/>
<path d="M251.231 146.769V130.955C251.231 130.668 250.989 130.436 250.691 130.436H247.447C247.148 130.436 246.906 130.668 246.906 130.955V146.769C246.906 147.055 247.148 147.287 247.447 147.287H250.691C250.989 147.287 251.231 147.055 251.231 146.769Z" fill="white"/>
<path d="M250.691 123.696H247.447C247.148 123.696 246.906 123.928 246.906 124.214V126.547C246.906 126.834 247.148 127.066 247.447 127.066H250.691C250.989 127.066 251.231 126.834 251.231 126.547V124.214C251.231 123.928 250.989 123.696 250.691 123.696Z" fill="white"/>
<path fill-rule="evenodd" clip-rule="evenodd" d="M251.125 126.539V130.946C251.125 130.66 251.367 130.428 251.666 130.428H254.909C255.208 130.428 255.45 130.66 255.45 130.946V126.539C255.45 126.826 255.208 127.058 254.909 127.058H251.666C251.367 127.058 251.125 126.826 251.125 126.539Z" fill="white"/>
<path d="M255.45 146.76V130.946C255.45 130.66 255.208 130.428 254.909 130.428H251.666C251.367 130.428 251.125 130.66 251.125 130.946V146.76C251.125 147.047 251.367 147.279 251.666 147.279H254.909C255.208 147.279 255.45 147.047 255.45 146.76Z" fill="white"/>
<path d="M254.909 123.688H251.666C251.367 123.688 251.125 123.92 251.125 124.206V126.539C251.125 126.826 251.367 127.058 251.666 127.058H254.909C255.208 127.058 255.45 126.826 255.45 126.539V124.206C255.45 123.92 255.208 123.688 254.909 123.688Z" fill="white"/>
<path fill-rule="evenodd" clip-rule="evenodd" d="M255.766 126.539V130.946C255.766 130.66 256.008 130.428 256.306 130.428H259.55C259.849 130.428 260.091 130.66 260.091 130.946V126.539C260.091 126.826 259.849 127.058 259.55 127.058H256.306C256.008 127.058 255.766 126.826 255.766 126.539Z" fill="white"/>
<path d="M260.091 146.76V130.946C260.091 130.66 259.849 130.428 259.55 130.428H256.306C256.008 130.428 255.766 130.66 255.766 130.946V146.76C255.766 147.047 256.008 147.279 256.306 147.279H259.55C259.849 147.279 260.091 147.047 260.091 146.76Z" fill="white"/>
<path d="M259.55 123.688H256.306C256.008 123.688 255.766 123.92 255.766 124.206V126.539C255.766 126.826 256.008 127.058 256.306 127.058H259.55C259.849 127.058 260.091 126.826 260.091 126.539V124.206C260.091 123.92 259.849 123.688 259.55 123.688Z" fill="white"/>
<path fill-rule="evenodd" clip-rule="evenodd" d="M259.984 126.539V130.946C259.984 130.66 260.226 130.428 260.525 130.428H263.769C264.067 130.428 264.309 130.66 264.309 130.946V126.539C264.309 126.826 264.067 127.058 263.769 127.058H260.525C260.226 127.058 259.984 126.826 259.984 126.539Z" fill="white"/>
<path d="M264.309 146.76V130.946C264.309 130.66 264.067 130.428 263.769 130.428H260.525C260.226 130.428 259.984 130.66 259.984 130.946V146.76C259.984 147.047 260.226 147.279 260.525 147.279H263.769C264.067 147.279 264.309 147.047 264.309 146.76Z" fill="white"/>
<path d="M263.769 123.688H260.525C260.226 123.688 259.984 123.92 259.984 124.206V126.539C259.984 126.826 260.226 127.058 260.525 127.058H263.769C264.067 127.058 264.309 126.826 264.309 126.539V124.206C264.309 123.92 264.067 123.688 263.769 123.688Z" fill="white"/>
<path d="M246.712 126.541V124.206C246.712 123.817 246.09 123.688 245.804 123.688V147.295C246.09 147.295 246.712 147.295 246.712 146.776V130.951V126.541Z" fill="#565656" fill-opacity="0.3"/>
<path fill-rule="evenodd" clip-rule="evenodd" d="M242.58 126.547V130.955C242.58 130.668 242.822 130.436 243.121 130.436H246.365C246.663 130.436 246.905 130.668 246.905 130.955V126.547C246.905 126.834 246.663 127.066 246.365 127.066H243.121C242.822 127.066 242.58 126.834 242.58 126.547Z" fill="#565656" fill-opacity="0.3"/>
<path d="M242.58 146.769V124.214M242.58 146.769C242.58 147.055 242.822 147.287 243.121 147.287H246.365C246.663 147.287 246.905 147.055 246.905 146.769M242.58 146.769V130.955M246.905 146.769V124.214M246.905 146.769V130.955M246.905 124.214C246.905 123.928 246.663 123.696 246.365 123.696H243.121C242.822 123.696 242.58 123.928 242.58 124.214M246.905 124.214V126.547M246.905 124.214V130.955M242.58 124.214V126.547M242.58 124.214V130.955M242.58 126.547C242.58 126.834 242.822 127.066 243.121 127.066H246.365C246.663 127.066 246.905 126.834 246.905 126.547M242.58 126.547V130.955M246.905 126.547V130.955M246.905 130.955C246.905 130.668 246.663 130.436 246.365 130.436H243.121C242.822 130.436 242.58 130.668 242.58 130.955" stroke="#304436"/>
<path d="M251.037 126.541V124.206C251.037 123.817 250.415 123.688 250.129 123.688V147.295C250.415 147.295 251.037 147.295 251.037 146.776V130.951V126.541Z" fill="#565656" fill-opacity="0.3"/>
<path fill-rule="evenodd" clip-rule="evenodd" d="M246.905 126.547V130.955C246.905 130.668 247.147 130.436 247.446 130.436H250.69C250.988 130.436 251.23 130.668 251.23 130.955V126.547C251.23 126.834 250.988 127.066 250.69 127.066H247.446C247.147 127.066 246.905 126.834 246.905 126.547Z" fill="#565656" fill-opacity="0.3"/>
<path d="M246.905 146.769V124.214M246.905 146.769C246.905 147.055 247.147 147.287 247.446 147.287H250.69C250.988 147.287 251.23 147.055 251.23 146.769M246.905 146.769V130.955M251.23 146.769V124.214M251.23 146.769V130.955M251.23 124.214C251.23 123.928 250.988 123.696 250.69 123.696H247.446C247.147 123.696 246.905 123.928 246.905 124.214M251.23 124.214V126.547M251.23 124.214V130.955M246.905 124.214V126.547M246.905 124.214V130.955M246.905 126.547C246.905 126.834 247.147 127.066 247.446 127.066H250.69C250.988 127.066 251.23 126.834 251.23 126.547M246.905 126.547V130.955M251.23 126.547V130.955M251.23 130.955C251.23 130.668 250.988 130.436 250.69 130.436H247.446C247.147 130.436 246.905 130.668 246.905 130.955" stroke="#304436"/>
<path d="M255.363 126.541V124.206C255.363 123.817 254.741 123.688 254.454 123.688V147.295C254.741 147.295 255.363 147.295 255.363 146.776V130.951V126.541Z" fill="#565656" fill-opacity="0.3"/>
<path fill-rule="evenodd" clip-rule="evenodd" d="M251.23 126.547V130.955C251.23 130.668 251.472 130.436 251.771 130.436H255.015C255.313 130.436 255.555 130.668 255.555 130.955V126.547C255.555 126.834 255.313 127.066 255.015 127.066H251.771C251.472 127.066 251.23 126.834 251.23 126.547Z" fill="#565656" fill-opacity="0.3"/>
<path d="M251.23 146.769V124.214M251.23 146.769C251.23 147.055 251.472 147.287 251.771 147.287H255.015C255.313 147.287 255.555 147.055 255.555 146.769M251.23 146.769V130.955M255.555 146.769V124.214M255.555 146.769V130.955M255.555 124.214C255.555 123.928 255.313 123.696 255.015 123.696H251.771C251.472 123.696 251.23 123.928 251.23 124.214M255.555 124.214V126.547M255.555 124.214V130.955M251.23 124.214V126.547M251.23 124.214V130.955M251.23 126.547C251.23 126.834 251.472 127.066 251.771 127.066H255.015C255.313 127.066 255.555 126.834 255.555 126.547M251.23 126.547V130.955M255.555 126.547V130.955M255.555 130.955C255.555 130.668 255.313 130.436 255.015 130.436H251.771C251.472 130.436 251.23 130.668 251.23 130.955" stroke="#304436"/>
<path d="M259.688 126.541V124.206C259.688 123.817 259.066 123.688 258.779 123.688V147.295C259.066 147.295 259.688 147.295 259.688 146.776V130.951V126.541Z" fill="#565656" fill-opacity="0.3"/>
<path fill-rule="evenodd" clip-rule="evenodd" d="M255.556 126.547V130.955C255.556 130.668 255.798 130.436 256.096 130.436H259.34C259.639 130.436 259.881 130.668 259.881 130.955V126.547C259.881 126.834 259.639 127.066 259.34 127.066H256.096C255.798 127.066 255.556 126.834 255.556 126.547Z" fill="#565656" fill-opacity="0.3"/>
<path d="M255.556 146.769V124.214M255.556 146.769C255.556 147.055 255.798 147.287 256.096 147.287H259.34C259.639 147.287 259.881 147.055 259.881 146.769M255.556 146.769V130.955M259.881 146.769V124.214M259.881 146.769V130.955M259.881 124.214C259.881 123.928 259.639 123.696 259.34 123.696H256.096C255.798 123.696 255.556 123.928 255.556 124.214M259.881 124.214V126.547M259.881 124.214V130.955M255.556 124.214V126.547M255.556 124.214V130.955M255.556 126.547C255.556 126.834 255.798 127.066 256.096 127.066H259.34C259.639 127.066 259.881 126.834 259.881 126.547M255.556 126.547V130.955M259.881 126.547V130.955M259.881 130.955C259.881 130.668 259.639 130.436 259.34 130.436H256.096C255.798 130.436 255.556 130.668 255.556 130.955" stroke="#304436"/>
<path d="M264.013 126.541V124.206C264.013 123.817 263.391 123.688 263.104 123.688V147.295C263.391 147.295 264.013 147.295 264.013 146.776V130.951V126.541Z" fill="#565656" fill-opacity="0.3"/>
<path fill-rule="evenodd" clip-rule="evenodd" d="M259.881 126.547V130.955C259.881 130.668 260.123 130.436 260.421 130.436H263.665C263.964 130.436 264.206 130.668 264.206 130.955V126.547C264.206 126.834 263.964 127.066 263.665 127.066H260.421C260.123 127.066 259.881 126.834 259.881 126.547Z" fill="#565656" fill-opacity="0.3"/>
<path d="M259.881 146.769V124.214M259.881 146.769C259.881 147.055 260.123 147.287 260.421 147.287H263.665C263.964 147.287 264.206 147.055 264.206 146.769M259.881 146.769V130.955M264.206 146.769V124.214M264.206 146.769V130.955M264.206 124.214C264.206 123.928 263.964 123.696 263.665 123.696H260.421C260.123 123.696 259.881 123.928 259.881 124.214M264.206 124.214V126.547M264.206 124.214V130.955M259.881 124.214V126.547M259.881 124.214V130.955M259.881 126.547C259.881 126.834 260.123 127.066 260.421 127.066H263.665C263.964 127.066 264.206 126.834 264.206 126.547M259.881 126.547V130.955M264.206 126.547V130.955M264.206 130.955C264.206 130.668 263.964 130.436 263.665 130.436H260.421C260.123 130.436 259.881 130.668 259.881 130.955" stroke="#304436"/>
<path d="M242.558 126.274L241.908 126.274C241.407 126.274 241 125.867 241 125.366C241 124.864 241.407 124.458 241.908 124.458L242.558 124.458L242.558 126.274Z" stroke="#304436"/>
<path d="M242.58 126.44L241.99 126.44C241.448 126.44 241.007 126 241.007 125.457C241.007 124.914 241.448 124.474 241.99 124.474L242.58 124.474L242.58 126.44Z" fill="white" stroke="#304436"/>
<path d="M264.206 124.474H264.795C265.338 124.474 265.778 124.914 265.778 125.457C265.778 126 265.338 126.44 264.795 126.44H264.206L264.206 124.474Z" fill="white" stroke="#304436"/>
<path d="M201.591 76.2019H205.473H265.417V70.1587H201.591V76.2019Z" fill="#E2D2C3" stroke="#304436" stroke-width="2"/>
<path d="M205.641 86.7959V306H269.468C269.468 306 251.003 289.399 246.044 274.538C236.483 245.887 272.419 241.04 269.468 216.495C267.477 199.937 254.406 194.999 251.087 178.694C248.399 165.489 252.919 157.109 251.048 144.061C249.136 130.727 243.716 119.959 238.576 109.748C235.957 104.545 231.037 91.976 229.065 86.7959C228.215 83.3255 227.706 79.751 227.675 76H205.641V86.7959Z" fill="url(#pattern0_2275_5498)" stroke="#304436" stroke-width="2"/>
<path d="M205.606 157.906H200V151H205.606H210.35H220.269H230.054H240.835H250.826V157.906H240.835H230.054H220.269H210.35H205.606Z" fill="#E2D2C3"/>
<path d="M250.826 157.906H210.35M250.826 157.906H220.269M250.826 157.906V151M250.826 151H210.35M250.826 151H220.269M210.35 151H205.606H200V157.906H205.606H210.35M210.35 151V157.906M210.35 151H220.269M210.35 157.906H220.269M220.269 151V157.906M230.054 151V157.906M240.835 151V157.906" stroke="#304436" stroke-width="2"/>
<path d="M205.606 242.906H200V236H205.606H210.35H220.269H230.054H240.835H251.641H262.141L256.141 242.906H251.641H240.835H230.054H220.269H210.35H205.606Z" fill="#E2D2C3"/>
<path d="M256.141 242.906H210.35M256.141 242.906H220.269M256.141 242.906L262.141 236M262.141 236H210.35M262.141 236H220.269M210.35 236H205.606H200V242.906H205.606H210.35M210.35 236V242.906M210.35 236H220.269M210.35 242.906H220.269M220.269 236V242.906M230.054 236V242.906M240.835 236V242.906M251.641 236V242.906" stroke="#304436" stroke-width="2"/>
<path d="M233.169 17.4966L206 70.1586H266.054C265.599 45.0187 254.732 17.4966 254.732 17.4966H233.169Z" fill="#858181" stroke="#304436" stroke-width="2"/>
<path d="M246.97 19.9507L253.438 16.8305L266.376 10.59L285.783 19.9507V70.1585H253.438H246.97V19.9507Z" fill="#F3E1D1" stroke="#274430" stroke-width="2"/>
<g clip-path="url(#clip0_2275_5498)">
<rect x="252.145" y="21.813" width="28.4629" height="46.6189" rx="2" fill="#93D3F6"/>
<path d="M252.145 42.2087L269.66 21.813H280.608L252.145 56.7771V42.2087Z" fill="white" fill-opacity="0.3"/>
<path d="M253.239 68.4318L280.608 35.4102V41.2375L257.618 68.4318H253.239Z" fill="white" fill-opacity="0.3"/>
<rect x="252.145" y="21.813" width="28.4629" height="7.76981" fill="#565656" fill-opacity="0.3"/>
</g>
<rect x="252.145" y="21.813" width="28.4629" height="46.6189" rx="2" stroke="#274430" stroke-width="2"/>
<path fill-rule="evenodd" clip-rule="evenodd" d="M265.945 70.1585L265.945 21.813L267.67 21.813L267.67 70.1585L265.945 70.1585Z" fill="#304436"/>
<path fill-rule="evenodd" clip-rule="evenodd" d="M280.608 45.9857L252.145 45.9857L252.145 44.2591L280.608 44.2591L280.608 45.9857Z" fill="#304436"/>
<rect x="244.382" y="66.7052" width="43.9881" height="3.45325" rx="1.72662" fill="#F3E1D1" stroke="#274430" stroke-width="2"/>
<defs>
<filter id="filter0_d_2275_5498" x="33" y="244" width="158" height="24" filterUnits="userSpaceOnUse" color-interpolation-filters="sRGB">
<feFlood flood-opacity="0" result="BackgroundImageFix"/>
<feColorMatrix in="SourceAlpha" type="matrix" values="0 0 0 0 0 0 0 0 0 0 0 0 0 0 0 0 0 0 127 0" result="hardAlpha"/>
<feOffset dx="1" dy="1"/>
<feComposite in2="hardAlpha" operator="out"/>
<feColorMatrix type="matrix" values="0 0 0 0 0.188235 0 0 0 0 0.266667 0 0 0 0 0.211765 0 0 0 1 0"/>
<feBlend mode="normal" in2="BackgroundImageFix" result="effect1_dropShadow_2275_5498"/>
<feBlend mode="normal" in="SourceGraphic" in2="effect1_dropShadow_2275_5498" result="shape"/>
</filter>
<filter id="filter1_d_2275_5498" x="232" y="313" width="104" height="24" filterUnits="userSpaceOnUse" color-interpolation-filters="sRGB">
<feFlood flood-opacity="0" result="BackgroundImageFix"/>
<feColorMatrix in="SourceAlpha" type="matrix" values="0 0 0 0 0 0 0 0 0 0 0 0 0 0 0 0 0 0 127 0" result="hardAlpha"/>
<feOffset dx="1" dy="1"/>
<feComposite in2="hardAlpha" operator="out"/>
<feColorMatrix type="matrix" values="0 0 0 0 0.188235 0 0 0 0 0.266667 0 0 0 0 0.211765 0 0 0 1 0"/>
<feBlend mode="normal" in2="BackgroundImageFix" result="effect1_dropShadow_2275_5498"/>
<feBlend mode="normal" in="SourceGraphic" in2="effect1_dropShadow_2275_5498" result="shape"/>
</filter>
<clipPath id="clip0_2275_5498">
<rect x="252.145" y="21.813" width="28.4629" height="46.6189" rx="2" fill="white"/>
</clipPath>
<pattern id="pattern0_2275_5498" patternUnits="userSpaceOnUse" patternTransform="matrix(17 0 0 14 205.141 75.5)" preserveAspectRatio="none" viewBox="-0.5 -0.5 17 14" width="1" height="1">
<use xlink:href="#pattern0_2275_5498_inner" transform="translate(-25.5 -7)"/>
<use xlink:href="#pattern0_2275_5498_inner" transform="translate(-8.5 -7)"/>
<use xlink:href="#pattern0_2275_5498_inner" transform="translate(8.5 -7)"/>
<use xlink:href="#pattern0_2275_5498_inner" transform="translate(-34 0)"/>
<use xlink:href="#pattern0_2275_5498_inner" transform="translate(-17 0)"/>
<g id="pattern0_2275_5498_inner">
<rect width="17" height="7" fill="#F3E1D1" stroke="white"/>
</g>
<use xlink:href="#pattern0_2275_5498_inner" transform="translate(-25.5 7)"/>
<use xlink:href="#pattern0_2275_5498_inner" transform="translate(-8.5 7)"/>
<use xlink:href="#pattern0_2275_5498_inner" transform="translate(8.5 7)"/>
</pattern></defs>
</svg>
