<svg width="501" height="362" viewBox="0 0 501 362" fill="none" xmlns="http://www.w3.org/2000/svg" xmlns:xlink="http://www.w3.org/1999/xlink">
<path d="M0 0H500V362H0V0Z" fill="white"/>
<path d="M500 0H499V362H500H501V0H500Z" fill="#E9E9E9"/>
<path d="M434 288H56C46.6112 288 39 295.611 39 305V321C39 321 44.6904 323.442 48.5 324.5C64.5465 328.955 74.3628 321.735 91 321C110.312 320.147 121.184 320.228 140.5 321C158.307 321.712 168.259 326.189 186 324.5C199.768 323.19 206.946 332.753 220.5 330C242.774 325.476 255.277 321.487 278 321C296.222 320.61 306.308 326.116 324.5 325C335.139 324.347 340.892 322.043 351.5 321L351.814 320.969C372.803 318.905 385.081 317.697 406 321C424.123 323.862 451 334.5 451 334.5V305C451 295.611 443.389 288 434 288Z" fill="#9A8D81" stroke="#304436" stroke-width="2"/>
<path d="M39 354H451V334.5C451 334.5 424.123 323.861 406 321C385.081 317.697 372.803 318.905 351.814 320.969L351.5 321C340.892 322.043 335.139 324.347 324.5 325C306.308 326.116 296.222 320.61 278 321C255.277 321.487 242.774 325.476 220.5 330C206.946 332.753 199.768 323.189 186 324.5C168.259 326.189 158.307 321.712 140.5 321C121.184 320.228 110.312 320.147 91 321C74.3628 321.735 64.5465 328.955 48.5 324.5C44.6904 323.442 39 321 39 321V354Z" fill="#624D45" stroke="#304436" stroke-width="2"/>
<path d="M53.5 332H61.5" stroke="#304436" stroke-width="2" stroke-linecap="round"/>
<path d="M208 301H216" stroke="#304436" stroke-width="2" stroke-linecap="round"/>
<path d="M53 319H61" stroke="#304436" stroke-width="2" stroke-linecap="round"/>
<path d="M392 295H400" stroke="#304436" stroke-width="2" stroke-linecap="round"/>
<path d="M281 333H289" stroke="#304436" stroke-width="2" stroke-linecap="round"/>
<path d="M217 347H225" stroke="#304436" stroke-width="2" stroke-linecap="round"/>
<path d="M198 345H190" stroke="#304436" stroke-width="2" stroke-linecap="round"/>
<path d="M352.5 314H344.5" stroke="#304436" stroke-width="2" stroke-linecap="round"/>
<path d="M361 300H353" stroke="#304436" stroke-width="2" stroke-linecap="round"/>
<path d="M425.5 346H417.5" stroke="#304436" stroke-width="2" stroke-linecap="round"/>
<path d="M174 329H166" stroke="#304436" stroke-width="2" stroke-linecap="round"/>
<path d="M328.5 298H320.5" stroke="#304436" stroke-width="2" stroke-linecap="round"/>
<path d="M401.5 330H393.5" stroke="#304436" stroke-width="2" stroke-linecap="round"/>
<path d="M69.5 343H77.5" stroke="#304436" stroke-width="2" stroke-linecap="round"/>
<path d="M224 312H232" stroke="#304436" stroke-width="2" stroke-linecap="round"/>
<path d="M48 306H56" stroke="#304436" stroke-width="2" stroke-linecap="round"/>
<path d="M408 306H416" stroke="#304436" stroke-width="2" stroke-linecap="round"/>
<path d="M297 344H305" stroke="#304436" stroke-width="2" stroke-linecap="round"/>
<path d="M233 336H241" stroke="#304436" stroke-width="2" stroke-linecap="round"/>
<path d="M117.5 330H125.5" stroke="#304436" stroke-width="2" stroke-linecap="round"/>
<path d="M272 299H280" stroke="#304436" stroke-width="2" stroke-linecap="round"/>
<path d="M199 316H207" stroke="#304436" stroke-width="2" stroke-linecap="round"/>
<path d="M345 331H353" stroke="#304436" stroke-width="2" stroke-linecap="round"/>
<path d="M134 343H126" stroke="#304436" stroke-width="2" stroke-linecap="round"/>
<path d="M288.5 312H280.5" stroke="#304436" stroke-width="2" stroke-linecap="round"/>
<path d="M361.5 344H353.5" stroke="#304436" stroke-width="2" stroke-linecap="round"/>
<path d="M100.5 337H103.5" stroke="#304436" stroke-width="2" stroke-linecap="round"/>
<path d="M255 306H258" stroke="#304436" stroke-width="2" stroke-linecap="round"/>
<path d="M180 319H183" stroke="#304436" stroke-width="2" stroke-linecap="round"/>
<path d="M439 300H442" stroke="#304436" stroke-width="2" stroke-linecap="round"/>
<path d="M374 312H377" stroke="#304436" stroke-width="2" stroke-linecap="round"/>
<path d="M328 338H331" stroke="#304436" stroke-width="2" stroke-linecap="round"/>
<path d="M264 342H267" stroke="#304436" stroke-width="2" stroke-linecap="round"/>
<path d="M151 350H148" stroke="#304436" stroke-width="2" stroke-linecap="round"/>
<path d="M305.5 319H302.5" stroke="#304436" stroke-width="2" stroke-linecap="round"/>
<path d="M378.5 351H375.5" stroke="#304436" stroke-width="2" stroke-linecap="round"/>
<path d="M71 332L75 332" stroke="#304436" stroke-width="2" stroke-linecap="round"/>
<path d="M225.5 301L229.5 301" stroke="#304436" stroke-width="2" stroke-linecap="round"/>
<path d="M160 319L164 319" stroke="#304436" stroke-width="2" stroke-linecap="round"/>
<path d="M119 317L123 317" stroke="#304436" stroke-width="2" stroke-linecap="round"/>
<path d="M409.5 295L413.5 295" stroke="#304436" stroke-width="2" stroke-linecap="round"/>
<path d="M298.5 333L302.5 333" stroke="#304436" stroke-width="2" stroke-linecap="round"/>
<path d="M234.5 347L238.5 347" stroke="#304436" stroke-width="2" stroke-linecap="round"/>
<path d="M180.5 345L176.5 345" stroke="#304436" stroke-width="2" stroke-linecap="round"/>
<path d="M335 314L331 314" stroke="#304436" stroke-width="2" stroke-linecap="round"/>
<path d="M408 346L404 346" stroke="#304436" stroke-width="2" stroke-linecap="round"/>
<path d="M161.5 329L157.5 329" stroke="#304436" stroke-width="2" stroke-linecap="round"/>
<path d="M316 298L312 298" stroke="#304436" stroke-width="2" stroke-linecap="round"/>
<path d="M389 330L385 330" stroke="#304436" stroke-width="2" stroke-linecap="round"/>
<path d="M87 343L91 343" stroke="#304436" stroke-width="2" stroke-linecap="round"/>
<path d="M241.5 312L245.5 312" stroke="#304436" stroke-width="2" stroke-linecap="round"/>
<path d="M74 320L78 320" stroke="#304436" stroke-width="2" stroke-linecap="round"/>
<path d="M425.5 306L429.5 306" stroke="#304436" stroke-width="2" stroke-linecap="round"/>
<path d="M314.5 344L318.5 344" stroke="#304436" stroke-width="2" stroke-linecap="round"/>
<path d="M250.5 336L254.5 336" stroke="#304436" stroke-width="2" stroke-linecap="round"/>
<path d="M203 75H416V306H203V75Z" fill="#F3E1D1" stroke="#304436" stroke-width="2"/>
<g filter="url(#filter0_d_2277_6434)">
<rect x="271" y="310" width="96" height="20" fill="white" shape-rendering="crispEdges"/>
<rect x="271.5" y="310.5" width="95" height="19" stroke="#304436" shape-rendering="crispEdges"/>
<path d="M279.096 322.356V317.1H280.8V322.212C280.8 324.42 279.504 325.74 277.392 325.74C275.292 325.74 273.996 324.42 273.996 322.212V317.1H275.7V322.356C275.7 323.484 276.336 324.144 277.404 324.144C278.448 324.144 279.096 323.484 279.096 322.356ZM282.631 325.5V319.452H284.155V319.932C284.575 319.524 285.139 319.212 285.943 319.212C287.251 319.212 288.295 320.112 288.295 321.9V325.5H286.759V321.96C286.759 321.156 286.303 320.652 285.559 320.652C284.791 320.652 284.383 321.168 284.155 321.552V325.5H282.631ZM290.793 318.396C290.253 318.396 289.797 317.94 289.797 317.4C289.797 316.86 290.253 316.404 290.793 316.404C291.333 316.404 291.777 316.86 291.777 317.4C291.777 317.94 291.333 318.396 290.793 318.396ZM290.025 325.5V319.452H291.549V325.5H290.025ZM293.761 323.292V320.82H292.633V319.452H293.761V317.94H295.297V319.452H297.145V320.82H295.297V323.292C295.297 323.964 295.657 324.228 296.257 324.228C296.677 324.228 296.953 324.18 297.157 324.096V325.428C296.857 325.56 296.497 325.62 295.993 325.62C294.481 325.62 293.761 324.768 293.761 323.292ZM301.908 318.492H300.444L301.692 316.5H303.348L301.908 318.492ZM303.96 324.516C303.396 325.272 302.46 325.74 301.32 325.74C299.172 325.74 297.96 324.24 297.96 322.476C297.96 320.688 299.088 319.212 301.068 319.212C302.748 319.212 303.852 320.352 303.852 321.936C303.852 322.272 303.804 322.584 303.756 322.788H299.52C299.664 323.916 300.36 324.372 301.308 324.372C301.968 324.372 302.544 324.084 302.868 323.652L303.96 324.516ZM301.032 320.46C300.252 320.46 299.736 320.892 299.568 321.684H302.352C302.328 321.072 301.884 320.46 301.032 320.46ZM309.344 318.396C308.804 318.396 308.348 317.94 308.348 317.4C308.348 316.86 308.804 316.404 309.344 316.404C309.884 316.404 310.328 316.86 310.328 317.4C310.328 317.94 309.884 318.396 309.344 318.396ZM308.576 325.5V319.452H310.1V325.5H308.576ZM311.928 325.5V319.452H313.452V319.932C313.872 319.524 314.436 319.212 315.24 319.212C316.548 319.212 317.592 320.112 317.592 321.9V325.5H316.056V321.96C316.056 321.156 315.6 320.652 314.856 320.652C314.088 320.652 313.68 321.168 313.452 321.552V325.5H311.928ZM319.706 323.292V320.82H318.578V319.452H319.706V317.94H321.242V319.452H323.09V320.82H321.242V323.292C321.242 323.964 321.602 324.228 322.202 324.228C322.622 324.228 322.898 324.18 323.102 324.096V325.428C322.802 325.56 322.442 325.62 321.938 325.62C320.426 325.62 319.706 324.768 319.706 323.292ZM327.854 318.492H326.39L327.638 316.5H329.294L327.854 318.492ZM329.906 324.516C329.342 325.272 328.406 325.74 327.266 325.74C325.118 325.74 323.906 324.24 323.906 322.476C323.906 320.688 325.034 319.212 327.014 319.212C328.694 319.212 329.798 320.352 329.798 321.936C329.798 322.272 329.75 322.584 329.702 322.788H325.466C325.61 323.916 326.306 324.372 327.254 324.372C327.914 324.372 328.49 324.084 328.814 323.652L329.906 324.516ZM326.978 320.46C326.198 320.46 325.682 320.892 325.514 321.684H328.298C328.274 321.072 327.83 320.46 326.978 320.46ZM331.287 325.5V319.452H332.811V320.052C333.207 319.644 333.723 319.332 334.407 319.332C334.611 319.332 334.791 319.368 334.935 319.416V320.916C334.743 320.868 334.539 320.832 334.263 320.832C333.519 320.832 333.039 321.24 332.811 321.624V325.5H331.287ZM336.93 318.396C336.39 318.396 335.934 317.94 335.934 317.4C335.934 316.86 336.39 316.404 336.93 316.404C337.47 316.404 337.914 316.86 337.914 317.4C337.914 317.94 337.47 318.396 336.93 318.396ZM336.162 325.5V319.452H337.686V325.5H336.162ZM345.082 324.516C344.518 325.272 343.582 325.74 342.442 325.74C340.294 325.74 339.082 324.24 339.082 322.476C339.082 320.688 340.21 319.212 342.19 319.212C343.87 319.212 344.974 320.352 344.974 321.936C344.974 322.272 344.926 322.584 344.878 322.788H340.642C340.786 323.916 341.482 324.372 342.43 324.372C343.09 324.372 343.666 324.084 343.99 323.652L345.082 324.516ZM342.154 320.46C341.374 320.46 340.858 320.892 340.69 321.684H343.474C343.45 321.072 343.006 320.46 342.154 320.46ZM350.376 322.884V319.452H351.912V322.812C351.912 324.624 350.856 325.74 349.08 325.74C347.304 325.74 346.26 324.624 346.26 322.812V319.452H347.796V322.884C347.796 323.76 348.252 324.3 349.092 324.3C349.92 324.3 350.376 323.76 350.376 322.884ZM353.6 325.5V319.452H355.124V320.052C355.52 319.644 356.036 319.332 356.72 319.332C356.924 319.332 357.104 319.368 357.248 319.416V320.916C357.056 320.868 356.852 320.832 356.576 320.832C355.832 320.832 355.352 321.24 355.124 321.624V325.5H353.6ZM363.785 324.516C363.221 325.272 362.285 325.74 361.145 325.74C358.997 325.74 357.785 324.24 357.785 322.476C357.785 320.688 358.913 319.212 360.893 319.212C362.573 319.212 363.677 320.352 363.677 321.936C363.677 322.272 363.629 322.584 363.581 322.788H359.345C359.489 323.916 360.185 324.372 361.133 324.372C361.793 324.372 362.369 324.084 362.693 323.652L363.785 324.516ZM360.857 320.46C360.077 320.46 359.561 320.892 359.393 321.684H362.177C362.153 321.072 361.709 320.46 360.857 320.46Z" fill="#304436"/>
</g>
<rect x="229" y="155" width="186" height="4" fill="#CBB9A9"/>
<rect x="229" y="239" width="186" height="4" fill="#CBB9A9"/>
<rect x="229" y="70" width="188" height="6" fill="#727B74"/>
<rect x="276" y="76" width="167" height="3.99999" transform="rotate(90 276 76)" fill="#CBB9A9"/>
<rect x="353" y="76" width="167" height="3.99999" transform="rotate(90 353 76)" fill="#CBB9A9"/>
<path d="M130.118 275.89C129.076 275.611 128.298 274.973 127.784 273.976C127.269 272.98 127.165 271.909 127.472 270.764L129.971 271.435C129.867 271.824 129.9 272.182 130.069 272.51C130.238 272.839 130.5 273.049 130.853 273.143C131.207 273.238 131.54 273.186 131.85 272.987C132.161 272.787 132.367 272.493 132.471 272.105C132.575 271.716 132.542 271.358 132.372 271.031C132.203 270.703 131.942 270.492 131.589 270.396L103.471 262.855L104.206 260.108L132.324 267.649C133.365 267.929 134.143 268.567 134.658 269.563C135.172 270.56 135.276 271.631 134.97 272.775C134.664 273.92 134.039 274.795 133.095 275.401C132.152 276.006 131.159 276.17 130.118 275.89ZM105.677 254.614L106.412 251.867L139.529 260.749C140.07 260.894 140.57 260.82 141.028 260.526C141.487 260.232 141.795 259.787 141.955 259.192C142.114 258.597 142.069 258.057 141.819 257.573C141.569 257.089 141.173 256.774 140.632 256.629C140.09 256.484 139.59 256.558 139.132 256.852C138.674 257.146 138.365 257.591 138.206 258.186L135.706 257.516C136.068 256.165 136.795 255.139 137.887 254.438C138.979 253.737 140.139 253.552 141.367 253.882C142.596 254.211 143.508 254.953 144.104 256.107C144.7 257.261 144.816 258.513 144.454 259.862C144.093 261.213 143.366 262.239 142.275 262.94C141.183 263.641 140.023 263.827 138.793 263.496L105.677 254.614ZM139.601 275.489L140.336 272.742C140.878 272.888 141.378 272.813 141.836 272.519C142.294 272.225 142.603 271.78 142.762 271.185C142.922 270.59 142.876 270.05 142.627 269.566C142.377 269.082 141.981 268.767 141.439 268.622L104.574 258.735L105.309 255.988L142.175 265.875C143.404 266.205 144.316 266.946 144.911 268.1C145.507 269.254 145.624 270.506 145.262 271.855C144.9 273.206 144.174 274.232 143.082 274.933C141.991 275.635 140.83 275.82 139.601 275.489Z" fill="#304436"/>
<path d="M354.129 45.8823C354.129 43.8567 355.843 42.2147 357.958 42.2147H399.124C401.239 42.2147 402.953 43.8567 402.953 45.8823V66.9709C402.953 68.9965 401.239 70.6385 399.124 70.6385H357.958C355.843 70.6385 354.129 68.9965 354.129 66.9709V45.8823Z" fill="white" stroke="#304436" stroke-dasharray="2 2"/>
<path d="M364.534 47.7416C363.261 48.5922 362.801 50.9772 363.638 52.4478C364.013 52.9653 364.398 53.2684 364.398 53.2684C364.076 53.0585 363.825 52.7759 363.638 52.4478C363.21 51.8577 362.795 50.989 362.977 49.9734C363.317 48.0671 364.534 47.7416 364.534 47.7416Z" fill="white" fill-opacity="0.3"/>
<path d="M386.042 49.5029H396.458" stroke="#304436" stroke-width="2" stroke-linecap="round"/>
<path d="M386.042 53.4H396.458" stroke="#304436" stroke-width="2" stroke-linecap="round"/>
<path d="M386.042 57.12H396.458" stroke="#304436" stroke-width="2" stroke-linecap="round"/>
<path d="M366.289 55.0793L364.006 52.8273C363.131 51.9638 363.238 50.5212 364.312 49.923C364.952 49.5665 365.66 49.2287 366.289 49.0564C368.047 48.5752 370.958 48.9038 370.958 48.9038" stroke="#304436" stroke-width="2" stroke-linecap="round" stroke-linejoin="round"/>
<path d="M371.137 56.4207L374.301 55.5844C375.482 55.2724 376.662 56.0658 376.653 57.2731C376.647 58.009 376.591 58.7978 376.425 59.4321C375.968 61.1745 374.224 63.4971 374.224 63.4971" stroke="#304436" stroke-width="2" stroke-linecap="round" stroke-linejoin="round"/>
<path d="M367.317 59.8687L366.469 62.99C366.153 64.1541 364.866 64.7658 363.811 64.1543C363.168 63.7816 362.503 63.3393 362.029 62.8801C360.728 61.6189 359.561 58.9677 359.561 58.9677" stroke="#304436" stroke-width="2" stroke-linecap="round" stroke-linejoin="round"/>
<path d="M325 273.5H345.5L345.5 267L345.5 226.5M345.5 226.5H298.5M345.5 226.5L345.5 140.5H295.5" stroke="#465FB1" stroke-width="2" stroke-linecap="round" stroke-linejoin="round"/>
<path d="M305.5 258.5H290.5" stroke="#465FB1" stroke-width="2" stroke-linecap="round" stroke-linejoin="round"/>
<path d="M278.604 249.602C278.604 247.393 280.395 245.602 282.604 245.602L286.892 245.602L291.396 245.602C293.605 245.602 295.396 247.393 295.396 249.602V263.649C295.396 265.858 293.605 267.649 291.396 267.649H282.604C280.395 267.649 278.604 265.858 278.604 263.649V249.602Z" fill="white" stroke="#274430"/>
<path d="M293.202 245.602L294.262 245.602C294.863 245.602 295.35 246.089 295.35 246.69V265.501C295.35 266.687 294.389 267.649 293.202 267.649V245.602Z" fill="#565656" fill-opacity="0.3"/>
<circle cx="287" cy="251.231" r="2.07692" fill="#304436" stroke="#274430" stroke-width="2"/>
<path d="M287 249.846L287.423 251.521C287.492 251.796 287.284 252.064 287 252.064C286.716 252.064 286.508 251.796 286.577 251.521L287 249.846Z" fill="white"/>
<ellipse cx="287" cy="262.105" rx="1.11942" ry="1.10878" fill="white" fill-opacity="0.3"/>
<path d="M280.752 267.649H293.248C293.248 268.503 292.555 269.196 291.701 269.196H282.299C281.445 269.196 280.752 268.503 280.752 267.649Z" fill="white" stroke="#274430"/>
<rect width="0.558385" height="2.47684" transform="matrix(0.868081 -0.496423 0.503585 0.863945 286.16 261.135)" fill="white"/>
<path d="M293.053 267.842H292.49C292.106 267.842 291.725 267.898 291.355 268.002C290.894 268.132 290.236 268.311 289.734 268.422C288.155 268.772 285.633 269.002 285.633 269.002H293.053V267.842Z" fill="#565656" fill-opacity="0.3"/>
<path d="M288.901 262.045C288.786 261.774 288.619 261.532 288.411 261.332L288.24 261.166C288.234 261.161 288.227 261.157 288.219 261.155C288.212 261.153 288.204 261.153 288.196 261.155C288.189 261.157 288.182 261.161 288.176 261.167C288.17 261.172 288.166 261.179 288.163 261.187L288.086 261.418C288.038 261.563 287.951 261.711 287.826 261.856C287.818 261.865 287.808 261.868 287.802 261.868C287.795 261.869 287.785 261.868 287.777 261.859C287.768 261.852 287.764 261.841 287.765 261.829C287.787 261.457 287.68 261.036 287.448 260.579C287.256 260.199 286.988 259.902 286.654 259.696L286.411 259.545C286.379 259.525 286.338 259.551 286.34 259.59L286.353 259.888C286.362 260.091 286.339 260.27 286.286 260.419C286.221 260.602 286.128 260.772 286.009 260.924C285.926 261.03 285.832 261.125 285.728 261.209C285.48 261.41 285.277 261.667 285.137 261.961C284.996 262.258 284.923 262.585 284.923 262.916C284.923 263.209 284.978 263.492 285.087 263.758C285.191 264.015 285.343 264.248 285.532 264.445C285.723 264.643 285.945 264.799 286.192 264.907C286.448 265.02 286.72 265.077 287 265.077C287.28 265.077 287.552 265.02 287.808 264.908C288.054 264.8 288.279 264.643 288.468 264.446C288.659 264.247 288.809 264.016 288.913 263.759C289.022 263.493 289.078 263.206 289.077 262.917C289.077 262.615 289.018 262.322 288.901 262.045Z" fill="#304436"/>
<path d="M194 280H311" stroke="#B7CABD" stroke-width="2"/>
<path d="M148.129 261.882C148.129 259.857 149.843 258.215 151.958 258.215H193.124C195.239 258.215 196.953 259.857 196.953 261.882V282.971C196.953 284.996 195.239 286.639 193.124 286.639H151.958C149.843 286.639 148.129 284.996 148.129 282.971V261.882Z" fill="white" stroke="#304436"/>
<path d="M158.534 263.742C157.261 264.592 156.801 266.977 157.638 268.448C158.013 268.965 158.398 269.268 158.398 269.268C158.076 269.059 157.825 268.776 157.638 268.448C157.21 267.858 156.795 266.989 156.977 265.973C157.317 264.067 158.534 263.742 158.534 263.742Z" fill="white" fill-opacity="0.3"/>
<path d="M180.042 265.503H190.458" stroke="#304436" stroke-width="2" stroke-linecap="round"/>
<path d="M180.042 269.4H190.458" stroke="#304436" stroke-width="2" stroke-linecap="round"/>
<path d="M180.042 273.12H190.458" stroke="#304436" stroke-width="2" stroke-linecap="round"/>
<path d="M160.289 271.079L158.006 268.827C157.131 267.964 157.238 266.521 158.312 265.923C158.952 265.566 159.66 265.229 160.289 265.056C162.047 264.575 164.958 264.904 164.958 264.904" stroke="#304436" stroke-width="2" stroke-linecap="round" stroke-linejoin="round"/>
<path d="M165.137 272.421L168.301 271.584C169.482 271.272 170.662 272.066 170.653 273.273C170.647 274.009 170.591 274.798 170.425 275.432C169.968 277.175 168.224 279.497 168.224 279.497" stroke="#304436" stroke-width="2" stroke-linecap="round" stroke-linejoin="round"/>
<path d="M161.317 275.869L160.469 278.99C160.153 280.154 158.866 280.766 157.811 280.154C157.168 279.782 156.503 279.339 156.029 278.88C154.728 277.619 153.561 274.968 153.561 274.968" stroke="#304436" stroke-width="2" stroke-linecap="round" stroke-linejoin="round"/>
<g filter="url(#filter1_d_2277_6434)">
<rect x="82" y="294" width="98" height="20" fill="white" shape-rendering="crispEdges"/>
<rect x="82.5" y="294.5" width="97" height="19" stroke="#304436" shape-rendering="crispEdges"/>
<path d="M90.096 306.356V301.1H91.8V306.212C91.8 308.42 90.504 309.74 88.392 309.74C86.292 309.74 84.996 308.42 84.996 306.212V301.1H86.7V306.356C86.7 307.484 87.336 308.144 88.404 308.144C89.448 308.144 90.096 307.484 90.096 306.356ZM93.6308 309.5V303.452H95.1548V303.932C95.5748 303.524 96.1388 303.212 96.9428 303.212C98.2508 303.212 99.2948 304.112 99.2948 305.9V309.5H97.7588V305.96C97.7588 305.156 97.3028 304.652 96.5588 304.652C95.7908 304.652 95.3828 305.168 95.1548 305.552V309.5H93.6308ZM101.793 302.396C101.253 302.396 100.797 301.94 100.797 301.4C100.797 300.86 101.253 300.404 101.793 300.404C102.333 300.404 102.777 300.86 102.777 301.4C102.777 301.94 102.333 302.396 101.793 302.396ZM101.025 309.5V303.452H102.549V309.5H101.025ZM104.761 307.292V304.82H103.633V303.452H104.761V301.94H106.297V303.452H108.145V304.82H106.297V307.292C106.297 307.964 106.657 308.228 107.257 308.228C107.677 308.228 107.953 308.18 108.157 308.096V309.428C107.857 309.56 107.497 309.62 106.993 309.62C105.481 309.62 104.761 308.768 104.761 307.292ZM112.908 302.492H111.444L112.692 300.5H114.348L112.908 302.492ZM114.96 308.516C114.396 309.272 113.46 309.74 112.32 309.74C110.172 309.74 108.96 308.24 108.96 306.476C108.96 304.688 110.088 303.212 112.068 303.212C113.748 303.212 114.852 304.352 114.852 305.936C114.852 306.272 114.804 306.584 114.756 306.788H110.52C110.664 307.916 111.36 308.372 112.308 308.372C112.968 308.372 113.544 308.084 113.868 307.652L114.96 308.516ZM112.032 304.46C111.252 304.46 110.736 304.892 110.568 305.684H113.352C113.328 305.072 112.884 304.46 112.032 304.46ZM125.144 308.516C124.58 309.272 123.644 309.74 122.504 309.74C120.356 309.74 119.144 308.24 119.144 306.476C119.144 304.688 120.272 303.212 122.252 303.212C123.932 303.212 125.036 304.352 125.036 305.936C125.036 306.272 124.988 306.584 124.94 306.788H120.704C120.848 307.916 121.544 308.372 122.492 308.372C123.152 308.372 123.728 308.084 124.052 307.652L125.144 308.516ZM122.216 304.46C121.436 304.46 120.92 304.892 120.752 305.684H123.536C123.512 305.072 123.068 304.46 122.216 304.46ZM127.395 309.5H125.643L127.779 306.392L125.763 303.452H127.503L128.751 305.312L129.999 303.452H131.751L129.723 306.392L131.859 309.5H130.119L128.751 307.472L127.395 309.5ZM133.319 307.292V304.82H132.191V303.452H133.319V301.94H134.855V303.452H136.703V304.82H134.855V307.292C134.855 307.964 135.215 308.228 135.815 308.228C136.235 308.228 136.511 308.18 136.715 308.096V309.428C136.415 309.56 136.055 309.62 135.551 309.62C134.039 309.62 133.319 308.768 133.319 307.292ZM141.467 302.492H140.003L141.251 300.5H142.907L141.467 302.492ZM143.519 308.516C142.955 309.272 142.019 309.74 140.879 309.74C138.731 309.74 137.519 308.24 137.519 306.476C137.519 304.688 138.647 303.212 140.627 303.212C142.307 303.212 143.411 304.352 143.411 305.936C143.411 306.272 143.363 306.584 143.315 306.788H139.079C139.223 307.916 139.919 308.372 140.867 308.372C141.527 308.372 142.103 308.084 142.427 307.652L143.519 308.516ZM140.591 304.46C139.811 304.46 139.295 304.892 139.127 305.684H141.911C141.887 305.072 141.443 304.46 140.591 304.46ZM144.9 309.5V303.452H146.424V304.052C146.82 303.644 147.336 303.332 148.02 303.332C148.224 303.332 148.404 303.368 148.548 303.416V304.916C148.356 304.868 148.152 304.832 147.876 304.832C147.132 304.832 146.652 305.24 146.424 305.624V309.5H144.9ZM150.543 302.396C150.003 302.396 149.547 301.94 149.547 301.4C149.547 300.86 150.003 300.404 150.543 300.404C151.083 300.404 151.527 300.86 151.527 301.4C151.527 301.94 151.083 302.396 150.543 302.396ZM149.775 309.5V303.452H151.299V309.5H149.775ZM158.695 308.516C158.131 309.272 157.195 309.74 156.055 309.74C153.907 309.74 152.695 308.24 152.695 306.476C152.695 304.688 153.823 303.212 155.803 303.212C157.483 303.212 158.587 304.352 158.587 305.936C158.587 306.272 158.539 306.584 158.491 306.788H154.255C154.399 307.916 155.095 308.372 156.043 308.372C156.703 308.372 157.279 308.084 157.603 307.652L158.695 308.516ZM155.767 304.46C154.987 304.46 154.471 304.892 154.303 305.684H157.087C157.063 305.072 156.619 304.46 155.767 304.46ZM163.99 306.884V303.452H165.526V306.812C165.526 308.624 164.47 309.74 162.694 309.74C160.918 309.74 159.874 308.624 159.874 306.812V303.452H161.41V306.884C161.41 307.76 161.866 308.3 162.706 308.3C163.534 308.3 163.99 307.76 163.99 306.884ZM167.213 309.5V303.452H168.737V304.052C169.133 303.644 169.649 303.332 170.333 303.332C170.537 303.332 170.717 303.368 170.861 303.416V304.916C170.669 304.868 170.465 304.832 170.189 304.832C169.445 304.832 168.965 305.24 168.737 305.624V309.5H167.213ZM177.398 308.516C176.834 309.272 175.898 309.74 174.758 309.74C172.61 309.74 171.398 308.24 171.398 306.476C171.398 304.688 172.526 303.212 174.506 303.212C176.186 303.212 177.29 304.352 177.29 305.936C177.29 306.272 177.242 306.584 177.194 306.788H172.958C173.102 307.916 173.798 308.372 174.746 308.372C175.406 308.372 175.982 308.084 176.306 307.652L177.398 308.516ZM174.47 304.46C173.69 304.46 173.174 304.892 173.006 305.684H175.79C175.766 305.072 175.322 304.46 174.47 304.46Z" fill="#304436"/>
</g>
<g filter="url(#filter2_d_2277_6434)">
<rect x="361" y="283" width="121" height="20" fill="white" shape-rendering="crispEdges"/>
<rect x="361.5" y="283.5" width="120" height="19" stroke="#304436" shape-rendering="crispEdges"/>
<path d="M364.236 298.5V290.1H366.708C368.46 290.1 369.528 290.964 369.528 292.38C369.528 293.064 369.216 293.652 368.628 294.036C369.516 294.432 370.008 295.152 370.008 296.028C370.008 297.564 368.82 298.5 366.888 298.5H364.236ZM366.744 291.516H365.94V293.412H366.744C367.392 293.412 367.776 293.064 367.776 292.452C367.776 291.864 367.392 291.516 366.744 291.516ZM366.984 294.828H365.94V297.084H366.984C367.776 297.084 368.256 296.664 368.256 295.956C368.256 295.236 367.776 294.828 366.984 294.828ZM373.257 298.68C372.045 298.68 371.217 297.984 371.217 296.868C371.217 295.956 371.925 295.272 373.221 295.056L375.069 294.744V294.588C375.069 293.952 374.589 293.544 373.893 293.544C373.305 293.544 372.849 293.82 372.525 294.264L371.409 293.412C371.949 292.668 372.837 292.212 373.941 292.212C375.693 292.212 376.593 293.256 376.593 294.588V298.5H375.069V297.912C374.685 298.38 373.965 298.68 373.257 298.68ZM372.729 296.796C372.729 297.204 373.053 297.468 373.569 297.468C374.265 297.468 374.769 297.144 375.069 296.664V295.812L373.629 296.052C372.993 296.16 372.729 296.424 372.729 296.796ZM378.338 298.5V289.5H379.862V298.5H378.338ZM381.689 298.5V289.5H383.213V298.5H381.689ZM387.921 292.212C389.889 292.212 391.233 293.664 391.233 295.476C391.233 297.288 389.889 298.74 387.921 298.74C385.953 298.74 384.609 297.288 384.609 295.476C384.609 293.664 385.953 292.212 387.921 292.212ZM387.945 297.3C388.917 297.3 389.649 296.52 389.649 295.476C389.649 294.42 388.917 293.652 387.945 293.652C386.937 293.652 386.193 294.42 386.193 295.476C386.193 296.532 386.937 297.3 387.945 297.3ZM392.623 298.5V292.452H394.147V292.932C394.567 292.524 395.131 292.212 395.935 292.212C397.243 292.212 398.287 293.112 398.287 294.9V298.5H396.751V294.96C396.751 294.156 396.295 293.652 395.551 293.652C394.783 293.652 394.375 294.168 394.147 294.552V298.5H392.623ZM402.82 295.476C402.82 293.712 403.984 292.212 405.892 292.212C406.708 292.212 407.296 292.464 407.764 292.932V289.5H409.3V298.5H407.764V298.02C407.296 298.488 406.708 298.74 405.892 298.74C403.984 298.74 402.82 297.24 402.82 295.476ZM404.416 295.476C404.416 296.532 405.076 297.3 406.108 297.3C406.792 297.3 407.356 297.012 407.764 296.46V294.492C407.356 293.94 406.792 293.652 406.108 293.652C405.076 293.652 404.416 294.42 404.416 295.476ZM411.941 293.556H410.525L411.605 290.1H413.333L411.941 293.556ZM419.425 297.516C418.861 298.272 417.925 298.74 416.785 298.74C414.637 298.74 413.425 297.24 413.425 295.476C413.425 293.688 414.553 292.212 416.533 292.212C418.213 292.212 419.317 293.352 419.317 294.936C419.317 295.272 419.269 295.584 419.221 295.788H414.985C415.129 296.916 415.825 297.372 416.773 297.372C417.433 297.372 418.009 297.084 418.333 296.652L419.425 297.516ZM416.497 293.46C415.717 293.46 415.201 293.892 415.033 294.684H417.817C417.793 294.072 417.349 293.46 416.497 293.46ZM422.429 298.68C421.217 298.68 420.389 297.984 420.389 296.868C420.389 295.956 421.097 295.272 422.393 295.056L424.241 294.744V294.588C424.241 293.952 423.761 293.544 423.065 293.544C422.477 293.544 422.021 293.82 421.697 294.264L420.581 293.412C421.121 292.668 422.009 292.212 423.113 292.212C424.865 292.212 425.765 293.256 425.765 294.588V298.5H424.241V297.912C423.857 298.38 423.137 298.68 422.429 298.68ZM421.901 296.796C421.901 297.204 422.225 297.468 422.741 297.468C423.437 297.468 423.941 297.144 424.241 296.664V295.812L422.801 296.052C422.165 296.16 421.901 296.424 421.901 296.796ZM431.494 295.884V292.452H433.03V295.812C433.03 297.624 431.974 298.74 430.198 298.74C428.422 298.74 427.378 297.624 427.378 295.812V292.452H428.914V295.884C428.914 296.76 429.37 297.3 430.21 297.3C431.038 297.3 431.494 296.76 431.494 295.884ZM440.855 297.3C441.455 297.3 441.935 297.024 442.223 296.604L443.411 297.516C442.847 298.26 441.959 298.74 440.855 298.74C438.767 298.74 437.519 297.24 437.519 295.476C437.519 293.712 438.767 292.212 440.855 292.212C441.959 292.212 442.847 292.692 443.411 293.436L442.223 294.348C441.935 293.928 441.455 293.652 440.831 293.652C439.835 293.652 439.103 294.42 439.103 295.476C439.103 296.544 439.835 297.3 440.855 297.3ZM444.549 298.5V289.5H446.073V292.932C446.493 292.524 447.057 292.212 447.861 292.212C449.169 292.212 450.213 293.112 450.213 294.9V298.5H448.677V294.96C448.677 294.156 448.233 293.652 447.477 293.652C446.709 293.652 446.301 294.168 446.073 294.552V298.5H444.549ZM453.647 298.68C452.435 298.68 451.607 297.984 451.607 296.868C451.607 295.956 452.315 295.272 453.611 295.056L455.459 294.744V294.588C455.459 293.952 454.979 293.544 454.283 293.544C453.695 293.544 453.239 293.82 452.915 294.264L451.799 293.412C452.339 292.668 453.227 292.212 454.331 292.212C456.083 292.212 456.983 293.256 456.983 294.588V298.5H455.459V297.912C455.075 298.38 454.355 298.68 453.647 298.68ZM453.119 296.796C453.119 297.204 453.443 297.468 453.959 297.468C454.655 297.468 455.159 297.144 455.459 296.664V295.812L454.019 296.052C453.383 296.16 453.119 296.424 453.119 296.796ZM462.712 295.884V292.452H464.248V295.812C464.248 297.624 463.192 298.74 461.416 298.74C459.64 298.74 458.596 297.624 458.596 295.812V292.452H460.132V295.884C460.132 296.76 460.588 297.3 461.428 297.3C462.256 297.3 462.712 296.76 462.712 295.884ZM465.503 295.476C465.503 293.712 466.667 292.212 468.575 292.212C469.391 292.212 469.979 292.464 470.447 292.932V289.5H471.983V298.5H470.447V298.02C469.979 298.488 469.391 298.74 468.575 298.74C466.667 298.74 465.503 297.24 465.503 295.476ZM467.099 295.476C467.099 296.532 467.759 297.3 468.791 297.3C469.475 297.3 470.039 297.012 470.447 296.46V294.492C470.039 293.94 469.475 293.652 468.791 293.652C467.759 293.652 467.099 294.42 467.099 295.476ZM479.378 297.516C478.814 298.272 477.878 298.74 476.738 298.74C474.59 298.74 473.378 297.24 473.378 295.476C473.378 293.688 474.506 292.212 476.486 292.212C478.166 292.212 479.27 293.352 479.27 294.936C479.27 295.272 479.222 295.584 479.174 295.788H474.938C475.082 296.916 475.778 297.372 476.726 297.372C477.386 297.372 477.962 297.084 478.286 296.652L479.378 297.516ZM476.45 293.46C475.67 293.46 475.154 293.892 474.986 294.684H477.77C477.746 294.072 477.302 293.46 476.45 293.46Z" fill="#304436"/>
</g>
<g filter="url(#filter3_d_2277_6434)">
<rect x="107" y="223" width="22" height="20" fill="white" shape-rendering="crispEdges"/>
<rect x="107.5" y="223.5" width="21" height="19" stroke="#304436" shape-rendering="crispEdges"/>
<path d="M109.18 238.5L112.36 230.1H114.592L117.772 238.5H115.96L115.156 236.316H111.796L110.992 238.5H109.18ZM112.324 234.864H114.628L113.476 231.708L112.324 234.864ZM119.996 231.396C119.456 231.396 119 230.94 119 230.4C119 229.86 119.456 229.404 119.996 229.404C120.536 229.404 120.98 229.86 120.98 230.4C120.98 230.94 120.536 231.396 119.996 231.396ZM119.228 238.5V232.452H120.752V238.5H119.228ZM122.58 238.5V232.452H124.104V233.052C124.5 232.644 125.016 232.332 125.7 232.332C125.904 232.332 126.084 232.368 126.228 232.416V233.916C126.036 233.868 125.832 233.832 125.556 233.832C124.812 233.832 124.332 234.24 124.104 234.624V238.5H122.58Z" fill="#304436"/>
</g>
<path fill-rule="evenodd" clip-rule="evenodd" d="M282.297 218.537V221.965C282.297 221.742 282.485 221.561 282.717 221.561H285.24C285.473 221.561 285.661 221.742 285.661 221.965V218.537C285.661 218.76 285.473 218.94 285.24 218.94H282.717C282.485 218.94 282.297 218.76 282.297 218.537Z" fill="white"/>
<path d="M285.661 234.264V221.965C285.661 221.742 285.473 221.561 285.24 221.561H282.717C282.485 221.561 282.297 221.742 282.297 221.965V234.264C282.297 234.487 282.485 234.668 282.717 234.668H285.24C285.473 234.668 285.661 234.487 285.661 234.264Z" fill="white"/>
<path d="M285.24 216.319H282.717C282.485 216.319 282.297 216.499 282.297 216.722V218.537C282.297 218.76 282.485 218.94 282.717 218.94H285.24C285.473 218.94 285.661 218.76 285.661 218.537V216.722C285.661 216.499 285.473 216.319 285.24 216.319Z" fill="white"/>
<path fill-rule="evenodd" clip-rule="evenodd" d="M285.578 218.537V221.965C285.578 221.742 285.766 221.561 285.999 221.561H288.522C288.754 221.561 288.942 221.742 288.942 221.965V218.537C288.942 218.76 288.754 218.94 288.522 218.94H285.999C285.766 218.94 285.578 218.76 285.578 218.537Z" fill="white"/>
<path d="M288.942 234.264V221.965C288.942 221.742 288.754 221.561 288.522 221.561H285.999C285.766 221.561 285.578 221.742 285.578 221.965V234.264C285.578 234.487 285.766 234.668 285.999 234.668H288.522C288.754 234.668 288.942 234.487 288.942 234.264Z" fill="white"/>
<path d="M288.522 216.319H285.999C285.766 216.319 285.578 216.499 285.578 216.722V218.537C285.578 218.76 285.766 218.94 285.999 218.94H288.522C288.754 218.94 288.942 218.76 288.942 218.537V216.722C288.942 216.499 288.754 216.319 288.522 216.319Z" fill="white"/>
<path fill-rule="evenodd" clip-rule="evenodd" d="M288.859 218.53V221.958C288.859 221.736 289.048 221.555 289.28 221.555H291.803C292.035 221.555 292.223 221.736 292.223 221.958V218.53C292.223 218.753 292.035 218.934 291.803 218.934H289.28C289.048 218.934 288.859 218.753 288.859 218.53Z" fill="white"/>
<path d="M292.223 234.258V221.958C292.223 221.736 292.035 221.555 291.803 221.555H289.28C289.048 221.555 288.859 221.736 288.859 221.958V234.258C288.859 234.481 289.048 234.661 289.28 234.661H291.803C292.035 234.661 292.223 234.481 292.223 234.258Z" fill="white"/>
<path d="M291.803 216.312H289.28C289.048 216.312 288.859 216.493 288.859 216.716V218.53C288.859 218.753 289.048 218.934 289.28 218.934H291.803C292.035 218.934 292.223 218.753 292.223 218.53V216.716C292.223 216.493 292.035 216.312 291.803 216.312Z" fill="white"/>
<path fill-rule="evenodd" clip-rule="evenodd" d="M292.469 218.53V221.958C292.469 221.736 292.657 221.555 292.889 221.555H295.412C295.644 221.555 295.833 221.736 295.833 221.958V218.53C295.833 218.753 295.644 218.934 295.412 218.934H292.889C292.657 218.934 292.469 218.753 292.469 218.53Z" fill="white"/>
<path d="M295.833 234.258V221.958C295.833 221.736 295.644 221.555 295.412 221.555H292.889C292.657 221.555 292.469 221.736 292.469 221.958V234.258C292.469 234.481 292.657 234.661 292.889 234.661H295.412C295.644 234.661 295.833 234.481 295.833 234.258Z" fill="white"/>
<path d="M295.412 216.312H292.889C292.657 216.312 292.469 216.493 292.469 216.716V218.53C292.469 218.753 292.657 218.934 292.889 218.934H295.412C295.644 218.934 295.833 218.753 295.833 218.53V216.716C295.833 216.493 295.644 216.312 295.412 216.312Z" fill="white"/>
<path fill-rule="evenodd" clip-rule="evenodd" d="M295.75 218.53V221.958C295.75 221.736 295.938 221.555 296.17 221.555H298.693C298.926 221.555 299.114 221.736 299.114 221.958V218.53C299.114 218.753 298.926 218.934 298.693 218.934H296.17C295.938 218.934 295.75 218.753 295.75 218.53Z" fill="white"/>
<path d="M299.114 234.258V221.958C299.114 221.736 298.926 221.555 298.693 221.555H296.17C295.938 221.555 295.75 221.736 295.75 221.958V234.258C295.75 234.481 295.938 234.661 296.17 234.661H298.693C298.926 234.661 299.114 234.481 299.114 234.258Z" fill="white"/>
<path d="M298.693 216.312H296.17C295.938 216.312 295.75 216.493 295.75 216.716V218.53C295.75 218.753 295.938 218.934 296.17 218.934H298.693C298.926 218.934 299.114 218.753 299.114 218.53V216.716C299.114 216.493 298.926 216.312 298.693 216.312Z" fill="white"/>
<path d="M285.427 218.532V216.716C285.427 216.413 284.944 216.312 284.72 216.312V234.674C284.944 234.674 285.427 234.674 285.427 234.27V221.962V218.532Z" fill="#565656" fill-opacity="0.3"/>
<path fill-rule="evenodd" clip-rule="evenodd" d="M282.213 218.537V221.965C282.213 221.742 282.402 221.561 282.634 221.561H285.157C285.389 221.561 285.577 221.742 285.577 221.965V218.537C285.577 218.76 285.389 218.94 285.157 218.94H282.634C282.402 218.94 282.213 218.76 282.213 218.537Z" fill="#565656" fill-opacity="0.3"/>
<path d="M282.213 234.264V216.722M282.213 234.264C282.213 234.487 282.402 234.668 282.634 234.668H285.157C285.389 234.668 285.577 234.487 285.577 234.264M282.213 234.264V221.965M285.577 234.264V216.722M285.577 234.264V221.965M285.577 216.722C285.577 216.499 285.389 216.319 285.157 216.319H282.634C282.402 216.319 282.213 216.499 282.213 216.722M285.577 216.722V218.537M285.577 216.722V221.965M282.213 216.722V218.537M282.213 216.722V221.965M282.213 218.537C282.213 218.76 282.402 218.94 282.634 218.94H285.157C285.389 218.94 285.577 218.76 285.577 218.537M282.213 218.537V221.965M285.577 218.537V221.965M285.577 221.965C285.577 221.742 285.389 221.561 285.157 221.561H282.634C282.402 221.561 282.213 221.742 282.213 221.965" stroke="#304436"/>
<path d="M288.791 218.532V216.716C288.791 216.413 288.308 216.312 288.084 216.312V234.674C288.308 234.674 288.791 234.674 288.791 234.27V221.962V218.532Z" fill="#565656" fill-opacity="0.3"/>
<path fill-rule="evenodd" clip-rule="evenodd" d="M285.577 218.537V221.965C285.577 221.742 285.766 221.561 285.998 221.561H288.521C288.753 221.561 288.941 221.742 288.941 221.965V218.537C288.941 218.76 288.753 218.94 288.521 218.94H285.998C285.766 218.94 285.577 218.76 285.577 218.537Z" fill="#565656" fill-opacity="0.3"/>
<path d="M285.577 234.264V216.722M285.577 234.264C285.577 234.487 285.766 234.668 285.998 234.668H288.521C288.753 234.668 288.941 234.487 288.941 234.264M285.577 234.264V221.965M288.941 234.264V216.722M288.941 234.264V221.965M288.941 216.722C288.941 216.499 288.753 216.319 288.521 216.319H285.998C285.766 216.319 285.577 216.499 285.577 216.722M288.941 216.722V218.537M288.941 216.722V221.965M285.577 216.722V218.537M285.577 216.722V221.965M285.577 218.537C285.577 218.76 285.766 218.94 285.998 218.94H288.521C288.753 218.94 288.941 218.76 288.941 218.537M285.577 218.537V221.965M288.941 218.537V221.965M288.941 221.965C288.941 221.742 288.753 221.561 288.521 221.561H285.998C285.766 221.561 285.577 221.742 285.577 221.965" stroke="#304436"/>
<path d="M292.155 218.532V216.716C292.155 216.413 291.672 216.312 291.448 216.312V234.674C291.672 234.674 292.155 234.674 292.155 234.27V221.962V218.532Z" fill="#565656" fill-opacity="0.3"/>
<path fill-rule="evenodd" clip-rule="evenodd" d="M288.941 218.537V221.965C288.941 221.742 289.13 221.561 289.362 221.561H291.885C292.117 221.561 292.305 221.742 292.305 221.965V218.537C292.305 218.76 292.117 218.94 291.885 218.94H289.362C289.13 218.94 288.941 218.76 288.941 218.537Z" fill="#565656" fill-opacity="0.3"/>
<path d="M288.941 234.264V216.722M288.941 234.264C288.941 234.487 289.13 234.668 289.362 234.668H291.885C292.117 234.668 292.305 234.487 292.305 234.264M288.941 234.264V221.965M292.305 234.264V216.722M292.305 234.264V221.965M292.305 216.722C292.305 216.499 292.117 216.319 291.885 216.319H289.362C289.13 216.319 288.941 216.499 288.941 216.722M292.305 216.722V218.537M292.305 216.722V221.965M288.941 216.722V218.537M288.941 216.722V221.965M288.941 218.537C288.941 218.76 289.13 218.94 289.362 218.94H291.885C292.117 218.94 292.305 218.76 292.305 218.537M288.941 218.537V221.965M292.305 218.537V221.965M292.305 221.965C292.305 221.742 292.117 221.561 291.885 221.561H289.362C289.13 221.561 288.941 221.742 288.941 221.965" stroke="#304436"/>
<path d="M295.519 218.532V216.716C295.519 216.413 295.035 216.312 294.812 216.312V234.674C295.035 234.674 295.519 234.674 295.519 234.27V221.962V218.532Z" fill="#565656" fill-opacity="0.3"/>
<path fill-rule="evenodd" clip-rule="evenodd" d="M292.305 218.537V221.965C292.305 221.742 292.493 221.561 292.726 221.561H295.249C295.481 221.561 295.669 221.742 295.669 221.965V218.537C295.669 218.76 295.481 218.94 295.249 218.94H292.726C292.493 218.94 292.305 218.76 292.305 218.537Z" fill="#565656" fill-opacity="0.3"/>
<path d="M292.305 234.264V216.722M292.305 234.264C292.305 234.487 292.493 234.668 292.726 234.668H295.249C295.481 234.668 295.669 234.487 295.669 234.264M292.305 234.264V221.965M295.669 234.264V216.722M295.669 234.264V221.965M295.669 216.722C295.669 216.499 295.481 216.319 295.249 216.319H292.726C292.493 216.319 292.305 216.499 292.305 216.722M295.669 216.722V218.537M295.669 216.722V221.965M292.305 216.722V218.537M292.305 216.722V221.965M292.305 218.537C292.305 218.76 292.493 218.94 292.726 218.94H295.249C295.481 218.94 295.669 218.76 295.669 218.537M292.305 218.537V221.965M295.669 218.537V221.965M295.669 221.965C295.669 221.742 295.481 221.561 295.249 221.561H292.726C292.493 221.561 292.305 221.742 292.305 221.965" stroke="#304436"/>
<path d="M298.883 218.532V216.716C298.883 216.413 298.399 216.312 298.176 216.312V234.674C298.399 234.674 298.883 234.674 298.883 234.27V221.962V218.532Z" fill="#565656" fill-opacity="0.3"/>
<path fill-rule="evenodd" clip-rule="evenodd" d="M295.669 218.537V221.965C295.669 221.742 295.857 221.561 296.09 221.561H298.613C298.845 221.561 299.033 221.742 299.033 221.965V218.537C299.033 218.76 298.845 218.94 298.613 218.94H296.09C295.857 218.94 295.669 218.76 295.669 218.537Z" fill="#565656" fill-opacity="0.3"/>
<path d="M295.669 234.264V216.722M295.669 234.264C295.669 234.487 295.857 234.668 296.09 234.668H298.613C298.845 234.668 299.033 234.487 299.033 234.264M295.669 234.264V221.965M299.033 234.264V216.722M299.033 234.264V221.965M299.033 216.722C299.033 216.499 298.845 216.319 298.613 216.319H296.09C295.857 216.319 295.669 216.499 295.669 216.722M299.033 216.722V218.537M299.033 216.722V221.965M295.669 216.722V218.537M295.669 216.722V221.965M295.669 218.537C295.669 218.76 295.857 218.94 296.09 218.94H298.613C298.845 218.94 299.033 218.76 299.033 218.537M295.669 218.537V221.965M299.033 218.537V221.965M299.033 221.965C299.033 221.742 298.845 221.561 298.613 221.561H296.09C295.857 221.561 295.669 221.742 295.669 221.965" stroke="#304436"/>
<path d="M282.196 218.324L281.691 218.324C281.301 218.324 280.984 218.008 280.984 217.618C280.984 217.228 281.301 216.912 281.691 216.912L282.196 216.912L282.196 218.324Z" stroke="#304436"/>
<path d="M282.213 218.453L281.755 218.453C281.332 218.453 280.99 218.111 280.99 217.689C280.99 217.266 281.332 216.924 281.755 216.924L282.213 216.924L282.213 218.453Z" fill="white" stroke="#304436"/>
<path d="M299.033 216.924H299.492C299.914 216.924 300.256 217.266 300.256 217.689C300.256 218.111 299.914 218.453 299.492 218.453H299.033L299.033 216.924Z" fill="white" stroke="#304436"/>
<path fill-rule="evenodd" clip-rule="evenodd" d="M282.297 133.537V136.965C282.297 136.742 282.485 136.561 282.717 136.561H285.24C285.473 136.561 285.661 136.742 285.661 136.965V133.537C285.661 133.76 285.473 133.94 285.24 133.94H282.717C282.485 133.94 282.297 133.76 282.297 133.537Z" fill="white"/>
<path d="M285.661 149.264V136.965C285.661 136.742 285.473 136.561 285.24 136.561H282.717C282.485 136.561 282.297 136.742 282.297 136.965V149.264C282.297 149.487 282.485 149.668 282.717 149.668H285.24C285.473 149.668 285.661 149.487 285.661 149.264Z" fill="white"/>
<path d="M285.24 131.319H282.717C282.485 131.319 282.297 131.499 282.297 131.722V133.537C282.297 133.76 282.485 133.94 282.717 133.94H285.24C285.473 133.94 285.661 133.76 285.661 133.537V131.722C285.661 131.499 285.473 131.319 285.24 131.319Z" fill="white"/>
<path fill-rule="evenodd" clip-rule="evenodd" d="M285.578 133.537V136.965C285.578 136.742 285.766 136.561 285.999 136.561H288.522C288.754 136.561 288.942 136.742 288.942 136.965V133.537C288.942 133.76 288.754 133.94 288.522 133.94H285.999C285.766 133.94 285.578 133.76 285.578 133.537Z" fill="white"/>
<path d="M288.942 149.264V136.965C288.942 136.742 288.754 136.561 288.522 136.561H285.999C285.766 136.561 285.578 136.742 285.578 136.965V149.264C285.578 149.487 285.766 149.668 285.999 149.668H288.522C288.754 149.668 288.942 149.487 288.942 149.264Z" fill="white"/>
<path d="M288.522 131.319H285.999C285.766 131.319 285.578 131.499 285.578 131.722V133.537C285.578 133.76 285.766 133.94 285.999 133.94H288.522C288.754 133.94 288.942 133.76 288.942 133.537V131.722C288.942 131.499 288.754 131.319 288.522 131.319Z" fill="white"/>
<path fill-rule="evenodd" clip-rule="evenodd" d="M288.859 133.53V136.958C288.859 136.736 289.048 136.555 289.28 136.555H291.803C292.035 136.555 292.223 136.736 292.223 136.958V133.53C292.223 133.753 292.035 133.934 291.803 133.934H289.28C289.048 133.934 288.859 133.753 288.859 133.53Z" fill="white"/>
<path d="M292.223 149.258V136.958C292.223 136.736 292.035 136.555 291.803 136.555H289.28C289.048 136.555 288.859 136.736 288.859 136.958V149.258C288.859 149.481 289.048 149.661 289.28 149.661H291.803C292.035 149.661 292.223 149.481 292.223 149.258Z" fill="white"/>
<path d="M291.803 131.312H289.28C289.048 131.312 288.859 131.493 288.859 131.716V133.53C288.859 133.753 289.048 133.934 289.28 133.934H291.803C292.035 133.934 292.223 133.753 292.223 133.53V131.716C292.223 131.493 292.035 131.312 291.803 131.312Z" fill="white"/>
<path fill-rule="evenodd" clip-rule="evenodd" d="M292.469 133.53V136.958C292.469 136.736 292.657 136.555 292.889 136.555H295.412C295.644 136.555 295.833 136.736 295.833 136.958V133.53C295.833 133.753 295.644 133.934 295.412 133.934H292.889C292.657 133.934 292.469 133.753 292.469 133.53Z" fill="white"/>
<path d="M295.833 149.258V136.958C295.833 136.736 295.644 136.555 295.412 136.555H292.889C292.657 136.555 292.469 136.736 292.469 136.958V149.258C292.469 149.481 292.657 149.661 292.889 149.661H295.412C295.644 149.661 295.833 149.481 295.833 149.258Z" fill="white"/>
<path d="M295.412 131.312H292.889C292.657 131.312 292.469 131.493 292.469 131.716V133.53C292.469 133.753 292.657 133.934 292.889 133.934H295.412C295.644 133.934 295.833 133.753 295.833 133.53V131.716C295.833 131.493 295.644 131.312 295.412 131.312Z" fill="white"/>
<path fill-rule="evenodd" clip-rule="evenodd" d="M295.75 133.53V136.958C295.75 136.736 295.938 136.555 296.17 136.555H298.693C298.926 136.555 299.114 136.736 299.114 136.958V133.53C299.114 133.753 298.926 133.934 298.693 133.934H296.17C295.938 133.934 295.75 133.753 295.75 133.53Z" fill="white"/>
<path d="M299.114 149.258V136.958C299.114 136.736 298.926 136.555 298.693 136.555H296.17C295.938 136.555 295.75 136.736 295.75 136.958V149.258C295.75 149.481 295.938 149.661 296.17 149.661H298.693C298.926 149.661 299.114 149.481 299.114 149.258Z" fill="white"/>
<path d="M298.693 131.312H296.17C295.938 131.312 295.75 131.493 295.75 131.716V133.53C295.75 133.753 295.938 133.934 296.17 133.934H298.693C298.926 133.934 299.114 133.753 299.114 133.53V131.716C299.114 131.493 298.926 131.312 298.693 131.312Z" fill="white"/>
<path d="M285.427 133.532V131.716C285.427 131.413 284.944 131.312 284.72 131.312V149.674C284.944 149.674 285.427 149.674 285.427 149.27V136.962V133.532Z" fill="#565656" fill-opacity="0.3"/>
<path fill-rule="evenodd" clip-rule="evenodd" d="M282.213 133.537V136.965C282.213 136.742 282.402 136.561 282.634 136.561H285.157C285.389 136.561 285.577 136.742 285.577 136.965V133.537C285.577 133.76 285.389 133.94 285.157 133.94H282.634C282.402 133.94 282.213 133.76 282.213 133.537Z" fill="#565656" fill-opacity="0.3"/>
<path d="M282.213 149.264V131.722M282.213 149.264C282.213 149.487 282.402 149.668 282.634 149.668H285.157C285.389 149.668 285.577 149.487 285.577 149.264M282.213 149.264V136.965M285.577 149.264V131.722M285.577 149.264V136.965M285.577 131.722C285.577 131.499 285.389 131.319 285.157 131.319H282.634C282.402 131.319 282.213 131.499 282.213 131.722M285.577 131.722V133.537M285.577 131.722V136.965M282.213 131.722V133.537M282.213 131.722V136.965M282.213 133.537C282.213 133.76 282.402 133.94 282.634 133.94H285.157C285.389 133.94 285.577 133.76 285.577 133.537M282.213 133.537V136.965M285.577 133.537V136.965M285.577 136.965C285.577 136.742 285.389 136.561 285.157 136.561H282.634C282.402 136.561 282.213 136.742 282.213 136.965" stroke="#304436"/>
<path d="M288.791 133.532V131.716C288.791 131.413 288.308 131.312 288.084 131.312V149.674C288.308 149.674 288.791 149.674 288.791 149.27V136.962V133.532Z" fill="#565656" fill-opacity="0.3"/>
<path fill-rule="evenodd" clip-rule="evenodd" d="M285.577 133.537V136.965C285.577 136.742 285.766 136.561 285.998 136.561H288.521C288.753 136.561 288.941 136.742 288.941 136.965V133.537C288.941 133.76 288.753 133.94 288.521 133.94H285.998C285.766 133.94 285.577 133.76 285.577 133.537Z" fill="#565656" fill-opacity="0.3"/>
<path d="M285.577 149.264V131.722M285.577 149.264C285.577 149.487 285.766 149.668 285.998 149.668H288.521C288.753 149.668 288.941 149.487 288.941 149.264M285.577 149.264V136.965M288.941 149.264V131.722M288.941 149.264V136.965M288.941 131.722C288.941 131.499 288.753 131.319 288.521 131.319H285.998C285.766 131.319 285.577 131.499 285.577 131.722M288.941 131.722V133.537M288.941 131.722V136.965M285.577 131.722V133.537M285.577 131.722V136.965M285.577 133.537C285.577 133.76 285.766 133.94 285.998 133.94H288.521C288.753 133.94 288.941 133.76 288.941 133.537M285.577 133.537V136.965M288.941 133.537V136.965M288.941 136.965C288.941 136.742 288.753 136.561 288.521 136.561H285.998C285.766 136.561 285.577 136.742 285.577 136.965" stroke="#304436"/>
<path d="M292.155 133.532V131.716C292.155 131.413 291.672 131.312 291.448 131.312V149.674C291.672 149.674 292.155 149.674 292.155 149.27V136.962V133.532Z" fill="#565656" fill-opacity="0.3"/>
<path fill-rule="evenodd" clip-rule="evenodd" d="M288.941 133.537V136.965C288.941 136.742 289.13 136.561 289.362 136.561H291.885C292.117 136.561 292.305 136.742 292.305 136.965V133.537C292.305 133.76 292.117 133.94 291.885 133.94H289.362C289.13 133.94 288.941 133.76 288.941 133.537Z" fill="#565656" fill-opacity="0.3"/>
<path d="M288.941 149.264V131.722M288.941 149.264C288.941 149.487 289.13 149.668 289.362 149.668H291.885C292.117 149.668 292.305 149.487 292.305 149.264M288.941 149.264V136.965M292.305 149.264V131.722M292.305 149.264V136.965M292.305 131.722C292.305 131.499 292.117 131.319 291.885 131.319H289.362C289.13 131.319 288.941 131.499 288.941 131.722M292.305 131.722V133.537M292.305 131.722V136.965M288.941 131.722V133.537M288.941 131.722V136.965M288.941 133.537C288.941 133.76 289.13 133.94 289.362 133.94H291.885C292.117 133.94 292.305 133.76 292.305 133.537M288.941 133.537V136.965M292.305 133.537V136.965M292.305 136.965C292.305 136.742 292.117 136.561 291.885 136.561H289.362C289.13 136.561 288.941 136.742 288.941 136.965" stroke="#304436"/>
<path d="M295.519 133.532V131.716C295.519 131.413 295.035 131.312 294.812 131.312V149.674C295.035 149.674 295.519 149.674 295.519 149.27V136.962V133.532Z" fill="#565656" fill-opacity="0.3"/>
<path fill-rule="evenodd" clip-rule="evenodd" d="M292.305 133.537V136.965C292.305 136.742 292.493 136.561 292.726 136.561H295.249C295.481 136.561 295.669 136.742 295.669 136.965V133.537C295.669 133.76 295.481 133.94 295.249 133.94H292.726C292.493 133.94 292.305 133.76 292.305 133.537Z" fill="#565656" fill-opacity="0.3"/>
<path d="M292.305 149.264V131.722M292.305 149.264C292.305 149.487 292.493 149.668 292.726 149.668H295.249C295.481 149.668 295.669 149.487 295.669 149.264M292.305 149.264V136.965M295.669 149.264V131.722M295.669 149.264V136.965M295.669 131.722C295.669 131.499 295.481 131.319 295.249 131.319H292.726C292.493 131.319 292.305 131.499 292.305 131.722M295.669 131.722V133.537M295.669 131.722V136.965M292.305 131.722V133.537M292.305 131.722V136.965M292.305 133.537C292.305 133.76 292.493 133.94 292.726 133.94H295.249C295.481 133.94 295.669 133.76 295.669 133.537M292.305 133.537V136.965M295.669 133.537V136.965M295.669 136.965C295.669 136.742 295.481 136.561 295.249 136.561H292.726C292.493 136.561 292.305 136.742 292.305 136.965" stroke="#304436"/>
<path d="M298.883 133.532V131.716C298.883 131.413 298.399 131.312 298.176 131.312V149.674C298.399 149.674 298.883 149.674 298.883 149.27V136.962V133.532Z" fill="#565656" fill-opacity="0.3"/>
<path fill-rule="evenodd" clip-rule="evenodd" d="M295.669 133.537V136.965C295.669 136.742 295.857 136.561 296.09 136.561H298.613C298.845 136.561 299.033 136.742 299.033 136.965V133.537C299.033 133.76 298.845 133.94 298.613 133.94H296.09C295.857 133.94 295.669 133.76 295.669 133.537Z" fill="#565656" fill-opacity="0.3"/>
<path d="M295.669 149.264V131.722M295.669 149.264C295.669 149.487 295.857 149.668 296.09 149.668H298.613C298.845 149.668 299.033 149.487 299.033 149.264M295.669 149.264V136.965M299.033 149.264V131.722M299.033 149.264V136.965M299.033 131.722C299.033 131.499 298.845 131.319 298.613 131.319H296.09C295.857 131.319 295.669 131.499 295.669 131.722M299.033 131.722V133.537M299.033 131.722V136.965M295.669 131.722V133.537M295.669 131.722V136.965M295.669 133.537C295.669 133.76 295.857 133.94 296.09 133.94H298.613C298.845 133.94 299.033 133.76 299.033 133.537M295.669 133.537V136.965M299.033 133.537V136.965M299.033 136.965C299.033 136.742 298.845 136.561 298.613 136.561H296.09C295.857 136.561 295.669 136.742 295.669 136.965" stroke="#304436"/>
<path d="M282.196 133.324L281.691 133.324C281.301 133.324 280.984 133.008 280.984 132.618C280.984 132.228 281.301 131.912 281.691 131.912L282.196 131.912L282.196 133.324Z" stroke="#304436"/>
<path d="M282.213 133.453L281.755 133.453C281.332 133.453 280.99 133.111 280.99 132.689C280.99 132.266 281.332 131.924 281.755 131.924L282.213 131.924L282.213 133.453Z" fill="white" stroke="#304436"/>
<path d="M299.033 131.924H299.492C299.914 131.924 300.256 132.266 300.256 132.689C300.256 133.111 299.914 133.453 299.492 133.453H299.033L299.033 131.924Z" fill="white" stroke="#304436"/>
<path d="M305 253.182C305 251.977 305.802 251 306.792 251L319.595 251L332.779 251C333.769 251 334.571 251.977 334.571 253.182V302.818C334.571 304.023 333.769 305 332.779 305H306.792C305.802 305 305 304.023 305 302.818V253.182Z" fill="white" stroke="#304436"/>
<path d="M319.948 281.073C319.696 280.759 319.532 280.571 319.532 280.571C319.532 280.571 319.367 280.759 319.115 281.073C318.3 282.089 316.572 284.424 316.572 285.954C316.572 286.751 316.883 287.515 317.439 288.079C317.994 288.642 318.747 288.958 319.532 288.958C320.317 288.958 321.07 288.642 321.625 288.079C322.18 287.515 322.492 286.751 322.492 285.954C322.492 284.424 320.763 282.089 319.948 281.073Z" fill="#304436"/>
<path d="M311.428 259.874C311.428 259.234 311.942 258.714 312.575 258.714H326.996C327.63 258.714 328.143 259.234 328.143 259.874V263.34C328.143 263.981 327.63 264.5 326.996 264.5H312.575C311.942 264.5 311.428 263.981 311.428 263.34V259.874Z" fill="#93D3F6" stroke="#304436"/>
<path d="M312.714 263.857L318.929 259.357H320.857L314.643 263.857H312.714Z" fill="white" fill-opacity="0.3"/>
<path d="M315.714 263.857L321.929 259.357H323L316.786 263.857H315.714Z" fill="white" fill-opacity="0.3"/>
<ellipse cx="317.68" cy="268.824" rx="1.10894" ry="1.10997" fill="#304436"/>
<ellipse cx="322.116" cy="268.824" rx="1.10894" ry="1.10997" fill="#304436"/>
<path d="M235 19H401C409.837 19 417 26.1634 417 35V71H235V19Z" fill="#CCC4C4"/>
<path d="M203 86.7959V306H266.827C266.827 306 248.362 289.399 243.403 274.538C233.842 245.887 269.778 241.04 266.827 216.495C264.836 199.937 251.765 194.999 248.446 178.694C245.758 165.489 250.278 157.109 248.407 144.061C246.495 130.727 241.075 119.959 235.935 109.748C233.315 104.545 228.396 91.976 226.424 86.7959C225.574 83.3255 225.065 79.751 225.034 76H203V86.7959Z" fill="url(#pattern0_2277_6434)" stroke="#304436" stroke-width="2"/>
<path d="M202.965 157.906H197.359V151H202.965H207.709H217.628H227.413H238.194H248.185V157.906H238.194H227.413H217.628H207.709H202.965Z" fill="#E2D2C3"/>
<path d="M248.185 157.906H207.709M248.185 157.906H217.628M248.185 157.906V151M248.185 151H207.709M248.185 151H217.628M207.709 151H202.965H197.359V157.906H202.965H207.709M207.709 151V157.906M207.709 151H217.628M207.709 157.906H217.628M217.628 151V157.906M227.413 151V157.906M238.194 151V157.906" stroke="#304436" stroke-width="2"/>
<path d="M202.965 242.906H197.359V236H202.965H207.709H217.628H227.413H238.194H249H259.5L253.5 242.906H249H238.194H227.413H217.628H207.709H202.965Z" fill="#E2D2C3"/>
<path d="M253.5 242.906H207.709M253.5 242.906H217.628M253.5 242.906L259.5 236M259.5 236H207.709M259.5 236H217.628M207.709 236H202.965H197.359V242.906H202.965H207.709M207.709 236V242.906M207.709 236H217.628M207.709 242.906H217.628M217.628 236V242.906M227.413 236V242.906M238.194 236V242.906M249 236V242.906" stroke="#304436" stroke-width="2"/>
<path d="M198.95 76.2017H202.832H262.776V70.1585H198.95V76.2017Z" fill="#E2D2C3" stroke="#304436" stroke-width="2"/>
<path d="M230.134 17.4964L202.965 70.1584H263.019C262.564 45.0185 251.697 17.4964 251.697 17.4964H230.134Z" fill="#858181" stroke="#304436" stroke-width="2"/>
<path d="M243.935 19.9507L250.403 16.8305L263.341 10.59L282.748 19.9507V70.1585H250.403H243.935V19.9507Z" fill="#F3E1D1" stroke="#274430" stroke-width="2"/>
<g clip-path="url(#clip0_2277_6434)">
<rect x="249.11" y="21.813" width="28.4629" height="46.6189" rx="2" fill="#93D3F6"/>
<path d="M249.11 42.2087L266.625 21.813H277.573L249.11 56.7771V42.2087Z" fill="white" fill-opacity="0.3"/>
<path d="M250.204 68.4318L277.573 35.4102V41.2375L254.583 68.4318H250.204Z" fill="white" fill-opacity="0.3"/>
<rect x="249.11" y="21.813" width="28.4629" height="7.76981" fill="#565656" fill-opacity="0.3"/>
</g>
<rect x="249.11" y="21.813" width="28.4629" height="46.6189" rx="2" stroke="#274430" stroke-width="2"/>
<path fill-rule="evenodd" clip-rule="evenodd" d="M262.91 70.1585L262.91 21.813L264.635 21.813L264.635 70.1585L262.91 70.1585Z" fill="#304436"/>
<path fill-rule="evenodd" clip-rule="evenodd" d="M277.573 45.9857L249.11 45.9857L249.11 44.2591L277.573 44.2591L277.573 45.9857Z" fill="#304436"/>
<rect x="241.347" y="66.7052" width="43.9881" height="3.45325" rx="1.72662" fill="#F3E1D1" stroke="#274430" stroke-width="2"/>
<g filter="url(#filter4_d_2277_6434)">
<rect x="187" y="228" width="87" height="21" fill="white" shape-rendering="crispEdges"/>
<rect x="187.5" y="228.5" width="86" height="20" stroke="#304436" shape-rendering="crispEdges"/>
<path d="M193.98 242.644C194.94 242.644 195.696 242.176 196.176 241.492L197.52 242.524C196.752 243.568 195.504 244.24 193.98 244.24C191.328 244.24 189.516 242.2 189.516 239.8C189.516 237.4 191.328 235.36 193.98 235.36C195.504 235.36 196.752 236.044 197.52 237.064L196.176 238.108C195.696 237.424 194.94 236.956 193.98 236.956C192.396 236.956 191.268 238.192 191.268 239.8C191.268 241.408 192.396 242.644 193.98 242.644ZM198.795 244V235H200.319V238.432C200.739 238.024 201.303 237.712 202.107 237.712C203.415 237.712 204.459 238.612 204.459 240.4V244H202.923V240.46C202.923 239.656 202.479 239.152 201.723 239.152C200.955 239.152 200.547 239.668 200.319 240.052V244H198.795ZM207.893 244.18C206.681 244.18 205.853 243.484 205.853 242.368C205.853 241.456 206.561 240.772 207.857 240.556L209.705 240.244V240.088C209.705 239.452 209.225 239.044 208.529 239.044C207.941 239.044 207.485 239.32 207.161 239.764L206.045 238.912C206.585 238.168 207.473 237.712 208.577 237.712C210.329 237.712 211.229 238.756 211.229 240.088V244H209.705V243.412C209.321 243.88 208.601 244.18 207.893 244.18ZM207.365 242.296C207.365 242.704 207.689 242.968 208.205 242.968C208.901 242.968 209.405 242.644 209.705 242.164V241.312L208.265 241.552C207.629 241.66 207.365 241.924 207.365 242.296ZM216.959 241.384V237.952H218.495V241.312C218.495 243.124 217.439 244.24 215.663 244.24C213.887 244.24 212.843 243.124 212.843 241.312V237.952H214.379V241.384C214.379 242.26 214.835 242.8 215.675 242.8C216.503 242.8 216.959 242.26 216.959 241.384ZM219.75 240.976C219.75 239.212 220.914 237.712 222.822 237.712C223.638 237.712 224.226 237.964 224.694 238.432V235H226.23V244H224.694V243.52C224.226 243.988 223.638 244.24 222.822 244.24C220.914 244.24 219.75 242.74 219.75 240.976ZM221.346 240.976C221.346 242.032 222.006 242.8 223.038 242.8C223.722 242.8 224.286 242.512 224.694 241.96V239.992C224.286 239.44 223.722 239.152 223.038 239.152C222.006 239.152 221.346 239.92 221.346 240.976ZM228.825 236.896C228.285 236.896 227.829 236.44 227.829 235.9C227.829 235.36 228.285 234.904 228.825 234.904C229.365 234.904 229.809 235.36 229.809 235.9C229.809 236.44 229.365 236.896 228.825 236.896ZM228.057 244V237.952H229.581V244H228.057ZM233.34 236.992L231.9 235H233.556L234.792 236.992H233.34ZM236.976 243.016C236.412 243.772 235.476 244.24 234.336 244.24C232.188 244.24 230.976 242.74 230.976 240.976C230.976 239.188 232.104 237.712 234.084 237.712C235.764 237.712 236.868 238.852 236.868 240.436C236.868 240.772 236.82 241.084 236.772 241.288H232.536C232.68 242.416 233.376 242.872 234.324 242.872C234.984 242.872 235.56 242.584 235.884 242.152L236.976 243.016ZM234.048 238.96C233.268 238.96 232.752 239.392 232.584 240.184H235.368C235.344 239.572 234.9 238.96 234.048 238.96ZM238.357 244V237.952H239.881V238.552C240.277 238.144 240.793 237.832 241.477 237.832C241.681 237.832 241.861 237.868 242.005 237.916V239.416C241.813 239.368 241.609 239.332 241.333 239.332C240.589 239.332 240.109 239.74 239.881 240.124V244H238.357ZM248.543 243.016C247.979 243.772 247.043 244.24 245.903 244.24C243.755 244.24 242.543 242.74 242.543 240.976C242.543 239.188 243.671 237.712 245.651 237.712C247.331 237.712 248.435 238.852 248.435 240.436C248.435 240.772 248.387 241.084 248.339 241.288H244.103C244.247 242.416 244.943 242.872 245.891 242.872C246.551 242.872 247.127 242.584 247.451 242.152L248.543 243.016ZM245.615 238.96C244.835 238.96 244.319 239.392 244.151 240.184H246.935C246.911 239.572 246.467 238.96 245.615 238.96ZM252.558 245.056C252.558 244.456 252.858 243.976 253.398 243.58C253.158 243.34 253.026 243.016 253.026 242.704C253.026 242.224 253.23 241.84 253.686 241.504C253.158 241.108 252.87 240.508 252.87 239.836C252.87 238.66 253.782 237.712 255.294 237.712C255.762 237.712 256.17 237.796 256.518 237.952H258.726V239.248H257.658C257.718 239.44 257.742 239.632 257.742 239.836C257.742 241.024 256.854 241.984 255.294 241.984C255.09 241.984 254.898 241.972 254.718 241.936C254.586 242.056 254.514 242.188 254.514 242.32C254.514 242.56 254.646 242.68 254.922 242.68H256.446C257.97 242.68 258.798 243.496 258.798 244.624C258.798 245.968 257.514 247 255.63 247C253.698 247 252.558 246.328 252.558 245.056ZM255.318 240.832C255.954 240.832 256.362 240.436 256.362 239.836C256.362 239.236 255.954 238.852 255.318 238.852C254.658 238.852 254.262 239.248 254.262 239.836C254.262 240.436 254.658 240.832 255.318 240.832ZM253.998 244.84C253.998 245.416 254.55 245.776 255.618 245.776C256.722 245.776 257.286 245.368 257.286 244.768C257.286 244.312 257.01 243.988 256.278 243.988H254.406C254.178 244.204 253.998 244.468 253.998 244.84ZM261.331 244.18C260.119 244.18 259.291 243.484 259.291 242.368C259.291 241.456 259.999 240.772 261.295 240.556L263.143 240.244V240.088C263.143 239.452 262.663 239.044 261.967 239.044C261.379 239.044 260.923 239.32 260.599 239.764L259.483 238.912C260.023 238.168 260.911 237.712 262.015 237.712C263.767 237.712 264.667 238.756 264.667 240.088V244H263.143V243.412C262.759 243.88 262.039 244.18 261.331 244.18ZM260.803 242.296C260.803 242.704 261.127 242.968 261.643 242.968C262.339 242.968 262.843 242.644 263.143 242.164V241.312L261.703 241.552C261.067 241.66 260.803 241.924 260.803 242.296ZM266.172 244V242.632L269.244 239.32H266.268V237.952H271.152V239.32L268.08 242.632H271.236V244H266.172Z" fill="#304436"/>
</g>
<path d="M209.912 300V291H211.436V300H209.912ZM216.144 293.712C218.112 293.712 219.456 295.164 219.456 296.976C219.456 298.788 218.112 300.24 216.144 300.24C214.176 300.24 212.832 298.788 212.832 296.976C212.832 295.164 214.176 293.712 216.144 293.712ZM216.168 298.8C217.14 298.8 217.872 298.02 217.872 296.976C217.872 295.92 217.14 295.152 216.168 295.152C215.16 295.152 214.416 295.92 214.416 296.976C214.416 298.032 215.16 298.8 216.168 298.8ZM223.808 298.8C224.408 298.8 224.888 298.524 225.176 298.104L226.364 299.016C225.8 299.76 224.912 300.24 223.808 300.24C221.72 300.24 220.472 298.74 220.472 296.976C220.472 295.212 221.72 293.712 223.808 293.712C224.912 293.712 225.8 294.192 226.364 294.936L225.176 295.848C224.888 295.428 224.408 295.152 223.784 295.152C222.788 295.152 222.056 295.92 222.056 296.976C222.056 298.044 222.788 298.8 223.808 298.8ZM229.1 300.18C227.888 300.18 227.06 299.484 227.06 298.368C227.06 297.456 227.768 296.772 229.064 296.556L230.912 296.244V296.088C230.912 295.452 230.432 295.044 229.736 295.044C229.148 295.044 228.692 295.32 228.368 295.764L227.252 294.912C227.792 294.168 228.68 293.712 229.784 293.712C231.536 293.712 232.436 294.756 232.436 296.088V300H230.912V299.412C230.528 299.88 229.808 300.18 229.1 300.18ZM228.572 298.296C228.572 298.704 228.896 298.968 229.412 298.968C230.108 298.968 230.612 298.644 230.912 298.164V297.312L229.472 297.552C228.836 297.66 228.572 297.924 228.572 298.296ZM234.182 300V291H235.706V300H234.182Z" fill="#535F57"/>
<defs>
<filter id="filter0_d_2277_6434" x="271" y="310" width="97" height="21" filterUnits="userSpaceOnUse" color-interpolation-filters="sRGB">
<feFlood flood-opacity="0" result="BackgroundImageFix"/>
<feColorMatrix in="SourceAlpha" type="matrix" values="0 0 0 0 0 0 0 0 0 0 0 0 0 0 0 0 0 0 127 0" result="hardAlpha"/>
<feOffset dx="1" dy="1"/>
<feComposite in2="hardAlpha" operator="out"/>
<feColorMatrix type="matrix" values="0 0 0 0 0.188235 0 0 0 0 0.266667 0 0 0 0 0.211765 0 0 0 1 0"/>
<feBlend mode="normal" in2="BackgroundImageFix" result="effect1_dropShadow_2277_6434"/>
<feBlend mode="normal" in="SourceGraphic" in2="effect1_dropShadow_2277_6434" result="shape"/>
</filter>
<filter id="filter1_d_2277_6434" x="82" y="294" width="99" height="21" filterUnits="userSpaceOnUse" color-interpolation-filters="sRGB">
<feFlood flood-opacity="0" result="BackgroundImageFix"/>
<feColorMatrix in="SourceAlpha" type="matrix" values="0 0 0 0 0 0 0 0 0 0 0 0 0 0 0 0 0 0 127 0" result="hardAlpha"/>
<feOffset dx="1" dy="1"/>
<feComposite in2="hardAlpha" operator="out"/>
<feColorMatrix type="matrix" values="0 0 0 0 0.188235 0 0 0 0 0.266667 0 0 0 0 0.211765 0 0 0 1 0"/>
<feBlend mode="normal" in2="BackgroundImageFix" result="effect1_dropShadow_2277_6434"/>
<feBlend mode="normal" in="SourceGraphic" in2="effect1_dropShadow_2277_6434" result="shape"/>
</filter>
<filter id="filter2_d_2277_6434" x="361" y="283" width="122" height="21" filterUnits="userSpaceOnUse" color-interpolation-filters="sRGB">
<feFlood flood-opacity="0" result="BackgroundImageFix"/>
<feColorMatrix in="SourceAlpha" type="matrix" values="0 0 0 0 0 0 0 0 0 0 0 0 0 0 0 0 0 0 127 0" result="hardAlpha"/>
<feOffset dx="1" dy="1"/>
<feComposite in2="hardAlpha" operator="out"/>
<feColorMatrix type="matrix" values="0 0 0 0 0.188235 0 0 0 0 0.266667 0 0 0 0 0.211765 0 0 0 1 0"/>
<feBlend mode="normal" in2="BackgroundImageFix" result="effect1_dropShadow_2277_6434"/>
<feBlend mode="normal" in="SourceGraphic" in2="effect1_dropShadow_2277_6434" result="shape"/>
</filter>
<filter id="filter3_d_2277_6434" x="107" y="223" width="23" height="21" filterUnits="userSpaceOnUse" color-interpolation-filters="sRGB">
<feFlood flood-opacity="0" result="BackgroundImageFix"/>
<feColorMatrix in="SourceAlpha" type="matrix" values="0 0 0 0 0 0 0 0 0 0 0 0 0 0 0 0 0 0 127 0" result="hardAlpha"/>
<feOffset dx="1" dy="1"/>
<feComposite in2="hardAlpha" operator="out"/>
<feColorMatrix type="matrix" values="0 0 0 0 0.188235 0 0 0 0 0.266667 0 0 0 0 0.211765 0 0 0 1 0"/>
<feBlend mode="normal" in2="BackgroundImageFix" result="effect1_dropShadow_2277_6434"/>
<feBlend mode="normal" in="SourceGraphic" in2="effect1_dropShadow_2277_6434" result="shape"/>
</filter>
<filter id="filter4_d_2277_6434" x="187" y="228" width="88" height="22" filterUnits="userSpaceOnUse" color-interpolation-filters="sRGB">
<feFlood flood-opacity="0" result="BackgroundImageFix"/>
<feColorMatrix in="SourceAlpha" type="matrix" values="0 0 0 0 0 0 0 0 0 0 0 0 0 0 0 0 0 0 127 0" result="hardAlpha"/>
<feOffset dx="1" dy="1"/>
<feComposite in2="hardAlpha" operator="out"/>
<feColorMatrix type="matrix" values="0 0 0 0 0.188235 0 0 0 0 0.266667 0 0 0 0 0.211765 0 0 0 1 0"/>
<feBlend mode="normal" in2="BackgroundImageFix" result="effect1_dropShadow_2277_6434"/>
<feBlend mode="normal" in="SourceGraphic" in2="effect1_dropShadow_2277_6434" result="shape"/>
</filter>
<clipPath id="clip0_2277_6434">
<rect x="249.11" y="21.813" width="28.4629" height="46.6189" rx="2" fill="white"/>
</clipPath>
<pattern id="pattern0_2277_6434" patternUnits="userSpaceOnUse" patternTransform="matrix(17 0 0 14 202.5 75.5)" preserveAspectRatio="none" viewBox="-0.5 -0.5 17 14" width="1" height="1">
<use xlink:href="#pattern0_2277_6434_inner" transform="translate(-25.5 -7)"/>
<use xlink:href="#pattern0_2277_6434_inner" transform="translate(-8.5 -7)"/>
<use xlink:href="#pattern0_2277_6434_inner" transform="translate(8.5 -7)"/>
<use xlink:href="#pattern0_2277_6434_inner" transform="translate(-34 0)"/>
<use xlink:href="#pattern0_2277_6434_inner" transform="translate(-17 0)"/>
<g id="pattern0_2277_6434_inner">
<rect width="17" height="7" fill="#F3E1D1" stroke="white"/>
</g>
<use xlink:href="#pattern0_2277_6434_inner" transform="translate(-25.5 7)"/>
<use xlink:href="#pattern0_2277_6434_inner" transform="translate(-8.5 7)"/>
<use xlink:href="#pattern0_2277_6434_inner" transform="translate(8.5 7)"/>
</pattern></defs>
</svg>
