<svg width="509" height="362" viewBox="0 0 509 362" fill="none" xmlns="http://www.w3.org/2000/svg" xmlns:xlink="http://www.w3.org/1999/xlink">
<path d="M0 0H500V362H0V0Z" fill="white"/>
<path d="M500 0H499V362H500H501V0H500Z" fill="#E9E9E9"/>
<path d="M434 288H56C46.6112 288 39 295.611 39 305V321C39 321 44.6904 323.442 48.5 324.5C64.5465 328.955 74.3628 321.735 91 321C110.312 320.147 121.184 320.228 140.5 321C158.307 321.712 168.259 326.189 186 324.5C199.768 323.19 206.946 332.753 220.5 330C242.774 325.476 255.277 321.487 278 321C296.222 320.61 306.308 326.116 324.5 325C335.139 324.347 340.892 322.043 351.5 321L351.814 320.969C372.803 318.905 385.081 317.697 406 321C424.123 323.862 451 334.5 451 334.5V305C451 295.611 443.389 288 434 288Z" fill="#9A8D81" stroke="#304436" stroke-width="2"/>
<path d="M39 354H451V334.5C451 334.5 424.123 323.861 406 321C385.081 317.697 372.803 318.905 351.814 320.969L351.5 321C340.892 322.043 335.139 324.347 324.5 325C306.308 326.116 296.222 320.61 278 321C255.277 321.487 242.774 325.476 220.5 330C206.946 332.753 199.768 323.189 186 324.5C168.259 326.189 158.307 321.712 140.5 321C121.184 320.228 110.312 320.147 91 321C74.3628 321.735 64.5465 328.955 48.5 324.5C44.6904 323.442 39 321 39 321V354Z" fill="#624D45" stroke="#304436" stroke-width="2"/>
<path d="M53.5 332H61.5" stroke="#304436" stroke-width="2" stroke-linecap="round"/>
<path d="M208 301H216" stroke="#304436" stroke-width="2" stroke-linecap="round"/>
<path d="M53 319H61" stroke="#304436" stroke-width="2" stroke-linecap="round"/>
<path d="M392 295H400" stroke="#304436" stroke-width="2" stroke-linecap="round"/>
<path d="M281 333H289" stroke="#304436" stroke-width="2" stroke-linecap="round"/>
<path d="M217 347H225" stroke="#304436" stroke-width="2" stroke-linecap="round"/>
<path d="M198 345H190" stroke="#304436" stroke-width="2" stroke-linecap="round"/>
<path d="M352.5 314H344.5" stroke="#304436" stroke-width="2" stroke-linecap="round"/>
<path d="M361 300H353" stroke="#304436" stroke-width="2" stroke-linecap="round"/>
<path d="M425.5 346H417.5" stroke="#304436" stroke-width="2" stroke-linecap="round"/>
<path d="M174 329H166" stroke="#304436" stroke-width="2" stroke-linecap="round"/>
<path d="M328.5 298H320.5" stroke="#304436" stroke-width="2" stroke-linecap="round"/>
<path d="M401.5 330H393.5" stroke="#304436" stroke-width="2" stroke-linecap="round"/>
<path d="M69.5 343H77.5" stroke="#304436" stroke-width="2" stroke-linecap="round"/>
<path d="M224 312H232" stroke="#304436" stroke-width="2" stroke-linecap="round"/>
<path d="M48 306H56" stroke="#304436" stroke-width="2" stroke-linecap="round"/>
<path d="M408 306H416" stroke="#304436" stroke-width="2" stroke-linecap="round"/>
<path d="M297 344H305" stroke="#304436" stroke-width="2" stroke-linecap="round"/>
<path d="M233 336H241" stroke="#304436" stroke-width="2" stroke-linecap="round"/>
<path d="M117.5 330H125.5" stroke="#304436" stroke-width="2" stroke-linecap="round"/>
<path d="M272 299H280" stroke="#304436" stroke-width="2" stroke-linecap="round"/>
<path d="M199 316H207" stroke="#304436" stroke-width="2" stroke-linecap="round"/>
<path d="M345 331H353" stroke="#304436" stroke-width="2" stroke-linecap="round"/>
<path d="M134 343H126" stroke="#304436" stroke-width="2" stroke-linecap="round"/>
<path d="M288.5 312H280.5" stroke="#304436" stroke-width="2" stroke-linecap="round"/>
<path d="M361.5 344H353.5" stroke="#304436" stroke-width="2" stroke-linecap="round"/>
<path d="M100.5 337H103.5" stroke="#304436" stroke-width="2" stroke-linecap="round"/>
<path d="M255 306H258" stroke="#304436" stroke-width="2" stroke-linecap="round"/>
<path d="M180 319H183" stroke="#304436" stroke-width="2" stroke-linecap="round"/>
<path d="M439 300H442" stroke="#304436" stroke-width="2" stroke-linecap="round"/>
<path d="M374 312H377" stroke="#304436" stroke-width="2" stroke-linecap="round"/>
<path d="M328 338H331" stroke="#304436" stroke-width="2" stroke-linecap="round"/>
<path d="M264 342H267" stroke="#304436" stroke-width="2" stroke-linecap="round"/>
<path d="M151 350H148" stroke="#304436" stroke-width="2" stroke-linecap="round"/>
<path d="M305.5 319H302.5" stroke="#304436" stroke-width="2" stroke-linecap="round"/>
<path d="M378.5 351H375.5" stroke="#304436" stroke-width="2" stroke-linecap="round"/>
<path d="M71 332L75 332" stroke="#304436" stroke-width="2" stroke-linecap="round"/>
<path d="M225.5 301L229.5 301" stroke="#304436" stroke-width="2" stroke-linecap="round"/>
<path d="M160 319L164 319" stroke="#304436" stroke-width="2" stroke-linecap="round"/>
<path d="M119 317L123 317" stroke="#304436" stroke-width="2" stroke-linecap="round"/>
<path d="M409.5 295L413.5 295" stroke="#304436" stroke-width="2" stroke-linecap="round"/>
<path d="M298.5 333L302.5 333" stroke="#304436" stroke-width="2" stroke-linecap="round"/>
<path d="M234.5 347L238.5 347" stroke="#304436" stroke-width="2" stroke-linecap="round"/>
<path d="M180.5 345L176.5 345" stroke="#304436" stroke-width="2" stroke-linecap="round"/>
<path d="M335 314L331 314" stroke="#304436" stroke-width="2" stroke-linecap="round"/>
<path d="M408 346L404 346" stroke="#304436" stroke-width="2" stroke-linecap="round"/>
<path d="M161.5 329L157.5 329" stroke="#304436" stroke-width="2" stroke-linecap="round"/>
<path d="M316 298L312 298" stroke="#304436" stroke-width="2" stroke-linecap="round"/>
<path d="M389 330L385 330" stroke="#304436" stroke-width="2" stroke-linecap="round"/>
<path d="M87 343L91 343" stroke="#304436" stroke-width="2" stroke-linecap="round"/>
<path d="M241.5 312L245.5 312" stroke="#304436" stroke-width="2" stroke-linecap="round"/>
<path d="M74 320L78 320" stroke="#304436" stroke-width="2" stroke-linecap="round"/>
<path d="M425.5 306L429.5 306" stroke="#304436" stroke-width="2" stroke-linecap="round"/>
<path d="M314.5 344L318.5 344" stroke="#304436" stroke-width="2" stroke-linecap="round"/>
<path d="M250.5 336L254.5 336" stroke="#304436" stroke-width="2" stroke-linecap="round"/>
<path d="M203 75H416V306H203V75Z" fill="#F3E1D1" stroke="#304436" stroke-width="2"/>
<rect x="229" y="155" width="186" height="4" fill="#CBB9A9"/>
<rect x="229" y="239" width="186" height="4" fill="#CBB9A9"/>
<rect x="229" y="70" width="188" height="6" fill="#727B74"/>
<rect x="276" y="76" width="167" height="3.99999" transform="rotate(90 276 76)" fill="#CBB9A9"/>
<rect x="353" y="76" width="167" height="3.99999" transform="rotate(90 353 76)" fill="#CBB9A9"/>
<path d="M235 19H401C409.837 19 417 26.1634 417 35V71H235V19Z" fill="#CCC4C4"/>
<path d="M203 86.7959V306H266.827C266.827 306 248.362 289.399 243.403 274.538C233.842 245.887 269.778 241.04 266.827 216.495C264.836 199.937 251.765 194.999 248.446 178.694C245.758 165.489 250.278 157.109 248.407 144.061C246.495 130.727 241.075 119.959 235.935 109.748C233.315 104.545 228.396 91.976 226.424 86.7959C225.574 83.3255 225.065 79.751 225.034 76H203V86.7959Z" fill="url(#pattern0_2204_1601)" stroke="#304436" stroke-width="2"/>
<path d="M202.965 157.906H197.359V151H202.965H207.709H217.628H227.413H238.194H248.185V157.906H238.194H227.413H217.628H207.709H202.965Z" fill="#E2D2C3"/>
<path d="M248.185 157.906H207.709M248.185 157.906H217.628M248.185 157.906V151M248.185 151H207.709M248.185 151H217.628M207.709 151H202.965H197.359V157.906H202.965H207.709M207.709 151V157.906M207.709 151H217.628M207.709 157.906H217.628M217.628 151V157.906M227.413 151V157.906M238.194 151V157.906" stroke="#304436" stroke-width="2"/>
<path d="M202.965 242.906H197.359V236H202.965H207.709H217.628H227.413H238.194H249H259.5L253.5 242.906H249H238.194H227.413H217.628H207.709H202.965Z" fill="#E2D2C3"/>
<path d="M253.5 242.906H207.709M253.5 242.906H217.628M253.5 242.906L259.5 236M259.5 236H207.709M259.5 236H217.628M207.709 236H202.965H197.359V242.906H202.965H207.709M207.709 236V242.906M207.709 236H217.628M207.709 242.906H217.628M217.628 236V242.906M227.413 236V242.906M238.194 236V242.906M249 236V242.906" stroke="#304436" stroke-width="2"/>
<path d="M198.95 76.2017H202.832H262.776V70.1585H198.95V76.2017Z" fill="#E2D2C3" stroke="#304436" stroke-width="2"/>
<path d="M230.134 17.4964L202.965 70.1585H263.019C262.564 45.0186 251.697 17.4964 251.697 17.4964H230.134Z" fill="#858181" stroke="#304436" stroke-width="2"/>
<path d="M243.935 19.9507L250.403 16.8304L263.341 10.5899L282.748 19.9507V70.1585H250.403H243.935V19.9507Z" fill="#F3E1D1" stroke="#274430" stroke-width="2"/>
<g clip-path="url(#clip0_2204_1601)">
<rect x="249.11" y="21.813" width="28.4629" height="46.6189" rx="2" fill="#93D3F6"/>
<path d="M249.11 42.2087L266.625 21.813H277.573L249.11 56.7771V42.2087Z" fill="white" fill-opacity="0.3"/>
<path d="M250.204 68.4318L277.573 35.4102V41.2375L254.583 68.4318H250.204Z" fill="white" fill-opacity="0.3"/>
<rect x="249.11" y="21.813" width="28.4629" height="7.76981" fill="#565656" fill-opacity="0.3"/>
</g>
<rect x="249.11" y="21.813" width="28.4629" height="46.6189" rx="2" stroke="#274430" stroke-width="2"/>
<path fill-rule="evenodd" clip-rule="evenodd" d="M262.91 70.1585L262.91 21.813L264.635 21.813L264.635 70.1585L262.91 70.1585Z" fill="#304436"/>
<path fill-rule="evenodd" clip-rule="evenodd" d="M277.573 45.9857L249.11 45.9857L249.11 44.2591L277.573 44.2591L277.573 45.9857Z" fill="#304436"/>
<rect x="241.347" y="66.7052" width="43.9881" height="3.45325" rx="1.72662" fill="#F3E1D1" stroke="#274430" stroke-width="2"/>
<path d="M130.118 275.89C129.076 275.611 128.298 274.973 127.784 273.976C127.269 272.98 127.165 271.909 127.472 270.764L129.971 271.435C129.867 271.824 129.9 272.182 130.069 272.51C130.238 272.839 130.5 273.049 130.853 273.143C131.207 273.238 131.54 273.186 131.85 272.987C132.161 272.787 132.367 272.493 132.471 272.105C132.575 271.716 132.542 271.358 132.372 271.031C132.203 270.703 131.942 270.492 131.589 270.396L103.471 262.855L104.206 260.108L132.324 267.649C133.365 267.929 134.143 268.567 134.658 269.563C135.172 270.56 135.276 271.631 134.97 272.775C134.664 273.92 134.039 274.795 133.095 275.401C132.152 276.006 131.159 276.17 130.118 275.89ZM105.677 254.614L106.412 251.867L139.529 260.749C140.07 260.894 140.57 260.82 141.028 260.526C141.487 260.232 141.795 259.787 141.955 259.192C142.114 258.597 142.069 258.057 141.819 257.573C141.569 257.089 141.173 256.774 140.632 256.629C140.09 256.484 139.59 256.558 139.132 256.852C138.674 257.146 138.365 257.591 138.206 258.186L135.706 257.516C136.068 256.165 136.795 255.139 137.887 254.438C138.979 253.737 140.139 253.552 141.367 253.882C142.596 254.211 143.508 254.953 144.104 256.107C144.7 257.261 144.816 258.513 144.454 259.862C144.093 261.213 143.366 262.239 142.275 262.94C141.183 263.641 140.023 263.827 138.793 263.496L105.677 254.614ZM139.601 275.489L140.336 272.742C140.878 272.888 141.378 272.813 141.836 272.519C142.294 272.225 142.603 271.78 142.762 271.185C142.922 270.59 142.876 270.05 142.627 269.566C142.377 269.082 141.981 268.767 141.439 268.622L104.574 258.735L105.309 255.988L142.175 265.875C143.404 266.205 144.316 266.946 144.911 268.1C145.507 269.254 145.624 270.506 145.262 271.855C144.9 273.206 144.174 274.232 143.082 274.933C141.991 275.635 140.83 275.82 139.601 275.489Z" fill="#304436"/>
<path d="M325 267H345.5H362M362 256.5H355V234M359.5 147.5H355V226.5V234M355 234H359.5" stroke="#465FB1" stroke-width="2" stroke-linecap="round" stroke-linejoin="round"/>
<path d="M280 234L280 254.25M322 281H280L280 274.5L280 254.25M280 254.25L277 251.5M280 254.25L283 251.5" stroke="#535F57" stroke-width="2" stroke-linecap="round" stroke-linejoin="round"/>
<path d="M320 254.182C320 252.977 320.802 252 321.792 252L334.595 252L347.779 252C348.769 252 349.571 252.977 349.571 254.182V303.818C349.571 305.023 348.769 306 347.779 306H321.792C320.802 306 320 305.023 320 303.818V254.182Z" fill="white" stroke="#304436"/>
<path d="M334.948 282.073C334.696 281.76 334.532 281.571 334.532 281.571C334.532 281.571 334.367 281.76 334.115 282.073C333.3 283.089 331.572 285.424 331.572 286.954C331.572 287.751 331.883 288.515 332.439 289.079C332.994 289.642 333.747 289.958 334.532 289.958C335.317 289.958 336.07 289.642 336.625 289.079C337.18 288.515 337.492 287.751 337.492 286.954C337.492 285.424 335.763 283.089 334.948 282.073Z" fill="#304436"/>
<path d="M326.428 260.874C326.428 260.234 326.942 259.714 327.575 259.714H341.996C342.63 259.714 343.143 260.234 343.143 260.874V264.34C343.143 264.981 342.63 265.5 341.996 265.5H327.575C326.942 265.5 326.428 264.981 326.428 264.34V260.874Z" fill="#93D3F6" stroke="#304436"/>
<path d="M327.714 264.857L333.929 260.357H335.857L329.643 264.857H327.714Z" fill="white" fill-opacity="0.3"/>
<path d="M330.714 264.857L336.929 260.357H338L331.786 264.857H330.714Z" fill="white" fill-opacity="0.3"/>
<ellipse cx="332.68" cy="269.824" rx="1.10894" ry="1.10997" fill="#304436"/>
<ellipse cx="337.116" cy="269.824" rx="1.10894" ry="1.10997" fill="#304436"/>
<path d="M370.77 203.681L372 204.91" stroke="#304436" stroke-linecap="round"/>
<path d="M368.926 205.525L370.975 207.575" stroke="#304436" stroke-linecap="round"/>
<path d="M367.081 207.37L369.131 209.419" stroke="#304436" stroke-linecap="round"/>
<path d="M365.236 209.215L366.466 210.444" stroke="#304436" stroke-linecap="round"/>
<path d="M361 200H358V239H361L361 202.5L361 200Z" fill="white"/>
<path d="M361 202.5L361 239H358V200H361L361 202.5ZM361 202.5L364 204" stroke="#304436"/>
<path d="M370.121 202.506C370.121 202.506 367.615 200 364.394 203.221C361.172 206.443 363.678 208.948 363.678 208.948L370.121 202.506Z" fill="white" stroke="#304436"/>
<path d="M290.77 203.681L292 204.91" stroke="#304436" stroke-linecap="round"/>
<path d="M288.926 205.525L290.975 207.575" stroke="#304436" stroke-linecap="round"/>
<path d="M287.081 207.37L289.131 209.419" stroke="#304436" stroke-linecap="round"/>
<path d="M285.236 209.215L286.466 210.444" stroke="#304436" stroke-linecap="round"/>
<path d="M281 200H278V239H281L281 202.5L281 200Z" fill="white"/>
<path d="M281 202.5L281 239H278V200H281L281 202.5ZM281 202.5L284 204" stroke="#304436"/>
<path d="M290.121 202.506C290.121 202.506 287.615 200 284.394 203.221C281.172 206.443 283.678 208.948 283.678 208.948L290.121 202.506Z" fill="white" stroke="#304436"/>
<path d="M370.77 119.681L372 120.91" stroke="#304436" stroke-linecap="round"/>
<path d="M368.926 121.525L370.975 123.575" stroke="#304436" stroke-linecap="round"/>
<path d="M367.081 123.37L369.131 125.419" stroke="#304436" stroke-linecap="round"/>
<path d="M365.236 125.215L366.466 126.444" stroke="#304436" stroke-linecap="round"/>
<path d="M361 116H358V155H361L361 118.5L361 116Z" fill="white"/>
<path d="M361 118.5L361 155H358V116H361L361 118.5ZM361 118.5L364 120" stroke="#304436"/>
<path d="M370.121 118.506C370.121 118.506 367.615 116 364.394 119.221C361.172 122.443 363.678 124.948 363.678 124.948L370.121 118.506Z" fill="white" stroke="#304436"/>
<path d="M149.062 264.567C149.062 262.672 150.676 261.136 152.667 261.136H191.411C193.401 261.136 195.015 262.672 195.015 264.567V284.295C195.015 286.19 193.401 287.726 191.411 287.726H152.667C150.676 287.726 149.062 286.19 149.062 284.295V264.567Z" fill="white" stroke="#304436"/>
<path d="M158.856 266.307C157.657 267.102 157.224 269.333 158.012 270.709C158.365 271.193 158.727 271.477 158.727 271.477C158.425 271.281 158.188 271.016 158.012 270.709C157.61 270.157 157.219 269.345 157.39 268.394C157.711 266.611 158.856 266.307 158.856 266.307Z" fill="white" fill-opacity="0.3"/>
<path d="M179.099 267.954H188.901" stroke="#304436" stroke-width="2" stroke-linecap="round"/>
<path d="M179.099 271.6H188.901" stroke="#304436" stroke-width="2" stroke-linecap="round"/>
<path d="M179.099 275.08H188.901" stroke="#304436" stroke-width="2" stroke-linecap="round"/>
<path d="M160.507 273.171L158.472 271.175C157.59 270.311 157.697 268.859 158.783 268.273C159.349 267.967 159.959 267.686 160.507 267.537C162.162 267.086 164.901 267.394 164.901 267.394" stroke="#304436" stroke-width="2" stroke-linecap="round" stroke-linejoin="round"/>
<path d="M165.07 274.426L167.917 273.678C169.099 273.368 170.28 274.156 170.26 275.358C170.249 276.007 170.193 276.688 170.047 277.243C169.617 278.873 167.976 281.046 167.976 281.046" stroke="#304436" stroke-width="2" stroke-linecap="round" stroke-linejoin="round"/>
<path d="M161.475 277.651L160.712 280.443C160.396 281.601 159.108 282.21 158.057 281.592C157.489 281.258 156.915 280.87 156.498 280.468C155.273 279.289 154.175 276.809 154.175 276.809" stroke="#304436" stroke-width="2" stroke-linecap="round" stroke-linejoin="round"/>
<path d="M359.873 248.87C359.873 246.66 361.664 244.87 363.873 244.87L371.844 244.87L380.127 244.87C382.336 244.87 384.127 246.66 384.127 248.87V272.715C384.127 274.924 382.336 276.715 380.127 276.715H363.873C361.664 276.715 359.873 274.924 359.873 272.715V248.87Z" fill="white" stroke="#274430"/>
<path d="M380.959 244.87L382.49 244.87C383.358 244.87 384.061 245.573 384.061 246.441V273.612C384.061 275.326 382.672 276.715 380.959 276.715V244.87Z" fill="#565656" fill-opacity="0.3"/>
<ellipse cx="372" cy="252.505" rx="4.04236" ry="4.00393" fill="#304436" stroke="#274430" stroke-width="2"/>
<path d="M372 250.103L372.61 252.522C372.711 252.92 372.41 253.306 372 253.306C371.59 253.306 371.289 252.92 371.389 252.522L372 250.103Z" fill="white"/>
<ellipse cx="372" cy="268.707" rx="3.23388" ry="3.20315" fill="#304436" stroke="#274430" stroke-width="2"/>
<ellipse cx="372" cy="268.707" rx="1.61694" ry="1.60157" fill="white" fill-opacity="0.3"/>
<path d="M362.975 276.715H381.025V276.95C381.025 278.054 380.129 278.95 379.025 278.95H364.975C363.871 278.95 362.975 278.054 362.975 276.95V276.715Z" fill="white" stroke="#274430"/>
<rect width="0.806557" height="3.57766" transform="matrix(0.868081 -0.496423 0.503585 0.863945 370.787 267.306)" fill="white"/>
<path d="M380.743 276.994H379.673C379.289 276.994 378.908 277.05 378.538 277.155C377.88 277.342 376.769 277.65 375.948 277.832C373.668 278.337 370.026 278.67 370.026 278.67H380.743V276.994Z" fill="#565656" fill-opacity="0.3"/>
<g filter="url(#filter0_d_2204_1601)">
<rect x="95" y="291" width="98" height="20" fill="white" shape-rendering="crispEdges"/>
<rect x="95.5" y="291.5" width="97" height="19" stroke="#304436" shape-rendering="crispEdges"/>
<path d="M103.096 303.356V298.1H104.8V303.212C104.8 305.42 103.504 306.74 101.392 306.74C99.292 306.74 97.996 305.42 97.996 303.212V298.1H99.7V303.356C99.7 304.484 100.336 305.144 101.404 305.144C102.448 305.144 103.096 304.484 103.096 303.356ZM106.631 306.5V300.452H108.155V300.932C108.575 300.524 109.139 300.212 109.943 300.212C111.251 300.212 112.295 301.112 112.295 302.9V306.5H110.759V302.96C110.759 302.156 110.303 301.652 109.559 301.652C108.791 301.652 108.383 302.168 108.155 302.552V306.5H106.631ZM114.793 299.396C114.253 299.396 113.797 298.94 113.797 298.4C113.797 297.86 114.253 297.404 114.793 297.404C115.333 297.404 115.777 297.86 115.777 298.4C115.777 298.94 115.333 299.396 114.793 299.396ZM114.025 306.5V300.452H115.549V306.5H114.025ZM117.761 304.292V301.82H116.633V300.452H117.761V298.94H119.297V300.452H121.145V301.82H119.297V304.292C119.297 304.964 119.657 305.228 120.257 305.228C120.677 305.228 120.953 305.18 121.157 305.096V306.428C120.857 306.56 120.497 306.62 119.993 306.62C118.481 306.62 117.761 305.768 117.761 304.292ZM125.908 299.492H124.444L125.692 297.5H127.348L125.908 299.492ZM127.96 305.516C127.396 306.272 126.46 306.74 125.32 306.74C123.172 306.74 121.96 305.24 121.96 303.476C121.96 301.688 123.088 300.212 125.068 300.212C126.748 300.212 127.852 301.352 127.852 302.936C127.852 303.272 127.804 303.584 127.756 303.788H123.52C123.664 304.916 124.36 305.372 125.308 305.372C125.968 305.372 126.544 305.084 126.868 304.652L127.96 305.516ZM125.032 301.46C124.252 301.46 123.736 301.892 123.568 302.684H126.352C126.328 302.072 125.884 301.46 125.032 301.46ZM138.144 305.516C137.58 306.272 136.644 306.74 135.504 306.74C133.356 306.74 132.144 305.24 132.144 303.476C132.144 301.688 133.272 300.212 135.252 300.212C136.932 300.212 138.036 301.352 138.036 302.936C138.036 303.272 137.988 303.584 137.94 303.788H133.704C133.848 304.916 134.544 305.372 135.492 305.372C136.152 305.372 136.728 305.084 137.052 304.652L138.144 305.516ZM135.216 301.46C134.436 301.46 133.92 301.892 133.752 302.684H136.536C136.512 302.072 136.068 301.46 135.216 301.46ZM140.395 306.5H138.643L140.779 303.392L138.763 300.452H140.503L141.751 302.312L142.999 300.452H144.751L142.723 303.392L144.859 306.5H143.119L141.751 304.472L140.395 306.5ZM146.319 304.292V301.82H145.191V300.452H146.319V298.94H147.855V300.452H149.703V301.82H147.855V304.292C147.855 304.964 148.215 305.228 148.815 305.228C149.235 305.228 149.511 305.18 149.715 305.096V306.428C149.415 306.56 149.055 306.62 148.551 306.62C147.039 306.62 146.319 305.768 146.319 304.292ZM154.467 299.492H153.003L154.251 297.5H155.907L154.467 299.492ZM156.519 305.516C155.955 306.272 155.019 306.74 153.879 306.74C151.731 306.74 150.519 305.24 150.519 303.476C150.519 301.688 151.647 300.212 153.627 300.212C155.307 300.212 156.411 301.352 156.411 302.936C156.411 303.272 156.363 303.584 156.315 303.788H152.079C152.223 304.916 152.919 305.372 153.867 305.372C154.527 305.372 155.103 305.084 155.427 304.652L156.519 305.516ZM153.591 301.46C152.811 301.46 152.295 301.892 152.127 302.684H154.911C154.887 302.072 154.443 301.46 153.591 301.46ZM157.9 306.5V300.452H159.424V301.052C159.82 300.644 160.336 300.332 161.02 300.332C161.224 300.332 161.404 300.368 161.548 300.416V301.916C161.356 301.868 161.152 301.832 160.876 301.832C160.132 301.832 159.652 302.24 159.424 302.624V306.5H157.9ZM163.543 299.396C163.003 299.396 162.547 298.94 162.547 298.4C162.547 297.86 163.003 297.404 163.543 297.404C164.083 297.404 164.527 297.86 164.527 298.4C164.527 298.94 164.083 299.396 163.543 299.396ZM162.775 306.5V300.452H164.299V306.5H162.775ZM171.695 305.516C171.131 306.272 170.195 306.74 169.055 306.74C166.907 306.74 165.695 305.24 165.695 303.476C165.695 301.688 166.823 300.212 168.803 300.212C170.483 300.212 171.587 301.352 171.587 302.936C171.587 303.272 171.539 303.584 171.491 303.788H167.255C167.399 304.916 168.095 305.372 169.043 305.372C169.703 305.372 170.279 305.084 170.603 304.652L171.695 305.516ZM168.767 301.46C167.987 301.46 167.471 301.892 167.303 302.684H170.087C170.063 302.072 169.619 301.46 168.767 301.46ZM176.99 303.884V300.452H178.526V303.812C178.526 305.624 177.47 306.74 175.694 306.74C173.918 306.74 172.874 305.624 172.874 303.812V300.452H174.41V303.884C174.41 304.76 174.866 305.3 175.706 305.3C176.534 305.3 176.99 304.76 176.99 303.884ZM180.213 306.5V300.452H181.737V301.052C182.133 300.644 182.649 300.332 183.333 300.332C183.537 300.332 183.717 300.368 183.861 300.416V301.916C183.669 301.868 183.465 301.832 183.189 301.832C182.445 301.832 181.965 302.24 181.737 302.624V306.5H180.213ZM190.398 305.516C189.834 306.272 188.898 306.74 187.758 306.74C185.61 306.74 184.398 305.24 184.398 303.476C184.398 301.688 185.526 300.212 187.506 300.212C189.186 300.212 190.29 301.352 190.29 302.936C190.29 303.272 190.242 303.584 190.194 303.788H185.958C186.102 304.916 186.798 305.372 187.746 305.372C188.406 305.372 188.982 305.084 189.306 304.652L190.398 305.516ZM187.47 301.46C186.69 301.46 186.174 301.892 186.006 302.684H188.79C188.766 302.072 188.322 301.46 187.47 301.46Z" fill="#304436"/>
</g>
<g filter="url(#filter1_d_2204_1601)">
<rect x="319" y="310" width="96" height="20" fill="white" shape-rendering="crispEdges"/>
<rect x="319.5" y="310.5" width="95" height="19" stroke="#304436" shape-rendering="crispEdges"/>
<path d="M327.096 322.356V317.1H328.8V322.212C328.8 324.42 327.504 325.74 325.392 325.74C323.292 325.74 321.996 324.42 321.996 322.212V317.1H323.7V322.356C323.7 323.484 324.336 324.144 325.404 324.144C326.448 324.144 327.096 323.484 327.096 322.356ZM330.631 325.5V319.452H332.155V319.932C332.575 319.524 333.139 319.212 333.943 319.212C335.251 319.212 336.295 320.112 336.295 321.9V325.5H334.759V321.96C334.759 321.156 334.303 320.652 333.559 320.652C332.791 320.652 332.383 321.168 332.155 321.552V325.5H330.631ZM338.793 318.396C338.253 318.396 337.797 317.94 337.797 317.4C337.797 316.86 338.253 316.404 338.793 316.404C339.333 316.404 339.777 316.86 339.777 317.4C339.777 317.94 339.333 318.396 338.793 318.396ZM338.025 325.5V319.452H339.549V325.5H338.025ZM341.761 323.292V320.82H340.633V319.452H341.761V317.94H343.297V319.452H345.145V320.82H343.297V323.292C343.297 323.964 343.657 324.228 344.257 324.228C344.677 324.228 344.953 324.18 345.157 324.096V325.428C344.857 325.56 344.497 325.62 343.993 325.62C342.481 325.62 341.761 324.768 341.761 323.292ZM349.908 318.492H348.444L349.692 316.5H351.348L349.908 318.492ZM351.96 324.516C351.396 325.272 350.46 325.74 349.32 325.74C347.172 325.74 345.96 324.24 345.96 322.476C345.96 320.688 347.088 319.212 349.068 319.212C350.748 319.212 351.852 320.352 351.852 321.936C351.852 322.272 351.804 322.584 351.756 322.788H347.52C347.664 323.916 348.36 324.372 349.308 324.372C349.968 324.372 350.544 324.084 350.868 323.652L351.96 324.516ZM349.032 320.46C348.252 320.46 347.736 320.892 347.568 321.684H350.352C350.328 321.072 349.884 320.46 349.032 320.46ZM357.344 318.396C356.804 318.396 356.348 317.94 356.348 317.4C356.348 316.86 356.804 316.404 357.344 316.404C357.884 316.404 358.328 316.86 358.328 317.4C358.328 317.94 357.884 318.396 357.344 318.396ZM356.576 325.5V319.452H358.1V325.5H356.576ZM359.928 325.5V319.452H361.452V319.932C361.872 319.524 362.436 319.212 363.24 319.212C364.548 319.212 365.592 320.112 365.592 321.9V325.5H364.056V321.96C364.056 321.156 363.6 320.652 362.856 320.652C362.088 320.652 361.68 321.168 361.452 321.552V325.5H359.928ZM367.706 323.292V320.82H366.578V319.452H367.706V317.94H369.242V319.452H371.09V320.82H369.242V323.292C369.242 323.964 369.602 324.228 370.202 324.228C370.622 324.228 370.898 324.18 371.102 324.096V325.428C370.802 325.56 370.442 325.62 369.938 325.62C368.426 325.62 367.706 324.768 367.706 323.292ZM375.854 318.492H374.39L375.638 316.5H377.294L375.854 318.492ZM377.906 324.516C377.342 325.272 376.406 325.74 375.266 325.74C373.118 325.74 371.906 324.24 371.906 322.476C371.906 320.688 373.034 319.212 375.014 319.212C376.694 319.212 377.798 320.352 377.798 321.936C377.798 322.272 377.75 322.584 377.702 322.788H373.466C373.61 323.916 374.306 324.372 375.254 324.372C375.914 324.372 376.49 324.084 376.814 323.652L377.906 324.516ZM374.978 320.46C374.198 320.46 373.682 320.892 373.514 321.684H376.298C376.274 321.072 375.83 320.46 374.978 320.46ZM379.287 325.5V319.452H380.811V320.052C381.207 319.644 381.723 319.332 382.407 319.332C382.611 319.332 382.791 319.368 382.935 319.416V320.916C382.743 320.868 382.539 320.832 382.263 320.832C381.519 320.832 381.039 321.24 380.811 321.624V325.5H379.287ZM384.93 318.396C384.39 318.396 383.934 317.94 383.934 317.4C383.934 316.86 384.39 316.404 384.93 316.404C385.47 316.404 385.914 316.86 385.914 317.4C385.914 317.94 385.47 318.396 384.93 318.396ZM384.162 325.5V319.452H385.686V325.5H384.162ZM393.082 324.516C392.518 325.272 391.582 325.74 390.442 325.74C388.294 325.74 387.082 324.24 387.082 322.476C387.082 320.688 388.21 319.212 390.19 319.212C391.87 319.212 392.974 320.352 392.974 321.936C392.974 322.272 392.926 322.584 392.878 322.788H388.642C388.786 323.916 389.482 324.372 390.43 324.372C391.09 324.372 391.666 324.084 391.99 323.652L393.082 324.516ZM390.154 320.46C389.374 320.46 388.858 320.892 388.69 321.684H391.474C391.45 321.072 391.006 320.46 390.154 320.46ZM398.376 322.884V319.452H399.912V322.812C399.912 324.624 398.856 325.74 397.08 325.74C395.304 325.74 394.26 324.624 394.26 322.812V319.452H395.796V322.884C395.796 323.76 396.252 324.3 397.092 324.3C397.92 324.3 398.376 323.76 398.376 322.884ZM401.6 325.5V319.452H403.124V320.052C403.52 319.644 404.036 319.332 404.72 319.332C404.924 319.332 405.104 319.368 405.248 319.416V320.916C405.056 320.868 404.852 320.832 404.576 320.832C403.832 320.832 403.352 321.24 403.124 321.624V325.5H401.6ZM411.785 324.516C411.221 325.272 410.285 325.74 409.145 325.74C406.997 325.74 405.785 324.24 405.785 322.476C405.785 320.688 406.913 319.212 408.893 319.212C410.573 319.212 411.677 320.352 411.677 321.936C411.677 322.272 411.629 322.584 411.581 322.788H407.345C407.489 323.916 408.185 324.372 409.133 324.372C409.793 324.372 410.369 324.084 410.693 323.652L411.785 324.516ZM408.857 320.46C408.077 320.46 407.561 320.892 407.393 321.684H410.177C410.153 321.072 409.709 320.46 408.857 320.46Z" fill="#304436"/>
</g>
<g filter="url(#filter2_d_2204_1601)">
<rect x="197" y="310" width="112" height="20" fill="white" shape-rendering="crispEdges"/>
<rect x="197.5" y="310.5" width="111" height="19" stroke="#304436" shape-rendering="crispEdges"/>
<path d="M199.48 324.336L200.716 323.196C201.22 323.844 201.892 324.228 202.576 324.228C203.248 324.228 203.656 323.868 203.656 323.268C203.656 321.72 199.84 322.14 199.84 319.296C199.84 317.964 200.944 316.86 202.552 316.86C203.812 316.86 204.772 317.424 205.492 318.276L204.244 319.404C203.752 318.768 203.2 318.348 202.564 318.348C201.964 318.348 201.568 318.732 201.568 319.236C201.568 320.76 205.384 320.328 205.384 323.208C205.36 324.792 204.136 325.74 202.588 325.74C201.172 325.74 200.224 325.224 199.48 324.336ZM207.151 323.292V320.82H206.023V319.452H207.151V317.94H208.687V319.452H210.535V320.82H208.687V323.292C208.687 323.964 209.047 324.228 209.647 324.228C210.067 324.228 210.343 324.18 210.547 324.096V325.428C210.247 325.56 209.887 325.62 209.383 325.62C207.871 325.62 207.151 324.768 207.151 323.292ZM214.663 319.212C216.631 319.212 217.975 320.664 217.975 322.476C217.975 324.288 216.631 325.74 214.663 325.74C212.695 325.74 211.351 324.288 211.351 322.476C211.351 320.664 212.695 319.212 214.663 319.212ZM214.687 324.3C215.659 324.3 216.391 323.52 216.391 322.476C216.391 321.42 215.659 320.652 214.687 320.652C213.679 320.652 212.935 321.42 212.935 322.476C212.935 323.532 213.679 324.3 214.687 324.3ZM222.328 324.3C222.928 324.3 223.408 324.024 223.696 323.604L224.884 324.516C224.32 325.26 223.432 325.74 222.328 325.74C220.24 325.74 218.992 324.24 218.992 322.476C218.992 320.712 220.24 319.212 222.328 319.212C223.432 319.212 224.32 319.692 224.884 320.436L223.696 321.348C223.408 320.928 222.928 320.652 222.304 320.652C221.308 320.652 220.576 321.42 220.576 322.476C220.576 323.544 221.308 324.3 222.328 324.3ZM226.045 325.5V316.5H227.581V321.768L229.801 319.452H231.709L229.225 322.02L231.697 325.5H229.825L228.145 323.124L227.581 323.7V325.5H226.045ZM234.335 325.68C233.123 325.68 232.295 324.984 232.295 323.868C232.295 322.956 233.003 322.272 234.299 322.056L236.147 321.744V321.588C236.147 320.952 235.667 320.544 234.971 320.544C234.383 320.544 233.927 320.82 233.603 321.264L232.487 320.412C233.027 319.668 233.915 319.212 235.019 319.212C236.771 319.212 237.671 320.256 237.671 321.588V325.5H236.147V324.912C235.763 325.38 235.043 325.68 234.335 325.68ZM233.807 323.796C233.807 324.204 234.131 324.468 234.647 324.468C235.343 324.468 235.847 324.144 236.147 323.664V322.812L234.707 323.052C234.071 323.16 233.807 323.424 233.807 323.796ZM238.816 326.556C238.816 325.956 239.116 325.476 239.656 325.08C239.416 324.84 239.284 324.516 239.284 324.204C239.284 323.724 239.488 323.34 239.944 323.004C239.416 322.608 239.128 322.008 239.128 321.336C239.128 320.16 240.04 319.212 241.552 319.212C242.02 319.212 242.428 319.296 242.776 319.452H244.984V320.748H243.916C243.976 320.94 244 321.132 244 321.336C244 322.524 243.112 323.484 241.552 323.484C241.348 323.484 241.156 323.472 240.976 323.436C240.844 323.556 240.772 323.688 240.772 323.82C240.772 324.06 240.904 324.18 241.18 324.18H242.704C244.228 324.18 245.056 324.996 245.056 326.124C245.056 327.468 243.772 328.5 241.888 328.5C239.956 328.5 238.816 327.828 238.816 326.556ZM241.576 322.332C242.212 322.332 242.62 321.936 242.62 321.336C242.62 320.736 242.212 320.352 241.576 320.352C240.916 320.352 240.52 320.748 240.52 321.336C240.52 321.936 240.916 322.332 241.576 322.332ZM240.256 326.34C240.256 326.916 240.808 327.276 241.876 327.276C242.98 327.276 243.544 326.868 243.544 326.268C243.544 325.812 243.268 325.488 242.536 325.488H240.664C240.436 325.704 240.256 325.968 240.256 326.34ZM251.382 324.516C250.818 325.272 249.882 325.74 248.742 325.74C246.594 325.74 245.382 324.24 245.382 322.476C245.382 320.688 246.51 319.212 248.49 319.212C250.17 319.212 251.274 320.352 251.274 321.936C251.274 322.272 251.226 322.584 251.178 322.788H246.942C247.086 323.916 247.782 324.372 248.73 324.372C249.39 324.372 249.966 324.084 250.29 323.652L251.382 324.516ZM248.454 320.46C247.674 320.46 247.158 320.892 246.99 321.684H249.774C249.75 321.072 249.306 320.46 248.454 320.46ZM261.566 324.516C261.002 325.272 260.066 325.74 258.926 325.74C256.778 325.74 255.566 324.24 255.566 322.476C255.566 320.688 256.694 319.212 258.674 319.212C260.354 319.212 261.458 320.352 261.458 321.936C261.458 322.272 261.41 322.584 261.362 322.788H257.126C257.27 323.916 257.966 324.372 258.914 324.372C259.574 324.372 260.15 324.084 260.474 323.652L261.566 324.516ZM258.638 320.46C257.858 320.46 257.342 320.892 257.174 321.684H259.958C259.934 321.072 259.49 320.46 258.638 320.46ZM264.569 325.68C263.357 325.68 262.529 324.984 262.529 323.868C262.529 322.956 263.237 322.272 264.533 322.056L266.381 321.744V321.588C266.381 320.952 265.901 320.544 265.205 320.544C264.617 320.544 264.161 320.82 263.837 321.264L262.721 320.412C263.261 319.668 264.149 319.212 265.253 319.212C267.005 319.212 267.905 320.256 267.905 321.588V325.5H266.381V324.912C265.997 325.38 265.277 325.68 264.569 325.68ZM264.041 323.796C264.041 324.204 264.365 324.468 264.881 324.468C265.577 324.468 266.081 324.144 266.381 323.664V322.812L264.941 323.052C264.305 323.16 264.041 323.424 264.041 323.796ZM273.634 322.884V319.452H275.17V322.812C275.17 324.624 274.114 325.74 272.338 325.74C270.562 325.74 269.518 324.624 269.518 322.812V319.452H271.054V322.884C271.054 323.76 271.51 324.3 272.35 324.3C273.178 324.3 273.634 323.76 273.634 322.884ZM279.492 326.556C279.492 325.956 279.792 325.476 280.332 325.08C280.092 324.84 279.96 324.516 279.96 324.204C279.96 323.724 280.164 323.34 280.62 323.004C280.092 322.608 279.804 322.008 279.804 321.336C279.804 320.16 280.716 319.212 282.228 319.212C282.696 319.212 283.104 319.296 283.452 319.452H285.66V320.748H284.592C284.652 320.94 284.676 321.132 284.676 321.336C284.676 322.524 283.788 323.484 282.228 323.484C282.024 323.484 281.832 323.472 281.652 323.436C281.52 323.556 281.448 323.688 281.448 323.82C281.448 324.06 281.58 324.18 281.856 324.18H283.38C284.904 324.18 285.732 324.996 285.732 326.124C285.732 327.468 284.448 328.5 282.564 328.5C280.632 328.5 279.492 327.828 279.492 326.556ZM282.252 322.332C282.888 322.332 283.296 321.936 283.296 321.336C283.296 320.736 282.888 320.352 282.252 320.352C281.592 320.352 281.196 320.748 281.196 321.336C281.196 321.936 281.592 322.332 282.252 322.332ZM280.932 326.34C280.932 326.916 281.484 327.276 282.552 327.276C283.656 327.276 284.22 326.868 284.22 326.268C284.22 325.812 283.944 325.488 283.212 325.488H281.34C281.112 325.704 280.932 325.968 280.932 326.34ZM286.783 325.5V319.452H288.307V320.052C288.703 319.644 289.219 319.332 289.903 319.332C290.107 319.332 290.287 319.368 290.431 319.416V320.916C290.239 320.868 290.035 320.832 289.759 320.832C289.015 320.832 288.535 321.24 288.307 321.624V325.5H286.783ZM292.426 318.396C291.886 318.396 291.43 317.94 291.43 317.4C291.43 316.86 291.886 316.404 292.426 316.404C292.966 316.404 293.41 316.86 293.41 317.4C293.41 317.94 292.966 318.396 292.426 318.396ZM291.658 325.5V319.452H293.182V325.5H291.658ZM294.4 324.624L295.408 323.712C295.78 324.18 296.224 324.516 296.8 324.516C297.292 324.516 297.544 324.228 297.544 323.868C297.544 322.812 294.652 323.208 294.652 321.084C294.652 320.016 295.552 319.212 296.812 319.212C297.736 319.212 298.576 319.656 299.008 320.244L298 321.132C297.688 320.748 297.292 320.436 296.824 320.436C296.344 320.436 296.116 320.7 296.116 321.012C296.116 322.044 299.008 321.684 299.008 323.772C298.984 325.044 297.964 325.74 296.824 325.74C295.744 325.74 294.976 325.308 294.4 324.624ZM305.957 324.516C305.393 325.272 304.457 325.74 303.317 325.74C301.169 325.74 299.957 324.24 299.957 322.476C299.957 320.688 301.085 319.212 303.065 319.212C304.745 319.212 305.849 320.352 305.849 321.936C305.849 322.272 305.801 322.584 305.753 322.788H301.517C301.661 323.916 302.357 324.372 303.305 324.372C303.965 324.372 304.541 324.084 304.865 323.652L305.957 324.516ZM303.029 320.46C302.249 320.46 301.733 320.892 301.565 321.684H304.349C304.325 321.072 303.881 320.46 303.029 320.46Z" fill="#304436"/>
</g>
<g filter="url(#filter3_d_2204_1601)">
<rect x="387" y="249" width="121" height="21" fill="white" shape-rendering="crispEdges"/>
<rect x="387.5" y="249.5" width="120" height="20" stroke="#304436" shape-rendering="crispEdges"/>
<path d="M390.236 265V256.6H392.708C394.46 256.6 395.528 257.464 395.528 258.88C395.528 259.564 395.216 260.152 394.628 260.536C395.516 260.932 396.008 261.652 396.008 262.528C396.008 264.064 394.82 265 392.888 265H390.236ZM392.744 258.016H391.94V259.912H392.744C393.392 259.912 393.776 259.564 393.776 258.952C393.776 258.364 393.392 258.016 392.744 258.016ZM392.984 261.328H391.94V263.584H392.984C393.776 263.584 394.256 263.164 394.256 262.456C394.256 261.736 393.776 261.328 392.984 261.328ZM399.257 265.18C398.045 265.18 397.217 264.484 397.217 263.368C397.217 262.456 397.925 261.772 399.221 261.556L401.069 261.244V261.088C401.069 260.452 400.589 260.044 399.893 260.044C399.305 260.044 398.849 260.32 398.525 260.764L397.409 259.912C397.949 259.168 398.837 258.712 399.941 258.712C401.693 258.712 402.593 259.756 402.593 261.088V265H401.069V264.412C400.685 264.88 399.965 265.18 399.257 265.18ZM398.729 263.296C398.729 263.704 399.053 263.968 399.569 263.968C400.265 263.968 400.769 263.644 401.069 263.164V262.312L399.629 262.552C398.993 262.66 398.729 262.924 398.729 263.296ZM404.338 265V256H405.862V265H404.338ZM407.689 265V256H409.213V265H407.689ZM413.921 258.712C415.889 258.712 417.233 260.164 417.233 261.976C417.233 263.788 415.889 265.24 413.921 265.24C411.953 265.24 410.609 263.788 410.609 261.976C410.609 260.164 411.953 258.712 413.921 258.712ZM413.945 263.8C414.917 263.8 415.649 263.02 415.649 261.976C415.649 260.92 414.917 260.152 413.945 260.152C412.937 260.152 412.193 260.92 412.193 261.976C412.193 263.032 412.937 263.8 413.945 263.8ZM418.623 265V258.952H420.147V259.432C420.567 259.024 421.131 258.712 421.935 258.712C423.243 258.712 424.287 259.612 424.287 261.4V265H422.751V261.46C422.751 260.656 422.295 260.152 421.551 260.152C420.783 260.152 420.375 260.668 420.147 261.052V265H418.623ZM428.82 261.976C428.82 260.212 429.984 258.712 431.892 258.712C432.708 258.712 433.296 258.964 433.764 259.432V256H435.3V265H433.764V264.52C433.296 264.988 432.708 265.24 431.892 265.24C429.984 265.24 428.82 263.74 428.82 261.976ZM430.416 261.976C430.416 263.032 431.076 263.8 432.108 263.8C432.792 263.8 433.356 263.512 433.764 262.96V260.992C433.356 260.44 432.792 260.152 432.108 260.152C431.076 260.152 430.416 260.92 430.416 261.976ZM437.941 260.056H436.525L437.605 256.6H439.333L437.941 260.056ZM445.425 264.016C444.861 264.772 443.925 265.24 442.785 265.24C440.637 265.24 439.425 263.74 439.425 261.976C439.425 260.188 440.553 258.712 442.533 258.712C444.213 258.712 445.317 259.852 445.317 261.436C445.317 261.772 445.269 262.084 445.221 262.288H440.985C441.129 263.416 441.825 263.872 442.773 263.872C443.433 263.872 444.009 263.584 444.333 263.152L445.425 264.016ZM442.497 259.96C441.717 259.96 441.201 260.392 441.033 261.184H443.817C443.793 260.572 443.349 259.96 442.497 259.96ZM448.429 265.18C447.217 265.18 446.389 264.484 446.389 263.368C446.389 262.456 447.097 261.772 448.393 261.556L450.241 261.244V261.088C450.241 260.452 449.761 260.044 449.065 260.044C448.477 260.044 448.021 260.32 447.697 260.764L446.581 259.912C447.121 259.168 448.009 258.712 449.113 258.712C450.865 258.712 451.765 259.756 451.765 261.088V265H450.241V264.412C449.857 264.88 449.137 265.18 448.429 265.18ZM447.901 263.296C447.901 263.704 448.225 263.968 448.741 263.968C449.437 263.968 449.941 263.644 450.241 263.164V262.312L448.801 262.552C448.165 262.66 447.901 262.924 447.901 263.296ZM457.494 262.384V258.952H459.03V262.312C459.03 264.124 457.974 265.24 456.198 265.24C454.422 265.24 453.378 264.124 453.378 262.312V258.952H454.914V262.384C454.914 263.26 455.37 263.8 456.21 263.8C457.038 263.8 457.494 263.26 457.494 262.384ZM466.855 263.8C467.455 263.8 467.935 263.524 468.223 263.104L469.411 264.016C468.847 264.76 467.959 265.24 466.855 265.24C464.767 265.24 463.519 263.74 463.519 261.976C463.519 260.212 464.767 258.712 466.855 258.712C467.959 258.712 468.847 259.192 469.411 259.936L468.223 260.848C467.935 260.428 467.455 260.152 466.831 260.152C465.835 260.152 465.103 260.92 465.103 261.976C465.103 263.044 465.835 263.8 466.855 263.8ZM470.549 265V256H472.073V259.432C472.493 259.024 473.057 258.712 473.861 258.712C475.169 258.712 476.213 259.612 476.213 261.4V265H474.677V261.46C474.677 260.656 474.233 260.152 473.477 260.152C472.709 260.152 472.301 260.668 472.073 261.052V265H470.549ZM479.647 265.18C478.435 265.18 477.607 264.484 477.607 263.368C477.607 262.456 478.315 261.772 479.611 261.556L481.459 261.244V261.088C481.459 260.452 480.979 260.044 480.283 260.044C479.695 260.044 479.239 260.32 478.915 260.764L477.799 259.912C478.339 259.168 479.227 258.712 480.331 258.712C482.083 258.712 482.983 259.756 482.983 261.088V265H481.459V264.412C481.075 264.88 480.355 265.18 479.647 265.18ZM479.119 263.296C479.119 263.704 479.443 263.968 479.959 263.968C480.655 263.968 481.159 263.644 481.459 263.164V262.312L480.019 262.552C479.383 262.66 479.119 262.924 479.119 263.296ZM488.712 262.384V258.952H490.248V262.312C490.248 264.124 489.192 265.24 487.416 265.24C485.64 265.24 484.596 264.124 484.596 262.312V258.952H486.132V262.384C486.132 263.26 486.588 263.8 487.428 263.8C488.256 263.8 488.712 263.26 488.712 262.384ZM491.503 261.976C491.503 260.212 492.667 258.712 494.575 258.712C495.391 258.712 495.979 258.964 496.447 259.432V256H497.983V265H496.447V264.52C495.979 264.988 495.391 265.24 494.575 265.24C492.667 265.24 491.503 263.74 491.503 261.976ZM493.099 261.976C493.099 263.032 493.759 263.8 494.791 263.8C495.475 263.8 496.039 263.512 496.447 262.96V260.992C496.039 260.44 495.475 260.152 494.791 260.152C493.759 260.152 493.099 260.92 493.099 261.976ZM505.378 264.016C504.814 264.772 503.878 265.24 502.738 265.24C500.59 265.24 499.378 263.74 499.378 261.976C499.378 260.188 500.506 258.712 502.486 258.712C504.166 258.712 505.27 259.852 505.27 261.436C505.27 261.772 505.222 262.084 505.174 262.288H500.938C501.082 263.416 501.778 263.872 502.726 263.872C503.386 263.872 503.962 263.584 504.286 263.152L505.378 264.016ZM502.45 259.96C501.67 259.96 501.154 260.392 500.986 261.184H503.77C503.746 260.572 503.302 259.96 502.45 259.96Z" fill="#304436"/>
</g>
<g filter="url(#filter4_d_2204_1601)">
<rect x="107" y="223" width="22" height="20" fill="white" shape-rendering="crispEdges"/>
<rect x="107.5" y="223.5" width="21" height="19" stroke="#304436" shape-rendering="crispEdges"/>
<path d="M109.18 238.5L112.36 230.1H114.592L117.772 238.5H115.96L115.156 236.316H111.796L110.992 238.5H109.18ZM112.324 234.864H114.628L113.476 231.708L112.324 234.864ZM119.996 231.396C119.456 231.396 119 230.94 119 230.4C119 229.86 119.456 229.404 119.996 229.404C120.536 229.404 120.98 229.86 120.98 230.4C120.98 230.94 120.536 231.396 119.996 231.396ZM119.228 238.5V232.452H120.752V238.5H119.228ZM122.58 238.5V232.452H124.104V233.052C124.5 232.644 125.016 232.332 125.7 232.332C125.904 232.332 126.084 232.368 126.228 232.416V233.916C126.036 233.868 125.832 233.832 125.556 233.832C124.812 233.832 124.332 234.24 124.104 234.624V238.5H122.58Z" fill="#304436"/>
</g>
<path d="M208.912 301V292H210.436V301H208.912ZM215.144 294.712C217.112 294.712 218.456 296.164 218.456 297.976C218.456 299.788 217.112 301.24 215.144 301.24C213.176 301.24 211.832 299.788 211.832 297.976C211.832 296.164 213.176 294.712 215.144 294.712ZM215.168 299.8C216.14 299.8 216.872 299.02 216.872 297.976C216.872 296.92 216.14 296.152 215.168 296.152C214.16 296.152 213.416 296.92 213.416 297.976C213.416 299.032 214.16 299.8 215.168 299.8ZM222.808 299.8C223.408 299.8 223.888 299.524 224.176 299.104L225.364 300.016C224.8 300.76 223.912 301.24 222.808 301.24C220.72 301.24 219.472 299.74 219.472 297.976C219.472 296.212 220.72 294.712 222.808 294.712C223.912 294.712 224.8 295.192 225.364 295.936L224.176 296.848C223.888 296.428 223.408 296.152 222.784 296.152C221.788 296.152 221.056 296.92 221.056 297.976C221.056 299.044 221.788 299.8 222.808 299.8ZM228.1 301.18C226.888 301.18 226.06 300.484 226.06 299.368C226.06 298.456 226.768 297.772 228.064 297.556L229.912 297.244V297.088C229.912 296.452 229.432 296.044 228.736 296.044C228.148 296.044 227.692 296.32 227.368 296.764L226.252 295.912C226.792 295.168 227.68 294.712 228.784 294.712C230.536 294.712 231.436 295.756 231.436 297.088V301H229.912V300.412C229.528 300.88 228.808 301.18 228.1 301.18ZM227.572 299.296C227.572 299.704 227.896 299.968 228.412 299.968C229.108 299.968 229.612 299.644 229.912 299.164V298.312L228.472 298.552C227.836 298.66 227.572 298.924 227.572 299.296ZM233.182 301V292H234.706V301H233.182Z" fill="#535F57"/>
<path d="M279 272.5C282.247 272.5 286.763 272.983 289.212 273.277C289.948 273.366 290.5 273.993 290.5 274.744V305.5H267.5V274.744C267.5 273.993 268.052 273.366 268.788 273.277C271.237 272.983 275.753 272.5 279 272.5Z" fill="white" stroke="#304436"/>
<path d="M279 288.929C281.32 288.929 284.296 289.211 286.705 289.496C287.906 289.638 288.961 289.781 289.716 289.888C290.035 289.933 290.3 289.971 290.5 290.001V298.419C290.321 298.393 290.105 298.361 289.856 298.326C289.096 298.219 288.033 298.075 286.822 297.932C284.407 297.646 281.382 297.357 279 297.357C276.618 297.357 273.593 297.646 271.178 297.932C269.967 298.075 268.904 298.219 268.144 298.326C267.895 298.361 267.679 298.393 267.5 298.419V290.001C267.7 289.971 267.965 289.933 268.284 289.888C269.039 289.781 270.094 289.638 271.295 289.496C273.704 289.211 276.68 288.929 279 288.929ZM279 279.5C281.32 279.5 284.296 279.783 286.705 280.068C287.906 280.211 288.961 280.352 289.716 280.459C290.035 280.504 290.3 280.543 290.5 280.572V288.991C290.321 288.965 290.105 288.933 289.856 288.897C289.096 288.79 288.033 288.647 286.822 288.504C284.407 288.218 281.382 287.929 279 287.929C276.618 287.929 273.593 288.218 271.178 288.504C269.967 288.647 268.904 288.79 268.144 288.897C267.895 288.933 267.679 288.965 267.5 288.991V280.572C267.7 280.543 267.965 280.504 268.284 280.459C269.039 280.352 270.094 280.211 271.295 280.068C273.704 279.783 276.68 279.5 279 279.5Z" stroke="#304436"/>
<path d="M299.084 46.7248C299.084 44.7645 300.732 43.1755 302.764 43.1755H342.315C344.347 43.1755 345.994 44.7645 345.994 46.7248V67.1331C345.994 69.0933 344.347 70.6824 342.315 70.6824H302.764C300.732 70.6824 299.084 69.0933 299.084 67.1331V46.7248Z" fill="white" stroke="#304436" stroke-dasharray="2 2"/>
<path d="M309.082 48.5241C307.859 49.3472 307.417 51.6553 308.221 53.0785C308.581 53.5793 308.951 53.8727 308.951 53.8727C308.642 53.6695 308.401 53.396 308.221 53.0785C307.81 52.5074 307.411 51.6667 307.586 50.6839C307.913 48.8391 309.082 48.5241 309.082 48.5241Z" fill="white" fill-opacity="0.3"/>
<path d="M329.747 50.2286H339.754" stroke="#304436" stroke-width="2" stroke-linecap="round"/>
<path d="M329.746 54H339.753" stroke="#304436" stroke-width="2" stroke-linecap="round"/>
<path d="M329.746 57.6H339.753" stroke="#304436" stroke-width="2" stroke-linecap="round"/>
<path d="M310.768 55.6251L308.622 53.4931C307.754 52.6304 307.86 51.1948 308.93 50.6008C309.529 50.2686 310.183 49.9577 310.768 49.7965C312.457 49.3308 315.254 49.6488 315.254 49.6488" stroke="#304436" stroke-width="2" stroke-linecap="round" stroke-linejoin="round"/>
<path d="M315.426 56.9233L318.379 56.1372C319.557 55.8234 320.74 56.6232 320.724 57.8366C320.715 58.523 320.659 59.249 320.506 59.8376C320.068 61.5237 318.392 63.7714 318.392 63.7714" stroke="#304436" stroke-width="2" stroke-linecap="round" stroke-linejoin="round"/>
<path d="M311.756 60.26L310.964 63.1936C310.649 64.3648 309.36 64.9829 308.31 64.3624C307.717 64.0114 307.112 63.6003 306.675 63.1743C305.425 61.9538 304.304 59.3881 304.304 59.3881" stroke="#304436" stroke-width="2" stroke-linecap="round" stroke-linejoin="round"/>
<defs>
<filter id="filter0_d_2204_1601" x="95" y="291" width="99" height="21" filterUnits="userSpaceOnUse" color-interpolation-filters="sRGB">
<feFlood flood-opacity="0" result="BackgroundImageFix"/>
<feColorMatrix in="SourceAlpha" type="matrix" values="0 0 0 0 0 0 0 0 0 0 0 0 0 0 0 0 0 0 127 0" result="hardAlpha"/>
<feOffset dx="1" dy="1"/>
<feComposite in2="hardAlpha" operator="out"/>
<feColorMatrix type="matrix" values="0 0 0 0 0.188235 0 0 0 0 0.266667 0 0 0 0 0.211765 0 0 0 1 0"/>
<feBlend mode="normal" in2="BackgroundImageFix" result="effect1_dropShadow_2204_1601"/>
<feBlend mode="normal" in="SourceGraphic" in2="effect1_dropShadow_2204_1601" result="shape"/>
</filter>
<filter id="filter1_d_2204_1601" x="319" y="310" width="97" height="21" filterUnits="userSpaceOnUse" color-interpolation-filters="sRGB">
<feFlood flood-opacity="0" result="BackgroundImageFix"/>
<feColorMatrix in="SourceAlpha" type="matrix" values="0 0 0 0 0 0 0 0 0 0 0 0 0 0 0 0 0 0 127 0" result="hardAlpha"/>
<feOffset dx="1" dy="1"/>
<feComposite in2="hardAlpha" operator="out"/>
<feColorMatrix type="matrix" values="0 0 0 0 0.188235 0 0 0 0 0.266667 0 0 0 0 0.211765 0 0 0 1 0"/>
<feBlend mode="normal" in2="BackgroundImageFix" result="effect1_dropShadow_2204_1601"/>
<feBlend mode="normal" in="SourceGraphic" in2="effect1_dropShadow_2204_1601" result="shape"/>
</filter>
<filter id="filter2_d_2204_1601" x="197" y="310" width="113" height="21" filterUnits="userSpaceOnUse" color-interpolation-filters="sRGB">
<feFlood flood-opacity="0" result="BackgroundImageFix"/>
<feColorMatrix in="SourceAlpha" type="matrix" values="0 0 0 0 0 0 0 0 0 0 0 0 0 0 0 0 0 0 127 0" result="hardAlpha"/>
<feOffset dx="1" dy="1"/>
<feComposite in2="hardAlpha" operator="out"/>
<feColorMatrix type="matrix" values="0 0 0 0 0.188235 0 0 0 0 0.266667 0 0 0 0 0.211765 0 0 0 1 0"/>
<feBlend mode="normal" in2="BackgroundImageFix" result="effect1_dropShadow_2204_1601"/>
<feBlend mode="normal" in="SourceGraphic" in2="effect1_dropShadow_2204_1601" result="shape"/>
</filter>
<filter id="filter3_d_2204_1601" x="387" y="249" width="122" height="22" filterUnits="userSpaceOnUse" color-interpolation-filters="sRGB">
<feFlood flood-opacity="0" result="BackgroundImageFix"/>
<feColorMatrix in="SourceAlpha" type="matrix" values="0 0 0 0 0 0 0 0 0 0 0 0 0 0 0 0 0 0 127 0" result="hardAlpha"/>
<feOffset dx="1" dy="1"/>
<feComposite in2="hardAlpha" operator="out"/>
<feColorMatrix type="matrix" values="0 0 0 0 0.188235 0 0 0 0 0.266667 0 0 0 0 0.211765 0 0 0 1 0"/>
<feBlend mode="normal" in2="BackgroundImageFix" result="effect1_dropShadow_2204_1601"/>
<feBlend mode="normal" in="SourceGraphic" in2="effect1_dropShadow_2204_1601" result="shape"/>
</filter>
<filter id="filter4_d_2204_1601" x="107" y="223" width="23" height="21" filterUnits="userSpaceOnUse" color-interpolation-filters="sRGB">
<feFlood flood-opacity="0" result="BackgroundImageFix"/>
<feColorMatrix in="SourceAlpha" type="matrix" values="0 0 0 0 0 0 0 0 0 0 0 0 0 0 0 0 0 0 127 0" result="hardAlpha"/>
<feOffset dx="1" dy="1"/>
<feComposite in2="hardAlpha" operator="out"/>
<feColorMatrix type="matrix" values="0 0 0 0 0.188235 0 0 0 0 0.266667 0 0 0 0 0.211765 0 0 0 1 0"/>
<feBlend mode="normal" in2="BackgroundImageFix" result="effect1_dropShadow_2204_1601"/>
<feBlend mode="normal" in="SourceGraphic" in2="effect1_dropShadow_2204_1601" result="shape"/>
</filter>
<clipPath id="clip0_2204_1601">
<rect x="249.11" y="21.813" width="28.4629" height="46.6189" rx="2" fill="white"/>
</clipPath>
<pattern id="pattern0_2204_1601" patternUnits="userSpaceOnUse" patternTransform="matrix(17 0 0 14 202.5 75.5)" preserveAspectRatio="none" viewBox="-0.5 -0.5 17 14" width="1" height="1">
<use xlink:href="#pattern0_2204_1601_inner" transform="translate(-25.5 -7)"/>
<use xlink:href="#pattern0_2204_1601_inner" transform="translate(-8.5 -7)"/>
<use xlink:href="#pattern0_2204_1601_inner" transform="translate(8.5 -7)"/>
<use xlink:href="#pattern0_2204_1601_inner" transform="translate(-34 0)"/>
<use xlink:href="#pattern0_2204_1601_inner" transform="translate(-17 0)"/>
<g id="pattern0_2204_1601_inner">
<rect width="17" height="7" fill="#F3E1D1" stroke="white"/>
</g>
<use xlink:href="#pattern0_2204_1601_inner" transform="translate(-25.5 7)"/>
<use xlink:href="#pattern0_2204_1601_inner" transform="translate(-8.5 7)"/>
<use xlink:href="#pattern0_2204_1601_inner" transform="translate(8.5 7)"/>
</pattern></defs>
</svg>
