<svg width="501" height="362" viewBox="0 0 501 362" fill="none" xmlns="http://www.w3.org/2000/svg" xmlns:xlink="http://www.w3.org/1999/xlink">
<path d="M0 0H500V362H0V0Z" fill="white"/>
<path d="M500 0H499V362H500H501V0H500Z" fill="#E9E9E9"/>
<path d="M434 288H56C46.6112 288 39 295.611 39 305V321C39 321 44.6904 323.442 48.5 324.5C64.5465 328.955 74.3628 321.735 91 321C110.312 320.147 121.184 320.228 140.5 321C158.307 321.712 168.259 326.189 186 324.5C199.768 323.19 206.946 332.753 220.5 330C242.774 325.476 255.277 321.487 278 321C296.222 320.61 306.308 326.116 324.5 325C335.139 324.347 340.892 322.043 351.5 321L351.814 320.969C372.803 318.905 385.081 317.697 406 321C424.123 323.862 451 334.5 451 334.5V305C451 295.611 443.389 288 434 288Z" fill="#9A8D81" stroke="#304436" stroke-width="2"/>
<path d="M39 354H451V334.5C451 334.5 424.123 323.861 406 321C385.081 317.697 372.803 318.905 351.814 320.969L351.5 321C340.892 322.043 335.139 324.347 324.5 325C306.308 326.116 296.222 320.61 278 321C255.277 321.487 242.774 325.476 220.5 330C206.946 332.753 199.768 323.189 186 324.5C168.259 326.189 158.307 321.712 140.5 321C121.184 320.228 110.312 320.147 91 321C74.3628 321.735 64.5465 328.955 48.5 324.5C44.6904 323.442 39 321 39 321V354Z" fill="#624D45" stroke="#304436" stroke-width="2"/>
<path d="M53.5 332H61.5" stroke="#304436" stroke-width="2" stroke-linecap="round"/>
<path d="M208 301H216" stroke="#304436" stroke-width="2" stroke-linecap="round"/>
<path d="M53 319H61" stroke="#304436" stroke-width="2" stroke-linecap="round"/>
<path d="M392 295H400" stroke="#304436" stroke-width="2" stroke-linecap="round"/>
<path d="M281 333H289" stroke="#304436" stroke-width="2" stroke-linecap="round"/>
<path d="M217 347H225" stroke="#304436" stroke-width="2" stroke-linecap="round"/>
<path d="M198 345H190" stroke="#304436" stroke-width="2" stroke-linecap="round"/>
<path d="M352.5 314H344.5" stroke="#304436" stroke-width="2" stroke-linecap="round"/>
<path d="M361 300H353" stroke="#304436" stroke-width="2" stroke-linecap="round"/>
<path d="M425.5 346H417.5" stroke="#304436" stroke-width="2" stroke-linecap="round"/>
<path d="M174 329H166" stroke="#304436" stroke-width="2" stroke-linecap="round"/>
<path d="M328.5 298H320.5" stroke="#304436" stroke-width="2" stroke-linecap="round"/>
<path d="M401.5 330H393.5" stroke="#304436" stroke-width="2" stroke-linecap="round"/>
<path d="M69.5 343H77.5" stroke="#304436" stroke-width="2" stroke-linecap="round"/>
<path d="M224 312H232" stroke="#304436" stroke-width="2" stroke-linecap="round"/>
<path d="M48 306H56" stroke="#304436" stroke-width="2" stroke-linecap="round"/>
<path d="M408 306H416" stroke="#304436" stroke-width="2" stroke-linecap="round"/>
<path d="M297 344H305" stroke="#304436" stroke-width="2" stroke-linecap="round"/>
<path d="M233 336H241" stroke="#304436" stroke-width="2" stroke-linecap="round"/>
<path d="M117.5 330H125.5" stroke="#304436" stroke-width="2" stroke-linecap="round"/>
<path d="M272 299H280" stroke="#304436" stroke-width="2" stroke-linecap="round"/>
<path d="M199 316H207" stroke="#304436" stroke-width="2" stroke-linecap="round"/>
<path d="M345 331H353" stroke="#304436" stroke-width="2" stroke-linecap="round"/>
<path d="M134 343H126" stroke="#304436" stroke-width="2" stroke-linecap="round"/>
<path d="M288.5 312H280.5" stroke="#304436" stroke-width="2" stroke-linecap="round"/>
<path d="M361.5 344H353.5" stroke="#304436" stroke-width="2" stroke-linecap="round"/>
<path d="M100.5 337H103.5" stroke="#304436" stroke-width="2" stroke-linecap="round"/>
<path d="M255 306H258" stroke="#304436" stroke-width="2" stroke-linecap="round"/>
<path d="M180 319H183" stroke="#304436" stroke-width="2" stroke-linecap="round"/>
<path d="M439 300H442" stroke="#304436" stroke-width="2" stroke-linecap="round"/>
<path d="M374 312H377" stroke="#304436" stroke-width="2" stroke-linecap="round"/>
<path d="M328 338H331" stroke="#304436" stroke-width="2" stroke-linecap="round"/>
<path d="M264 342H267" stroke="#304436" stroke-width="2" stroke-linecap="round"/>
<path d="M151 350H148" stroke="#304436" stroke-width="2" stroke-linecap="round"/>
<path d="M305.5 319H302.5" stroke="#304436" stroke-width="2" stroke-linecap="round"/>
<path d="M378.5 351H375.5" stroke="#304436" stroke-width="2" stroke-linecap="round"/>
<path d="M71 332L75 332" stroke="#304436" stroke-width="2" stroke-linecap="round"/>
<path d="M225.5 301L229.5 301" stroke="#304436" stroke-width="2" stroke-linecap="round"/>
<path d="M160 319L164 319" stroke="#304436" stroke-width="2" stroke-linecap="round"/>
<path d="M119 317L123 317" stroke="#304436" stroke-width="2" stroke-linecap="round"/>
<path d="M409.5 295L413.5 295" stroke="#304436" stroke-width="2" stroke-linecap="round"/>
<path d="M298.5 333L302.5 333" stroke="#304436" stroke-width="2" stroke-linecap="round"/>
<path d="M234.5 347L238.5 347" stroke="#304436" stroke-width="2" stroke-linecap="round"/>
<path d="M180.5 345L176.5 345" stroke="#304436" stroke-width="2" stroke-linecap="round"/>
<path d="M335 314L331 314" stroke="#304436" stroke-width="2" stroke-linecap="round"/>
<path d="M408 346L404 346" stroke="#304436" stroke-width="2" stroke-linecap="round"/>
<path d="M161.5 329L157.5 329" stroke="#304436" stroke-width="2" stroke-linecap="round"/>
<path d="M316 298L312 298" stroke="#304436" stroke-width="2" stroke-linecap="round"/>
<path d="M389 330L385 330" stroke="#304436" stroke-width="2" stroke-linecap="round"/>
<path d="M87 343L91 343" stroke="#304436" stroke-width="2" stroke-linecap="round"/>
<path d="M241.5 312L245.5 312" stroke="#304436" stroke-width="2" stroke-linecap="round"/>
<path d="M74 320L78 320" stroke="#304436" stroke-width="2" stroke-linecap="round"/>
<path d="M425.5 306L429.5 306" stroke="#304436" stroke-width="2" stroke-linecap="round"/>
<path d="M314.5 344L318.5 344" stroke="#304436" stroke-width="2" stroke-linecap="round"/>
<path d="M250.5 336L254.5 336" stroke="#304436" stroke-width="2" stroke-linecap="round"/>
<path d="M203 75H416V306H203V75Z" fill="#F3E1D1" stroke="#304436" stroke-width="2"/>
<rect x="229" y="155" width="186" height="4" fill="#CBB9A9"/>
<rect x="229" y="239" width="186" height="4" fill="#CBB9A9"/>
<rect x="229" y="70" width="188" height="6" fill="#727B74"/>
<path d="M235 19H401C409.837 19 417 26.1634 417 35V71H235V19Z" fill="#CCC4C4"/>
<path d="M322 89H381V107.5" stroke="#535F57" stroke-width="2"/>
<path d="M351 176H381V194.5" stroke="#535F57" stroke-width="2"/>
<path d="M350 85.2903C350 84.5777 350.351 84 350.784 84H359.216C359.649 84 360 84.5777 360 85.2903V92.7097C360 93.4223 359.649 94 359.216 94H350.784C350.351 94 350 93.4223 350 92.7097V85.2903Z" fill="white" stroke="#304436"/>
<path opacity="0.8" d="M352 87H358" stroke="#304436" stroke-linecap="round"/>
<path opacity="0.8" d="M352 89H358" stroke="#304436" stroke-linecap="round"/>
<path opacity="0.8" d="M352 91H358" stroke="#304436" stroke-linecap="round"/>
<path d="M350 172.29C350 171.578 350.351 171 350.784 171H359.216C359.649 171 360 171.578 360 172.29V179.71C360 180.422 359.649 181 359.216 181H350.784C350.351 181 350 180.422 350 179.71V172.29Z" fill="white" stroke="#304436"/>
<path opacity="0.8" d="M352 174H358" stroke="#304436" stroke-linecap="round"/>
<path opacity="0.8" d="M352 176H358" stroke="#304436" stroke-linecap="round"/>
<path opacity="0.8" d="M352 178H358" stroke="#304436" stroke-linecap="round"/>
<path d="M318 85.2903C318 84.5777 318.351 84 318.784 84H327.216C327.649 84 328 84.5777 328 85.2903V92.7097C328 93.4223 327.649 94 327.216 94H318.784C318.351 94 318 93.4223 318 92.7097V85.2903Z" fill="white" stroke="#304436"/>
<path opacity="0.8" d="M320 87H326" stroke="#304436" stroke-linecap="round"/>
<path opacity="0.8" d="M320 89H326" stroke="#304436" stroke-linecap="round"/>
<path opacity="0.8" d="M320 91H326" stroke="#304436" stroke-linecap="round"/>
<path d="M203 86.7959V306H266.827C266.827 306 248.362 289.399 243.403 274.538C233.842 245.887 269.778 241.04 266.827 216.495C264.836 199.937 251.765 194.999 248.446 178.694C245.758 165.489 250.278 157.109 248.407 144.061C246.495 130.727 241.075 119.959 235.935 109.748C233.315 104.545 228.396 91.976 226.424 86.7959C225.574 83.3255 225.065 79.751 225.034 76H203V86.7959Z" fill="url(#pattern0_2272_3835)" stroke="#304436" stroke-width="2"/>
<path d="M212.001 299.228L211.844 290.229L213.368 290.202L213.525 299.201L212.001 299.228ZM218.122 292.832C220.09 292.798 221.459 294.226 221.491 296.038C221.522 297.849 220.204 299.325 218.236 299.359C216.269 299.393 214.899 297.965 214.868 296.153C214.836 294.341 216.155 292.866 218.122 292.832ZM218.235 297.919C219.207 297.902 219.925 297.109 219.907 296.065C219.889 295.009 219.143 294.254 218.171 294.271C217.164 294.289 216.433 295.07 216.452 296.126C216.47 297.181 217.227 297.936 218.235 297.919ZM225.875 297.785C226.474 297.775 226.95 297.491 227.23 297.066L228.434 297.957C227.883 298.71 227.004 299.206 225.9 299.225C223.812 299.262 222.538 297.784 222.507 296.02C222.476 294.256 223.698 292.735 225.786 292.698C226.89 292.679 227.786 293.143 228.363 293.877L227.191 294.81C226.896 294.395 226.411 294.127 225.787 294.138C224.791 294.156 224.073 294.936 224.091 295.992C224.11 297.06 224.855 297.803 225.875 297.785ZM231.19 299.073C229.978 299.094 229.138 298.412 229.119 297.297C229.103 296.385 229.799 295.689 231.091 295.45L232.933 295.106L232.93 294.95C232.919 294.314 232.432 293.914 231.736 293.926C231.148 293.937 230.697 294.221 230.381 294.67L229.25 293.838C229.777 293.085 230.657 292.613 231.761 292.594C233.513 292.563 234.431 293.591 234.454 294.923L234.522 298.835L232.999 298.861L232.988 298.273C232.613 298.748 231.898 299.06 231.19 299.073ZM230.629 297.198C230.636 297.606 230.965 297.865 231.481 297.856C232.177 297.843 232.675 297.511 232.967 297.025L232.952 296.174L231.516 296.439C230.882 296.558 230.623 296.826 230.629 297.198ZM236.267 298.804L236.11 289.805L237.634 289.779L237.791 298.778L236.267 298.804Z" fill="#535F57"/>
<path d="M202.965 157.906H197.359V151H202.965H207.709H217.628H227.413H238.194H248.185V157.906H238.194H227.413H217.628H207.709H202.965Z" fill="#E2D2C3"/>
<path d="M248.185 157.906H207.709M248.185 157.906H217.628M248.185 157.906V151M248.185 151H207.709M248.185 151H217.628M207.709 151H202.965H197.359V157.906H202.965H207.709M207.709 151V157.906M207.709 151H217.628M207.709 157.906H217.628M217.628 151V157.906M227.413 151V157.906M238.194 151V157.906" stroke="#304436" stroke-width="2"/>
<path d="M202.965 242.906H197.359V236H202.965H207.709H217.628H227.413H238.194H249H259.5L253.5 242.906H249H238.194H227.413H217.628H207.709H202.965Z" fill="#E2D2C3"/>
<path d="M253.5 242.906H207.709M253.5 242.906H217.628M253.5 242.906L259.5 236M259.5 236H207.709M259.5 236H217.628M207.709 236H202.965H197.359V242.906H202.965H207.709M207.709 236V242.906M207.709 236H217.628M207.709 242.906H217.628M217.628 236V242.906M227.413 236V242.906M238.194 236V242.906M249 236V242.906" stroke="#304436" stroke-width="2"/>
<path d="M198.95 76.2017H202.832H262.776V70.1585H198.95V76.2017Z" fill="#E2D2C3" stroke="#304436" stroke-width="2"/>
<path d="M230.134 17.4964L202.965 70.1584H263.019C262.564 45.0185 251.697 17.4964 251.697 17.4964H230.134Z" fill="#858181" stroke="#304436" stroke-width="2"/>
<path d="M243.935 19.9507L250.403 16.8305L263.341 10.59L282.748 19.9507V70.1585H250.403H243.935V19.9507Z" fill="#F3E1D1" stroke="#274430" stroke-width="2"/>
<g clip-path="url(#clip0_2272_3835)">
<rect x="249.11" y="21.813" width="28.4629" height="46.6189" rx="2" fill="#93D3F6"/>
<path d="M249.11 42.2087L266.625 21.813H277.573L249.11 56.7771V42.2087Z" fill="white" fill-opacity="0.3"/>
<path d="M250.204 68.4318L277.573 35.4102V41.2375L254.583 68.4318H250.204Z" fill="white" fill-opacity="0.3"/>
<rect x="249.11" y="21.813" width="28.4629" height="7.76981" fill="#565656" fill-opacity="0.3"/>
</g>
<rect x="249.11" y="21.813" width="28.4629" height="46.6189" rx="2" stroke="#274430" stroke-width="2"/>
<path fill-rule="evenodd" clip-rule="evenodd" d="M262.91 70.1585L262.91 21.813L264.635 21.813L264.635 70.1585L262.91 70.1585Z" fill="#304436"/>
<path fill-rule="evenodd" clip-rule="evenodd" d="M277.573 45.9857L249.11 45.9857L249.11 44.2591L277.573 44.2591L277.573 45.9857Z" fill="#304436"/>
<rect x="241.347" y="66.7052" width="43.9881" height="3.45325" rx="1.72662" fill="#F3E1D1" stroke="#274430" stroke-width="2"/>
<path d="M406.5 115.5H417.5" stroke="#535F57" stroke-width="4"/>
<g filter="url(#filter0_d_2272_3835)">
<rect x="334" y="247" width="113" height="38" fill="white" shape-rendering="crispEdges"/>
<rect x="334.5" y="247.5" width="112" height="37" stroke="#304436" shape-rendering="crispEdges"/>
<path d="M340.98 261.644C341.94 261.644 342.696 261.176 343.176 260.492L344.52 261.524C343.752 262.568 342.504 263.24 340.98 263.24C338.328 263.24 336.516 261.2 336.516 258.8C336.516 256.4 338.328 254.36 340.98 254.36C342.504 254.36 343.752 255.044 344.52 256.064L343.176 257.108C342.696 256.424 341.94 255.956 340.98 255.956C339.396 255.956 338.268 257.192 338.268 258.8C338.268 260.408 339.396 261.644 340.98 261.644ZM345.795 263V254H347.319V257.432C347.739 257.024 348.303 256.712 349.107 256.712C350.415 256.712 351.459 257.612 351.459 259.4V263H349.923V259.46C349.923 258.656 349.479 258.152 348.723 258.152C347.955 258.152 347.547 258.668 347.319 259.052V263H345.795ZM354.893 263.18C353.681 263.18 352.853 262.484 352.853 261.368C352.853 260.456 353.561 259.772 354.857 259.556L356.705 259.244V259.088C356.705 258.452 356.225 258.044 355.529 258.044C354.941 258.044 354.485 258.32 354.161 258.764L353.045 257.912C353.585 257.168 354.473 256.712 355.577 256.712C357.329 256.712 358.229 257.756 358.229 259.088V263H356.705V262.412C356.321 262.88 355.601 263.18 354.893 263.18ZM354.365 261.296C354.365 261.704 354.689 261.968 355.205 261.968C355.901 261.968 356.405 261.644 356.705 261.164V260.312L355.265 260.552C354.629 260.66 354.365 260.924 354.365 261.296ZM363.959 260.384V256.952H365.495V260.312C365.495 262.124 364.439 263.24 362.663 263.24C360.887 263.24 359.843 262.124 359.843 260.312V256.952H361.379V260.384C361.379 261.26 361.835 261.8 362.675 261.8C363.503 261.8 363.959 261.26 363.959 260.384ZM366.531 256.952H367.659V256.316C367.659 255.032 368.511 254 370.023 254C370.575 254 371.043 254.132 371.427 254.336L370.779 255.608C370.599 255.476 370.359 255.368 370.047 255.368C369.531 255.368 369.195 255.728 369.195 256.28V256.952H371.043V258.32H369.195V263H367.659V258.32H366.531V256.952ZM371.641 256.952H372.769V256.316C372.769 255.032 373.621 254 375.133 254C375.685 254 376.153 254.132 376.537 254.336L375.889 255.608C375.709 255.476 375.469 255.368 375.157 255.368C374.641 255.368 374.305 255.728 374.305 256.28V256.952H376.153V258.32H374.305V263H372.769V258.32H371.641V256.952ZM382.535 262.016C381.971 262.772 381.035 263.24 379.895 263.24C377.747 263.24 376.535 261.74 376.535 259.976C376.535 258.188 377.663 256.712 379.643 256.712C381.323 256.712 382.427 257.852 382.427 259.436C382.427 259.772 382.379 260.084 382.331 260.288H378.095C378.239 261.416 378.935 261.872 379.883 261.872C380.543 261.872 381.119 261.584 381.443 261.152L382.535 262.016ZM379.607 257.96C378.827 257.96 378.311 258.392 378.143 259.184H380.927C380.903 258.572 380.459 257.96 379.607 257.96ZM383.455 259.196H386.695V260.672H383.455V259.196ZM393.644 262.016C393.08 262.772 392.144 263.24 391.004 263.24C388.856 263.24 387.644 261.74 387.644 259.976C387.644 258.188 388.772 256.712 390.752 256.712C392.432 256.712 393.536 257.852 393.536 259.436C393.536 259.772 393.488 260.084 393.44 260.288H389.204C389.348 261.416 390.044 261.872 390.992 261.872C391.652 261.872 392.228 261.584 392.552 261.152L393.644 262.016ZM390.716 257.96C389.936 257.96 389.42 258.392 389.252 259.184H392.036C392.012 258.572 391.568 257.96 390.716 257.96ZM396.647 263.18C395.435 263.18 394.607 262.484 394.607 261.368C394.607 260.456 395.315 259.772 396.611 259.556L398.459 259.244V259.088C398.459 258.452 397.979 258.044 397.283 258.044C396.695 258.044 396.239 258.32 395.915 258.764L394.799 257.912C395.339 257.168 396.227 256.712 397.331 256.712C399.083 256.712 399.983 257.756 399.983 259.088V263H398.459V262.412C398.075 262.88 397.355 263.18 396.647 263.18ZM396.119 261.296C396.119 261.704 396.443 261.968 396.959 261.968C397.655 261.968 398.159 261.644 398.459 261.164V260.312L397.019 260.552C396.383 260.66 396.119 260.924 396.119 261.296ZM405.712 260.384V256.952H407.248V260.312C407.248 262.124 406.192 263.24 404.416 263.24C402.64 263.24 401.596 262.124 401.596 260.312V256.952H403.132V260.384C403.132 261.26 403.588 261.8 404.428 261.8C405.256 261.8 405.712 261.26 405.712 260.384ZM337.296 277.792V275.32H336.168V273.952H337.296V272.44H338.832V273.952H340.68V275.32H338.832V277.792C338.832 278.464 339.192 278.728 339.792 278.728C340.212 278.728 340.488 278.68 340.692 278.596V279.928C340.392 280.06 340.032 280.12 339.528 280.12C338.016 280.12 337.296 279.268 337.296 277.792ZM342.045 280V271H343.569V274.432C343.989 274.024 344.553 273.712 345.357 273.712C346.665 273.712 347.709 274.612 347.709 276.4V280H346.173V276.46C346.173 275.656 345.729 275.152 344.973 275.152C344.205 275.152 343.797 275.668 343.569 276.052V280H342.045ZM355.007 279.016C354.443 279.772 353.507 280.24 352.367 280.24C350.219 280.24 349.007 278.74 349.007 276.976C349.007 275.188 350.135 273.712 352.115 273.712C353.795 273.712 354.899 274.852 354.899 276.436C354.899 276.772 354.851 277.084 354.803 277.288H350.567C350.711 278.416 351.407 278.872 352.355 278.872C353.015 278.872 353.591 278.584 353.915 278.152L355.007 279.016ZM352.079 274.96C351.299 274.96 350.783 275.392 350.615 276.184H353.399C353.375 275.572 352.931 274.96 352.079 274.96ZM356.389 280V273.952H357.913V274.552C358.309 274.144 358.825 273.832 359.509 273.832C359.713 273.832 359.893 273.868 360.037 273.916V275.416C359.845 275.368 359.641 275.332 359.365 275.332C358.621 275.332 358.141 275.74 357.913 276.124V280H356.389ZM361.264 280V273.952H362.788V274.408C363.196 274.012 363.712 273.712 364.456 273.712C365.224 273.712 365.896 274.048 366.292 274.696C366.724 274.168 367.3 273.712 368.32 273.712C369.568 273.712 370.552 274.576 370.552 276.28V280H369.016V276.34C369.016 275.608 368.62 275.152 367.936 275.152C367.276 275.152 366.916 275.608 366.676 276.016C366.688 276.1 366.688 276.184 366.688 276.28V280H365.152V276.34C365.152 275.608 364.756 275.152 364.072 275.152C363.376 275.152 363.016 275.668 362.788 276.052V280H361.264ZM375.171 273.712C377.139 273.712 378.483 275.164 378.483 276.976C378.483 278.788 377.139 280.24 375.171 280.24C373.203 280.24 371.859 278.788 371.859 276.976C371.859 275.164 373.203 273.712 375.171 273.712ZM375.195 278.8C376.167 278.8 376.899 278.02 376.899 276.976C376.899 275.92 376.167 275.152 375.195 275.152C374.187 275.152 373.443 275.92 373.443 276.976C373.443 278.032 374.187 278.8 375.195 278.8ZM379.5 276.976C379.5 275.212 380.664 273.712 382.572 273.712C383.388 273.712 383.976 273.964 384.444 274.432V271H385.98V280H384.444V279.52C383.976 279.988 383.388 280.24 382.572 280.24C380.664 280.24 379.5 278.74 379.5 276.976ZM381.096 276.976C381.096 278.032 381.756 278.8 382.788 278.8C383.472 278.8 384.036 278.512 384.444 277.96V275.992C384.036 275.44 383.472 275.152 382.788 275.152C381.756 275.152 381.096 275.92 381.096 276.976ZM390.519 281.38C390.099 282.376 389.415 283 388.263 283C387.795 283 387.471 282.928 387.183 282.808V281.464C387.375 281.548 387.663 281.608 387.927 281.608C388.527 281.608 388.899 281.404 389.151 280.792L389.487 279.988L386.943 273.952H388.635L390.291 278.02L391.959 273.952H393.567L390.519 281.38ZM394.521 280V273.952H396.045V274.432C396.465 274.024 397.029 273.712 397.833 273.712C399.141 273.712 400.185 274.612 400.185 276.4V280H398.649V276.46C398.649 275.656 398.193 275.152 397.449 275.152C396.681 275.152 396.273 275.668 396.045 276.052V280H394.521ZM403.62 280.18C402.408 280.18 401.58 279.484 401.58 278.368C401.58 277.456 402.288 276.772 403.584 276.556L405.432 276.244V276.088C405.432 275.452 404.952 275.044 404.256 275.044C403.668 275.044 403.212 275.32 402.888 275.764L401.772 274.912C402.312 274.168 403.2 273.712 404.304 273.712C406.056 273.712 406.956 274.756 406.956 276.088V280H405.432V279.412C405.048 279.88 404.328 280.18 403.62 280.18ZM403.092 278.296C403.092 278.704 403.416 278.968 403.932 278.968C404.628 278.968 405.132 278.644 405.432 278.164V277.312L403.992 277.552C403.356 277.66 403.092 277.924 403.092 278.296ZM408.701 280V273.952H410.225V274.408C410.633 274.012 411.149 273.712 411.893 273.712C412.661 273.712 413.333 274.048 413.729 274.696C414.161 274.168 414.737 273.712 415.757 273.712C417.005 273.712 417.989 274.576 417.989 276.28V280H416.453V276.34C416.453 275.608 416.057 275.152 415.373 275.152C414.713 275.152 414.353 275.608 414.113 276.016C414.125 276.1 414.125 276.184 414.125 276.28V280H412.589V276.34C412.589 275.608 412.193 275.152 411.509 275.152C410.813 275.152 410.453 275.668 410.225 276.052V280H408.701ZM420.496 272.896C419.956 272.896 419.5 272.44 419.5 271.9C419.5 271.36 419.956 270.904 420.496 270.904C421.036 270.904 421.48 271.36 421.48 271.9C421.48 272.44 421.036 272.896 420.496 272.896ZM419.728 280V273.952H421.252V280H419.728ZM422.648 276.976C422.648 275.212 423.8 273.712 425.72 273.712C426.536 273.712 427.124 273.976 427.592 274.444V273.952H429.128V282.952H427.592V279.508C427.124 279.976 426.536 280.24 425.72 280.24C423.8 280.24 422.648 278.74 422.648 276.976ZM424.232 276.976C424.232 278.032 424.892 278.8 425.924 278.8C426.632 278.8 427.22 278.488 427.592 277.936V276.016C427.184 275.452 426.608 275.152 425.924 275.152C424.892 275.152 424.232 275.92 424.232 276.976ZM434.939 277.384V273.952H436.475V277.312C436.475 279.124 435.419 280.24 433.643 280.24C431.867 280.24 430.823 279.124 430.823 277.312V273.952H432.359V277.384C432.359 278.26 432.815 278.8 433.655 278.8C434.483 278.8 434.939 278.26 434.939 277.384ZM443.73 279.016C443.166 279.772 442.23 280.24 441.09 280.24C438.942 280.24 437.73 278.74 437.73 276.976C437.73 275.188 438.858 273.712 440.838 273.712C442.518 273.712 443.622 274.852 443.622 276.436C443.622 276.772 443.574 277.084 443.526 277.288H439.29C439.434 278.416 440.13 278.872 441.078 278.872C441.738 278.872 442.314 278.584 442.638 278.152L443.73 279.016ZM440.802 274.96C440.022 274.96 439.506 275.392 439.338 276.184H442.122C442.098 275.572 441.654 274.96 440.802 274.96Z" fill="#304436"/>
</g>
<path d="M321 132H388" stroke="#465FB1" stroke-width="2"/>
<path d="M321 228H388" stroke="#465FB1" stroke-width="2"/>
<path d="M375.478 106.971C375.478 106.151 376.14 105.486 376.957 105.486L390.8 105.486L405.043 105.486C405.86 105.486 406.522 106.151 406.522 106.971V153.029C406.522 153.849 405.86 154.514 405.043 154.514H376.957C376.14 154.514 375.478 153.849 375.478 153.029V106.971Z" fill="white" stroke="#304436"/>
<path d="M375.478 106.971C375.478 106.151 376.14 105.486 376.957 105.486H405.043C405.86 105.486 406.522 106.151 406.522 106.971V115.886H375.478V106.971Z" fill="#304436"/>
<path d="M399.116 109.286C399.578 109.478 399.999 109.752 400.357 110.093C400.357 110.093 400.612 110.026 400.779 110.015C400.913 110.007 401.124 110.026 401.124 110.026C401.16 109.786 401.18 109.509 401.18 109.227C401.181 108.803 401.265 108.434 401.047 108.005C400.681 107.285 399.901 106.754 399.194 107.059C397.974 107.582 398.221 108.849 399.116 109.286Z" fill="white"/>
<path d="M400.254 113.06C400.217 112.754 400.217 112.446 400.254 112.142C400.277 111.957 400.314 111.773 400.364 111.592C400.364 111.592 400.185 111.447 400.116 111.321C400.043 111.189 400.021 110.948 400.021 110.948C399.634 111.101 399.225 111.314 398.848 111.556C398.591 111.722 398.348 111.901 398.136 112.085C397.624 112.593 397.555 113.139 397.758 113.575C397.855 113.782 398.013 113.965 398.215 114.107C398.412 114.244 398.606 114.329 398.792 114.37C399.627 114.555 400.297 113.849 400.254 113.06Z" fill="white"/>
<path d="M403.07 110.223C402.676 110.507 402.2 110.726 401.727 110.855C401.727 110.855 401.698 111.092 401.632 111.228C401.568 111.361 401.402 111.53 401.402 111.53C401.946 111.94 402.558 112.256 403.213 112.466L403.256 112.478C403.685 112.583 404.047 112.547 404.33 112.416C404.739 112.227 404.984 111.841 405.033 111.401C405.108 110.714 404.78 110.273 404.33 110.093C403.941 109.938 403.462 109.978 403.073 110.223L403.07 110.223Z" fill="white"/>
<path d="M396.586 122.814C397.681 122.814 398.565 123.706 398.565 124.8V126.47C398.565 127.564 397.681 128.456 396.586 128.456H385.826C384.731 128.456 383.848 127.564 383.848 126.47V124.8L383.858 124.598C383.959 123.598 384.8 122.814 385.826 122.814H396.586Z" fill="#93D3F6" stroke="#304436"/>
<path d="M384.348 124.028C384.348 123.634 384.668 123.314 385.062 123.314H397.351C397.745 123.314 398.065 123.634 398.065 124.028H384.348Z" fill="#565656" fill-opacity="0.3"/>
<path d="M385.25 127.956L390.484 123.314H392.109L386.875 127.956H385.25Z" fill="white" fill-opacity="0.3"/>
<path d="M387.777 127.956L393.011 123.314H393.914L388.679 127.956H387.777Z" fill="white" fill-opacity="0.3"/>
<path d="M406.5 203.5H417.5" stroke="#535F57" stroke-width="4"/>
<path d="M403.122 104.486L405.165 104.486C406.322 104.486 407.261 105.424 407.261 106.582V150.257C407.261 152.466 405.47 154.257 403.261 154.257H403.122V104.486Z" fill="#565656" fill-opacity="0.3"/>
<path d="M307.405 114.206L306 115.612" stroke="#304436" stroke-linecap="round"/>
<path d="M309.513 116.314L307.171 118.657" stroke="#304436" stroke-linecap="round"/>
<path d="M311.621 118.422L309.279 120.765" stroke="#304436" stroke-linecap="round"/>
<path d="M313.729 120.531L312.324 121.936" stroke="#304436" stroke-linecap="round"/>
<path d="M318.571 110H322V154.57H318.571L318.571 112.857L318.571 110Z" fill="white"/>
<path d="M318.571 112.857L318.571 154.57H322V110H318.571L318.571 112.857ZM318.571 112.857L315.143 114.571" stroke="#304436"/>
<path d="M308.148 112.863C308.148 112.863 311.011 110 314.693 113.682C318.374 117.363 315.511 120.226 315.511 120.226L308.148 112.863Z" fill="white" stroke="#304436"/>
<path d="M375.478 190.971C375.478 190.151 376.14 189.486 376.957 189.486L390.8 189.486L405.043 189.486C405.86 189.486 406.522 190.151 406.522 190.971V237.029C406.522 237.849 405.86 238.514 405.043 238.514H376.957C376.14 238.514 375.478 237.849 375.478 237.029V190.971Z" fill="white" stroke="#304436"/>
<path d="M375.478 190.971C375.478 190.151 376.14 189.486 376.957 189.486H405.043C405.86 189.486 406.522 190.151 406.522 190.971V199.886H375.478V190.971Z" fill="#304436"/>
<path d="M399.116 193.286C399.578 193.478 399.999 193.752 400.357 194.093C400.357 194.093 400.612 194.026 400.779 194.015C400.913 194.007 401.124 194.026 401.124 194.026C401.16 193.786 401.18 193.509 401.18 193.227C401.181 192.803 401.265 192.434 401.047 192.005C400.681 191.285 399.901 190.754 399.194 191.059C397.974 191.582 398.221 192.849 399.116 193.286Z" fill="white"/>
<path d="M400.254 197.06C400.217 196.754 400.217 196.446 400.254 196.142C400.277 195.957 400.314 195.773 400.364 195.592C400.364 195.592 400.185 195.447 400.116 195.321C400.043 195.189 400.021 194.948 400.021 194.948C399.634 195.101 399.225 195.314 398.848 195.556C398.591 195.722 398.348 195.901 398.136 196.085C397.624 196.593 397.555 197.139 397.758 197.575C397.855 197.782 398.013 197.965 398.215 198.107C398.412 198.244 398.606 198.329 398.792 198.37C399.627 198.555 400.297 197.849 400.254 197.06Z" fill="white"/>
<path d="M403.07 194.223C402.676 194.507 402.2 194.726 401.727 194.855C401.727 194.855 401.698 195.092 401.632 195.228C401.568 195.361 401.402 195.53 401.402 195.53C401.946 195.94 402.558 196.256 403.213 196.466L403.256 196.478C403.685 196.583 404.047 196.547 404.33 196.416C404.739 196.227 404.984 195.841 405.033 195.401C405.108 194.714 404.78 194.273 404.33 194.093C403.941 193.938 403.462 193.978 403.073 194.223L403.07 194.223Z" fill="white"/>
<path d="M396.586 206.814C397.681 206.814 398.565 207.706 398.565 208.8V210.47C398.565 211.564 397.681 212.456 396.586 212.456H385.826C384.731 212.456 383.848 211.564 383.848 210.47V208.8L383.858 208.598C383.959 207.598 384.8 206.814 385.826 206.814H396.586Z" fill="#93D3F6" stroke="#304436"/>
<path d="M384.348 208.028C384.348 207.634 384.668 207.314 385.062 207.314H397.351C397.745 207.314 398.065 207.634 398.065 208.028H384.348Z" fill="#565656" fill-opacity="0.3"/>
<path d="M385.25 211.956L390.484 207.314H392.109L386.875 211.956H385.25Z" fill="white" fill-opacity="0.3"/>
<path d="M387.777 211.956L393.011 207.314H393.914L388.679 211.956H387.777Z" fill="white" fill-opacity="0.3"/>
<path d="M403.122 189.486L405.165 189.486C406.322 189.486 407.261 190.424 407.261 191.582V235.257C407.261 237.466 405.47 239.257 403.261 239.257H403.122V189.486Z" fill="#565656" fill-opacity="0.3"/>
<path d="M307.405 198.206L306 199.612" stroke="#304436" stroke-linecap="round"/>
<path d="M309.513 200.314L307.171 202.657" stroke="#304436" stroke-linecap="round"/>
<path d="M311.621 202.422L309.279 204.765" stroke="#304436" stroke-linecap="round"/>
<path d="M313.729 204.531L312.324 205.936" stroke="#304436" stroke-linecap="round"/>
<path d="M318.571 194H322V238.57H318.571L318.571 196.857L318.571 194Z" fill="white"/>
<path d="M318.571 196.857L318.571 238.57H322V194H318.571L318.571 196.857ZM318.571 196.857L315.143 198.571" stroke="#304436"/>
<path d="M308.148 196.863C308.148 196.863 311.011 194 314.693 197.682C318.374 201.363 315.511 204.226 315.511 204.226L308.148 196.863Z" fill="white" stroke="#304436"/>
<g filter="url(#filter1_d_2272_3835)">
<rect x="291" y="58" width="138" height="21" fill="white" shape-rendering="crispEdges"/>
<rect x="291.5" y="58.5" width="137" height="20" stroke="#304436" shape-rendering="crispEdges"/>
<path d="M293.48 72.836L294.716 71.696C295.22 72.344 295.892 72.728 296.576 72.728C297.248 72.728 297.656 72.368 297.656 71.768C297.656 70.22 293.84 70.64 293.84 67.796C293.84 66.464 294.944 65.36 296.552 65.36C297.812 65.36 298.772 65.924 299.492 66.776L298.244 67.904C297.752 67.268 297.2 66.848 296.564 66.848C295.964 66.848 295.568 67.232 295.568 67.736C295.568 69.26 299.384 68.828 299.384 71.708C299.36 73.292 298.136 74.24 296.588 74.24C295.172 74.24 294.224 73.724 293.48 72.836ZM303.597 75.38C303.177 76.376 302.493 77 301.341 77C300.873 77 300.549 76.928 300.261 76.808V75.464C300.453 75.548 300.741 75.608 301.005 75.608C301.605 75.608 301.977 75.404 302.229 74.792L302.565 73.988L300.021 67.952H301.713L303.369 72.02L305.037 67.952H306.645L303.597 75.38ZM306.884 73.124L307.892 72.212C308.264 72.68 308.708 73.016 309.284 73.016C309.776 73.016 310.028 72.728 310.028 72.368C310.028 71.312 307.136 71.708 307.136 69.584C307.136 68.516 308.036 67.712 309.296 67.712C310.22 67.712 311.06 68.156 311.492 68.744L310.484 69.632C310.172 69.248 309.776 68.936 309.308 68.936C308.828 68.936 308.6 69.2 308.6 69.512C308.6 70.544 311.492 70.184 311.492 72.272C311.468 73.544 310.448 74.24 309.308 74.24C308.228 74.24 307.46 73.808 306.884 73.124ZM313.374 71.792V69.32H312.246V67.952H313.374V66.44H314.91V67.952H316.758V69.32H314.91V71.792C314.91 72.464 315.27 72.728 315.87 72.728C316.29 72.728 316.566 72.68 316.77 72.596V73.928C316.47 74.06 316.11 74.12 315.606 74.12C314.094 74.12 313.374 73.268 313.374 71.792ZM319.938 66.992L318.498 65H320.154L321.39 66.992H319.938ZM323.574 73.016C323.01 73.772 322.074 74.24 320.934 74.24C318.786 74.24 317.574 72.74 317.574 70.976C317.574 69.188 318.702 67.712 320.682 67.712C322.362 67.712 323.466 68.852 323.466 70.436C323.466 70.772 323.418 71.084 323.37 71.288H319.134C319.278 72.416 319.974 72.872 320.922 72.872C321.582 72.872 322.158 72.584 322.482 72.152L323.574 73.016ZM320.646 68.96C319.866 68.96 319.35 69.392 319.182 70.184H321.966C321.942 69.572 321.498 68.96 320.646 68.96ZM324.955 74V67.952H326.479V68.408C326.887 68.012 327.403 67.712 328.147 67.712C328.915 67.712 329.587 68.048 329.983 68.696C330.415 68.168 330.991 67.712 332.011 67.712C333.259 67.712 334.243 68.576 334.243 70.28V74H332.707V70.34C332.707 69.608 332.311 69.152 331.627 69.152C330.967 69.152 330.607 69.608 330.367 70.016C330.379 70.1 330.379 70.184 330.379 70.28V74H328.843V70.34C328.843 69.608 328.447 69.152 327.763 69.152C327.067 69.152 326.707 69.668 326.479 70.052V74H324.955ZM341.55 73.016C340.986 73.772 340.05 74.24 338.91 74.24C336.762 74.24 335.55 72.74 335.55 70.976C335.55 69.188 336.678 67.712 338.658 67.712C340.338 67.712 341.442 68.852 341.442 70.436C341.442 70.772 341.394 71.084 341.346 71.288H337.11C337.254 72.416 337.95 72.872 338.898 72.872C339.558 72.872 340.134 72.584 340.458 72.152L341.55 73.016ZM338.622 68.96C337.842 68.96 337.326 69.392 337.158 70.184H339.942C339.918 69.572 339.474 68.96 338.622 68.96ZM345.734 70.976C345.734 69.212 346.898 67.712 348.806 67.712C349.622 67.712 350.21 67.964 350.678 68.432V65H352.214V74H350.678V73.52C350.21 73.988 349.622 74.24 348.806 74.24C346.898 74.24 345.734 72.74 345.734 70.976ZM347.33 70.976C347.33 72.032 347.99 72.8 349.022 72.8C349.706 72.8 350.27 72.512 350.678 71.96V69.992C350.27 69.44 349.706 69.152 349.022 69.152C347.99 69.152 347.33 69.92 347.33 70.976ZM359.609 73.016C359.045 73.772 358.109 74.24 356.969 74.24C354.821 74.24 353.609 72.74 353.609 70.976C353.609 69.188 354.737 67.712 356.717 67.712C358.397 67.712 359.501 68.852 359.501 70.436C359.501 70.772 359.453 71.084 359.405 71.288H355.169C355.313 72.416 356.009 72.872 356.957 72.872C357.617 72.872 358.193 72.584 358.517 72.152L359.609 73.016ZM356.681 68.96C355.901 68.96 355.385 69.392 355.217 70.184H358.001C357.977 69.572 357.533 68.96 356.681 68.96ZM363.361 67.952H364.993L366.565 72.272L368.125 67.952H369.769L367.561 74H365.557L363.361 67.952ZM376.226 73.016C375.662 73.772 374.726 74.24 373.586 74.24C371.438 74.24 370.226 72.74 370.226 70.976C370.226 69.188 371.354 67.712 373.334 67.712C375.014 67.712 376.118 68.852 376.118 70.436C376.118 70.772 376.07 71.084 376.022 71.288H371.786C371.93 72.416 372.626 72.872 373.574 72.872C374.234 72.872 374.81 72.584 375.134 72.152L376.226 73.016ZM373.298 68.96C372.518 68.96 372.002 69.392 371.834 70.184H374.618C374.594 69.572 374.15 68.96 373.298 68.96ZM377.607 74V67.952H379.131V68.432C379.551 68.024 380.115 67.712 380.919 67.712C382.227 67.712 383.271 68.612 383.271 70.4V74H381.735V70.46C381.735 69.656 381.279 69.152 380.535 69.152C379.767 69.152 379.359 69.668 379.131 70.052V74H377.607ZM385.386 71.792V69.32H384.258V67.952H385.386V66.44H386.922V67.952H388.77V69.32H386.922V71.792C386.922 72.464 387.282 72.728 387.882 72.728C388.302 72.728 388.578 72.68 388.782 72.596V73.928C388.482 74.06 388.122 74.12 387.618 74.12C386.106 74.12 385.386 73.268 385.386 71.792ZM390.903 66.896C390.363 66.896 389.907 66.44 389.907 65.9C389.907 65.36 390.363 64.904 390.903 64.904C391.443 64.904 391.887 65.36 391.887 65.9C391.887 66.44 391.443 66.896 390.903 66.896ZM390.135 74V67.952H391.659V74H390.135ZM393.486 74V65H395.01V74H393.486ZM398.542 74.18C397.33 74.18 396.502 73.484 396.502 72.368C396.502 71.456 397.21 70.772 398.506 70.556L400.354 70.244V70.088C400.354 69.452 399.874 69.044 399.178 69.044C398.59 69.044 398.134 69.32 397.81 69.764L396.694 68.912C397.234 68.168 398.122 67.712 399.226 67.712C400.978 67.712 401.878 68.756 401.878 70.088V74H400.354V73.412C399.97 73.88 399.25 74.18 398.542 74.18ZM398.014 72.296C398.014 72.704 398.338 72.968 398.854 72.968C399.55 72.968 400.054 72.644 400.354 72.164V71.312L398.914 71.552C398.278 71.66 398.014 71.924 398.014 72.296ZM404.007 71.792V69.32H402.879V67.952H404.007V66.44H405.543V67.952H407.391V69.32H405.543V71.792C405.543 72.464 405.903 72.728 406.503 72.728C406.923 72.728 407.199 72.68 407.403 72.596V73.928C407.103 74.06 406.743 74.12 406.239 74.12C404.727 74.12 404.007 73.268 404.007 71.792ZM409.524 66.896C408.984 66.896 408.528 66.44 408.528 65.9C408.528 65.36 408.984 64.904 409.524 64.904C410.064 64.904 410.508 65.36 410.508 65.9C410.508 66.44 410.064 66.896 409.524 66.896ZM408.756 74V67.952H410.28V74H408.756ZM414.987 67.712C416.955 67.712 418.299 69.164 418.299 70.976C418.299 72.788 416.955 74.24 414.987 74.24C413.019 74.24 411.675 72.788 411.675 70.976C411.675 69.164 413.019 67.712 414.987 67.712ZM415.011 72.8C415.983 72.8 416.715 72.02 416.715 70.976C416.715 69.92 415.983 69.152 415.011 69.152C414.003 69.152 413.259 69.92 413.259 70.976C413.259 72.032 414.003 72.8 415.011 72.8ZM419.689 74V67.952H421.213V68.432C421.633 68.024 422.197 67.712 423.001 67.712C424.309 67.712 425.353 68.612 425.353 70.4V74H423.817V70.46C423.817 69.656 423.361 69.152 422.617 69.152C421.849 69.152 421.441 69.668 421.213 70.052V74H419.689Z" fill="#304436"/>
</g>
<defs>
<filter id="filter0_d_2272_3835" x="334" y="247" width="114" height="39" filterUnits="userSpaceOnUse" color-interpolation-filters="sRGB">
<feFlood flood-opacity="0" result="BackgroundImageFix"/>
<feColorMatrix in="SourceAlpha" type="matrix" values="0 0 0 0 0 0 0 0 0 0 0 0 0 0 0 0 0 0 127 0" result="hardAlpha"/>
<feOffset dx="1" dy="1"/>
<feComposite in2="hardAlpha" operator="out"/>
<feColorMatrix type="matrix" values="0 0 0 0 0.188235 0 0 0 0 0.266667 0 0 0 0 0.211765 0 0 0 1 0"/>
<feBlend mode="normal" in2="BackgroundImageFix" result="effect1_dropShadow_2272_3835"/>
<feBlend mode="normal" in="SourceGraphic" in2="effect1_dropShadow_2272_3835" result="shape"/>
</filter>
<filter id="filter1_d_2272_3835" x="291" y="58" width="139" height="22" filterUnits="userSpaceOnUse" color-interpolation-filters="sRGB">
<feFlood flood-opacity="0" result="BackgroundImageFix"/>
<feColorMatrix in="SourceAlpha" type="matrix" values="0 0 0 0 0 0 0 0 0 0 0 0 0 0 0 0 0 0 127 0" result="hardAlpha"/>
<feOffset dx="1" dy="1"/>
<feComposite in2="hardAlpha" operator="out"/>
<feColorMatrix type="matrix" values="0 0 0 0 0.188235 0 0 0 0 0.266667 0 0 0 0 0.211765 0 0 0 1 0"/>
<feBlend mode="normal" in2="BackgroundImageFix" result="effect1_dropShadow_2272_3835"/>
<feBlend mode="normal" in="SourceGraphic" in2="effect1_dropShadow_2272_3835" result="shape"/>
</filter>
<clipPath id="clip0_2272_3835">
<rect x="249.11" y="21.813" width="28.4629" height="46.6189" rx="2" fill="white"/>
</clipPath>
<pattern id="pattern0_2272_3835" patternUnits="userSpaceOnUse" patternTransform="matrix(17 0 0 14 202.5 75.5)" preserveAspectRatio="none" viewBox="-0.5 -0.5 17 14" width="1" height="1">
<use xlink:href="#pattern0_2272_3835_inner" transform="translate(-25.5 -7)"/>
<use xlink:href="#pattern0_2272_3835_inner" transform="translate(-8.5 -7)"/>
<use xlink:href="#pattern0_2272_3835_inner" transform="translate(8.5 -7)"/>
<use xlink:href="#pattern0_2272_3835_inner" transform="translate(-34 0)"/>
<use xlink:href="#pattern0_2272_3835_inner" transform="translate(-17 0)"/>
<g id="pattern0_2272_3835_inner">
<rect width="17" height="7" fill="#F3E1D1" stroke="white"/>
</g>
<use xlink:href="#pattern0_2272_3835_inner" transform="translate(-25.5 7)"/>
<use xlink:href="#pattern0_2272_3835_inner" transform="translate(-8.5 7)"/>
<use xlink:href="#pattern0_2272_3835_inner" transform="translate(8.5 7)"/>
</pattern></defs>
</svg>
