<svg width="501" height="362" viewBox="0 0 501 362" fill="none" xmlns="http://www.w3.org/2000/svg" xmlns:xlink="http://www.w3.org/1999/xlink">
<path d="M0 0H500V362H0V0Z" fill="white"/>
<path d="M500 0H499V362H500H501V0H500Z" fill="#E9E9E9"/>
<path d="M434 288H56C46.6112 288 39 295.611 39 305V321C39 321 44.6904 323.442 48.5 324.5C64.5465 328.955 74.3628 321.735 91 321C110.312 320.147 121.184 320.228 140.5 321C158.307 321.712 168.259 326.189 186 324.5C199.768 323.19 206.946 332.753 220.5 330C242.774 325.476 255.277 321.487 278 321C296.222 320.61 306.308 326.116 324.5 325C335.139 324.347 340.892 322.043 351.5 321L351.814 320.969C372.803 318.905 385.081 317.697 406 321C424.123 323.862 451 334.5 451 334.5V305C451 295.611 443.389 288 434 288Z" fill="#9A8D81" stroke="#304436" stroke-width="2"/>
<path d="M39 354H451V334.5C451 334.5 424.123 323.861 406 321C385.081 317.697 372.803 318.905 351.814 320.969L351.5 321C340.892 322.043 335.139 324.347 324.5 325C306.308 326.116 296.222 320.61 278 321C255.277 321.487 242.774 325.476 220.5 330C206.946 332.753 199.768 323.189 186 324.5C168.259 326.189 158.307 321.712 140.5 321C121.184 320.228 110.312 320.147 91 321C74.3628 321.735 64.5465 328.955 48.5 324.5C44.6904 323.442 39 321 39 321V354Z" fill="#624D45" stroke="#304436" stroke-width="2"/>
<path d="M53.5 332H61.5" stroke="#304436" stroke-width="2" stroke-linecap="round"/>
<path d="M208 301H216" stroke="#304436" stroke-width="2" stroke-linecap="round"/>
<path d="M53 319H61" stroke="#304436" stroke-width="2" stroke-linecap="round"/>
<path d="M392 295H400" stroke="#304436" stroke-width="2" stroke-linecap="round"/>
<path d="M281 333H289" stroke="#304436" stroke-width="2" stroke-linecap="round"/>
<path d="M217 347H225" stroke="#304436" stroke-width="2" stroke-linecap="round"/>
<path d="M198 345H190" stroke="#304436" stroke-width="2" stroke-linecap="round"/>
<path d="M352.5 314H344.5" stroke="#304436" stroke-width="2" stroke-linecap="round"/>
<path d="M361 300H353" stroke="#304436" stroke-width="2" stroke-linecap="round"/>
<path d="M425.5 346H417.5" stroke="#304436" stroke-width="2" stroke-linecap="round"/>
<path d="M174 329H166" stroke="#304436" stroke-width="2" stroke-linecap="round"/>
<path d="M328.5 298H320.5" stroke="#304436" stroke-width="2" stroke-linecap="round"/>
<path d="M401.5 330H393.5" stroke="#304436" stroke-width="2" stroke-linecap="round"/>
<path d="M69.5 343H77.5" stroke="#304436" stroke-width="2" stroke-linecap="round"/>
<path d="M224 312H232" stroke="#304436" stroke-width="2" stroke-linecap="round"/>
<path d="M48 306H56" stroke="#304436" stroke-width="2" stroke-linecap="round"/>
<path d="M408 306H416" stroke="#304436" stroke-width="2" stroke-linecap="round"/>
<path d="M297 344H305" stroke="#304436" stroke-width="2" stroke-linecap="round"/>
<path d="M233 336H241" stroke="#304436" stroke-width="2" stroke-linecap="round"/>
<path d="M117.5 330H125.5" stroke="#304436" stroke-width="2" stroke-linecap="round"/>
<path d="M272 299H280" stroke="#304436" stroke-width="2" stroke-linecap="round"/>
<path d="M199 316H207" stroke="#304436" stroke-width="2" stroke-linecap="round"/>
<path d="M345 331H353" stroke="#304436" stroke-width="2" stroke-linecap="round"/>
<path d="M134 343H126" stroke="#304436" stroke-width="2" stroke-linecap="round"/>
<path d="M288.5 312H280.5" stroke="#304436" stroke-width="2" stroke-linecap="round"/>
<path d="M361.5 344H353.5" stroke="#304436" stroke-width="2" stroke-linecap="round"/>
<path d="M100.5 337H103.5" stroke="#304436" stroke-width="2" stroke-linecap="round"/>
<path d="M255 306H258" stroke="#304436" stroke-width="2" stroke-linecap="round"/>
<path d="M180 319H183" stroke="#304436" stroke-width="2" stroke-linecap="round"/>
<path d="M439 300H442" stroke="#304436" stroke-width="2" stroke-linecap="round"/>
<path d="M374 312H377" stroke="#304436" stroke-width="2" stroke-linecap="round"/>
<path d="M328 338H331" stroke="#304436" stroke-width="2" stroke-linecap="round"/>
<path d="M264 342H267" stroke="#304436" stroke-width="2" stroke-linecap="round"/>
<path d="M151 350H148" stroke="#304436" stroke-width="2" stroke-linecap="round"/>
<path d="M305.5 319H302.5" stroke="#304436" stroke-width="2" stroke-linecap="round"/>
<path d="M378.5 351H375.5" stroke="#304436" stroke-width="2" stroke-linecap="round"/>
<path d="M71 332L75 332" stroke="#304436" stroke-width="2" stroke-linecap="round"/>
<path d="M225.5 301L229.5 301" stroke="#304436" stroke-width="2" stroke-linecap="round"/>
<path d="M160 319L164 319" stroke="#304436" stroke-width="2" stroke-linecap="round"/>
<path d="M119 317L123 317" stroke="#304436" stroke-width="2" stroke-linecap="round"/>
<path d="M409.5 295L413.5 295" stroke="#304436" stroke-width="2" stroke-linecap="round"/>
<path d="M298.5 333L302.5 333" stroke="#304436" stroke-width="2" stroke-linecap="round"/>
<path d="M234.5 347L238.5 347" stroke="#304436" stroke-width="2" stroke-linecap="round"/>
<path d="M180.5 345L176.5 345" stroke="#304436" stroke-width="2" stroke-linecap="round"/>
<path d="M335 314L331 314" stroke="#304436" stroke-width="2" stroke-linecap="round"/>
<path d="M408 346L404 346" stroke="#304436" stroke-width="2" stroke-linecap="round"/>
<path d="M161.5 329L157.5 329" stroke="#304436" stroke-width="2" stroke-linecap="round"/>
<path d="M316 298L312 298" stroke="#304436" stroke-width="2" stroke-linecap="round"/>
<path d="M389 330L385 330" stroke="#304436" stroke-width="2" stroke-linecap="round"/>
<path d="M87 343L91 343" stroke="#304436" stroke-width="2" stroke-linecap="round"/>
<path d="M241.5 312L245.5 312" stroke="#304436" stroke-width="2" stroke-linecap="round"/>
<path d="M74 320L78 320" stroke="#304436" stroke-width="2" stroke-linecap="round"/>
<path d="M425.5 306L429.5 306" stroke="#304436" stroke-width="2" stroke-linecap="round"/>
<path d="M314.5 344L318.5 344" stroke="#304436" stroke-width="2" stroke-linecap="round"/>
<path d="M250.5 336L254.5 336" stroke="#304436" stroke-width="2" stroke-linecap="round"/>
<path d="M203 75H416V306H203V75Z" fill="#F3E1D1" stroke="#304436" stroke-width="2"/>
<path d="M288.5 223.5H187" stroke="#535F57" stroke-width="2"/>
<rect x="229" y="155" width="186" height="4" fill="#CBB9A9"/>
<rect x="229" y="239" width="186" height="4" fill="#CBB9A9"/>
<rect x="229" y="70" width="188" height="6" fill="#727B74"/>
<path d="M235 19H401C409.837 19 417 26.1634 417 35V71H235V19Z" fill="#CCC4C4"/>
<path d="M203 86.7959V306H266.827C266.827 306 248.362 289.399 243.403 274.538C233.842 245.887 269.778 241.04 266.827 216.495C264.836 199.937 251.765 194.999 248.446 178.694C245.758 165.489 250.278 157.109 248.407 144.061C246.495 130.727 241.075 119.959 235.935 109.748C233.315 104.545 228.396 91.976 226.424 86.7959C225.574 83.3255 225.065 79.751 225.034 76H203V86.7959Z" fill="url(#pattern0_2272_3617)" stroke="#304436" stroke-width="2"/>
<path d="M202.965 157.906H197.359V151H202.965H207.709H217.628H227.413H238.194H248.185V157.906H238.194H227.413H217.628H207.709H202.965Z" fill="#E2D2C3"/>
<path d="M248.185 157.906H207.709M248.185 157.906H217.628M248.185 157.906V151M248.185 151H207.709M248.185 151H217.628M207.709 151H202.965H197.359V157.906H202.965H207.709M207.709 151V157.906M207.709 151H217.628M207.709 157.906H217.628M217.628 151V157.906M227.413 151V157.906M238.194 151V157.906" stroke="#304436" stroke-width="2"/>
<path d="M202.965 242.906H197.359V236H202.965H207.709H217.628H227.413H238.194H249H259.5L253.5 242.906H249H238.194H227.413H217.628H207.709H202.965Z" fill="#E2D2C3"/>
<path d="M253.5 242.906H207.709M253.5 242.906H217.628M253.5 242.906L259.5 236M259.5 236H207.709M259.5 236H217.628M207.709 236H202.965H197.359V242.906H202.965H207.709M207.709 236V242.906M207.709 236H217.628M207.709 242.906H217.628M217.628 236V242.906M227.413 236V242.906M238.194 236V242.906M249 236V242.906" stroke="#304436" stroke-width="2"/>
<path d="M198.95 76.2017H202.832H262.776V70.1585H198.95V76.2017Z" fill="#E2D2C3" stroke="#304436" stroke-width="2"/>
<path d="M230.134 17.4964L202.965 70.1584H263.02C262.564 45.0185 251.697 17.4964 251.697 17.4964H230.134Z" fill="#858181" stroke="#304436" stroke-width="2"/>
<path d="M243.935 19.9507L250.404 16.8305L263.341 10.59L282.748 19.9507V70.1585H250.404H243.935V19.9507Z" fill="#F3E1D1" stroke="#274430" stroke-width="2"/>
<g clip-path="url(#clip0_2272_3617)">
<rect x="249.11" y="21.813" width="28.4629" height="46.6189" rx="2" fill="#93D3F6"/>
<path d="M249.11 42.2087L266.625 21.813H277.573L249.11 56.7771V42.2087Z" fill="white" fill-opacity="0.3"/>
<path d="M250.204 68.4318L277.573 35.4102V41.2375L254.583 68.4318H250.204Z" fill="white" fill-opacity="0.3"/>
<rect x="249.11" y="21.813" width="28.4629" height="7.76981" fill="#565656" fill-opacity="0.3"/>
</g>
<rect x="249.11" y="21.813" width="28.4629" height="46.6189" rx="2" stroke="#274430" stroke-width="2"/>
<path fill-rule="evenodd" clip-rule="evenodd" d="M262.91 70.1585L262.91 21.813L264.635 21.813L264.635 70.1585L262.91 70.1585Z" fill="#304436"/>
<path fill-rule="evenodd" clip-rule="evenodd" d="M277.573 45.9857L249.11 45.9857L249.11 44.2591L277.573 44.2591L277.573 45.9857Z" fill="#304436"/>
<rect x="241.347" y="66.7052" width="43.9881" height="3.45325" rx="1.72662" fill="#F3E1D1" stroke="#274430" stroke-width="2"/>
<ellipse cx="149" cy="208" rx="3" ry="2" fill="#304436"/>
<path d="M202.965 242.907H197.359H187.44H182.696H177.09L167.171 242.906H162.427H156.85H156.821H152.106H146.5V236H152.106H156.821H156.85H162.427H167.171L177.09 236H182.696H187.44H197.359H202.965H207.709H217.628H227.413H238.194H249H259.5L253.5 242.907H249H238.194H227.413H217.628H207.709H202.965Z" fill="#E2D2C3"/>
<path d="M197.359 242.907H202.965H207.709M197.359 242.907V236M197.359 242.907H187.44M197.359 236H202.965H207.709M197.359 236H187.44M253.5 242.907H207.709M253.5 242.907H217.628M253.5 242.907L259.5 236M259.5 236H207.709M259.5 236H217.628M207.709 236V242.907M207.709 236H217.628M207.709 242.907H217.628M217.628 236V242.907M227.413 236V242.907M238.194 236V242.907M249 236V242.907M177.09 242.907H182.696H187.44M177.09 242.907V236M177.09 242.907L167.171 242.906M177.09 236H182.696H187.44M177.09 236L167.171 236M187.44 236V242.907M167.171 236H162.427H156.821V242.906H162.427H167.171M167.171 236V242.906M152.106 242.906H146.5V236H152.106H156.85V242.906H152.106Z" stroke="#304436" stroke-width="2"/>
<path d="M149 236C149 222.51 149 222.49 149 209" stroke="#304436" stroke-width="3"/>
<path d="M150 212C175.981 212 176.019 212 202 212" stroke="#304436" stroke-width="2"/>
<path d="M153 236C153 223.509 153 223.491 153 211" stroke="#304436" stroke-width="2"/>
<path d="M157 236C157 223.509 157 223.491 157 211" stroke="#304436" stroke-width="2"/>
<path d="M161 236C161 223.509 161 223.491 161 211" stroke="#304436" stroke-width="2"/>
<path d="M165 236C165 223.509 165 223.491 165 211" stroke="#304436" stroke-width="2"/>
<path d="M169 236C169 223.509 169 223.491 169 211" stroke="#304436" stroke-width="2"/>
<path d="M173 236C173 223.509 173 223.491 173 211" stroke="#304436" stroke-width="2"/>
<path d="M177 236C177 223.509 177 223.491 177 211" stroke="#304436" stroke-width="2"/>
<path d="M181 236C181 223.509 181 223.491 181 211" stroke="#304436" stroke-width="2"/>
<path d="M185 236C185 223.509 185 223.491 185 211" stroke="#304436" stroke-width="2"/>
<path d="M189 236C189 223.509 189 223.491 189 211" stroke="#304436" stroke-width="2"/>
<path d="M193 236C193 223.509 193 223.491 193 211" stroke="#304436" stroke-width="2"/>
<path d="M197 236C197 223.509 197 223.491 197 211" stroke="#304436" stroke-width="2"/>
<path d="M200 236C200 223.509 200 223.491 200 211" stroke="#304436" stroke-width="2"/>
<path d="M167.708 217.094C167.708 215.81 168.784 214.77 170.111 214.77H195.941C197.268 214.77 198.343 215.81 198.343 217.094V230.456C198.343 231.74 197.268 232.78 195.941 232.78H170.111C168.784 232.78 167.708 231.74 167.708 230.456V217.094Z" fill="white" stroke="#304436"/>
<path d="M174.237 218.272C173.438 218.811 173.15 220.322 173.675 221.254C173.91 221.582 174.151 221.774 174.151 221.774C173.95 221.641 173.792 221.462 173.675 221.254C173.407 220.88 173.146 220.329 173.26 219.686C173.474 218.478 174.237 218.272 174.237 218.272Z" fill="white" fill-opacity="0.3"/>
<path d="M187.732 219.388H194.268" stroke="#304436" stroke-width="2" stroke-linecap="round"/>
<path d="M187.732 221.857H194.268" stroke="#304436" stroke-width="2" stroke-linecap="round"/>
<path d="M187.732 224.214H194.268" stroke="#304436" stroke-width="2" stroke-linecap="round"/>
<path d="M173.31 232.857H178.718V234.204C178.718 234.948 178.234 235.551 177.637 235.551H174.392C173.794 235.551 173.31 234.948 173.31 234.204V232.857Z" fill="white" stroke="#304436"/>
<path d="M188.183 232.857H193.141V234.204C193.141 234.948 192.648 235.551 192.039 235.551H189.285C188.676 235.551 188.183 234.948 188.183 234.204V232.857Z" fill="white" stroke="#304436"/>
<path d="M175.338 222.921L174.503 222.089C173.637 221.227 173.729 219.753 174.855 219.277C175.02 219.207 175.183 219.148 175.338 219.105C176.441 218.8 178.268 219.008 178.268 219.008" stroke="#304436" stroke-width="2" stroke-linecap="round" stroke-linejoin="round"/>
<path d="M178.38 223.771L179.534 223.463C180.712 223.149 181.938 223.959 181.791 225.167C181.769 225.347 181.739 225.521 181.698 225.679C181.412 226.783 180.317 228.255 180.317 228.255" stroke="#304436" stroke-width="2" stroke-linecap="round" stroke-linejoin="round"/>
<path d="M175.983 225.956L175.674 227.105C175.358 228.279 174.041 228.931 173.065 228.201C172.919 228.092 172.783 227.979 172.666 227.864C171.849 227.065 171.117 225.385 171.117 225.385" stroke="#304436" stroke-width="2" stroke-linecap="round" stroke-linejoin="round"/>
<path d="M352.907 46.9373C352.907 45.3038 354.286 43.9796 355.986 43.9796H389.08C390.78 43.9796 392.159 45.3038 392.159 46.9373V63.9443C392.159 65.5778 390.78 66.902 389.08 66.902H355.986C354.286 66.902 352.907 65.5778 352.907 63.9443V46.9373Z" fill="white" stroke="#304436"/>
<path d="M361.272 48.4367C360.249 49.1227 359.879 51.046 360.552 52.232C360.854 52.6494 361.163 52.8939 361.163 52.8939C360.904 52.7246 360.702 52.4967 360.552 52.232C360.208 51.7562 359.875 51.0556 360.021 50.2365C360.294 48.6992 361.272 48.4367 361.272 48.4367Z" fill="white" fill-opacity="0.3"/>
<path d="M378.563 49.8571H386.937" stroke="#304436" stroke-width="2" stroke-linecap="round"/>
<path d="M378.563 53H386.937" stroke="#304436" stroke-width="2" stroke-linecap="round"/>
<path d="M378.563 56H386.937" stroke="#304436" stroke-width="2" stroke-linecap="round"/>
<path d="M360.084 67H367.014V68.7143C367.014 69.6611 366.394 70.4286 365.628 70.4286H361.47C360.705 70.4286 360.084 69.6611 360.084 68.7143V67Z" fill="white" stroke="#304436"/>
<path d="M379.141 67H385.493V68.7143C385.493 69.6611 384.861 70.4286 384.081 70.4286H380.552C379.773 70.4286 379.141 69.6611 379.141 68.7143V67Z" fill="white" stroke="#304436"/>
<path d="M362.683 54.3542L361.167 52.8541C360.295 51.9909 360.398 50.5408 361.491 49.9835C361.891 49.7797 362.305 49.601 362.683 49.4971C364.096 49.109 366.437 49.374 366.437 49.374" stroke="#304436" stroke-width="2" stroke-linecap="round" stroke-linejoin="round"/>
<path d="M366.581 55.4361L368.687 54.8777C369.867 54.5649 371.059 55.3629 371.003 56.5719C370.983 57.0258 370.932 57.4804 370.832 57.8646C370.465 59.2698 369.063 61.1428 369.063 61.1428" stroke="#304436" stroke-width="2" stroke-linecap="round" stroke-linejoin="round"/>
<path d="M363.51 58.2167L362.945 60.3007C362.629 61.4678 361.335 62.0906 360.305 61.4387C359.918 61.1939 359.545 60.9234 359.259 60.6452C358.213 59.6281 357.274 57.4901 357.274 57.4901" stroke="#304436" stroke-width="2" stroke-linecap="round" stroke-linejoin="round"/>
<path d="M210.912 301V292H212.436V301H210.912ZM217.144 294.712C219.112 294.712 220.456 296.164 220.456 297.976C220.456 299.788 219.112 301.24 217.144 301.24C215.176 301.24 213.832 299.788 213.832 297.976C213.832 296.164 215.176 294.712 217.144 294.712ZM217.168 299.8C218.14 299.8 218.872 299.02 218.872 297.976C218.872 296.92 218.14 296.152 217.168 296.152C216.16 296.152 215.416 296.92 215.416 297.976C215.416 299.032 216.16 299.8 217.168 299.8ZM224.808 299.8C225.408 299.8 225.888 299.524 226.176 299.104L227.364 300.016C226.8 300.76 225.912 301.24 224.808 301.24C222.72 301.24 221.472 299.74 221.472 297.976C221.472 296.212 222.72 294.712 224.808 294.712C225.912 294.712 226.8 295.192 227.364 295.936L226.176 296.848C225.888 296.428 225.408 296.152 224.784 296.152C223.788 296.152 223.056 296.92 223.056 297.976C223.056 299.044 223.788 299.8 224.808 299.8ZM230.1 301.18C228.888 301.18 228.06 300.484 228.06 299.368C228.06 298.456 228.768 297.772 230.064 297.556L231.912 297.244V297.088C231.912 296.452 231.432 296.044 230.736 296.044C230.148 296.044 229.692 296.32 229.368 296.764L228.252 295.912C228.792 295.168 229.68 294.712 230.784 294.712C232.536 294.712 233.436 295.756 233.436 297.088V301H231.912V300.412C231.528 300.88 230.808 301.18 230.1 301.18ZM229.572 299.296C229.572 299.704 229.896 299.968 230.412 299.968C231.108 299.968 231.612 299.644 231.912 299.164V298.312L230.472 298.552C229.836 298.66 229.572 298.924 229.572 299.296ZM235.182 301V292H236.706V301H235.182Z" fill="#535F57"/>
<path d="M315 139.5H388" stroke="#465FB1" stroke-width="2"/>
<path d="M302 223.5H407" stroke="#465FB1" stroke-width="2"/>
<path d="M302.23 119.681L301 120.91" stroke="#304436" stroke-linecap="round"/>
<path d="M304.074 121.525L302.025 123.575" stroke="#304436" stroke-linecap="round"/>
<path d="M305.919 123.37L303.869 125.419" stroke="#304436" stroke-linecap="round"/>
<path d="M307.764 125.214L306.534 126.444" stroke="#304436" stroke-linecap="round"/>
<path d="M312 116H315V155H312L312 118.5L312 116Z" fill="white"/>
<path d="M312 118.5L312 155H315V116H312L312 118.5ZM312 118.5L309 120" stroke="#304436"/>
<path d="M302.879 118.506C302.879 118.506 305.385 116 308.606 119.221C311.828 122.443 309.322 124.948 309.322 124.948L302.879 118.506Z" fill="white" stroke="#304436"/>
<path d="M395.23 203.681L394 204.91" stroke="#304436" stroke-linecap="round"/>
<path d="M397.074 205.525L395.025 207.575" stroke="#304436" stroke-linecap="round"/>
<path d="M398.919 207.37L396.869 209.419" stroke="#304436" stroke-linecap="round"/>
<path d="M400.764 209.214L399.534 210.444" stroke="#304436" stroke-linecap="round"/>
<path d="M405 200H408V239H405L405 202.5L405 200Z" fill="white"/>
<path d="M405 202.5L405 239H408V200H405L405 202.5ZM405 202.5L402 204" stroke="#304436"/>
<path d="M395.879 202.506C395.879 202.506 398.385 200 401.606 203.221C404.828 206.443 402.322 208.948 402.322 208.948L395.879 202.506Z" fill="white" stroke="#304436"/>
<path d="M380 103.182C380 101.977 380.802 101 381.792 101L394.595 101L407.779 101C408.769 101 409.571 101.977 409.571 103.182V152.818C409.571 154.023 408.769 155 407.779 155H381.792C380.802 155 380 154.023 380 152.818V103.182Z" fill="white" stroke="#304436"/>
<path d="M386.429 109.874C386.429 109.234 386.942 108.714 387.575 108.714H401.997C402.63 108.714 403.143 109.234 403.143 109.874V113.34C403.143 113.981 402.63 114.5 401.997 114.5H387.575C386.942 114.5 386.429 113.981 386.429 113.34V109.874Z" fill="#93D3F6" stroke="#304436"/>
<path d="M387.714 113.857L393.929 109.357H395.857L389.643 113.857H387.714Z" fill="white" fill-opacity="0.3"/>
<path d="M390.714 113.857L396.929 109.357H398L391.786 113.857H390.714Z" fill="white" fill-opacity="0.3"/>
<ellipse cx="392.68" cy="118.824" rx="1.10894" ry="1.10997" fill="#304436"/>
<ellipse cx="397.116" cy="118.824" rx="1.10894" ry="1.10997" fill="#304436"/>
<path d="M276 187.182C276 185.977 276.802 185 277.792 185L290.595 185L303.779 185C304.769 185 305.571 185.977 305.571 187.182V236.818C305.571 238.023 304.769 239 303.779 239H277.792C276.802 239 276 238.023 276 236.818V187.182Z" fill="white" stroke="#304436"/>
<path d="M282.429 193.874C282.429 193.234 282.942 192.714 283.575 192.714H297.997C298.63 192.714 299.143 193.234 299.143 193.874V197.34C299.143 197.981 298.63 198.5 297.997 198.5H283.575C282.942 198.5 282.429 197.981 282.429 197.34V193.874Z" fill="#93D3F6" stroke="#304436"/>
<path d="M283.714 197.857L289.929 193.357H291.857L285.643 197.857H283.714Z" fill="white" fill-opacity="0.3"/>
<path d="M286.714 197.857L292.929 193.357H294L287.786 197.857H286.714Z" fill="white" fill-opacity="0.3"/>
<ellipse cx="288.68" cy="202.824" rx="1.10894" ry="1.10997" fill="#304436"/>
<ellipse cx="293.116" cy="202.824" rx="1.10894" ry="1.10997" fill="#304436"/>
<g filter="url(#filter0_d_2272_3617)">
<rect x="319" y="15" width="98" height="20" fill="white" shape-rendering="crispEdges"/>
<rect x="319.5" y="15.5" width="97" height="19" stroke="#304436" shape-rendering="crispEdges"/>
<path d="M327.096 27.356V22.1H328.8V27.212C328.8 29.42 327.504 30.74 325.392 30.74C323.292 30.74 321.996 29.42 321.996 27.212V22.1H323.7V27.356C323.7 28.484 324.336 29.144 325.404 29.144C326.448 29.144 327.096 28.484 327.096 27.356ZM330.631 30.5V24.452H332.155V24.932C332.575 24.524 333.139 24.212 333.943 24.212C335.251 24.212 336.295 25.112 336.295 26.9V30.5H334.759V26.96C334.759 26.156 334.303 25.652 333.559 25.652C332.791 25.652 332.383 26.168 332.155 26.552V30.5H330.631ZM338.793 23.396C338.253 23.396 337.797 22.94 337.797 22.4C337.797 21.86 338.253 21.404 338.793 21.404C339.333 21.404 339.777 21.86 339.777 22.4C339.777 22.94 339.333 23.396 338.793 23.396ZM338.025 30.5V24.452H339.549V30.5H338.025ZM341.761 28.292V25.82H340.633V24.452H341.761V22.94H343.297V24.452H345.145V25.82H343.297V28.292C343.297 28.964 343.657 29.228 344.257 29.228C344.677 29.228 344.953 29.18 345.157 29.096V30.428C344.857 30.56 344.497 30.62 343.993 30.62C342.481 30.62 341.761 29.768 341.761 28.292ZM349.908 23.492H348.444L349.692 21.5H351.348L349.908 23.492ZM351.96 29.516C351.396 30.272 350.46 30.74 349.32 30.74C347.172 30.74 345.96 29.24 345.96 27.476C345.96 25.688 347.088 24.212 349.068 24.212C350.748 24.212 351.852 25.352 351.852 26.936C351.852 27.272 351.804 27.584 351.756 27.788H347.52C347.664 28.916 348.36 29.372 349.308 29.372C349.968 29.372 350.544 29.084 350.868 28.652L351.96 29.516ZM349.032 25.46C348.252 25.46 347.736 25.892 347.568 26.684H350.352C350.328 26.072 349.884 25.46 349.032 25.46ZM362.144 29.516C361.58 30.272 360.644 30.74 359.504 30.74C357.356 30.74 356.144 29.24 356.144 27.476C356.144 25.688 357.272 24.212 359.252 24.212C360.932 24.212 362.036 25.352 362.036 26.936C362.036 27.272 361.988 27.584 361.94 27.788H357.704C357.848 28.916 358.544 29.372 359.492 29.372C360.152 29.372 360.728 29.084 361.052 28.652L362.144 29.516ZM359.216 25.46C358.436 25.46 357.92 25.892 357.752 26.684H360.536C360.512 26.072 360.068 25.46 359.216 25.46ZM364.395 30.5H362.643L364.779 27.392L362.763 24.452H364.503L365.751 26.312L366.999 24.452H368.751L366.723 27.392L368.859 30.5H367.119L365.751 28.472L364.395 30.5ZM370.319 28.292V25.82H369.191V24.452H370.319V22.94H371.855V24.452H373.703V25.82H371.855V28.292C371.855 28.964 372.215 29.228 372.815 29.228C373.235 29.228 373.511 29.18 373.715 29.096V30.428C373.415 30.56 373.055 30.62 372.551 30.62C371.039 30.62 370.319 29.768 370.319 28.292ZM378.467 23.492H377.003L378.251 21.5H379.907L378.467 23.492ZM380.519 29.516C379.955 30.272 379.019 30.74 377.879 30.74C375.731 30.74 374.519 29.24 374.519 27.476C374.519 25.688 375.647 24.212 377.627 24.212C379.307 24.212 380.411 25.352 380.411 26.936C380.411 27.272 380.363 27.584 380.315 27.788H376.079C376.223 28.916 376.919 29.372 377.867 29.372C378.527 29.372 379.103 29.084 379.427 28.652L380.519 29.516ZM377.591 25.46C376.811 25.46 376.295 25.892 376.127 26.684H378.911C378.887 26.072 378.443 25.46 377.591 25.46ZM381.9 30.5V24.452H383.424V25.052C383.82 24.644 384.336 24.332 385.02 24.332C385.224 24.332 385.404 24.368 385.548 24.416V25.916C385.356 25.868 385.152 25.832 384.876 25.832C384.132 25.832 383.652 26.24 383.424 26.624V30.5H381.9ZM387.543 23.396C387.003 23.396 386.547 22.94 386.547 22.4C386.547 21.86 387.003 21.404 387.543 21.404C388.083 21.404 388.527 21.86 388.527 22.4C388.527 22.94 388.083 23.396 387.543 23.396ZM386.775 30.5V24.452H388.299V30.5H386.775ZM395.695 29.516C395.131 30.272 394.195 30.74 393.055 30.74C390.907 30.74 389.695 29.24 389.695 27.476C389.695 25.688 390.823 24.212 392.803 24.212C394.483 24.212 395.587 25.352 395.587 26.936C395.587 27.272 395.539 27.584 395.491 27.788H391.255C391.399 28.916 392.095 29.372 393.043 29.372C393.703 29.372 394.279 29.084 394.603 28.652L395.695 29.516ZM392.767 25.46C391.987 25.46 391.471 25.892 391.303 26.684H394.087C394.063 26.072 393.619 25.46 392.767 25.46ZM400.99 27.884V24.452H402.526V27.812C402.526 29.624 401.47 30.74 399.694 30.74C397.918 30.74 396.874 29.624 396.874 27.812V24.452H398.41V27.884C398.41 28.76 398.866 29.3 399.706 29.3C400.534 29.3 400.99 28.76 400.99 27.884ZM404.213 30.5V24.452H405.737V25.052C406.133 24.644 406.649 24.332 407.333 24.332C407.537 24.332 407.717 24.368 407.861 24.416V25.916C407.669 25.868 407.465 25.832 407.189 25.832C406.445 25.832 405.965 26.24 405.737 26.624V30.5H404.213ZM414.398 29.516C413.834 30.272 412.898 30.74 411.758 30.74C409.61 30.74 408.398 29.24 408.398 27.476C408.398 25.688 409.526 24.212 411.506 24.212C413.186 24.212 414.29 25.352 414.29 26.936C414.29 27.272 414.242 27.584 414.194 27.788H409.958C410.102 28.916 410.798 29.372 411.746 29.372C412.406 29.372 412.982 29.084 413.306 28.652L414.398 29.516ZM411.47 25.46C410.69 25.46 410.174 25.892 410.006 26.684H412.79C412.766 26.072 412.322 25.46 411.47 25.46Z" fill="#304436"/>
</g>
<g filter="url(#filter1_d_2272_3617)">
<rect x="244" y="246" width="96" height="20" fill="white" shape-rendering="crispEdges"/>
<rect x="244.5" y="246.5" width="95" height="19" stroke="#304436" shape-rendering="crispEdges"/>
<path d="M252.096 258.356V253.1H253.8V258.212C253.8 260.42 252.504 261.74 250.392 261.74C248.292 261.74 246.996 260.42 246.996 258.212V253.1H248.7V258.356C248.7 259.484 249.336 260.144 250.404 260.144C251.448 260.144 252.096 259.484 252.096 258.356ZM255.631 261.5V255.452H257.155V255.932C257.575 255.524 258.139 255.212 258.943 255.212C260.251 255.212 261.295 256.112 261.295 257.9V261.5H259.759V257.96C259.759 257.156 259.303 256.652 258.559 256.652C257.791 256.652 257.383 257.168 257.155 257.552V261.5H255.631ZM263.793 254.396C263.253 254.396 262.797 253.94 262.797 253.4C262.797 252.86 263.253 252.404 263.793 252.404C264.333 252.404 264.777 252.86 264.777 253.4C264.777 253.94 264.333 254.396 263.793 254.396ZM263.025 261.5V255.452H264.549V261.5H263.025ZM266.761 259.292V256.82H265.633V255.452H266.761V253.94H268.297V255.452H270.145V256.82H268.297V259.292C268.297 259.964 268.657 260.228 269.257 260.228C269.677 260.228 269.953 260.18 270.157 260.096V261.428C269.857 261.56 269.497 261.62 268.993 261.62C267.481 261.62 266.761 260.768 266.761 259.292ZM274.908 254.492H273.444L274.692 252.5H276.348L274.908 254.492ZM276.96 260.516C276.396 261.272 275.46 261.74 274.32 261.74C272.172 261.74 270.96 260.24 270.96 258.476C270.96 256.688 272.088 255.212 274.068 255.212C275.748 255.212 276.852 256.352 276.852 257.936C276.852 258.272 276.804 258.584 276.756 258.788H272.52C272.664 259.916 273.36 260.372 274.308 260.372C274.968 260.372 275.544 260.084 275.868 259.652L276.96 260.516ZM274.032 256.46C273.252 256.46 272.736 256.892 272.568 257.684H275.352C275.328 257.072 274.884 256.46 274.032 256.46ZM282.344 254.396C281.804 254.396 281.348 253.94 281.348 253.4C281.348 252.86 281.804 252.404 282.344 252.404C282.884 252.404 283.328 252.86 283.328 253.4C283.328 253.94 282.884 254.396 282.344 254.396ZM281.576 261.5V255.452H283.1V261.5H281.576ZM284.928 261.5V255.452H286.452V255.932C286.872 255.524 287.436 255.212 288.24 255.212C289.548 255.212 290.592 256.112 290.592 257.9V261.5H289.056V257.96C289.056 257.156 288.6 256.652 287.856 256.652C287.088 256.652 286.68 257.168 286.452 257.552V261.5H284.928ZM292.706 259.292V256.82H291.578V255.452H292.706V253.94H294.242V255.452H296.09V256.82H294.242V259.292C294.242 259.964 294.602 260.228 295.202 260.228C295.622 260.228 295.898 260.18 296.102 260.096V261.428C295.802 261.56 295.442 261.62 294.938 261.62C293.426 261.62 292.706 260.768 292.706 259.292ZM300.854 254.492H299.39L300.638 252.5H302.294L300.854 254.492ZM302.906 260.516C302.342 261.272 301.406 261.74 300.266 261.74C298.118 261.74 296.906 260.24 296.906 258.476C296.906 256.688 298.034 255.212 300.014 255.212C301.694 255.212 302.798 256.352 302.798 257.936C302.798 258.272 302.75 258.584 302.702 258.788H298.466C298.61 259.916 299.306 260.372 300.254 260.372C300.914 260.372 301.49 260.084 301.814 259.652L302.906 260.516ZM299.978 256.46C299.198 256.46 298.682 256.892 298.514 257.684H301.298C301.274 257.072 300.83 256.46 299.978 256.46ZM304.287 261.5V255.452H305.811V256.052C306.207 255.644 306.723 255.332 307.407 255.332C307.611 255.332 307.791 255.368 307.935 255.416V256.916C307.743 256.868 307.539 256.832 307.263 256.832C306.519 256.832 306.039 257.24 305.811 257.624V261.5H304.287ZM309.93 254.396C309.39 254.396 308.934 253.94 308.934 253.4C308.934 252.86 309.39 252.404 309.93 252.404C310.47 252.404 310.914 252.86 310.914 253.4C310.914 253.94 310.47 254.396 309.93 254.396ZM309.162 261.5V255.452H310.686V261.5H309.162ZM318.082 260.516C317.518 261.272 316.582 261.74 315.442 261.74C313.294 261.74 312.082 260.24 312.082 258.476C312.082 256.688 313.21 255.212 315.19 255.212C316.87 255.212 317.974 256.352 317.974 257.936C317.974 258.272 317.926 258.584 317.878 258.788H313.642C313.786 259.916 314.482 260.372 315.43 260.372C316.09 260.372 316.666 260.084 316.99 259.652L318.082 260.516ZM315.154 256.46C314.374 256.46 313.858 256.892 313.69 257.684H316.474C316.45 257.072 316.006 256.46 315.154 256.46ZM323.376 258.884V255.452H324.912V258.812C324.912 260.624 323.856 261.74 322.08 261.74C320.304 261.74 319.26 260.624 319.26 258.812V255.452H320.796V258.884C320.796 259.76 321.252 260.3 322.092 260.3C322.92 260.3 323.376 259.76 323.376 258.884ZM326.6 261.5V255.452H328.124V256.052C328.52 255.644 329.036 255.332 329.72 255.332C329.924 255.332 330.104 255.368 330.248 255.416V256.916C330.056 256.868 329.852 256.832 329.576 256.832C328.832 256.832 328.352 257.24 328.124 257.624V261.5H326.6ZM336.785 260.516C336.221 261.272 335.285 261.74 334.145 261.74C331.997 261.74 330.785 260.24 330.785 258.476C330.785 256.688 331.913 255.212 333.893 255.212C335.573 255.212 336.677 256.352 336.677 257.936C336.677 258.272 336.629 258.584 336.581 258.788H332.345C332.489 259.916 333.185 260.372 334.133 260.372C334.793 260.372 335.369 260.084 335.693 259.652L336.785 260.516ZM333.857 256.46C333.077 256.46 332.561 256.892 332.393 257.684H335.177C335.153 257.072 334.709 256.46 333.857 256.46Z" fill="#304436"/>
</g>
<defs>
<filter id="filter0_d_2272_3617" x="319" y="15" width="99" height="21" filterUnits="userSpaceOnUse" color-interpolation-filters="sRGB">
<feFlood flood-opacity="0" result="BackgroundImageFix"/>
<feColorMatrix in="SourceAlpha" type="matrix" values="0 0 0 0 0 0 0 0 0 0 0 0 0 0 0 0 0 0 127 0" result="hardAlpha"/>
<feOffset dx="1" dy="1"/>
<feComposite in2="hardAlpha" operator="out"/>
<feColorMatrix type="matrix" values="0 0 0 0 0.188235 0 0 0 0 0.266667 0 0 0 0 0.211765 0 0 0 1 0"/>
<feBlend mode="normal" in2="BackgroundImageFix" result="effect1_dropShadow_2272_3617"/>
<feBlend mode="normal" in="SourceGraphic" in2="effect1_dropShadow_2272_3617" result="shape"/>
</filter>
<filter id="filter1_d_2272_3617" x="244" y="246" width="97" height="21" filterUnits="userSpaceOnUse" color-interpolation-filters="sRGB">
<feFlood flood-opacity="0" result="BackgroundImageFix"/>
<feColorMatrix in="SourceAlpha" type="matrix" values="0 0 0 0 0 0 0 0 0 0 0 0 0 0 0 0 0 0 127 0" result="hardAlpha"/>
<feOffset dx="1" dy="1"/>
<feComposite in2="hardAlpha" operator="out"/>
<feColorMatrix type="matrix" values="0 0 0 0 0.188235 0 0 0 0 0.266667 0 0 0 0 0.211765 0 0 0 1 0"/>
<feBlend mode="normal" in2="BackgroundImageFix" result="effect1_dropShadow_2272_3617"/>
<feBlend mode="normal" in="SourceGraphic" in2="effect1_dropShadow_2272_3617" result="shape"/>
</filter>
<clipPath id="clip0_2272_3617">
<rect x="249.11" y="21.813" width="28.4629" height="46.6189" rx="2" fill="white"/>
</clipPath>
<pattern id="pattern0_2272_3617" patternUnits="userSpaceOnUse" patternTransform="matrix(17 0 0 14 202.5 75.5)" preserveAspectRatio="none" viewBox="-0.5 -0.5 17 14" width="1" height="1">
<use xlink:href="#pattern0_2272_3617_inner" transform="translate(-25.5 -7)"/>
<use xlink:href="#pattern0_2272_3617_inner" transform="translate(-8.5 -7)"/>
<use xlink:href="#pattern0_2272_3617_inner" transform="translate(8.5 -7)"/>
<use xlink:href="#pattern0_2272_3617_inner" transform="translate(-34 0)"/>
<use xlink:href="#pattern0_2272_3617_inner" transform="translate(-17 0)"/>
<g id="pattern0_2272_3617_inner">
<rect width="17" height="7" fill="#F3E1D1" stroke="white"/>
</g>
<use xlink:href="#pattern0_2272_3617_inner" transform="translate(-25.5 7)"/>
<use xlink:href="#pattern0_2272_3617_inner" transform="translate(-8.5 7)"/>
<use xlink:href="#pattern0_2272_3617_inner" transform="translate(8.5 7)"/>
</pattern></defs>
</svg>
