<svg width="501" height="362" viewBox="0 0 501 362" fill="none" xmlns="http://www.w3.org/2000/svg" xmlns:xlink="http://www.w3.org/1999/xlink">
<path d="M0 0H500V362H0V0Z" fill="white"/>
<path d="M500 0H499V362H500H501V0H500Z" fill="#E9E9E9"/>
<path d="M434 288H56C46.6112 288 39 295.611 39 305V321C39 321 44.6904 323.442 48.5 324.5C64.5465 328.955 74.3628 321.735 91 321C110.312 320.147 121.184 320.228 140.5 321C158.307 321.712 168.259 326.189 186 324.5C199.768 323.19 206.946 332.753 220.5 330C242.774 325.476 255.277 321.487 278 321C296.222 320.61 306.308 326.116 324.5 325C335.139 324.347 340.892 322.043 351.5 321L351.814 320.969C372.803 318.905 385.081 317.697 406 321C424.123 323.862 451 334.5 451 334.5V305C451 295.611 443.389 288 434 288Z" fill="#9A8D81" stroke="#304436" stroke-width="2"/>
<path d="M39 354H451V334.5C451 334.5 424.123 323.861 406 321C385.081 317.697 372.803 318.905 351.814 320.969L351.5 321C340.892 322.043 335.139 324.347 324.5 325C306.308 326.116 296.222 320.61 278 321C255.277 321.487 242.774 325.476 220.5 330C206.946 332.753 199.768 323.189 186 324.5C168.259 326.189 158.307 321.712 140.5 321C121.184 320.228 110.312 320.147 91 321C74.3628 321.735 64.5465 328.955 48.5 324.5C44.6904 323.442 39 321 39 321V354Z" fill="#624D45" stroke="#304436" stroke-width="2"/>
<path d="M53.5 332H61.5" stroke="#304436" stroke-width="2" stroke-linecap="round"/>
<path d="M208 301H216" stroke="#304436" stroke-width="2" stroke-linecap="round"/>
<path d="M53 319H61" stroke="#304436" stroke-width="2" stroke-linecap="round"/>
<path d="M392 295H400" stroke="#304436" stroke-width="2" stroke-linecap="round"/>
<path d="M281 333H289" stroke="#304436" stroke-width="2" stroke-linecap="round"/>
<path d="M217 347H225" stroke="#304436" stroke-width="2" stroke-linecap="round"/>
<path d="M198 345H190" stroke="#304436" stroke-width="2" stroke-linecap="round"/>
<path d="M352.5 314H344.5" stroke="#304436" stroke-width="2" stroke-linecap="round"/>
<path d="M361 300H353" stroke="#304436" stroke-width="2" stroke-linecap="round"/>
<path d="M425.5 346H417.5" stroke="#304436" stroke-width="2" stroke-linecap="round"/>
<path d="M174 329H166" stroke="#304436" stroke-width="2" stroke-linecap="round"/>
<path d="M328.5 298H320.5" stroke="#304436" stroke-width="2" stroke-linecap="round"/>
<path d="M401.5 330H393.5" stroke="#304436" stroke-width="2" stroke-linecap="round"/>
<path d="M69.5 343H77.5" stroke="#304436" stroke-width="2" stroke-linecap="round"/>
<path d="M224 312H232" stroke="#304436" stroke-width="2" stroke-linecap="round"/>
<path d="M48 306H56" stroke="#304436" stroke-width="2" stroke-linecap="round"/>
<path d="M408 306H416" stroke="#304436" stroke-width="2" stroke-linecap="round"/>
<path d="M297 344H305" stroke="#304436" stroke-width="2" stroke-linecap="round"/>
<path d="M233 336H241" stroke="#304436" stroke-width="2" stroke-linecap="round"/>
<path d="M117.5 330H125.5" stroke="#304436" stroke-width="2" stroke-linecap="round"/>
<path d="M272 299H280" stroke="#304436" stroke-width="2" stroke-linecap="round"/>
<path d="M199 316H207" stroke="#304436" stroke-width="2" stroke-linecap="round"/>
<path d="M345 331H353" stroke="#304436" stroke-width="2" stroke-linecap="round"/>
<path d="M134 343H126" stroke="#304436" stroke-width="2" stroke-linecap="round"/>
<path d="M288.5 312H280.5" stroke="#304436" stroke-width="2" stroke-linecap="round"/>
<path d="M361.5 344H353.5" stroke="#304436" stroke-width="2" stroke-linecap="round"/>
<path d="M100.5 337H103.5" stroke="#304436" stroke-width="2" stroke-linecap="round"/>
<path d="M255 306H258" stroke="#304436" stroke-width="2" stroke-linecap="round"/>
<path d="M180 319H183" stroke="#304436" stroke-width="2" stroke-linecap="round"/>
<path d="M439 300H442" stroke="#304436" stroke-width="2" stroke-linecap="round"/>
<path d="M374 312H377" stroke="#304436" stroke-width="2" stroke-linecap="round"/>
<path d="M328 338H331" stroke="#304436" stroke-width="2" stroke-linecap="round"/>
<path d="M264 342H267" stroke="#304436" stroke-width="2" stroke-linecap="round"/>
<path d="M151 350H148" stroke="#304436" stroke-width="2" stroke-linecap="round"/>
<path d="M305.5 319H302.5" stroke="#304436" stroke-width="2" stroke-linecap="round"/>
<path d="M378.5 351H375.5" stroke="#304436" stroke-width="2" stroke-linecap="round"/>
<path d="M71 332L75 332" stroke="#304436" stroke-width="2" stroke-linecap="round"/>
<path d="M225.5 301L229.5 301" stroke="#304436" stroke-width="2" stroke-linecap="round"/>
<path d="M160 319L164 319" stroke="#304436" stroke-width="2" stroke-linecap="round"/>
<path d="M119 317L123 317" stroke="#304436" stroke-width="2" stroke-linecap="round"/>
<path d="M409.5 295L413.5 295" stroke="#304436" stroke-width="2" stroke-linecap="round"/>
<path d="M298.5 333L302.5 333" stroke="#304436" stroke-width="2" stroke-linecap="round"/>
<path d="M234.5 347L238.5 347" stroke="#304436" stroke-width="2" stroke-linecap="round"/>
<path d="M180.5 345L176.5 345" stroke="#304436" stroke-width="2" stroke-linecap="round"/>
<path d="M335 314L331 314" stroke="#304436" stroke-width="2" stroke-linecap="round"/>
<path d="M408 346L404 346" stroke="#304436" stroke-width="2" stroke-linecap="round"/>
<path d="M161.5 329L157.5 329" stroke="#304436" stroke-width="2" stroke-linecap="round"/>
<path d="M316 298L312 298" stroke="#304436" stroke-width="2" stroke-linecap="round"/>
<path d="M389 330L385 330" stroke="#304436" stroke-width="2" stroke-linecap="round"/>
<path d="M87 343L91 343" stroke="#304436" stroke-width="2" stroke-linecap="round"/>
<path d="M241.5 312L245.5 312" stroke="#304436" stroke-width="2" stroke-linecap="round"/>
<path d="M74 320L78 320" stroke="#304436" stroke-width="2" stroke-linecap="round"/>
<path d="M425.5 306L429.5 306" stroke="#304436" stroke-width="2" stroke-linecap="round"/>
<path d="M314.5 344L318.5 344" stroke="#304436" stroke-width="2" stroke-linecap="round"/>
<path d="M250.5 336L254.5 336" stroke="#304436" stroke-width="2" stroke-linecap="round"/>
<path d="M203 75H416V306H203V75Z" fill="#F3E1D1" stroke="#304436" stroke-width="2"/>
<rect x="229" y="155" width="186" height="4" fill="#CBB9A9"/>
<rect x="229" y="239" width="186" height="4" fill="#CBB9A9"/>
<rect x="229" y="70" width="188" height="6" fill="#727B74"/>
<path d="M235 19H401C409.837 19 417 26.1634 417 35V71H235V19Z" fill="#CCC4C4"/>
<path d="M417 132.5H369" stroke="#535F57" stroke-width="4"/>
<path d="M417 208H369" stroke="#535F57" stroke-width="4"/>
<path d="M417 140H369" stroke="#535F57" stroke-width="4"/>
<path d="M417 215.5H369" stroke="#535F57" stroke-width="4"/>
<path d="M203 86.7959V306H266.827C266.827 306 248.362 289.399 243.403 274.538C233.842 245.887 269.778 241.04 266.827 216.495C264.836 199.937 251.765 194.999 248.446 178.694C245.758 165.489 250.278 157.109 248.407 144.061C246.495 130.727 241.075 119.959 235.935 109.748C233.315 104.545 228.396 91.976 226.424 86.7959C225.574 83.3255 225.065 79.751 225.034 76H203V86.7959Z" fill="url(#pattern0_2272_3951)" stroke="#304436" stroke-width="2"/>
<path d="M212.001 299.228L211.844 290.229L213.368 290.202L213.525 299.201L212.001 299.228ZM218.122 292.832C220.09 292.798 221.459 294.226 221.491 296.038C221.522 297.849 220.204 299.325 218.236 299.359C216.268 299.393 214.899 297.965 214.868 296.153C214.836 294.341 216.154 292.866 218.122 292.832ZM218.235 297.919C219.207 297.902 219.925 297.109 219.907 296.065C219.888 295.009 219.143 294.254 218.171 294.271C217.163 294.289 216.433 295.07 216.451 296.126C216.47 297.181 217.227 297.936 218.235 297.919ZM225.874 297.785C226.474 297.775 226.949 297.491 227.23 297.066L228.434 297.957C227.883 298.71 227.003 299.206 225.9 299.225C223.812 299.262 222.538 297.784 222.507 296.02C222.476 294.256 223.698 292.735 225.786 292.698C226.889 292.679 227.786 293.143 228.363 293.877L227.191 294.81C226.895 294.395 226.411 294.127 225.787 294.138C224.791 294.156 224.072 294.936 224.091 295.992C224.109 297.06 224.855 297.803 225.874 297.785ZM231.19 299.073C229.978 299.094 229.138 298.412 229.119 297.297C229.103 296.385 229.799 295.689 231.091 295.45L232.933 295.106L232.93 294.95C232.919 294.314 232.432 293.914 231.736 293.926C231.148 293.937 230.697 294.221 230.381 294.67L229.25 293.838C229.777 293.085 230.657 292.613 231.761 292.594C233.513 292.563 234.431 293.591 234.454 294.923L234.522 298.835L232.998 298.861L232.988 298.273C232.612 298.748 231.898 299.06 231.19 299.073ZM230.629 297.198C230.636 297.606 230.965 297.865 231.481 297.856C232.177 297.843 232.675 297.511 232.966 297.025L232.952 296.174L231.516 296.439C230.882 296.558 230.623 296.826 230.629 297.198ZM236.267 298.804L236.11 289.805L237.634 289.779L237.791 298.778L236.267 298.804Z" fill="#535F57"/>
<path d="M202.965 157.906H197.359V151H202.965H207.709H217.628H227.413H238.194H248.185V157.906H238.194H227.413H217.628H207.709H202.965Z" fill="#E2D2C3"/>
<path d="M248.185 157.906H207.709M248.185 157.906H217.628M248.185 157.906V151M248.185 151H207.709M248.185 151H217.628M207.709 151H202.965H197.359V157.906H202.965H207.709M207.709 151V157.906M207.709 151H217.628M207.709 157.906H217.628M217.628 151V157.906M227.413 151V157.906M238.194 151V157.906" stroke="#304436" stroke-width="2"/>
<path d="M202.965 242.906H197.359V236H202.965H207.709H217.628H227.413H238.194H249H259.5L253.5 242.906H249H238.194H227.413H217.628H207.709H202.965Z" fill="#E2D2C3"/>
<path d="M253.5 242.906H207.709M253.5 242.906H217.628M253.5 242.906L259.5 236M259.5 236H207.709M259.5 236H217.628M207.709 236H202.965H197.359V242.906H202.965H207.709M207.709 236V242.906M207.709 236H217.628M207.709 242.906H217.628M217.628 236V242.906M227.413 236V242.906M238.194 236V242.906M249 236V242.906" stroke="#304436" stroke-width="2"/>
<path d="M198.95 76.2017H202.832H262.776V70.1585H198.95V76.2017Z" fill="#E2D2C3" stroke="#304436" stroke-width="2"/>
<path d="M230.134 17.4964L202.965 70.1584H263.02C262.564 45.0185 251.697 17.4964 251.697 17.4964H230.134Z" fill="#858181" stroke="#304436" stroke-width="2"/>
<path d="M243.935 19.9507L250.404 16.8305L263.341 10.59L282.748 19.9507V70.1585H250.404H243.935V19.9507Z" fill="#F3E1D1" stroke="#274430" stroke-width="2"/>
<g clip-path="url(#clip0_2272_3951)">
<rect x="249.11" y="21.813" width="28.4629" height="46.6189" rx="2" fill="#93D3F6"/>
<path d="M249.11 42.2087L266.625 21.813H277.573L249.11 56.7771V42.2087Z" fill="white" fill-opacity="0.3"/>
<path d="M250.204 68.4318L277.573 35.4102V41.2375L254.583 68.4318H250.204Z" fill="white" fill-opacity="0.3"/>
<rect x="249.11" y="21.813" width="28.4629" height="7.76981" fill="#565656" fill-opacity="0.3"/>
</g>
<rect x="249.11" y="21.813" width="28.4629" height="46.6189" rx="2" stroke="#274430" stroke-width="2"/>
<path fill-rule="evenodd" clip-rule="evenodd" d="M262.91 70.1585L262.91 21.813L264.635 21.813L264.635 70.1585L262.91 70.1585Z" fill="#304436"/>
<path fill-rule="evenodd" clip-rule="evenodd" d="M277.573 45.9857L249.11 45.9857L249.11 44.2591L277.573 44.2591L277.573 45.9857Z" fill="#304436"/>
<rect x="241.347" y="66.7052" width="43.9881" height="3.45325" rx="1.72662" fill="#F3E1D1" stroke="#274430" stroke-width="2"/>
<path d="M308 140H351" stroke="#465FB1" stroke-width="2"/>
<path d="M308 223H351" stroke="#465FB1" stroke-width="2"/>
<path d="M295.405 115.206L294 116.612" stroke="#304436" stroke-linecap="round"/>
<path d="M297.513 117.314L295.171 119.657" stroke="#304436" stroke-linecap="round"/>
<path d="M299.621 119.422L297.279 121.765" stroke="#304436" stroke-linecap="round"/>
<path d="M301.729 121.531L300.324 122.936" stroke="#304436" stroke-linecap="round"/>
<path d="M306.571 111H310V155.57H306.571L306.571 113.857L306.571 111Z" fill="white"/>
<path d="M306.571 113.857L306.571 155.57H310V111H306.571L306.571 113.857ZM306.571 113.857L303.143 115.571" stroke="#304436"/>
<path d="M296.148 113.863C296.148 113.863 299.011 111 302.693 114.682C306.374 118.363 303.511 121.226 303.511 121.226L296.148 113.863Z" fill="white" stroke="#304436"/>
<path d="M295.405 198.206L294 199.612" stroke="#304436" stroke-linecap="round"/>
<path d="M297.513 200.314L295.171 202.657" stroke="#304436" stroke-linecap="round"/>
<path d="M299.621 202.422L297.279 204.765" stroke="#304436" stroke-linecap="round"/>
<path d="M301.729 204.531L300.324 205.936" stroke="#304436" stroke-linecap="round"/>
<path d="M306.571 194H310V238.57H306.571L306.571 196.857L306.571 194Z" fill="white"/>
<path d="M306.571 196.857L306.571 238.57H310V194H306.571L306.571 196.857ZM306.571 196.857L303.143 198.571" stroke="#304436"/>
<path d="M296.148 196.863C296.148 196.863 299.011 194 302.693 197.682C306.374 201.363 303.511 204.226 303.511 204.226L296.148 196.863Z" fill="white" stroke="#304436"/>
<path d="M341.478 106.971C341.478 106.151 342.14 105.486 342.957 105.486L356.8 105.486L371.043 105.486C371.86 105.486 372.522 106.151 372.522 106.971V153.029C372.522 153.849 371.86 154.514 371.043 154.514H342.957C342.14 154.514 341.478 153.849 341.478 153.029V106.971Z" fill="white" stroke="#304436"/>
<path d="M341.478 106.971C341.478 106.151 342.14 105.486 342.957 105.486H371.043C371.86 105.486 372.522 106.151 372.522 106.971V115.886H341.478V106.971Z" fill="#304436"/>
<path d="M365.116 109.286C365.578 109.478 365.999 109.752 366.357 110.093C366.357 110.093 366.612 110.026 366.779 110.015C366.914 110.007 367.124 110.026 367.124 110.026C367.16 109.786 367.18 109.509 367.18 109.227C367.181 108.803 367.265 108.434 367.047 108.005C366.681 107.285 365.901 106.754 365.194 107.059C363.974 107.582 364.221 108.849 365.116 109.286Z" fill="white"/>
<path d="M366.254 113.06C366.217 112.754 366.217 112.446 366.254 112.142C366.277 111.957 366.314 111.773 366.364 111.592C366.364 111.592 366.185 111.447 366.116 111.321C366.043 111.189 366.021 110.948 366.021 110.948C365.634 111.101 365.226 111.314 364.848 111.556C364.591 111.722 364.349 111.901 364.137 112.085C363.625 112.593 363.555 113.139 363.758 113.575C363.855 113.782 364.014 113.965 364.216 114.107C364.412 114.244 364.606 114.329 364.792 114.37C365.628 114.555 366.298 113.849 366.254 113.06Z" fill="white"/>
<path d="M369.07 110.223C368.676 110.507 368.201 110.726 367.727 110.855C367.727 110.855 367.698 111.092 367.632 111.228C367.568 111.361 367.403 111.53 367.403 111.53C367.946 111.94 368.558 112.256 369.213 112.466L369.256 112.478C369.685 112.583 370.047 112.547 370.33 112.416C370.739 112.227 370.984 111.841 371.033 111.401C371.108 110.714 370.78 110.273 370.33 110.093C369.941 109.938 369.462 109.978 369.073 110.223L369.07 110.223Z" fill="white"/>
<path d="M362.586 122.814C363.681 122.814 364.564 123.706 364.565 124.8V126.47C364.565 127.564 363.681 128.456 362.586 128.456H351.826C350.731 128.456 349.848 127.564 349.848 126.47V124.8L349.858 124.598C349.959 123.598 350.8 122.814 351.826 122.814H362.586Z" fill="#93D3F6" stroke="#304436"/>
<path d="M350.348 124.028C350.348 123.634 350.667 123.314 351.062 123.314H363.351C363.745 123.314 364.065 123.634 364.065 124.028H350.348Z" fill="#565656" fill-opacity="0.3"/>
<path d="M351.25 127.956L356.484 123.314H358.109L352.875 127.956H351.25Z" fill="white" fill-opacity="0.3"/>
<path d="M353.777 127.956L359.011 123.314H359.914L354.679 127.956H353.777Z" fill="white" fill-opacity="0.3"/>
<path d="M369.122 105.486L371.165 105.486C372.322 105.486 373.261 106.424 373.261 107.582V151.257C373.261 153.466 371.47 155.257 369.261 155.257H369.122V105.486Z" fill="#565656" fill-opacity="0.3"/>
<path d="M341.478 191.971C341.478 191.151 342.14 190.486 342.957 190.486L356.8 190.486L371.043 190.486C371.86 190.486 372.522 191.151 372.522 191.971V238.029C372.522 238.849 371.86 239.514 371.043 239.514H342.957C342.14 239.514 341.478 238.849 341.478 238.029V191.971Z" fill="white" stroke="#304436"/>
<path d="M341.478 191.971C341.478 191.151 342.14 190.486 342.957 190.486H371.043C371.86 190.486 372.522 191.151 372.522 191.971V200.886H341.478V191.971Z" fill="#304436"/>
<path d="M365.116 194.286C365.578 194.478 365.999 194.752 366.357 195.093C366.357 195.093 366.612 195.026 366.779 195.015C366.914 195.007 367.124 195.026 367.124 195.026C367.16 194.786 367.18 194.509 367.18 194.227C367.181 193.803 367.265 193.434 367.047 193.005C366.681 192.285 365.901 191.754 365.194 192.059C363.974 192.582 364.221 193.849 365.116 194.286Z" fill="white"/>
<path d="M366.254 198.06C366.217 197.754 366.217 197.446 366.254 197.142C366.277 196.957 366.314 196.773 366.364 196.592C366.364 196.592 366.185 196.447 366.116 196.321C366.043 196.189 366.021 195.948 366.021 195.948C365.634 196.101 365.226 196.314 364.848 196.556C364.591 196.722 364.349 196.901 364.137 197.085C363.625 197.593 363.555 198.139 363.758 198.575C363.855 198.782 364.014 198.965 364.216 199.107C364.412 199.244 364.606 199.329 364.792 199.37C365.628 199.555 366.298 198.849 366.254 198.06Z" fill="white"/>
<path d="M369.07 195.223C368.676 195.507 368.201 195.726 367.727 195.855C367.727 195.855 367.698 196.092 367.632 196.228C367.568 196.361 367.403 196.53 367.403 196.53C367.946 196.94 368.558 197.256 369.213 197.466L369.256 197.478C369.685 197.583 370.047 197.547 370.33 197.416C370.739 197.227 370.984 196.841 371.033 196.401C371.108 195.714 370.78 195.273 370.33 195.093C369.941 194.938 369.462 194.978 369.073 195.223L369.07 195.223Z" fill="white"/>
<path d="M362.586 207.814C363.681 207.814 364.564 208.706 364.565 209.8V211.47C364.565 212.564 363.681 213.456 362.586 213.456H351.826C350.731 213.456 349.848 212.564 349.848 211.47V209.8L349.858 209.598C349.959 208.598 350.8 207.814 351.826 207.814H362.586Z" fill="#93D3F6" stroke="#304436"/>
<path d="M350.348 209.028C350.348 208.634 350.667 208.314 351.062 208.314H363.351C363.745 208.314 364.065 208.634 364.065 209.028H350.348Z" fill="#565656" fill-opacity="0.3"/>
<path d="M351.25 212.956L356.484 208.314H358.109L352.875 212.956H351.25Z" fill="white" fill-opacity="0.3"/>
<path d="M353.777 212.956L359.011 208.314H359.914L354.679 212.956H353.777Z" fill="white" fill-opacity="0.3"/>
<path d="M369.122 190.486L371.165 190.486C372.322 190.486 373.261 191.424 373.261 192.582V236.257C373.261 238.466 371.47 240.257 369.261 240.257H369.122V190.486Z" fill="#565656" fill-opacity="0.3"/>
<g filter="url(#filter0_d_2272_3951)">
<rect x="392" y="148" width="44" height="20" fill="white" shape-rendering="crispEdges"/>
<rect x="392.5" y="148.5" width="43" height="19" stroke="#304436" shape-rendering="crispEdges"/>
<path d="M399.1 162.144C399.892 162.144 400.576 161.868 401.056 161.412V159.948H398.92V158.496H402.76V162.024C401.98 163.068 400.672 163.74 399.1 163.74C396.376 163.74 394.516 161.7 394.516 159.3C394.516 156.9 396.328 154.86 398.98 154.86C400.504 154.86 401.752 155.544 402.52 156.564L401.176 157.608C400.696 156.924 399.94 156.456 398.98 156.456C397.396 156.456 396.268 157.692 396.268 159.3C396.268 160.908 397.456 162.144 399.1 162.144ZM406.073 163.68C404.861 163.68 404.033 162.984 404.033 161.868C404.033 160.956 404.741 160.272 406.037 160.056L407.885 159.744V159.588C407.885 158.952 407.405 158.544 406.709 158.544C406.121 158.544 405.665 158.82 405.341 159.264L404.225 158.412C404.765 157.668 405.653 157.212 406.757 157.212C408.509 157.212 409.409 158.256 409.409 159.588V163.5H407.885V162.912C407.501 163.38 406.781 163.68 406.073 163.68ZM405.545 161.796C405.545 162.204 405.869 162.468 406.385 162.468C407.081 162.468 407.585 162.144 407.885 161.664V160.812L406.445 161.052C405.809 161.16 405.545 161.424 405.545 161.796ZM411.922 156.396C411.382 156.396 410.926 155.94 410.926 155.4C410.926 154.86 411.382 154.404 411.922 154.404C412.462 154.404 412.906 154.86 412.906 155.4C412.906 155.94 412.462 156.396 411.922 156.396ZM411.154 163.5V157.452H412.678V163.5H411.154ZM414.506 163.5V157.452H416.03V157.932C416.45 157.524 417.014 157.212 417.818 157.212C419.126 157.212 420.17 158.112 420.17 159.9V163.5H418.634V159.96C418.634 159.156 418.178 158.652 417.434 158.652C416.666 158.652 416.258 159.168 416.03 159.552V163.5H414.506ZM427.468 162.516C426.904 163.272 425.968 163.74 424.828 163.74C422.68 163.74 421.468 162.24 421.468 160.476C421.468 158.688 422.596 157.212 424.576 157.212C426.256 157.212 427.36 158.352 427.36 159.936C427.36 160.272 427.312 160.584 427.264 160.788H423.028C423.172 161.916 423.868 162.372 424.816 162.372C425.476 162.372 426.052 162.084 426.376 161.652L427.468 162.516ZM424.54 158.46C423.76 158.46 423.244 158.892 423.076 159.684H425.86C425.836 159.072 425.392 158.46 424.54 158.46ZM428.239 162.624L429.247 161.712C429.619 162.18 430.063 162.516 430.639 162.516C431.131 162.516 431.383 162.228 431.383 161.868C431.383 160.812 428.491 161.208 428.491 159.084C428.491 158.016 429.391 157.212 430.651 157.212C431.575 157.212 432.415 157.656 432.847 158.244L431.839 159.132C431.527 158.748 431.131 158.436 430.663 158.436C430.183 158.436 429.955 158.7 429.955 159.012C429.955 160.044 432.847 159.684 432.847 161.772C432.823 163.044 431.803 163.74 430.663 163.74C429.583 163.74 428.815 163.308 428.239 162.624Z" fill="#304436"/>
</g>
<g filter="url(#filter1_d_2272_3951)">
<rect x="309" y="248" width="96" height="20" fill="white" shape-rendering="crispEdges"/>
<rect x="309.5" y="248.5" width="95" height="19" stroke="#304436" shape-rendering="crispEdges"/>
<path d="M317.096 260.356V255.1H318.8V260.212C318.8 262.42 317.504 263.74 315.392 263.74C313.292 263.74 311.996 262.42 311.996 260.212V255.1H313.7V260.356C313.7 261.484 314.336 262.144 315.404 262.144C316.448 262.144 317.096 261.484 317.096 260.356ZM320.631 263.5V257.452H322.155V257.932C322.575 257.524 323.139 257.212 323.943 257.212C325.251 257.212 326.295 258.112 326.295 259.9V263.5H324.759V259.96C324.759 259.156 324.303 258.652 323.559 258.652C322.791 258.652 322.383 259.168 322.155 259.552V263.5H320.631ZM328.793 256.396C328.253 256.396 327.797 255.94 327.797 255.4C327.797 254.86 328.253 254.404 328.793 254.404C329.333 254.404 329.777 254.86 329.777 255.4C329.777 255.94 329.333 256.396 328.793 256.396ZM328.025 263.5V257.452H329.549V263.5H328.025ZM331.761 261.292V258.82H330.633V257.452H331.761V255.94H333.297V257.452H335.145V258.82H333.297V261.292C333.297 261.964 333.657 262.228 334.257 262.228C334.677 262.228 334.953 262.18 335.157 262.096V263.428C334.857 263.56 334.497 263.62 333.993 263.62C332.481 263.62 331.761 262.768 331.761 261.292ZM339.908 256.492H338.444L339.692 254.5H341.348L339.908 256.492ZM341.96 262.516C341.396 263.272 340.46 263.74 339.32 263.74C337.172 263.74 335.96 262.24 335.96 260.476C335.96 258.688 337.088 257.212 339.068 257.212C340.748 257.212 341.852 258.352 341.852 259.936C341.852 260.272 341.804 260.584 341.756 260.788H337.52C337.664 261.916 338.36 262.372 339.308 262.372C339.968 262.372 340.544 262.084 340.868 261.652L341.96 262.516ZM339.032 258.46C338.252 258.46 337.736 258.892 337.568 259.684H340.352C340.328 259.072 339.884 258.46 339.032 258.46ZM347.344 256.396C346.804 256.396 346.348 255.94 346.348 255.4C346.348 254.86 346.804 254.404 347.344 254.404C347.884 254.404 348.328 254.86 348.328 255.4C348.328 255.94 347.884 256.396 347.344 256.396ZM346.576 263.5V257.452H348.1V263.5H346.576ZM349.928 263.5V257.452H351.452V257.932C351.872 257.524 352.436 257.212 353.24 257.212C354.548 257.212 355.592 258.112 355.592 259.9V263.5H354.056V259.96C354.056 259.156 353.6 258.652 352.856 258.652C352.088 258.652 351.68 259.168 351.452 259.552V263.5H349.928ZM357.706 261.292V258.82H356.578V257.452H357.706V255.94H359.242V257.452H361.09V258.82H359.242V261.292C359.242 261.964 359.602 262.228 360.202 262.228C360.622 262.228 360.898 262.18 361.102 262.096V263.428C360.802 263.56 360.442 263.62 359.938 263.62C358.426 263.62 357.706 262.768 357.706 261.292ZM365.854 256.492H364.39L365.638 254.5H367.294L365.854 256.492ZM367.906 262.516C367.342 263.272 366.406 263.74 365.266 263.74C363.118 263.74 361.906 262.24 361.906 260.476C361.906 258.688 363.034 257.212 365.014 257.212C366.694 257.212 367.798 258.352 367.798 259.936C367.798 260.272 367.75 260.584 367.702 260.788H363.466C363.61 261.916 364.306 262.372 365.254 262.372C365.914 262.372 366.49 262.084 366.814 261.652L367.906 262.516ZM364.978 258.46C364.198 258.46 363.682 258.892 363.514 259.684H366.298C366.274 259.072 365.83 258.46 364.978 258.46ZM369.287 263.5V257.452H370.811V258.052C371.207 257.644 371.723 257.332 372.407 257.332C372.611 257.332 372.791 257.368 372.935 257.416V258.916C372.743 258.868 372.539 258.832 372.263 258.832C371.519 258.832 371.039 259.24 370.811 259.624V263.5H369.287ZM374.93 256.396C374.39 256.396 373.934 255.94 373.934 255.4C373.934 254.86 374.39 254.404 374.93 254.404C375.47 254.404 375.914 254.86 375.914 255.4C375.914 255.94 375.47 256.396 374.93 256.396ZM374.162 263.5V257.452H375.686V263.5H374.162ZM383.082 262.516C382.518 263.272 381.582 263.74 380.442 263.74C378.294 263.74 377.082 262.24 377.082 260.476C377.082 258.688 378.21 257.212 380.19 257.212C381.87 257.212 382.974 258.352 382.974 259.936C382.974 260.272 382.926 260.584 382.878 260.788H378.642C378.786 261.916 379.482 262.372 380.43 262.372C381.09 262.372 381.666 262.084 381.99 261.652L383.082 262.516ZM380.154 258.46C379.374 258.46 378.858 258.892 378.69 259.684H381.474C381.45 259.072 381.006 258.46 380.154 258.46ZM388.376 260.884V257.452H389.912V260.812C389.912 262.624 388.856 263.74 387.08 263.74C385.304 263.74 384.26 262.624 384.26 260.812V257.452H385.796V260.884C385.796 261.76 386.252 262.3 387.092 262.3C387.92 262.3 388.376 261.76 388.376 260.884ZM391.6 263.5V257.452H393.124V258.052C393.52 257.644 394.036 257.332 394.72 257.332C394.924 257.332 395.104 257.368 395.248 257.416V258.916C395.056 258.868 394.852 258.832 394.576 258.832C393.832 258.832 393.352 259.24 393.124 259.624V263.5H391.6ZM401.785 262.516C401.221 263.272 400.285 263.74 399.145 263.74C396.997 263.74 395.785 262.24 395.785 260.476C395.785 258.688 396.913 257.212 398.893 257.212C400.573 257.212 401.677 258.352 401.677 259.936C401.677 260.272 401.629 260.584 401.581 260.788H397.345C397.489 261.916 398.185 262.372 399.133 262.372C399.793 262.372 400.369 262.084 400.693 261.652L401.785 262.516ZM398.857 258.46C398.077 258.46 397.561 258.892 397.393 259.684H400.177C400.153 259.072 399.709 258.46 398.857 258.46Z" fill="#304436"/>
</g>
<defs>
<filter id="filter0_d_2272_3951" x="392" y="148" width="45" height="21" filterUnits="userSpaceOnUse" color-interpolation-filters="sRGB">
<feFlood flood-opacity="0" result="BackgroundImageFix"/>
<feColorMatrix in="SourceAlpha" type="matrix" values="0 0 0 0 0 0 0 0 0 0 0 0 0 0 0 0 0 0 127 0" result="hardAlpha"/>
<feOffset dx="1" dy="1"/>
<feComposite in2="hardAlpha" operator="out"/>
<feColorMatrix type="matrix" values="0 0 0 0 0.188235 0 0 0 0 0.266667 0 0 0 0 0.211765 0 0 0 1 0"/>
<feBlend mode="normal" in2="BackgroundImageFix" result="effect1_dropShadow_2272_3951"/>
<feBlend mode="normal" in="SourceGraphic" in2="effect1_dropShadow_2272_3951" result="shape"/>
</filter>
<filter id="filter1_d_2272_3951" x="309" y="248" width="97" height="21" filterUnits="userSpaceOnUse" color-interpolation-filters="sRGB">
<feFlood flood-opacity="0" result="BackgroundImageFix"/>
<feColorMatrix in="SourceAlpha" type="matrix" values="0 0 0 0 0 0 0 0 0 0 0 0 0 0 0 0 0 0 127 0" result="hardAlpha"/>
<feOffset dx="1" dy="1"/>
<feComposite in2="hardAlpha" operator="out"/>
<feColorMatrix type="matrix" values="0 0 0 0 0.188235 0 0 0 0 0.266667 0 0 0 0 0.211765 0 0 0 1 0"/>
<feBlend mode="normal" in2="BackgroundImageFix" result="effect1_dropShadow_2272_3951"/>
<feBlend mode="normal" in="SourceGraphic" in2="effect1_dropShadow_2272_3951" result="shape"/>
</filter>
<clipPath id="clip0_2272_3951">
<rect x="249.11" y="21.813" width="28.4629" height="46.6189" rx="2" fill="white"/>
</clipPath>
<pattern id="pattern0_2272_3951" patternUnits="userSpaceOnUse" patternTransform="matrix(17 0 0 14 202.5 75.5)" preserveAspectRatio="none" viewBox="-0.5 -0.5 17 14" width="1" height="1">
<use xlink:href="#pattern0_2272_3951_inner" transform="translate(-25.5 -7)"/>
<use xlink:href="#pattern0_2272_3951_inner" transform="translate(-8.5 -7)"/>
<use xlink:href="#pattern0_2272_3951_inner" transform="translate(8.5 -7)"/>
<use xlink:href="#pattern0_2272_3951_inner" transform="translate(-34 0)"/>
<use xlink:href="#pattern0_2272_3951_inner" transform="translate(-17 0)"/>
<g id="pattern0_2272_3951_inner">
<rect width="17" height="7" fill="#F3E1D1" stroke="white"/>
</g>
<use xlink:href="#pattern0_2272_3951_inner" transform="translate(-25.5 7)"/>
<use xlink:href="#pattern0_2272_3951_inner" transform="translate(-8.5 7)"/>
<use xlink:href="#pattern0_2272_3951_inner" transform="translate(8.5 7)"/>
</pattern></defs>
</svg>
