<svg width="501" height="362" viewBox="0 0 501 362" fill="none" xmlns="http://www.w3.org/2000/svg" xmlns:xlink="http://www.w3.org/1999/xlink">
<path d="M0 0H500V362H0V0Z" fill="white"/>
<path d="M500 0H499V362H500H501V0H500Z" fill="#E9E9E9"/>
<path d="M434 288H56C46.6112 288 39 295.611 39 305V321C39 321 44.6904 323.442 48.5 324.5C64.5465 328.955 74.3628 321.735 91 321C110.312 320.147 121.184 320.228 140.5 321C158.307 321.712 168.259 326.189 186 324.5C199.768 323.19 206.946 332.753 220.5 330C242.774 325.476 255.277 321.487 278 321C296.222 320.61 306.308 326.116 324.5 325C335.139 324.347 340.892 322.043 351.5 321L351.814 320.969C372.803 318.905 385.081 317.697 406 321C424.123 323.862 451 334.5 451 334.5V305C451 295.611 443.389 288 434 288Z" fill="#9A8D81" stroke="#304436" stroke-width="2"/>
<path d="M39 354H451V334.5C451 334.5 424.123 323.861 406 321C385.081 317.697 372.803 318.905 351.814 320.969L351.5 321C340.892 322.043 335.139 324.347 324.5 325C306.308 326.116 296.222 320.61 278 321C255.277 321.487 242.774 325.476 220.5 330C206.946 332.753 199.768 323.189 186 324.5C168.259 326.189 158.307 321.712 140.5 321C121.184 320.228 110.312 320.147 91 321C74.3628 321.735 64.5465 328.955 48.5 324.5C44.6904 323.442 39 321 39 321V354Z" fill="#624D45" stroke="#304436" stroke-width="2"/>
<path d="M53.5 332H61.5" stroke="#304436" stroke-width="2" stroke-linecap="round"/>
<path d="M208 301H216" stroke="#304436" stroke-width="2" stroke-linecap="round"/>
<path d="M53 319H61" stroke="#304436" stroke-width="2" stroke-linecap="round"/>
<path d="M392 295H400" stroke="#304436" stroke-width="2" stroke-linecap="round"/>
<path d="M281 333H289" stroke="#304436" stroke-width="2" stroke-linecap="round"/>
<path d="M217 347H225" stroke="#304436" stroke-width="2" stroke-linecap="round"/>
<path d="M198 345H190" stroke="#304436" stroke-width="2" stroke-linecap="round"/>
<path d="M352.5 314H344.5" stroke="#304436" stroke-width="2" stroke-linecap="round"/>
<path d="M361 300H353" stroke="#304436" stroke-width="2" stroke-linecap="round"/>
<path d="M425.5 346H417.5" stroke="#304436" stroke-width="2" stroke-linecap="round"/>
<path d="M174 329H166" stroke="#304436" stroke-width="2" stroke-linecap="round"/>
<path d="M328.5 298H320.5" stroke="#304436" stroke-width="2" stroke-linecap="round"/>
<path d="M134.5 296H126.5" stroke="#304436" stroke-width="2" stroke-linecap="round"/>
<path d="M401.5 330H393.5" stroke="#304436" stroke-width="2" stroke-linecap="round"/>
<path d="M69.5 343H77.5" stroke="#304436" stroke-width="2" stroke-linecap="round"/>
<path d="M224 312H232" stroke="#304436" stroke-width="2" stroke-linecap="round"/>
<path d="M48 306H56" stroke="#304436" stroke-width="2" stroke-linecap="round"/>
<path d="M408 306H416" stroke="#304436" stroke-width="2" stroke-linecap="round"/>
<path d="M297 344H305" stroke="#304436" stroke-width="2" stroke-linecap="round"/>
<path d="M233 336H241" stroke="#304436" stroke-width="2" stroke-linecap="round"/>
<path d="M117.5 330H125.5" stroke="#304436" stroke-width="2" stroke-linecap="round"/>
<path d="M272 299H280" stroke="#304436" stroke-width="2" stroke-linecap="round"/>
<path d="M78 297H86" stroke="#304436" stroke-width="2" stroke-linecap="round"/>
<path d="M199 316H207" stroke="#304436" stroke-width="2" stroke-linecap="round"/>
<path d="M345 331H353" stroke="#304436" stroke-width="2" stroke-linecap="round"/>
<path d="M134 343H126" stroke="#304436" stroke-width="2" stroke-linecap="round"/>
<path d="M288.5 312H280.5" stroke="#304436" stroke-width="2" stroke-linecap="round"/>
<path d="M94.5 310H86.5" stroke="#304436" stroke-width="2" stroke-linecap="round"/>
<path d="M361.5 344H353.5" stroke="#304436" stroke-width="2" stroke-linecap="round"/>
<path d="M100.5 337H103.5" stroke="#304436" stroke-width="2" stroke-linecap="round"/>
<path d="M255 306H258" stroke="#304436" stroke-width="2" stroke-linecap="round"/>
<path d="M180 319H183" stroke="#304436" stroke-width="2" stroke-linecap="round"/>
<path d="M439 300H442" stroke="#304436" stroke-width="2" stroke-linecap="round"/>
<path d="M374 312H377" stroke="#304436" stroke-width="2" stroke-linecap="round"/>
<path d="M328 338H331" stroke="#304436" stroke-width="2" stroke-linecap="round"/>
<path d="M264 342H267" stroke="#304436" stroke-width="2" stroke-linecap="round"/>
<path d="M151 350H148" stroke="#304436" stroke-width="2" stroke-linecap="round"/>
<path d="M305.5 319H302.5" stroke="#304436" stroke-width="2" stroke-linecap="round"/>
<path d="M171 301H168" stroke="#304436" stroke-width="2" stroke-linecap="round"/>
<path d="M378.5 351H375.5" stroke="#304436" stroke-width="2" stroke-linecap="round"/>
<path d="M71 332L75 332" stroke="#304436" stroke-width="2" stroke-linecap="round"/>
<path d="M225.5 301L229.5 301" stroke="#304436" stroke-width="2" stroke-linecap="round"/>
<path d="M160 319L164 319" stroke="#304436" stroke-width="2" stroke-linecap="round"/>
<path d="M119 317L123 317" stroke="#304436" stroke-width="2" stroke-linecap="round"/>
<path d="M409.5 295L413.5 295" stroke="#304436" stroke-width="2" stroke-linecap="round"/>
<path d="M298.5 333L302.5 333" stroke="#304436" stroke-width="2" stroke-linecap="round"/>
<path d="M234.5 347L238.5 347" stroke="#304436" stroke-width="2" stroke-linecap="round"/>
<path d="M180.5 345L176.5 345" stroke="#304436" stroke-width="2" stroke-linecap="round"/>
<path d="M335 314L331 314" stroke="#304436" stroke-width="2" stroke-linecap="round"/>
<path d="M141 312L137 312" stroke="#304436" stroke-width="2" stroke-linecap="round"/>
<path d="M408 346L404 346" stroke="#304436" stroke-width="2" stroke-linecap="round"/>
<path d="M161.5 329L157.5 329" stroke="#304436" stroke-width="2" stroke-linecap="round"/>
<path d="M316 298L312 298" stroke="#304436" stroke-width="2" stroke-linecap="round"/>
<path d="M122 296L118 296" stroke="#304436" stroke-width="2" stroke-linecap="round"/>
<path d="M389 330L385 330" stroke="#304436" stroke-width="2" stroke-linecap="round"/>
<path d="M87 343L91 343" stroke="#304436" stroke-width="2" stroke-linecap="round"/>
<path d="M241.5 312L245.5 312" stroke="#304436" stroke-width="2" stroke-linecap="round"/>
<path d="M74 320L78 320" stroke="#304436" stroke-width="2" stroke-linecap="round"/>
<path d="M425.5 306L429.5 306" stroke="#304436" stroke-width="2" stroke-linecap="round"/>
<path d="M314.5 344L318.5 344" stroke="#304436" stroke-width="2" stroke-linecap="round"/>
<path d="M250.5 336L254.5 336" stroke="#304436" stroke-width="2" stroke-linecap="round"/>
<path d="M199.641 75H412.641V306H199.641V75Z" fill="#F3E1D1" stroke="#304436" stroke-width="2"/>
<path d="M317 60V261" stroke="#535F57" stroke-width="2"/>
<path d="M325 61.5H341L341 140.5L341 226.5L340.711 267H357.5M357.5 256.5H350.5V234M355 147.5H350.5V226.5V234M350.5 234H355" stroke="#465FB1" stroke-width="2" stroke-linecap="round" stroke-linejoin="round"/>
<path d="M330 279H359" stroke="#465FB1" stroke-width="2" stroke-linecap="round" stroke-linejoin="round"/>
<rect x="225.641" y="155" width="186" height="4" fill="#CBB9A9"/>
<rect x="225.641" y="239" width="186" height="4" fill="#CBB9A9"/>
<rect x="225.641" y="70" width="188" height="6" fill="#727B74"/>
<rect x="272.641" y="76" width="167" height="3.99999" transform="rotate(90 272.641 76)" fill="#CBB9A9"/>
<rect x="349.641" y="76" width="167" height="3.99999" transform="rotate(90 349.641 76)" fill="#CBB9A9"/>
<path d="M367.411 203.681L368.641 204.91" stroke="#304436" stroke-linecap="round"/>
<path d="M365.567 205.525L367.616 207.575" stroke="#304436" stroke-linecap="round"/>
<path d="M363.722 207.37L365.772 209.419" stroke="#304436" stroke-linecap="round"/>
<path d="M361.878 209.215L363.107 210.444" stroke="#304436" stroke-linecap="round"/>
<path d="M357.641 200H354.641V239H357.641L357.641 202.5L357.641 200Z" fill="white"/>
<path d="M357.641 202.5L357.641 239H354.641V200H357.641L357.641 202.5ZM357.641 202.5L360.641 204" stroke="#304436"/>
<path d="M366.762 202.506C366.762 202.506 364.256 200 361.035 203.221C357.813 206.443 360.319 208.948 360.319 208.948L366.762 202.506Z" fill="white" stroke="#304436"/>
<path d="M367.411 119.681L368.641 120.91" stroke="#304436" stroke-linecap="round"/>
<path d="M365.567 121.525L367.616 123.575" stroke="#304436" stroke-linecap="round"/>
<path d="M363.722 123.37L365.772 125.419" stroke="#304436" stroke-linecap="round"/>
<path d="M361.878 125.215L363.107 126.444" stroke="#304436" stroke-linecap="round"/>
<path d="M357.641 116H354.641V155H357.641L357.641 118.5L357.641 116Z" fill="white"/>
<path d="M357.641 118.5L357.641 155H354.641V116H357.641L357.641 118.5ZM357.641 118.5L360.641 120" stroke="#304436"/>
<path d="M366.762 118.506C366.762 118.506 364.256 116 361.035 119.221C357.813 122.443 360.319 124.948 360.319 124.948L366.762 118.506Z" fill="white" stroke="#304436"/>
<path d="M199.641 86.7959V306H263.468C263.468 306 245.003 289.399 240.044 274.538C230.483 245.887 266.419 241.04 263.468 216.495C261.477 199.937 248.406 194.999 245.087 178.694C242.399 165.489 246.919 157.109 245.048 144.061C243.136 130.727 237.716 119.959 232.576 109.748C229.957 104.545 225.037 91.976 223.065 86.7959C222.215 83.3255 221.706 79.751 221.675 76H199.641V86.7959Z" fill="url(#pattern0_2277_6850)" stroke="#304436" stroke-width="2"/>
<path d="M199.606 157.906H194V151H199.606H204.35H214.269H224.054H234.835H244.826V157.906H234.835H224.054H214.269H204.35H199.606Z" fill="#E2D2C3"/>
<path d="M244.826 157.906H204.35M244.826 157.906H214.269M244.826 157.906V151M244.826 151H204.35M244.826 151H214.269M204.35 151H199.606H194V157.906H199.606H204.35M204.35 151V157.906M204.35 151H214.269M204.35 157.906H214.269M214.269 151V157.906M224.054 151V157.906M234.835 151V157.906" stroke="#304436" stroke-width="2"/>
<path d="M199.606 242.906H194V236H199.606H204.35H214.269H224.054H234.835H245.641H256.141L250.141 242.906H245.641H234.835H224.054H214.269H204.35H199.606Z" fill="#E2D2C3"/>
<path d="M250.141 242.906H204.35M250.141 242.906H214.269M250.141 242.906L256.141 236M256.141 236H204.35M256.141 236H214.269M204.35 236H199.606H194V242.906H199.606H204.35M204.35 236V242.906M204.35 236H214.269M204.35 242.906H214.269M214.269 236V242.906M224.054 236V242.906M234.835 236V242.906M245.641 236V242.906" stroke="#304436" stroke-width="2"/>
<path d="M195.591 76.2018H199.473H259.417V70.1586H195.591V76.2018Z" fill="#E2D2C3" stroke="#304436" stroke-width="2"/>
<path d="M230.134 17.4965L202.965 70.1585H416L389 17.4965H230.134Z" fill="#858181" stroke="#304436" stroke-width="2"/>
<path d="M236.313 19.9507L242.781 16.8304L255.719 10.5899L275.126 19.9507V70.1585H242.781H236.313V19.9507Z" fill="#F3E1D1" stroke="#274430" stroke-width="2"/>
<g clip-path="url(#clip0_2277_6850)">
<rect x="241.488" y="21.813" width="28.4629" height="46.6189" rx="2" fill="#93D3F6"/>
<path d="M241.488 42.2087L259.003 21.813H269.951L241.488 56.7771V42.2087Z" fill="white" fill-opacity="0.3"/>
<path d="M242.582 68.4318L269.951 35.4102V41.2375L246.961 68.4318H242.582Z" fill="white" fill-opacity="0.3"/>
<rect x="241.488" y="21.813" width="28.4629" height="7.76981" fill="#565656" fill-opacity="0.3"/>
</g>
<rect x="241.488" y="21.813" width="28.4629" height="46.6189" rx="2" stroke="#274430" stroke-width="2"/>
<path fill-rule="evenodd" clip-rule="evenodd" d="M255.288 70.1585L255.288 21.813L257.013 21.813L257.013 70.1585L255.288 70.1585Z" fill="#304436"/>
<path fill-rule="evenodd" clip-rule="evenodd" d="M269.951 45.9857L241.488 45.9857L241.488 44.2591L269.951 44.2591L269.951 45.9857Z" fill="#304436"/>
<rect x="233.725" y="66.7052" width="43.9881" height="3.45325" rx="1.72662" fill="#F3E1D1" stroke="#274430" stroke-width="2"/>
<g clip-path="url(#clip1_2277_6850)">
<path fill-rule="evenodd" clip-rule="evenodd" d="M288 65.3571C288 66.2645 288.746 67 289.667 67L319.667 67C320.587 67 321.333 66.2645 321.333 65.3571L321.333 22.6429C321.333 21.7355 320.587 21 319.667 21L289.667 21C288.746 21 288 21.7355 288 22.6429L288 65.3571Z" fill="#115980" stroke="#304436" stroke-width="2"/>
</g>
<path fill-rule="evenodd" clip-rule="evenodd" d="M311.605 21.807L311.605 66.193L309.977 66.193L309.977 21.807L311.605 21.807Z" fill="#304436"/>
<path fill-rule="evenodd" clip-rule="evenodd" d="M299.395 21.807L299.395 66.193L297.767 66.193L297.767 21.807L299.395 21.807Z" fill="#304436"/>
<path d="M289 47.4167L307.462 22H319C307.284 33.3252 300.716 48.1748 289 59.5V47.4167Z" fill="white" fill-opacity="0.3"/>
<path d="M291 66L320.5 27.0588V32L295.64 66H291Z" fill="white" fill-opacity="0.3"/>
<g clip-path="url(#clip2_2277_6850)">
<path fill-rule="evenodd" clip-rule="evenodd" d="M325 65.3571C325 66.2645 325.746 67 326.667 67L356.667 67C357.587 67 358.333 66.2645 358.333 65.3571L358.333 22.6429C358.333 21.7355 357.587 21 356.667 21L326.667 21C325.746 21 325 21.7355 325 22.6429L325 65.3571Z" fill="#115980" stroke="#304436" stroke-width="2"/>
</g>
<path fill-rule="evenodd" clip-rule="evenodd" d="M348.605 21.807L348.605 66.193L346.977 66.193L346.977 21.807L348.605 21.807Z" fill="#304436"/>
<path fill-rule="evenodd" clip-rule="evenodd" d="M336.395 21.807L336.395 66.193L334.767 66.193L334.767 21.807L336.395 21.807Z" fill="#304436"/>
<path d="M326 47.4167L344.462 22H356C344.284 33.3252 337.716 48.1748 326 59.5V47.4167Z" fill="white" fill-opacity="0.3"/>
<path d="M328 66L357.5 27.0588V32L332.64 66H328Z" fill="white" fill-opacity="0.3"/>
<g clip-path="url(#clip3_2277_6850)">
<path fill-rule="evenodd" clip-rule="evenodd" d="M362 65.3571C362 66.2645 362.597 67 363.333 67L387.333 67C388.07 67 388.667 66.2645 388.667 65.3571L388.667 22.6429C388.667 21.7355 388.07 21 387.333 21L363.333 21C362.597 21 362 21.7355 362 22.6429L362 65.3571Z" fill="#115980" stroke="#304436" stroke-width="2"/>
</g>
<path fill-rule="evenodd" clip-rule="evenodd" d="M380.884 21.807L380.884 66.193L379.581 66.193L379.581 21.807L380.884 21.807Z" fill="#304436"/>
<path fill-rule="evenodd" clip-rule="evenodd" d="M371.116 21.807L371.116 66.193L369.814 66.193L369.814 21.807L371.116 21.807Z" fill="#304436"/>
<path d="M362.8 47.4167L377.569 22L386.8 22C377.427 33.3252 372.173 48.1748 362.8 59.5L362.8 47.4167Z" fill="white" fill-opacity="0.3"/>
<path d="M364.4 66L388 27.0588L388 32L368.112 66L364.4 66Z" fill="white" fill-opacity="0.3"/>
<g filter="url(#filter0_d_2277_6850)">
<rect x="147" y="73" width="166" height="19" fill="white" shape-rendering="crispEdges"/>
<rect x="147.5" y="73.5" width="165" height="18" stroke="#304436" shape-rendering="crispEdges"/>
<path d="M154.81 87.418C155.93 87.418 156.812 86.872 157.372 86.074L158.94 87.278C158.044 88.496 156.588 89.28 154.81 89.28C151.716 89.28 149.602 86.9 149.602 84.1C149.602 81.3 151.716 78.92 154.81 78.92C156.588 78.92 158.044 79.718 158.94 80.908L157.372 82.126C156.812 81.328 155.93 80.782 154.81 80.782C152.962 80.782 151.646 82.224 151.646 84.1C151.646 85.976 152.962 87.418 154.81 87.418ZM162.279 89.21C160.865 89.21 159.899 88.398 159.899 87.096C159.899 86.032 160.725 85.234 162.237 84.982L164.393 84.618V84.436C164.393 83.694 163.833 83.218 163.021 83.218C162.335 83.218 161.803 83.54 161.425 84.058L160.123 83.064C160.753 82.196 161.789 81.664 163.077 81.664C165.121 81.664 166.171 82.882 166.171 84.436V89H164.393V88.314C163.945 88.86 163.105 89.21 162.279 89.21ZM161.663 87.012C161.663 87.488 162.041 87.796 162.643 87.796C163.455 87.796 164.043 87.418 164.393 86.858V85.864L162.713 86.144C161.971 86.27 161.663 86.578 161.663 87.012ZM168.207 92.444V81.944H169.985V82.518C170.531 81.972 171.217 81.664 172.183 81.664C174.423 81.664 175.767 83.414 175.767 85.472C175.767 87.53 174.423 89.28 172.183 89.28C171.217 89.28 170.531 88.972 169.985 88.426V92.444H168.207ZM171.931 83.344C171.105 83.344 170.433 83.708 169.985 84.366V86.578C170.461 87.25 171.119 87.6 171.931 87.6C173.135 87.6 173.919 86.704 173.919 85.472C173.919 84.24 173.135 83.344 171.931 83.344ZM177.76 86.424V83.54H176.444V81.944H177.76V80.18H179.552V81.944H181.708V83.54H179.552V86.424C179.552 87.208 179.972 87.516 180.672 87.516C181.162 87.516 181.484 87.46 181.722 87.362V88.916C181.372 89.07 180.952 89.14 180.364 89.14C178.6 89.14 177.76 88.146 177.76 86.424ZM189.66 87.852C189.002 88.734 187.91 89.28 186.58 89.28C184.074 89.28 182.66 87.53 182.66 85.472C182.66 83.386 183.976 81.664 186.286 81.664C188.246 81.664 189.534 82.994 189.534 84.842C189.534 85.234 189.478 85.598 189.422 85.836H184.48C184.648 87.152 185.46 87.684 186.566 87.684C187.336 87.684 188.008 87.348 188.386 86.844L189.66 87.852ZM186.244 83.12C185.334 83.12 184.732 83.624 184.536 84.548H187.784C187.756 83.834 187.238 83.12 186.244 83.12ZM195.837 85.948V81.944H197.629V85.864C197.629 87.978 196.397 89.28 194.325 89.28C192.253 89.28 191.035 87.978 191.035 85.864V81.944H192.827V85.948C192.827 86.97 193.359 87.6 194.339 87.6C195.305 87.6 195.837 86.97 195.837 85.948ZM199.597 89V81.944H201.375V82.644C201.837 82.168 202.439 81.804 203.237 81.804C203.475 81.804 203.685 81.846 203.853 81.902V83.652C203.629 83.596 203.391 83.554 203.069 83.554C202.201 83.554 201.641 84.03 201.375 84.478V89H199.597ZM211.046 89.21C209.632 89.21 208.666 88.398 208.666 87.096C208.666 86.032 209.492 85.234 211.004 84.982L213.16 84.618V84.436C213.16 83.694 212.6 83.218 211.788 83.218C211.102 83.218 210.57 83.54 210.192 84.058L208.89 83.064C209.52 82.196 210.556 81.664 211.844 81.664C213.888 81.664 214.938 82.882 214.938 84.436V89H213.16V88.314C212.712 88.86 211.872 89.21 211.046 89.21ZM210.43 87.012C210.43 87.488 210.808 87.796 211.41 87.796C212.222 87.796 212.81 87.418 213.16 86.858V85.864L211.48 86.144C210.738 86.27 210.43 86.578 210.43 87.012ZM217.422 86.424V83.54H216.106V81.944H217.422V80.18H219.214V81.944H221.37V83.54H219.214V86.424C219.214 87.208 219.634 87.516 220.334 87.516C220.824 87.516 221.146 87.46 221.384 87.362V88.916C221.034 89.07 220.614 89.14 220.026 89.14C218.262 89.14 217.422 88.146 217.422 86.424ZM222.962 89V81.944H224.74V82.476C225.216 82.014 225.818 81.664 226.686 81.664C227.582 81.664 228.366 82.056 228.828 82.812C229.332 82.196 230.004 81.664 231.194 81.664C232.65 81.664 233.798 82.672 233.798 84.66V89H232.006V84.73C232.006 83.876 231.544 83.344 230.746 83.344C229.976 83.344 229.556 83.876 229.276 84.352C229.29 84.45 229.29 84.548 229.29 84.66V89H227.498V84.73C227.498 83.876 227.036 83.344 226.238 83.344C225.426 83.344 225.006 83.946 224.74 84.394V89H222.962ZM239.188 81.664C241.484 81.664 243.052 83.358 243.052 85.472C243.052 87.586 241.484 89.28 239.188 89.28C236.892 89.28 235.324 87.586 235.324 85.472C235.324 83.358 236.892 81.664 239.188 81.664ZM239.216 87.6C240.35 87.6 241.204 86.69 241.204 85.472C241.204 84.24 240.35 83.344 239.216 83.344C238.04 83.344 237.172 84.24 237.172 85.472C237.172 86.704 238.04 87.6 239.216 87.6ZM243.825 87.978L245.001 86.914C245.435 87.46 245.953 87.852 246.625 87.852C247.199 87.852 247.493 87.516 247.493 87.096C247.493 85.864 244.119 86.326 244.119 83.848C244.119 82.602 245.169 81.664 246.639 81.664C247.717 81.664 248.697 82.182 249.201 82.868L248.025 83.904C247.661 83.456 247.199 83.092 246.653 83.092C246.093 83.092 245.827 83.4 245.827 83.764C245.827 84.968 249.201 84.548 249.201 86.984C249.173 88.468 247.983 89.28 246.653 89.28C245.393 89.28 244.497 88.776 243.825 87.978ZM250.839 92.444V81.944H252.617V82.518C253.163 81.972 253.849 81.664 254.815 81.664C257.055 81.664 258.399 83.414 258.399 85.472C258.399 87.53 257.055 89.28 254.815 89.28C253.849 89.28 253.163 88.972 252.617 88.426V92.444H250.839ZM254.563 83.344C253.737 83.344 253.065 83.708 252.617 84.366V86.578C253.093 87.25 253.751 87.6 254.563 87.6C255.767 87.6 256.551 86.704 256.551 85.472C256.551 84.24 255.767 83.344 254.563 83.344ZM260.027 89V78.5H261.805V82.504C262.295 82.028 262.953 81.664 263.891 81.664C265.417 81.664 266.635 82.714 266.635 84.8V89H264.843V84.87C264.843 83.932 264.325 83.344 263.443 83.344C262.547 83.344 262.071 83.946 261.805 84.394V89H260.027ZM272.756 80.824H271.048L272.504 78.5H274.436L272.756 80.824ZM275.15 87.852C274.492 88.734 273.4 89.28 272.07 89.28C269.564 89.28 268.15 87.53 268.15 85.472C268.15 83.386 269.466 81.664 271.776 81.664C273.736 81.664 275.024 82.994 275.024 84.842C275.024 85.234 274.968 85.598 274.912 85.836H269.97C270.138 87.152 270.95 87.684 272.056 87.684C272.826 87.684 273.498 87.348 273.876 86.844L275.15 87.852ZM271.734 83.12C270.824 83.12 270.222 83.624 270.026 84.548H273.274C273.246 83.834 272.728 83.12 271.734 83.12ZM276.761 89V81.944H278.539V82.644C279.001 82.168 279.603 81.804 280.401 81.804C280.639 81.804 280.849 81.846 281.017 81.902V83.652C280.793 83.596 280.555 83.554 280.233 83.554C279.365 83.554 278.805 84.03 278.539 84.478V89H276.761ZM283.345 80.712C282.715 80.712 282.183 80.18 282.183 79.55C282.183 78.92 282.715 78.388 283.345 78.388C283.975 78.388 284.493 78.92 284.493 79.55C284.493 80.18 283.975 80.712 283.345 80.712ZM282.449 89V81.944H284.227V89H282.449ZM285.855 85.472C285.855 83.414 287.199 81.664 289.439 81.664C290.391 81.664 291.077 81.972 291.623 82.518V81.944H293.415V92.444H291.623V88.426C291.077 88.972 290.391 89.28 289.439 89.28C287.199 89.28 285.855 87.53 285.855 85.472ZM287.703 85.472C287.703 86.704 288.473 87.6 289.677 87.6C290.503 87.6 291.189 87.236 291.623 86.592V84.352C291.147 83.694 290.475 83.344 289.677 83.344C288.473 83.344 287.703 84.24 287.703 85.472ZM300.194 85.948V81.944H301.986V85.864C301.986 87.978 300.754 89.28 298.682 89.28C296.61 89.28 295.392 87.978 295.392 85.864V81.944H297.184V85.948C297.184 86.97 297.716 87.6 298.696 87.6C299.662 87.6 300.194 86.97 300.194 85.948ZM310.451 87.852C309.793 88.734 308.701 89.28 307.371 89.28C304.865 89.28 303.451 87.53 303.451 85.472C303.451 83.386 304.767 81.664 307.077 81.664C309.037 81.664 310.325 82.994 310.325 84.842C310.325 85.234 310.269 85.598 310.213 85.836H305.271C305.439 87.152 306.251 87.684 307.357 87.684C308.127 87.684 308.799 87.348 309.177 86.844L310.451 87.852ZM307.035 83.12C306.125 83.12 305.523 83.624 305.327 84.548H308.575C308.547 83.834 308.029 83.12 307.035 83.12Z" fill="#304436"/>
</g>
<path d="M356.377 252.377C356.377 250.168 358.168 248.377 360.377 248.377L375.254 248.377L390.624 248.377C392.833 248.377 394.624 250.168 394.624 252.377V294.798C394.624 297.007 392.833 298.798 390.624 298.798H360.377C358.168 298.798 356.377 297.007 356.377 294.798V252.377Z" fill="white" stroke="#274430"/>
<path d="M389.628 248.377L392.042 248.377C393.411 248.377 394.52 249.486 394.52 250.854V294.798C394.52 297.007 392.729 298.798 390.52 298.798H389.628V248.377Z" fill="#565656" fill-opacity="0.3"/>
<ellipse cx="375.5" cy="260.466" rx="6.37448" ry="6.33956" fill="#304436" stroke="#274430" stroke-width="2"/>
<path d="M375.5 256.662L376.464 260.498C376.622 261.125 376.147 261.734 375.5 261.734C374.852 261.734 374.378 261.125 374.536 260.498L375.5 256.662Z" fill="white"/>
<ellipse cx="375.5" cy="286.119" rx="5.09959" ry="5.07165" fill="#304436" stroke="#274430" stroke-width="2"/>
<ellipse cx="375.5" cy="286.119" rx="2.54979" ry="2.53583" fill="white" fill-opacity="0.3"/>
<path d="M361.269 298.798H389.731V300.337C389.731 301.441 388.836 302.337 387.731 302.337H363.269C362.164 302.337 361.269 301.441 361.269 300.337V298.798Z" fill="white" stroke="#274430"/>
<rect width="1.27315" height="5.65883" transform="matrix(0.867211 -0.497941 0.502061 0.864832 373.588 283.9)" fill="white"/>
<path d="M389.287 299.241H387.268C386.882 299.241 386.501 299.296 386.13 299.403C385.17 299.681 383.166 300.247 381.726 300.568C378.131 301.368 372.387 301.894 372.387 301.894H389.287V299.241Z" fill="#565656" fill-opacity="0.3"/>
<path d="M203.912 299V290H205.436V299H203.912ZM210.144 292.712C212.112 292.712 213.456 294.164 213.456 295.976C213.456 297.788 212.112 299.24 210.144 299.24C208.176 299.24 206.832 297.788 206.832 295.976C206.832 294.164 208.176 292.712 210.144 292.712ZM210.168 297.8C211.14 297.8 211.872 297.02 211.872 295.976C211.872 294.92 211.14 294.152 210.168 294.152C209.16 294.152 208.416 294.92 208.416 295.976C208.416 297.032 209.16 297.8 210.168 297.8ZM217.808 297.8C218.408 297.8 218.888 297.524 219.176 297.104L220.364 298.016C219.8 298.76 218.912 299.24 217.808 299.24C215.72 299.24 214.472 297.74 214.472 295.976C214.472 294.212 215.72 292.712 217.808 292.712C218.912 292.712 219.8 293.192 220.364 293.936L219.176 294.848C218.888 294.428 218.408 294.152 217.784 294.152C216.788 294.152 216.056 294.92 216.056 295.976C216.056 297.044 216.788 297.8 217.808 297.8ZM223.1 299.18C221.888 299.18 221.06 298.484 221.06 297.368C221.06 296.456 221.768 295.772 223.064 295.556L224.912 295.244V295.088C224.912 294.452 224.432 294.044 223.736 294.044C223.148 294.044 222.692 294.32 222.368 294.764L221.252 293.912C221.792 293.168 222.68 292.712 223.784 292.712C225.536 292.712 226.436 293.756 226.436 295.088V299H224.912V298.412C224.528 298.88 223.808 299.18 223.1 299.18ZM222.572 297.296C222.572 297.704 222.896 297.968 223.412 297.968C224.108 297.968 224.612 297.644 224.912 297.164V296.312L223.472 296.552C222.836 296.66 222.572 296.924 222.572 297.296ZM228.182 299V290H229.706V299H228.182Z" fill="#535F57"/>
<g filter="url(#filter1_d_2277_6850)">
<rect x="315" y="311" width="121" height="20" fill="white" shape-rendering="crispEdges"/>
<rect x="315.5" y="311.5" width="120" height="19" stroke="#304436" shape-rendering="crispEdges"/>
<path d="M318.236 326.5V318.1H320.708C322.46 318.1 323.528 318.964 323.528 320.38C323.528 321.064 323.216 321.652 322.628 322.036C323.516 322.432 324.008 323.152 324.008 324.028C324.008 325.564 322.82 326.5 320.888 326.5H318.236ZM320.744 319.516H319.94V321.412H320.744C321.392 321.412 321.776 321.064 321.776 320.452C321.776 319.864 321.392 319.516 320.744 319.516ZM320.984 322.828H319.94V325.084H320.984C321.776 325.084 322.256 324.664 322.256 323.956C322.256 323.236 321.776 322.828 320.984 322.828ZM327.257 326.68C326.045 326.68 325.217 325.984 325.217 324.868C325.217 323.956 325.925 323.272 327.221 323.056L329.069 322.744V322.588C329.069 321.952 328.589 321.544 327.893 321.544C327.305 321.544 326.849 321.82 326.525 322.264L325.409 321.412C325.949 320.668 326.837 320.212 327.941 320.212C329.693 320.212 330.593 321.256 330.593 322.588V326.5H329.069V325.912C328.685 326.38 327.965 326.68 327.257 326.68ZM326.729 324.796C326.729 325.204 327.053 325.468 327.569 325.468C328.265 325.468 328.769 325.144 329.069 324.664V323.812L327.629 324.052C326.993 324.16 326.729 324.424 326.729 324.796ZM332.338 326.5V317.5H333.862V326.5H332.338ZM335.689 326.5V317.5H337.213V326.5H335.689ZM341.921 320.212C343.889 320.212 345.233 321.664 345.233 323.476C345.233 325.288 343.889 326.74 341.921 326.74C339.953 326.74 338.609 325.288 338.609 323.476C338.609 321.664 339.953 320.212 341.921 320.212ZM341.945 325.3C342.917 325.3 343.649 324.52 343.649 323.476C343.649 322.42 342.917 321.652 341.945 321.652C340.937 321.652 340.193 322.42 340.193 323.476C340.193 324.532 340.937 325.3 341.945 325.3ZM346.623 326.5V320.452H348.147V320.932C348.567 320.524 349.131 320.212 349.935 320.212C351.243 320.212 352.287 321.112 352.287 322.9V326.5H350.751V322.96C350.751 322.156 350.295 321.652 349.551 321.652C348.783 321.652 348.375 322.168 348.147 322.552V326.5H346.623ZM356.82 323.476C356.82 321.712 357.984 320.212 359.892 320.212C360.708 320.212 361.296 320.464 361.764 320.932V317.5H363.3V326.5H361.764V326.02C361.296 326.488 360.708 326.74 359.892 326.74C357.984 326.74 356.82 325.24 356.82 323.476ZM358.416 323.476C358.416 324.532 359.076 325.3 360.108 325.3C360.792 325.3 361.356 325.012 361.764 324.46V322.492C361.356 321.94 360.792 321.652 360.108 321.652C359.076 321.652 358.416 322.42 358.416 323.476ZM365.941 321.556H364.525L365.605 318.1H367.333L365.941 321.556ZM373.425 325.516C372.861 326.272 371.925 326.74 370.785 326.74C368.637 326.74 367.425 325.24 367.425 323.476C367.425 321.688 368.553 320.212 370.533 320.212C372.213 320.212 373.317 321.352 373.317 322.936C373.317 323.272 373.269 323.584 373.221 323.788H368.985C369.129 324.916 369.825 325.372 370.773 325.372C371.433 325.372 372.009 325.084 372.333 324.652L373.425 325.516ZM370.497 321.46C369.717 321.46 369.201 321.892 369.033 322.684H371.817C371.793 322.072 371.349 321.46 370.497 321.46ZM376.429 326.68C375.217 326.68 374.389 325.984 374.389 324.868C374.389 323.956 375.097 323.272 376.393 323.056L378.241 322.744V322.588C378.241 321.952 377.761 321.544 377.065 321.544C376.477 321.544 376.021 321.82 375.697 322.264L374.581 321.412C375.121 320.668 376.009 320.212 377.113 320.212C378.865 320.212 379.765 321.256 379.765 322.588V326.5H378.241V325.912C377.857 326.38 377.137 326.68 376.429 326.68ZM375.901 324.796C375.901 325.204 376.225 325.468 376.741 325.468C377.437 325.468 377.941 325.144 378.241 324.664V323.812L376.801 324.052C376.165 324.16 375.901 324.424 375.901 324.796ZM385.494 323.884V320.452H387.03V323.812C387.03 325.624 385.974 326.74 384.198 326.74C382.422 326.74 381.378 325.624 381.378 323.812V320.452H382.914V323.884C382.914 324.76 383.37 325.3 384.21 325.3C385.038 325.3 385.494 324.76 385.494 323.884ZM394.855 325.3C395.455 325.3 395.935 325.024 396.223 324.604L397.411 325.516C396.847 326.26 395.959 326.74 394.855 326.74C392.767 326.74 391.519 325.24 391.519 323.476C391.519 321.712 392.767 320.212 394.855 320.212C395.959 320.212 396.847 320.692 397.411 321.436L396.223 322.348C395.935 321.928 395.455 321.652 394.831 321.652C393.835 321.652 393.103 322.42 393.103 323.476C393.103 324.544 393.835 325.3 394.855 325.3ZM398.549 326.5V317.5H400.073V320.932C400.493 320.524 401.057 320.212 401.861 320.212C403.169 320.212 404.213 321.112 404.213 322.9V326.5H402.677V322.96C402.677 322.156 402.233 321.652 401.477 321.652C400.709 321.652 400.301 322.168 400.073 322.552V326.5H398.549ZM407.647 326.68C406.435 326.68 405.607 325.984 405.607 324.868C405.607 323.956 406.315 323.272 407.611 323.056L409.459 322.744V322.588C409.459 321.952 408.979 321.544 408.283 321.544C407.695 321.544 407.239 321.82 406.915 322.264L405.799 321.412C406.339 320.668 407.227 320.212 408.331 320.212C410.083 320.212 410.983 321.256 410.983 322.588V326.5H409.459V325.912C409.075 326.38 408.355 326.68 407.647 326.68ZM407.119 324.796C407.119 325.204 407.443 325.468 407.959 325.468C408.655 325.468 409.159 325.144 409.459 324.664V323.812L408.019 324.052C407.383 324.16 407.119 324.424 407.119 324.796ZM416.712 323.884V320.452H418.248V323.812C418.248 325.624 417.192 326.74 415.416 326.74C413.64 326.74 412.596 325.624 412.596 323.812V320.452H414.132V323.884C414.132 324.76 414.588 325.3 415.428 325.3C416.256 325.3 416.712 324.76 416.712 323.884ZM419.503 323.476C419.503 321.712 420.667 320.212 422.575 320.212C423.391 320.212 423.979 320.464 424.447 320.932V317.5H425.983V326.5H424.447V326.02C423.979 326.488 423.391 326.74 422.575 326.74C420.667 326.74 419.503 325.24 419.503 323.476ZM421.099 323.476C421.099 324.532 421.759 325.3 422.791 325.3C423.475 325.3 424.039 325.012 424.447 324.46V322.492C424.039 321.94 423.475 321.652 422.791 321.652C421.759 321.652 421.099 322.42 421.099 323.476ZM433.378 325.516C432.814 326.272 431.878 326.74 430.738 326.74C428.59 326.74 427.378 325.24 427.378 323.476C427.378 321.688 428.506 320.212 430.486 320.212C432.166 320.212 433.27 321.352 433.27 322.936C433.27 323.272 433.222 323.584 433.174 323.788H428.938C429.082 324.916 429.778 325.372 430.726 325.372C431.386 325.372 431.962 325.084 432.286 324.652L433.378 325.516ZM430.45 321.46C429.67 321.46 429.154 321.892 428.986 322.684H431.77C431.746 322.072 431.302 321.46 430.45 321.46Z" fill="#304436"/>
</g>
<path d="M303 254.141C303 252.959 303.769 252 304.718 252L316.992 252L329.631 252C330.58 252 331.349 252.959 331.349 254.141V302.859C331.349 304.041 330.58 305 329.631 305H304.718C303.769 305 303 304.041 303 302.859V254.141Z" fill="white" stroke="#304436"/>
<path d="M317.33 280.83C317.089 280.529 316.931 280.349 316.931 280.349C316.931 280.349 316.773 280.529 316.532 280.83C315.75 281.804 314.093 284.042 314.093 285.509C314.093 286.273 314.392 287.005 314.924 287.546C315.456 288.086 316.178 288.389 316.931 288.389C317.683 288.389 318.405 288.086 318.937 287.546C319.47 287.005 319.769 286.273 319.769 285.509C319.769 284.042 318.112 281.804 317.33 280.83Z" fill="#304436"/>
<path d="M309.163 260.507C309.163 259.893 309.655 259.395 310.262 259.395H324.087C324.694 259.395 325.186 259.893 325.186 260.507V263.83C325.186 264.444 324.694 264.942 324.087 264.942H310.262C309.655 264.942 309.163 264.444 309.163 263.83V260.507Z" fill="#93D3F6" stroke="#304436"/>
<path d="M310.395 264.326L316.353 260.012H318.202L312.244 264.326H310.395Z" fill="white" fill-opacity="0.3"/>
<path d="M313.271 264.326L319.229 260.012H320.256L314.298 264.326H313.271Z" fill="white" fill-opacity="0.3"/>
<ellipse cx="315.156" cy="269.087" rx="1.0631" ry="1.06408" fill="#304436"/>
<ellipse cx="319.409" cy="269.087" rx="1.0631" ry="1.06408" fill="#304436"/>
<g filter="url(#filter2_d_2277_6850)">
<rect x="196" y="249" width="103" height="23" fill="white" shape-rendering="crispEdges"/>
<rect x="196.5" y="249.5" width="102" height="22" stroke="#304436" shape-rendering="crispEdges"/>
<path d="M205.112 263.332V257.2H207.1V263.164C207.1 265.74 205.588 267.28 203.124 267.28C200.674 267.28 199.162 265.74 199.162 263.164V257.2H201.15V263.332C201.15 264.648 201.892 265.418 203.138 265.418C204.356 265.418 205.112 264.648 205.112 263.332ZM209.236 267V259.944H211.014V260.504C211.504 260.028 212.162 259.664 213.1 259.664C214.626 259.664 215.844 260.714 215.844 262.8V267H214.052V262.87C214.052 261.932 213.52 261.344 212.652 261.344C211.756 261.344 211.28 261.946 211.014 262.394V267H209.236ZM218.759 258.712C218.129 258.712 217.597 258.18 217.597 257.55C217.597 256.92 218.129 256.388 218.759 256.388C219.389 256.388 219.907 256.92 219.907 257.55C219.907 258.18 219.389 258.712 218.759 258.712ZM217.863 267V259.944H219.641V267H217.863ZM222.221 264.424V261.54H220.905V259.944H222.221V258.18H224.013V259.944H226.169V261.54H224.013V264.424C224.013 265.208 224.433 265.516 225.133 265.516C225.623 265.516 225.945 265.46 226.183 265.362V266.916C225.833 267.07 225.413 267.14 224.825 267.14C223.061 267.14 222.221 266.146 222.221 264.424ZM231.727 258.824H230.019L231.475 256.5H233.407L231.727 258.824ZM234.121 265.852C233.463 266.734 232.371 267.28 231.041 267.28C228.535 267.28 227.121 265.53 227.121 263.472C227.121 261.386 228.437 259.664 230.747 259.664C232.707 259.664 233.995 260.994 233.995 262.842C233.995 263.234 233.939 263.598 233.883 263.836H228.941C229.109 265.152 229.921 265.684 231.027 265.684C231.797 265.684 232.469 265.348 232.847 264.844L234.121 265.852ZM230.705 261.12C229.795 261.12 229.193 261.624 228.997 262.548H232.245C232.217 261.834 231.699 261.12 230.705 261.12ZM240.401 258.712C239.771 258.712 239.239 258.18 239.239 257.55C239.239 256.92 239.771 256.388 240.401 256.388C241.031 256.388 241.549 256.92 241.549 257.55C241.549 258.18 241.031 258.712 240.401 258.712ZM239.505 267V259.944H241.283V267H239.505ZM243.416 267V259.944H245.194V260.504C245.684 260.028 246.342 259.664 247.28 259.664C248.806 259.664 250.024 260.714 250.024 262.8V267H248.232V262.87C248.232 261.932 247.7 261.344 246.832 261.344C245.936 261.344 245.46 261.946 245.194 262.394V267H243.416ZM252.491 264.424V261.54H251.175V259.944H252.491V258.18H254.283V259.944H256.439V261.54H254.283V264.424C254.283 265.208 254.703 265.516 255.403 265.516C255.893 265.516 256.215 265.46 256.453 265.362V266.916C256.103 267.07 255.683 267.14 255.095 267.14C253.331 267.14 252.491 266.146 252.491 264.424ZM261.996 258.824H260.288L261.744 256.5H263.676L261.996 258.824ZM264.39 265.852C263.732 266.734 262.64 267.28 261.31 267.28C258.804 267.28 257.39 265.53 257.39 263.472C257.39 261.386 258.706 259.664 261.016 259.664C262.976 259.664 264.264 260.994 264.264 262.842C264.264 263.234 264.208 263.598 264.152 263.836H259.21C259.378 265.152 260.19 265.684 261.296 265.684C262.066 265.684 262.738 265.348 263.116 264.844L264.39 265.852ZM260.974 261.12C260.064 261.12 259.462 261.624 259.266 262.548H262.514C262.486 261.834 261.968 261.12 260.974 261.12ZM266.002 267V259.944H267.78V260.644C268.242 260.168 268.844 259.804 269.642 259.804C269.88 259.804 270.09 259.846 270.258 259.902V261.652C270.034 261.596 269.796 261.554 269.474 261.554C268.606 261.554 268.046 262.03 267.78 262.478V267H266.002ZM272.585 258.712C271.955 258.712 271.423 258.18 271.423 257.55C271.423 256.92 271.955 256.388 272.585 256.388C273.215 256.388 273.733 256.92 273.733 257.55C273.733 258.18 273.215 258.712 272.585 258.712ZM271.689 267V259.944H273.467V267H271.689ZM282.095 265.852C281.437 266.734 280.345 267.28 279.015 267.28C276.509 267.28 275.095 265.53 275.095 263.472C275.095 261.386 276.411 259.664 278.721 259.664C280.681 259.664 281.969 260.994 281.969 262.842C281.969 263.234 281.913 263.598 281.857 263.836H276.915C277.083 265.152 277.895 265.684 279.001 265.684C279.771 265.684 280.443 265.348 280.821 264.844L282.095 265.852ZM278.679 261.12C277.769 261.12 277.167 261.624 276.971 262.548H280.219C280.191 261.834 279.673 261.12 278.679 261.12ZM288.273 263.948V259.944H290.065V263.864C290.065 265.978 288.833 267.28 286.761 267.28C284.689 267.28 283.471 265.978 283.471 263.864V259.944H285.263V263.948C285.263 264.97 285.795 265.6 286.775 265.6C287.741 265.6 288.273 264.97 288.273 263.948ZM292.033 267V259.944H293.811V260.644C294.273 260.168 294.875 259.804 295.673 259.804C295.911 259.804 296.121 259.846 296.289 259.902V261.652C296.065 261.596 295.827 261.554 295.505 261.554C294.637 261.554 294.077 262.03 293.811 262.478V267H292.033Z" fill="#304436"/>
</g>
<defs>
<filter id="filter0_d_2277_6850" x="147" y="73" width="167" height="20.444" filterUnits="userSpaceOnUse" color-interpolation-filters="sRGB">
<feFlood flood-opacity="0" result="BackgroundImageFix"/>
<feColorMatrix in="SourceAlpha" type="matrix" values="0 0 0 0 0 0 0 0 0 0 0 0 0 0 0 0 0 0 127 0" result="hardAlpha"/>
<feOffset dx="1" dy="1"/>
<feComposite in2="hardAlpha" operator="out"/>
<feColorMatrix type="matrix" values="0 0 0 0 0.188235 0 0 0 0 0.266667 0 0 0 0 0.211765 0 0 0 1 0"/>
<feBlend mode="normal" in2="BackgroundImageFix" result="effect1_dropShadow_2277_6850"/>
<feBlend mode="normal" in="SourceGraphic" in2="effect1_dropShadow_2277_6850" result="shape"/>
</filter>
<filter id="filter1_d_2277_6850" x="315" y="311" width="122" height="21" filterUnits="userSpaceOnUse" color-interpolation-filters="sRGB">
<feFlood flood-opacity="0" result="BackgroundImageFix"/>
<feColorMatrix in="SourceAlpha" type="matrix" values="0 0 0 0 0 0 0 0 0 0 0 0 0 0 0 0 0 0 127 0" result="hardAlpha"/>
<feOffset dx="1" dy="1"/>
<feComposite in2="hardAlpha" operator="out"/>
<feColorMatrix type="matrix" values="0 0 0 0 0.188235 0 0 0 0 0.266667 0 0 0 0 0.211765 0 0 0 1 0"/>
<feBlend mode="normal" in2="BackgroundImageFix" result="effect1_dropShadow_2277_6850"/>
<feBlend mode="normal" in="SourceGraphic" in2="effect1_dropShadow_2277_6850" result="shape"/>
</filter>
<filter id="filter2_d_2277_6850" x="196" y="249" width="104" height="24" filterUnits="userSpaceOnUse" color-interpolation-filters="sRGB">
<feFlood flood-opacity="0" result="BackgroundImageFix"/>
<feColorMatrix in="SourceAlpha" type="matrix" values="0 0 0 0 0 0 0 0 0 0 0 0 0 0 0 0 0 0 127 0" result="hardAlpha"/>
<feOffset dx="1" dy="1"/>
<feComposite in2="hardAlpha" operator="out"/>
<feColorMatrix type="matrix" values="0 0 0 0 0.188235 0 0 0 0 0.266667 0 0 0 0 0.211765 0 0 0 1 0"/>
<feBlend mode="normal" in2="BackgroundImageFix" result="effect1_dropShadow_2277_6850"/>
<feBlend mode="normal" in="SourceGraphic" in2="effect1_dropShadow_2277_6850" result="shape"/>
</filter>
<clipPath id="clip0_2277_6850">
<rect x="241.488" y="21.813" width="28.4629" height="46.6189" rx="2" fill="white"/>
</clipPath>
<clipPath id="clip1_2277_6850">
<rect x="284.667" y="70.2857" width="52.5714" height="40" rx="1" transform="rotate(-90 284.667 70.2857)" fill="white"/>
</clipPath>
<clipPath id="clip2_2277_6850">
<rect x="321.667" y="70.2857" width="52.5714" height="40" rx="1" transform="rotate(-90 321.667 70.2857)" fill="white"/>
</clipPath>
<clipPath id="clip3_2277_6850">
<rect x="359.333" y="70.2857" width="52.5714" height="32" rx="1" transform="rotate(-90 359.333 70.2857)" fill="white"/>
</clipPath>
<pattern id="pattern0_2277_6850" patternUnits="userSpaceOnUse" patternTransform="matrix(17 0 0 14 199.141 75.5)" preserveAspectRatio="none" viewBox="-0.5 -0.5 17 14" width="1" height="1">
<use xlink:href="#pattern0_2277_6850_inner" transform="translate(-25.5 -7)"/>
<use xlink:href="#pattern0_2277_6850_inner" transform="translate(-8.5 -7)"/>
<use xlink:href="#pattern0_2277_6850_inner" transform="translate(8.5 -7)"/>
<use xlink:href="#pattern0_2277_6850_inner" transform="translate(-34 0)"/>
<use xlink:href="#pattern0_2277_6850_inner" transform="translate(-17 0)"/>
<g id="pattern0_2277_6850_inner">
<rect width="17" height="7" fill="#F3E1D1" stroke="white"/>
</g>
<use xlink:href="#pattern0_2277_6850_inner" transform="translate(-25.5 7)"/>
<use xlink:href="#pattern0_2277_6850_inner" transform="translate(-8.5 7)"/>
<use xlink:href="#pattern0_2277_6850_inner" transform="translate(8.5 7)"/>
</pattern></defs>
</svg>
