<svg width="501" height="362" viewBox="0 0 501 362" fill="none" xmlns="http://www.w3.org/2000/svg" xmlns:xlink="http://www.w3.org/1999/xlink">
<path d="M0 0H500V362H0V0Z" fill="white"/>
<path d="M500 0H499V362H500H501V0H500Z" fill="#E9E9E9"/>
<path d="M434 288H56C46.6112 288 39 295.611 39 305V321C39 321 44.6904 323.442 48.5 324.5C64.5465 328.955 74.3628 321.735 91 321C110.312 320.147 121.184 320.228 140.5 321C158.307 321.712 168.259 326.189 186 324.5C199.768 323.19 206.946 332.753 220.5 330C242.774 325.476 255.277 321.487 278 321C296.222 320.61 306.308 326.116 324.5 325C335.139 324.347 340.892 322.043 351.5 321L351.814 320.969C372.803 318.905 385.081 317.697 406 321C424.123 323.862 451 334.5 451 334.5V305C451 295.611 443.389 288 434 288Z" fill="#9A8D81" stroke="#304436" stroke-width="2"/>
<path d="M39 354H451V334.5C451 334.5 424.123 323.861 406 321C385.081 317.697 372.803 318.905 351.814 320.969L351.5 321C340.892 322.043 335.139 324.347 324.5 325C306.308 326.116 296.222 320.61 278 321C255.277 321.487 242.774 325.476 220.5 330C206.946 332.753 199.768 323.189 186 324.5C168.259 326.189 158.307 321.712 140.5 321C121.184 320.228 110.312 320.147 91 321C74.3628 321.735 64.5465 328.955 48.5 324.5C44.6904 323.442 39 321 39 321V354Z" fill="#624D45" stroke="#304436" stroke-width="2"/>
<path d="M53.5 332H61.5" stroke="#304436" stroke-width="2" stroke-linecap="round"/>
<path d="M208 301H216" stroke="#304436" stroke-width="2" stroke-linecap="round"/>
<path d="M53 319H61" stroke="#304436" stroke-width="2" stroke-linecap="round"/>
<path d="M392 295H400" stroke="#304436" stroke-width="2" stroke-linecap="round"/>
<path d="M281 333H289" stroke="#304436" stroke-width="2" stroke-linecap="round"/>
<path d="M217 347H225" stroke="#304436" stroke-width="2" stroke-linecap="round"/>
<path d="M198 345H190" stroke="#304436" stroke-width="2" stroke-linecap="round"/>
<path d="M352.5 314H344.5" stroke="#304436" stroke-width="2" stroke-linecap="round"/>
<path d="M361 300H353" stroke="#304436" stroke-width="2" stroke-linecap="round"/>
<path d="M425.5 346H417.5" stroke="#304436" stroke-width="2" stroke-linecap="round"/>
<path d="M174 329H166" stroke="#304436" stroke-width="2" stroke-linecap="round"/>
<path d="M328.5 298H320.5" stroke="#304436" stroke-width="2" stroke-linecap="round"/>
<path d="M401.5 330H393.5" stroke="#304436" stroke-width="2" stroke-linecap="round"/>
<path d="M69.5 343H77.5" stroke="#304436" stroke-width="2" stroke-linecap="round"/>
<path d="M224 312H232" stroke="#304436" stroke-width="2" stroke-linecap="round"/>
<path d="M48 306H56" stroke="#304436" stroke-width="2" stroke-linecap="round"/>
<path d="M408 306H416" stroke="#304436" stroke-width="2" stroke-linecap="round"/>
<path d="M297 344H305" stroke="#304436" stroke-width="2" stroke-linecap="round"/>
<path d="M233 336H241" stroke="#304436" stroke-width="2" stroke-linecap="round"/>
<path d="M117.5 330H125.5" stroke="#304436" stroke-width="2" stroke-linecap="round"/>
<path d="M272 299H280" stroke="#304436" stroke-width="2" stroke-linecap="round"/>
<path d="M199 316H207" stroke="#304436" stroke-width="2" stroke-linecap="round"/>
<path d="M345 331H353" stroke="#304436" stroke-width="2" stroke-linecap="round"/>
<path d="M134 343H126" stroke="#304436" stroke-width="2" stroke-linecap="round"/>
<path d="M288.5 312H280.5" stroke="#304436" stroke-width="2" stroke-linecap="round"/>
<path d="M361.5 344H353.5" stroke="#304436" stroke-width="2" stroke-linecap="round"/>
<path d="M100.5 337H103.5" stroke="#304436" stroke-width="2" stroke-linecap="round"/>
<path d="M255 306H258" stroke="#304436" stroke-width="2" stroke-linecap="round"/>
<path d="M180 319H183" stroke="#304436" stroke-width="2" stroke-linecap="round"/>
<path d="M439 300H442" stroke="#304436" stroke-width="2" stroke-linecap="round"/>
<path d="M374 312H377" stroke="#304436" stroke-width="2" stroke-linecap="round"/>
<path d="M328 338H331" stroke="#304436" stroke-width="2" stroke-linecap="round"/>
<path d="M264 342H267" stroke="#304436" stroke-width="2" stroke-linecap="round"/>
<path d="M151 350H148" stroke="#304436" stroke-width="2" stroke-linecap="round"/>
<path d="M305.5 319H302.5" stroke="#304436" stroke-width="2" stroke-linecap="round"/>
<path d="M378.5 351H375.5" stroke="#304436" stroke-width="2" stroke-linecap="round"/>
<path d="M71 332L75 332" stroke="#304436" stroke-width="2" stroke-linecap="round"/>
<path d="M225.5 301L229.5 301" stroke="#304436" stroke-width="2" stroke-linecap="round"/>
<path d="M160 319L164 319" stroke="#304436" stroke-width="2" stroke-linecap="round"/>
<path d="M119 317L123 317" stroke="#304436" stroke-width="2" stroke-linecap="round"/>
<path d="M409.5 295L413.5 295" stroke="#304436" stroke-width="2" stroke-linecap="round"/>
<path d="M298.5 333L302.5 333" stroke="#304436" stroke-width="2" stroke-linecap="round"/>
<path d="M234.5 347L238.5 347" stroke="#304436" stroke-width="2" stroke-linecap="round"/>
<path d="M180.5 345L176.5 345" stroke="#304436" stroke-width="2" stroke-linecap="round"/>
<path d="M335 314L331 314" stroke="#304436" stroke-width="2" stroke-linecap="round"/>
<path d="M408 346L404 346" stroke="#304436" stroke-width="2" stroke-linecap="round"/>
<path d="M161.5 329L157.5 329" stroke="#304436" stroke-width="2" stroke-linecap="round"/>
<path d="M316 298L312 298" stroke="#304436" stroke-width="2" stroke-linecap="round"/>
<path d="M389 330L385 330" stroke="#304436" stroke-width="2" stroke-linecap="round"/>
<path d="M87 343L91 343" stroke="#304436" stroke-width="2" stroke-linecap="round"/>
<path d="M241.5 312L245.5 312" stroke="#304436" stroke-width="2" stroke-linecap="round"/>
<path d="M74 320L78 320" stroke="#304436" stroke-width="2" stroke-linecap="round"/>
<path d="M425.5 306L429.5 306" stroke="#304436" stroke-width="2" stroke-linecap="round"/>
<path d="M314.5 344L318.5 344" stroke="#304436" stroke-width="2" stroke-linecap="round"/>
<path d="M250.5 336L254.5 336" stroke="#304436" stroke-width="2" stroke-linecap="round"/>
<path d="M203 75H416V306H203V75Z" fill="#F3E1D1" stroke="#304436" stroke-width="2"/>
<rect x="290" y="155" width="88" height="4" transform="rotate(90 290 155)" fill="#CBB9A9"/>
<rect x="290" y="155" width="88" height="4" transform="rotate(90 290 155)" fill="#CBB9A9"/>
<rect x="355" y="155" width="88" height="4" transform="rotate(90 355 155)" fill="#CBB9A9"/>
<rect x="229" y="155" width="186" height="4" fill="#CBB9A9"/>
<rect x="229" y="239" width="186" height="4" fill="#CBB9A9"/>
<rect x="229" y="70" width="188" height="6" fill="#727B74"/>
<path d="M235 19H401C409.837 19 417 26.1634 417 35V71H235V19Z" fill="#CCC4C4"/>
<path d="M372 90V63H384M373.5 173.5H189V222" stroke="#535F57" stroke-width="2"/>
<path d="M233 169H274V174C274 176.761 271.761 179 269 179H238C235.239 179 233 176.761 233 174V169Z" fill="white"/>
<path d="M245 172H262.5M245 174H262.5M233 169H274V174C274 176.761 271.761 179 269 179H238C235.239 179 233 176.761 233 174V169Z" stroke="#304436"/>
<path d="M300 169H341V174C341 176.761 338.761 179 336 179H305C302.239 179 300 176.761 300 174V169Z" fill="white"/>
<path d="M312 172H329.5M312 174H329.5M300 169H341V174C341 176.761 338.761 179 336 179H305C302.239 179 300 176.761 300 174V169Z" stroke="#304436"/>
<path d="M367 169H408V174C408 176.761 405.761 179 403 179H372C369.239 179 367 176.761 367 174V169Z" fill="white"/>
<path d="M379 172H396.5M379 174H396.5M367 169H408V174C408 176.761 405.761 179 403 179H372C369.239 179 367 176.761 367 174V169Z" stroke="#304436"/>
<path d="M353 88H394V93C394 95.7614 391.761 98 389 98H358C355.239 98 353 95.7614 353 93V88Z" fill="white"/>
<path d="M365 91H382.5M365 93H382.5M353 88H394V93C394 95.7614 391.761 98 389 98H358C355.239 98 353 95.7614 353 93V88Z" stroke="#304436"/>
<path d="M203 86.7959V306H266.827C266.827 306 248.362 289.399 243.403 274.538C233.842 245.887 269.778 241.04 266.827 216.495C264.836 199.937 251.765 194.999 248.446 178.694C245.758 165.489 250.278 157.109 248.407 144.061C246.495 130.727 241.075 119.959 235.935 109.748C233.315 104.545 228.396 91.976 226.424 86.7959C225.574 83.3255 225.065 79.751 225.034 76H203V86.7959Z" fill="url(#pattern0_2254_9948)" stroke="#304436" stroke-width="2"/>
<path d="M202.965 157.906H197.359V151H202.965H207.709H217.628H227.413H238.194H248.185V157.906H238.194H227.413H217.628H207.709H202.965Z" fill="#E2D2C3"/>
<path d="M248.185 157.906H207.709M248.185 157.906H217.628M248.185 157.906V151M248.185 151H207.709M248.185 151H217.628M207.709 151H202.965H197.359V157.906H202.965H207.709M207.709 151V157.906M207.709 151H217.628M207.709 157.906H217.628M217.628 151V157.906M227.413 151V157.906M238.194 151V157.906" stroke="#304436" stroke-width="2"/>
<path d="M198.95 76.2018H202.833H262.776V70.1586H198.95V76.2018Z" fill="#E2D2C3" stroke="#304436" stroke-width="2"/>
<path d="M230.134 17.4965L202.965 70.1585H263.02C262.564 45.0186 251.697 17.4965 251.697 17.4965H230.134Z" fill="#858181" stroke="#304436" stroke-width="2"/>
<path d="M243.935 19.9507L250.404 16.8305L263.341 10.59L282.748 19.9507V70.1585H250.404H243.935V19.9507Z" fill="#F3E1D1" stroke="#274430" stroke-width="2"/>
<g clip-path="url(#clip0_2254_9948)">
<rect x="249.11" y="21.813" width="28.4629" height="46.6189" rx="2" fill="#93D3F6"/>
<path d="M249.11 42.2087L266.625 21.813H277.573L249.11 56.7771V42.2087Z" fill="white" fill-opacity="0.3"/>
<path d="M250.204 68.4318L277.573 35.4102V41.2375L254.583 68.4318H250.204Z" fill="white" fill-opacity="0.3"/>
<rect x="249.11" y="21.813" width="28.4629" height="7.76981" fill="#565656" fill-opacity="0.3"/>
</g>
<rect x="249.11" y="21.813" width="28.4629" height="46.6189" rx="2" stroke="#274430" stroke-width="2"/>
<path fill-rule="evenodd" clip-rule="evenodd" d="M262.91 70.1585L262.91 21.813L264.635 21.813L264.635 70.1585L262.91 70.1585Z" fill="#304436"/>
<path fill-rule="evenodd" clip-rule="evenodd" d="M277.573 45.9857L249.11 45.9857L249.11 44.2591L277.573 44.2591L277.573 45.9857Z" fill="#304436"/>
<rect x="241.347" y="66.7052" width="43.9881" height="3.45325" rx="1.72662" fill="#F3E1D1" stroke="#274430" stroke-width="2"/>
<ellipse cx="151" cy="206" rx="3" ry="2" fill="#304436"/>
<path d="M151 234C151 220.51 151 220.49 151 207" stroke="#304436" stroke-width="3"/>
<path d="M155 234C155 221.509 155 221.491 155 209" stroke="#304436" stroke-width="2"/>
<path d="M159 234C159 221.509 159 221.491 159 209" stroke="#304436" stroke-width="2"/>
<path d="M163 234C163 221.509 163 221.491 163 209" stroke="#304436" stroke-width="2"/>
<path d="M167 234C167 221.509 167 221.491 167 209" stroke="#304436" stroke-width="2"/>
<path d="M171 234C171 221.509 171 221.491 171 209" stroke="#304436" stroke-width="2"/>
<path d="M175 234C175 221.509 175 221.491 175 209" stroke="#304436" stroke-width="2"/>
<path d="M179 234C179 221.509 179 221.491 179 209" stroke="#304436" stroke-width="2"/>
<path d="M183 234C183 221.509 183 221.491 183 209" stroke="#304436" stroke-width="2"/>
<path d="M187 234C187 221.509 187 221.491 187 209" stroke="#304436" stroke-width="2"/>
<path d="M191 234C191 221.509 191 221.491 191 209" stroke="#304436" stroke-width="2"/>
<path d="M195 234C195 221.509 195 221.491 195 209" stroke="#304436" stroke-width="2"/>
<path d="M199 234C199 221.509 199 221.491 199 209" stroke="#304436" stroke-width="2"/>
<path d="M202 234C202 221.509 202 221.491 202 209" stroke="#304436" stroke-width="2"/>
<path d="M152 210C177.981 210 178.019 210 204 210" stroke="#304436" stroke-width="2"/>
<path d="M163.841 211.656C163.841 210.139 165.119 208.91 166.694 208.91H197.367C198.943 208.91 200.22 210.139 200.22 211.656V227.448C200.22 228.965 198.943 230.195 197.367 230.195H166.694C165.119 230.195 163.841 228.965 163.841 227.448V211.656Z" fill="white" stroke="#304436"/>
<path d="M171.594 213.048C170.645 213.685 170.303 215.471 170.927 216.573C171.206 216.96 171.492 217.187 171.492 217.187C171.253 217.03 171.066 216.818 170.927 216.573C170.608 216.131 170.299 215.48 170.434 214.72C170.688 213.292 171.594 213.048 171.594 213.048Z" fill="white" fill-opacity="0.3"/>
<path d="M187.62 214.367H195.38" stroke="#304436" stroke-width="2" stroke-linecap="round"/>
<path d="M187.62 217.286H195.38" stroke="#304436" stroke-width="2" stroke-linecap="round"/>
<path d="M187.62 220.071H195.38" stroke="#304436" stroke-width="2" stroke-linecap="round"/>
<path d="M170.493 230.286H176.915V231.878C176.915 232.757 176.34 233.469 175.631 233.469H171.777C171.068 233.469 170.493 232.757 170.493 231.878V230.286Z" fill="white" stroke="#304436"/>
<path d="M188.155 230.286H194.042V231.878C194.042 232.757 193.456 233.469 192.734 233.469H189.463C188.741 233.469 188.155 232.757 188.155 231.878V230.286Z" fill="white" stroke="#304436"/>
<path d="M172.901 218.543L171.613 217.266C170.743 216.403 170.843 214.949 171.945 214.411C172.268 214.253 172.597 214.117 172.901 214.033C174.211 213.673 176.38 213.919 176.38 213.919" stroke="#304436" stroke-width="2" stroke-linecap="round" stroke-linejoin="round"/>
<path d="M176.514 219.548L178.303 219.073C179.482 218.759 180.681 219.56 180.604 220.77C180.58 221.135 180.535 221.493 180.454 221.803C180.114 223.108 178.814 224.847 178.814 224.847" stroke="#304436" stroke-width="2" stroke-linecap="round" stroke-linejoin="round"/>
<path d="M173.668 222.13L173.188 223.903C172.872 225.072 171.573 225.701 170.555 225.03C170.248 224.828 169.958 224.609 169.728 224.385C168.758 223.44 167.889 221.455 167.889 221.455" stroke="#304436" stroke-width="2" stroke-linecap="round" stroke-linejoin="round"/>
<path d="M380.708 52.0936C380.708 50.8101 381.784 49.7697 383.111 49.7697H408.941C410.268 49.7697 411.343 50.8101 411.343 52.0936V65.4562C411.343 66.7397 410.268 67.7802 408.941 67.7802H383.111C381.784 67.7802 380.708 66.7397 380.708 65.4562V52.0936Z" fill="white" stroke="#304436"/>
<path d="M387.237 53.2717C386.438 53.8107 386.15 55.3219 386.675 56.2538C386.91 56.5817 387.151 56.7738 387.151 56.7738C386.95 56.6408 386.792 56.4617 386.675 56.2538C386.407 55.8799 386.146 55.3294 386.26 54.6859C386.474 53.478 387.237 53.2717 387.237 53.2717Z" fill="white" fill-opacity="0.3"/>
<path d="M400.732 54.3877H407.268" stroke="#304436" stroke-width="2" stroke-linecap="round"/>
<path d="M400.732 56.8572H407.268" stroke="#304436" stroke-width="2" stroke-linecap="round"/>
<path d="M400.732 59.2142H407.268" stroke="#304436" stroke-width="2" stroke-linecap="round"/>
<path d="M386.31 67.8572H391.718V69.2041C391.718 69.948 391.234 70.5511 390.637 70.5511H387.392C386.794 70.5511 386.31 69.948 386.31 69.2041V67.8572Z" fill="white" stroke="#304436"/>
<path d="M401.183 67.8572H406.141V69.2041C406.141 69.948 405.648 70.5511 405.039 70.5511H402.285C401.676 70.5511 401.183 69.948 401.183 69.2041V67.8572Z" fill="white" stroke="#304436"/>
<path d="M388.338 57.9211L387.503 57.0891C386.637 56.2267 386.729 54.7527 387.855 54.2767C388.02 54.207 388.183 54.1478 388.338 54.1048C389.441 53.7999 391.268 54.0081 391.268 54.0081" stroke="#304436" stroke-width="2" stroke-linecap="round" stroke-linejoin="round"/>
<path d="M391.38 58.7712L392.534 58.4633C393.712 58.1488 394.938 58.9594 394.791 60.1665C394.769 60.3473 394.739 60.521 394.698 60.6794C394.412 61.7834 393.317 63.2551 393.317 63.2551" stroke="#304436" stroke-width="2" stroke-linecap="round" stroke-linejoin="round"/>
<path d="M388.983 60.9559L388.674 62.1052C388.358 63.2788 387.041 63.931 386.065 63.2011C385.919 63.0918 385.783 62.9788 385.666 62.8641C384.849 62.065 384.117 60.3851 384.117 60.3851" stroke="#304436" stroke-width="2" stroke-linecap="round" stroke-linejoin="round"/>
<path d="M204.965 240.907H199.359H189.44H184.696H179.09L169.171 240.906H164.427H158.85H158.821H154.106H148.5V234H154.106H158.821H158.85H164.427H169.171L179.09 234H184.696H189.44H199.359H204.965H209.709H219.628H229.413H240.194H251H261.5L255.5 240.907H251H240.194H229.413H219.628H209.709H204.965Z" fill="#E2D2C3"/>
<path d="M199.359 240.907H204.965H209.709M199.359 240.907V234M199.359 240.907H189.44M199.359 234H204.965H209.709M199.359 234H189.44M255.5 240.907H209.709M255.5 240.907H219.628M255.5 240.907L261.5 234M261.5 234H209.709M261.5 234H219.628M209.709 234V240.907M209.709 234H219.628M209.709 240.907H219.628M219.628 234V240.907M229.413 234V240.907M240.194 234V240.907M251 234V240.907M179.09 240.907H184.696H189.44M179.09 240.907V234M179.09 240.907L169.171 240.906M179.09 234H184.696H189.44M179.09 234L169.171 234M189.44 234V240.907M169.171 234H164.427H158.821V240.906H164.427H169.171M169.171 234V240.906M154.106 240.906H148.5V234H154.106H158.85V240.906H154.106Z" stroke="#304436" stroke-width="2"/>
<path d="M208.912 301V292H210.436V301H208.912ZM215.144 294.712C217.112 294.712 218.456 296.164 218.456 297.976C218.456 299.788 217.112 301.24 215.144 301.24C213.176 301.24 211.832 299.788 211.832 297.976C211.832 296.164 213.176 294.712 215.144 294.712ZM215.168 299.8C216.14 299.8 216.872 299.02 216.872 297.976C216.872 296.92 216.14 296.152 215.168 296.152C214.16 296.152 213.416 296.92 213.416 297.976C213.416 299.032 214.16 299.8 215.168 299.8ZM222.808 299.8C223.408 299.8 223.888 299.524 224.176 299.104L225.364 300.016C224.8 300.76 223.912 301.24 222.808 301.24C220.72 301.24 219.472 299.74 219.472 297.976C219.472 296.212 220.72 294.712 222.808 294.712C223.912 294.712 224.8 295.192 225.364 295.936L224.176 296.848C223.888 296.428 223.408 296.152 222.784 296.152C221.788 296.152 221.056 296.92 221.056 297.976C221.056 299.044 221.788 299.8 222.808 299.8ZM228.1 301.18C226.888 301.18 226.06 300.484 226.06 299.368C226.06 298.456 226.768 297.772 228.064 297.556L229.912 297.244V297.088C229.912 296.452 229.432 296.044 228.736 296.044C228.148 296.044 227.692 296.32 227.368 296.764L226.252 295.912C226.792 295.168 227.68 294.712 228.784 294.712C230.536 294.712 231.436 295.756 231.436 297.088V301H229.912V300.412C229.528 300.88 228.808 301.18 228.1 301.18ZM227.572 299.296C227.572 299.704 227.896 299.968 228.412 299.968C229.108 299.968 229.612 299.644 229.912 299.164V298.312L228.472 298.552C227.836 298.66 227.572 298.924 227.572 299.296ZM233.182 301V292H234.706V301H233.182Z" fill="#535F57"/>
<path d="M373.335 100L373.774 100.933C374.125 101.678 374.476 102.274 375.049 102.764C375.579 103.218 376.302 103.574 377.306 103.873L377.958 101.442L381.65 107L375.673 109.968L376.328 107.523C374.682 107.006 373.593 106.103 373.091 104.835C372.675 103.783 372.67 102.482 373.077 100.965L373.335 100Z" fill="#D05D4B"/>
<path d="M254.335 180L254.774 180.933C255.125 181.678 255.476 182.274 256.049 182.764C256.579 183.218 257.302 183.574 258.306 183.873L258.958 181.442L262.65 187L256.673 189.968L257.328 187.523C255.682 187.006 254.593 186.103 254.091 184.835C253.675 183.783 253.67 182.482 254.077 180.965L254.335 180Z" fill="#D05D4B"/>
<path d="M321.335 180L321.774 180.933C322.125 181.678 322.476 182.274 323.049 182.764C323.579 183.218 324.302 183.574 325.306 183.873L325.958 181.442L329.65 187L323.673 189.968L324.328 187.523C322.682 187.006 321.593 186.103 321.091 184.835C320.675 183.783 320.67 182.482 321.077 180.965L321.335 180Z" fill="#D05D4B"/>
<path d="M390.335 180L390.774 180.933C391.125 181.678 391.476 182.274 392.049 182.764C392.579 183.218 393.302 183.574 394.306 183.873L394.958 181.442L398.65 187L392.673 189.968L393.328 187.523C391.682 187.006 390.593 186.103 390.091 184.835C389.675 183.783 389.67 182.482 390.077 180.965L390.335 180Z" fill="#D05D4B"/>
<g filter="url(#filter0_d_2254_9948)">
<rect x="361" y="22" width="98" height="20" fill="white" shape-rendering="crispEdges"/>
<rect x="361.5" y="22.5" width="97" height="19" stroke="#304436" shape-rendering="crispEdges"/>
<path d="M369.096 34.356V29.1H370.8V34.212C370.8 36.42 369.504 37.74 367.392 37.74C365.292 37.74 363.996 36.42 363.996 34.212V29.1H365.7V34.356C365.7 35.484 366.336 36.144 367.404 36.144C368.448 36.144 369.096 35.484 369.096 34.356ZM372.631 37.5V31.452H374.155V31.932C374.575 31.524 375.139 31.212 375.943 31.212C377.251 31.212 378.295 32.112 378.295 33.9V37.5H376.759V33.96C376.759 33.156 376.303 32.652 375.559 32.652C374.791 32.652 374.383 33.168 374.155 33.552V37.5H372.631ZM380.793 30.396C380.253 30.396 379.797 29.94 379.797 29.4C379.797 28.86 380.253 28.404 380.793 28.404C381.333 28.404 381.777 28.86 381.777 29.4C381.777 29.94 381.333 30.396 380.793 30.396ZM380.025 37.5V31.452H381.549V37.5H380.025ZM383.761 35.292V32.82H382.633V31.452H383.761V29.94H385.297V31.452H387.145V32.82H385.297V35.292C385.297 35.964 385.657 36.228 386.257 36.228C386.677 36.228 386.953 36.18 387.157 36.096V37.428C386.857 37.56 386.497 37.62 385.993 37.62C384.481 37.62 383.761 36.768 383.761 35.292ZM391.908 30.492H390.444L391.692 28.5H393.348L391.908 30.492ZM393.96 36.516C393.396 37.272 392.46 37.74 391.32 37.74C389.172 37.74 387.96 36.24 387.96 34.476C387.96 32.688 389.088 31.212 391.068 31.212C392.748 31.212 393.852 32.352 393.852 33.936C393.852 34.272 393.804 34.584 393.756 34.788H389.52C389.664 35.916 390.36 36.372 391.308 36.372C391.968 36.372 392.544 36.084 392.868 35.652L393.96 36.516ZM391.032 32.46C390.252 32.46 389.736 32.892 389.568 33.684H392.352C392.328 33.072 391.884 32.46 391.032 32.46ZM404.144 36.516C403.58 37.272 402.644 37.74 401.504 37.74C399.356 37.74 398.144 36.24 398.144 34.476C398.144 32.688 399.272 31.212 401.252 31.212C402.932 31.212 404.036 32.352 404.036 33.936C404.036 34.272 403.988 34.584 403.94 34.788H399.704C399.848 35.916 400.544 36.372 401.492 36.372C402.152 36.372 402.728 36.084 403.052 35.652L404.144 36.516ZM401.216 32.46C400.436 32.46 399.92 32.892 399.752 33.684H402.536C402.512 33.072 402.068 32.46 401.216 32.46ZM406.395 37.5H404.643L406.779 34.392L404.763 31.452H406.503L407.751 33.312L408.999 31.452H410.751L408.723 34.392L410.859 37.5H409.119L407.751 35.472L406.395 37.5ZM412.319 35.292V32.82H411.191V31.452H412.319V29.94H413.855V31.452H415.703V32.82H413.855V35.292C413.855 35.964 414.215 36.228 414.815 36.228C415.235 36.228 415.511 36.18 415.715 36.096V37.428C415.415 37.56 415.055 37.62 414.551 37.62C413.039 37.62 412.319 36.768 412.319 35.292ZM420.467 30.492H419.003L420.251 28.5H421.907L420.467 30.492ZM422.519 36.516C421.955 37.272 421.019 37.74 419.879 37.74C417.731 37.74 416.519 36.24 416.519 34.476C416.519 32.688 417.647 31.212 419.627 31.212C421.307 31.212 422.411 32.352 422.411 33.936C422.411 34.272 422.363 34.584 422.315 34.788H418.079C418.223 35.916 418.919 36.372 419.867 36.372C420.527 36.372 421.103 36.084 421.427 35.652L422.519 36.516ZM419.591 32.46C418.811 32.46 418.295 32.892 418.127 33.684H420.911C420.887 33.072 420.443 32.46 419.591 32.46ZM423.9 37.5V31.452H425.424V32.052C425.82 31.644 426.336 31.332 427.02 31.332C427.224 31.332 427.404 31.368 427.548 31.416V32.916C427.356 32.868 427.152 32.832 426.876 32.832C426.132 32.832 425.652 33.24 425.424 33.624V37.5H423.9ZM429.543 30.396C429.003 30.396 428.547 29.94 428.547 29.4C428.547 28.86 429.003 28.404 429.543 28.404C430.083 28.404 430.527 28.86 430.527 29.4C430.527 29.94 430.083 30.396 429.543 30.396ZM428.775 37.5V31.452H430.299V37.5H428.775ZM437.695 36.516C437.131 37.272 436.195 37.74 435.055 37.74C432.907 37.74 431.695 36.24 431.695 34.476C431.695 32.688 432.823 31.212 434.803 31.212C436.483 31.212 437.587 32.352 437.587 33.936C437.587 34.272 437.539 34.584 437.491 34.788H433.255C433.399 35.916 434.095 36.372 435.043 36.372C435.703 36.372 436.279 36.084 436.603 35.652L437.695 36.516ZM434.767 32.46C433.987 32.46 433.471 32.892 433.303 33.684H436.087C436.063 33.072 435.619 32.46 434.767 32.46ZM442.99 34.884V31.452H444.526V34.812C444.526 36.624 443.47 37.74 441.694 37.74C439.918 37.74 438.874 36.624 438.874 34.812V31.452H440.41V34.884C440.41 35.76 440.866 36.3 441.706 36.3C442.534 36.3 442.99 35.76 442.99 34.884ZM446.213 37.5V31.452H447.737V32.052C448.133 31.644 448.649 31.332 449.333 31.332C449.537 31.332 449.717 31.368 449.861 31.416V32.916C449.669 32.868 449.465 32.832 449.189 32.832C448.445 32.832 447.965 33.24 447.737 33.624V37.5H446.213ZM456.398 36.516C455.834 37.272 454.898 37.74 453.758 37.74C451.61 37.74 450.398 36.24 450.398 34.476C450.398 32.688 451.526 31.212 453.506 31.212C455.186 31.212 456.29 32.352 456.29 33.936C456.29 34.272 456.242 34.584 456.194 34.788H451.958C452.102 35.916 452.798 36.372 453.746 36.372C454.406 36.372 454.982 36.084 455.306 35.652L456.398 36.516ZM453.47 32.46C452.69 32.46 452.174 32.892 452.006 33.684H454.79C454.766 33.072 454.322 32.46 453.47 32.46Z" fill="#304436"/>
</g>
<g filter="url(#filter1_d_2254_9948)">
<rect x="405" y="93" width="63" height="20" fill="white" shape-rendering="crispEdges"/>
<rect x="405.5" y="93.5" width="62" height="19" stroke="#304436" shape-rendering="crispEdges"/>
<path d="M408.236 108.5V100.1H410.36L412.412 103.628L414.464 100.1H416.588V108.5H414.884V102.476L413.012 105.62H411.812L409.94 102.476V108.5H408.236ZM421.526 102.212C423.494 102.212 424.838 103.664 424.838 105.476C424.838 107.288 423.494 108.74 421.526 108.74C419.558 108.74 418.214 107.288 418.214 105.476C418.214 103.664 419.558 102.212 421.526 102.212ZM421.55 107.3C422.522 107.3 423.254 106.52 423.254 105.476C423.254 104.42 422.522 103.652 421.55 103.652C420.542 103.652 419.798 104.42 419.798 105.476C419.798 106.532 420.542 107.3 421.55 107.3ZM426.228 108.5V102.452H427.752V102.932C428.172 102.524 428.736 102.212 429.54 102.212C430.848 102.212 431.892 103.112 431.892 104.9V108.5H430.356V104.96C430.356 104.156 429.9 103.652 429.156 103.652C428.388 103.652 427.98 104.168 427.752 104.552V108.5H426.228ZM436.503 102.212C438.471 102.212 439.815 103.664 439.815 105.476C439.815 107.288 438.471 108.74 436.503 108.74C434.535 108.74 433.191 107.288 433.191 105.476C433.191 103.664 434.535 102.212 436.503 102.212ZM436.527 107.3C437.499 107.3 438.231 106.52 438.231 105.476C438.231 104.42 437.499 103.652 436.527 103.652C435.519 103.652 434.775 104.42 434.775 105.476C434.775 106.532 435.519 107.3 436.527 107.3ZM440.478 107.624L441.486 106.712C441.858 107.18 442.302 107.516 442.878 107.516C443.37 107.516 443.622 107.228 443.622 106.868C443.622 105.812 440.73 106.208 440.73 104.084C440.73 103.016 441.63 102.212 442.89 102.212C443.814 102.212 444.654 102.656 445.086 103.244L444.078 104.132C443.766 103.748 443.37 103.436 442.902 103.436C442.422 103.436 442.194 103.7 442.194 104.012C442.194 105.044 445.086 104.684 445.086 106.772C445.062 108.044 444.042 108.74 442.902 108.74C441.822 108.74 441.054 108.308 440.478 107.624ZM446.49 111.452V102.452H448.014V102.944C448.482 102.476 449.07 102.212 449.898 102.212C451.818 102.212 452.97 103.712 452.97 105.476C452.97 107.24 451.818 108.74 449.898 108.74C449.07 108.74 448.482 108.476 448.014 108.008V111.452H446.49ZM449.682 103.652C448.974 103.652 448.398 103.964 448.014 104.528V106.424C448.422 107 448.986 107.3 449.682 107.3C450.714 107.3 451.386 106.532 451.386 105.476C451.386 104.42 450.714 103.652 449.682 103.652ZM454.365 108.5V99.5H455.889V108.5H454.365ZM458.485 101.396C457.945 101.396 457.489 100.94 457.489 100.4C457.489 99.86 457.945 99.404 458.485 99.404C459.025 99.404 459.469 99.86 459.469 100.4C459.469 100.94 459.025 101.396 458.485 101.396ZM457.717 108.5V102.452H459.241V108.5H457.717ZM461.452 106.292V103.82H460.324V102.452H461.452V100.94H462.988V102.452H464.836V103.82H462.988V106.292C462.988 106.964 463.348 107.228 463.948 107.228C464.368 107.228 464.644 107.18 464.848 107.096V108.428C464.548 108.56 464.188 108.62 463.684 108.62C462.172 108.62 461.452 107.768 461.452 106.292Z" fill="#304436"/>
</g>
<g filter="url(#filter2_d_2254_9948)">
<rect x="377" y="196" width="59" height="20" fill="white" shape-rendering="crispEdges"/>
<rect x="377.5" y="196.5" width="58" height="19" stroke="#304436" shape-rendering="crispEdges"/>
<path d="M380.236 211.5V203.1H382.36L384.412 206.628L386.464 203.1H388.588V211.5H386.884V205.476L385.012 208.62H383.812L381.94 205.476V211.5H380.236ZM394.63 208.884V205.452H396.166V208.812C396.166 210.624 395.11 211.74 393.334 211.74C391.558 211.74 390.514 210.624 390.514 208.812V205.452H392.05V208.884C392.05 209.76 392.506 210.3 393.346 210.3C394.174 210.3 394.63 209.76 394.63 208.884ZM397.853 211.5V202.5H399.377V211.5H397.853ZM401.589 209.292V206.82H400.461V205.452H401.589V203.94H403.125V205.452H404.973V206.82H403.125V209.292C403.125 209.964 403.485 210.228 404.085 210.228C404.505 210.228 404.781 210.18 404.985 210.096V211.428C404.685 211.56 404.325 211.62 403.821 211.62C402.309 211.62 401.589 210.768 401.589 209.292ZM407.106 204.396C406.566 204.396 406.11 203.94 406.11 203.4C406.11 202.86 406.566 202.404 407.106 202.404C407.646 202.404 408.09 202.86 408.09 203.4C408.09 203.94 407.646 204.396 407.106 204.396ZM406.338 211.5V205.452H407.862V211.5H406.338ZM409.079 210.624L410.087 209.712C410.459 210.18 410.903 210.516 411.479 210.516C411.971 210.516 412.223 210.228 412.223 209.868C412.223 208.812 409.331 209.208 409.331 207.084C409.331 206.016 410.231 205.212 411.491 205.212C412.415 205.212 413.255 205.656 413.687 206.244L412.679 207.132C412.367 206.748 411.971 206.436 411.503 206.436C411.023 206.436 410.795 206.7 410.795 207.012C410.795 208.044 413.687 207.684 413.687 209.772C413.663 211.044 412.643 211.74 411.503 211.74C410.423 211.74 409.655 211.308 409.079 210.624ZM415.092 214.452V205.452H416.616V205.944C417.084 205.476 417.672 205.212 418.5 205.212C420.42 205.212 421.572 206.712 421.572 208.476C421.572 210.24 420.42 211.74 418.5 211.74C417.672 211.74 417.084 211.476 416.616 211.008V214.452H415.092ZM418.284 206.652C417.576 206.652 417 206.964 416.616 207.528V209.424C417.024 210 417.588 210.3 418.284 210.3C419.316 210.3 419.988 209.532 419.988 208.476C419.988 207.42 419.316 206.652 418.284 206.652ZM422.967 211.5V202.5H424.491V211.5H422.967ZM427.086 204.396C426.546 204.396 426.09 203.94 426.09 203.4C426.09 202.86 426.546 202.404 427.086 202.404C427.626 202.404 428.07 202.86 428.07 203.4C428.07 203.94 427.626 204.396 427.086 204.396ZM426.318 211.5V205.452H427.842V211.5H426.318ZM430.054 209.292V206.82H428.926V205.452H430.054V203.94H431.59V205.452H433.438V206.82H431.59V209.292C431.59 209.964 431.95 210.228 432.55 210.228C432.97 210.228 433.246 210.18 433.45 210.096V211.428C433.15 211.56 432.79 211.62 432.286 211.62C430.774 211.62 430.054 210.768 430.054 209.292Z" fill="#304436"/>
</g>
<defs>
<filter id="filter0_d_2254_9948" x="361" y="22" width="99" height="21" filterUnits="userSpaceOnUse" color-interpolation-filters="sRGB">
<feFlood flood-opacity="0" result="BackgroundImageFix"/>
<feColorMatrix in="SourceAlpha" type="matrix" values="0 0 0 0 0 0 0 0 0 0 0 0 0 0 0 0 0 0 127 0" result="hardAlpha"/>
<feOffset dx="1" dy="1"/>
<feComposite in2="hardAlpha" operator="out"/>
<feColorMatrix type="matrix" values="0 0 0 0 0.188235 0 0 0 0 0.266667 0 0 0 0 0.211765 0 0 0 1 0"/>
<feBlend mode="normal" in2="BackgroundImageFix" result="effect1_dropShadow_2254_9948"/>
<feBlend mode="normal" in="SourceGraphic" in2="effect1_dropShadow_2254_9948" result="shape"/>
</filter>
<filter id="filter1_d_2254_9948" x="405" y="93" width="64" height="21" filterUnits="userSpaceOnUse" color-interpolation-filters="sRGB">
<feFlood flood-opacity="0" result="BackgroundImageFix"/>
<feColorMatrix in="SourceAlpha" type="matrix" values="0 0 0 0 0 0 0 0 0 0 0 0 0 0 0 0 0 0 127 0" result="hardAlpha"/>
<feOffset dx="1" dy="1"/>
<feComposite in2="hardAlpha" operator="out"/>
<feColorMatrix type="matrix" values="0 0 0 0 0.188235 0 0 0 0 0.266667 0 0 0 0 0.211765 0 0 0 1 0"/>
<feBlend mode="normal" in2="BackgroundImageFix" result="effect1_dropShadow_2254_9948"/>
<feBlend mode="normal" in="SourceGraphic" in2="effect1_dropShadow_2254_9948" result="shape"/>
</filter>
<filter id="filter2_d_2254_9948" x="377" y="196" width="60" height="21" filterUnits="userSpaceOnUse" color-interpolation-filters="sRGB">
<feFlood flood-opacity="0" result="BackgroundImageFix"/>
<feColorMatrix in="SourceAlpha" type="matrix" values="0 0 0 0 0 0 0 0 0 0 0 0 0 0 0 0 0 0 127 0" result="hardAlpha"/>
<feOffset dx="1" dy="1"/>
<feComposite in2="hardAlpha" operator="out"/>
<feColorMatrix type="matrix" values="0 0 0 0 0.188235 0 0 0 0 0.266667 0 0 0 0 0.211765 0 0 0 1 0"/>
<feBlend mode="normal" in2="BackgroundImageFix" result="effect1_dropShadow_2254_9948"/>
<feBlend mode="normal" in="SourceGraphic" in2="effect1_dropShadow_2254_9948" result="shape"/>
</filter>
<clipPath id="clip0_2254_9948">
<rect x="249.11" y="21.813" width="28.4629" height="46.6189" rx="2" fill="white"/>
</clipPath>
<pattern id="pattern0_2254_9948" patternUnits="userSpaceOnUse" patternTransform="matrix(17 0 0 14 202.5 75.5)" preserveAspectRatio="none" viewBox="-0.5 -0.5 17 14" width="1" height="1">
<use xlink:href="#pattern0_2254_9948_inner" transform="translate(-25.5 -7)"/>
<use xlink:href="#pattern0_2254_9948_inner" transform="translate(-8.5 -7)"/>
<use xlink:href="#pattern0_2254_9948_inner" transform="translate(8.5 -7)"/>
<use xlink:href="#pattern0_2254_9948_inner" transform="translate(-34 0)"/>
<use xlink:href="#pattern0_2254_9948_inner" transform="translate(-17 0)"/>
<g id="pattern0_2254_9948_inner">
<rect width="17" height="7" fill="#F3E1D1" stroke="white"/>
</g>
<use xlink:href="#pattern0_2254_9948_inner" transform="translate(-25.5 7)"/>
<use xlink:href="#pattern0_2254_9948_inner" transform="translate(-8.5 7)"/>
<use xlink:href="#pattern0_2254_9948_inner" transform="translate(8.5 7)"/>
</pattern></defs>
</svg>
