<svg width="501" height="362" viewBox="0 0 501 362" fill="none" xmlns="http://www.w3.org/2000/svg" xmlns:xlink="http://www.w3.org/1999/xlink">
<path d="M0 0H500V362H0V0Z" fill="white"/>
<path d="M500 0H499V362H500H501V0H500Z" fill="#E9E9E9"/>
<path d="M434 288H56C46.6112 288 39 295.611 39 305V321C39 321 44.6904 323.442 48.5 324.5C64.5465 328.955 74.3628 321.735 91 321C110.312 320.147 121.184 320.228 140.5 321C158.307 321.712 168.259 326.189 186 324.5C199.768 323.19 206.946 332.753 220.5 330C242.774 325.476 255.277 321.487 278 321C296.222 320.61 306.308 326.116 324.5 325C335.139 324.347 340.892 322.043 351.5 321L351.814 320.969C372.803 318.905 385.081 317.697 406 321C424.123 323.862 451 334.5 451 334.5V305C451 295.611 443.389 288 434 288Z" fill="#9A8D81" stroke="#304436" stroke-width="2"/>
<path d="M39 354H451V334.5C451 334.5 424.123 323.861 406 321C385.081 317.697 372.803 318.905 351.814 320.969L351.5 321C340.892 322.043 335.139 324.347 324.5 325C306.308 326.116 296.222 320.61 278 321C255.277 321.487 242.774 325.476 220.5 330C206.946 332.753 199.768 323.189 186 324.5C168.259 326.189 158.307 321.712 140.5 321C121.184 320.228 110.312 320.147 91 321C74.3628 321.735 64.5465 328.955 48.5 324.5C44.6904 323.442 39 321 39 321V354Z" fill="#624D45" stroke="#304436" stroke-width="2"/>
<path d="M53.5 332H61.5" stroke="#304436" stroke-width="2" stroke-linecap="round"/>
<path d="M208 301H216" stroke="#304436" stroke-width="2" stroke-linecap="round"/>
<path d="M53 319H61" stroke="#304436" stroke-width="2" stroke-linecap="round"/>
<path d="M392 295H400" stroke="#304436" stroke-width="2" stroke-linecap="round"/>
<path d="M281 333H289" stroke="#304436" stroke-width="2" stroke-linecap="round"/>
<path d="M217 347H225" stroke="#304436" stroke-width="2" stroke-linecap="round"/>
<path d="M198 345H190" stroke="#304436" stroke-width="2" stroke-linecap="round"/>
<path d="M352.5 314H344.5" stroke="#304436" stroke-width="2" stroke-linecap="round"/>
<path d="M361 300H353" stroke="#304436" stroke-width="2" stroke-linecap="round"/>
<path d="M425.5 346H417.5" stroke="#304436" stroke-width="2" stroke-linecap="round"/>
<path d="M174 329H166" stroke="#304436" stroke-width="2" stroke-linecap="round"/>
<path d="M328.5 298H320.5" stroke="#304436" stroke-width="2" stroke-linecap="round"/>
<path d="M401.5 330H393.5" stroke="#304436" stroke-width="2" stroke-linecap="round"/>
<path d="M69.5 343H77.5" stroke="#304436" stroke-width="2" stroke-linecap="round"/>
<path d="M224 312H232" stroke="#304436" stroke-width="2" stroke-linecap="round"/>
<path d="M48 306H56" stroke="#304436" stroke-width="2" stroke-linecap="round"/>
<path d="M408 306H416" stroke="#304436" stroke-width="2" stroke-linecap="round"/>
<path d="M297 344H305" stroke="#304436" stroke-width="2" stroke-linecap="round"/>
<path d="M233 336H241" stroke="#304436" stroke-width="2" stroke-linecap="round"/>
<path d="M117.5 330H125.5" stroke="#304436" stroke-width="2" stroke-linecap="round"/>
<path d="M272 299H280" stroke="#304436" stroke-width="2" stroke-linecap="round"/>
<path d="M199 316H207" stroke="#304436" stroke-width="2" stroke-linecap="round"/>
<path d="M345 331H353" stroke="#304436" stroke-width="2" stroke-linecap="round"/>
<path d="M134 343H126" stroke="#304436" stroke-width="2" stroke-linecap="round"/>
<path d="M288.5 312H280.5" stroke="#304436" stroke-width="2" stroke-linecap="round"/>
<path d="M361.5 344H353.5" stroke="#304436" stroke-width="2" stroke-linecap="round"/>
<path d="M100.5 337H103.5" stroke="#304436" stroke-width="2" stroke-linecap="round"/>
<path d="M255 306H258" stroke="#304436" stroke-width="2" stroke-linecap="round"/>
<path d="M180 319H183" stroke="#304436" stroke-width="2" stroke-linecap="round"/>
<path d="M439 300H442" stroke="#304436" stroke-width="2" stroke-linecap="round"/>
<path d="M374 312H377" stroke="#304436" stroke-width="2" stroke-linecap="round"/>
<path d="M328 338H331" stroke="#304436" stroke-width="2" stroke-linecap="round"/>
<path d="M264 342H267" stroke="#304436" stroke-width="2" stroke-linecap="round"/>
<path d="M151 350H148" stroke="#304436" stroke-width="2" stroke-linecap="round"/>
<path d="M305.5 319H302.5" stroke="#304436" stroke-width="2" stroke-linecap="round"/>
<path d="M378.5 351H375.5" stroke="#304436" stroke-width="2" stroke-linecap="round"/>
<path d="M71 332L75 332" stroke="#304436" stroke-width="2" stroke-linecap="round"/>
<path d="M225.5 301L229.5 301" stroke="#304436" stroke-width="2" stroke-linecap="round"/>
<path d="M160 319L164 319" stroke="#304436" stroke-width="2" stroke-linecap="round"/>
<path d="M119 317L123 317" stroke="#304436" stroke-width="2" stroke-linecap="round"/>
<path d="M409.5 295L413.5 295" stroke="#304436" stroke-width="2" stroke-linecap="round"/>
<path d="M298.5 333L302.5 333" stroke="#304436" stroke-width="2" stroke-linecap="round"/>
<path d="M234.5 347L238.5 347" stroke="#304436" stroke-width="2" stroke-linecap="round"/>
<path d="M180.5 345L176.5 345" stroke="#304436" stroke-width="2" stroke-linecap="round"/>
<path d="M335 314L331 314" stroke="#304436" stroke-width="2" stroke-linecap="round"/>
<path d="M408 346L404 346" stroke="#304436" stroke-width="2" stroke-linecap="round"/>
<path d="M161.5 329L157.5 329" stroke="#304436" stroke-width="2" stroke-linecap="round"/>
<path d="M316 298L312 298" stroke="#304436" stroke-width="2" stroke-linecap="round"/>
<path d="M389 330L385 330" stroke="#304436" stroke-width="2" stroke-linecap="round"/>
<path d="M87 343L91 343" stroke="#304436" stroke-width="2" stroke-linecap="round"/>
<path d="M241.5 312L245.5 312" stroke="#304436" stroke-width="2" stroke-linecap="round"/>
<path d="M74 320L78 320" stroke="#304436" stroke-width="2" stroke-linecap="round"/>
<path d="M425.5 306L429.5 306" stroke="#304436" stroke-width="2" stroke-linecap="round"/>
<path d="M314.5 344L318.5 344" stroke="#304436" stroke-width="2" stroke-linecap="round"/>
<path d="M250.5 336L254.5 336" stroke="#304436" stroke-width="2" stroke-linecap="round"/>
<path d="M203 75H416V306H203V75Z" fill="#F3E1D1" stroke="#304436" stroke-width="2"/>
<path d="M302 223.5H407" stroke="#465FB1" stroke-width="2"/>
<path d="M315 139.5H388" stroke="#465FB1" stroke-width="2"/>
<rect x="229" y="155" width="186" height="4" fill="#CBB9A9"/>
<rect x="229" y="239" width="186" height="4" fill="#CBB9A9"/>
<rect x="229" y="70" width="188" height="6" fill="#727B74"/>
<path d="M235 19H401C409.837 19 417 26.1634 417 35V71H235V19Z" fill="#CCC4C4"/>
<path d="M397.5 101.5V62H384" stroke="#535F57" stroke-width="2"/>
<path d="M361.708 52.0936C361.708 50.8101 362.784 49.7697 364.111 49.7697H389.941C391.268 49.7697 392.343 50.8101 392.343 52.0936V65.4562C392.343 66.7397 391.268 67.7802 389.941 67.7802H364.111C362.784 67.7802 361.708 66.7397 361.708 65.4562V52.0936Z" fill="white" stroke="#304436"/>
<path d="M368.237 53.2717C367.438 53.8107 367.15 55.3219 367.675 56.2538C367.91 56.5817 368.151 56.7738 368.151 56.7738C367.95 56.6408 367.792 56.4617 367.675 56.2538C367.407 55.8799 367.146 55.3294 367.26 54.6859C367.474 53.478 368.237 53.2717 368.237 53.2717Z" fill="white" fill-opacity="0.3"/>
<path d="M381.732 54.3878H388.268" stroke="#304436" stroke-width="2" stroke-linecap="round"/>
<path d="M381.732 56.8571H388.268" stroke="#304436" stroke-width="2" stroke-linecap="round"/>
<path d="M381.732 59.2143H388.268" stroke="#304436" stroke-width="2" stroke-linecap="round"/>
<path d="M367.31 67.8571H372.718V69.2041C372.718 69.9479 372.234 70.551 371.637 70.551H368.392C367.794 70.551 367.31 69.9479 367.31 69.2041V67.8571Z" fill="white" stroke="#304436"/>
<path d="M382.183 67.8571H387.141V69.2041C387.141 69.9479 386.648 70.551 386.039 70.551H383.285C382.676 70.551 382.183 69.9479 382.183 69.2041V67.8571Z" fill="white" stroke="#304436"/>
<path d="M369.338 57.9212L368.503 57.0892C367.637 56.2268 367.729 54.7527 368.855 54.2768C369.02 54.207 369.183 54.1478 369.338 54.1049C370.441 53.8 372.268 54.0082 372.268 54.0082" stroke="#304436" stroke-width="2" stroke-linecap="round" stroke-linejoin="round"/>
<path d="M372.38 58.7712L373.534 58.4632C374.712 58.1488 375.938 58.9594 375.791 60.1665C375.769 60.3473 375.739 60.5209 375.698 60.6793C375.412 61.7834 374.317 63.2551 374.317 63.2551" stroke="#304436" stroke-width="2" stroke-linecap="round" stroke-linejoin="round"/>
<path d="M369.983 60.9559L369.674 62.1052C369.358 63.2788 368.041 63.931 367.065 63.2011C366.919 63.0918 366.783 62.9788 366.666 62.8641C365.849 62.065 365.117 60.3851 365.117 60.3851" stroke="#304436" stroke-width="2" stroke-linecap="round" stroke-linejoin="round"/>
<path d="M380 103.182C380 101.977 380.802 101 381.792 101L394.595 101L407.779 101C408.769 101 409.571 101.977 409.571 103.182V152.818C409.571 154.023 408.769 155 407.779 155H381.792C380.802 155 380 154.023 380 152.818V103.182Z" fill="white" stroke="#304436"/>
<path d="M386.429 109.874C386.429 109.234 386.942 108.714 387.575 108.714H401.997C402.63 108.714 403.143 109.234 403.143 109.874V113.34C403.143 113.981 402.63 114.5 401.997 114.5H387.575C386.942 114.5 386.429 113.981 386.429 113.34V109.874Z" fill="#93D3F6" stroke="#304436"/>
<path d="M387.714 113.857L393.929 109.357H395.857L389.643 113.857H387.714Z" fill="white" fill-opacity="0.3"/>
<path d="M390.714 113.857L396.929 109.357H398L391.786 113.857H390.714Z" fill="white" fill-opacity="0.3"/>
<ellipse cx="392.68" cy="118.824" rx="1.10894" ry="1.10997" fill="#304436"/>
<ellipse cx="397.116" cy="118.824" rx="1.10894" ry="1.10997" fill="#304436"/>
<path d="M210.912 301V292H212.436V301H210.912ZM217.144 294.712C219.112 294.712 220.456 296.164 220.456 297.976C220.456 299.788 219.112 301.24 217.144 301.24C215.176 301.24 213.832 299.788 213.832 297.976C213.832 296.164 215.176 294.712 217.144 294.712ZM217.168 299.8C218.14 299.8 218.872 299.02 218.872 297.976C218.872 296.92 218.14 296.152 217.168 296.152C216.16 296.152 215.416 296.92 215.416 297.976C215.416 299.032 216.16 299.8 217.168 299.8ZM224.808 299.8C225.408 299.8 225.888 299.524 226.176 299.104L227.364 300.016C226.8 300.76 225.912 301.24 224.808 301.24C222.72 301.24 221.472 299.74 221.472 297.976C221.472 296.212 222.72 294.712 224.808 294.712C225.912 294.712 226.8 295.192 227.364 295.936L226.176 296.848C225.888 296.428 225.408 296.152 224.784 296.152C223.788 296.152 223.056 296.92 223.056 297.976C223.056 299.044 223.788 299.8 224.808 299.8ZM230.1 301.18C228.888 301.18 228.06 300.484 228.06 299.368C228.06 298.456 228.768 297.772 230.064 297.556L231.912 297.244V297.088C231.912 296.452 231.432 296.044 230.736 296.044C230.148 296.044 229.692 296.32 229.368 296.764L228.252 295.912C228.792 295.168 229.68 294.712 230.784 294.712C232.536 294.712 233.436 295.756 233.436 297.088V301H231.912V300.412C231.528 300.88 230.808 301.18 230.1 301.18ZM229.572 299.296C229.572 299.704 229.896 299.968 230.412 299.968C231.108 299.968 231.612 299.644 231.912 299.164V298.312L230.472 298.552C229.836 298.66 229.572 298.924 229.572 299.296ZM235.182 301V292H236.706V301H235.182Z" fill="#535F57"/>
<ellipse cx="149" cy="208" rx="3" ry="2" fill="#304436"/>
<path d="M290.5 225.5H189" stroke="#535F57" stroke-width="2"/>
<path d="M203 86.7959V306H266.827C266.827 306 248.362 289.399 243.403 274.538C233.842 245.887 269.778 241.04 266.827 216.495C264.836 199.937 251.765 194.999 248.446 178.694C245.758 165.489 250.278 157.109 248.407 144.061C246.495 130.727 241.075 119.959 235.935 109.748C233.315 104.545 228.396 91.976 226.424 86.7959C225.574 83.3255 225.065 79.751 225.034 76H203V86.7959Z" fill="url(#pattern0_2254_10095)" stroke="#304436" stroke-width="2"/>
<path d="M208.912 300V291H210.436V300H208.912ZM215.144 293.712C217.112 293.712 218.456 295.164 218.456 296.976C218.456 298.788 217.112 300.24 215.144 300.24C213.176 300.24 211.832 298.788 211.832 296.976C211.832 295.164 213.176 293.712 215.144 293.712ZM215.168 298.8C216.14 298.8 216.872 298.02 216.872 296.976C216.872 295.92 216.14 295.152 215.168 295.152C214.16 295.152 213.416 295.92 213.416 296.976C213.416 298.032 214.16 298.8 215.168 298.8ZM222.808 298.8C223.408 298.8 223.888 298.524 224.176 298.104L225.364 299.016C224.8 299.76 223.912 300.24 222.808 300.24C220.72 300.24 219.472 298.74 219.472 296.976C219.472 295.212 220.72 293.712 222.808 293.712C223.912 293.712 224.8 294.192 225.364 294.936L224.176 295.848C223.888 295.428 223.408 295.152 222.784 295.152C221.788 295.152 221.056 295.92 221.056 296.976C221.056 298.044 221.788 298.8 222.808 298.8ZM228.1 300.18C226.888 300.18 226.06 299.484 226.06 298.368C226.06 297.456 226.768 296.772 228.064 296.556L229.912 296.244V296.088C229.912 295.452 229.432 295.044 228.736 295.044C228.148 295.044 227.692 295.32 227.368 295.764L226.252 294.912C226.792 294.168 227.68 293.712 228.784 293.712C230.536 293.712 231.436 294.756 231.436 296.088V300H229.912V299.412C229.528 299.88 228.808 300.18 228.1 300.18ZM227.572 298.296C227.572 298.704 227.896 298.968 228.412 298.968C229.108 298.968 229.612 298.644 229.912 298.164V297.312L228.472 297.552C227.836 297.66 227.572 297.924 227.572 298.296ZM233.182 300V291H234.706V300H233.182Z" fill="#535F57"/>
<path d="M202.965 157.906H197.359V151H202.965H207.709H217.628H227.413H238.194H248.185V157.906H238.194H227.413H217.628H207.709H202.965Z" fill="#E2D2C3"/>
<path d="M248.185 157.906H207.709M248.185 157.906H217.628M248.185 157.906V151M248.185 151H207.709M248.185 151H217.628M207.709 151H202.965H197.359V157.906H202.965H207.709M207.709 151V157.906M207.709 151H217.628M207.709 157.906H217.628M217.628 151V157.906M227.413 151V157.906M238.194 151V157.906" stroke="#304436" stroke-width="2"/>
<path d="M202.965 242.907H197.359H187.44H182.696H177.09L167.171 242.906H162.427H156.85H156.821H152.106H146.5V236H152.106H156.821H156.85H162.427H167.171L177.09 236H182.696H187.44H197.359H202.965H207.709H217.628H227.413H238.194H249H259.5L253.5 242.907H249H238.194H227.413H217.628H207.709H202.965Z" fill="#E2D2C3"/>
<path d="M197.359 242.907H202.965H207.709M197.359 242.907V236M197.359 242.907H187.44M197.359 236H202.965H207.709M197.359 236H187.44M253.5 242.907H207.709M253.5 242.907H217.628M253.5 242.907L259.5 236M259.5 236H207.709M259.5 236H217.628M207.709 236V242.907M207.709 236H217.628M207.709 242.907H217.628M217.628 236V242.907M227.413 236V242.907M238.194 236V242.907M249 236V242.907M177.09 242.907H182.696H187.44M177.09 242.907V236M177.09 242.907L167.171 242.906M177.09 236H182.696H187.44M177.09 236L167.171 236M187.44 236V242.907M167.171 236H162.427H156.821V242.906H162.427H167.171M167.171 236V242.906M152.106 242.906H146.5V236H152.106H156.85V242.906H152.106Z" stroke="#304436" stroke-width="2"/>
<path d="M149 236C149 222.51 149 222.49 149 209" stroke="#304436" stroke-width="3"/>
<path d="M150 212C175.981 212 176.019 212 202 212" stroke="#304436" stroke-width="2"/>
<path d="M198.95 76.2017H202.832H262.776V70.1585H198.95V76.2017Z" fill="#E2D2C3" stroke="#304436" stroke-width="2"/>
<path d="M230.134 17.4964L202.965 70.1585H263.02C262.564 45.0186 251.697 17.4964 251.697 17.4964H230.134Z" fill="#858181" stroke="#304436" stroke-width="2"/>
<path d="M243.935 19.9507L250.404 16.8304L263.341 10.5899L282.748 19.9507V70.1585H250.404H243.935V19.9507Z" fill="#F3E1D1" stroke="#274430" stroke-width="2"/>
<g clip-path="url(#clip0_2254_10095)">
<rect x="249.11" y="21.813" width="28.4629" height="46.6189" rx="2" fill="#93D3F6"/>
<path d="M249.11 42.2087L266.625 21.813H277.573L249.11 56.7771V42.2087Z" fill="white" fill-opacity="0.3"/>
<path d="M250.204 68.4318L277.573 35.4102V41.2375L254.583 68.4318H250.204Z" fill="white" fill-opacity="0.3"/>
<rect x="249.11" y="21.813" width="28.4629" height="7.76981" fill="#565656" fill-opacity="0.3"/>
</g>
<rect x="249.11" y="21.813" width="28.4629" height="46.6189" rx="2" stroke="#274430" stroke-width="2"/>
<path fill-rule="evenodd" clip-rule="evenodd" d="M262.91 70.1585L262.91 21.813L264.635 21.813L264.635 70.1585L262.91 70.1585Z" fill="#304436"/>
<path fill-rule="evenodd" clip-rule="evenodd" d="M277.573 45.9857L249.11 45.9857L249.11 44.2591L277.573 44.2591L277.573 45.9857Z" fill="#304436"/>
<rect x="241.347" y="66.7052" width="43.9881" height="3.45325" rx="1.72662" fill="#F3E1D1" stroke="#274430" stroke-width="2"/>
<path d="M153 236C153 223.509 153 223.491 153 211" stroke="#304436" stroke-width="2"/>
<path d="M157 236C157 223.509 157 223.491 157 211" stroke="#304436" stroke-width="2"/>
<path d="M161 236C161 223.509 161 223.491 161 211" stroke="#304436" stroke-width="2"/>
<path d="M165 236C165 223.509 165 223.491 165 211" stroke="#304436" stroke-width="2"/>
<path d="M169 236C169 223.509 169 223.491 169 211" stroke="#304436" stroke-width="2"/>
<path d="M173 236C173 223.509 173 223.491 173 211" stroke="#304436" stroke-width="2"/>
<path d="M177 236C177 223.509 177 223.491 177 211" stroke="#304436" stroke-width="2"/>
<path d="M181 236C181 223.509 181 223.491 181 211" stroke="#304436" stroke-width="2"/>
<path d="M185 236C185 223.509 185 223.491 185 211" stroke="#304436" stroke-width="2"/>
<path d="M189 236C189 223.509 189 223.491 189 211" stroke="#304436" stroke-width="2"/>
<path d="M193 236C193 223.509 193 223.491 193 211" stroke="#304436" stroke-width="2"/>
<path d="M197 236C197 223.509 197 223.491 197 211" stroke="#304436" stroke-width="2"/>
<path d="M200 236C200 223.509 200 223.491 200 211" stroke="#304436" stroke-width="2"/>
<path d="M167.708 217.094C167.708 215.81 168.784 214.77 170.111 214.77H195.941C197.268 214.77 198.343 215.81 198.343 217.094V230.456C198.343 231.74 197.268 232.78 195.941 232.78H170.111C168.784 232.78 167.708 231.74 167.708 230.456V217.094Z" fill="white" stroke="#304436"/>
<path d="M174.237 218.272C173.438 218.811 173.15 220.322 173.675 221.254C173.91 221.582 174.151 221.774 174.151 221.774C173.95 221.641 173.792 221.462 173.675 221.254C173.407 220.88 173.146 220.329 173.26 219.686C173.474 218.478 174.237 218.272 174.237 218.272Z" fill="white" fill-opacity="0.3"/>
<path d="M187.732 219.388H194.268" stroke="#304436" stroke-width="2" stroke-linecap="round"/>
<path d="M187.732 221.857H194.268" stroke="#304436" stroke-width="2" stroke-linecap="round"/>
<path d="M187.732 224.214H194.268" stroke="#304436" stroke-width="2" stroke-linecap="round"/>
<path d="M173.31 232.857H178.718V234.204C178.718 234.948 178.234 235.551 177.637 235.551H174.392C173.794 235.551 173.31 234.948 173.31 234.204V232.857Z" fill="white" stroke="#304436"/>
<path d="M188.183 232.857H193.141V234.204C193.141 234.948 192.648 235.551 192.039 235.551H189.285C188.676 235.551 188.183 234.948 188.183 234.204V232.857Z" fill="white" stroke="#304436"/>
<path d="M175.338 222.921L174.503 222.089C173.637 221.227 173.729 219.753 174.855 219.277C175.02 219.207 175.183 219.148 175.338 219.105C176.441 218.8 178.268 219.008 178.268 219.008" stroke="#304436" stroke-width="2" stroke-linecap="round" stroke-linejoin="round"/>
<path d="M178.38 223.771L179.534 223.463C180.712 223.149 181.938 223.959 181.791 225.166C181.769 225.347 181.739 225.521 181.698 225.679C181.412 226.783 180.317 228.255 180.317 228.255" stroke="#304436" stroke-width="2" stroke-linecap="round" stroke-linejoin="round"/>
<path d="M175.983 225.956L175.674 227.105C175.358 228.279 174.041 228.931 173.065 228.201C172.919 228.092 172.783 227.979 172.666 227.864C171.849 227.065 171.117 225.385 171.117 225.385" stroke="#304436" stroke-width="2" stroke-linecap="round" stroke-linejoin="round"/>
<path d="M276 187.182C276 185.977 276.802 185 277.792 185L290.595 185L303.779 185C304.769 185 305.571 185.977 305.571 187.182V236.818C305.571 238.023 304.769 239 303.779 239H277.792C276.802 239 276 238.023 276 236.818V187.182Z" fill="white" stroke="#304436"/>
<path d="M282.429 193.874C282.429 193.234 282.942 192.714 283.575 192.714H297.997C298.63 192.714 299.143 193.234 299.143 193.874V197.34C299.143 197.981 298.63 198.5 297.997 198.5H283.575C282.942 198.5 282.429 197.981 282.429 197.34V193.874Z" fill="#93D3F6" stroke="#304436"/>
<path d="M283.714 197.857L289.929 193.357H291.857L285.643 197.857H283.714Z" fill="white" fill-opacity="0.3"/>
<path d="M286.714 197.857L292.929 193.357H294L287.786 197.857H286.714Z" fill="white" fill-opacity="0.3"/>
<ellipse cx="288.68" cy="202.824" rx="1.10894" ry="1.10997" fill="#304436"/>
<ellipse cx="293.116" cy="202.824" rx="1.10894" ry="1.10997" fill="#304436"/>
<path fill-rule="evenodd" clip-rule="evenodd" d="M348.297 216.537V219.965C348.297 219.742 348.485 219.561 348.717 219.561H351.24C351.473 219.561 351.661 219.742 351.661 219.965V216.537C351.661 216.76 351.473 216.94 351.24 216.94H348.717C348.485 216.94 348.297 216.76 348.297 216.537Z" fill="white"/>
<path d="M351.661 232.264V219.965C351.661 219.742 351.473 219.561 351.24 219.561H348.717C348.485 219.561 348.297 219.742 348.297 219.965V232.264C348.297 232.487 348.485 232.668 348.717 232.668H351.24C351.473 232.668 351.661 232.487 351.661 232.264Z" fill="white"/>
<path d="M351.24 214.319H348.717C348.485 214.319 348.297 214.499 348.297 214.722V216.537C348.297 216.76 348.485 216.94 348.717 216.94H351.24C351.473 216.94 351.661 216.76 351.661 216.537V214.722C351.661 214.499 351.473 214.319 351.24 214.319Z" fill="white"/>
<path fill-rule="evenodd" clip-rule="evenodd" d="M351.578 216.537V219.965C351.578 219.742 351.766 219.561 351.999 219.561H354.522C354.754 219.561 354.942 219.742 354.942 219.965V216.537C354.942 216.76 354.754 216.94 354.522 216.94H351.999C351.766 216.94 351.578 216.76 351.578 216.537Z" fill="white"/>
<path d="M354.942 232.264V219.965C354.942 219.742 354.754 219.561 354.522 219.561H351.999C351.766 219.561 351.578 219.742 351.578 219.965V232.264C351.578 232.487 351.766 232.668 351.999 232.668H354.522C354.754 232.668 354.942 232.487 354.942 232.264Z" fill="white"/>
<path d="M354.522 214.319H351.999C351.766 214.319 351.578 214.499 351.578 214.722V216.537C351.578 216.76 351.766 216.94 351.999 216.94H354.522C354.754 216.94 354.942 216.76 354.942 216.537V214.722C354.942 214.499 354.754 214.319 354.522 214.319Z" fill="white"/>
<path fill-rule="evenodd" clip-rule="evenodd" d="M354.859 216.53V219.958C354.859 219.736 355.048 219.555 355.28 219.555H357.803C358.035 219.555 358.223 219.736 358.223 219.958V216.53C358.223 216.753 358.035 216.934 357.803 216.934H355.28C355.048 216.934 354.859 216.753 354.859 216.53Z" fill="white"/>
<path d="M358.223 232.258V219.958C358.223 219.736 358.035 219.555 357.803 219.555H355.28C355.048 219.555 354.859 219.736 354.859 219.958V232.258C354.859 232.481 355.048 232.661 355.28 232.661H357.803C358.035 232.661 358.223 232.481 358.223 232.258Z" fill="white"/>
<path d="M357.803 214.312H355.28C355.048 214.312 354.859 214.493 354.859 214.716V216.53C354.859 216.753 355.048 216.934 355.28 216.934H357.803C358.035 216.934 358.223 216.753 358.223 216.53V214.716C358.223 214.493 358.035 214.312 357.803 214.312Z" fill="white"/>
<path fill-rule="evenodd" clip-rule="evenodd" d="M358.469 216.53V219.958C358.469 219.736 358.657 219.555 358.889 219.555H361.412C361.644 219.555 361.833 219.736 361.833 219.958V216.53C361.833 216.753 361.644 216.934 361.412 216.934H358.889C358.657 216.934 358.469 216.753 358.469 216.53Z" fill="white"/>
<path d="M361.833 232.258V219.958C361.833 219.736 361.644 219.555 361.412 219.555H358.889C358.657 219.555 358.469 219.736 358.469 219.958V232.258C358.469 232.481 358.657 232.661 358.889 232.661H361.412C361.644 232.661 361.833 232.481 361.833 232.258Z" fill="white"/>
<path d="M361.412 214.312H358.889C358.657 214.312 358.469 214.493 358.469 214.716V216.53C358.469 216.753 358.657 216.934 358.889 216.934H361.412C361.644 216.934 361.833 216.753 361.833 216.53V214.716C361.833 214.493 361.644 214.312 361.412 214.312Z" fill="white"/>
<path fill-rule="evenodd" clip-rule="evenodd" d="M361.75 216.53V219.958C361.75 219.736 361.938 219.555 362.17 219.555H364.693C364.926 219.555 365.114 219.736 365.114 219.958V216.53C365.114 216.753 364.926 216.934 364.693 216.934H362.17C361.938 216.934 361.75 216.753 361.75 216.53Z" fill="white"/>
<path d="M365.114 232.258V219.958C365.114 219.736 364.926 219.555 364.693 219.555H362.17C361.938 219.555 361.75 219.736 361.75 219.958V232.258C361.75 232.481 361.938 232.661 362.17 232.661H364.693C364.926 232.661 365.114 232.481 365.114 232.258Z" fill="white"/>
<path d="M364.693 214.312H362.17C361.938 214.312 361.75 214.493 361.75 214.716V216.53C361.75 216.753 361.938 216.934 362.17 216.934H364.693C364.926 216.934 365.114 216.753 365.114 216.53V214.716C365.114 214.493 364.926 214.312 364.693 214.312Z" fill="white"/>
<path d="M351.427 216.532V214.716C351.427 214.413 350.944 214.312 350.72 214.312V232.674C350.944 232.674 351.427 232.674 351.427 232.27V219.962V216.532Z" fill="#565656" fill-opacity="0.3"/>
<path fill-rule="evenodd" clip-rule="evenodd" d="M348.213 216.537V219.965C348.213 219.742 348.402 219.561 348.634 219.561H351.157C351.389 219.561 351.577 219.742 351.577 219.965V216.537C351.577 216.76 351.389 216.94 351.157 216.94H348.634C348.402 216.94 348.213 216.76 348.213 216.537Z" fill="#565656" fill-opacity="0.3"/>
<path d="M348.213 232.264V214.722M348.213 232.264C348.213 232.487 348.402 232.668 348.634 232.668H351.157C351.389 232.668 351.577 232.487 351.577 232.264M348.213 232.264V219.965M351.577 232.264V214.722M351.577 232.264V219.965M351.577 214.722C351.577 214.499 351.389 214.319 351.157 214.319H348.634C348.402 214.319 348.213 214.499 348.213 214.722M351.577 214.722V216.537M351.577 214.722V219.965M348.213 214.722V216.537M348.213 214.722V219.965M348.213 216.537C348.213 216.76 348.402 216.94 348.634 216.94H351.157C351.389 216.94 351.577 216.76 351.577 216.537M348.213 216.537V219.965M351.577 216.537V219.965M351.577 219.965C351.577 219.742 351.389 219.561 351.157 219.561H348.634C348.402 219.561 348.213 219.742 348.213 219.965" stroke="#304436"/>
<path d="M354.791 216.532V214.716C354.791 214.413 354.308 214.312 354.084 214.312V232.674C354.308 232.674 354.791 232.674 354.791 232.27V219.962V216.532Z" fill="#565656" fill-opacity="0.3"/>
<path fill-rule="evenodd" clip-rule="evenodd" d="M351.577 216.537V219.965C351.577 219.742 351.766 219.561 351.998 219.561H354.521C354.753 219.561 354.941 219.742 354.941 219.965V216.537C354.941 216.76 354.753 216.94 354.521 216.94H351.998C351.766 216.94 351.577 216.76 351.577 216.537Z" fill="#565656" fill-opacity="0.3"/>
<path d="M351.577 232.264V214.722M351.577 232.264C351.577 232.487 351.766 232.668 351.998 232.668H354.521C354.753 232.668 354.941 232.487 354.941 232.264M351.577 232.264V219.965M354.941 232.264V214.722M354.941 232.264V219.965M354.941 214.722C354.941 214.499 354.753 214.319 354.521 214.319H351.998C351.766 214.319 351.577 214.499 351.577 214.722M354.941 214.722V216.537M354.941 214.722V219.965M351.577 214.722V216.537M351.577 214.722V219.965M351.577 216.537C351.577 216.76 351.766 216.94 351.998 216.94H354.521C354.753 216.94 354.941 216.76 354.941 216.537M351.577 216.537V219.965M354.941 216.537V219.965M354.941 219.965C354.941 219.742 354.753 219.561 354.521 219.561H351.998C351.766 219.561 351.577 219.742 351.577 219.965" stroke="#304436"/>
<path d="M358.155 216.532V214.716C358.155 214.413 357.672 214.312 357.448 214.312V232.674C357.672 232.674 358.155 232.674 358.155 232.27V219.962V216.532Z" fill="#565656" fill-opacity="0.3"/>
<path fill-rule="evenodd" clip-rule="evenodd" d="M354.941 216.537V219.965C354.941 219.742 355.13 219.561 355.362 219.561H357.885C358.117 219.561 358.305 219.742 358.305 219.965V216.537C358.305 216.76 358.117 216.94 357.885 216.94H355.362C355.13 216.94 354.941 216.76 354.941 216.537Z" fill="#565656" fill-opacity="0.3"/>
<path d="M354.941 232.264V214.722M354.941 232.264C354.941 232.487 355.13 232.668 355.362 232.668H357.885C358.117 232.668 358.305 232.487 358.305 232.264M354.941 232.264V219.965M358.305 232.264V214.722M358.305 232.264V219.965M358.305 214.722C358.305 214.499 358.117 214.319 357.885 214.319H355.362C355.13 214.319 354.941 214.499 354.941 214.722M358.305 214.722V216.537M358.305 214.722V219.965M354.941 214.722V216.537M354.941 214.722V219.965M354.941 216.537C354.941 216.76 355.13 216.94 355.362 216.94H357.885C358.117 216.94 358.305 216.76 358.305 216.537M354.941 216.537V219.965M358.305 216.537V219.965M358.305 219.965C358.305 219.742 358.117 219.561 357.885 219.561H355.362C355.13 219.561 354.941 219.742 354.941 219.965" stroke="#304436"/>
<path d="M361.519 216.532V214.716C361.519 214.413 361.036 214.312 360.812 214.312V232.674C361.036 232.674 361.519 232.674 361.519 232.27V219.962V216.532Z" fill="#565656" fill-opacity="0.3"/>
<path fill-rule="evenodd" clip-rule="evenodd" d="M358.305 216.537V219.965C358.305 219.742 358.494 219.561 358.726 219.561H361.249C361.481 219.561 361.669 219.742 361.669 219.965V216.537C361.669 216.76 361.481 216.94 361.249 216.94H358.726C358.494 216.94 358.305 216.76 358.305 216.537Z" fill="#565656" fill-opacity="0.3"/>
<path d="M358.305 232.264V214.722M358.305 232.264C358.305 232.487 358.494 232.668 358.726 232.668H361.249C361.481 232.668 361.669 232.487 361.669 232.264M358.305 232.264V219.965M361.669 232.264V214.722M361.669 232.264V219.965M361.669 214.722C361.669 214.499 361.481 214.319 361.249 214.319H358.726C358.494 214.319 358.305 214.499 358.305 214.722M361.669 214.722V216.537M361.669 214.722V219.965M358.305 214.722V216.537M358.305 214.722V219.965M358.305 216.537C358.305 216.76 358.494 216.94 358.726 216.94H361.249C361.481 216.94 361.669 216.76 361.669 216.537M358.305 216.537V219.965M361.669 216.537V219.965M361.669 219.965C361.669 219.742 361.481 219.561 361.249 219.561H358.726C358.494 219.561 358.305 219.742 358.305 219.965" stroke="#304436"/>
<path d="M364.883 216.532V214.716C364.883 214.413 364.399 214.312 364.176 214.312V232.674C364.399 232.674 364.883 232.674 364.883 232.27V219.962V216.532Z" fill="#565656" fill-opacity="0.3"/>
<path fill-rule="evenodd" clip-rule="evenodd" d="M361.669 216.537V219.965C361.669 219.742 361.857 219.561 362.09 219.561H364.613C364.845 219.561 365.033 219.742 365.033 219.965V216.537C365.033 216.76 364.845 216.94 364.613 216.94H362.09C361.857 216.94 361.669 216.76 361.669 216.537Z" fill="#565656" fill-opacity="0.3"/>
<path d="M361.669 232.264V214.722M361.669 232.264C361.669 232.487 361.857 232.668 362.09 232.668H364.613C364.845 232.668 365.033 232.487 365.033 232.264M361.669 232.264V219.965M365.033 232.264V214.722M365.033 232.264V219.965M365.033 214.722C365.033 214.499 364.845 214.319 364.613 214.319H362.09C361.857 214.319 361.669 214.499 361.669 214.722M365.033 214.722V216.537M365.033 214.722V219.965M361.669 214.722V216.537M361.669 214.722V219.965M361.669 216.537C361.669 216.76 361.857 216.94 362.09 216.94H364.613C364.845 216.94 365.033 216.76 365.033 216.537M361.669 216.537V219.965M365.033 216.537V219.965M365.033 219.965C365.033 219.742 364.845 219.561 364.613 219.561H362.09C361.857 219.561 361.669 219.742 361.669 219.965" stroke="#304436"/>
<path d="M348.196 216.324L347.691 216.324C347.301 216.324 346.984 216.008 346.984 215.618C346.984 215.228 347.301 214.912 347.691 214.912L348.196 214.912L348.196 216.324Z" stroke="#304436"/>
<path d="M348.213 216.453L347.755 216.453C347.332 216.453 346.99 216.111 346.99 215.689C346.99 215.266 347.332 214.924 347.755 214.924L348.213 214.924L348.213 216.453Z" fill="white" stroke="#304436"/>
<path d="M365.033 214.924H365.492C365.914 214.924 366.256 215.266 366.256 215.689C366.256 216.111 365.914 216.453 365.492 216.453H365.033L365.033 214.924Z" fill="white" stroke="#304436"/>
<path fill-rule="evenodd" clip-rule="evenodd" d="M305.297 132.537V135.965C305.297 135.742 305.485 135.561 305.717 135.561H308.24C308.473 135.561 308.661 135.742 308.661 135.965V132.537C308.661 132.76 308.473 132.94 308.24 132.94H305.717C305.485 132.94 305.297 132.76 305.297 132.537Z" fill="white"/>
<path d="M308.661 148.264V135.965C308.661 135.742 308.473 135.561 308.24 135.561H305.717C305.485 135.561 305.297 135.742 305.297 135.965V148.264C305.297 148.487 305.485 148.668 305.717 148.668H308.24C308.473 148.668 308.661 148.487 308.661 148.264Z" fill="white"/>
<path d="M308.24 130.319H305.717C305.485 130.319 305.297 130.499 305.297 130.722V132.537C305.297 132.76 305.485 132.94 305.717 132.94H308.24C308.473 132.94 308.661 132.76 308.661 132.537V130.722C308.661 130.499 308.473 130.319 308.24 130.319Z" fill="white"/>
<path fill-rule="evenodd" clip-rule="evenodd" d="M308.578 132.537V135.965C308.578 135.742 308.766 135.561 308.999 135.561H311.522C311.754 135.561 311.942 135.742 311.942 135.965V132.537C311.942 132.76 311.754 132.94 311.522 132.94H308.999C308.766 132.94 308.578 132.76 308.578 132.537Z" fill="white"/>
<path d="M311.942 148.264V135.965C311.942 135.742 311.754 135.561 311.522 135.561H308.999C308.766 135.561 308.578 135.742 308.578 135.965V148.264C308.578 148.487 308.766 148.668 308.999 148.668H311.522C311.754 148.668 311.942 148.487 311.942 148.264Z" fill="white"/>
<path d="M311.522 130.319H308.999C308.766 130.319 308.578 130.499 308.578 130.722V132.537C308.578 132.76 308.766 132.94 308.999 132.94H311.522C311.754 132.94 311.942 132.76 311.942 132.537V130.722C311.942 130.499 311.754 130.319 311.522 130.319Z" fill="white"/>
<path fill-rule="evenodd" clip-rule="evenodd" d="M311.859 132.53V135.958C311.859 135.736 312.048 135.555 312.28 135.555H314.803C315.035 135.555 315.223 135.736 315.223 135.958V132.53C315.223 132.753 315.035 132.934 314.803 132.934H312.28C312.048 132.934 311.859 132.753 311.859 132.53Z" fill="white"/>
<path d="M315.223 148.258V135.958C315.223 135.736 315.035 135.555 314.803 135.555H312.28C312.048 135.555 311.859 135.736 311.859 135.958V148.258C311.859 148.481 312.048 148.661 312.28 148.661H314.803C315.035 148.661 315.223 148.481 315.223 148.258Z" fill="white"/>
<path d="M314.803 130.312H312.28C312.048 130.312 311.859 130.493 311.859 130.716V132.53C311.859 132.753 312.048 132.934 312.28 132.934H314.803C315.035 132.934 315.223 132.753 315.223 132.53V130.716C315.223 130.493 315.035 130.312 314.803 130.312Z" fill="white"/>
<path fill-rule="evenodd" clip-rule="evenodd" d="M315.469 132.53V135.958C315.469 135.736 315.657 135.555 315.889 135.555H318.412C318.644 135.555 318.833 135.736 318.833 135.958V132.53C318.833 132.753 318.644 132.934 318.412 132.934H315.889C315.657 132.934 315.469 132.753 315.469 132.53Z" fill="white"/>
<path d="M318.833 148.258V135.958C318.833 135.736 318.644 135.555 318.412 135.555H315.889C315.657 135.555 315.469 135.736 315.469 135.958V148.258C315.469 148.481 315.657 148.661 315.889 148.661H318.412C318.644 148.661 318.833 148.481 318.833 148.258Z" fill="white"/>
<path d="M318.412 130.312H315.889C315.657 130.312 315.469 130.493 315.469 130.716V132.53C315.469 132.753 315.657 132.934 315.889 132.934H318.412C318.644 132.934 318.833 132.753 318.833 132.53V130.716C318.833 130.493 318.644 130.312 318.412 130.312Z" fill="white"/>
<path fill-rule="evenodd" clip-rule="evenodd" d="M318.75 132.53V135.958C318.75 135.736 318.938 135.555 319.17 135.555H321.693C321.926 135.555 322.114 135.736 322.114 135.958V132.53C322.114 132.753 321.926 132.934 321.693 132.934H319.17C318.938 132.934 318.75 132.753 318.75 132.53Z" fill="white"/>
<path d="M322.114 148.258V135.958C322.114 135.736 321.926 135.555 321.693 135.555H319.17C318.938 135.555 318.75 135.736 318.75 135.958V148.258C318.75 148.481 318.938 148.661 319.17 148.661H321.693C321.926 148.661 322.114 148.481 322.114 148.258Z" fill="white"/>
<path d="M321.693 130.312H319.17C318.938 130.312 318.75 130.493 318.75 130.716V132.53C318.75 132.753 318.938 132.934 319.17 132.934H321.693C321.926 132.934 322.114 132.753 322.114 132.53V130.716C322.114 130.493 321.926 130.312 321.693 130.312Z" fill="white"/>
<path d="M308.427 132.532V130.716C308.427 130.413 307.944 130.312 307.72 130.312V148.674C307.944 148.674 308.427 148.674 308.427 148.27V135.962V132.532Z" fill="#565656" fill-opacity="0.3"/>
<path fill-rule="evenodd" clip-rule="evenodd" d="M305.213 132.537V135.965C305.213 135.742 305.402 135.561 305.634 135.561H308.157C308.389 135.561 308.577 135.742 308.577 135.965V132.537C308.577 132.76 308.389 132.94 308.157 132.94H305.634C305.402 132.94 305.213 132.76 305.213 132.537Z" fill="#565656" fill-opacity="0.3"/>
<path d="M305.213 148.264V130.722M305.213 148.264C305.213 148.487 305.402 148.668 305.634 148.668H308.157C308.389 148.668 308.577 148.487 308.577 148.264M305.213 148.264V135.965M308.577 148.264V130.722M308.577 148.264V135.965M308.577 130.722C308.577 130.499 308.389 130.319 308.157 130.319H305.634C305.402 130.319 305.213 130.499 305.213 130.722M308.577 130.722V132.537M308.577 130.722V135.965M305.213 130.722V132.537M305.213 130.722V135.965M305.213 132.537C305.213 132.76 305.402 132.94 305.634 132.94H308.157C308.389 132.94 308.577 132.76 308.577 132.537M305.213 132.537V135.965M308.577 132.537V135.965M308.577 135.965C308.577 135.742 308.389 135.561 308.157 135.561H305.634C305.402 135.561 305.213 135.742 305.213 135.965" stroke="#304436"/>
<path d="M311.791 132.532V130.716C311.791 130.413 311.308 130.312 311.084 130.312V148.674C311.308 148.674 311.791 148.674 311.791 148.27V135.962V132.532Z" fill="#565656" fill-opacity="0.3"/>
<path fill-rule="evenodd" clip-rule="evenodd" d="M308.577 132.537V135.965C308.577 135.742 308.766 135.561 308.998 135.561H311.521C311.753 135.561 311.941 135.742 311.941 135.965V132.537C311.941 132.76 311.753 132.94 311.521 132.94H308.998C308.766 132.94 308.577 132.76 308.577 132.537Z" fill="#565656" fill-opacity="0.3"/>
<path d="M308.577 148.264V130.722M308.577 148.264C308.577 148.487 308.766 148.668 308.998 148.668H311.521C311.753 148.668 311.941 148.487 311.941 148.264M308.577 148.264V135.965M311.941 148.264V130.722M311.941 148.264V135.965M311.941 130.722C311.941 130.499 311.753 130.319 311.521 130.319H308.998C308.766 130.319 308.577 130.499 308.577 130.722M311.941 130.722V132.537M311.941 130.722V135.965M308.577 130.722V132.537M308.577 130.722V135.965M308.577 132.537C308.577 132.76 308.766 132.94 308.998 132.94H311.521C311.753 132.94 311.941 132.76 311.941 132.537M308.577 132.537V135.965M311.941 132.537V135.965M311.941 135.965C311.941 135.742 311.753 135.561 311.521 135.561H308.998C308.766 135.561 308.577 135.742 308.577 135.965" stroke="#304436"/>
<path d="M315.155 132.532V130.716C315.155 130.413 314.672 130.312 314.448 130.312V148.674C314.672 148.674 315.155 148.674 315.155 148.27V135.962V132.532Z" fill="#565656" fill-opacity="0.3"/>
<path fill-rule="evenodd" clip-rule="evenodd" d="M311.941 132.537V135.965C311.941 135.742 312.13 135.561 312.362 135.561H314.885C315.117 135.561 315.305 135.742 315.305 135.965V132.537C315.305 132.76 315.117 132.94 314.885 132.94H312.362C312.13 132.94 311.941 132.76 311.941 132.537Z" fill="#565656" fill-opacity="0.3"/>
<path d="M311.941 148.264V130.722M311.941 148.264C311.941 148.487 312.13 148.668 312.362 148.668H314.885C315.117 148.668 315.305 148.487 315.305 148.264M311.941 148.264V135.965M315.305 148.264V130.722M315.305 148.264V135.965M315.305 130.722C315.305 130.499 315.117 130.319 314.885 130.319H312.362C312.13 130.319 311.941 130.499 311.941 130.722M315.305 130.722V132.537M315.305 130.722V135.965M311.941 130.722V132.537M311.941 130.722V135.965M311.941 132.537C311.941 132.76 312.13 132.94 312.362 132.94H314.885C315.117 132.94 315.305 132.76 315.305 132.537M311.941 132.537V135.965M315.305 132.537V135.965M315.305 135.965C315.305 135.742 315.117 135.561 314.885 135.561H312.362C312.13 135.561 311.941 135.742 311.941 135.965" stroke="#304436"/>
<path d="M318.519 132.532V130.716C318.519 130.413 318.036 130.312 317.812 130.312V148.674C318.036 148.674 318.519 148.674 318.519 148.27V135.962V132.532Z" fill="#565656" fill-opacity="0.3"/>
<path fill-rule="evenodd" clip-rule="evenodd" d="M315.305 132.537V135.965C315.305 135.742 315.494 135.561 315.726 135.561H318.249C318.481 135.561 318.669 135.742 318.669 135.965V132.537C318.669 132.76 318.481 132.94 318.249 132.94H315.726C315.494 132.94 315.305 132.76 315.305 132.537Z" fill="#565656" fill-opacity="0.3"/>
<path d="M315.305 148.264V130.722M315.305 148.264C315.305 148.487 315.494 148.668 315.726 148.668H318.249C318.481 148.668 318.669 148.487 318.669 148.264M315.305 148.264V135.965M318.669 148.264V130.722M318.669 148.264V135.965M318.669 130.722C318.669 130.499 318.481 130.319 318.249 130.319H315.726C315.494 130.319 315.305 130.499 315.305 130.722M318.669 130.722V132.537M318.669 130.722V135.965M315.305 130.722V132.537M315.305 130.722V135.965M315.305 132.537C315.305 132.76 315.494 132.94 315.726 132.94H318.249C318.481 132.94 318.669 132.76 318.669 132.537M315.305 132.537V135.965M318.669 132.537V135.965M318.669 135.965C318.669 135.742 318.481 135.561 318.249 135.561H315.726C315.494 135.561 315.305 135.742 315.305 135.965" stroke="#304436"/>
<path d="M321.883 132.532V130.716C321.883 130.413 321.399 130.312 321.176 130.312V148.674C321.399 148.674 321.883 148.674 321.883 148.27V135.962V132.532Z" fill="#565656" fill-opacity="0.3"/>
<path fill-rule="evenodd" clip-rule="evenodd" d="M318.669 132.537V135.965C318.669 135.742 318.857 135.561 319.09 135.561H321.613C321.845 135.561 322.033 135.742 322.033 135.965V132.537C322.033 132.76 321.845 132.94 321.613 132.94H319.09C318.857 132.94 318.669 132.76 318.669 132.537Z" fill="#565656" fill-opacity="0.3"/>
<path d="M318.669 148.264V130.722M318.669 148.264C318.669 148.487 318.857 148.668 319.09 148.668H321.613C321.845 148.668 322.033 148.487 322.033 148.264M318.669 148.264V135.965M322.033 148.264V130.722M322.033 148.264V135.965M322.033 130.722C322.033 130.499 321.845 130.319 321.613 130.319H319.09C318.857 130.319 318.669 130.499 318.669 130.722M322.033 130.722V132.537M322.033 130.722V135.965M318.669 130.722V132.537M318.669 130.722V135.965M318.669 132.537C318.669 132.76 318.857 132.94 319.09 132.94H321.613C321.845 132.94 322.033 132.76 322.033 132.537M318.669 132.537V135.965M322.033 132.537V135.965M322.033 135.965C322.033 135.742 321.845 135.561 321.613 135.561H319.09C318.857 135.561 318.669 135.742 318.669 135.965" stroke="#304436"/>
<path d="M305.196 132.324L304.691 132.324C304.301 132.324 303.984 132.008 303.984 131.618C303.984 131.228 304.301 130.912 304.691 130.912L305.196 130.912L305.196 132.324Z" stroke="#304436"/>
<path d="M305.213 132.453L304.755 132.453C304.332 132.453 303.99 132.111 303.99 131.689C303.99 131.266 304.332 130.924 304.755 130.924L305.213 130.924L305.213 132.453Z" fill="white" stroke="#304436"/>
<path d="M322.033 130.924H322.492C322.914 130.924 323.256 131.266 323.256 131.689C323.256 132.111 322.914 132.453 322.492 132.453H322.033L322.033 130.924Z" fill="white" stroke="#304436"/>
<g filter="url(#filter0_d_2254_10095)">
<rect x="240" y="245" width="96" height="20" fill="white" shape-rendering="crispEdges"/>
<rect x="240.5" y="245.5" width="95" height="19" stroke="#304436" shape-rendering="crispEdges"/>
<path d="M248.096 257.356V252.1H249.8V257.212C249.8 259.42 248.504 260.74 246.392 260.74C244.292 260.74 242.996 259.42 242.996 257.212V252.1H244.7V257.356C244.7 258.484 245.336 259.144 246.404 259.144C247.448 259.144 248.096 258.484 248.096 257.356ZM251.631 260.5V254.452H253.155V254.932C253.575 254.524 254.139 254.212 254.943 254.212C256.251 254.212 257.295 255.112 257.295 256.9V260.5H255.759V256.96C255.759 256.156 255.303 255.652 254.559 255.652C253.791 255.652 253.383 256.168 253.155 256.552V260.5H251.631ZM259.793 253.396C259.253 253.396 258.797 252.94 258.797 252.4C258.797 251.86 259.253 251.404 259.793 251.404C260.333 251.404 260.777 251.86 260.777 252.4C260.777 252.94 260.333 253.396 259.793 253.396ZM259.025 260.5V254.452H260.549V260.5H259.025ZM262.761 258.292V255.82H261.633V254.452H262.761V252.94H264.297V254.452H266.145V255.82H264.297V258.292C264.297 258.964 264.657 259.228 265.257 259.228C265.677 259.228 265.953 259.18 266.157 259.096V260.428C265.857 260.56 265.497 260.62 264.993 260.62C263.481 260.62 262.761 259.768 262.761 258.292ZM270.908 253.492H269.444L270.692 251.5H272.348L270.908 253.492ZM272.96 259.516C272.396 260.272 271.46 260.74 270.32 260.74C268.172 260.74 266.96 259.24 266.96 257.476C266.96 255.688 268.088 254.212 270.068 254.212C271.748 254.212 272.852 255.352 272.852 256.936C272.852 257.272 272.804 257.584 272.756 257.788H268.52C268.664 258.916 269.36 259.372 270.308 259.372C270.968 259.372 271.544 259.084 271.868 258.652L272.96 259.516ZM270.032 255.46C269.252 255.46 268.736 255.892 268.568 256.684H271.352C271.328 256.072 270.884 255.46 270.032 255.46ZM278.344 253.396C277.804 253.396 277.348 252.94 277.348 252.4C277.348 251.86 277.804 251.404 278.344 251.404C278.884 251.404 279.328 251.86 279.328 252.4C279.328 252.94 278.884 253.396 278.344 253.396ZM277.576 260.5V254.452H279.1V260.5H277.576ZM280.928 260.5V254.452H282.452V254.932C282.872 254.524 283.436 254.212 284.24 254.212C285.548 254.212 286.592 255.112 286.592 256.9V260.5H285.056V256.96C285.056 256.156 284.6 255.652 283.856 255.652C283.088 255.652 282.68 256.168 282.452 256.552V260.5H280.928ZM288.706 258.292V255.82H287.578V254.452H288.706V252.94H290.242V254.452H292.09V255.82H290.242V258.292C290.242 258.964 290.602 259.228 291.202 259.228C291.622 259.228 291.898 259.18 292.102 259.096V260.428C291.802 260.56 291.442 260.62 290.938 260.62C289.426 260.62 288.706 259.768 288.706 258.292ZM296.854 253.492H295.39L296.638 251.5H298.294L296.854 253.492ZM298.906 259.516C298.342 260.272 297.406 260.74 296.266 260.74C294.118 260.74 292.906 259.24 292.906 257.476C292.906 255.688 294.034 254.212 296.014 254.212C297.694 254.212 298.798 255.352 298.798 256.936C298.798 257.272 298.75 257.584 298.702 257.788H294.466C294.61 258.916 295.306 259.372 296.254 259.372C296.914 259.372 297.49 259.084 297.814 258.652L298.906 259.516ZM295.978 255.46C295.198 255.46 294.682 255.892 294.514 256.684H297.298C297.274 256.072 296.83 255.46 295.978 255.46ZM300.287 260.5V254.452H301.811V255.052C302.207 254.644 302.723 254.332 303.407 254.332C303.611 254.332 303.791 254.368 303.935 254.416V255.916C303.743 255.868 303.539 255.832 303.263 255.832C302.519 255.832 302.039 256.24 301.811 256.624V260.5H300.287ZM305.93 253.396C305.39 253.396 304.934 252.94 304.934 252.4C304.934 251.86 305.39 251.404 305.93 251.404C306.47 251.404 306.914 251.86 306.914 252.4C306.914 252.94 306.47 253.396 305.93 253.396ZM305.162 260.5V254.452H306.686V260.5H305.162ZM314.082 259.516C313.518 260.272 312.582 260.74 311.442 260.74C309.294 260.74 308.082 259.24 308.082 257.476C308.082 255.688 309.21 254.212 311.19 254.212C312.87 254.212 313.974 255.352 313.974 256.936C313.974 257.272 313.926 257.584 313.878 257.788H309.642C309.786 258.916 310.482 259.372 311.43 259.372C312.09 259.372 312.666 259.084 312.99 258.652L314.082 259.516ZM311.154 255.46C310.374 255.46 309.858 255.892 309.69 256.684H312.474C312.45 256.072 312.006 255.46 311.154 255.46ZM319.376 257.884V254.452H320.912V257.812C320.912 259.624 319.856 260.74 318.08 260.74C316.304 260.74 315.26 259.624 315.26 257.812V254.452H316.796V257.884C316.796 258.76 317.252 259.3 318.092 259.3C318.92 259.3 319.376 258.76 319.376 257.884ZM322.6 260.5V254.452H324.124V255.052C324.52 254.644 325.036 254.332 325.72 254.332C325.924 254.332 326.104 254.368 326.248 254.416V255.916C326.056 255.868 325.852 255.832 325.576 255.832C324.832 255.832 324.352 256.24 324.124 256.624V260.5H322.6ZM332.785 259.516C332.221 260.272 331.285 260.74 330.145 260.74C327.997 260.74 326.785 259.24 326.785 257.476C326.785 255.688 327.913 254.212 329.893 254.212C331.573 254.212 332.677 255.352 332.677 256.936C332.677 257.272 332.629 257.584 332.581 257.788H328.345C328.489 258.916 329.185 259.372 330.133 259.372C330.793 259.372 331.369 259.084 331.693 258.652L332.785 259.516ZM329.857 255.46C329.077 255.46 328.561 255.892 328.393 256.684H331.177C331.153 256.072 330.709 255.46 329.857 255.46Z" fill="#304436"/>
</g>
<g filter="url(#filter1_d_2254_10095)">
<rect x="334" y="26" width="98" height="20" fill="white" shape-rendering="crispEdges"/>
<rect x="334.5" y="26.5" width="97" height="19" stroke="#304436" shape-rendering="crispEdges"/>
<path d="M342.096 38.356V33.1H343.8V38.212C343.8 40.42 342.504 41.74 340.392 41.74C338.292 41.74 336.996 40.42 336.996 38.212V33.1H338.7V38.356C338.7 39.484 339.336 40.144 340.404 40.144C341.448 40.144 342.096 39.484 342.096 38.356ZM345.631 41.5V35.452H347.155V35.932C347.575 35.524 348.139 35.212 348.943 35.212C350.251 35.212 351.295 36.112 351.295 37.9V41.5H349.759V37.96C349.759 37.156 349.303 36.652 348.559 36.652C347.791 36.652 347.383 37.168 347.155 37.552V41.5H345.631ZM353.793 34.396C353.253 34.396 352.797 33.94 352.797 33.4C352.797 32.86 353.253 32.404 353.793 32.404C354.333 32.404 354.777 32.86 354.777 33.4C354.777 33.94 354.333 34.396 353.793 34.396ZM353.025 41.5V35.452H354.549V41.5H353.025ZM356.761 39.292V36.82H355.633V35.452H356.761V33.94H358.297V35.452H360.145V36.82H358.297V39.292C358.297 39.964 358.657 40.228 359.257 40.228C359.677 40.228 359.953 40.18 360.157 40.096V41.428C359.857 41.56 359.497 41.62 358.993 41.62C357.481 41.62 356.761 40.768 356.761 39.292ZM364.908 34.492H363.444L364.692 32.5H366.348L364.908 34.492ZM366.96 40.516C366.396 41.272 365.46 41.74 364.32 41.74C362.172 41.74 360.96 40.24 360.96 38.476C360.96 36.688 362.088 35.212 364.068 35.212C365.748 35.212 366.852 36.352 366.852 37.936C366.852 38.272 366.804 38.584 366.756 38.788H362.52C362.664 39.916 363.36 40.372 364.308 40.372C364.968 40.372 365.544 40.084 365.868 39.652L366.96 40.516ZM364.032 36.46C363.252 36.46 362.736 36.892 362.568 37.684H365.352C365.328 37.072 364.884 36.46 364.032 36.46ZM377.144 40.516C376.58 41.272 375.644 41.74 374.504 41.74C372.356 41.74 371.144 40.24 371.144 38.476C371.144 36.688 372.272 35.212 374.252 35.212C375.932 35.212 377.036 36.352 377.036 37.936C377.036 38.272 376.988 38.584 376.94 38.788H372.704C372.848 39.916 373.544 40.372 374.492 40.372C375.152 40.372 375.728 40.084 376.052 39.652L377.144 40.516ZM374.216 36.46C373.436 36.46 372.92 36.892 372.752 37.684H375.536C375.512 37.072 375.068 36.46 374.216 36.46ZM379.395 41.5H377.643L379.779 38.392L377.763 35.452H379.503L380.751 37.312L381.999 35.452H383.751L381.723 38.392L383.859 41.5H382.119L380.751 39.472L379.395 41.5ZM385.319 39.292V36.82H384.191V35.452H385.319V33.94H386.855V35.452H388.703V36.82H386.855V39.292C386.855 39.964 387.215 40.228 387.815 40.228C388.235 40.228 388.511 40.18 388.715 40.096V41.428C388.415 41.56 388.055 41.62 387.551 41.62C386.039 41.62 385.319 40.768 385.319 39.292ZM393.467 34.492H392.003L393.251 32.5H394.907L393.467 34.492ZM395.519 40.516C394.955 41.272 394.019 41.74 392.879 41.74C390.731 41.74 389.519 40.24 389.519 38.476C389.519 36.688 390.647 35.212 392.627 35.212C394.307 35.212 395.411 36.352 395.411 37.936C395.411 38.272 395.363 38.584 395.315 38.788H391.079C391.223 39.916 391.919 40.372 392.867 40.372C393.527 40.372 394.103 40.084 394.427 39.652L395.519 40.516ZM392.591 36.46C391.811 36.46 391.295 36.892 391.127 37.684H393.911C393.887 37.072 393.443 36.46 392.591 36.46ZM396.9 41.5V35.452H398.424V36.052C398.82 35.644 399.336 35.332 400.02 35.332C400.224 35.332 400.404 35.368 400.548 35.416V36.916C400.356 36.868 400.152 36.832 399.876 36.832C399.132 36.832 398.652 37.24 398.424 37.624V41.5H396.9ZM402.543 34.396C402.003 34.396 401.547 33.94 401.547 33.4C401.547 32.86 402.003 32.404 402.543 32.404C403.083 32.404 403.527 32.86 403.527 33.4C403.527 33.94 403.083 34.396 402.543 34.396ZM401.775 41.5V35.452H403.299V41.5H401.775ZM410.695 40.516C410.131 41.272 409.195 41.74 408.055 41.74C405.907 41.74 404.695 40.24 404.695 38.476C404.695 36.688 405.823 35.212 407.803 35.212C409.483 35.212 410.587 36.352 410.587 37.936C410.587 38.272 410.539 38.584 410.491 38.788H406.255C406.399 39.916 407.095 40.372 408.043 40.372C408.703 40.372 409.279 40.084 409.603 39.652L410.695 40.516ZM407.767 36.46C406.987 36.46 406.471 36.892 406.303 37.684H409.087C409.063 37.072 408.619 36.46 407.767 36.46ZM415.99 38.884V35.452H417.526V38.812C417.526 40.624 416.47 41.74 414.694 41.74C412.918 41.74 411.874 40.624 411.874 38.812V35.452H413.41V38.884C413.41 39.76 413.866 40.3 414.706 40.3C415.534 40.3 415.99 39.76 415.99 38.884ZM419.213 41.5V35.452H420.737V36.052C421.133 35.644 421.649 35.332 422.333 35.332C422.537 35.332 422.717 35.368 422.861 35.416V36.916C422.669 36.868 422.465 36.832 422.189 36.832C421.445 36.832 420.965 37.24 420.737 37.624V41.5H419.213ZM429.398 40.516C428.834 41.272 427.898 41.74 426.758 41.74C424.61 41.74 423.398 40.24 423.398 38.476C423.398 36.688 424.526 35.212 426.506 35.212C428.186 35.212 429.29 36.352 429.29 37.936C429.29 38.272 429.242 38.584 429.194 38.788H424.958C425.102 39.916 425.798 40.372 426.746 40.372C427.406 40.372 427.982 40.084 428.306 39.652L429.398 40.516ZM426.47 36.46C425.69 36.46 425.174 36.892 425.006 37.684H427.79C427.766 37.072 427.322 36.46 426.47 36.46Z" fill="#304436"/>
</g>
<path d="M395.23 203.681L394 204.91" stroke="#304436" stroke-linecap="round"/>
<path d="M397.074 205.525L395.025 207.575" stroke="#304436" stroke-linecap="round"/>
<path d="M398.919 207.37L396.869 209.419" stroke="#304436" stroke-linecap="round"/>
<path d="M400.764 209.214L399.534 210.444" stroke="#304436" stroke-linecap="round"/>
<path d="M405 200H408V239H405L405 202.5L405 200Z" fill="white"/>
<path d="M405 202.5L405 239H408V200H405L405 202.5ZM405 202.5L402 204" stroke="#304436"/>
<path d="M395.879 202.506C395.879 202.506 398.385 200 401.606 203.221C404.828 206.443 402.322 208.948 402.322 208.948L395.879 202.506Z" fill="white" stroke="#304436"/>
<path d="M352.23 119.681L351 120.91" stroke="#304436" stroke-linecap="round"/>
<path d="M354.074 121.525L352.025 123.575" stroke="#304436" stroke-linecap="round"/>
<path d="M355.919 123.37L353.869 125.419" stroke="#304436" stroke-linecap="round"/>
<path d="M357.764 125.214L356.534 126.444" stroke="#304436" stroke-linecap="round"/>
<path d="M362 116H365V155H362L362 118.5L362 116Z" fill="white"/>
<path d="M362 118.5L362 155H365V116H362L362 118.5ZM362 118.5L359 120" stroke="#304436"/>
<path d="M352.879 118.506C352.879 118.506 355.385 116 358.606 119.221C361.828 122.443 359.322 124.948 359.322 124.948L352.879 118.506Z" fill="white" stroke="#304436"/>
<defs>
<filter id="filter0_d_2254_10095" x="240" y="245" width="97" height="21" filterUnits="userSpaceOnUse" color-interpolation-filters="sRGB">
<feFlood flood-opacity="0" result="BackgroundImageFix"/>
<feColorMatrix in="SourceAlpha" type="matrix" values="0 0 0 0 0 0 0 0 0 0 0 0 0 0 0 0 0 0 127 0" result="hardAlpha"/>
<feOffset dx="1" dy="1"/>
<feComposite in2="hardAlpha" operator="out"/>
<feColorMatrix type="matrix" values="0 0 0 0 0.188235 0 0 0 0 0.266667 0 0 0 0 0.211765 0 0 0 1 0"/>
<feBlend mode="normal" in2="BackgroundImageFix" result="effect1_dropShadow_2254_10095"/>
<feBlend mode="normal" in="SourceGraphic" in2="effect1_dropShadow_2254_10095" result="shape"/>
</filter>
<filter id="filter1_d_2254_10095" x="334" y="26" width="99" height="21" filterUnits="userSpaceOnUse" color-interpolation-filters="sRGB">
<feFlood flood-opacity="0" result="BackgroundImageFix"/>
<feColorMatrix in="SourceAlpha" type="matrix" values="0 0 0 0 0 0 0 0 0 0 0 0 0 0 0 0 0 0 127 0" result="hardAlpha"/>
<feOffset dx="1" dy="1"/>
<feComposite in2="hardAlpha" operator="out"/>
<feColorMatrix type="matrix" values="0 0 0 0 0.188235 0 0 0 0 0.266667 0 0 0 0 0.211765 0 0 0 1 0"/>
<feBlend mode="normal" in2="BackgroundImageFix" result="effect1_dropShadow_2254_10095"/>
<feBlend mode="normal" in="SourceGraphic" in2="effect1_dropShadow_2254_10095" result="shape"/>
</filter>
<clipPath id="clip0_2254_10095">
<rect x="249.11" y="21.813" width="28.4629" height="46.6189" rx="2" fill="white"/>
</clipPath>
<pattern id="pattern0_2254_10095" patternUnits="userSpaceOnUse" patternTransform="matrix(17 0 0 14 202.5 75.5)" preserveAspectRatio="none" viewBox="-0.5 -0.5 17 14" width="1" height="1">
<use xlink:href="#pattern0_2254_10095_inner" transform="translate(-25.5 -7)"/>
<use xlink:href="#pattern0_2254_10095_inner" transform="translate(-8.5 -7)"/>
<use xlink:href="#pattern0_2254_10095_inner" transform="translate(8.5 -7)"/>
<use xlink:href="#pattern0_2254_10095_inner" transform="translate(-34 0)"/>
<use xlink:href="#pattern0_2254_10095_inner" transform="translate(-17 0)"/>
<g id="pattern0_2254_10095_inner">
<rect width="17" height="7" fill="#F3E1D1" stroke="white"/>
</g>
<use xlink:href="#pattern0_2254_10095_inner" transform="translate(-25.5 7)"/>
<use xlink:href="#pattern0_2254_10095_inner" transform="translate(-8.5 7)"/>
<use xlink:href="#pattern0_2254_10095_inner" transform="translate(8.5 7)"/>
</pattern></defs>
</svg>
