<svg width="501" height="362" viewBox="0 0 501 362" fill="none" xmlns="http://www.w3.org/2000/svg" xmlns:xlink="http://www.w3.org/1999/xlink">
<path d="M0 0H500V362H0V0Z" fill="white"/>
<path d="M500 0H499V362H500H501V0H500Z" fill="#E9E9E9"/>
<path d="M434 288H56C46.6112 288 39 295.611 39 305V321C39 321 44.6904 323.442 48.5 324.5C64.5465 328.955 74.3628 321.735 91 321C110.312 320.147 121.184 320.228 140.5 321C158.307 321.712 168.259 326.189 186 324.5C199.768 323.19 206.946 332.753 220.5 330C242.774 325.476 255.277 321.487 278 321C296.222 320.61 306.308 326.116 324.5 325C335.139 324.347 340.892 322.043 351.5 321L351.814 320.969C372.803 318.905 385.081 317.697 406 321C424.123 323.862 451 334.5 451 334.5V305C451 295.611 443.389 288 434 288Z" fill="#9A8D81" stroke="#304436" stroke-width="2"/>
<path d="M39 354H451V334.5C451 334.5 424.123 323.861 406 321C385.081 317.697 372.803 318.905 351.814 320.969L351.5 321C340.892 322.043 335.139 324.347 324.5 325C306.308 326.116 296.222 320.61 278 321C255.277 321.487 242.774 325.476 220.5 330C206.946 332.753 199.768 323.189 186 324.5C168.259 326.189 158.307 321.712 140.5 321C121.184 320.228 110.312 320.147 91 321C74.3628 321.735 64.5465 328.955 48.5 324.5C44.6904 323.442 39 321 39 321V354Z" fill="#624D45" stroke="#304436" stroke-width="2"/>
<path d="M53.5 332H61.5" stroke="#304436" stroke-width="2" stroke-linecap="round"/>
<path d="M208 301H216" stroke="#304436" stroke-width="2" stroke-linecap="round"/>
<path d="M53 319H61" stroke="#304436" stroke-width="2" stroke-linecap="round"/>
<path d="M392 295H400" stroke="#304436" stroke-width="2" stroke-linecap="round"/>
<path d="M281 333H289" stroke="#304436" stroke-width="2" stroke-linecap="round"/>
<path d="M217 347H225" stroke="#304436" stroke-width="2" stroke-linecap="round"/>
<path d="M198 345H190" stroke="#304436" stroke-width="2" stroke-linecap="round"/>
<path d="M352.5 314H344.5" stroke="#304436" stroke-width="2" stroke-linecap="round"/>
<path d="M361 300H353" stroke="#304436" stroke-width="2" stroke-linecap="round"/>
<path d="M425.5 346H417.5" stroke="#304436" stroke-width="2" stroke-linecap="round"/>
<path d="M174 329H166" stroke="#304436" stroke-width="2" stroke-linecap="round"/>
<path d="M328.5 298H320.5" stroke="#304436" stroke-width="2" stroke-linecap="round"/>
<path d="M401.5 330H393.5" stroke="#304436" stroke-width="2" stroke-linecap="round"/>
<path d="M69.5 343H77.5" stroke="#304436" stroke-width="2" stroke-linecap="round"/>
<path d="M224 312H232" stroke="#304436" stroke-width="2" stroke-linecap="round"/>
<path d="M48 306H56" stroke="#304436" stroke-width="2" stroke-linecap="round"/>
<path d="M408 306H416" stroke="#304436" stroke-width="2" stroke-linecap="round"/>
<path d="M297 344H305" stroke="#304436" stroke-width="2" stroke-linecap="round"/>
<path d="M233 336H241" stroke="#304436" stroke-width="2" stroke-linecap="round"/>
<path d="M117.5 330H125.5" stroke="#304436" stroke-width="2" stroke-linecap="round"/>
<path d="M272 299H280" stroke="#304436" stroke-width="2" stroke-linecap="round"/>
<path d="M199 316H207" stroke="#304436" stroke-width="2" stroke-linecap="round"/>
<path d="M345 331H353" stroke="#304436" stroke-width="2" stroke-linecap="round"/>
<path d="M134 343H126" stroke="#304436" stroke-width="2" stroke-linecap="round"/>
<path d="M288.5 312H280.5" stroke="#304436" stroke-width="2" stroke-linecap="round"/>
<path d="M361.5 344H353.5" stroke="#304436" stroke-width="2" stroke-linecap="round"/>
<path d="M100.5 337H103.5" stroke="#304436" stroke-width="2" stroke-linecap="round"/>
<path d="M255 306H258" stroke="#304436" stroke-width="2" stroke-linecap="round"/>
<path d="M180 319H183" stroke="#304436" stroke-width="2" stroke-linecap="round"/>
<path d="M439 300H442" stroke="#304436" stroke-width="2" stroke-linecap="round"/>
<path d="M374 312H377" stroke="#304436" stroke-width="2" stroke-linecap="round"/>
<path d="M328 338H331" stroke="#304436" stroke-width="2" stroke-linecap="round"/>
<path d="M264 342H267" stroke="#304436" stroke-width="2" stroke-linecap="round"/>
<path d="M151 350H148" stroke="#304436" stroke-width="2" stroke-linecap="round"/>
<path d="M305.5 319H302.5" stroke="#304436" stroke-width="2" stroke-linecap="round"/>
<path d="M378.5 351H375.5" stroke="#304436" stroke-width="2" stroke-linecap="round"/>
<path d="M71 332L75 332" stroke="#304436" stroke-width="2" stroke-linecap="round"/>
<path d="M225.5 301L229.5 301" stroke="#304436" stroke-width="2" stroke-linecap="round"/>
<path d="M160 319L164 319" stroke="#304436" stroke-width="2" stroke-linecap="round"/>
<path d="M119 317L123 317" stroke="#304436" stroke-width="2" stroke-linecap="round"/>
<path d="M409.5 295L413.5 295" stroke="#304436" stroke-width="2" stroke-linecap="round"/>
<path d="M298.5 333L302.5 333" stroke="#304436" stroke-width="2" stroke-linecap="round"/>
<path d="M234.5 347L238.5 347" stroke="#304436" stroke-width="2" stroke-linecap="round"/>
<path d="M180.5 345L176.5 345" stroke="#304436" stroke-width="2" stroke-linecap="round"/>
<path d="M335 314L331 314" stroke="#304436" stroke-width="2" stroke-linecap="round"/>
<path d="M408 346L404 346" stroke="#304436" stroke-width="2" stroke-linecap="round"/>
<path d="M161.5 329L157.5 329" stroke="#304436" stroke-width="2" stroke-linecap="round"/>
<path d="M316 298L312 298" stroke="#304436" stroke-width="2" stroke-linecap="round"/>
<path d="M389 330L385 330" stroke="#304436" stroke-width="2" stroke-linecap="round"/>
<path d="M87 343L91 343" stroke="#304436" stroke-width="2" stroke-linecap="round"/>
<path d="M241.5 312L245.5 312" stroke="#304436" stroke-width="2" stroke-linecap="round"/>
<path d="M74 320L78 320" stroke="#304436" stroke-width="2" stroke-linecap="round"/>
<path d="M425.5 306L429.5 306" stroke="#304436" stroke-width="2" stroke-linecap="round"/>
<path d="M314.5 344L318.5 344" stroke="#304436" stroke-width="2" stroke-linecap="round"/>
<path d="M250.5 336L254.5 336" stroke="#304436" stroke-width="2" stroke-linecap="round"/>
<path d="M203 75H416V306H203V75Z" fill="#F3E1D1" stroke="#304436" stroke-width="2"/>
<rect x="229" y="155" width="186" height="4" fill="#CBB9A9"/>
<rect x="229" y="239" width="186" height="4" fill="#CBB9A9"/>
<rect x="229" y="70" width="188" height="6" fill="#727B74"/>
<path d="M235 19H401C409.837 19 417 26.1634 417 35V71H235V19Z" fill="#CCC4C4"/>
<path d="M417 132.5H369" stroke="#535F57" stroke-width="4"/>
<path d="M417 208H369" stroke="#535F57" stroke-width="4"/>
<path d="M417 140H369" stroke="#535F57" stroke-width="4"/>
<path d="M417 215.5H369" stroke="#535F57" stroke-width="4"/>
<path d="M203 86.7959V306H266.827C266.827 306 248.362 289.399 243.403 274.538C233.842 245.887 269.778 241.04 266.827 216.495C264.836 199.937 251.765 194.999 248.446 178.694C245.758 165.489 250.278 157.109 248.407 144.061C246.495 130.727 241.075 119.959 235.935 109.748C233.315 104.545 228.396 91.976 226.424 86.7959C225.574 83.3255 225.065 79.751 225.034 76H203V86.7959Z" fill="url(#pattern0_2269_3367)" stroke="#304436" stroke-width="2"/>
<path d="M212.001 299.228L211.844 290.229L213.368 290.202L213.525 299.201L212.001 299.228ZM218.122 292.832C220.09 292.798 221.459 294.226 221.491 296.038C221.522 297.849 220.204 299.325 218.236 299.359C216.268 299.393 214.899 297.965 214.868 296.153C214.836 294.341 216.154 292.866 218.122 292.832ZM218.235 297.919C219.207 297.902 219.925 297.109 219.907 296.065C219.888 295.009 219.143 294.254 218.171 294.271C217.163 294.289 216.433 295.07 216.451 296.126C216.47 297.181 217.227 297.936 218.235 297.919ZM225.874 297.785C226.474 297.775 226.949 297.491 227.23 297.066L228.434 297.957C227.883 298.71 227.003 299.206 225.9 299.225C223.812 299.262 222.538 297.784 222.507 296.02C222.476 294.256 223.698 292.735 225.786 292.698C226.889 292.679 227.786 293.143 228.363 293.877L227.191 294.81C226.895 294.395 226.411 294.127 225.787 294.138C224.791 294.156 224.072 294.936 224.091 295.992C224.109 297.06 224.855 297.803 225.874 297.785ZM231.19 299.073C229.978 299.094 229.138 298.412 229.119 297.297C229.103 296.385 229.799 295.689 231.091 295.45L232.933 295.106L232.93 294.95C232.919 294.314 232.432 293.914 231.736 293.926C231.148 293.937 230.697 294.221 230.381 294.67L229.25 293.838C229.777 293.085 230.657 292.613 231.761 292.594C233.513 292.563 234.431 293.591 234.454 294.923L234.522 298.835L232.998 298.861L232.988 298.273C232.612 298.748 231.898 299.06 231.19 299.073ZM230.629 297.198C230.636 297.606 230.965 297.865 231.481 297.856C232.177 297.843 232.675 297.511 232.966 297.025L232.952 296.174L231.516 296.439C230.882 296.558 230.623 296.826 230.629 297.198ZM236.267 298.804L236.11 289.805L237.634 289.779L237.791 298.778L236.267 298.804Z" fill="#535F57"/>
<path d="M202.965 157.906H197.359V151H202.965H207.709H217.628H227.413H238.194H248.185V157.906H238.194H227.413H217.628H207.709H202.965Z" fill="#E2D2C3"/>
<path d="M248.185 157.906H207.709M248.185 157.906H217.628M248.185 157.906V151M248.185 151H207.709M248.185 151H217.628M207.709 151H202.965H197.359V157.906H202.965H207.709M207.709 151V157.906M207.709 151H217.628M207.709 157.906H217.628M217.628 151V157.906M227.413 151V157.906M238.194 151V157.906" stroke="#304436" stroke-width="2"/>
<path d="M202.965 242.906H197.359V236H202.965H207.709H217.628H227.413H238.194H249H259.5L253.5 242.906H249H238.194H227.413H217.628H207.709H202.965Z" fill="#E2D2C3"/>
<path d="M253.5 242.906H207.709M253.5 242.906H217.628M253.5 242.906L259.5 236M259.5 236H207.709M259.5 236H217.628M207.709 236H202.965H197.359V242.906H202.965H207.709M207.709 236V242.906M207.709 236H217.628M207.709 242.906H217.628M217.628 236V242.906M227.413 236V242.906M238.194 236V242.906M249 236V242.906" stroke="#304436" stroke-width="2"/>
<path d="M198.95 76.2017H202.832H262.776V70.1585H198.95V76.2017Z" fill="#E2D2C3" stroke="#304436" stroke-width="2"/>
<path d="M230.134 17.4964L202.965 70.1585H263.02C262.564 45.0186 251.697 17.4964 251.697 17.4964H230.134Z" fill="#858181" stroke="#304436" stroke-width="2"/>
<path d="M243.935 19.9507L250.404 16.8304L263.341 10.5899L282.748 19.9507V70.1585H250.404H243.935V19.9507Z" fill="#F3E1D1" stroke="#274430" stroke-width="2"/>
<g clip-path="url(#clip0_2269_3367)">
<rect x="249.11" y="21.813" width="28.4629" height="46.6189" rx="2" fill="#93D3F6"/>
<path d="M249.11 42.2087L266.625 21.813H277.573L249.11 56.7771V42.2087Z" fill="white" fill-opacity="0.3"/>
<path d="M250.204 68.4318L277.573 35.4102V41.2375L254.583 68.4318H250.204Z" fill="white" fill-opacity="0.3"/>
<rect x="249.11" y="21.813" width="28.4629" height="7.76981" fill="#565656" fill-opacity="0.3"/>
</g>
<rect x="249.11" y="21.813" width="28.4629" height="46.6189" rx="2" stroke="#274430" stroke-width="2"/>
<path fill-rule="evenodd" clip-rule="evenodd" d="M262.91 70.1585L262.91 21.813L264.635 21.813L264.635 70.1585L262.91 70.1585Z" fill="#304436"/>
<path fill-rule="evenodd" clip-rule="evenodd" d="M277.573 45.9857L249.11 45.9857L249.11 44.2591L277.573 44.2591L277.573 45.9857Z" fill="#304436"/>
<rect x="241.347" y="66.7052" width="43.9881" height="3.45325" rx="1.72662" fill="#F3E1D1" stroke="#274430" stroke-width="2"/>
<g filter="url(#filter0_d_2269_3367)">
<rect x="392" y="147" width="44" height="20" fill="white" shape-rendering="crispEdges"/>
<rect x="392.5" y="147.5" width="43" height="19" stroke="#304436" shape-rendering="crispEdges"/>
<path d="M399.1 161.144C399.892 161.144 400.576 160.868 401.056 160.412V158.948H398.92V157.496H402.76V161.024C401.98 162.068 400.672 162.74 399.1 162.74C396.376 162.74 394.516 160.7 394.516 158.3C394.516 155.9 396.328 153.86 398.98 153.86C400.504 153.86 401.752 154.544 402.52 155.564L401.176 156.608C400.696 155.924 399.94 155.456 398.98 155.456C397.396 155.456 396.268 156.692 396.268 158.3C396.268 159.908 397.456 161.144 399.1 161.144ZM406.073 162.68C404.861 162.68 404.033 161.984 404.033 160.868C404.033 159.956 404.741 159.272 406.037 159.056L407.885 158.744V158.588C407.885 157.952 407.405 157.544 406.709 157.544C406.121 157.544 405.665 157.82 405.341 158.264L404.225 157.412C404.765 156.668 405.653 156.212 406.757 156.212C408.509 156.212 409.409 157.256 409.409 158.588V162.5H407.885V161.912C407.501 162.38 406.781 162.68 406.073 162.68ZM405.545 160.796C405.545 161.204 405.869 161.468 406.385 161.468C407.081 161.468 407.585 161.144 407.885 160.664V159.812L406.445 160.052C405.809 160.16 405.545 160.424 405.545 160.796ZM411.922 155.396C411.382 155.396 410.926 154.94 410.926 154.4C410.926 153.86 411.382 153.404 411.922 153.404C412.462 153.404 412.906 153.86 412.906 154.4C412.906 154.94 412.462 155.396 411.922 155.396ZM411.154 162.5V156.452H412.678V162.5H411.154ZM414.506 162.5V156.452H416.03V156.932C416.45 156.524 417.014 156.212 417.818 156.212C419.126 156.212 420.17 157.112 420.17 158.9V162.5H418.634V158.96C418.634 158.156 418.178 157.652 417.434 157.652C416.666 157.652 416.258 158.168 416.03 158.552V162.5H414.506ZM427.468 161.516C426.904 162.272 425.968 162.74 424.828 162.74C422.68 162.74 421.468 161.24 421.468 159.476C421.468 157.688 422.596 156.212 424.576 156.212C426.256 156.212 427.36 157.352 427.36 158.936C427.36 159.272 427.312 159.584 427.264 159.788H423.028C423.172 160.916 423.868 161.372 424.816 161.372C425.476 161.372 426.052 161.084 426.376 160.652L427.468 161.516ZM424.54 157.46C423.76 157.46 423.244 157.892 423.076 158.684H425.86C425.836 158.072 425.392 157.46 424.54 157.46ZM428.239 161.624L429.247 160.712C429.619 161.18 430.063 161.516 430.639 161.516C431.131 161.516 431.383 161.228 431.383 160.868C431.383 159.812 428.491 160.208 428.491 158.084C428.491 157.016 429.391 156.212 430.651 156.212C431.575 156.212 432.415 156.656 432.847 157.244L431.839 158.132C431.527 157.748 431.131 157.436 430.663 157.436C430.183 157.436 429.955 157.7 429.955 158.012C429.955 159.044 432.847 158.684 432.847 160.772C432.823 162.044 431.803 162.74 430.663 162.74C429.583 162.74 428.815 162.308 428.239 161.624Z" fill="#304436"/>
</g>
<g filter="url(#filter1_d_2269_3367)">
<rect x="310" y="247" width="96" height="20" fill="white" shape-rendering="crispEdges"/>
<rect x="310.5" y="247.5" width="95" height="19" stroke="#304436" shape-rendering="crispEdges"/>
<path d="M318.096 259.356V254.1H319.8V259.212C319.8 261.42 318.504 262.74 316.392 262.74C314.292 262.74 312.996 261.42 312.996 259.212V254.1H314.7V259.356C314.7 260.484 315.336 261.144 316.404 261.144C317.448 261.144 318.096 260.484 318.096 259.356ZM321.631 262.5V256.452H323.155V256.932C323.575 256.524 324.139 256.212 324.943 256.212C326.251 256.212 327.295 257.112 327.295 258.9V262.5H325.759V258.96C325.759 258.156 325.303 257.652 324.559 257.652C323.791 257.652 323.383 258.168 323.155 258.552V262.5H321.631ZM329.793 255.396C329.253 255.396 328.797 254.94 328.797 254.4C328.797 253.86 329.253 253.404 329.793 253.404C330.333 253.404 330.777 253.86 330.777 254.4C330.777 254.94 330.333 255.396 329.793 255.396ZM329.025 262.5V256.452H330.549V262.5H329.025ZM332.761 260.292V257.82H331.633V256.452H332.761V254.94H334.297V256.452H336.145V257.82H334.297V260.292C334.297 260.964 334.657 261.228 335.257 261.228C335.677 261.228 335.953 261.18 336.157 261.096V262.428C335.857 262.56 335.497 262.62 334.993 262.62C333.481 262.62 332.761 261.768 332.761 260.292ZM340.908 255.492H339.444L340.692 253.5H342.348L340.908 255.492ZM342.96 261.516C342.396 262.272 341.46 262.74 340.32 262.74C338.172 262.74 336.96 261.24 336.96 259.476C336.96 257.688 338.088 256.212 340.068 256.212C341.748 256.212 342.852 257.352 342.852 258.936C342.852 259.272 342.804 259.584 342.756 259.788H338.52C338.664 260.916 339.36 261.372 340.308 261.372C340.968 261.372 341.544 261.084 341.868 260.652L342.96 261.516ZM340.032 257.46C339.252 257.46 338.736 257.892 338.568 258.684H341.352C341.328 258.072 340.884 257.46 340.032 257.46ZM348.344 255.396C347.804 255.396 347.348 254.94 347.348 254.4C347.348 253.86 347.804 253.404 348.344 253.404C348.884 253.404 349.328 253.86 349.328 254.4C349.328 254.94 348.884 255.396 348.344 255.396ZM347.576 262.5V256.452H349.1V262.5H347.576ZM350.928 262.5V256.452H352.452V256.932C352.872 256.524 353.436 256.212 354.24 256.212C355.548 256.212 356.592 257.112 356.592 258.9V262.5H355.056V258.96C355.056 258.156 354.6 257.652 353.856 257.652C353.088 257.652 352.68 258.168 352.452 258.552V262.5H350.928ZM358.706 260.292V257.82H357.578V256.452H358.706V254.94H360.242V256.452H362.09V257.82H360.242V260.292C360.242 260.964 360.602 261.228 361.202 261.228C361.622 261.228 361.898 261.18 362.102 261.096V262.428C361.802 262.56 361.442 262.62 360.938 262.62C359.426 262.62 358.706 261.768 358.706 260.292ZM366.854 255.492H365.39L366.638 253.5H368.294L366.854 255.492ZM368.906 261.516C368.342 262.272 367.406 262.74 366.266 262.74C364.118 262.74 362.906 261.24 362.906 259.476C362.906 257.688 364.034 256.212 366.014 256.212C367.694 256.212 368.798 257.352 368.798 258.936C368.798 259.272 368.75 259.584 368.702 259.788H364.466C364.61 260.916 365.306 261.372 366.254 261.372C366.914 261.372 367.49 261.084 367.814 260.652L368.906 261.516ZM365.978 257.46C365.198 257.46 364.682 257.892 364.514 258.684H367.298C367.274 258.072 366.83 257.46 365.978 257.46ZM370.287 262.5V256.452H371.811V257.052C372.207 256.644 372.723 256.332 373.407 256.332C373.611 256.332 373.791 256.368 373.935 256.416V257.916C373.743 257.868 373.539 257.832 373.263 257.832C372.519 257.832 372.039 258.24 371.811 258.624V262.5H370.287ZM375.93 255.396C375.39 255.396 374.934 254.94 374.934 254.4C374.934 253.86 375.39 253.404 375.93 253.404C376.47 253.404 376.914 253.86 376.914 254.4C376.914 254.94 376.47 255.396 375.93 255.396ZM375.162 262.5V256.452H376.686V262.5H375.162ZM384.082 261.516C383.518 262.272 382.582 262.74 381.442 262.74C379.294 262.74 378.082 261.24 378.082 259.476C378.082 257.688 379.21 256.212 381.19 256.212C382.87 256.212 383.974 257.352 383.974 258.936C383.974 259.272 383.926 259.584 383.878 259.788H379.642C379.786 260.916 380.482 261.372 381.43 261.372C382.09 261.372 382.666 261.084 382.99 260.652L384.082 261.516ZM381.154 257.46C380.374 257.46 379.858 257.892 379.69 258.684H382.474C382.45 258.072 382.006 257.46 381.154 257.46ZM389.376 259.884V256.452H390.912V259.812C390.912 261.624 389.856 262.74 388.08 262.74C386.304 262.74 385.26 261.624 385.26 259.812V256.452H386.796V259.884C386.796 260.76 387.252 261.3 388.092 261.3C388.92 261.3 389.376 260.76 389.376 259.884ZM392.6 262.5V256.452H394.124V257.052C394.52 256.644 395.036 256.332 395.72 256.332C395.924 256.332 396.104 256.368 396.248 256.416V257.916C396.056 257.868 395.852 257.832 395.576 257.832C394.832 257.832 394.352 258.24 394.124 258.624V262.5H392.6ZM402.785 261.516C402.221 262.272 401.285 262.74 400.145 262.74C397.997 262.74 396.785 261.24 396.785 259.476C396.785 257.688 397.913 256.212 399.893 256.212C401.573 256.212 402.677 257.352 402.677 258.936C402.677 259.272 402.629 259.584 402.581 259.788H398.345C398.489 260.916 399.185 261.372 400.133 261.372C400.793 261.372 401.369 261.084 401.693 260.652L402.785 261.516ZM399.857 257.46C399.077 257.46 398.561 257.892 398.393 258.684H401.177C401.153 258.072 400.709 257.46 399.857 257.46Z" fill="#304436"/>
</g>
<path d="M272 140H355" stroke="#465FB1" stroke-width="2"/>
<path d="M277 223.5H350" stroke="#465FB1" stroke-width="2"/>
<path fill-rule="evenodd" clip-rule="evenodd" d="M267.297 132.537V135.965C267.297 135.742 267.485 135.561 267.717 135.561H270.24C270.473 135.561 270.661 135.742 270.661 135.965V132.537C270.661 132.76 270.473 132.94 270.24 132.94H267.717C267.485 132.94 267.297 132.76 267.297 132.537Z" fill="white"/>
<path d="M270.661 148.264V135.965C270.661 135.742 270.473 135.561 270.24 135.561H267.717C267.485 135.561 267.297 135.742 267.297 135.965V148.264C267.297 148.487 267.485 148.668 267.717 148.668H270.24C270.473 148.668 270.661 148.487 270.661 148.264Z" fill="white"/>
<path d="M270.24 130.319H267.717C267.485 130.319 267.297 130.499 267.297 130.722V132.537C267.297 132.76 267.485 132.94 267.717 132.94H270.24C270.473 132.94 270.661 132.76 270.661 132.537V130.722C270.661 130.499 270.473 130.319 270.24 130.319Z" fill="white"/>
<path fill-rule="evenodd" clip-rule="evenodd" d="M270.578 132.537V135.965C270.578 135.742 270.766 135.561 270.999 135.561H273.522C273.754 135.561 273.942 135.742 273.942 135.965V132.537C273.942 132.76 273.754 132.94 273.522 132.94H270.999C270.766 132.94 270.578 132.76 270.578 132.537Z" fill="white"/>
<path d="M273.942 148.264V135.965C273.942 135.742 273.754 135.561 273.522 135.561H270.999C270.766 135.561 270.578 135.742 270.578 135.965V148.264C270.578 148.487 270.766 148.668 270.999 148.668H273.522C273.754 148.668 273.942 148.487 273.942 148.264Z" fill="white"/>
<path d="M273.522 130.319H270.999C270.766 130.319 270.578 130.499 270.578 130.722V132.537C270.578 132.76 270.766 132.94 270.999 132.94H273.522C273.754 132.94 273.942 132.76 273.942 132.537V130.722C273.942 130.499 273.754 130.319 273.522 130.319Z" fill="white"/>
<path fill-rule="evenodd" clip-rule="evenodd" d="M273.859 132.53V135.958C273.859 135.736 274.048 135.555 274.28 135.555H276.803C277.035 135.555 277.223 135.736 277.223 135.958V132.53C277.223 132.753 277.035 132.934 276.803 132.934H274.28C274.048 132.934 273.859 132.753 273.859 132.53Z" fill="white"/>
<path d="M277.223 148.258V135.958C277.223 135.736 277.035 135.555 276.803 135.555H274.28C274.048 135.555 273.859 135.736 273.859 135.958V148.258C273.859 148.481 274.048 148.661 274.28 148.661H276.803C277.035 148.661 277.223 148.481 277.223 148.258Z" fill="white"/>
<path d="M276.803 130.312H274.28C274.048 130.312 273.859 130.493 273.859 130.716V132.53C273.859 132.753 274.048 132.934 274.28 132.934H276.803C277.035 132.934 277.223 132.753 277.223 132.53V130.716C277.223 130.493 277.035 130.312 276.803 130.312Z" fill="white"/>
<path fill-rule="evenodd" clip-rule="evenodd" d="M277.469 132.53V135.958C277.469 135.736 277.657 135.555 277.889 135.555H280.412C280.644 135.555 280.833 135.736 280.833 135.958V132.53C280.833 132.753 280.644 132.934 280.412 132.934H277.889C277.657 132.934 277.469 132.753 277.469 132.53Z" fill="white"/>
<path d="M280.833 148.258V135.958C280.833 135.736 280.644 135.555 280.412 135.555H277.889C277.657 135.555 277.469 135.736 277.469 135.958V148.258C277.469 148.481 277.657 148.661 277.889 148.661H280.412C280.644 148.661 280.833 148.481 280.833 148.258Z" fill="white"/>
<path d="M280.412 130.312H277.889C277.657 130.312 277.469 130.493 277.469 130.716V132.53C277.469 132.753 277.657 132.934 277.889 132.934H280.412C280.644 132.934 280.833 132.753 280.833 132.53V130.716C280.833 130.493 280.644 130.312 280.412 130.312Z" fill="white"/>
<path fill-rule="evenodd" clip-rule="evenodd" d="M280.75 132.53V135.958C280.75 135.736 280.938 135.555 281.17 135.555H283.693C283.926 135.555 284.114 135.736 284.114 135.958V132.53C284.114 132.753 283.926 132.934 283.693 132.934H281.17C280.938 132.934 280.75 132.753 280.75 132.53Z" fill="white"/>
<path d="M284.114 148.258V135.958C284.114 135.736 283.926 135.555 283.693 135.555H281.17C280.938 135.555 280.75 135.736 280.75 135.958V148.258C280.75 148.481 280.938 148.661 281.17 148.661H283.693C283.926 148.661 284.114 148.481 284.114 148.258Z" fill="white"/>
<path d="M283.693 130.312H281.17C280.938 130.312 280.75 130.493 280.75 130.716V132.53C280.75 132.753 280.938 132.934 281.17 132.934H283.693C283.926 132.934 284.114 132.753 284.114 132.53V130.716C284.114 130.493 283.926 130.312 283.693 130.312Z" fill="white"/>
<path d="M270.427 132.532V130.716C270.427 130.413 269.944 130.312 269.72 130.312V148.674C269.944 148.674 270.427 148.674 270.427 148.27V135.962V132.532Z" fill="#565656" fill-opacity="0.3"/>
<path fill-rule="evenodd" clip-rule="evenodd" d="M267.213 132.537V135.965C267.213 135.742 267.402 135.561 267.634 135.561H270.157C270.389 135.561 270.577 135.742 270.577 135.965V132.537C270.577 132.76 270.389 132.94 270.157 132.94H267.634C267.402 132.94 267.213 132.76 267.213 132.537Z" fill="#565656" fill-opacity="0.3"/>
<path d="M267.213 148.264V130.722M267.213 148.264C267.213 148.487 267.402 148.668 267.634 148.668H270.157C270.389 148.668 270.577 148.487 270.577 148.264M267.213 148.264V135.965M270.577 148.264V130.722M270.577 148.264V135.965M270.577 130.722C270.577 130.499 270.389 130.319 270.157 130.319H267.634C267.402 130.319 267.213 130.499 267.213 130.722M270.577 130.722V132.537M270.577 130.722V135.965M267.213 130.722V132.537M267.213 130.722V135.965M267.213 132.537C267.213 132.76 267.402 132.94 267.634 132.94H270.157C270.389 132.94 270.577 132.76 270.577 132.537M267.213 132.537V135.965M270.577 132.537V135.965M270.577 135.965C270.577 135.742 270.389 135.561 270.157 135.561H267.634C267.402 135.561 267.213 135.742 267.213 135.965" stroke="#304436"/>
<path d="M273.791 132.532V130.716C273.791 130.413 273.308 130.312 273.084 130.312V148.674C273.308 148.674 273.791 148.674 273.791 148.27V135.962V132.532Z" fill="#565656" fill-opacity="0.3"/>
<path fill-rule="evenodd" clip-rule="evenodd" d="M270.577 132.537V135.965C270.577 135.742 270.766 135.561 270.998 135.561H273.521C273.753 135.561 273.941 135.742 273.941 135.965V132.537C273.941 132.76 273.753 132.94 273.521 132.94H270.998C270.766 132.94 270.577 132.76 270.577 132.537Z" fill="#565656" fill-opacity="0.3"/>
<path d="M270.577 148.264V130.722M270.577 148.264C270.577 148.487 270.766 148.668 270.998 148.668H273.521C273.753 148.668 273.941 148.487 273.941 148.264M270.577 148.264V135.965M273.941 148.264V130.722M273.941 148.264V135.965M273.941 130.722C273.941 130.499 273.753 130.319 273.521 130.319H270.998C270.766 130.319 270.577 130.499 270.577 130.722M273.941 130.722V132.537M273.941 130.722V135.965M270.577 130.722V132.537M270.577 130.722V135.965M270.577 132.537C270.577 132.76 270.766 132.94 270.998 132.94H273.521C273.753 132.94 273.941 132.76 273.941 132.537M270.577 132.537V135.965M273.941 132.537V135.965M273.941 135.965C273.941 135.742 273.753 135.561 273.521 135.561H270.998C270.766 135.561 270.577 135.742 270.577 135.965" stroke="#304436"/>
<path d="M277.155 132.532V130.716C277.155 130.413 276.672 130.312 276.448 130.312V148.674C276.672 148.674 277.155 148.674 277.155 148.27V135.962V132.532Z" fill="#565656" fill-opacity="0.3"/>
<path fill-rule="evenodd" clip-rule="evenodd" d="M273.941 132.537V135.965C273.941 135.742 274.13 135.561 274.362 135.561H276.885C277.117 135.561 277.305 135.742 277.305 135.965V132.537C277.305 132.76 277.117 132.94 276.885 132.94H274.362C274.13 132.94 273.941 132.76 273.941 132.537Z" fill="#565656" fill-opacity="0.3"/>
<path d="M273.941 148.264V130.722M273.941 148.264C273.941 148.487 274.13 148.668 274.362 148.668H276.885C277.117 148.668 277.305 148.487 277.305 148.264M273.941 148.264V135.965M277.305 148.264V130.722M277.305 148.264V135.965M277.305 130.722C277.305 130.499 277.117 130.319 276.885 130.319H274.362C274.13 130.319 273.941 130.499 273.941 130.722M277.305 130.722V132.537M277.305 130.722V135.965M273.941 130.722V132.537M273.941 130.722V135.965M273.941 132.537C273.941 132.76 274.13 132.94 274.362 132.94H276.885C277.117 132.94 277.305 132.76 277.305 132.537M273.941 132.537V135.965M277.305 132.537V135.965M277.305 135.965C277.305 135.742 277.117 135.561 276.885 135.561H274.362C274.13 135.561 273.941 135.742 273.941 135.965" stroke="#304436"/>
<path d="M280.519 132.532V130.716C280.519 130.413 280.036 130.312 279.812 130.312V148.674C280.036 148.674 280.519 148.674 280.519 148.27V135.962V132.532Z" fill="#565656" fill-opacity="0.3"/>
<path fill-rule="evenodd" clip-rule="evenodd" d="M277.305 132.537V135.965C277.305 135.742 277.494 135.561 277.726 135.561H280.249C280.481 135.561 280.669 135.742 280.669 135.965V132.537C280.669 132.76 280.481 132.94 280.249 132.94H277.726C277.494 132.94 277.305 132.76 277.305 132.537Z" fill="#565656" fill-opacity="0.3"/>
<path d="M277.305 148.264V130.722M277.305 148.264C277.305 148.487 277.494 148.668 277.726 148.668H280.249C280.481 148.668 280.669 148.487 280.669 148.264M277.305 148.264V135.965M280.669 148.264V130.722M280.669 148.264V135.965M280.669 130.722C280.669 130.499 280.481 130.319 280.249 130.319H277.726C277.494 130.319 277.305 130.499 277.305 130.722M280.669 130.722V132.537M280.669 130.722V135.965M277.305 130.722V132.537M277.305 130.722V135.965M277.305 132.537C277.305 132.76 277.494 132.94 277.726 132.94H280.249C280.481 132.94 280.669 132.76 280.669 132.537M277.305 132.537V135.965M280.669 132.537V135.965M280.669 135.965C280.669 135.742 280.481 135.561 280.249 135.561H277.726C277.494 135.561 277.305 135.742 277.305 135.965" stroke="#304436"/>
<path d="M283.883 132.532V130.716C283.883 130.413 283.399 130.312 283.176 130.312V148.674C283.399 148.674 283.883 148.674 283.883 148.27V135.962V132.532Z" fill="#565656" fill-opacity="0.3"/>
<path fill-rule="evenodd" clip-rule="evenodd" d="M280.669 132.537V135.965C280.669 135.742 280.857 135.561 281.09 135.561H283.613C283.845 135.561 284.033 135.742 284.033 135.965V132.537C284.033 132.76 283.845 132.94 283.613 132.94H281.09C280.857 132.94 280.669 132.76 280.669 132.537Z" fill="#565656" fill-opacity="0.3"/>
<path d="M280.669 148.264V130.722M280.669 148.264C280.669 148.487 280.857 148.668 281.09 148.668H283.613C283.845 148.668 284.033 148.487 284.033 148.264M280.669 148.264V135.965M284.033 148.264V130.722M284.033 148.264V135.965M284.033 130.722C284.033 130.499 283.845 130.319 283.613 130.319H281.09C280.857 130.319 280.669 130.499 280.669 130.722M284.033 130.722V132.537M284.033 130.722V135.965M280.669 130.722V132.537M280.669 130.722V135.965M280.669 132.537C280.669 132.76 280.857 132.94 281.09 132.94H283.613C283.845 132.94 284.033 132.76 284.033 132.537M280.669 132.537V135.965M284.033 132.537V135.965M284.033 135.965C284.033 135.742 283.845 135.561 283.613 135.561H281.09C280.857 135.561 280.669 135.742 280.669 135.965" stroke="#304436"/>
<path d="M267.196 132.324L266.691 132.324C266.301 132.324 265.984 132.008 265.984 131.618C265.984 131.228 266.301 130.912 266.691 130.912L267.196 130.912L267.196 132.324Z" stroke="#304436"/>
<path d="M267.213 132.453L266.755 132.453C266.332 132.453 265.99 132.111 265.99 131.689C265.99 131.266 266.332 130.924 266.755 130.924L267.213 130.924L267.213 132.453Z" fill="white" stroke="#304436"/>
<path d="M284.033 130.924H284.492C284.914 130.924 285.256 131.266 285.256 131.689C285.256 132.111 284.914 132.453 284.492 132.453H284.033L284.033 130.924Z" fill="white" stroke="#304436"/>
<path fill-rule="evenodd" clip-rule="evenodd" d="M267.297 216.537V219.965C267.297 219.742 267.485 219.561 267.717 219.561H270.24C270.473 219.561 270.661 219.742 270.661 219.965V216.537C270.661 216.76 270.473 216.94 270.24 216.94H267.717C267.485 216.94 267.297 216.76 267.297 216.537Z" fill="white"/>
<path d="M270.661 232.264V219.965C270.661 219.742 270.473 219.561 270.24 219.561H267.717C267.485 219.561 267.297 219.742 267.297 219.965V232.264C267.297 232.487 267.485 232.668 267.717 232.668H270.24C270.473 232.668 270.661 232.487 270.661 232.264Z" fill="white"/>
<path d="M270.24 214.319H267.717C267.485 214.319 267.297 214.499 267.297 214.722V216.537C267.297 216.76 267.485 216.94 267.717 216.94H270.24C270.473 216.94 270.661 216.76 270.661 216.537V214.722C270.661 214.499 270.473 214.319 270.24 214.319Z" fill="white"/>
<path fill-rule="evenodd" clip-rule="evenodd" d="M270.578 216.537V219.965C270.578 219.742 270.766 219.561 270.999 219.561H273.522C273.754 219.561 273.942 219.742 273.942 219.965V216.537C273.942 216.76 273.754 216.94 273.522 216.94H270.999C270.766 216.94 270.578 216.76 270.578 216.537Z" fill="white"/>
<path d="M273.942 232.264V219.965C273.942 219.742 273.754 219.561 273.522 219.561H270.999C270.766 219.561 270.578 219.742 270.578 219.965V232.264C270.578 232.487 270.766 232.668 270.999 232.668H273.522C273.754 232.668 273.942 232.487 273.942 232.264Z" fill="white"/>
<path d="M273.522 214.319H270.999C270.766 214.319 270.578 214.499 270.578 214.722V216.537C270.578 216.76 270.766 216.94 270.999 216.94H273.522C273.754 216.94 273.942 216.76 273.942 216.537V214.722C273.942 214.499 273.754 214.319 273.522 214.319Z" fill="white"/>
<path fill-rule="evenodd" clip-rule="evenodd" d="M273.859 216.53V219.958C273.859 219.736 274.048 219.555 274.28 219.555H276.803C277.035 219.555 277.223 219.736 277.223 219.958V216.53C277.223 216.753 277.035 216.934 276.803 216.934H274.28C274.048 216.934 273.859 216.753 273.859 216.53Z" fill="white"/>
<path d="M277.223 232.258V219.958C277.223 219.736 277.035 219.555 276.803 219.555H274.28C274.048 219.555 273.859 219.736 273.859 219.958V232.258C273.859 232.481 274.048 232.661 274.28 232.661H276.803C277.035 232.661 277.223 232.481 277.223 232.258Z" fill="white"/>
<path d="M276.803 214.312H274.28C274.048 214.312 273.859 214.493 273.859 214.716V216.53C273.859 216.753 274.048 216.934 274.28 216.934H276.803C277.035 216.934 277.223 216.753 277.223 216.53V214.716C277.223 214.493 277.035 214.312 276.803 214.312Z" fill="white"/>
<path fill-rule="evenodd" clip-rule="evenodd" d="M277.469 216.53V219.958C277.469 219.736 277.657 219.555 277.889 219.555H280.412C280.644 219.555 280.833 219.736 280.833 219.958V216.53C280.833 216.753 280.644 216.934 280.412 216.934H277.889C277.657 216.934 277.469 216.753 277.469 216.53Z" fill="white"/>
<path d="M280.833 232.258V219.958C280.833 219.736 280.644 219.555 280.412 219.555H277.889C277.657 219.555 277.469 219.736 277.469 219.958V232.258C277.469 232.481 277.657 232.661 277.889 232.661H280.412C280.644 232.661 280.833 232.481 280.833 232.258Z" fill="white"/>
<path d="M280.412 214.312H277.889C277.657 214.312 277.469 214.493 277.469 214.716V216.53C277.469 216.753 277.657 216.934 277.889 216.934H280.412C280.644 216.934 280.833 216.753 280.833 216.53V214.716C280.833 214.493 280.644 214.312 280.412 214.312Z" fill="white"/>
<path fill-rule="evenodd" clip-rule="evenodd" d="M280.75 216.53V219.958C280.75 219.736 280.938 219.555 281.17 219.555H283.693C283.926 219.555 284.114 219.736 284.114 219.958V216.53C284.114 216.753 283.926 216.934 283.693 216.934H281.17C280.938 216.934 280.75 216.753 280.75 216.53Z" fill="white"/>
<path d="M284.114 232.258V219.958C284.114 219.736 283.926 219.555 283.693 219.555H281.17C280.938 219.555 280.75 219.736 280.75 219.958V232.258C280.75 232.481 280.938 232.661 281.17 232.661H283.693C283.926 232.661 284.114 232.481 284.114 232.258Z" fill="white"/>
<path d="M283.693 214.312H281.17C280.938 214.312 280.75 214.493 280.75 214.716V216.53C280.75 216.753 280.938 216.934 281.17 216.934H283.693C283.926 216.934 284.114 216.753 284.114 216.53V214.716C284.114 214.493 283.926 214.312 283.693 214.312Z" fill="white"/>
<path d="M270.427 216.532V214.716C270.427 214.413 269.944 214.312 269.72 214.312V232.674C269.944 232.674 270.427 232.674 270.427 232.27V219.962V216.532Z" fill="#565656" fill-opacity="0.3"/>
<path fill-rule="evenodd" clip-rule="evenodd" d="M267.213 216.537V219.965C267.213 219.742 267.402 219.561 267.634 219.561H270.157C270.389 219.561 270.577 219.742 270.577 219.965V216.537C270.577 216.76 270.389 216.94 270.157 216.94H267.634C267.402 216.94 267.213 216.76 267.213 216.537Z" fill="#565656" fill-opacity="0.3"/>
<path d="M267.213 232.264V214.722M267.213 232.264C267.213 232.487 267.402 232.668 267.634 232.668H270.157C270.389 232.668 270.577 232.487 270.577 232.264M267.213 232.264V219.965M270.577 232.264V214.722M270.577 232.264V219.965M270.577 214.722C270.577 214.499 270.389 214.319 270.157 214.319H267.634C267.402 214.319 267.213 214.499 267.213 214.722M270.577 214.722V216.537M270.577 214.722V219.965M267.213 214.722V216.537M267.213 214.722V219.965M267.213 216.537C267.213 216.76 267.402 216.94 267.634 216.94H270.157C270.389 216.94 270.577 216.76 270.577 216.537M267.213 216.537V219.965M270.577 216.537V219.965M270.577 219.965C270.577 219.742 270.389 219.561 270.157 219.561H267.634C267.402 219.561 267.213 219.742 267.213 219.965" stroke="#304436"/>
<path d="M273.791 216.532V214.716C273.791 214.413 273.308 214.312 273.084 214.312V232.674C273.308 232.674 273.791 232.674 273.791 232.27V219.962V216.532Z" fill="#565656" fill-opacity="0.3"/>
<path fill-rule="evenodd" clip-rule="evenodd" d="M270.577 216.537V219.965C270.577 219.742 270.766 219.561 270.998 219.561H273.521C273.753 219.561 273.941 219.742 273.941 219.965V216.537C273.941 216.76 273.753 216.94 273.521 216.94H270.998C270.766 216.94 270.577 216.76 270.577 216.537Z" fill="#565656" fill-opacity="0.3"/>
<path d="M270.577 232.264V214.722M270.577 232.264C270.577 232.487 270.766 232.668 270.998 232.668H273.521C273.753 232.668 273.941 232.487 273.941 232.264M270.577 232.264V219.965M273.941 232.264V214.722M273.941 232.264V219.965M273.941 214.722C273.941 214.499 273.753 214.319 273.521 214.319H270.998C270.766 214.319 270.577 214.499 270.577 214.722M273.941 214.722V216.537M273.941 214.722V219.965M270.577 214.722V216.537M270.577 214.722V219.965M270.577 216.537C270.577 216.76 270.766 216.94 270.998 216.94H273.521C273.753 216.94 273.941 216.76 273.941 216.537M270.577 216.537V219.965M273.941 216.537V219.965M273.941 219.965C273.941 219.742 273.753 219.561 273.521 219.561H270.998C270.766 219.561 270.577 219.742 270.577 219.965" stroke="#304436"/>
<path d="M277.155 216.532V214.716C277.155 214.413 276.672 214.312 276.448 214.312V232.674C276.672 232.674 277.155 232.674 277.155 232.27V219.962V216.532Z" fill="#565656" fill-opacity="0.3"/>
<path fill-rule="evenodd" clip-rule="evenodd" d="M273.941 216.537V219.965C273.941 219.742 274.13 219.561 274.362 219.561H276.885C277.117 219.561 277.305 219.742 277.305 219.965V216.537C277.305 216.76 277.117 216.94 276.885 216.94H274.362C274.13 216.94 273.941 216.76 273.941 216.537Z" fill="#565656" fill-opacity="0.3"/>
<path d="M273.941 232.264V214.722M273.941 232.264C273.941 232.487 274.13 232.668 274.362 232.668H276.885C277.117 232.668 277.305 232.487 277.305 232.264M273.941 232.264V219.965M277.305 232.264V214.722M277.305 232.264V219.965M277.305 214.722C277.305 214.499 277.117 214.319 276.885 214.319H274.362C274.13 214.319 273.941 214.499 273.941 214.722M277.305 214.722V216.537M277.305 214.722V219.965M273.941 214.722V216.537M273.941 214.722V219.965M273.941 216.537C273.941 216.76 274.13 216.94 274.362 216.94H276.885C277.117 216.94 277.305 216.76 277.305 216.537M273.941 216.537V219.965M277.305 216.537V219.965M277.305 219.965C277.305 219.742 277.117 219.561 276.885 219.561H274.362C274.13 219.561 273.941 219.742 273.941 219.965" stroke="#304436"/>
<path d="M280.519 216.532V214.716C280.519 214.413 280.036 214.312 279.812 214.312V232.674C280.036 232.674 280.519 232.674 280.519 232.27V219.962V216.532Z" fill="#565656" fill-opacity="0.3"/>
<path fill-rule="evenodd" clip-rule="evenodd" d="M277.305 216.537V219.965C277.305 219.742 277.494 219.561 277.726 219.561H280.249C280.481 219.561 280.669 219.742 280.669 219.965V216.537C280.669 216.76 280.481 216.94 280.249 216.94H277.726C277.494 216.94 277.305 216.76 277.305 216.537Z" fill="#565656" fill-opacity="0.3"/>
<path d="M277.305 232.264V214.722M277.305 232.264C277.305 232.487 277.494 232.668 277.726 232.668H280.249C280.481 232.668 280.669 232.487 280.669 232.264M277.305 232.264V219.965M280.669 232.264V214.722M280.669 232.264V219.965M280.669 214.722C280.669 214.499 280.481 214.319 280.249 214.319H277.726C277.494 214.319 277.305 214.499 277.305 214.722M280.669 214.722V216.537M280.669 214.722V219.965M277.305 214.722V216.537M277.305 214.722V219.965M277.305 216.537C277.305 216.76 277.494 216.94 277.726 216.94H280.249C280.481 216.94 280.669 216.76 280.669 216.537M277.305 216.537V219.965M280.669 216.537V219.965M280.669 219.965C280.669 219.742 280.481 219.561 280.249 219.561H277.726C277.494 219.561 277.305 219.742 277.305 219.965" stroke="#304436"/>
<path d="M283.883 216.532V214.716C283.883 214.413 283.399 214.312 283.176 214.312V232.674C283.399 232.674 283.883 232.674 283.883 232.27V219.962V216.532Z" fill="#565656" fill-opacity="0.3"/>
<path fill-rule="evenodd" clip-rule="evenodd" d="M280.669 216.537V219.965C280.669 219.742 280.857 219.561 281.09 219.561H283.613C283.845 219.561 284.033 219.742 284.033 219.965V216.537C284.033 216.76 283.845 216.94 283.613 216.94H281.09C280.857 216.94 280.669 216.76 280.669 216.537Z" fill="#565656" fill-opacity="0.3"/>
<path d="M280.669 232.264V214.722M280.669 232.264C280.669 232.487 280.857 232.668 281.09 232.668H283.613C283.845 232.668 284.033 232.487 284.033 232.264M280.669 232.264V219.965M284.033 232.264V214.722M284.033 232.264V219.965M284.033 214.722C284.033 214.499 283.845 214.319 283.613 214.319H281.09C280.857 214.319 280.669 214.499 280.669 214.722M284.033 214.722V216.537M284.033 214.722V219.965M280.669 214.722V216.537M280.669 214.722V219.965M280.669 216.537C280.669 216.76 280.857 216.94 281.09 216.94H283.613C283.845 216.94 284.033 216.76 284.033 216.537M280.669 216.537V219.965M284.033 216.537V219.965M284.033 219.965C284.033 219.742 283.845 219.561 283.613 219.561H281.09C280.857 219.561 280.669 219.742 280.669 219.965" stroke="#304436"/>
<path d="M267.196 216.324L266.691 216.324C266.301 216.324 265.984 216.008 265.984 215.618C265.984 215.228 266.301 214.912 266.691 214.912L267.196 214.912L267.196 216.324Z" stroke="#304436"/>
<path d="M267.213 216.453L266.755 216.453C266.332 216.453 265.99 216.111 265.99 215.689C265.99 215.266 266.332 214.924 266.755 214.924L267.213 214.924L267.213 216.453Z" fill="white" stroke="#304436"/>
<path d="M284.033 214.924H284.492C284.914 214.924 285.256 215.266 285.256 215.689C285.256 216.111 284.914 216.453 284.492 216.453H284.033L284.033 214.924Z" fill="white" stroke="#304436"/>
<path d="M341.478 106.971C341.478 106.151 342.14 105.486 342.957 105.486L356.8 105.486L371.043 105.486C371.86 105.486 372.522 106.151 372.522 106.971V153.029C372.522 153.849 371.86 154.514 371.043 154.514H342.957C342.14 154.514 341.478 153.849 341.478 153.029V106.971Z" fill="white" stroke="#304436"/>
<path d="M341.478 106.971C341.478 106.151 342.14 105.486 342.957 105.486H371.043C371.86 105.486 372.522 106.151 372.522 106.971V115.886H341.478V106.971Z" fill="#304436"/>
<path d="M365.116 109.286C365.578 109.478 365.999 109.752 366.357 110.093C366.357 110.093 366.612 110.026 366.779 110.015C366.914 110.007 367.124 110.026 367.124 110.026C367.16 109.786 367.18 109.509 367.18 109.227C367.181 108.803 367.265 108.434 367.047 108.005C366.681 107.285 365.901 106.754 365.194 107.059C363.974 107.582 364.221 108.849 365.116 109.286Z" fill="white"/>
<path d="M366.254 113.06C366.217 112.754 366.217 112.446 366.254 112.142C366.277 111.957 366.314 111.773 366.364 111.592C366.364 111.592 366.185 111.447 366.116 111.321C366.043 111.189 366.021 110.948 366.021 110.948C365.634 111.101 365.226 111.314 364.848 111.556C364.591 111.722 364.349 111.901 364.137 112.085C363.625 112.593 363.555 113.139 363.758 113.575C363.855 113.782 364.014 113.965 364.216 114.107C364.412 114.244 364.606 114.329 364.792 114.37C365.628 114.555 366.298 113.849 366.254 113.06Z" fill="white"/>
<path d="M369.07 110.223C368.676 110.507 368.201 110.726 367.727 110.855C367.727 110.855 367.698 111.092 367.632 111.228C367.568 111.361 367.403 111.53 367.403 111.53C367.946 111.94 368.558 112.256 369.213 112.466L369.256 112.478C369.685 112.583 370.047 112.547 370.33 112.416C370.739 112.227 370.984 111.841 371.033 111.401C371.108 110.714 370.78 110.273 370.33 110.093C369.941 109.938 369.462 109.978 369.073 110.223L369.07 110.223Z" fill="white"/>
<path d="M362.586 122.814C363.681 122.814 364.564 123.705 364.565 124.8V126.47C364.565 127.564 363.681 128.456 362.586 128.456H351.826C350.731 128.456 349.848 127.564 349.848 126.47V124.8L349.858 124.597C349.959 123.598 350.8 122.814 351.826 122.814H362.586Z" fill="#93D3F6" stroke="#304436"/>
<path d="M350.348 124.028C350.348 123.634 350.667 123.314 351.062 123.314H363.351C363.745 123.314 364.065 123.634 364.065 124.028H350.348Z" fill="#565656" fill-opacity="0.3"/>
<path d="M351.25 127.956L356.484 123.314H358.109L352.875 127.956H351.25Z" fill="white" fill-opacity="0.3"/>
<path d="M353.777 127.956L359.011 123.314H359.914L354.679 127.956H353.777Z" fill="white" fill-opacity="0.3"/>
<path d="M369.122 105.486L371.165 105.486C372.322 105.486 373.261 106.424 373.261 107.582V151.257C373.261 153.466 371.47 155.257 369.261 155.257H369.122V105.486Z" fill="#565656" fill-opacity="0.3"/>
<path d="M315.23 203.681L314 204.91" stroke="#304436" stroke-linecap="round"/>
<path d="M317.074 205.525L315.025 207.575" stroke="#304436" stroke-linecap="round"/>
<path d="M318.919 207.37L316.869 209.419" stroke="#304436" stroke-linecap="round"/>
<path d="M320.764 209.214L319.534 210.444" stroke="#304436" stroke-linecap="round"/>
<path d="M325 200H328V239H325L325 202.5L325 200Z" fill="white"/>
<path d="M325 202.5L325 239H328V200H325L325 202.5ZM325 202.5L322 204" stroke="#304436"/>
<path d="M315.879 202.506C315.879 202.506 318.385 200 321.606 203.221C324.828 206.443 322.322 208.948 322.322 208.948L315.879 202.506Z" fill="white" stroke="#304436"/>
<path d="M341.478 191.971C341.478 191.151 342.14 190.486 342.957 190.486L356.8 190.486L371.043 190.486C371.86 190.486 372.522 191.151 372.522 191.971V238.029C372.522 238.849 371.86 239.514 371.043 239.514H342.957C342.14 239.514 341.478 238.849 341.478 238.029V191.971Z" fill="white" stroke="#304436"/>
<path d="M341.478 191.971C341.478 191.151 342.14 190.486 342.957 190.486H371.043C371.86 190.486 372.522 191.151 372.522 191.971V200.886H341.478V191.971Z" fill="#304436"/>
<path d="M365.116 194.286C365.578 194.478 365.999 194.752 366.357 195.093C366.357 195.093 366.612 195.026 366.779 195.015C366.914 195.007 367.124 195.026 367.124 195.026C367.16 194.786 367.18 194.509 367.18 194.227C367.181 193.803 367.265 193.434 367.047 193.005C366.681 192.285 365.901 191.754 365.194 192.059C363.974 192.582 364.221 193.849 365.116 194.286Z" fill="white"/>
<path d="M366.254 198.06C366.217 197.754 366.217 197.446 366.254 197.142C366.277 196.957 366.314 196.773 366.364 196.592C366.364 196.592 366.185 196.447 366.116 196.321C366.043 196.189 366.021 195.948 366.021 195.948C365.634 196.101 365.226 196.314 364.848 196.556C364.591 196.722 364.349 196.901 364.137 197.085C363.625 197.593 363.555 198.139 363.758 198.575C363.855 198.782 364.014 198.965 364.216 199.107C364.412 199.244 364.606 199.329 364.792 199.37C365.628 199.555 366.298 198.849 366.254 198.06Z" fill="white"/>
<path d="M369.07 195.223C368.676 195.507 368.201 195.726 367.727 195.855C367.727 195.855 367.698 196.092 367.632 196.228C367.568 196.361 367.403 196.53 367.403 196.53C367.946 196.94 368.558 197.256 369.213 197.466L369.256 197.478C369.685 197.583 370.047 197.547 370.33 197.416C370.739 197.227 370.984 196.841 371.033 196.401C371.108 195.714 370.78 195.273 370.33 195.093C369.941 194.938 369.462 194.978 369.073 195.223L369.07 195.223Z" fill="white"/>
<path d="M362.586 207.814C363.681 207.814 364.564 208.705 364.565 209.8V211.47C364.565 212.564 363.681 213.456 362.586 213.456H351.826C350.731 213.456 349.848 212.564 349.848 211.47V209.8L349.858 209.597C349.959 208.598 350.8 207.814 351.826 207.814H362.586Z" fill="#93D3F6" stroke="#304436"/>
<path d="M350.348 209.028C350.348 208.634 350.667 208.314 351.062 208.314H363.351C363.745 208.314 364.065 208.634 364.065 209.028H350.348Z" fill="#565656" fill-opacity="0.3"/>
<path d="M351.25 212.956L356.484 208.314H358.109L352.875 212.956H351.25Z" fill="white" fill-opacity="0.3"/>
<path d="M353.777 212.956L359.011 208.314H359.914L354.679 212.956H353.777Z" fill="white" fill-opacity="0.3"/>
<path d="M369.122 190.486L371.165 190.486C372.322 190.486 373.261 191.424 373.261 192.582V236.257C373.261 238.466 371.47 240.257 369.261 240.257H369.122V190.486Z" fill="#565656" fill-opacity="0.3"/>
<path d="M313.406 114.421L312 115.827" stroke="#304436" stroke-linecap="round"/>
<path d="M315.514 116.529L313.171 118.872" stroke="#304436" stroke-linecap="round"/>
<path d="M317.622 118.637L315.279 120.98" stroke="#304436" stroke-linecap="round"/>
<path d="M319.73 120.746L318.324 122.151" stroke="#304436" stroke-linecap="round"/>
<path d="M324.572 110.215H328V154.785H324.572L324.571 113.072L324.572 110.215Z" fill="white"/>
<path d="M324.571 113.072L324.572 154.785H328V110.215H324.572L324.571 113.072ZM324.571 113.072L321.143 114.786" stroke="#304436"/>
<path d="M314.148 113.078C314.148 113.078 317.011 110.215 320.693 113.897C324.375 117.578 321.511 120.442 321.511 120.442L314.148 113.078Z" fill="white" stroke="#304436"/>
<defs>
<filter id="filter0_d_2269_3367" x="392" y="147" width="45" height="21" filterUnits="userSpaceOnUse" color-interpolation-filters="sRGB">
<feFlood flood-opacity="0" result="BackgroundImageFix"/>
<feColorMatrix in="SourceAlpha" type="matrix" values="0 0 0 0 0 0 0 0 0 0 0 0 0 0 0 0 0 0 127 0" result="hardAlpha"/>
<feOffset dx="1" dy="1"/>
<feComposite in2="hardAlpha" operator="out"/>
<feColorMatrix type="matrix" values="0 0 0 0 0.188235 0 0 0 0 0.266667 0 0 0 0 0.211765 0 0 0 1 0"/>
<feBlend mode="normal" in2="BackgroundImageFix" result="effect1_dropShadow_2269_3367"/>
<feBlend mode="normal" in="SourceGraphic" in2="effect1_dropShadow_2269_3367" result="shape"/>
</filter>
<filter id="filter1_d_2269_3367" x="310" y="247" width="97" height="21" filterUnits="userSpaceOnUse" color-interpolation-filters="sRGB">
<feFlood flood-opacity="0" result="BackgroundImageFix"/>
<feColorMatrix in="SourceAlpha" type="matrix" values="0 0 0 0 0 0 0 0 0 0 0 0 0 0 0 0 0 0 127 0" result="hardAlpha"/>
<feOffset dx="1" dy="1"/>
<feComposite in2="hardAlpha" operator="out"/>
<feColorMatrix type="matrix" values="0 0 0 0 0.188235 0 0 0 0 0.266667 0 0 0 0 0.211765 0 0 0 1 0"/>
<feBlend mode="normal" in2="BackgroundImageFix" result="effect1_dropShadow_2269_3367"/>
<feBlend mode="normal" in="SourceGraphic" in2="effect1_dropShadow_2269_3367" result="shape"/>
</filter>
<clipPath id="clip0_2269_3367">
<rect x="249.11" y="21.813" width="28.4629" height="46.6189" rx="2" fill="white"/>
</clipPath>
<pattern id="pattern0_2269_3367" patternUnits="userSpaceOnUse" patternTransform="matrix(17 0 0 14 202.5 75.5)" preserveAspectRatio="none" viewBox="-0.5 -0.5 17 14" width="1" height="1">
<use xlink:href="#pattern0_2269_3367_inner" transform="translate(-25.5 -7)"/>
<use xlink:href="#pattern0_2269_3367_inner" transform="translate(-8.5 -7)"/>
<use xlink:href="#pattern0_2269_3367_inner" transform="translate(8.5 -7)"/>
<use xlink:href="#pattern0_2269_3367_inner" transform="translate(-34 0)"/>
<use xlink:href="#pattern0_2269_3367_inner" transform="translate(-17 0)"/>
<g id="pattern0_2269_3367_inner">
<rect width="17" height="7" fill="#F3E1D1" stroke="white"/>
</g>
<use xlink:href="#pattern0_2269_3367_inner" transform="translate(-25.5 7)"/>
<use xlink:href="#pattern0_2269_3367_inner" transform="translate(-8.5 7)"/>
<use xlink:href="#pattern0_2269_3367_inner" transform="translate(8.5 7)"/>
</pattern></defs>
</svg>
