<svg width="501" height="362" viewBox="0 0 501 362" fill="none" xmlns="http://www.w3.org/2000/svg" xmlns:xlink="http://www.w3.org/1999/xlink">
<path d="M0 0H500V362H0V0Z" fill="white"/>
<path d="M500 0H499V362H500H501V0H500Z" fill="#E9E9E9"/>
<path d="M434 288H56C46.6112 288 39 295.611 39 305V321C39 321 44.6904 323.442 48.5 324.5C64.5465 328.955 74.3628 321.735 91 321C110.312 320.147 121.184 320.228 140.5 321C158.307 321.712 168.259 326.189 186 324.5C199.768 323.19 206.946 332.753 220.5 330C242.774 325.476 255.277 321.487 278 321C296.222 320.61 306.308 326.116 324.5 325C335.139 324.347 340.892 322.043 351.5 321L351.814 320.969C372.803 318.905 385.081 317.697 406 321C424.123 323.862 451 334.5 451 334.5V305C451 295.611 443.389 288 434 288Z" fill="#9A8D81" stroke="#304436" stroke-width="2"/>
<path d="M39 354H451V334.5C451 334.5 424.123 323.861 406 321C385.081 317.697 372.803 318.905 351.814 320.969L351.5 321C340.892 322.043 335.139 324.347 324.5 325C306.308 326.116 296.222 320.61 278 321C255.277 321.487 242.774 325.476 220.5 330C206.946 332.753 199.768 323.189 186 324.5C168.259 326.189 158.307 321.712 140.5 321C121.184 320.228 110.312 320.147 91 321C74.3628 321.735 64.5465 328.955 48.5 324.5C44.6904 323.442 39 321 39 321V354Z" fill="#624D45" stroke="#304436" stroke-width="2"/>
<path d="M53.5 332H61.5" stroke="#304436" stroke-width="2" stroke-linecap="round"/>
<path d="M208 301H216" stroke="#304436" stroke-width="2" stroke-linecap="round"/>
<path d="M53 319H61" stroke="#304436" stroke-width="2" stroke-linecap="round"/>
<path d="M392 295H400" stroke="#304436" stroke-width="2" stroke-linecap="round"/>
<path d="M281 333H289" stroke="#304436" stroke-width="2" stroke-linecap="round"/>
<path d="M217 347H225" stroke="#304436" stroke-width="2" stroke-linecap="round"/>
<path d="M198 345H190" stroke="#304436" stroke-width="2" stroke-linecap="round"/>
<path d="M352.5 314H344.5" stroke="#304436" stroke-width="2" stroke-linecap="round"/>
<path d="M361 300H353" stroke="#304436" stroke-width="2" stroke-linecap="round"/>
<path d="M425.5 346H417.5" stroke="#304436" stroke-width="2" stroke-linecap="round"/>
<path d="M174 329H166" stroke="#304436" stroke-width="2" stroke-linecap="round"/>
<path d="M328.5 298H320.5" stroke="#304436" stroke-width="2" stroke-linecap="round"/>
<path d="M401.5 330H393.5" stroke="#304436" stroke-width="2" stroke-linecap="round"/>
<path d="M69.5 343H77.5" stroke="#304436" stroke-width="2" stroke-linecap="round"/>
<path d="M224 312H232" stroke="#304436" stroke-width="2" stroke-linecap="round"/>
<path d="M48 306H56" stroke="#304436" stroke-width="2" stroke-linecap="round"/>
<path d="M408 306H416" stroke="#304436" stroke-width="2" stroke-linecap="round"/>
<path d="M297 344H305" stroke="#304436" stroke-width="2" stroke-linecap="round"/>
<path d="M233 336H241" stroke="#304436" stroke-width="2" stroke-linecap="round"/>
<path d="M117.5 330H125.5" stroke="#304436" stroke-width="2" stroke-linecap="round"/>
<path d="M272 299H280" stroke="#304436" stroke-width="2" stroke-linecap="round"/>
<path d="M199 316H207" stroke="#304436" stroke-width="2" stroke-linecap="round"/>
<path d="M345 331H353" stroke="#304436" stroke-width="2" stroke-linecap="round"/>
<path d="M134 343H126" stroke="#304436" stroke-width="2" stroke-linecap="round"/>
<path d="M288.5 312H280.5" stroke="#304436" stroke-width="2" stroke-linecap="round"/>
<path d="M361.5 344H353.5" stroke="#304436" stroke-width="2" stroke-linecap="round"/>
<path d="M100.5 337H103.5" stroke="#304436" stroke-width="2" stroke-linecap="round"/>
<path d="M255 306H258" stroke="#304436" stroke-width="2" stroke-linecap="round"/>
<path d="M180 319H183" stroke="#304436" stroke-width="2" stroke-linecap="round"/>
<path d="M439 300H442" stroke="#304436" stroke-width="2" stroke-linecap="round"/>
<path d="M374 312H377" stroke="#304436" stroke-width="2" stroke-linecap="round"/>
<path d="M328 338H331" stroke="#304436" stroke-width="2" stroke-linecap="round"/>
<path d="M264 342H267" stroke="#304436" stroke-width="2" stroke-linecap="round"/>
<path d="M151 350H148" stroke="#304436" stroke-width="2" stroke-linecap="round"/>
<path d="M305.5 319H302.5" stroke="#304436" stroke-width="2" stroke-linecap="round"/>
<path d="M378.5 351H375.5" stroke="#304436" stroke-width="2" stroke-linecap="round"/>
<path d="M71 332L75 332" stroke="#304436" stroke-width="2" stroke-linecap="round"/>
<path d="M225.5 301L229.5 301" stroke="#304436" stroke-width="2" stroke-linecap="round"/>
<path d="M160 319L164 319" stroke="#304436" stroke-width="2" stroke-linecap="round"/>
<path d="M119 317L123 317" stroke="#304436" stroke-width="2" stroke-linecap="round"/>
<path d="M409.5 295L413.5 295" stroke="#304436" stroke-width="2" stroke-linecap="round"/>
<path d="M298.5 333L302.5 333" stroke="#304436" stroke-width="2" stroke-linecap="round"/>
<path d="M234.5 347L238.5 347" stroke="#304436" stroke-width="2" stroke-linecap="round"/>
<path d="M180.5 345L176.5 345" stroke="#304436" stroke-width="2" stroke-linecap="round"/>
<path d="M335 314L331 314" stroke="#304436" stroke-width="2" stroke-linecap="round"/>
<path d="M408 346L404 346" stroke="#304436" stroke-width="2" stroke-linecap="round"/>
<path d="M161.5 329L157.5 329" stroke="#304436" stroke-width="2" stroke-linecap="round"/>
<path d="M316 298L312 298" stroke="#304436" stroke-width="2" stroke-linecap="round"/>
<path d="M389 330L385 330" stroke="#304436" stroke-width="2" stroke-linecap="round"/>
<path d="M87 343L91 343" stroke="#304436" stroke-width="2" stroke-linecap="round"/>
<path d="M241.5 312L245.5 312" stroke="#304436" stroke-width="2" stroke-linecap="round"/>
<path d="M74 320L78 320" stroke="#304436" stroke-width="2" stroke-linecap="round"/>
<path d="M425.5 306L429.5 306" stroke="#304436" stroke-width="2" stroke-linecap="round"/>
<path d="M314.5 344L318.5 344" stroke="#304436" stroke-width="2" stroke-linecap="round"/>
<path d="M250.5 336L254.5 336" stroke="#304436" stroke-width="2" stroke-linecap="round"/>
<path d="M203 75H416V306H203V75Z" fill="#F3E1D1" stroke="#304436" stroke-width="2"/>
<rect x="229" y="155" width="186" height="4" fill="#CBB9A9"/>
<rect x="229" y="239" width="186" height="4" fill="#CBB9A9"/>
<rect x="229" y="70" width="188" height="6" fill="#727B74"/>
<path d="M235 19H401C409.837 19 417 26.1634 417 35V71H235V19Z" fill="#CCC4C4"/>
<path d="M322 89H370M381 107.5V89H370M370 89L366.5 85.5M370 89L366.5 92.5" stroke="#535F57" stroke-width="2"/>
<path d="M351 176H381V194.5" stroke="#535F57" stroke-width="2"/>
<path d="M350 85.2903C350 84.5777 350.351 84 350.784 84H359.216C359.649 84 360 84.5777 360 85.2903V92.7097C360 93.4223 359.649 94 359.216 94H350.784C350.351 94 350 93.4223 350 92.7097V85.2903Z" fill="white" stroke="#304436"/>
<path opacity="0.8" d="M352 87H358" stroke="#304436" stroke-linecap="round"/>
<path opacity="0.8" d="M352 89H358" stroke="#304436" stroke-linecap="round"/>
<path opacity="0.8" d="M352 91H358" stroke="#304436" stroke-linecap="round"/>
<path d="M350 172.29C350 171.578 350.351 171 350.784 171H359.216C359.649 171 360 171.578 360 172.29V179.71C360 180.422 359.649 181 359.216 181H350.784C350.351 181 350 180.422 350 179.71V172.29Z" fill="white" stroke="#304436"/>
<path opacity="0.8" d="M352 174H358" stroke="#304436" stroke-linecap="round"/>
<path opacity="0.8" d="M352 176H358" stroke="#304436" stroke-linecap="round"/>
<path opacity="0.8" d="M352 178H358" stroke="#304436" stroke-linecap="round"/>
<path d="M318 85.2903C318 84.5777 318.351 84 318.784 84H327.216C327.649 84 328 84.5777 328 85.2903V92.7097C328 93.4223 327.649 94 327.216 94H318.784C318.351 94 318 93.4223 318 92.7097V85.2903Z" fill="white" stroke="#304436"/>
<path opacity="0.8" d="M320 87H326" stroke="#304436" stroke-linecap="round"/>
<path opacity="0.8" d="M320 89H326" stroke="#304436" stroke-linecap="round"/>
<path opacity="0.8" d="M320 91H326" stroke="#304436" stroke-linecap="round"/>
<path d="M203 86.7959V306H266.827C266.827 306 248.362 289.399 243.403 274.538C233.842 245.887 269.778 241.04 266.827 216.495C264.836 199.937 251.765 194.999 248.446 178.694C245.758 165.489 250.278 157.109 248.407 144.061C246.495 130.727 241.075 119.959 235.935 109.748C233.315 104.545 228.396 91.976 226.424 86.7959C225.574 83.3255 225.065 79.751 225.034 76H203V86.7959Z" fill="url(#pattern0_2254_10269)" stroke="#304436" stroke-width="2"/>
<path d="M212.001 299.228L211.844 290.229L213.368 290.202L213.525 299.201L212.001 299.228ZM218.122 292.832C220.09 292.798 221.459 294.226 221.491 296.038C221.522 297.849 220.204 299.325 218.236 299.359C216.269 299.393 214.899 297.965 214.868 296.153C214.836 294.341 216.155 292.866 218.122 292.832ZM218.235 297.919C219.207 297.902 219.925 297.109 219.907 296.065C219.889 295.009 219.143 294.254 218.171 294.271C217.164 294.289 216.433 295.07 216.452 296.126C216.47 297.181 217.227 297.936 218.235 297.919ZM225.875 297.785C226.474 297.775 226.95 297.491 227.23 297.066L228.434 297.957C227.883 298.71 227.004 299.206 225.9 299.225C223.812 299.262 222.538 297.784 222.507 296.02C222.476 294.256 223.698 292.735 225.786 292.698C226.89 292.679 227.786 293.143 228.363 293.877L227.191 294.81C226.896 294.395 226.411 294.127 225.787 294.138C224.791 294.156 224.073 294.936 224.091 295.992C224.11 297.06 224.855 297.803 225.875 297.785ZM231.19 299.073C229.978 299.094 229.138 298.412 229.119 297.297C229.103 296.385 229.799 295.689 231.091 295.45L232.933 295.106L232.93 294.95C232.919 294.314 232.432 293.914 231.736 293.926C231.148 293.937 230.697 294.221 230.381 294.67L229.25 293.838C229.777 293.085 230.657 292.613 231.761 292.594C233.513 292.563 234.431 293.591 234.454 294.923L234.522 298.835L232.999 298.861L232.988 298.273C232.613 298.748 231.898 299.06 231.19 299.073ZM230.629 297.198C230.636 297.606 230.965 297.865 231.481 297.856C232.177 297.843 232.675 297.511 232.967 297.025L232.952 296.174L231.516 296.439C230.882 296.558 230.623 296.826 230.629 297.198ZM236.267 298.804L236.11 289.805L237.634 289.779L237.791 298.778L236.267 298.804Z" fill="#535F57"/>
<path d="M202.965 157.906H197.359V151H202.965H207.709H217.628H227.413H238.194H248.185V157.906H238.194H227.413H217.628H207.709H202.965Z" fill="#E2D2C3"/>
<path d="M248.185 157.906H207.709M248.185 157.906H217.628M248.185 157.906V151M248.185 151H207.709M248.185 151H217.628M207.709 151H202.965H197.359V157.906H202.965H207.709M207.709 151V157.906M207.709 151H217.628M207.709 157.906H217.628M217.628 151V157.906M227.413 151V157.906M238.194 151V157.906" stroke="#304436" stroke-width="2"/>
<path d="M202.965 242.906H197.359V236H202.965H207.709H217.628H227.413H238.194H249H259.5L253.5 242.906H249H238.194H227.413H217.628H207.709H202.965Z" fill="#E2D2C3"/>
<path d="M253.5 242.906H207.709M253.5 242.906H217.628M253.5 242.906L259.5 236M259.5 236H207.709M259.5 236H217.628M207.709 236H202.965H197.359V242.906H202.965H207.709M207.709 236V242.906M207.709 236H217.628M207.709 242.906H217.628M217.628 236V242.906M227.413 236V242.906M238.194 236V242.906M249 236V242.906" stroke="#304436" stroke-width="2"/>
<path d="M198.95 76.2017H202.832H262.776V70.1585H198.95V76.2017Z" fill="#E2D2C3" stroke="#304436" stroke-width="2"/>
<path d="M230.134 17.4964L202.965 70.1585H263.019C262.564 45.0186 251.697 17.4964 251.697 17.4964H230.134Z" fill="#858181" stroke="#304436" stroke-width="2"/>
<path d="M243.935 19.9507L250.403 16.8304L263.341 10.5899L282.748 19.9507V70.1585H250.403H243.935V19.9507Z" fill="#F3E1D1" stroke="#274430" stroke-width="2"/>
<g clip-path="url(#clip0_2254_10269)">
<rect x="249.11" y="21.813" width="28.4629" height="46.6189" rx="2" fill="#93D3F6"/>
<path d="M249.11 42.2087L266.625 21.813H277.573L249.11 56.7771V42.2087Z" fill="white" fill-opacity="0.3"/>
<path d="M250.204 68.4318L277.573 35.4102V41.2375L254.583 68.4318H250.204Z" fill="white" fill-opacity="0.3"/>
<rect x="249.11" y="21.813" width="28.4629" height="7.76981" fill="#565656" fill-opacity="0.3"/>
</g>
<rect x="249.11" y="21.813" width="28.4629" height="46.6189" rx="2" stroke="#274430" stroke-width="2"/>
<path fill-rule="evenodd" clip-rule="evenodd" d="M262.91 70.1585L262.91 21.813L264.635 21.813L264.635 70.1585L262.91 70.1585Z" fill="#304436"/>
<path fill-rule="evenodd" clip-rule="evenodd" d="M277.573 45.9857L249.11 45.9857L249.11 44.2591L277.573 44.2591L277.573 45.9857Z" fill="#304436"/>
<rect x="241.347" y="66.7052" width="43.9881" height="3.45325" rx="1.72662" fill="#F3E1D1" stroke="#274430" stroke-width="2"/>
<path d="M405.5 115.5H416.5" stroke="#535F57" stroke-width="4"/>
<g filter="url(#filter0_d_2254_10269)">
<rect x="334" y="243" width="113" height="38" fill="white" shape-rendering="crispEdges"/>
<rect x="334.5" y="243.5" width="112" height="37" stroke="#304436" shape-rendering="crispEdges"/>
<path d="M340.98 257.644C341.94 257.644 342.696 257.176 343.176 256.492L344.52 257.524C343.752 258.568 342.504 259.24 340.98 259.24C338.328 259.24 336.516 257.2 336.516 254.8C336.516 252.4 338.328 250.36 340.98 250.36C342.504 250.36 343.752 251.044 344.52 252.064L343.176 253.108C342.696 252.424 341.94 251.956 340.98 251.956C339.396 251.956 338.268 253.192 338.268 254.8C338.268 256.408 339.396 257.644 340.98 257.644ZM345.795 259V250H347.319V253.432C347.739 253.024 348.303 252.712 349.107 252.712C350.415 252.712 351.459 253.612 351.459 255.4V259H349.923V255.46C349.923 254.656 349.479 254.152 348.723 254.152C347.955 254.152 347.547 254.668 347.319 255.052V259H345.795ZM354.893 259.18C353.681 259.18 352.853 258.484 352.853 257.368C352.853 256.456 353.561 255.772 354.857 255.556L356.705 255.244V255.088C356.705 254.452 356.225 254.044 355.529 254.044C354.941 254.044 354.485 254.32 354.161 254.764L353.045 253.912C353.585 253.168 354.473 252.712 355.577 252.712C357.329 252.712 358.229 253.756 358.229 255.088V259H356.705V258.412C356.321 258.88 355.601 259.18 354.893 259.18ZM354.365 257.296C354.365 257.704 354.689 257.968 355.205 257.968C355.901 257.968 356.405 257.644 356.705 257.164V256.312L355.265 256.552C354.629 256.66 354.365 256.924 354.365 257.296ZM363.959 256.384V252.952H365.495V256.312C365.495 258.124 364.439 259.24 362.663 259.24C360.887 259.24 359.843 258.124 359.843 256.312V252.952H361.379V256.384C361.379 257.26 361.835 257.8 362.675 257.8C363.503 257.8 363.959 257.26 363.959 256.384ZM366.531 252.952H367.659V252.316C367.659 251.032 368.511 250 370.023 250C370.575 250 371.043 250.132 371.427 250.336L370.779 251.608C370.599 251.476 370.359 251.368 370.047 251.368C369.531 251.368 369.195 251.728 369.195 252.28V252.952H371.043V254.32H369.195V259H367.659V254.32H366.531V252.952ZM371.641 252.952H372.769V252.316C372.769 251.032 373.621 250 375.133 250C375.685 250 376.153 250.132 376.537 250.336L375.889 251.608C375.709 251.476 375.469 251.368 375.157 251.368C374.641 251.368 374.305 251.728 374.305 252.28V252.952H376.153V254.32H374.305V259H372.769V254.32H371.641V252.952ZM382.535 258.016C381.971 258.772 381.035 259.24 379.895 259.24C377.747 259.24 376.535 257.74 376.535 255.976C376.535 254.188 377.663 252.712 379.643 252.712C381.323 252.712 382.427 253.852 382.427 255.436C382.427 255.772 382.379 256.084 382.331 256.288H378.095C378.239 257.416 378.935 257.872 379.883 257.872C380.543 257.872 381.119 257.584 381.443 257.152L382.535 258.016ZM379.607 253.96C378.827 253.96 378.311 254.392 378.143 255.184H380.927C380.903 254.572 380.459 253.96 379.607 253.96ZM383.455 255.196H386.695V256.672H383.455V255.196ZM393.644 258.016C393.08 258.772 392.144 259.24 391.004 259.24C388.856 259.24 387.644 257.74 387.644 255.976C387.644 254.188 388.772 252.712 390.752 252.712C392.432 252.712 393.536 253.852 393.536 255.436C393.536 255.772 393.488 256.084 393.44 256.288H389.204C389.348 257.416 390.044 257.872 390.992 257.872C391.652 257.872 392.228 257.584 392.552 257.152L393.644 258.016ZM390.716 253.96C389.936 253.96 389.42 254.392 389.252 255.184H392.036C392.012 254.572 391.568 253.96 390.716 253.96ZM396.647 259.18C395.435 259.18 394.607 258.484 394.607 257.368C394.607 256.456 395.315 255.772 396.611 255.556L398.459 255.244V255.088C398.459 254.452 397.979 254.044 397.283 254.044C396.695 254.044 396.239 254.32 395.915 254.764L394.799 253.912C395.339 253.168 396.227 252.712 397.331 252.712C399.083 252.712 399.983 253.756 399.983 255.088V259H398.459V258.412C398.075 258.88 397.355 259.18 396.647 259.18ZM396.119 257.296C396.119 257.704 396.443 257.968 396.959 257.968C397.655 257.968 398.159 257.644 398.459 257.164V256.312L397.019 256.552C396.383 256.66 396.119 256.924 396.119 257.296ZM405.712 256.384V252.952H407.248V256.312C407.248 258.124 406.192 259.24 404.416 259.24C402.64 259.24 401.596 258.124 401.596 256.312V252.952H403.132V256.384C403.132 257.26 403.588 257.8 404.428 257.8C405.256 257.8 405.712 257.26 405.712 256.384ZM337.296 273.792V271.32H336.168V269.952H337.296V268.44H338.832V269.952H340.68V271.32H338.832V273.792C338.832 274.464 339.192 274.728 339.792 274.728C340.212 274.728 340.488 274.68 340.692 274.596V275.928C340.392 276.06 340.032 276.12 339.528 276.12C338.016 276.12 337.296 275.268 337.296 273.792ZM342.045 276V267H343.569V270.432C343.989 270.024 344.553 269.712 345.357 269.712C346.665 269.712 347.709 270.612 347.709 272.4V276H346.173V272.46C346.173 271.656 345.729 271.152 344.973 271.152C344.205 271.152 343.797 271.668 343.569 272.052V276H342.045ZM355.007 275.016C354.443 275.772 353.507 276.24 352.367 276.24C350.219 276.24 349.007 274.74 349.007 272.976C349.007 271.188 350.135 269.712 352.115 269.712C353.795 269.712 354.899 270.852 354.899 272.436C354.899 272.772 354.851 273.084 354.803 273.288H350.567C350.711 274.416 351.407 274.872 352.355 274.872C353.015 274.872 353.591 274.584 353.915 274.152L355.007 275.016ZM352.079 270.96C351.299 270.96 350.783 271.392 350.615 272.184H353.399C353.375 271.572 352.931 270.96 352.079 270.96ZM356.389 276V269.952H357.913V270.552C358.309 270.144 358.825 269.832 359.509 269.832C359.713 269.832 359.893 269.868 360.037 269.916V271.416C359.845 271.368 359.641 271.332 359.365 271.332C358.621 271.332 358.141 271.74 357.913 272.124V276H356.389ZM361.264 276V269.952H362.788V270.408C363.196 270.012 363.712 269.712 364.456 269.712C365.224 269.712 365.896 270.048 366.292 270.696C366.724 270.168 367.3 269.712 368.32 269.712C369.568 269.712 370.552 270.576 370.552 272.28V276H369.016V272.34C369.016 271.608 368.62 271.152 367.936 271.152C367.276 271.152 366.916 271.608 366.676 272.016C366.688 272.1 366.688 272.184 366.688 272.28V276H365.152V272.34C365.152 271.608 364.756 271.152 364.072 271.152C363.376 271.152 363.016 271.668 362.788 272.052V276H361.264ZM375.171 269.712C377.139 269.712 378.483 271.164 378.483 272.976C378.483 274.788 377.139 276.24 375.171 276.24C373.203 276.24 371.859 274.788 371.859 272.976C371.859 271.164 373.203 269.712 375.171 269.712ZM375.195 274.8C376.167 274.8 376.899 274.02 376.899 272.976C376.899 271.92 376.167 271.152 375.195 271.152C374.187 271.152 373.443 271.92 373.443 272.976C373.443 274.032 374.187 274.8 375.195 274.8ZM379.5 272.976C379.5 271.212 380.664 269.712 382.572 269.712C383.388 269.712 383.976 269.964 384.444 270.432V267H385.98V276H384.444V275.52C383.976 275.988 383.388 276.24 382.572 276.24C380.664 276.24 379.5 274.74 379.5 272.976ZM381.096 272.976C381.096 274.032 381.756 274.8 382.788 274.8C383.472 274.8 384.036 274.512 384.444 273.96V271.992C384.036 271.44 383.472 271.152 382.788 271.152C381.756 271.152 381.096 271.92 381.096 272.976ZM390.519 277.38C390.099 278.376 389.415 279 388.263 279C387.795 279 387.471 278.928 387.183 278.808V277.464C387.375 277.548 387.663 277.608 387.927 277.608C388.527 277.608 388.899 277.404 389.151 276.792L389.487 275.988L386.943 269.952H388.635L390.291 274.02L391.959 269.952H393.567L390.519 277.38ZM394.521 276V269.952H396.045V270.432C396.465 270.024 397.029 269.712 397.833 269.712C399.141 269.712 400.185 270.612 400.185 272.4V276H398.649V272.46C398.649 271.656 398.193 271.152 397.449 271.152C396.681 271.152 396.273 271.668 396.045 272.052V276H394.521ZM403.62 276.18C402.408 276.18 401.58 275.484 401.58 274.368C401.58 273.456 402.288 272.772 403.584 272.556L405.432 272.244V272.088C405.432 271.452 404.952 271.044 404.256 271.044C403.668 271.044 403.212 271.32 402.888 271.764L401.772 270.912C402.312 270.168 403.2 269.712 404.304 269.712C406.056 269.712 406.956 270.756 406.956 272.088V276H405.432V275.412C405.048 275.88 404.328 276.18 403.62 276.18ZM403.092 274.296C403.092 274.704 403.416 274.968 403.932 274.968C404.628 274.968 405.132 274.644 405.432 274.164V273.312L403.992 273.552C403.356 273.66 403.092 273.924 403.092 274.296ZM408.701 276V269.952H410.225V270.408C410.633 270.012 411.149 269.712 411.893 269.712C412.661 269.712 413.333 270.048 413.729 270.696C414.161 270.168 414.737 269.712 415.757 269.712C417.005 269.712 417.989 270.576 417.989 272.28V276H416.453V272.34C416.453 271.608 416.057 271.152 415.373 271.152C414.713 271.152 414.353 271.608 414.113 272.016C414.125 272.1 414.125 272.184 414.125 272.28V276H412.589V272.34C412.589 271.608 412.193 271.152 411.509 271.152C410.813 271.152 410.453 271.668 410.225 272.052V276H408.701ZM420.496 268.896C419.956 268.896 419.5 268.44 419.5 267.9C419.5 267.36 419.956 266.904 420.496 266.904C421.036 266.904 421.48 267.36 421.48 267.9C421.48 268.44 421.036 268.896 420.496 268.896ZM419.728 276V269.952H421.252V276H419.728ZM422.648 272.976C422.648 271.212 423.8 269.712 425.72 269.712C426.536 269.712 427.124 269.976 427.592 270.444V269.952H429.128V278.952H427.592V275.508C427.124 275.976 426.536 276.24 425.72 276.24C423.8 276.24 422.648 274.74 422.648 272.976ZM424.232 272.976C424.232 274.032 424.892 274.8 425.924 274.8C426.632 274.8 427.22 274.488 427.592 273.936V272.016C427.184 271.452 426.608 271.152 425.924 271.152C424.892 271.152 424.232 271.92 424.232 272.976ZM434.939 273.384V269.952H436.475V273.312C436.475 275.124 435.419 276.24 433.643 276.24C431.867 276.24 430.823 275.124 430.823 273.312V269.952H432.359V273.384C432.359 274.26 432.815 274.8 433.655 274.8C434.483 274.8 434.939 274.26 434.939 273.384ZM443.73 275.016C443.166 275.772 442.23 276.24 441.09 276.24C438.942 276.24 437.73 274.74 437.73 272.976C437.73 271.188 438.858 269.712 440.838 269.712C442.518 269.712 443.622 270.852 443.622 272.436C443.622 272.772 443.574 273.084 443.526 273.288H439.29C439.434 274.416 440.13 274.872 441.078 274.872C441.738 274.872 442.314 274.584 442.638 274.152L443.73 275.016ZM440.802 270.96C440.022 270.96 439.506 271.392 439.338 272.184H442.122C442.098 271.572 441.654 270.96 440.802 270.96Z" fill="#304436"/>
</g>
<g filter="url(#filter1_d_2254_10269)">
<rect x="291" y="59" width="138" height="21" fill="white" shape-rendering="crispEdges"/>
<rect x="291.5" y="59.5" width="137" height="20" stroke="#304436" shape-rendering="crispEdges"/>
<path d="M293.48 73.836L294.716 72.696C295.22 73.344 295.892 73.728 296.576 73.728C297.248 73.728 297.656 73.368 297.656 72.768C297.656 71.22 293.84 71.64 293.84 68.796C293.84 67.464 294.944 66.36 296.552 66.36C297.812 66.36 298.772 66.924 299.492 67.776L298.244 68.904C297.752 68.268 297.2 67.848 296.564 67.848C295.964 67.848 295.568 68.232 295.568 68.736C295.568 70.26 299.384 69.828 299.384 72.708C299.36 74.292 298.136 75.24 296.588 75.24C295.172 75.24 294.224 74.724 293.48 73.836ZM303.597 76.38C303.177 77.376 302.493 78 301.341 78C300.873 78 300.549 77.928 300.261 77.808V76.464C300.453 76.548 300.741 76.608 301.005 76.608C301.605 76.608 301.977 76.404 302.229 75.792L302.565 74.988L300.021 68.952H301.713L303.369 73.02L305.037 68.952H306.645L303.597 76.38ZM306.884 74.124L307.892 73.212C308.264 73.68 308.708 74.016 309.284 74.016C309.776 74.016 310.028 73.728 310.028 73.368C310.028 72.312 307.136 72.708 307.136 70.584C307.136 69.516 308.036 68.712 309.296 68.712C310.22 68.712 311.06 69.156 311.492 69.744L310.484 70.632C310.172 70.248 309.776 69.936 309.308 69.936C308.828 69.936 308.6 70.2 308.6 70.512C308.6 71.544 311.492 71.184 311.492 73.272C311.468 74.544 310.448 75.24 309.308 75.24C308.228 75.24 307.46 74.808 306.884 74.124ZM313.374 72.792V70.32H312.246V68.952H313.374V67.44H314.91V68.952H316.758V70.32H314.91V72.792C314.91 73.464 315.27 73.728 315.87 73.728C316.29 73.728 316.566 73.68 316.77 73.596V74.928C316.47 75.06 316.11 75.12 315.606 75.12C314.094 75.12 313.374 74.268 313.374 72.792ZM319.938 67.992L318.498 66H320.154L321.39 67.992H319.938ZM323.574 74.016C323.01 74.772 322.074 75.24 320.934 75.24C318.786 75.24 317.574 73.74 317.574 71.976C317.574 70.188 318.702 68.712 320.682 68.712C322.362 68.712 323.466 69.852 323.466 71.436C323.466 71.772 323.418 72.084 323.37 72.288H319.134C319.278 73.416 319.974 73.872 320.922 73.872C321.582 73.872 322.158 73.584 322.482 73.152L323.574 74.016ZM320.646 69.96C319.866 69.96 319.35 70.392 319.182 71.184H321.966C321.942 70.572 321.498 69.96 320.646 69.96ZM324.955 75V68.952H326.479V69.408C326.887 69.012 327.403 68.712 328.147 68.712C328.915 68.712 329.587 69.048 329.983 69.696C330.415 69.168 330.991 68.712 332.011 68.712C333.259 68.712 334.243 69.576 334.243 71.28V75H332.707V71.34C332.707 70.608 332.311 70.152 331.627 70.152C330.967 70.152 330.607 70.608 330.367 71.016C330.379 71.1 330.379 71.184 330.379 71.28V75H328.843V71.34C328.843 70.608 328.447 70.152 327.763 70.152C327.067 70.152 326.707 70.668 326.479 71.052V75H324.955ZM341.55 74.016C340.986 74.772 340.05 75.24 338.91 75.24C336.762 75.24 335.55 73.74 335.55 71.976C335.55 70.188 336.678 68.712 338.658 68.712C340.338 68.712 341.442 69.852 341.442 71.436C341.442 71.772 341.394 72.084 341.346 72.288H337.11C337.254 73.416 337.95 73.872 338.898 73.872C339.558 73.872 340.134 73.584 340.458 73.152L341.55 74.016ZM338.622 69.96C337.842 69.96 337.326 70.392 337.158 71.184H339.942C339.918 70.572 339.474 69.96 338.622 69.96ZM345.734 71.976C345.734 70.212 346.898 68.712 348.806 68.712C349.622 68.712 350.21 68.964 350.678 69.432V66H352.214V75H350.678V74.52C350.21 74.988 349.622 75.24 348.806 75.24C346.898 75.24 345.734 73.74 345.734 71.976ZM347.33 71.976C347.33 73.032 347.99 73.8 349.022 73.8C349.706 73.8 350.27 73.512 350.678 72.96V70.992C350.27 70.44 349.706 70.152 349.022 70.152C347.99 70.152 347.33 70.92 347.33 71.976ZM359.609 74.016C359.045 74.772 358.109 75.24 356.969 75.24C354.821 75.24 353.609 73.74 353.609 71.976C353.609 70.188 354.737 68.712 356.717 68.712C358.397 68.712 359.501 69.852 359.501 71.436C359.501 71.772 359.453 72.084 359.405 72.288H355.169C355.313 73.416 356.009 73.872 356.957 73.872C357.617 73.872 358.193 73.584 358.517 73.152L359.609 74.016ZM356.681 69.96C355.901 69.96 355.385 70.392 355.217 71.184H358.001C357.977 70.572 357.533 69.96 356.681 69.96ZM363.361 68.952H364.993L366.565 73.272L368.125 68.952H369.769L367.561 75H365.557L363.361 68.952ZM376.226 74.016C375.662 74.772 374.726 75.24 373.586 75.24C371.438 75.24 370.226 73.74 370.226 71.976C370.226 70.188 371.354 68.712 373.334 68.712C375.014 68.712 376.118 69.852 376.118 71.436C376.118 71.772 376.07 72.084 376.022 72.288H371.786C371.93 73.416 372.626 73.872 373.574 73.872C374.234 73.872 374.81 73.584 375.134 73.152L376.226 74.016ZM373.298 69.96C372.518 69.96 372.002 70.392 371.834 71.184H374.618C374.594 70.572 374.15 69.96 373.298 69.96ZM377.607 75V68.952H379.131V69.432C379.551 69.024 380.115 68.712 380.919 68.712C382.227 68.712 383.271 69.612 383.271 71.4V75H381.735V71.46C381.735 70.656 381.279 70.152 380.535 70.152C379.767 70.152 379.359 70.668 379.131 71.052V75H377.607ZM385.386 72.792V70.32H384.258V68.952H385.386V67.44H386.922V68.952H388.77V70.32H386.922V72.792C386.922 73.464 387.282 73.728 387.882 73.728C388.302 73.728 388.578 73.68 388.782 73.596V74.928C388.482 75.06 388.122 75.12 387.618 75.12C386.106 75.12 385.386 74.268 385.386 72.792ZM390.903 67.896C390.363 67.896 389.907 67.44 389.907 66.9C389.907 66.36 390.363 65.904 390.903 65.904C391.443 65.904 391.887 66.36 391.887 66.9C391.887 67.44 391.443 67.896 390.903 67.896ZM390.135 75V68.952H391.659V75H390.135ZM393.486 75V66H395.01V75H393.486ZM398.542 75.18C397.33 75.18 396.502 74.484 396.502 73.368C396.502 72.456 397.21 71.772 398.506 71.556L400.354 71.244V71.088C400.354 70.452 399.874 70.044 399.178 70.044C398.59 70.044 398.134 70.32 397.81 70.764L396.694 69.912C397.234 69.168 398.122 68.712 399.226 68.712C400.978 68.712 401.878 69.756 401.878 71.088V75H400.354V74.412C399.97 74.88 399.25 75.18 398.542 75.18ZM398.014 73.296C398.014 73.704 398.338 73.968 398.854 73.968C399.55 73.968 400.054 73.644 400.354 73.164V72.312L398.914 72.552C398.278 72.66 398.014 72.924 398.014 73.296ZM404.007 72.792V70.32H402.879V68.952H404.007V67.44H405.543V68.952H407.391V70.32H405.543V72.792C405.543 73.464 405.903 73.728 406.503 73.728C406.923 73.728 407.199 73.68 407.403 73.596V74.928C407.103 75.06 406.743 75.12 406.239 75.12C404.727 75.12 404.007 74.268 404.007 72.792ZM409.524 67.896C408.984 67.896 408.528 67.44 408.528 66.9C408.528 66.36 408.984 65.904 409.524 65.904C410.064 65.904 410.508 66.36 410.508 66.9C410.508 67.44 410.064 67.896 409.524 67.896ZM408.756 75V68.952H410.28V75H408.756ZM414.987 68.712C416.955 68.712 418.299 70.164 418.299 71.976C418.299 73.788 416.955 75.24 414.987 75.24C413.019 75.24 411.675 73.788 411.675 71.976C411.675 70.164 413.019 68.712 414.987 68.712ZM415.011 73.8C415.983 73.8 416.715 73.02 416.715 71.976C416.715 70.92 415.983 70.152 415.011 70.152C414.003 70.152 413.259 70.92 413.259 71.976C413.259 73.032 414.003 73.8 415.011 73.8ZM419.689 75V68.952H421.213V69.432C421.633 69.024 422.197 68.712 423.001 68.712C424.309 68.712 425.353 69.612 425.353 71.4V75H423.817V71.46C423.817 70.656 423.361 70.152 422.617 70.152C421.849 70.152 421.441 70.668 421.213 71.052V75H419.689Z" fill="#304436"/>
</g>
<path d="M297 137H380" stroke="#465FB1" stroke-width="2"/>
<path d="M297 221H380" stroke="#465FB1" stroke-width="2"/>
<path fill-rule="evenodd" clip-rule="evenodd" d="M292.297 129.537V132.965C292.297 132.742 292.485 132.561 292.717 132.561H295.24C295.473 132.561 295.661 132.742 295.661 132.965V129.537C295.661 129.76 295.473 129.94 295.24 129.94H292.717C292.485 129.94 292.297 129.76 292.297 129.537Z" fill="white"/>
<path d="M295.661 145.264V132.965C295.661 132.742 295.473 132.561 295.24 132.561H292.717C292.485 132.561 292.297 132.742 292.297 132.965V145.264C292.297 145.487 292.485 145.668 292.717 145.668H295.24C295.473 145.668 295.661 145.487 295.661 145.264Z" fill="white"/>
<path d="M295.24 127.319H292.717C292.485 127.319 292.297 127.499 292.297 127.722V129.537C292.297 129.76 292.485 129.94 292.717 129.94H295.24C295.473 129.94 295.661 129.76 295.661 129.537V127.722C295.661 127.499 295.473 127.319 295.24 127.319Z" fill="white"/>
<path fill-rule="evenodd" clip-rule="evenodd" d="M295.578 129.537V132.965C295.578 132.742 295.766 132.561 295.999 132.561H298.522C298.754 132.561 298.942 132.742 298.942 132.965V129.537C298.942 129.76 298.754 129.94 298.522 129.94H295.999C295.766 129.94 295.578 129.76 295.578 129.537Z" fill="white"/>
<path d="M298.942 145.264V132.965C298.942 132.742 298.754 132.561 298.522 132.561H295.999C295.766 132.561 295.578 132.742 295.578 132.965V145.264C295.578 145.487 295.766 145.668 295.999 145.668H298.522C298.754 145.668 298.942 145.487 298.942 145.264Z" fill="white"/>
<path d="M298.522 127.319H295.999C295.766 127.319 295.578 127.499 295.578 127.722V129.537C295.578 129.76 295.766 129.94 295.999 129.94H298.522C298.754 129.94 298.942 129.76 298.942 129.537V127.722C298.942 127.499 298.754 127.319 298.522 127.319Z" fill="white"/>
<path fill-rule="evenodd" clip-rule="evenodd" d="M298.859 129.53V132.958C298.859 132.736 299.048 132.555 299.28 132.555H301.803C302.035 132.555 302.223 132.736 302.223 132.958V129.53C302.223 129.753 302.035 129.934 301.803 129.934H299.28C299.048 129.934 298.859 129.753 298.859 129.53Z" fill="white"/>
<path d="M302.223 145.258V132.958C302.223 132.736 302.035 132.555 301.803 132.555H299.28C299.048 132.555 298.859 132.736 298.859 132.958V145.258C298.859 145.481 299.048 145.661 299.28 145.661H301.803C302.035 145.661 302.223 145.481 302.223 145.258Z" fill="white"/>
<path d="M301.803 127.312H299.28C299.048 127.312 298.859 127.493 298.859 127.716V129.53C298.859 129.753 299.048 129.934 299.28 129.934H301.803C302.035 129.934 302.223 129.753 302.223 129.53V127.716C302.223 127.493 302.035 127.312 301.803 127.312Z" fill="white"/>
<path fill-rule="evenodd" clip-rule="evenodd" d="M302.469 129.53V132.958C302.469 132.736 302.657 132.555 302.889 132.555H305.412C305.644 132.555 305.833 132.736 305.833 132.958V129.53C305.833 129.753 305.644 129.934 305.412 129.934H302.889C302.657 129.934 302.469 129.753 302.469 129.53Z" fill="white"/>
<path d="M305.833 145.258V132.958C305.833 132.736 305.644 132.555 305.412 132.555H302.889C302.657 132.555 302.469 132.736 302.469 132.958V145.258C302.469 145.481 302.657 145.661 302.889 145.661H305.412C305.644 145.661 305.833 145.481 305.833 145.258Z" fill="white"/>
<path d="M305.412 127.312H302.889C302.657 127.312 302.469 127.493 302.469 127.716V129.53C302.469 129.753 302.657 129.934 302.889 129.934H305.412C305.644 129.934 305.833 129.753 305.833 129.53V127.716C305.833 127.493 305.644 127.312 305.412 127.312Z" fill="white"/>
<path fill-rule="evenodd" clip-rule="evenodd" d="M305.75 129.53V132.958C305.75 132.736 305.938 132.555 306.17 132.555H308.693C308.926 132.555 309.114 132.736 309.114 132.958V129.53C309.114 129.753 308.926 129.934 308.693 129.934H306.17C305.938 129.934 305.75 129.753 305.75 129.53Z" fill="white"/>
<path d="M309.114 145.258V132.958C309.114 132.736 308.926 132.555 308.693 132.555H306.17C305.938 132.555 305.75 132.736 305.75 132.958V145.258C305.75 145.481 305.938 145.661 306.17 145.661H308.693C308.926 145.661 309.114 145.481 309.114 145.258Z" fill="white"/>
<path d="M308.693 127.312H306.17C305.938 127.312 305.75 127.493 305.75 127.716V129.53C305.75 129.753 305.938 129.934 306.17 129.934H308.693C308.926 129.934 309.114 129.753 309.114 129.53V127.716C309.114 127.493 308.926 127.312 308.693 127.312Z" fill="white"/>
<path d="M295.427 129.532V127.716C295.427 127.413 294.944 127.312 294.72 127.312V145.674C294.944 145.674 295.427 145.674 295.427 145.27V132.962V129.532Z" fill="#565656" fill-opacity="0.3"/>
<path fill-rule="evenodd" clip-rule="evenodd" d="M292.213 129.537V132.965C292.213 132.742 292.402 132.561 292.634 132.561H295.157C295.389 132.561 295.577 132.742 295.577 132.965V129.537C295.577 129.76 295.389 129.94 295.157 129.94H292.634C292.402 129.94 292.213 129.76 292.213 129.537Z" fill="#565656" fill-opacity="0.3"/>
<path d="M292.213 145.264V127.722M292.213 145.264C292.213 145.487 292.402 145.668 292.634 145.668H295.157C295.389 145.668 295.577 145.487 295.577 145.264M292.213 145.264V132.965M295.577 145.264V127.722M295.577 145.264V132.965M295.577 127.722C295.577 127.499 295.389 127.319 295.157 127.319H292.634C292.402 127.319 292.213 127.499 292.213 127.722M295.577 127.722V129.537M295.577 127.722V132.965M292.213 127.722V129.537M292.213 127.722V132.965M292.213 129.537C292.213 129.76 292.402 129.94 292.634 129.94H295.157C295.389 129.94 295.577 129.76 295.577 129.537M292.213 129.537V132.965M295.577 129.537V132.965M295.577 132.965C295.577 132.742 295.389 132.561 295.157 132.561H292.634C292.402 132.561 292.213 132.742 292.213 132.965" stroke="#304436"/>
<path d="M298.791 129.532V127.716C298.791 127.413 298.308 127.312 298.084 127.312V145.674C298.308 145.674 298.791 145.674 298.791 145.27V132.962V129.532Z" fill="#565656" fill-opacity="0.3"/>
<path fill-rule="evenodd" clip-rule="evenodd" d="M295.577 129.537V132.965C295.577 132.742 295.766 132.561 295.998 132.561H298.521C298.753 132.561 298.941 132.742 298.941 132.965V129.537C298.941 129.76 298.753 129.94 298.521 129.94H295.998C295.766 129.94 295.577 129.76 295.577 129.537Z" fill="#565656" fill-opacity="0.3"/>
<path d="M295.577 145.264V127.722M295.577 145.264C295.577 145.487 295.766 145.668 295.998 145.668H298.521C298.753 145.668 298.941 145.487 298.941 145.264M295.577 145.264V132.965M298.941 145.264V127.722M298.941 145.264V132.965M298.941 127.722C298.941 127.499 298.753 127.319 298.521 127.319H295.998C295.766 127.319 295.577 127.499 295.577 127.722M298.941 127.722V129.537M298.941 127.722V132.965M295.577 127.722V129.537M295.577 127.722V132.965M295.577 129.537C295.577 129.76 295.766 129.94 295.998 129.94H298.521C298.753 129.94 298.941 129.76 298.941 129.537M295.577 129.537V132.965M298.941 129.537V132.965M298.941 132.965C298.941 132.742 298.753 132.561 298.521 132.561H295.998C295.766 132.561 295.577 132.742 295.577 132.965" stroke="#304436"/>
<path d="M302.155 129.532V127.716C302.155 127.413 301.672 127.312 301.448 127.312V145.674C301.672 145.674 302.155 145.674 302.155 145.27V132.962V129.532Z" fill="#565656" fill-opacity="0.3"/>
<path fill-rule="evenodd" clip-rule="evenodd" d="M298.941 129.537V132.965C298.941 132.742 299.13 132.561 299.362 132.561H301.885C302.117 132.561 302.305 132.742 302.305 132.965V129.537C302.305 129.76 302.117 129.94 301.885 129.94H299.362C299.13 129.94 298.941 129.76 298.941 129.537Z" fill="#565656" fill-opacity="0.3"/>
<path d="M298.941 145.264V127.722M298.941 145.264C298.941 145.487 299.13 145.668 299.362 145.668H301.885C302.117 145.668 302.305 145.487 302.305 145.264M298.941 145.264V132.965M302.305 145.264V127.722M302.305 145.264V132.965M302.305 127.722C302.305 127.499 302.117 127.319 301.885 127.319H299.362C299.13 127.319 298.941 127.499 298.941 127.722M302.305 127.722V129.537M302.305 127.722V132.965M298.941 127.722V129.537M298.941 127.722V132.965M298.941 129.537C298.941 129.76 299.13 129.94 299.362 129.94H301.885C302.117 129.94 302.305 129.76 302.305 129.537M298.941 129.537V132.965M302.305 129.537V132.965M302.305 132.965C302.305 132.742 302.117 132.561 301.885 132.561H299.362C299.13 132.561 298.941 132.742 298.941 132.965" stroke="#304436"/>
<path d="M305.519 129.532V127.716C305.519 127.413 305.035 127.312 304.812 127.312V145.674C305.035 145.674 305.519 145.674 305.519 145.27V132.962V129.532Z" fill="#565656" fill-opacity="0.3"/>
<path fill-rule="evenodd" clip-rule="evenodd" d="M302.305 129.537V132.965C302.305 132.742 302.493 132.561 302.726 132.561H305.249C305.481 132.561 305.669 132.742 305.669 132.965V129.537C305.669 129.76 305.481 129.94 305.249 129.94H302.726C302.493 129.94 302.305 129.76 302.305 129.537Z" fill="#565656" fill-opacity="0.3"/>
<path d="M302.305 145.264V127.722M302.305 145.264C302.305 145.487 302.493 145.668 302.726 145.668H305.249C305.481 145.668 305.669 145.487 305.669 145.264M302.305 145.264V132.965M305.669 145.264V127.722M305.669 145.264V132.965M305.669 127.722C305.669 127.499 305.481 127.319 305.249 127.319H302.726C302.493 127.319 302.305 127.499 302.305 127.722M305.669 127.722V129.537M305.669 127.722V132.965M302.305 127.722V129.537M302.305 127.722V132.965M302.305 129.537C302.305 129.76 302.493 129.94 302.726 129.94H305.249C305.481 129.94 305.669 129.76 305.669 129.537M302.305 129.537V132.965M305.669 129.537V132.965M305.669 132.965C305.669 132.742 305.481 132.561 305.249 132.561H302.726C302.493 132.561 302.305 132.742 302.305 132.965" stroke="#304436"/>
<path d="M308.883 129.532V127.716C308.883 127.413 308.399 127.312 308.176 127.312V145.674C308.399 145.674 308.883 145.674 308.883 145.27V132.962V129.532Z" fill="#565656" fill-opacity="0.3"/>
<path fill-rule="evenodd" clip-rule="evenodd" d="M305.669 129.537V132.965C305.669 132.742 305.857 132.561 306.09 132.561H308.613C308.845 132.561 309.033 132.742 309.033 132.965V129.537C309.033 129.76 308.845 129.94 308.613 129.94H306.09C305.857 129.94 305.669 129.76 305.669 129.537Z" fill="#565656" fill-opacity="0.3"/>
<path d="M305.669 145.264V127.722M305.669 145.264C305.669 145.487 305.857 145.668 306.09 145.668H308.613C308.845 145.668 309.033 145.487 309.033 145.264M305.669 145.264V132.965M309.033 145.264V127.722M309.033 145.264V132.965M309.033 127.722C309.033 127.499 308.845 127.319 308.613 127.319H306.09C305.857 127.319 305.669 127.499 305.669 127.722M309.033 127.722V129.537M309.033 127.722V132.965M305.669 127.722V129.537M305.669 127.722V132.965M305.669 129.537C305.669 129.76 305.857 129.94 306.09 129.94H308.613C308.845 129.94 309.033 129.76 309.033 129.537M305.669 129.537V132.965M309.033 129.537V132.965M309.033 132.965C309.033 132.742 308.845 132.561 308.613 132.561H306.09C305.857 132.561 305.669 132.742 305.669 132.965" stroke="#304436"/>
<path d="M292.196 129.324L291.691 129.324C291.301 129.324 290.984 129.008 290.984 128.618C290.984 128.228 291.301 127.912 291.691 127.912L292.196 127.912L292.196 129.324Z" stroke="#304436"/>
<path d="M292.213 129.453L291.755 129.453C291.332 129.453 290.99 129.111 290.99 128.689C290.99 128.266 291.332 127.924 291.755 127.924L292.213 127.924L292.213 129.453Z" fill="white" stroke="#304436"/>
<path d="M309.033 127.924H309.492C309.914 127.924 310.256 128.266 310.256 128.689C310.256 129.111 309.914 129.453 309.492 129.453H309.033L309.033 127.924Z" fill="white" stroke="#304436"/>
<path fill-rule="evenodd" clip-rule="evenodd" d="M292.297 213.537V216.965C292.297 216.742 292.485 216.561 292.717 216.561H295.24C295.473 216.561 295.661 216.742 295.661 216.965V213.537C295.661 213.76 295.473 213.94 295.24 213.94H292.717C292.485 213.94 292.297 213.76 292.297 213.537Z" fill="white"/>
<path d="M295.661 229.264V216.965C295.661 216.742 295.473 216.561 295.24 216.561H292.717C292.485 216.561 292.297 216.742 292.297 216.965V229.264C292.297 229.487 292.485 229.668 292.717 229.668H295.24C295.473 229.668 295.661 229.487 295.661 229.264Z" fill="white"/>
<path d="M295.24 211.319H292.717C292.485 211.319 292.297 211.499 292.297 211.722V213.537C292.297 213.76 292.485 213.94 292.717 213.94H295.24C295.473 213.94 295.661 213.76 295.661 213.537V211.722C295.661 211.499 295.473 211.319 295.24 211.319Z" fill="white"/>
<path fill-rule="evenodd" clip-rule="evenodd" d="M295.578 213.537V216.965C295.578 216.742 295.766 216.561 295.999 216.561H298.522C298.754 216.561 298.942 216.742 298.942 216.965V213.537C298.942 213.76 298.754 213.94 298.522 213.94H295.999C295.766 213.94 295.578 213.76 295.578 213.537Z" fill="white"/>
<path d="M298.942 229.264V216.965C298.942 216.742 298.754 216.561 298.522 216.561H295.999C295.766 216.561 295.578 216.742 295.578 216.965V229.264C295.578 229.487 295.766 229.668 295.999 229.668H298.522C298.754 229.668 298.942 229.487 298.942 229.264Z" fill="white"/>
<path d="M298.522 211.319H295.999C295.766 211.319 295.578 211.499 295.578 211.722V213.537C295.578 213.76 295.766 213.94 295.999 213.94H298.522C298.754 213.94 298.942 213.76 298.942 213.537V211.722C298.942 211.499 298.754 211.319 298.522 211.319Z" fill="white"/>
<path fill-rule="evenodd" clip-rule="evenodd" d="M298.859 213.53V216.958C298.859 216.736 299.048 216.555 299.28 216.555H301.803C302.035 216.555 302.223 216.736 302.223 216.958V213.53C302.223 213.753 302.035 213.934 301.803 213.934H299.28C299.048 213.934 298.859 213.753 298.859 213.53Z" fill="white"/>
<path d="M302.223 229.258V216.958C302.223 216.736 302.035 216.555 301.803 216.555H299.28C299.048 216.555 298.859 216.736 298.859 216.958V229.258C298.859 229.481 299.048 229.661 299.28 229.661H301.803C302.035 229.661 302.223 229.481 302.223 229.258Z" fill="white"/>
<path d="M301.803 211.312H299.28C299.048 211.312 298.859 211.493 298.859 211.716V213.53C298.859 213.753 299.048 213.934 299.28 213.934H301.803C302.035 213.934 302.223 213.753 302.223 213.53V211.716C302.223 211.493 302.035 211.312 301.803 211.312Z" fill="white"/>
<path fill-rule="evenodd" clip-rule="evenodd" d="M302.469 213.53V216.958C302.469 216.736 302.657 216.555 302.889 216.555H305.412C305.644 216.555 305.833 216.736 305.833 216.958V213.53C305.833 213.753 305.644 213.934 305.412 213.934H302.889C302.657 213.934 302.469 213.753 302.469 213.53Z" fill="white"/>
<path d="M305.833 229.258V216.958C305.833 216.736 305.644 216.555 305.412 216.555H302.889C302.657 216.555 302.469 216.736 302.469 216.958V229.258C302.469 229.481 302.657 229.661 302.889 229.661H305.412C305.644 229.661 305.833 229.481 305.833 229.258Z" fill="white"/>
<path d="M305.412 211.312H302.889C302.657 211.312 302.469 211.493 302.469 211.716V213.53C302.469 213.753 302.657 213.934 302.889 213.934H305.412C305.644 213.934 305.833 213.753 305.833 213.53V211.716C305.833 211.493 305.644 211.312 305.412 211.312Z" fill="white"/>
<path fill-rule="evenodd" clip-rule="evenodd" d="M305.75 213.53V216.958C305.75 216.736 305.938 216.555 306.17 216.555H308.693C308.926 216.555 309.114 216.736 309.114 216.958V213.53C309.114 213.753 308.926 213.934 308.693 213.934H306.17C305.938 213.934 305.75 213.753 305.75 213.53Z" fill="white"/>
<path d="M309.114 229.258V216.958C309.114 216.736 308.926 216.555 308.693 216.555H306.17C305.938 216.555 305.75 216.736 305.75 216.958V229.258C305.75 229.481 305.938 229.661 306.17 229.661H308.693C308.926 229.661 309.114 229.481 309.114 229.258Z" fill="white"/>
<path d="M308.693 211.312H306.17C305.938 211.312 305.75 211.493 305.75 211.716V213.53C305.75 213.753 305.938 213.934 306.17 213.934H308.693C308.926 213.934 309.114 213.753 309.114 213.53V211.716C309.114 211.493 308.926 211.312 308.693 211.312Z" fill="white"/>
<path d="M295.427 213.532V211.716C295.427 211.413 294.944 211.312 294.72 211.312V229.674C294.944 229.674 295.427 229.674 295.427 229.27V216.962V213.532Z" fill="#565656" fill-opacity="0.3"/>
<path fill-rule="evenodd" clip-rule="evenodd" d="M292.213 213.537V216.965C292.213 216.742 292.402 216.561 292.634 216.561H295.157C295.389 216.561 295.577 216.742 295.577 216.965V213.537C295.577 213.76 295.389 213.94 295.157 213.94H292.634C292.402 213.94 292.213 213.76 292.213 213.537Z" fill="#565656" fill-opacity="0.3"/>
<path d="M292.213 229.264V211.722M292.213 229.264C292.213 229.487 292.402 229.668 292.634 229.668H295.157C295.389 229.668 295.577 229.487 295.577 229.264M292.213 229.264V216.965M295.577 229.264V211.722M295.577 229.264V216.965M295.577 211.722C295.577 211.499 295.389 211.319 295.157 211.319H292.634C292.402 211.319 292.213 211.499 292.213 211.722M295.577 211.722V213.537M295.577 211.722V216.965M292.213 211.722V213.537M292.213 211.722V216.965M292.213 213.537C292.213 213.76 292.402 213.94 292.634 213.94H295.157C295.389 213.94 295.577 213.76 295.577 213.537M292.213 213.537V216.965M295.577 213.537V216.965M295.577 216.965C295.577 216.742 295.389 216.561 295.157 216.561H292.634C292.402 216.561 292.213 216.742 292.213 216.965" stroke="#304436"/>
<path d="M298.791 213.532V211.716C298.791 211.413 298.308 211.312 298.084 211.312V229.674C298.308 229.674 298.791 229.674 298.791 229.27V216.962V213.532Z" fill="#565656" fill-opacity="0.3"/>
<path fill-rule="evenodd" clip-rule="evenodd" d="M295.577 213.537V216.965C295.577 216.742 295.766 216.561 295.998 216.561H298.521C298.753 216.561 298.941 216.742 298.941 216.965V213.537C298.941 213.76 298.753 213.94 298.521 213.94H295.998C295.766 213.94 295.577 213.76 295.577 213.537Z" fill="#565656" fill-opacity="0.3"/>
<path d="M295.577 229.264V211.722M295.577 229.264C295.577 229.487 295.766 229.668 295.998 229.668H298.521C298.753 229.668 298.941 229.487 298.941 229.264M295.577 229.264V216.965M298.941 229.264V211.722M298.941 229.264V216.965M298.941 211.722C298.941 211.499 298.753 211.319 298.521 211.319H295.998C295.766 211.319 295.577 211.499 295.577 211.722M298.941 211.722V213.537M298.941 211.722V216.965M295.577 211.722V213.537M295.577 211.722V216.965M295.577 213.537C295.577 213.76 295.766 213.94 295.998 213.94H298.521C298.753 213.94 298.941 213.76 298.941 213.537M295.577 213.537V216.965M298.941 213.537V216.965M298.941 216.965C298.941 216.742 298.753 216.561 298.521 216.561H295.998C295.766 216.561 295.577 216.742 295.577 216.965" stroke="#304436"/>
<path d="M302.155 213.532V211.716C302.155 211.413 301.672 211.312 301.448 211.312V229.674C301.672 229.674 302.155 229.674 302.155 229.27V216.962V213.532Z" fill="#565656" fill-opacity="0.3"/>
<path fill-rule="evenodd" clip-rule="evenodd" d="M298.941 213.537V216.965C298.941 216.742 299.13 216.561 299.362 216.561H301.885C302.117 216.561 302.305 216.742 302.305 216.965V213.537C302.305 213.76 302.117 213.94 301.885 213.94H299.362C299.13 213.94 298.941 213.76 298.941 213.537Z" fill="#565656" fill-opacity="0.3"/>
<path d="M298.941 229.264V211.722M298.941 229.264C298.941 229.487 299.13 229.668 299.362 229.668H301.885C302.117 229.668 302.305 229.487 302.305 229.264M298.941 229.264V216.965M302.305 229.264V211.722M302.305 229.264V216.965M302.305 211.722C302.305 211.499 302.117 211.319 301.885 211.319H299.362C299.13 211.319 298.941 211.499 298.941 211.722M302.305 211.722V213.537M302.305 211.722V216.965M298.941 211.722V213.537M298.941 211.722V216.965M298.941 213.537C298.941 213.76 299.13 213.94 299.362 213.94H301.885C302.117 213.94 302.305 213.76 302.305 213.537M298.941 213.537V216.965M302.305 213.537V216.965M302.305 216.965C302.305 216.742 302.117 216.561 301.885 216.561H299.362C299.13 216.561 298.941 216.742 298.941 216.965" stroke="#304436"/>
<path d="M305.519 213.532V211.716C305.519 211.413 305.035 211.312 304.812 211.312V229.674C305.035 229.674 305.519 229.674 305.519 229.27V216.962V213.532Z" fill="#565656" fill-opacity="0.3"/>
<path fill-rule="evenodd" clip-rule="evenodd" d="M302.305 213.537V216.965C302.305 216.742 302.493 216.561 302.726 216.561H305.249C305.481 216.561 305.669 216.742 305.669 216.965V213.537C305.669 213.76 305.481 213.94 305.249 213.94H302.726C302.493 213.94 302.305 213.76 302.305 213.537Z" fill="#565656" fill-opacity="0.3"/>
<path d="M302.305 229.264V211.722M302.305 229.264C302.305 229.487 302.493 229.668 302.726 229.668H305.249C305.481 229.668 305.669 229.487 305.669 229.264M302.305 229.264V216.965M305.669 229.264V211.722M305.669 229.264V216.965M305.669 211.722C305.669 211.499 305.481 211.319 305.249 211.319H302.726C302.493 211.319 302.305 211.499 302.305 211.722M305.669 211.722V213.537M305.669 211.722V216.965M302.305 211.722V213.537M302.305 211.722V216.965M302.305 213.537C302.305 213.76 302.493 213.94 302.726 213.94H305.249C305.481 213.94 305.669 213.76 305.669 213.537M302.305 213.537V216.965M305.669 213.537V216.965M305.669 216.965C305.669 216.742 305.481 216.561 305.249 216.561H302.726C302.493 216.561 302.305 216.742 302.305 216.965" stroke="#304436"/>
<path d="M308.883 213.532V211.716C308.883 211.413 308.399 211.312 308.176 211.312V229.674C308.399 229.674 308.883 229.674 308.883 229.27V216.962V213.532Z" fill="#565656" fill-opacity="0.3"/>
<path fill-rule="evenodd" clip-rule="evenodd" d="M305.669 213.537V216.965C305.669 216.742 305.857 216.561 306.09 216.561H308.613C308.845 216.561 309.033 216.742 309.033 216.965V213.537C309.033 213.76 308.845 213.94 308.613 213.94H306.09C305.857 213.94 305.669 213.76 305.669 213.537Z" fill="#565656" fill-opacity="0.3"/>
<path d="M305.669 229.264V211.722M305.669 229.264C305.669 229.487 305.857 229.668 306.09 229.668H308.613C308.845 229.668 309.033 229.487 309.033 229.264M305.669 229.264V216.965M309.033 229.264V211.722M309.033 229.264V216.965M309.033 211.722C309.033 211.499 308.845 211.319 308.613 211.319H306.09C305.857 211.319 305.669 211.499 305.669 211.722M309.033 211.722V213.537M309.033 211.722V216.965M305.669 211.722V213.537M305.669 211.722V216.965M305.669 213.537C305.669 213.76 305.857 213.94 306.09 213.94H308.613C308.845 213.94 309.033 213.76 309.033 213.537M305.669 213.537V216.965M309.033 213.537V216.965M309.033 216.965C309.033 216.742 308.845 216.561 308.613 216.561H306.09C305.857 216.561 305.669 216.742 305.669 216.965" stroke="#304436"/>
<path d="M292.196 213.324L291.691 213.324C291.301 213.324 290.984 213.008 290.984 212.618C290.984 212.228 291.301 211.912 291.691 211.912L292.196 211.912L292.196 213.324Z" stroke="#304436"/>
<path d="M292.213 213.453L291.755 213.453C291.332 213.453 290.99 213.111 290.99 212.689C290.99 212.266 291.332 211.924 291.755 211.924L292.213 211.924L292.213 213.453Z" fill="white" stroke="#304436"/>
<path d="M309.033 211.924H309.492C309.914 211.924 310.256 212.266 310.256 212.689C310.256 213.111 309.914 213.453 309.492 213.453H309.033L309.033 211.924Z" fill="white" stroke="#304436"/>
<path d="M375.478 106.971C375.478 106.151 376.14 105.486 376.957 105.486L390.8 105.486L405.043 105.486C405.86 105.486 406.522 106.151 406.522 106.971V153.029C406.522 153.849 405.86 154.514 405.043 154.514H376.957C376.14 154.514 375.478 153.849 375.478 153.029V106.971Z" fill="white" stroke="#304436"/>
<path d="M375.478 106.971C375.478 106.151 376.14 105.486 376.957 105.486H405.043C405.86 105.486 406.522 106.151 406.522 106.971V115.886H375.478V106.971Z" fill="#304436"/>
<path d="M399.116 109.286C399.578 109.478 399.999 109.752 400.357 110.093C400.357 110.093 400.612 110.026 400.779 110.015C400.913 110.007 401.124 110.026 401.124 110.026C401.16 109.786 401.18 109.509 401.18 109.227C401.181 108.803 401.265 108.434 401.047 108.005C400.681 107.285 399.901 106.754 399.194 107.059C397.974 107.582 398.221 108.849 399.116 109.286Z" fill="white"/>
<path d="M400.254 113.06C400.217 112.754 400.217 112.446 400.254 112.142C400.277 111.957 400.314 111.773 400.364 111.592C400.364 111.592 400.185 111.447 400.116 111.321C400.043 111.189 400.021 110.948 400.021 110.948C399.634 111.101 399.225 111.314 398.848 111.556C398.591 111.722 398.348 111.901 398.136 112.085C397.624 112.593 397.555 113.139 397.758 113.575C397.855 113.782 398.013 113.965 398.215 114.107C398.412 114.244 398.606 114.329 398.792 114.37C399.627 114.555 400.297 113.849 400.254 113.06Z" fill="white"/>
<path d="M403.07 110.223C402.676 110.507 402.2 110.726 401.727 110.855C401.727 110.855 401.698 111.092 401.632 111.228C401.568 111.361 401.402 111.53 401.402 111.53C401.946 111.94 402.558 112.256 403.213 112.466L403.256 112.478C403.685 112.583 404.047 112.547 404.33 112.416C404.739 112.227 404.984 111.841 405.033 111.401C405.108 110.714 404.78 110.273 404.33 110.093C403.941 109.938 403.462 109.978 403.073 110.223L403.07 110.223Z" fill="white"/>
<path d="M396.586 122.814C397.681 122.814 398.565 123.705 398.565 124.8V126.47C398.565 127.564 397.681 128.456 396.586 128.456H385.826C384.731 128.456 383.848 127.564 383.848 126.47V124.8L383.858 124.597C383.959 123.598 384.8 122.814 385.826 122.814H396.586Z" fill="#93D3F6" stroke="#304436"/>
<path d="M384.348 124.028C384.348 123.634 384.668 123.314 385.062 123.314H397.351C397.745 123.314 398.065 123.634 398.065 124.028H384.348Z" fill="#565656" fill-opacity="0.3"/>
<path d="M385.25 127.956L390.484 123.314H392.109L386.875 127.956H385.25Z" fill="white" fill-opacity="0.3"/>
<path d="M387.777 127.956L393.011 123.314H393.914L388.679 127.956H387.777Z" fill="white" fill-opacity="0.3"/>
<path d="M406.5 203.5H417.5" stroke="#535F57" stroke-width="4"/>
<path d="M403.122 105.486L405.165 105.486C406.322 105.486 407.261 106.424 407.261 107.582V151.257C407.261 153.466 405.47 155.257 403.261 155.257H403.122V105.486Z" fill="#565656" fill-opacity="0.3"/>
<path d="M375.478 190.971C375.478 190.151 376.14 189.486 376.957 189.486L390.8 189.486L405.043 189.486C405.86 189.486 406.522 190.151 406.522 190.971V237.029C406.522 237.849 405.86 238.514 405.043 238.514H376.957C376.14 238.514 375.478 237.849 375.478 237.029V190.971Z" fill="white" stroke="#304436"/>
<path d="M375.478 190.971C375.478 190.151 376.14 189.486 376.957 189.486H405.043C405.86 189.486 406.522 190.151 406.522 190.971V199.886H375.478V190.971Z" fill="#304436"/>
<path d="M399.116 193.286C399.578 193.478 399.999 193.752 400.357 194.093C400.357 194.093 400.612 194.026 400.779 194.015C400.913 194.007 401.124 194.026 401.124 194.026C401.16 193.786 401.18 193.509 401.18 193.227C401.181 192.803 401.265 192.434 401.047 192.005C400.681 191.285 399.901 190.754 399.194 191.059C397.974 191.582 398.221 192.849 399.116 193.286Z" fill="white"/>
<path d="M400.254 197.06C400.217 196.754 400.217 196.446 400.254 196.142C400.277 195.957 400.314 195.773 400.364 195.592C400.364 195.592 400.185 195.447 400.116 195.321C400.043 195.189 400.021 194.948 400.021 194.948C399.634 195.101 399.225 195.314 398.848 195.556C398.591 195.722 398.348 195.901 398.136 196.085C397.624 196.593 397.555 197.139 397.758 197.575C397.855 197.782 398.013 197.965 398.215 198.107C398.412 198.244 398.606 198.329 398.792 198.37C399.627 198.555 400.297 197.849 400.254 197.06Z" fill="white"/>
<path d="M403.07 194.223C402.676 194.507 402.2 194.726 401.727 194.855C401.727 194.855 401.698 195.092 401.632 195.228C401.568 195.361 401.402 195.53 401.402 195.53C401.946 195.94 402.558 196.256 403.213 196.466L403.256 196.478C403.685 196.583 404.047 196.547 404.33 196.416C404.739 196.227 404.984 195.841 405.033 195.401C405.108 194.714 404.78 194.273 404.33 194.093C403.941 193.938 403.462 193.978 403.073 194.223L403.07 194.223Z" fill="white"/>
<path d="M396.586 206.814C397.681 206.814 398.565 207.705 398.565 208.8V210.47C398.565 211.564 397.681 212.456 396.586 212.456H385.826C384.731 212.456 383.848 211.564 383.848 210.47V208.8L383.858 208.597C383.959 207.598 384.8 206.814 385.826 206.814H396.586Z" fill="#93D3F6" stroke="#304436"/>
<path d="M384.348 208.028C384.348 207.634 384.668 207.314 385.062 207.314H397.351C397.745 207.314 398.065 207.634 398.065 208.028H384.348Z" fill="#565656" fill-opacity="0.3"/>
<path d="M385.25 211.956L390.484 207.314H392.109L386.875 211.956H385.25Z" fill="white" fill-opacity="0.3"/>
<path d="M387.777 211.956L393.011 207.314H393.914L388.679 211.956H387.777Z" fill="white" fill-opacity="0.3"/>
<path d="M403.122 189.486L405.165 189.486C406.322 189.486 407.261 190.424 407.261 191.582V235.257C407.261 237.466 405.47 239.257 403.261 239.257H403.122V189.486Z" fill="#565656" fill-opacity="0.3"/>
<path d="M333.406 114.421L332 115.827" stroke="#304436" stroke-linecap="round"/>
<path d="M335.513 116.529L333.171 118.872" stroke="#304436" stroke-linecap="round"/>
<path d="M337.622 118.637L335.279 120.98" stroke="#304436" stroke-linecap="round"/>
<path d="M339.73 120.746L338.324 122.151" stroke="#304436" stroke-linecap="round"/>
<path d="M344.572 110.215H348V154.785H344.572L344.571 113.072L344.572 110.215Z" fill="white"/>
<path d="M344.571 113.072L344.572 154.785H348V110.215H344.572L344.571 113.072ZM344.571 113.072L341.143 114.786" stroke="#304436"/>
<path d="M334.148 113.078C334.148 113.078 337.011 110.215 340.693 113.897C344.375 117.578 341.511 120.442 341.511 120.442L334.148 113.078Z" fill="white" stroke="#304436"/>
<path d="M333.406 198.421L332 199.827" stroke="#304436" stroke-linecap="round"/>
<path d="M335.513 200.529L333.171 202.872" stroke="#304436" stroke-linecap="round"/>
<path d="M337.622 202.637L335.279 204.98" stroke="#304436" stroke-linecap="round"/>
<path d="M339.73 204.746L338.324 206.151" stroke="#304436" stroke-linecap="round"/>
<path d="M344.572 194.215H348V238.785H344.572L344.571 197.072L344.572 194.215Z" fill="white"/>
<path d="M344.571 197.072L344.572 238.785H348V194.215H344.572L344.571 197.072ZM344.571 197.072L341.143 198.786" stroke="#304436"/>
<path d="M334.148 197.078C334.148 197.078 337.011 194.215 340.693 197.897C344.375 201.578 341.511 204.442 341.511 204.442L334.148 197.078Z" fill="white" stroke="#304436"/>
<defs>
<filter id="filter0_d_2254_10269" x="334" y="243" width="114" height="39" filterUnits="userSpaceOnUse" color-interpolation-filters="sRGB">
<feFlood flood-opacity="0" result="BackgroundImageFix"/>
<feColorMatrix in="SourceAlpha" type="matrix" values="0 0 0 0 0 0 0 0 0 0 0 0 0 0 0 0 0 0 127 0" result="hardAlpha"/>
<feOffset dx="1" dy="1"/>
<feComposite in2="hardAlpha" operator="out"/>
<feColorMatrix type="matrix" values="0 0 0 0 0.188235 0 0 0 0 0.266667 0 0 0 0 0.211765 0 0 0 1 0"/>
<feBlend mode="normal" in2="BackgroundImageFix" result="effect1_dropShadow_2254_10269"/>
<feBlend mode="normal" in="SourceGraphic" in2="effect1_dropShadow_2254_10269" result="shape"/>
</filter>
<filter id="filter1_d_2254_10269" x="291" y="59" width="139" height="22" filterUnits="userSpaceOnUse" color-interpolation-filters="sRGB">
<feFlood flood-opacity="0" result="BackgroundImageFix"/>
<feColorMatrix in="SourceAlpha" type="matrix" values="0 0 0 0 0 0 0 0 0 0 0 0 0 0 0 0 0 0 127 0" result="hardAlpha"/>
<feOffset dx="1" dy="1"/>
<feComposite in2="hardAlpha" operator="out"/>
<feColorMatrix type="matrix" values="0 0 0 0 0.188235 0 0 0 0 0.266667 0 0 0 0 0.211765 0 0 0 1 0"/>
<feBlend mode="normal" in2="BackgroundImageFix" result="effect1_dropShadow_2254_10269"/>
<feBlend mode="normal" in="SourceGraphic" in2="effect1_dropShadow_2254_10269" result="shape"/>
</filter>
<clipPath id="clip0_2254_10269">
<rect x="249.11" y="21.813" width="28.4629" height="46.6189" rx="2" fill="white"/>
</clipPath>
<pattern id="pattern0_2254_10269" patternUnits="userSpaceOnUse" patternTransform="matrix(17 0 0 14 202.5 75.5)" preserveAspectRatio="none" viewBox="-0.5 -0.5 17 14" width="1" height="1">
<use xlink:href="#pattern0_2254_10269_inner" transform="translate(-25.5 -7)"/>
<use xlink:href="#pattern0_2254_10269_inner" transform="translate(-8.5 -7)"/>
<use xlink:href="#pattern0_2254_10269_inner" transform="translate(8.5 -7)"/>
<use xlink:href="#pattern0_2254_10269_inner" transform="translate(-34 0)"/>
<use xlink:href="#pattern0_2254_10269_inner" transform="translate(-17 0)"/>
<g id="pattern0_2254_10269_inner">
<rect width="17" height="7" fill="#F3E1D1" stroke="white"/>
</g>
<use xlink:href="#pattern0_2254_10269_inner" transform="translate(-25.5 7)"/>
<use xlink:href="#pattern0_2254_10269_inner" transform="translate(-8.5 7)"/>
<use xlink:href="#pattern0_2254_10269_inner" transform="translate(8.5 7)"/>
</pattern></defs>
</svg>
