<svg width="501" height="362" viewBox="0 0 501 362" fill="none" xmlns="http://www.w3.org/2000/svg" xmlns:xlink="http://www.w3.org/1999/xlink">
<path d="M0 0H500V362H0V0Z" fill="white"/>
<path d="M500 0H499V362H500H501V0H500Z" fill="#E9E9E9"/>
<path d="M434 288H56C46.6112 288 39 295.611 39 305V321C39 321 44.6904 323.442 48.5 324.5C64.5465 328.955 74.3628 321.735 91 321C110.312 320.147 121.184 320.228 140.5 321C158.307 321.712 168.259 326.189 186 324.5C199.768 323.19 206.946 332.753 220.5 330C242.774 325.476 255.277 321.487 278 321C296.222 320.61 306.308 326.116 324.5 325C335.139 324.347 340.892 322.043 351.5 321L351.814 320.969C372.803 318.905 385.081 317.697 406 321C424.123 323.862 451 334.5 451 334.5V305C451 295.611 443.389 288 434 288Z" fill="#9A8D81" stroke="#304436" stroke-width="2"/>
<path d="M39 354H451V334.5C451 334.5 424.123 323.861 406 321C385.081 317.697 372.803 318.905 351.814 320.969L351.5 321C340.892 322.043 335.139 324.347 324.5 325C306.308 326.116 296.222 320.61 278 321C255.277 321.487 242.774 325.476 220.5 330C206.946 332.753 199.768 323.189 186 324.5C168.259 326.189 158.307 321.712 140.5 321C121.184 320.228 110.312 320.147 91 321C74.3628 321.735 64.5465 328.955 48.5 324.5C44.6904 323.442 39 321 39 321V354Z" fill="#624D45" stroke="#304436" stroke-width="2"/>
<path d="M53.5 332H61.5" stroke="#304436" stroke-width="2" stroke-linecap="round"/>
<path d="M208 301H216" stroke="#304436" stroke-width="2" stroke-linecap="round"/>
<path d="M53 319H61" stroke="#304436" stroke-width="2" stroke-linecap="round"/>
<path d="M392 295H400" stroke="#304436" stroke-width="2" stroke-linecap="round"/>
<path d="M281 333H289" stroke="#304436" stroke-width="2" stroke-linecap="round"/>
<path d="M217 347H225" stroke="#304436" stroke-width="2" stroke-linecap="round"/>
<path d="M198 345H190" stroke="#304436" stroke-width="2" stroke-linecap="round"/>
<path d="M352.5 314H344.5" stroke="#304436" stroke-width="2" stroke-linecap="round"/>
<path d="M361 300H353" stroke="#304436" stroke-width="2" stroke-linecap="round"/>
<path d="M425.5 346H417.5" stroke="#304436" stroke-width="2" stroke-linecap="round"/>
<path d="M174 329H166" stroke="#304436" stroke-width="2" stroke-linecap="round"/>
<path d="M328.5 298H320.5" stroke="#304436" stroke-width="2" stroke-linecap="round"/>
<path d="M134.5 296H126.5" stroke="#304436" stroke-width="2" stroke-linecap="round"/>
<path d="M401.5 330H393.5" stroke="#304436" stroke-width="2" stroke-linecap="round"/>
<path d="M69.5 343H77.5" stroke="#304436" stroke-width="2" stroke-linecap="round"/>
<path d="M224 312H232" stroke="#304436" stroke-width="2" stroke-linecap="round"/>
<path d="M48 306H56" stroke="#304436" stroke-width="2" stroke-linecap="round"/>
<path d="M408 306H416" stroke="#304436" stroke-width="2" stroke-linecap="round"/>
<path d="M297 344H305" stroke="#304436" stroke-width="2" stroke-linecap="round"/>
<path d="M233 336H241" stroke="#304436" stroke-width="2" stroke-linecap="round"/>
<path d="M117.5 330H125.5" stroke="#304436" stroke-width="2" stroke-linecap="round"/>
<path d="M272 299H280" stroke="#304436" stroke-width="2" stroke-linecap="round"/>
<path d="M78 297H86" stroke="#304436" stroke-width="2" stroke-linecap="round"/>
<path d="M199 316H207" stroke="#304436" stroke-width="2" stroke-linecap="round"/>
<path d="M345 331H353" stroke="#304436" stroke-width="2" stroke-linecap="round"/>
<path d="M134 343H126" stroke="#304436" stroke-width="2" stroke-linecap="round"/>
<path d="M288.5 312H280.5" stroke="#304436" stroke-width="2" stroke-linecap="round"/>
<path d="M94.5 310H86.5" stroke="#304436" stroke-width="2" stroke-linecap="round"/>
<path d="M361.5 344H353.5" stroke="#304436" stroke-width="2" stroke-linecap="round"/>
<path d="M100.5 337H103.5" stroke="#304436" stroke-width="2" stroke-linecap="round"/>
<path d="M255 306H258" stroke="#304436" stroke-width="2" stroke-linecap="round"/>
<path d="M180 319H183" stroke="#304436" stroke-width="2" stroke-linecap="round"/>
<path d="M439 300H442" stroke="#304436" stroke-width="2" stroke-linecap="round"/>
<path d="M374 312H377" stroke="#304436" stroke-width="2" stroke-linecap="round"/>
<path d="M328 338H331" stroke="#304436" stroke-width="2" stroke-linecap="round"/>
<path d="M264 342H267" stroke="#304436" stroke-width="2" stroke-linecap="round"/>
<path d="M151 350H148" stroke="#304436" stroke-width="2" stroke-linecap="round"/>
<path d="M305.5 319H302.5" stroke="#304436" stroke-width="2" stroke-linecap="round"/>
<path d="M171 301H168" stroke="#304436" stroke-width="2" stroke-linecap="round"/>
<path d="M378.5 351H375.5" stroke="#304436" stroke-width="2" stroke-linecap="round"/>
<path d="M71 332L75 332" stroke="#304436" stroke-width="2" stroke-linecap="round"/>
<path d="M225.5 301L229.5 301" stroke="#304436" stroke-width="2" stroke-linecap="round"/>
<path d="M160 319L164 319" stroke="#304436" stroke-width="2" stroke-linecap="round"/>
<path d="M119 317L123 317" stroke="#304436" stroke-width="2" stroke-linecap="round"/>
<path d="M409.5 295L413.5 295" stroke="#304436" stroke-width="2" stroke-linecap="round"/>
<path d="M298.5 333L302.5 333" stroke="#304436" stroke-width="2" stroke-linecap="round"/>
<path d="M234.5 347L238.5 347" stroke="#304436" stroke-width="2" stroke-linecap="round"/>
<path d="M180.5 345L176.5 345" stroke="#304436" stroke-width="2" stroke-linecap="round"/>
<path d="M335 314L331 314" stroke="#304436" stroke-width="2" stroke-linecap="round"/>
<path d="M141 312L137 312" stroke="#304436" stroke-width="2" stroke-linecap="round"/>
<path d="M408 346L404 346" stroke="#304436" stroke-width="2" stroke-linecap="round"/>
<path d="M161.5 329L157.5 329" stroke="#304436" stroke-width="2" stroke-linecap="round"/>
<path d="M316 298L312 298" stroke="#304436" stroke-width="2" stroke-linecap="round"/>
<path d="M122 296L118 296" stroke="#304436" stroke-width="2" stroke-linecap="round"/>
<path d="M389 330L385 330" stroke="#304436" stroke-width="2" stroke-linecap="round"/>
<path d="M87 343L91 343" stroke="#304436" stroke-width="2" stroke-linecap="round"/>
<path d="M241.5 312L245.5 312" stroke="#304436" stroke-width="2" stroke-linecap="round"/>
<path d="M74 320L78 320" stroke="#304436" stroke-width="2" stroke-linecap="round"/>
<path d="M425.5 306L429.5 306" stroke="#304436" stroke-width="2" stroke-linecap="round"/>
<path d="M314.5 344L318.5 344" stroke="#304436" stroke-width="2" stroke-linecap="round"/>
<path d="M250.5 336L254.5 336" stroke="#304436" stroke-width="2" stroke-linecap="round"/>
<path d="M394 283H393" stroke="#867744" stroke-width="2" stroke-linecap="round"/>
<path d="M195.641 74H408.641V305H195.641V74Z" fill="#F3E1D1" stroke="#304436" stroke-width="2"/>
<path fill-rule="evenodd" clip-rule="evenodd" d="M232.688 207.547V211.955C232.688 211.668 232.93 211.436 233.228 211.436H236.472C236.771 211.436 237.013 211.668 237.013 211.955V207.547C237.013 207.834 236.771 208.066 236.472 208.066H233.228C232.93 208.066 232.688 207.834 232.688 207.547Z" fill="white"/>
<path d="M237.013 227.769V211.955C237.013 211.668 236.771 211.436 236.472 211.436H233.228C232.93 211.436 232.688 211.668 232.688 211.955V227.769C232.688 228.055 232.93 228.287 233.228 228.287H236.472C236.771 228.287 237.013 228.055 237.013 227.769Z" fill="white"/>
<path d="M236.472 204.696H233.228C232.93 204.696 232.688 204.928 232.688 205.214V207.547C232.688 207.834 232.93 208.066 233.228 208.066H236.472C236.771 208.066 237.013 207.834 237.013 207.547V205.214C237.013 204.928 236.771 204.696 236.472 204.696Z" fill="white"/>
<path fill-rule="evenodd" clip-rule="evenodd" d="M236.906 207.547V211.955C236.906 211.668 237.148 211.436 237.447 211.436H240.691C240.989 211.436 241.231 211.668 241.231 211.955V207.547C241.231 207.834 240.989 208.066 240.691 208.066H237.447C237.148 208.066 236.906 207.834 236.906 207.547Z" fill="white"/>
<path d="M241.231 227.769V211.955C241.231 211.668 240.989 211.436 240.691 211.436H237.447C237.148 211.436 236.906 211.668 236.906 211.955V227.769C236.906 228.055 237.148 228.287 237.447 228.287H240.691C240.989 228.287 241.231 228.055 241.231 227.769Z" fill="white"/>
<path d="M240.691 204.696H237.447C237.148 204.696 236.906 204.928 236.906 205.214V207.547C236.906 207.834 237.148 208.066 237.447 208.066H240.691C240.989 208.066 241.231 207.834 241.231 207.547V205.214C241.231 204.928 240.989 204.696 240.691 204.696Z" fill="white"/>
<path fill-rule="evenodd" clip-rule="evenodd" d="M241.125 207.539V211.946C241.125 211.66 241.367 211.428 241.666 211.428H244.909C245.208 211.428 245.45 211.66 245.45 211.946V207.539C245.45 207.826 245.208 208.058 244.909 208.058H241.666C241.367 208.058 241.125 207.826 241.125 207.539Z" fill="white"/>
<path d="M245.45 227.76V211.946C245.45 211.66 245.208 211.428 244.909 211.428H241.666C241.367 211.428 241.125 211.66 241.125 211.946V227.76C241.125 228.047 241.367 228.279 241.666 228.279H244.909C245.208 228.279 245.45 228.047 245.45 227.76Z" fill="white"/>
<path d="M244.909 204.688H241.666C241.367 204.688 241.125 204.92 241.125 205.206V207.539C241.125 207.826 241.367 208.058 241.666 208.058H244.909C245.208 208.058 245.45 207.826 245.45 207.539V205.206C245.45 204.92 245.208 204.688 244.909 204.688Z" fill="white"/>
<path fill-rule="evenodd" clip-rule="evenodd" d="M245.766 207.539V211.946C245.766 211.66 246.008 211.428 246.306 211.428H249.55C249.849 211.428 250.091 211.66 250.091 211.946V207.539C250.091 207.826 249.849 208.058 249.55 208.058H246.306C246.008 208.058 245.766 207.826 245.766 207.539Z" fill="white"/>
<path d="M250.091 227.76V211.946C250.091 211.66 249.849 211.428 249.55 211.428H246.306C246.008 211.428 245.766 211.66 245.766 211.946V227.76C245.766 228.047 246.008 228.279 246.306 228.279H249.55C249.849 228.279 250.091 228.047 250.091 227.76Z" fill="white"/>
<path d="M249.55 204.688H246.306C246.008 204.688 245.766 204.92 245.766 205.206V207.539C245.766 207.826 246.008 208.058 246.306 208.058H249.55C249.849 208.058 250.091 207.826 250.091 207.539V205.206C250.091 204.92 249.849 204.688 249.55 204.688Z" fill="white"/>
<path fill-rule="evenodd" clip-rule="evenodd" d="M249.984 207.539V211.946C249.984 211.66 250.226 211.428 250.525 211.428H253.769C254.067 211.428 254.309 211.66 254.309 211.946V207.539C254.309 207.826 254.067 208.058 253.769 208.058H250.525C250.226 208.058 249.984 207.826 249.984 207.539Z" fill="white"/>
<path d="M254.309 227.76V211.946C254.309 211.66 254.067 211.428 253.769 211.428H250.525C250.226 211.428 249.984 211.66 249.984 211.946V227.76C249.984 228.047 250.226 228.279 250.525 228.279H253.769C254.067 228.279 254.309 228.047 254.309 227.76Z" fill="white"/>
<path d="M253.769 204.688H250.525C250.226 204.688 249.984 204.92 249.984 205.206V207.539C249.984 207.826 250.226 208.058 250.525 208.058H253.769C254.067 208.058 254.309 207.826 254.309 207.539V205.206C254.309 204.92 254.067 204.688 253.769 204.688Z" fill="white"/>
<path d="M236.712 207.541V205.206C236.712 204.817 236.091 204.688 235.804 204.688V228.295C236.091 228.295 236.712 228.295 236.712 227.776V211.951V207.541Z" fill="#565656" fill-opacity="0.3"/>
<path fill-rule="evenodd" clip-rule="evenodd" d="M232.58 207.547V211.955C232.58 211.668 232.822 211.436 233.121 211.436H236.365C236.663 211.436 236.905 211.668 236.905 211.955V207.547C236.905 207.834 236.663 208.066 236.365 208.066H233.121C232.822 208.066 232.58 207.834 232.58 207.547Z" fill="#565656" fill-opacity="0.3"/>
<path d="M232.58 227.769V205.214M232.58 227.769C232.58 228.055 232.822 228.287 233.121 228.287H236.365C236.663 228.287 236.905 228.055 236.905 227.769M232.58 227.769V211.955M236.905 227.769V205.214M236.905 227.769V211.955M236.905 205.214C236.905 204.928 236.663 204.696 236.365 204.696H233.121C232.822 204.696 232.58 204.928 232.58 205.214M236.905 205.214V207.547M236.905 205.214V211.955M232.58 205.214V207.547M232.58 205.214V211.955M232.58 207.547C232.58 207.834 232.822 208.066 233.121 208.066H236.365C236.663 208.066 236.905 207.834 236.905 207.547M232.58 207.547V211.955M236.905 207.547V211.955M236.905 211.955C236.905 211.668 236.663 211.436 236.365 211.436H233.121C232.822 211.436 232.58 211.668 232.58 211.955" stroke="#304436"/>
<path d="M241.038 207.541V205.206C241.038 204.817 240.416 204.688 240.129 204.688V228.295C240.416 228.295 241.038 228.295 241.038 227.776V211.951V207.541Z" fill="#565656" fill-opacity="0.3"/>
<path fill-rule="evenodd" clip-rule="evenodd" d="M236.906 207.547V211.955C236.906 211.668 237.148 211.436 237.446 211.436H240.69C240.989 211.436 241.231 211.668 241.231 211.955V207.547C241.231 207.834 240.989 208.066 240.69 208.066H237.446C237.148 208.066 236.906 207.834 236.906 207.547Z" fill="#565656" fill-opacity="0.3"/>
<path d="M236.906 227.769V205.214M236.906 227.769C236.906 228.055 237.148 228.287 237.446 228.287H240.69C240.989 228.287 241.231 228.055 241.231 227.769M236.906 227.769V211.955M241.231 227.769V205.214M241.231 227.769V211.955M241.231 205.214C241.231 204.928 240.989 204.696 240.69 204.696H237.446C237.148 204.696 236.906 204.928 236.906 205.214M241.231 205.214V207.547M241.231 205.214V211.955M236.906 205.214V207.547M236.906 205.214V211.955M236.906 207.547C236.906 207.834 237.148 208.066 237.446 208.066H240.69C240.989 208.066 241.231 207.834 241.231 207.547M236.906 207.547V211.955M241.231 207.547V211.955M241.231 211.955C241.231 211.668 240.989 211.436 240.69 211.436H237.446C237.148 211.436 236.906 211.668 236.906 211.955" stroke="#304436"/>
<path d="M245.362 207.541V205.206C245.362 204.817 244.74 204.688 244.454 204.688V228.295C244.74 228.295 245.362 228.295 245.362 227.776V211.951V207.541Z" fill="#565656" fill-opacity="0.3"/>
<path fill-rule="evenodd" clip-rule="evenodd" d="M241.23 207.547V211.955C241.23 211.668 241.472 211.436 241.771 211.436H245.015C245.313 211.436 245.555 211.668 245.555 211.955V207.547C245.555 207.834 245.313 208.066 245.015 208.066H241.771C241.472 208.066 241.23 207.834 241.23 207.547Z" fill="#565656" fill-opacity="0.3"/>
<path d="M241.23 227.769V205.214M241.23 227.769C241.23 228.055 241.472 228.287 241.771 228.287H245.015C245.313 228.287 245.555 228.055 245.555 227.769M241.23 227.769V211.955M245.555 227.769V205.214M245.555 227.769V211.955M245.555 205.214C245.555 204.928 245.313 204.696 245.015 204.696H241.771C241.472 204.696 241.23 204.928 241.23 205.214M245.555 205.214V207.547M245.555 205.214V211.955M241.23 205.214V207.547M241.23 205.214V211.955M241.23 207.547C241.23 207.834 241.472 208.066 241.771 208.066H245.015C245.313 208.066 245.555 207.834 245.555 207.547M241.23 207.547V211.955M245.555 207.547V211.955M245.555 211.955C245.555 211.668 245.313 211.436 245.015 211.436H241.771C241.472 211.436 241.23 211.668 241.23 211.955" stroke="#304436"/>
<path d="M249.688 207.541V205.206C249.688 204.817 249.066 204.688 248.779 204.688V228.295C249.066 228.295 249.688 228.295 249.688 227.776V211.951V207.541Z" fill="#565656" fill-opacity="0.3"/>
<path fill-rule="evenodd" clip-rule="evenodd" d="M245.555 207.547V211.955C245.555 211.668 245.797 211.436 246.096 211.436H249.34C249.638 211.436 249.881 211.668 249.881 211.955V207.547C249.881 207.834 249.638 208.066 249.34 208.066H246.096C245.797 208.066 245.555 207.834 245.555 207.547Z" fill="#565656" fill-opacity="0.3"/>
<path d="M245.555 227.769V205.214M245.555 227.769C245.555 228.055 245.797 228.287 246.096 228.287H249.34C249.638 228.287 249.881 228.055 249.881 227.769M245.555 227.769V211.955M249.881 227.769V205.214M249.881 227.769V211.955M249.881 205.214C249.881 204.928 249.638 204.696 249.34 204.696H246.096C245.797 204.696 245.555 204.928 245.555 205.214M249.881 205.214V207.547M249.881 205.214V211.955M245.555 205.214V207.547M245.555 205.214V211.955M245.555 207.547C245.555 207.834 245.797 208.066 246.096 208.066H249.34C249.638 208.066 249.881 207.834 249.881 207.547M245.555 207.547V211.955M249.881 207.547V211.955M249.881 211.955C249.881 211.668 249.638 211.436 249.34 211.436H246.096C245.797 211.436 245.555 211.668 245.555 211.955" stroke="#304436"/>
<path d="M254.013 207.541V205.206C254.013 204.817 253.391 204.688 253.104 204.688V228.295C253.391 228.295 254.013 228.295 254.013 227.776V211.951V207.541Z" fill="#565656" fill-opacity="0.3"/>
<path fill-rule="evenodd" clip-rule="evenodd" d="M249.881 207.547V211.955C249.881 211.668 250.123 211.436 250.421 211.436H253.665C253.964 211.436 254.206 211.668 254.206 211.955V207.547C254.206 207.834 253.964 208.066 253.665 208.066H250.421C250.123 208.066 249.881 207.834 249.881 207.547Z" fill="#565656" fill-opacity="0.3"/>
<path d="M249.881 227.769V205.214M249.881 227.769C249.881 228.055 250.123 228.287 250.421 228.287H253.665C253.964 228.287 254.206 228.055 254.206 227.769M249.881 227.769V211.955M254.206 227.769V205.214M254.206 227.769V211.955M254.206 205.214C254.206 204.928 253.964 204.696 253.665 204.696H250.421C250.123 204.696 249.881 204.928 249.881 205.214M254.206 205.214V207.547M254.206 205.214V211.955M249.881 205.214V207.547M249.881 205.214V211.955M249.881 207.547C249.881 207.834 250.123 208.066 250.421 208.066H253.665C253.964 208.066 254.206 207.834 254.206 207.547M249.881 207.547V211.955M254.206 207.547V211.955M254.206 211.955C254.206 211.668 253.964 211.436 253.665 211.436H250.421C250.123 211.436 249.881 211.668 249.881 211.955" stroke="#304436"/>
<path d="M232.558 207.274L231.908 207.274C231.406 207.274 231 206.867 231 206.366C231 205.864 231.406 205.458 231.908 205.458L232.558 205.458L232.558 207.274Z" stroke="#304436"/>
<path d="M232.58 207.44L231.991 207.44C231.448 207.44 231.008 207 231.008 206.457C231.008 205.914 231.448 205.474 231.991 205.474L232.58 205.474L232.58 207.44Z" fill="white" stroke="#304436"/>
<path d="M254.206 205.474H254.795C255.338 205.474 255.778 205.914 255.778 206.457C255.778 207 255.338 207.44 254.795 207.44H254.206L254.206 205.474Z" fill="white" stroke="#304436"/>
<path d="M407.5 240.5H357.5V265L369.866 283.5L284 282.685V289.685L374.211 290L376.884 294V304H388.115V294L407.5 265V240.5Z" fill="white" stroke="#304436" stroke-width="2"/>
<path d="M387.134 293.695L406.5 265V258C406.5 258 404.527 256.716 402.5 256.5C401.335 256.376 400.662 256.647 399.5 256.5C398.09 256.322 396.839 256.647 396 255.5C395.193 254.397 396.441 253.294 396 252C395.07 249.271 391.836 250.19 389.5 248.5C388.041 247.445 387.679 246.15 386 245.5C384.179 244.795 382.636 244.433 381 245.5C379.821 246.269 379.96 247.47 379 248.5C376.395 251.294 373.677 251.731 369.866 252C368.944 252.065 368.266 251.483 367.5 252C366.368 252.765 368.284 254.38 367.5 255.5C366.38 257.1 364.443 255.309 362.5 255.5C360.518 255.694 358.5 256.5 358.5 256.5V265L371.665 284.5C371.665 284.5 371.723 285.454 371.5 286C371.187 286.767 370.45 286.804 370 287.5C369.763 287.867 369.809 288.191 369.5 288.5C369.192 288.809 368.5 289 368.5 289H374.703L377.873 293.695V303H387.134V293.695Z" fill="#D3BB6D"/>
<path d="M369.5 240H364.5" stroke="#867744" stroke-width="2" stroke-linecap="round"/>
<path d="M388 263H383" stroke="#867744" stroke-width="2" stroke-linecap="round"/>
<path d="M379.5 256H374.5" stroke="#867744" stroke-width="2" stroke-linecap="round"/>
<path d="M402.5 260H397.5" stroke="#867744" stroke-width="2" stroke-linecap="round"/>
<path d="M397.5 269H392.5" stroke="#867744" stroke-width="2" stroke-linecap="round"/>
<path d="M383.5 277H378.5" stroke="#867744" stroke-width="2" stroke-linecap="round"/>
<path d="M381.5 288H376.5" stroke="#867744" stroke-width="2" stroke-linecap="round"/>
<path d="M368.5 286H363.5" stroke="#D3BB6D" stroke-width="2" stroke-linecap="round"/>
<path d="M388.5 285H383.5" stroke="#867744" stroke-width="2" stroke-linecap="round"/>
<path d="M390 253H384" stroke="#867744" stroke-width="2" stroke-linecap="round"/>
<path d="M373.5 240H372.5" stroke="#867744" stroke-width="2" stroke-linecap="round"/>
<path d="M376 267H375" stroke="#867744" stroke-width="2" stroke-linecap="round"/>
<path d="M366.5 262H365.5" stroke="#867744" stroke-width="2" stroke-linecap="round"/>
<path d="M370.5 262H369.5" stroke="#867744" stroke-width="2" stroke-linecap="round"/>
<path d="M389.5 269H388.5" stroke="#867744" stroke-width="2" stroke-linecap="round"/>
<path d="M375.5 275H374.5" stroke="#867744" stroke-width="2" stroke-linecap="round"/>
<path d="M361.5 287.5H360.5" stroke="#D3BB6D" stroke-width="2" stroke-linecap="round"/>
<path d="M358.5 286H357.5" stroke="#D3BB6D" stroke-width="2" stroke-linecap="round"/>
<path d="M354.5 287H353.5" stroke="#D3BB6D" stroke-width="2" stroke-linecap="round"/>
<path d="M349.5 287.5H348.5" stroke="#D3BB6D" stroke-width="2" stroke-linecap="round"/>
<path d="M385.5 280H384.5" stroke="#867744" stroke-width="2" stroke-linecap="round"/>
<path d="M371.5 256H370.5" stroke="#867744" stroke-width="2" stroke-linecap="round"/>
<path d="M406.5 248H412.5V255H406.5V248Z" fill="white"/>
<path d="M406.5 248V249H412.5V248V247H406.5V248ZM412.5 255V254H406.5V255V256H412.5V255Z" fill="#304436"/>
<path d="M245.99 266.5V258.478H181.409L181.408 60H174.989L174.99 266.5H245.99Z" fill="#B7CABD" stroke="#304436" stroke-width="2"/>
<path d="M181.99 141.5H194.99" stroke="#304436" stroke-width="4"/>
<path d="M181.99 218H194.99" stroke="#304436" stroke-width="4"/>
<path d="M178.49 60L178.49 55" stroke="#304436" stroke-width="4"/>
<path d="M165 55.5H190.981L183.764 43H172.217L165 55.5Z" fill="#B7CABD" stroke="#304436" stroke-width="2"/>
<rect x="221.641" y="154" width="186" height="4" fill="#CBB9A9"/>
<rect x="221.641" y="238" width="186" height="4" fill="#CBB9A9"/>
<rect x="221.641" y="69" width="188" height="6" fill="#727B74"/>
<rect x="268.641" y="75" width="167" height="3.99999" transform="rotate(90 268.641 75)" fill="#CBB9A9"/>
<rect x="345.641" y="75" width="167" height="3.99999" transform="rotate(90 345.641 75)" fill="#CBB9A9"/>
<path d="M285 255.5H308.5M308.5 255.5V217.5M308.5 255.5H346.5V233M351 146.5H346.5V225.5V233M346.5 233H351M247.5 142.5H308.5V217.5M308.5 217.5H293" stroke="#465FB1" stroke-width="2" stroke-linecap="round" stroke-linejoin="round"/>
<path d="M244.99 249.303C244.99 248.031 246.238 247 247.778 247L267.694 247L288.202 247C289.742 247 290.99 248.031 290.99 249.303V301.697C290.99 302.969 289.742 304 288.202 304H247.778C246.238 304 244.99 302.969 244.99 301.697V249.303Z" fill="#B7CABD" stroke="#304436"/>
<path d="M267.289 279.116C267.205 279.042 267.103 279.002 266.998 279C266.892 278.998 266.789 279.035 266.703 279.105C266.617 279.174 266.552 279.274 266.517 279.389C266.483 279.504 266.481 279.629 266.511 279.746C266.598 280.084 266.608 280.442 266.539 280.785C266.471 281.127 266.326 281.441 266.119 281.697C266.106 281.714 266.093 281.732 266.081 281.751C265.783 282.224 264.101 284.993 265.611 287.982L265.626 288.01C265.992 288.649 266.494 289.167 267.084 289.516C267.666 289.862 268.316 290.027 268.97 289.996C269.665 290.01 270.351 289.816 270.962 289.432C271.584 289.04 272.108 288.469 272.482 287.774C273.132 286.5 273.074 285.136 272.776 284.045C272.485 282.975 271.936 282.069 271.473 281.67C271.4 281.608 271.314 281.57 271.224 281.559C271.133 281.549 271.043 281.568 270.961 281.613C270.879 281.658 270.809 281.728 270.759 281.815C270.709 281.902 270.68 282.004 270.676 282.109C270.642 282.937 270.494 283.585 270.279 284.095C270.168 282.701 269.715 281.666 269.167 280.897C268.594 280.092 267.885 279.565 267.506 279.283C267.432 279.23 267.36 279.175 267.29 279.117L267.289 279.116Z" fill="#D05D4B"/>
<rect x="257.99" y="271" width="21" height="22" rx="2" fill="white" fill-opacity="0.3" stroke="#304436"/>
<path d="M258.99 292L270.469 272H274.032L262.553 292H258.99Z" fill="white" fill-opacity="0.3"/>
<path d="M264.532 292L276.011 272H277.99L266.511 292H264.532Z" fill="white" fill-opacity="0.3"/>
<path fill-rule="evenodd" clip-rule="evenodd" d="M275.953 207.547V211.955C275.953 211.668 276.195 211.436 276.494 211.436H279.738C280.036 211.436 280.278 211.668 280.278 211.955V207.547C280.278 207.834 280.036 208.066 279.738 208.066H276.494C276.195 208.066 275.953 207.834 275.953 207.547Z" fill="white"/>
<path d="M280.278 227.769V211.955C280.278 211.668 280.036 211.436 279.738 211.436H276.494C276.195 211.436 275.953 211.668 275.953 211.955V227.769C275.953 228.055 276.195 228.287 276.494 228.287H279.738C280.036 228.287 280.278 228.055 280.278 227.769Z" fill="white"/>
<path d="M279.738 204.696H276.494C276.195 204.696 275.953 204.928 275.953 205.214V207.547C275.953 207.834 276.195 208.066 276.494 208.066H279.738C280.036 208.066 280.278 207.834 280.278 207.547V205.214C280.278 204.928 280.036 204.696 279.738 204.696Z" fill="white"/>
<path fill-rule="evenodd" clip-rule="evenodd" d="M280.172 207.547V211.955C280.172 211.668 280.414 211.436 280.713 211.436H283.956C284.255 211.436 284.497 211.668 284.497 211.955V207.547C284.497 207.834 284.255 208.066 283.956 208.066H280.713C280.414 208.066 280.172 207.834 280.172 207.547Z" fill="white"/>
<path d="M284.497 227.769V211.955C284.497 211.668 284.255 211.436 283.956 211.436H280.713C280.414 211.436 280.172 211.668 280.172 211.955V227.769C280.172 228.055 280.414 228.287 280.713 228.287H283.956C284.255 228.287 284.497 228.055 284.497 227.769Z" fill="white"/>
<path d="M283.956 204.696H280.713C280.414 204.696 280.172 204.928 280.172 205.214V207.547C280.172 207.834 280.414 208.066 280.713 208.066H283.956C284.255 208.066 284.497 207.834 284.497 207.547V205.214C284.497 204.928 284.255 204.696 283.956 204.696Z" fill="white"/>
<path fill-rule="evenodd" clip-rule="evenodd" d="M284.391 207.539V211.946C284.391 211.66 284.633 211.428 284.931 211.428H288.175C288.474 211.428 288.716 211.66 288.716 211.946V207.539C288.716 207.826 288.474 208.058 288.175 208.058H284.931C284.633 208.058 284.391 207.826 284.391 207.539Z" fill="white"/>
<path d="M288.716 227.76V211.946C288.716 211.66 288.474 211.428 288.175 211.428H284.931C284.633 211.428 284.391 211.66 284.391 211.946V227.76C284.391 228.047 284.633 228.279 284.931 228.279H288.175C288.474 228.279 288.716 228.047 288.716 227.76Z" fill="white"/>
<path d="M288.175 204.688H284.931C284.633 204.688 284.391 204.92 284.391 205.206V207.539C284.391 207.826 284.633 208.058 284.931 208.058H288.175C288.474 208.058 288.716 207.826 288.716 207.539V205.206C288.716 204.92 288.474 204.688 288.175 204.688Z" fill="white"/>
<path fill-rule="evenodd" clip-rule="evenodd" d="M289.031 207.539V211.946C289.031 211.66 289.273 211.428 289.572 211.428H292.816C293.114 211.428 293.356 211.66 293.356 211.946V207.539C293.356 207.826 293.114 208.058 292.816 208.058H289.572C289.273 208.058 289.031 207.826 289.031 207.539Z" fill="white"/>
<path d="M293.356 227.76V211.946C293.356 211.66 293.114 211.428 292.816 211.428H289.572C289.273 211.428 289.031 211.66 289.031 211.946V227.76C289.031 228.047 289.273 228.279 289.572 228.279H292.816C293.114 228.279 293.356 228.047 293.356 227.76Z" fill="white"/>
<path d="M292.816 204.688H289.572C289.273 204.688 289.031 204.92 289.031 205.206V207.539C289.031 207.826 289.273 208.058 289.572 208.058H292.816C293.114 208.058 293.356 207.826 293.356 207.539V205.206C293.356 204.92 293.114 204.688 292.816 204.688Z" fill="white"/>
<path fill-rule="evenodd" clip-rule="evenodd" d="M293.25 207.539V211.946C293.25 211.66 293.492 211.428 293.791 211.428H297.034C297.333 211.428 297.575 211.66 297.575 211.946V207.539C297.575 207.826 297.333 208.058 297.034 208.058H293.791C293.492 208.058 293.25 207.826 293.25 207.539Z" fill="white"/>
<path d="M297.575 227.76V211.946C297.575 211.66 297.333 211.428 297.034 211.428H293.791C293.492 211.428 293.25 211.66 293.25 211.946V227.76C293.25 228.047 293.492 228.279 293.791 228.279H297.034C297.333 228.279 297.575 228.047 297.575 227.76Z" fill="white"/>
<path d="M297.034 204.688H293.791C293.492 204.688 293.25 204.92 293.25 205.206V207.539C293.25 207.826 293.492 208.058 293.791 208.058H297.034C297.333 208.058 297.575 207.826 297.575 207.539V205.206C297.575 204.92 297.333 204.688 297.034 204.688Z" fill="white"/>
<path d="M279.978 207.541V205.206C279.978 204.817 279.356 204.688 279.069 204.688V228.295C279.356 228.295 279.978 228.295 279.978 227.776V211.951V207.541Z" fill="#565656" fill-opacity="0.3"/>
<path fill-rule="evenodd" clip-rule="evenodd" d="M275.846 207.547V211.955C275.846 211.668 276.088 211.436 276.387 211.436H279.63C279.929 211.436 280.171 211.668 280.171 211.955V207.547C280.171 207.834 279.929 208.066 279.63 208.066H276.387C276.088 208.066 275.846 207.834 275.846 207.547Z" fill="#565656" fill-opacity="0.3"/>
<path d="M275.846 227.769V205.214M275.846 227.769C275.846 228.055 276.088 228.287 276.387 228.287H279.63C279.929 228.287 280.171 228.055 280.171 227.769M275.846 227.769V211.955M280.171 227.769V205.214M280.171 227.769V211.955M280.171 205.214C280.171 204.928 279.929 204.696 279.63 204.696H276.387C276.088 204.696 275.846 204.928 275.846 205.214M280.171 205.214V207.547M280.171 205.214V211.955M275.846 205.214V207.547M275.846 205.214V211.955M275.846 207.547C275.846 207.834 276.088 208.066 276.387 208.066H279.63C279.929 208.066 280.171 207.834 280.171 207.547M275.846 207.547V211.955M280.171 207.547V211.955M280.171 211.955C280.171 211.668 279.929 211.436 279.63 211.436H276.387C276.088 211.436 275.846 211.668 275.846 211.955" stroke="#304436"/>
<path d="M284.303 207.541V205.206C284.303 204.817 283.681 204.688 283.395 204.688V228.295C283.681 228.295 284.303 228.295 284.303 227.776V211.951V207.541Z" fill="#565656" fill-opacity="0.3"/>
<path fill-rule="evenodd" clip-rule="evenodd" d="M280.171 207.547V211.955C280.171 211.668 280.413 211.436 280.712 211.436H283.956C284.254 211.436 284.496 211.668 284.496 211.955V207.547C284.496 207.834 284.254 208.066 283.956 208.066H280.712C280.413 208.066 280.171 207.834 280.171 207.547Z" fill="#565656" fill-opacity="0.3"/>
<path d="M280.171 227.769V205.214M280.171 227.769C280.171 228.055 280.413 228.287 280.712 228.287H283.956C284.254 228.287 284.496 228.055 284.496 227.769M280.171 227.769V211.955M284.496 227.769V205.214M284.496 227.769V211.955M284.496 205.214C284.496 204.928 284.254 204.696 283.956 204.696H280.712C280.413 204.696 280.171 204.928 280.171 205.214M284.496 205.214V207.547M284.496 205.214V211.955M280.171 205.214V207.547M280.171 205.214V211.955M280.171 207.547C280.171 207.834 280.413 208.066 280.712 208.066H283.956C284.254 208.066 284.496 207.834 284.496 207.547M280.171 207.547V211.955M284.496 207.547V211.955M284.496 211.955C284.496 211.668 284.254 211.436 283.956 211.436H280.712C280.413 211.436 280.171 211.668 280.171 211.955" stroke="#304436"/>
<path d="M288.628 207.541V205.206C288.628 204.817 288.006 204.688 287.719 204.688V228.295C288.006 228.295 288.628 228.295 288.628 227.776V211.951V207.541Z" fill="#565656" fill-opacity="0.3"/>
<path fill-rule="evenodd" clip-rule="evenodd" d="M284.496 207.547V211.955C284.496 211.668 284.738 211.436 285.036 211.436H288.28C288.579 211.436 288.821 211.668 288.821 211.955V207.547C288.821 207.834 288.579 208.066 288.28 208.066H285.036C284.738 208.066 284.496 207.834 284.496 207.547Z" fill="#565656" fill-opacity="0.3"/>
<path d="M284.496 227.769V205.214M284.496 227.769C284.496 228.055 284.738 228.287 285.036 228.287H288.28C288.579 228.287 288.821 228.055 288.821 227.769M284.496 227.769V211.955M288.821 227.769V205.214M288.821 227.769V211.955M288.821 205.214C288.821 204.928 288.579 204.696 288.28 204.696H285.036C284.738 204.696 284.496 204.928 284.496 205.214M288.821 205.214V207.547M288.821 205.214V211.955M284.496 205.214V207.547M284.496 205.214V211.955M284.496 207.547C284.496 207.834 284.738 208.066 285.036 208.066H288.28C288.579 208.066 288.821 207.834 288.821 207.547M284.496 207.547V211.955M288.821 207.547V211.955M288.821 211.955C288.821 211.668 288.579 211.436 288.28 211.436H285.036C284.738 211.436 284.496 211.668 284.496 211.955" stroke="#304436"/>
<path d="M292.953 207.541V205.206C292.953 204.817 292.331 204.688 292.044 204.688V228.295C292.331 228.295 292.953 228.295 292.953 227.776V211.951V207.541Z" fill="#565656" fill-opacity="0.3"/>
<path fill-rule="evenodd" clip-rule="evenodd" d="M288.821 207.547V211.955C288.821 211.668 289.063 211.436 289.362 211.436H292.605C292.904 211.436 293.146 211.668 293.146 211.955V207.547C293.146 207.834 292.904 208.066 292.605 208.066H289.362C289.063 208.066 288.821 207.834 288.821 207.547Z" fill="#565656" fill-opacity="0.3"/>
<path d="M288.821 227.769V205.214M288.821 227.769C288.821 228.055 289.063 228.287 289.362 228.287H292.605C292.904 228.287 293.146 228.055 293.146 227.769M288.821 227.769V211.955M293.146 227.769V205.214M293.146 227.769V211.955M293.146 205.214C293.146 204.928 292.904 204.696 292.605 204.696H289.362C289.063 204.696 288.821 204.928 288.821 205.214M293.146 205.214V207.547M293.146 205.214V211.955M288.821 205.214V207.547M288.821 205.214V211.955M288.821 207.547C288.821 207.834 289.063 208.066 289.362 208.066H292.605C292.904 208.066 293.146 207.834 293.146 207.547M288.821 207.547V211.955M293.146 207.547V211.955M293.146 211.955C293.146 211.668 292.904 211.436 292.605 211.436H289.362C289.063 211.436 288.821 211.668 288.821 211.955" stroke="#304436"/>
<path d="M297.278 207.541V205.206C297.278 204.817 296.656 204.688 296.37 204.688V228.295C296.656 228.295 297.278 228.295 297.278 227.776V211.951V207.541Z" fill="#565656" fill-opacity="0.3"/>
<path fill-rule="evenodd" clip-rule="evenodd" d="M293.146 207.547V211.955C293.146 211.668 293.388 211.436 293.687 211.436H296.931C297.229 211.436 297.471 211.668 297.471 211.955V207.547C297.471 207.834 297.229 208.066 296.931 208.066H293.687C293.388 208.066 293.146 207.834 293.146 207.547Z" fill="#565656" fill-opacity="0.3"/>
<path d="M293.146 227.769V205.214M293.146 227.769C293.146 228.055 293.388 228.287 293.687 228.287H296.931C297.229 228.287 297.471 228.055 297.471 227.769M293.146 227.769V211.955M297.471 227.769V205.214M297.471 227.769V211.955M297.471 205.214C297.471 204.928 297.229 204.696 296.931 204.696H293.687C293.388 204.696 293.146 204.928 293.146 205.214M297.471 205.214V207.547M297.471 205.214V211.955M293.146 205.214V207.547M293.146 205.214V211.955M293.146 207.547C293.146 207.834 293.388 208.066 293.687 208.066H296.931C297.229 208.066 297.471 207.834 297.471 207.547M293.146 207.547V211.955M297.471 207.547V211.955M297.471 211.955C297.471 211.668 297.229 211.436 296.931 211.436H293.687C293.388 211.436 293.146 211.668 293.146 211.955" stroke="#304436"/>
<path d="M275.823 207.274L275.174 207.274C274.672 207.274 274.266 206.867 274.266 206.366C274.266 205.864 274.672 205.458 275.174 205.458L275.823 205.458L275.823 207.274Z" stroke="#304436"/>
<path d="M275.846 207.44L275.256 207.44C274.713 207.44 274.273 207 274.273 206.457C274.273 205.914 274.713 205.474 275.256 205.474L275.846 205.474L275.846 207.44Z" fill="white" stroke="#304436"/>
<path d="M297.471 205.474H298.061C298.604 205.474 299.044 205.914 299.044 206.457C299.044 207 298.604 207.44 298.061 207.44H297.471L297.471 205.474Z" fill="white" stroke="#304436"/>
<path fill-rule="evenodd" clip-rule="evenodd" d="M275.953 125.547V129.955C275.953 129.668 276.195 129.436 276.494 129.436H279.738C280.036 129.436 280.278 129.668 280.278 129.955V125.547C280.278 125.834 280.036 126.066 279.738 126.066H276.494C276.195 126.066 275.953 125.834 275.953 125.547Z" fill="white"/>
<path d="M280.278 145.769V129.955C280.278 129.668 280.036 129.436 279.738 129.436H276.494C276.195 129.436 275.953 129.668 275.953 129.955V145.769C275.953 146.055 276.195 146.287 276.494 146.287H279.738C280.036 146.287 280.278 146.055 280.278 145.769Z" fill="white"/>
<path d="M279.738 122.696H276.494C276.195 122.696 275.953 122.928 275.953 123.214V125.547C275.953 125.834 276.195 126.066 276.494 126.066H279.738C280.036 126.066 280.278 125.834 280.278 125.547V123.214C280.278 122.928 280.036 122.696 279.738 122.696Z" fill="white"/>
<path fill-rule="evenodd" clip-rule="evenodd" d="M280.172 125.547V129.955C280.172 129.668 280.414 129.436 280.713 129.436H283.956C284.255 129.436 284.497 129.668 284.497 129.955V125.547C284.497 125.834 284.255 126.066 283.956 126.066H280.713C280.414 126.066 280.172 125.834 280.172 125.547Z" fill="white"/>
<path d="M284.497 145.769V129.955C284.497 129.668 284.255 129.436 283.956 129.436H280.713C280.414 129.436 280.172 129.668 280.172 129.955V145.769C280.172 146.055 280.414 146.287 280.713 146.287H283.956C284.255 146.287 284.497 146.055 284.497 145.769Z" fill="white"/>
<path d="M283.956 122.696H280.713C280.414 122.696 280.172 122.928 280.172 123.214V125.547C280.172 125.834 280.414 126.066 280.713 126.066H283.956C284.255 126.066 284.497 125.834 284.497 125.547V123.214C284.497 122.928 284.255 122.696 283.956 122.696Z" fill="white"/>
<path fill-rule="evenodd" clip-rule="evenodd" d="M284.391 125.539V129.946C284.391 129.66 284.633 129.428 284.931 129.428H288.175C288.474 129.428 288.716 129.66 288.716 129.946V125.539C288.716 125.826 288.474 126.058 288.175 126.058H284.931C284.633 126.058 284.391 125.826 284.391 125.539Z" fill="white"/>
<path d="M288.716 145.76V129.946C288.716 129.66 288.474 129.428 288.175 129.428H284.931C284.633 129.428 284.391 129.66 284.391 129.946V145.76C284.391 146.047 284.633 146.279 284.931 146.279H288.175C288.474 146.279 288.716 146.047 288.716 145.76Z" fill="white"/>
<path d="M288.175 122.688H284.931C284.633 122.688 284.391 122.92 284.391 123.206V125.539C284.391 125.826 284.633 126.058 284.931 126.058H288.175C288.474 126.058 288.716 125.826 288.716 125.539V123.206C288.716 122.92 288.474 122.688 288.175 122.688Z" fill="white"/>
<path fill-rule="evenodd" clip-rule="evenodd" d="M289.031 125.539V129.946C289.031 129.66 289.273 129.428 289.572 129.428H292.816C293.114 129.428 293.356 129.66 293.356 129.946V125.539C293.356 125.826 293.114 126.058 292.816 126.058H289.572C289.273 126.058 289.031 125.826 289.031 125.539Z" fill="white"/>
<path d="M293.356 145.76V129.946C293.356 129.66 293.114 129.428 292.816 129.428H289.572C289.273 129.428 289.031 129.66 289.031 129.946V145.76C289.031 146.047 289.273 146.279 289.572 146.279H292.816C293.114 146.279 293.356 146.047 293.356 145.76Z" fill="white"/>
<path d="M292.816 122.688H289.572C289.273 122.688 289.031 122.92 289.031 123.206V125.539C289.031 125.826 289.273 126.058 289.572 126.058H292.816C293.114 126.058 293.356 125.826 293.356 125.539V123.206C293.356 122.92 293.114 122.688 292.816 122.688Z" fill="white"/>
<path fill-rule="evenodd" clip-rule="evenodd" d="M293.25 125.539V129.946C293.25 129.66 293.492 129.428 293.791 129.428H297.034C297.333 129.428 297.575 129.66 297.575 129.946V125.539C297.575 125.826 297.333 126.058 297.034 126.058H293.791C293.492 126.058 293.25 125.826 293.25 125.539Z" fill="white"/>
<path d="M297.575 145.76V129.946C297.575 129.66 297.333 129.428 297.034 129.428H293.791C293.492 129.428 293.25 129.66 293.25 129.946V145.76C293.25 146.047 293.492 146.279 293.791 146.279H297.034C297.333 146.279 297.575 146.047 297.575 145.76Z" fill="white"/>
<path d="M297.034 122.688H293.791C293.492 122.688 293.25 122.92 293.25 123.206V125.539C293.25 125.826 293.492 126.058 293.791 126.058H297.034C297.333 126.058 297.575 125.826 297.575 125.539V123.206C297.575 122.92 297.333 122.688 297.034 122.688Z" fill="white"/>
<path d="M279.978 125.541V123.206C279.978 122.817 279.356 122.688 279.069 122.688V146.295C279.356 146.295 279.978 146.295 279.978 145.776V129.951V125.541Z" fill="#565656" fill-opacity="0.3"/>
<path fill-rule="evenodd" clip-rule="evenodd" d="M275.846 125.547V129.955C275.846 129.668 276.088 129.436 276.387 129.436H279.63C279.929 129.436 280.171 129.668 280.171 129.955V125.547C280.171 125.834 279.929 126.066 279.63 126.066H276.387C276.088 126.066 275.846 125.834 275.846 125.547Z" fill="#565656" fill-opacity="0.3"/>
<path d="M275.846 145.769V123.214M275.846 145.769C275.846 146.055 276.088 146.287 276.387 146.287H279.63C279.929 146.287 280.171 146.055 280.171 145.769M275.846 145.769V129.955M280.171 145.769V123.214M280.171 145.769V129.955M280.171 123.214C280.171 122.928 279.929 122.696 279.63 122.696H276.387C276.088 122.696 275.846 122.928 275.846 123.214M280.171 123.214V125.547M280.171 123.214V129.955M275.846 123.214V125.547M275.846 123.214V129.955M275.846 125.547C275.846 125.834 276.088 126.066 276.387 126.066H279.63C279.929 126.066 280.171 125.834 280.171 125.547M275.846 125.547V129.955M280.171 125.547V129.955M280.171 129.955C280.171 129.668 279.929 129.436 279.63 129.436H276.387C276.088 129.436 275.846 129.668 275.846 129.955" stroke="#304436"/>
<path d="M284.303 125.541V123.206C284.303 122.817 283.681 122.688 283.395 122.688V146.295C283.681 146.295 284.303 146.295 284.303 145.776V129.951V125.541Z" fill="#565656" fill-opacity="0.3"/>
<path fill-rule="evenodd" clip-rule="evenodd" d="M280.171 125.547V129.955C280.171 129.668 280.413 129.436 280.712 129.436H283.956C284.254 129.436 284.496 129.668 284.496 129.955V125.547C284.496 125.834 284.254 126.066 283.956 126.066H280.712C280.413 126.066 280.171 125.834 280.171 125.547Z" fill="#565656" fill-opacity="0.3"/>
<path d="M280.171 145.769V123.214M280.171 145.769C280.171 146.055 280.413 146.287 280.712 146.287H283.956C284.254 146.287 284.496 146.055 284.496 145.769M280.171 145.769V129.955M284.496 145.769V123.214M284.496 145.769V129.955M284.496 123.214C284.496 122.928 284.254 122.696 283.956 122.696H280.712C280.413 122.696 280.171 122.928 280.171 123.214M284.496 123.214V125.547M284.496 123.214V129.955M280.171 123.214V125.547M280.171 123.214V129.955M280.171 125.547C280.171 125.834 280.413 126.066 280.712 126.066H283.956C284.254 126.066 284.496 125.834 284.496 125.547M280.171 125.547V129.955M284.496 125.547V129.955M284.496 129.955C284.496 129.668 284.254 129.436 283.956 129.436H280.712C280.413 129.436 280.171 129.668 280.171 129.955" stroke="#304436"/>
<path d="M288.628 125.541V123.206C288.628 122.817 288.006 122.688 287.719 122.688V146.295C288.006 146.295 288.628 146.295 288.628 145.776V129.951V125.541Z" fill="#565656" fill-opacity="0.3"/>
<path fill-rule="evenodd" clip-rule="evenodd" d="M284.496 125.547V129.955C284.496 129.668 284.738 129.436 285.036 129.436H288.28C288.579 129.436 288.821 129.668 288.821 129.955V125.547C288.821 125.834 288.579 126.066 288.28 126.066H285.036C284.738 126.066 284.496 125.834 284.496 125.547Z" fill="#565656" fill-opacity="0.3"/>
<path d="M284.496 145.769V123.214M284.496 145.769C284.496 146.055 284.738 146.287 285.036 146.287H288.28C288.579 146.287 288.821 146.055 288.821 145.769M284.496 145.769V129.955M288.821 145.769V123.214M288.821 145.769V129.955M288.821 123.214C288.821 122.928 288.579 122.696 288.28 122.696H285.036C284.738 122.696 284.496 122.928 284.496 123.214M288.821 123.214V125.547M288.821 123.214V129.955M284.496 123.214V125.547M284.496 123.214V129.955M284.496 125.547C284.496 125.834 284.738 126.066 285.036 126.066H288.28C288.579 126.066 288.821 125.834 288.821 125.547M284.496 125.547V129.955M288.821 125.547V129.955M288.821 129.955C288.821 129.668 288.579 129.436 288.28 129.436H285.036C284.738 129.436 284.496 129.668 284.496 129.955" stroke="#304436"/>
<path d="M292.953 125.541V123.206C292.953 122.817 292.331 122.688 292.044 122.688V146.295C292.331 146.295 292.953 146.295 292.953 145.776V129.951V125.541Z" fill="#565656" fill-opacity="0.3"/>
<path fill-rule="evenodd" clip-rule="evenodd" d="M288.821 125.547V129.955C288.821 129.668 289.063 129.436 289.362 129.436H292.605C292.904 129.436 293.146 129.668 293.146 129.955V125.547C293.146 125.834 292.904 126.066 292.605 126.066H289.362C289.063 126.066 288.821 125.834 288.821 125.547Z" fill="#565656" fill-opacity="0.3"/>
<path d="M288.821 145.769V123.214M288.821 145.769C288.821 146.055 289.063 146.287 289.362 146.287H292.605C292.904 146.287 293.146 146.055 293.146 145.769M288.821 145.769V129.955M293.146 145.769V123.214M293.146 145.769V129.955M293.146 123.214C293.146 122.928 292.904 122.696 292.605 122.696H289.362C289.063 122.696 288.821 122.928 288.821 123.214M293.146 123.214V125.547M293.146 123.214V129.955M288.821 123.214V125.547M288.821 123.214V129.955M288.821 125.547C288.821 125.834 289.063 126.066 289.362 126.066H292.605C292.904 126.066 293.146 125.834 293.146 125.547M288.821 125.547V129.955M293.146 125.547V129.955M293.146 129.955C293.146 129.668 292.904 129.436 292.605 129.436H289.362C289.063 129.436 288.821 129.668 288.821 129.955" stroke="#304436"/>
<path d="M297.278 125.541V123.206C297.278 122.817 296.656 122.688 296.37 122.688V146.295C296.656 146.295 297.278 146.295 297.278 145.776V129.951V125.541Z" fill="#565656" fill-opacity="0.3"/>
<path fill-rule="evenodd" clip-rule="evenodd" d="M293.146 125.547V129.955C293.146 129.668 293.388 129.436 293.687 129.436H296.931C297.229 129.436 297.471 129.668 297.471 129.955V125.547C297.471 125.834 297.229 126.066 296.931 126.066H293.687C293.388 126.066 293.146 125.834 293.146 125.547Z" fill="#565656" fill-opacity="0.3"/>
<path d="M293.146 145.769V123.214M293.146 145.769C293.146 146.055 293.388 146.287 293.687 146.287H296.931C297.229 146.287 297.471 146.055 297.471 145.769M293.146 145.769V129.955M297.471 145.769V123.214M297.471 145.769V129.955M297.471 123.214C297.471 122.928 297.229 122.696 296.931 122.696H293.687C293.388 122.696 293.146 122.928 293.146 123.214M297.471 123.214V125.547M297.471 123.214V129.955M293.146 123.214V125.547M293.146 123.214V129.955M293.146 125.547C293.146 125.834 293.388 126.066 293.687 126.066H296.931C297.229 126.066 297.471 125.834 297.471 125.547M293.146 125.547V129.955M297.471 125.547V129.955M297.471 129.955C297.471 129.668 297.229 129.436 296.931 129.436H293.687C293.388 129.436 293.146 129.668 293.146 129.955" stroke="#304436"/>
<path d="M275.823 125.274L275.174 125.274C274.672 125.274 274.266 124.867 274.266 124.366C274.266 123.864 274.672 123.458 275.174 123.458L275.823 123.458L275.823 125.274Z" stroke="#304436"/>
<path d="M275.846 125.44L275.256 125.44C274.713 125.44 274.273 125 274.273 124.457C274.273 123.914 274.713 123.474 275.256 123.474L275.846 123.474L275.846 125.44Z" fill="white" stroke="#304436"/>
<path d="M297.471 123.474H298.061C298.604 123.474 299.044 123.914 299.044 124.457C299.044 125 298.604 125.44 298.061 125.44H297.471L297.471 123.474Z" fill="white" stroke="#304436"/>
<path d="M363.411 202.681L364.641 203.91" stroke="#304436" stroke-linecap="round"/>
<path d="M361.567 204.525L363.616 206.575" stroke="#304436" stroke-linecap="round"/>
<path d="M359.722 206.37L361.772 208.419" stroke="#304436" stroke-linecap="round"/>
<path d="M357.877 208.214L359.107 209.444" stroke="#304436" stroke-linecap="round"/>
<path d="M353.641 199H350.641V238H353.641L353.641 201.5L353.641 199Z" fill="white"/>
<path d="M353.641 201.5L353.641 238H350.641V199H353.641L353.641 201.5ZM353.641 201.5L356.641 203" stroke="#304436"/>
<path d="M362.762 201.506C362.762 201.506 360.256 199 357.035 202.221C353.813 205.443 356.319 207.948 356.319 207.948L362.762 201.506Z" fill="white" stroke="#304436"/>
<path d="M363.411 118.681L364.641 119.91" stroke="#304436" stroke-linecap="round"/>
<path d="M361.567 120.525L363.616 122.575" stroke="#304436" stroke-linecap="round"/>
<path d="M359.722 122.37L361.772 124.419" stroke="#304436" stroke-linecap="round"/>
<path d="M357.877 124.214L359.107 125.444" stroke="#304436" stroke-linecap="round"/>
<path d="M353.641 115H350.641V154H353.641L353.641 117.5L353.641 115Z" fill="white"/>
<path d="M353.641 117.5L353.641 154H350.641V115H353.641L353.641 117.5ZM353.641 117.5L356.641 119" stroke="#304436"/>
<path d="M362.762 117.506C362.762 117.506 360.256 115 357.035 118.221C353.813 121.443 356.319 123.948 356.319 123.948L362.762 117.506Z" fill="white" stroke="#304436"/>
<path d="M228.035 18H394.035C402.872 18 410.035 25.1634 410.035 34V70H228.035V18Z" fill="#CCC4C4"/>
<path d="M202.912 298V289H204.436V298H202.912ZM209.144 291.712C211.112 291.712 212.456 293.164 212.456 294.976C212.456 296.788 211.112 298.24 209.144 298.24C207.176 298.24 205.832 296.788 205.832 294.976C205.832 293.164 207.176 291.712 209.144 291.712ZM209.168 296.8C210.14 296.8 210.872 296.02 210.872 294.976C210.872 293.92 210.14 293.152 209.168 293.152C208.16 293.152 207.416 293.92 207.416 294.976C207.416 296.032 208.16 296.8 209.168 296.8ZM216.808 296.8C217.408 296.8 217.888 296.524 218.176 296.104L219.364 297.016C218.8 297.76 217.912 298.24 216.808 298.24C214.72 298.24 213.472 296.74 213.472 294.976C213.472 293.212 214.72 291.712 216.808 291.712C217.912 291.712 218.8 292.192 219.364 292.936L218.176 293.848C217.888 293.428 217.408 293.152 216.784 293.152C215.788 293.152 215.056 293.92 215.056 294.976C215.056 296.044 215.788 296.8 216.808 296.8ZM222.1 298.18C220.888 298.18 220.06 297.484 220.06 296.368C220.06 295.456 220.768 294.772 222.064 294.556L223.912 294.244V294.088C223.912 293.452 223.432 293.044 222.736 293.044C222.148 293.044 221.692 293.32 221.368 293.764L220.252 292.912C220.792 292.168 221.68 291.712 222.784 291.712C224.536 291.712 225.436 292.756 225.436 294.088V298H223.912V297.412C223.528 297.88 222.808 298.18 222.1 298.18ZM221.572 296.296C221.572 296.704 221.896 296.968 222.412 296.968C223.108 296.968 223.612 296.644 223.912 296.164V295.312L222.472 295.552C221.836 295.66 221.572 295.924 221.572 296.296ZM227.182 298V289H228.706V298H227.182Z" fill="#535F57"/>
<path fill-rule="evenodd" clip-rule="evenodd" d="M232.688 125.547V129.955C232.688 129.668 232.93 129.436 233.228 129.436H236.472C236.771 129.436 237.013 129.668 237.013 129.955V125.547C237.013 125.834 236.771 126.066 236.472 126.066H233.228C232.93 126.066 232.688 125.834 232.688 125.547Z" fill="white"/>
<path d="M237.013 145.769V129.955C237.013 129.668 236.771 129.436 236.472 129.436H233.228C232.93 129.436 232.688 129.668 232.688 129.955V145.769C232.688 146.055 232.93 146.287 233.228 146.287H236.472C236.771 146.287 237.013 146.055 237.013 145.769Z" fill="white"/>
<path d="M236.472 122.696H233.228C232.93 122.696 232.688 122.928 232.688 123.214V125.547C232.688 125.834 232.93 126.066 233.228 126.066H236.472C236.771 126.066 237.013 125.834 237.013 125.547V123.214C237.013 122.928 236.771 122.696 236.472 122.696Z" fill="white"/>
<path fill-rule="evenodd" clip-rule="evenodd" d="M236.906 125.547V129.955C236.906 129.668 237.148 129.436 237.447 129.436H240.691C240.989 129.436 241.231 129.668 241.231 129.955V125.547C241.231 125.834 240.989 126.066 240.691 126.066H237.447C237.148 126.066 236.906 125.834 236.906 125.547Z" fill="white"/>
<path d="M241.231 145.769V129.955C241.231 129.668 240.989 129.436 240.691 129.436H237.447C237.148 129.436 236.906 129.668 236.906 129.955V145.769C236.906 146.055 237.148 146.287 237.447 146.287H240.691C240.989 146.287 241.231 146.055 241.231 145.769Z" fill="white"/>
<path d="M240.691 122.696H237.447C237.148 122.696 236.906 122.928 236.906 123.214V125.547C236.906 125.834 237.148 126.066 237.447 126.066H240.691C240.989 126.066 241.231 125.834 241.231 125.547V123.214C241.231 122.928 240.989 122.696 240.691 122.696Z" fill="white"/>
<path fill-rule="evenodd" clip-rule="evenodd" d="M241.125 125.539V129.946C241.125 129.66 241.367 129.428 241.666 129.428H244.909C245.208 129.428 245.45 129.66 245.45 129.946V125.539C245.45 125.826 245.208 126.058 244.909 126.058H241.666C241.367 126.058 241.125 125.826 241.125 125.539Z" fill="white"/>
<path d="M245.45 145.76V129.946C245.45 129.66 245.208 129.428 244.909 129.428H241.666C241.367 129.428 241.125 129.66 241.125 129.946V145.76C241.125 146.047 241.367 146.279 241.666 146.279H244.909C245.208 146.279 245.45 146.047 245.45 145.76Z" fill="white"/>
<path d="M244.909 122.688H241.666C241.367 122.688 241.125 122.92 241.125 123.206V125.539C241.125 125.826 241.367 126.058 241.666 126.058H244.909C245.208 126.058 245.45 125.826 245.45 125.539V123.206C245.45 122.92 245.208 122.688 244.909 122.688Z" fill="white"/>
<path fill-rule="evenodd" clip-rule="evenodd" d="M245.766 125.539V129.946C245.766 129.66 246.008 129.428 246.306 129.428H249.55C249.849 129.428 250.091 129.66 250.091 129.946V125.539C250.091 125.826 249.849 126.058 249.55 126.058H246.306C246.008 126.058 245.766 125.826 245.766 125.539Z" fill="white"/>
<path d="M250.091 145.76V129.946C250.091 129.66 249.849 129.428 249.55 129.428H246.306C246.008 129.428 245.766 129.66 245.766 129.946V145.76C245.766 146.047 246.008 146.279 246.306 146.279H249.55C249.849 146.279 250.091 146.047 250.091 145.76Z" fill="white"/>
<path d="M249.55 122.688H246.306C246.008 122.688 245.766 122.92 245.766 123.206V125.539C245.766 125.826 246.008 126.058 246.306 126.058H249.55C249.849 126.058 250.091 125.826 250.091 125.539V123.206C250.091 122.92 249.849 122.688 249.55 122.688Z" fill="white"/>
<path fill-rule="evenodd" clip-rule="evenodd" d="M249.984 125.539V129.946C249.984 129.66 250.226 129.428 250.525 129.428H253.769C254.067 129.428 254.309 129.66 254.309 129.946V125.539C254.309 125.826 254.067 126.058 253.769 126.058H250.525C250.226 126.058 249.984 125.826 249.984 125.539Z" fill="white"/>
<path d="M254.309 145.76V129.946C254.309 129.66 254.067 129.428 253.769 129.428H250.525C250.226 129.428 249.984 129.66 249.984 129.946V145.76C249.984 146.047 250.226 146.279 250.525 146.279H253.769C254.067 146.279 254.309 146.047 254.309 145.76Z" fill="white"/>
<path d="M253.769 122.688H250.525C250.226 122.688 249.984 122.92 249.984 123.206V125.539C249.984 125.826 250.226 126.058 250.525 126.058H253.769C254.067 126.058 254.309 125.826 254.309 125.539V123.206C254.309 122.92 254.067 122.688 253.769 122.688Z" fill="white"/>
<path d="M236.712 125.541V123.206C236.712 122.817 236.091 122.688 235.804 122.688V146.295C236.091 146.295 236.712 146.295 236.712 145.776V129.951V125.541Z" fill="#565656" fill-opacity="0.3"/>
<path fill-rule="evenodd" clip-rule="evenodd" d="M232.58 125.547V129.955C232.58 129.668 232.822 129.436 233.121 129.436H236.365C236.663 129.436 236.905 129.668 236.905 129.955V125.547C236.905 125.834 236.663 126.066 236.365 126.066H233.121C232.822 126.066 232.58 125.834 232.58 125.547Z" fill="#565656" fill-opacity="0.3"/>
<path d="M232.58 145.769V123.214M232.58 145.769C232.58 146.055 232.822 146.287 233.121 146.287H236.365C236.663 146.287 236.905 146.055 236.905 145.769M232.58 145.769V129.955M236.905 145.769V123.214M236.905 145.769V129.955M236.905 123.214C236.905 122.928 236.663 122.696 236.365 122.696H233.121C232.822 122.696 232.58 122.928 232.58 123.214M236.905 123.214V125.547M236.905 123.214V129.955M232.58 123.214V125.547M232.58 123.214V129.955M232.58 125.547C232.58 125.834 232.822 126.066 233.121 126.066H236.365C236.663 126.066 236.905 125.834 236.905 125.547M232.58 125.547V129.955M236.905 125.547V129.955M236.905 129.955C236.905 129.668 236.663 129.436 236.365 129.436H233.121C232.822 129.436 232.58 129.668 232.58 129.955" stroke="#304436"/>
<path d="M241.038 125.541V123.206C241.038 122.817 240.416 122.688 240.129 122.688V146.295C240.416 146.295 241.038 146.295 241.038 145.776V129.951V125.541Z" fill="#565656" fill-opacity="0.3"/>
<path fill-rule="evenodd" clip-rule="evenodd" d="M236.906 125.547V129.955C236.906 129.668 237.148 129.436 237.446 129.436H240.69C240.989 129.436 241.231 129.668 241.231 129.955V125.547C241.231 125.834 240.989 126.066 240.69 126.066H237.446C237.148 126.066 236.906 125.834 236.906 125.547Z" fill="#565656" fill-opacity="0.3"/>
<path d="M236.906 145.769V123.214M236.906 145.769C236.906 146.055 237.148 146.287 237.446 146.287H240.69C240.989 146.287 241.231 146.055 241.231 145.769M236.906 145.769V129.955M241.231 145.769V123.214M241.231 145.769V129.955M241.231 123.214C241.231 122.928 240.989 122.696 240.69 122.696H237.446C237.148 122.696 236.906 122.928 236.906 123.214M241.231 123.214V125.547M241.231 123.214V129.955M236.906 123.214V125.547M236.906 123.214V129.955M236.906 125.547C236.906 125.834 237.148 126.066 237.446 126.066H240.69C240.989 126.066 241.231 125.834 241.231 125.547M236.906 125.547V129.955M241.231 125.547V129.955M241.231 129.955C241.231 129.668 240.989 129.436 240.69 129.436H237.446C237.148 129.436 236.906 129.668 236.906 129.955" stroke="#304436"/>
<path d="M245.362 125.541V123.206C245.362 122.817 244.74 122.688 244.454 122.688V146.295C244.74 146.295 245.362 146.295 245.362 145.776V129.951V125.541Z" fill="#565656" fill-opacity="0.3"/>
<path fill-rule="evenodd" clip-rule="evenodd" d="M241.23 125.547V129.955C241.23 129.668 241.472 129.436 241.771 129.436H245.015C245.313 129.436 245.555 129.668 245.555 129.955V125.547C245.555 125.834 245.313 126.066 245.015 126.066H241.771C241.472 126.066 241.23 125.834 241.23 125.547Z" fill="#565656" fill-opacity="0.3"/>
<path d="M241.23 145.769V123.214M241.23 145.769C241.23 146.055 241.472 146.287 241.771 146.287H245.015C245.313 146.287 245.555 146.055 245.555 145.769M241.23 145.769V129.955M245.555 145.769V123.214M245.555 145.769V129.955M245.555 123.214C245.555 122.928 245.313 122.696 245.015 122.696H241.771C241.472 122.696 241.23 122.928 241.23 123.214M245.555 123.214V125.547M245.555 123.214V129.955M241.23 123.214V125.547M241.23 123.214V129.955M241.23 125.547C241.23 125.834 241.472 126.066 241.771 126.066H245.015C245.313 126.066 245.555 125.834 245.555 125.547M241.23 125.547V129.955M245.555 125.547V129.955M245.555 129.955C245.555 129.668 245.313 129.436 245.015 129.436H241.771C241.472 129.436 241.23 129.668 241.23 129.955" stroke="#304436"/>
<path d="M249.688 125.541V123.206C249.688 122.817 249.066 122.688 248.779 122.688V146.295C249.066 146.295 249.688 146.295 249.688 145.776V129.951V125.541Z" fill="#565656" fill-opacity="0.3"/>
<path fill-rule="evenodd" clip-rule="evenodd" d="M245.555 125.547V129.955C245.555 129.668 245.797 129.436 246.096 129.436H249.34C249.638 129.436 249.881 129.668 249.881 129.955V125.547C249.881 125.834 249.638 126.066 249.34 126.066H246.096C245.797 126.066 245.555 125.834 245.555 125.547Z" fill="#565656" fill-opacity="0.3"/>
<path d="M245.555 145.769V123.214M245.555 145.769C245.555 146.055 245.797 146.287 246.096 146.287H249.34C249.638 146.287 249.881 146.055 249.881 145.769M245.555 145.769V129.955M249.881 145.769V123.214M249.881 145.769V129.955M249.881 123.214C249.881 122.928 249.638 122.696 249.34 122.696H246.096C245.797 122.696 245.555 122.928 245.555 123.214M249.881 123.214V125.547M249.881 123.214V129.955M245.555 123.214V125.547M245.555 123.214V129.955M245.555 125.547C245.555 125.834 245.797 126.066 246.096 126.066H249.34C249.638 126.066 249.881 125.834 249.881 125.547M245.555 125.547V129.955M249.881 125.547V129.955M249.881 129.955C249.881 129.668 249.638 129.436 249.34 129.436H246.096C245.797 129.436 245.555 129.668 245.555 129.955" stroke="#304436"/>
<path d="M254.013 125.541V123.206C254.013 122.817 253.391 122.688 253.104 122.688V146.295C253.391 146.295 254.013 146.295 254.013 145.776V129.951V125.541Z" fill="#565656" fill-opacity="0.3"/>
<path fill-rule="evenodd" clip-rule="evenodd" d="M249.881 125.547V129.955C249.881 129.668 250.123 129.436 250.421 129.436H253.665C253.964 129.436 254.206 129.668 254.206 129.955V125.547C254.206 125.834 253.964 126.066 253.665 126.066H250.421C250.123 126.066 249.881 125.834 249.881 125.547Z" fill="#565656" fill-opacity="0.3"/>
<path d="M249.881 145.769V123.214M249.881 145.769C249.881 146.055 250.123 146.287 250.421 146.287H253.665C253.964 146.287 254.206 146.055 254.206 145.769M249.881 145.769V129.955M254.206 145.769V123.214M254.206 145.769V129.955M254.206 123.214C254.206 122.928 253.964 122.696 253.665 122.696H250.421C250.123 122.696 249.881 122.928 249.881 123.214M254.206 123.214V125.547M254.206 123.214V129.955M249.881 123.214V125.547M249.881 123.214V129.955M249.881 125.547C249.881 125.834 250.123 126.066 250.421 126.066H253.665C253.964 126.066 254.206 125.834 254.206 125.547M249.881 125.547V129.955M254.206 125.547V129.955M254.206 129.955C254.206 129.668 253.964 129.436 253.665 129.436H250.421C250.123 129.436 249.881 129.668 249.881 129.955" stroke="#304436"/>
<path d="M232.558 125.274L231.908 125.274C231.406 125.274 231 124.867 231 124.366C231 123.864 231.406 123.458 231.908 123.458L232.558 123.458L232.558 125.274Z" stroke="#304436"/>
<path d="M232.58 125.44L231.991 125.44C231.448 125.44 231.008 125 231.008 124.457C231.008 123.914 231.448 123.474 231.991 123.474L232.58 123.474L232.58 125.44Z" fill="white" stroke="#304436"/>
<path d="M254.206 123.474H254.795C255.338 123.474 255.778 123.914 255.778 124.457C255.778 125 255.338 125.44 254.795 125.44H254.206L254.206 123.474Z" fill="white" stroke="#304436"/>
<path d="M191.591 75.2019H195.473H255.417V69.1587H191.591V75.2019Z" fill="#E2D2C3" stroke="#304436" stroke-width="2"/>
<path d="M195.641 85.7959V305H259.468C259.468 305 241.003 288.399 236.044 273.538C226.483 244.887 262.419 240.04 259.468 215.495C257.477 198.937 244.406 193.999 241.087 177.694C238.399 164.489 242.919 156.109 241.048 143.061C239.136 129.727 233.716 118.959 228.576 108.748C225.957 103.545 221.037 90.976 219.065 85.7959C218.215 82.3255 217.706 78.751 217.675 75H195.641V85.7959Z" fill="url(#pattern0_2167_4341)" stroke="#304436" stroke-width="2"/>
<path d="M202.912 299V290H204.436V299H202.912ZM209.144 292.712C211.112 292.712 212.456 294.164 212.456 295.976C212.456 297.788 211.112 299.24 209.144 299.24C207.176 299.24 205.832 297.788 205.832 295.976C205.832 294.164 207.176 292.712 209.144 292.712ZM209.168 297.8C210.14 297.8 210.872 297.02 210.872 295.976C210.872 294.92 210.14 294.152 209.168 294.152C208.16 294.152 207.416 294.92 207.416 295.976C207.416 297.032 208.16 297.8 209.168 297.8ZM216.808 297.8C217.408 297.8 217.888 297.524 218.176 297.104L219.364 298.016C218.8 298.76 217.912 299.24 216.808 299.24C214.72 299.24 213.472 297.74 213.472 295.976C213.472 294.212 214.72 292.712 216.808 292.712C217.912 292.712 218.8 293.192 219.364 293.936L218.176 294.848C217.888 294.428 217.408 294.152 216.784 294.152C215.788 294.152 215.056 294.92 215.056 295.976C215.056 297.044 215.788 297.8 216.808 297.8ZM222.1 299.18C220.888 299.18 220.06 298.484 220.06 297.368C220.06 296.456 220.768 295.772 222.064 295.556L223.912 295.244V295.088C223.912 294.452 223.432 294.044 222.736 294.044C222.148 294.044 221.692 294.32 221.368 294.764L220.252 293.912C220.792 293.168 221.68 292.712 222.784 292.712C224.536 292.712 225.436 293.756 225.436 295.088V299H223.912V298.412C223.528 298.88 222.808 299.18 222.1 299.18ZM221.572 297.296C221.572 297.704 221.896 297.968 222.412 297.968C223.108 297.968 223.612 297.644 223.912 297.164V296.312L222.472 296.552C221.836 296.66 221.572 296.924 221.572 297.296ZM227.182 299V290H228.706V299H227.182Z" fill="#535F57"/>
<path d="M195.606 156.906H190V150H195.606H200.35H210.269H220.054H230.835H240.826V156.906H230.835H220.054H210.269H200.35H195.606Z" fill="#E2D2C3"/>
<path d="M240.826 156.906H200.35M240.826 156.906H210.269M240.826 156.906V150M240.826 150H200.35M240.826 150H210.269M200.35 150H195.606H190V156.906H195.606H200.35M200.35 150V156.906M200.35 150H210.269M200.35 156.906H210.269M210.269 150V156.906M220.054 150V156.906M230.835 150V156.906" stroke="#304436" stroke-width="2"/>
<path d="M195.606 241.906H190V235H195.606H200.35H210.269H220.054H230.835H241.641H252.141L246.141 241.906H241.641H230.835H220.054H210.269H200.35H195.606Z" fill="#E2D2C3"/>
<path d="M246.141 241.906H200.35M246.141 241.906H210.269M246.141 241.906L252.141 235M252.141 235H200.35M252.141 235H210.269M200.35 235H195.606H190V241.906H195.606H200.35M200.35 235V241.906M200.35 235H210.269M200.35 241.906H210.269M210.269 235V241.906M220.054 235V241.906M230.835 235V241.906M241.641 235V241.906" stroke="#304436" stroke-width="2"/>
<path d="M223.169 16.4966L196 69.1586H256.054C255.599 44.0187 244.732 16.4966 244.732 16.4966H223.169Z" fill="#858181" stroke="#304436" stroke-width="2"/>
<path d="M236.97 18.9507L243.439 15.8305L256.376 9.58997L275.783 18.9507V69.1585H243.439H236.97V18.9507Z" fill="#F3E1D1" stroke="#274430" stroke-width="2"/>
<g clip-path="url(#clip0_2167_4341)">
<rect x="242.145" y="20.813" width="28.4629" height="46.6189" rx="2" fill="#93D3F6"/>
<path d="M242.145 41.2087L259.66 20.813H270.608L242.145 55.7771V41.2087Z" fill="white" fill-opacity="0.3"/>
<path d="M243.24 67.4318L270.608 34.4102V40.2375L247.618 67.4318H243.24Z" fill="white" fill-opacity="0.3"/>
<rect x="242.145" y="20.813" width="28.4629" height="7.76981" fill="#565656" fill-opacity="0.3"/>
</g>
<rect x="242.145" y="20.813" width="28.4629" height="46.6189" rx="2" stroke="#274430" stroke-width="2"/>
<path fill-rule="evenodd" clip-rule="evenodd" d="M255.945 69.1585L255.945 20.813L257.67 20.813L257.67 69.1585L255.945 69.1585Z" fill="#304436"/>
<path fill-rule="evenodd" clip-rule="evenodd" d="M270.608 44.9857L242.145 44.9857L242.145 43.2591L270.608 43.2591L270.608 44.9857Z" fill="#304436"/>
<rect x="234.382" y="65.7052" width="43.9881" height="3.45325" rx="1.72662" fill="#F3E1D1" stroke="#274430" stroke-width="2"/>
<path d="M330 248L342 184.5" stroke="#304436" stroke-linecap="round" stroke-linejoin="round"/>
<path d="M315.806 249.797C315.806 247.588 317.597 245.797 319.806 245.797L326.856 245.797L334.194 245.797C336.403 245.797 338.194 247.588 338.194 249.797V270.988C338.194 273.198 336.403 274.988 334.194 274.988H319.806C317.597 274.988 315.806 273.198 315.806 270.988V249.797Z" fill="white" stroke="#274430"/>
<path d="M335.27 245.797L336.683 245.797C337.484 245.797 338.133 246.446 338.133 247.247V272.125C338.133 273.706 336.851 274.988 335.27 274.988V245.797Z" fill="#565656" fill-opacity="0.3"/>
<ellipse cx="327" cy="252.796" rx="3.7314" ry="3.67027" fill="#304436" stroke="#274430" stroke-width="2"/>
<path d="M327 250.594L327.562 252.807C327.656 253.174 327.378 253.53 327 253.53C326.621 253.53 326.344 253.174 326.437 252.807L327 250.594Z" fill="white"/>
<ellipse cx="327" cy="267.648" rx="2.98512" ry="2.93622" fill="#304436" stroke="#274430" stroke-width="2"/>
<ellipse cx="327" cy="267.648" rx="1.49256" ry="1.46811" fill="white" fill-opacity="0.3"/>
<path d="M318.669 274.989H335.331V275.037C335.331 276.142 334.435 277.037 333.331 277.037H320.669C319.565 277.037 318.669 276.142 318.669 275.037V274.989Z" fill="white" stroke="#274430"/>
<rect width="0.743243" height="3.28536" transform="matrix(0.869565 -0.493819 0.506207 0.862412 325.881 266.363)" fill="white"/>
<path d="M335.07 275.245H334.123C333.742 275.245 333.363 275.299 332.996 275.403C332.384 275.576 331.386 275.849 330.645 276.013C328.54 276.476 325.178 276.781 325.178 276.781H335.07V275.245Z" fill="#565656" fill-opacity="0.3"/>
<g filter="url(#filter0_d_2167_4341)">
<rect x="313" y="165" width="141" height="23" fill="white" shape-rendering="crispEdges"/>
<rect x="313.5" y="165.5" width="140" height="22" stroke="#304436" shape-rendering="crispEdges"/>
<path d="M316.442 183V173.2H319.326C321.37 173.2 322.616 174.208 322.616 175.86C322.616 176.658 322.252 177.344 321.566 177.792C322.602 178.254 323.176 179.094 323.176 180.116C323.176 181.908 321.79 183 319.536 183H316.442ZM319.368 174.852H318.43V177.064H319.368C320.124 177.064 320.572 176.658 320.572 175.944C320.572 175.258 320.124 174.852 319.368 174.852ZM319.648 178.716H318.43V181.348H319.648C320.572 181.348 321.132 180.858 321.132 180.032C321.132 179.192 320.572 178.716 319.648 178.716ZM326.966 183.21C325.552 183.21 324.586 182.398 324.586 181.096C324.586 180.032 325.412 179.234 326.924 178.982L329.08 178.618V178.436C329.08 177.694 328.52 177.218 327.708 177.218C327.022 177.218 326.49 177.54 326.112 178.058L324.81 177.064C325.44 176.196 326.476 175.664 327.764 175.664C329.808 175.664 330.858 176.882 330.858 178.436V183H329.08V182.314C328.632 182.86 327.792 183.21 326.966 183.21ZM326.35 181.012C326.35 181.488 326.728 181.796 327.33 181.796C328.142 181.796 328.73 181.418 329.08 180.858V179.864L327.4 180.144C326.658 180.27 326.35 180.578 326.35 181.012ZM332.894 183V172.5H334.672V183H332.894ZM336.804 183V172.5H338.582V183H336.804ZM344.074 175.664C346.37 175.664 347.938 177.358 347.938 179.472C347.938 181.586 346.37 183.28 344.074 183.28C341.778 183.28 340.21 181.586 340.21 179.472C340.21 177.358 341.778 175.664 344.074 175.664ZM344.102 181.6C345.236 181.6 346.09 180.69 346.09 179.472C346.09 178.24 345.236 177.344 344.102 177.344C342.926 177.344 342.058 178.24 342.058 179.472C342.058 180.704 342.926 181.6 344.102 181.6ZM349.56 183V175.944H351.338V176.504C351.828 176.028 352.486 175.664 353.424 175.664C354.95 175.664 356.168 176.714 356.168 178.8V183H354.376V178.87C354.376 177.932 353.844 177.344 352.976 177.344C352.08 177.344 351.604 177.946 351.338 178.394V183H349.56ZM361.456 179.472C361.456 177.414 362.814 175.664 365.04 175.664C365.992 175.664 366.678 175.958 367.224 176.504V172.5H369.016V183H367.224V182.44C366.678 182.986 365.992 183.28 365.04 183.28C362.814 183.28 361.456 181.53 361.456 179.472ZM363.318 179.472C363.318 180.704 364.088 181.6 365.292 181.6C366.09 181.6 366.748 181.264 367.224 180.62V178.324C366.748 177.68 366.09 177.344 365.292 177.344C364.088 177.344 363.318 178.24 363.318 179.472ZM372.097 177.232H370.445L371.705 173.2H373.721L372.097 177.232ZM380.83 181.852C380.172 182.734 379.08 183.28 377.75 183.28C375.244 183.28 373.83 181.53 373.83 179.472C373.83 177.386 375.146 175.664 377.456 175.664C379.416 175.664 380.704 176.994 380.704 178.842C380.704 179.234 380.648 179.598 380.592 179.836H375.65C375.818 181.152 376.63 181.684 377.736 181.684C378.506 181.684 379.178 181.348 379.556 180.844L380.83 181.852ZM377.414 177.12C376.504 177.12 375.902 177.624 375.706 178.548H378.954C378.926 177.834 378.408 177.12 377.414 177.12ZM384.333 183.21C382.919 183.21 381.953 182.398 381.953 181.096C381.953 180.032 382.779 179.234 384.291 178.982L386.447 178.618V178.436C386.447 177.694 385.887 177.218 385.075 177.218C384.389 177.218 383.857 177.54 383.479 178.058L382.177 177.064C382.807 176.196 383.843 175.664 385.131 175.664C387.175 175.664 388.225 176.882 388.225 178.436V183H386.447V182.314C385.999 182.86 385.159 183.21 384.333 183.21ZM383.717 181.012C383.717 181.488 384.095 181.796 384.697 181.796C385.509 181.796 386.097 181.418 386.447 180.858V179.864L384.767 180.144C384.025 180.27 383.717 180.578 383.717 181.012ZM394.909 179.948V175.944H396.701V179.864C396.701 181.978 395.469 183.28 393.397 183.28C391.325 183.28 390.107 181.978 390.107 179.864V175.944H391.899V179.948C391.899 180.97 392.431 181.6 393.411 181.6C394.377 181.6 394.909 180.97 394.909 179.948ZM405.831 181.6C406.531 181.6 407.091 181.278 407.427 180.788L408.813 181.852C408.155 182.72 407.119 183.28 405.831 183.28C403.395 183.28 401.939 181.53 401.939 179.472C401.939 177.414 403.395 175.664 405.831 175.664C407.119 175.664 408.155 176.224 408.813 177.092L407.427 178.156C407.091 177.666 406.531 177.344 405.803 177.344C404.641 177.344 403.787 178.24 403.787 179.472C403.787 180.718 404.641 181.6 405.831 181.6ZM410.14 183V172.5H411.918V176.504C412.408 176.028 413.066 175.664 414.004 175.664C415.53 175.664 416.748 176.714 416.748 178.8V183H414.956V178.87C414.956 177.932 414.438 177.344 413.556 177.344C412.66 177.344 412.184 177.946 411.918 178.394V183H410.14ZM420.755 183.21C419.341 183.21 418.375 182.398 418.375 181.096C418.375 180.032 419.201 179.234 420.713 178.982L422.869 178.618V178.436C422.869 177.694 422.309 177.218 421.497 177.218C420.811 177.218 420.279 177.54 419.901 178.058L418.599 177.064C419.229 176.196 420.265 175.664 421.553 175.664C423.597 175.664 424.647 176.882 424.647 178.436V183H422.869V182.314C422.421 182.86 421.581 183.21 420.755 183.21ZM420.139 181.012C420.139 181.488 420.517 181.796 421.119 181.796C421.931 181.796 422.519 181.418 422.869 180.858V179.864L421.189 180.144C420.447 180.27 420.139 180.578 420.139 181.012ZM431.331 179.948V175.944H433.123V179.864C433.123 181.978 431.891 183.28 429.819 183.28C427.747 183.28 426.529 181.978 426.529 179.864V175.944H428.321V179.948C428.321 180.97 428.853 181.6 429.833 181.6C430.799 181.6 431.331 180.97 431.331 179.948ZM434.587 179.472C434.587 177.414 435.945 175.664 438.171 175.664C439.123 175.664 439.809 175.958 440.355 176.504V172.5H442.147V183H440.355V182.44C439.809 182.986 439.123 183.28 438.171 183.28C435.945 183.28 434.587 181.53 434.587 179.472ZM436.449 179.472C436.449 180.704 437.219 181.6 438.423 181.6C439.221 181.6 439.879 181.264 440.355 180.62V178.324C439.879 177.68 439.221 177.344 438.423 177.344C437.219 177.344 436.449 178.24 436.449 179.472ZM450.775 181.852C450.117 182.734 449.025 183.28 447.695 183.28C445.189 183.28 443.775 181.53 443.775 179.472C443.775 177.386 445.091 175.664 447.401 175.664C449.361 175.664 450.649 176.994 450.649 178.842C450.649 179.234 450.593 179.598 450.537 179.836H445.595C445.763 181.152 446.575 181.684 447.681 181.684C448.451 181.684 449.123 181.348 449.501 180.844L450.775 181.852ZM447.359 177.12C446.449 177.12 445.847 177.624 445.651 178.548H448.899C448.871 177.834 448.353 177.12 447.359 177.12Z" fill="#304436"/>
</g>
<g filter="url(#filter1_d_2167_4341)">
<rect x="91" y="67" width="73" height="19" fill="white" shape-rendering="crispEdges"/>
<rect x="91.5" y="67.5" width="72" height="18" stroke="#304436" shape-rendering="crispEdges"/>
<path d="M98.81 81.418C99.93 81.418 100.812 80.872 101.372 80.074L102.94 81.278C102.044 82.496 100.588 83.28 98.81 83.28C95.716 83.28 93.602 80.9 93.602 78.1C93.602 75.3 95.716 72.92 98.81 72.92C100.588 72.92 102.044 73.718 102.94 74.908L101.372 76.126C100.812 75.328 99.93 74.782 98.81 74.782C96.962 74.782 95.646 76.224 95.646 78.1C95.646 79.976 96.962 81.418 98.81 81.418ZM104.427 83V72.5H106.205V76.504C106.695 76.028 107.353 75.664 108.291 75.664C109.817 75.664 111.035 76.714 111.035 78.8V83H109.243V78.87C109.243 77.932 108.725 77.344 107.843 77.344C106.947 77.344 106.471 77.946 106.205 78.394V83H104.427ZM119.55 81.852C118.892 82.734 117.8 83.28 116.47 83.28C113.964 83.28 112.55 81.53 112.55 79.472C112.55 77.386 113.866 75.664 116.176 75.664C118.136 75.664 119.424 76.994 119.424 78.842C119.424 79.234 119.368 79.598 119.312 79.836H114.37C114.538 81.152 115.35 81.684 116.456 81.684C117.226 81.684 117.898 81.348 118.276 80.844L119.55 81.852ZM116.134 77.12C115.224 77.12 114.622 77.624 114.426 78.548H117.674C117.646 77.834 117.128 77.12 116.134 77.12ZM121.162 83V75.944H122.94V76.476C123.416 76.014 124.018 75.664 124.886 75.664C125.782 75.664 126.566 76.056 127.028 76.812C127.532 76.196 128.204 75.664 129.394 75.664C130.85 75.664 131.998 76.672 131.998 78.66V83H130.206V78.73C130.206 77.876 129.744 77.344 128.946 77.344C128.176 77.344 127.756 77.876 127.476 78.352C127.49 78.45 127.49 78.548 127.49 78.66V83H125.698V78.73C125.698 77.876 125.236 77.344 124.438 77.344C123.626 77.344 123.206 77.946 122.94 78.394V83H121.162ZM134.923 74.712C134.293 74.712 133.761 74.18 133.761 73.55C133.761 72.92 134.293 72.388 134.923 72.388C135.553 72.388 136.071 72.92 136.071 73.55C136.071 74.18 135.553 74.712 134.923 74.712ZM134.027 83V75.944H135.805V83H134.027ZM137.937 83V75.944H139.715V76.504C140.205 76.028 140.863 75.664 141.801 75.664C143.327 75.664 144.545 76.714 144.545 78.8V83H142.753V78.87C142.753 77.932 142.221 77.344 141.353 77.344C140.457 77.344 139.981 77.946 139.715 78.394V83H137.937ZM150.666 74.824H148.958L150.414 72.5H152.346L150.666 74.824ZM153.06 81.852C152.402 82.734 151.31 83.28 149.98 83.28C147.474 83.28 146.06 81.53 146.06 79.472C146.06 77.386 147.376 75.664 149.686 75.664C151.646 75.664 152.934 76.994 152.934 78.842C152.934 79.234 152.878 79.598 152.822 79.836H147.88C148.048 81.152 148.86 81.684 149.966 81.684C150.736 81.684 151.408 81.348 151.786 80.844L153.06 81.852ZM149.644 77.12C148.734 77.12 148.132 77.624 147.936 78.548H151.184C151.156 77.834 150.638 77.12 149.644 77.12ZM161.113 81.852C160.455 82.734 159.363 83.28 158.033 83.28C155.527 83.28 154.113 81.53 154.113 79.472C154.113 77.386 155.429 75.664 157.739 75.664C159.699 75.664 160.987 76.994 160.987 78.842C160.987 79.234 160.931 79.598 160.875 79.836H155.933C156.101 81.152 156.913 81.684 158.019 81.684C158.789 81.684 159.461 81.348 159.839 80.844L161.113 81.852ZM157.697 77.12C156.787 77.12 156.185 77.624 155.989 78.548H159.237C159.209 77.834 158.691 77.12 157.697 77.12Z" fill="#304436"/>
</g>
<g filter="url(#filter2_d_2167_4341)">
<rect x="217" y="308" width="107" height="19" fill="white" shape-rendering="crispEdges"/>
<rect x="217.5" y="308.5" width="106" height="18" stroke="#304436" shape-rendering="crispEdges"/>
<path d="M220.442 324V314.2H223.676C225.832 314.2 227.148 315.306 227.148 317.126C227.148 318.932 225.832 320.038 223.676 320.038H222.43V324H220.442ZM223.76 315.852H222.43V318.386H223.76C224.6 318.386 225.104 317.896 225.104 317.098C225.104 316.356 224.6 315.852 223.76 315.852ZM231.49 316.664C233.786 316.664 235.354 318.358 235.354 320.472C235.354 322.586 233.786 324.28 231.49 324.28C229.194 324.28 227.626 322.586 227.626 320.472C227.626 318.358 229.194 316.664 231.49 316.664ZM231.518 322.6C232.652 322.6 233.506 321.69 233.506 320.472C233.506 319.24 232.652 318.344 231.518 318.344C230.342 318.344 229.474 319.24 229.474 320.472C229.474 321.704 230.342 322.6 231.518 322.6ZM239.2 315.824H237.646L239.088 313.5H241.356L242.798 315.824H241.244L240.222 314.298L239.2 315.824ZM243.54 322.852C242.882 323.734 241.79 324.28 240.46 324.28C237.954 324.28 236.54 322.53 236.54 320.472C236.54 318.386 237.856 316.664 240.166 316.664C242.126 316.664 243.414 317.994 243.414 319.842C243.414 320.234 243.358 320.598 243.302 320.836H238.36C238.528 322.152 239.34 322.684 240.446 322.684C241.216 322.684 241.888 322.348 242.266 321.844L243.54 322.852ZM240.124 318.12C239.214 318.12 238.612 318.624 238.416 319.548H241.664C241.636 318.834 241.118 318.12 240.124 318.12ZM245.152 324V313.5H246.93V324H245.152ZM255.558 322.852C254.9 323.734 253.808 324.28 252.478 324.28C249.972 324.28 248.558 322.53 248.558 320.472C248.558 318.386 249.874 316.664 252.184 316.664C254.144 316.664 255.432 317.994 255.432 319.842C255.432 320.234 255.376 320.598 255.32 320.836H250.378C250.546 322.152 251.358 322.684 252.464 322.684C253.234 322.684 253.906 322.348 254.284 321.844L255.558 322.852ZM252.142 318.12C251.232 318.12 250.63 318.624 250.434 319.548H253.682C253.654 318.834 253.136 318.12 252.142 318.12ZM262.889 315.824L261.209 313.5H263.141L264.583 315.824H262.889ZM262.931 324.21C261.517 324.21 260.551 323.398 260.551 322.096C260.551 321.032 261.377 320.234 262.889 319.982L265.045 319.618V319.436C265.045 318.694 264.485 318.218 263.673 318.218C262.987 318.218 262.455 318.54 262.077 319.058L260.775 318.064C261.405 317.196 262.441 316.664 263.729 316.664C265.773 316.664 266.823 317.882 266.823 319.436V324H265.045V323.314C264.597 323.86 263.757 324.21 262.931 324.21ZM262.315 322.012C262.315 322.488 262.693 322.796 263.295 322.796C264.107 322.796 264.695 322.418 265.045 321.858V320.864L263.365 321.144C262.623 321.27 262.315 321.578 262.315 322.012ZM271.932 325.232C271.932 324.532 272.282 323.972 272.912 323.51C272.632 323.23 272.478 322.852 272.478 322.488C272.478 321.928 272.716 321.48 273.248 321.088C272.632 320.626 272.296 319.926 272.296 319.142C272.296 317.77 273.36 316.664 275.124 316.664C275.67 316.664 276.146 316.762 276.552 316.944H279.128V318.456H277.882C277.952 318.68 277.98 318.904 277.98 319.142C277.98 320.528 276.944 321.648 275.124 321.648C274.886 321.648 274.662 321.634 274.452 321.592C274.298 321.732 274.214 321.886 274.214 322.04C274.214 322.32 274.368 322.46 274.69 322.46H276.468C278.246 322.46 279.212 323.412 279.212 324.728C279.212 326.296 277.714 327.5 275.516 327.5C273.262 327.5 271.932 326.716 271.932 325.232ZM275.152 320.304C275.894 320.304 276.37 319.842 276.37 319.142C276.37 318.442 275.894 317.994 275.152 317.994C274.382 317.994 273.92 318.456 273.92 319.142C273.92 319.842 274.382 320.304 275.152 320.304ZM273.612 324.98C273.612 325.652 274.256 326.072 275.502 326.072C276.79 326.072 277.448 325.596 277.448 324.896C277.448 324.364 277.126 323.986 276.272 323.986H274.088C273.822 324.238 273.612 324.546 273.612 324.98ZM280.439 324V316.944H282.217V317.644C282.679 317.168 283.281 316.804 284.079 316.804C284.317 316.804 284.527 316.846 284.695 316.902V318.652C284.471 318.596 284.233 318.554 283.911 318.554C283.043 318.554 282.483 319.03 282.217 319.478V324H280.439ZM287.773 324.21C286.359 324.21 285.393 323.398 285.393 322.096C285.393 321.032 286.219 320.234 287.731 319.982L289.887 319.618V319.436C289.887 318.694 289.327 318.218 288.515 318.218C287.829 318.218 287.297 318.54 286.919 319.058L285.617 318.064C286.247 317.196 287.283 316.664 288.571 316.664C290.615 316.664 291.665 317.882 291.665 319.436V324H289.887V323.314C289.439 323.86 288.599 324.21 287.773 324.21ZM287.157 322.012C287.157 322.488 287.535 322.796 288.137 322.796C288.949 322.796 289.537 322.418 289.887 321.858V320.864L288.207 321.144C287.465 321.27 287.157 321.578 287.157 322.012ZM293.701 324V316.944H295.479V317.504C295.969 317.028 296.627 316.664 297.565 316.664C299.091 316.664 300.309 317.714 300.309 319.8V324H298.517V319.87C298.517 318.932 297.985 318.344 297.117 318.344C296.221 318.344 295.745 318.946 295.479 319.394V324H293.701ZM306.976 320.948V316.944H308.768V320.864C308.768 322.978 307.536 324.28 305.464 324.28C303.392 324.28 302.174 322.978 302.174 320.864V316.944H303.966V320.948C303.966 321.97 304.498 322.6 305.478 322.6C306.444 322.6 306.976 321.97 306.976 320.948ZM310.736 324V313.5H312.514V324H310.736ZM318.748 315.824H317.04L318.496 313.5H320.428L318.748 315.824ZM321.142 322.852C320.484 323.734 319.392 324.28 318.062 324.28C315.556 324.28 314.142 322.53 314.142 320.472C314.142 318.386 315.458 316.664 317.768 316.664C319.728 316.664 321.016 317.994 321.016 319.842C321.016 320.234 320.96 320.598 320.904 320.836H315.962C316.13 322.152 316.942 322.684 318.048 322.684C318.818 322.684 319.49 322.348 319.868 321.844L321.142 322.852ZM317.726 318.12C316.816 318.12 316.214 318.624 316.018 319.548H319.266C319.238 318.834 318.72 318.12 317.726 318.12Z" fill="#304436"/>
</g>
<g filter="url(#filter3_d_2167_4341)">
<rect x="362" y="309" width="95" height="19" fill="white" shape-rendering="crispEdges"/>
<rect x="362.5" y="309.5" width="94" height="18" stroke="#304436" shape-rendering="crispEdges"/>
<path d="M364.56 323.642L366.002 322.312C366.59 323.068 367.374 323.516 368.172 323.516C368.956 323.516 369.432 323.096 369.432 322.396C369.432 320.59 364.98 321.08 364.98 317.762C364.98 316.208 366.268 314.92 368.144 314.92C369.614 314.92 370.734 315.578 371.574 316.572L370.118 317.888C369.544 317.146 368.9 316.656 368.158 316.656C367.458 316.656 366.996 317.104 366.996 317.692C366.996 319.47 371.448 318.966 371.448 322.326C371.42 324.174 369.992 325.28 368.186 325.28C366.534 325.28 365.428 324.678 364.56 323.642ZM374.19 316.712C373.56 316.712 373.028 316.18 373.028 315.55C373.028 314.92 373.56 314.388 374.19 314.388C374.82 314.388 375.338 314.92 375.338 315.55C375.338 316.18 374.82 316.712 374.19 316.712ZM373.294 325V317.944H375.072V325H373.294ZM377.205 325V314.5H378.983V325H377.205ZM384.475 317.664C386.771 317.664 388.339 319.358 388.339 321.472C388.339 323.586 386.771 325.28 384.475 325.28C382.179 325.28 380.611 323.586 380.611 321.472C380.611 319.358 382.179 317.664 384.475 317.664ZM384.503 323.6C385.637 323.6 386.491 322.69 386.491 321.472C386.491 320.24 385.637 319.344 384.503 319.344C383.327 319.344 382.459 320.24 382.459 321.472C382.459 322.704 383.327 323.6 384.503 323.6ZM395.68 316.824L394 314.5H395.932L397.374 316.824H395.68ZM395.722 325.21C394.308 325.21 393.342 324.398 393.342 323.096C393.342 322.032 394.168 321.234 395.68 320.982L397.836 320.618V320.436C397.836 319.694 397.276 319.218 396.464 319.218C395.778 319.218 395.246 319.54 394.868 320.058L393.566 319.064C394.196 318.196 395.232 317.664 396.52 317.664C398.564 317.664 399.614 318.882 399.614 320.436V325H397.836V324.314C397.388 324.86 396.548 325.21 395.722 325.21ZM395.106 323.012C395.106 323.488 395.484 323.796 396.086 323.796C396.898 323.796 397.486 323.418 397.836 322.858V321.864L396.156 322.144C395.414 322.27 395.106 322.578 395.106 323.012ZM404.723 326.232C404.723 325.532 405.073 324.972 405.703 324.51C405.423 324.23 405.269 323.852 405.269 323.488C405.269 322.928 405.507 322.48 406.039 322.088C405.423 321.626 405.087 320.926 405.087 320.142C405.087 318.77 406.151 317.664 407.915 317.664C408.461 317.664 408.937 317.762 409.343 317.944H411.919V319.456H410.673C410.743 319.68 410.771 319.904 410.771 320.142C410.771 321.528 409.735 322.648 407.915 322.648C407.677 322.648 407.453 322.634 407.243 322.592C407.089 322.732 407.005 322.886 407.005 323.04C407.005 323.32 407.159 323.46 407.481 323.46H409.259C411.037 323.46 412.003 324.412 412.003 325.728C412.003 327.296 410.505 328.5 408.307 328.5C406.053 328.5 404.723 327.716 404.723 326.232ZM407.943 321.304C408.685 321.304 409.161 320.842 409.161 320.142C409.161 319.442 408.685 318.994 407.943 318.994C407.173 318.994 406.711 319.456 406.711 320.142C406.711 320.842 407.173 321.304 407.943 321.304ZM406.403 325.98C406.403 326.652 407.047 327.072 408.293 327.072C409.581 327.072 410.239 326.596 410.239 325.896C410.239 325.364 409.917 324.986 409.063 324.986H406.879C406.613 325.238 406.403 325.546 406.403 325.98ZM413.23 325V317.944H415.008V318.644C415.47 318.168 416.072 317.804 416.87 317.804C417.108 317.804 417.318 317.846 417.486 317.902V319.652C417.262 319.596 417.024 319.554 416.702 319.554C415.834 319.554 415.274 320.03 415.008 320.478V325H413.23ZM420.564 325.21C419.15 325.21 418.184 324.398 418.184 323.096C418.184 322.032 419.01 321.234 420.522 320.982L422.678 320.618V320.436C422.678 319.694 422.118 319.218 421.306 319.218C420.62 319.218 420.088 319.54 419.71 320.058L418.408 319.064C419.038 318.196 420.074 317.664 421.362 317.664C423.406 317.664 424.456 318.882 424.456 320.436V325H422.678V324.314C422.23 324.86 421.39 325.21 420.564 325.21ZM419.948 323.012C419.948 323.488 420.326 323.796 420.928 323.796C421.74 323.796 422.328 323.418 422.678 322.858V321.864L420.998 322.144C420.256 322.27 419.948 322.578 419.948 323.012ZM426.492 325V317.944H428.27V318.504C428.76 318.028 429.418 317.664 430.356 317.664C431.882 317.664 433.1 318.714 433.1 320.8V325H431.308V320.87C431.308 319.932 430.776 319.344 429.908 319.344C429.012 319.344 428.536 319.946 428.27 320.394V325H426.492ZM439.767 321.948V317.944H441.559V321.864C441.559 323.978 440.327 325.28 438.255 325.28C436.183 325.28 434.965 323.978 434.965 321.864V317.944H436.757V321.948C436.757 322.97 437.289 323.6 438.269 323.6C439.235 323.6 439.767 322.97 439.767 321.948ZM443.527 325V314.5H445.305V325H443.527ZM451.539 316.824H449.831L451.287 314.5H453.219L451.539 316.824ZM453.933 323.852C453.275 324.734 452.183 325.28 450.853 325.28C448.347 325.28 446.933 323.53 446.933 321.472C446.933 319.386 448.249 317.664 450.559 317.664C452.519 317.664 453.807 318.994 453.807 320.842C453.807 321.234 453.751 321.598 453.695 321.836H448.753C448.921 323.152 449.733 323.684 450.839 323.684C451.609 323.684 452.281 323.348 452.659 322.844L453.933 323.852ZM450.517 319.12C449.607 319.12 449.005 319.624 448.809 320.548H452.057C452.029 319.834 451.511 319.12 450.517 319.12Z" fill="#304436"/>
</g>
<g filter="url(#filter4_d_2167_4341)">
<rect x="421" y="240" width="60" height="19" fill="white" shape-rendering="crispEdges"/>
<rect x="421.5" y="240.5" width="59" height="18" stroke="#304436" shape-rendering="crispEdges"/>
<path d="M424.442 256V246.2H427.438C429.594 246.2 430.924 247.306 430.924 249.126C430.924 250.316 430.35 251.198 429.342 251.66L432.408 256H430.07L427.452 252.038H426.43V256H424.442ZM427.55 247.852H426.43V250.386H427.55C428.39 250.386 428.88 249.896 428.88 249.098C428.88 248.356 428.39 247.852 427.55 247.852ZM435.527 256.21C434.113 256.21 433.147 255.398 433.147 254.096C433.147 253.032 433.973 252.234 435.485 251.982L437.641 251.618V251.436C437.641 250.694 437.081 250.218 436.269 250.218C435.583 250.218 435.051 250.54 434.673 251.058L433.371 250.064C434.001 249.196 435.037 248.664 436.325 248.664C438.369 248.664 439.419 249.882 439.419 251.436V256H437.641V255.314C437.193 255.86 436.353 256.21 435.527 256.21ZM434.911 254.012C434.911 254.488 435.289 254.796 435.891 254.796C436.703 254.796 437.291 254.418 437.641 253.858V252.864L435.961 253.144C435.219 253.27 434.911 253.578 434.911 254.012ZM444.843 254.6C445.543 254.6 446.103 254.278 446.439 253.788L447.825 254.852C447.167 255.72 446.131 256.28 444.843 256.28C442.407 256.28 440.951 254.53 440.951 252.472C440.951 250.414 442.407 248.664 444.843 248.664C446.131 248.664 447.167 249.224 447.825 250.092L446.439 251.156C446.103 250.666 445.543 250.344 444.815 250.344C443.653 250.344 442.799 251.24 442.799 252.472C442.799 253.718 443.653 254.6 444.843 254.6ZM452.266 254.6C452.966 254.6 453.526 254.278 453.862 253.788L455.248 254.852C454.59 255.72 453.554 256.28 452.266 256.28C449.83 256.28 448.374 254.53 448.374 252.472C448.374 250.414 449.83 248.664 452.266 248.664C453.554 248.664 454.59 249.224 455.248 250.092L453.862 251.156C453.526 250.666 452.966 250.344 452.238 250.344C451.076 250.344 450.222 251.24 450.222 252.472C450.222 253.718 451.076 254.6 452.266 254.6ZM459.662 248.664C461.958 248.664 463.526 250.358 463.526 252.472C463.526 254.586 461.958 256.28 459.662 256.28C457.366 256.28 455.798 254.586 455.798 252.472C455.798 250.358 457.366 248.664 459.662 248.664ZM459.69 254.6C460.824 254.6 461.678 253.69 461.678 252.472C461.678 251.24 460.824 250.344 459.69 250.344C458.514 250.344 457.646 251.24 457.646 252.472C457.646 253.704 458.514 254.6 459.69 254.6ZM465.148 256V248.944H466.926V249.644C467.388 249.168 467.99 248.804 468.788 248.804C469.026 248.804 469.236 248.846 469.404 248.902V250.652C469.18 250.596 468.942 250.554 468.62 250.554C467.752 250.554 467.192 251.03 466.926 251.478V256H465.148ZM470.031 252.472C470.031 250.414 471.389 248.664 473.615 248.664C474.567 248.664 475.253 248.958 475.799 249.504V245.5H477.591V256H475.799V255.44C475.253 255.986 474.567 256.28 473.615 256.28C471.389 256.28 470.031 254.53 470.031 252.472ZM471.893 252.472C471.893 253.704 472.663 254.6 473.867 254.6C474.665 254.6 475.323 254.264 475.799 253.62V251.324C475.323 250.68 474.665 250.344 473.867 250.344C472.663 250.344 471.893 251.24 471.893 252.472Z" fill="#304436"/>
</g>
<defs>
<filter id="filter0_d_2167_4341" x="313" y="165" width="142" height="24" filterUnits="userSpaceOnUse" color-interpolation-filters="sRGB">
<feFlood flood-opacity="0" result="BackgroundImageFix"/>
<feColorMatrix in="SourceAlpha" type="matrix" values="0 0 0 0 0 0 0 0 0 0 0 0 0 0 0 0 0 0 127 0" result="hardAlpha"/>
<feOffset dx="1" dy="1"/>
<feComposite in2="hardAlpha" operator="out"/>
<feColorMatrix type="matrix" values="0 0 0 0 0.188235 0 0 0 0 0.266667 0 0 0 0 0.211765 0 0 0 1 0"/>
<feBlend mode="normal" in2="BackgroundImageFix" result="effect1_dropShadow_2167_4341"/>
<feBlend mode="normal" in="SourceGraphic" in2="effect1_dropShadow_2167_4341" result="shape"/>
</filter>
<filter id="filter1_d_2167_4341" x="91" y="67" width="74" height="20" filterUnits="userSpaceOnUse" color-interpolation-filters="sRGB">
<feFlood flood-opacity="0" result="BackgroundImageFix"/>
<feColorMatrix in="SourceAlpha" type="matrix" values="0 0 0 0 0 0 0 0 0 0 0 0 0 0 0 0 0 0 127 0" result="hardAlpha"/>
<feOffset dx="1" dy="1"/>
<feComposite in2="hardAlpha" operator="out"/>
<feColorMatrix type="matrix" values="0 0 0 0 0.188235 0 0 0 0 0.266667 0 0 0 0 0.211765 0 0 0 1 0"/>
<feBlend mode="normal" in2="BackgroundImageFix" result="effect1_dropShadow_2167_4341"/>
<feBlend mode="normal" in="SourceGraphic" in2="effect1_dropShadow_2167_4341" result="shape"/>
</filter>
<filter id="filter2_d_2167_4341" x="217" y="308" width="108" height="20.5" filterUnits="userSpaceOnUse" color-interpolation-filters="sRGB">
<feFlood flood-opacity="0" result="BackgroundImageFix"/>
<feColorMatrix in="SourceAlpha" type="matrix" values="0 0 0 0 0 0 0 0 0 0 0 0 0 0 0 0 0 0 127 0" result="hardAlpha"/>
<feOffset dx="1" dy="1"/>
<feComposite in2="hardAlpha" operator="out"/>
<feColorMatrix type="matrix" values="0 0 0 0 0.188235 0 0 0 0 0.266667 0 0 0 0 0.211765 0 0 0 1 0"/>
<feBlend mode="normal" in2="BackgroundImageFix" result="effect1_dropShadow_2167_4341"/>
<feBlend mode="normal" in="SourceGraphic" in2="effect1_dropShadow_2167_4341" result="shape"/>
</filter>
<filter id="filter3_d_2167_4341" x="362" y="309" width="96" height="20.5" filterUnits="userSpaceOnUse" color-interpolation-filters="sRGB">
<feFlood flood-opacity="0" result="BackgroundImageFix"/>
<feColorMatrix in="SourceAlpha" type="matrix" values="0 0 0 0 0 0 0 0 0 0 0 0 0 0 0 0 0 0 127 0" result="hardAlpha"/>
<feOffset dx="1" dy="1"/>
<feComposite in2="hardAlpha" operator="out"/>
<feColorMatrix type="matrix" values="0 0 0 0 0.188235 0 0 0 0 0.266667 0 0 0 0 0.211765 0 0 0 1 0"/>
<feBlend mode="normal" in2="BackgroundImageFix" result="effect1_dropShadow_2167_4341"/>
<feBlend mode="normal" in="SourceGraphic" in2="effect1_dropShadow_2167_4341" result="shape"/>
</filter>
<filter id="filter4_d_2167_4341" x="421" y="240" width="61" height="20" filterUnits="userSpaceOnUse" color-interpolation-filters="sRGB">
<feFlood flood-opacity="0" result="BackgroundImageFix"/>
<feColorMatrix in="SourceAlpha" type="matrix" values="0 0 0 0 0 0 0 0 0 0 0 0 0 0 0 0 0 0 127 0" result="hardAlpha"/>
<feOffset dx="1" dy="1"/>
<feComposite in2="hardAlpha" operator="out"/>
<feColorMatrix type="matrix" values="0 0 0 0 0.188235 0 0 0 0 0.266667 0 0 0 0 0.211765 0 0 0 1 0"/>
<feBlend mode="normal" in2="BackgroundImageFix" result="effect1_dropShadow_2167_4341"/>
<feBlend mode="normal" in="SourceGraphic" in2="effect1_dropShadow_2167_4341" result="shape"/>
</filter>
<clipPath id="clip0_2167_4341">
<rect x="242.145" y="20.813" width="28.4629" height="46.6189" rx="2" fill="white"/>
</clipPath>
<pattern id="pattern0_2167_4341" patternUnits="userSpaceOnUse" patternTransform="matrix(17 0 0 14 195.141 74.5)" preserveAspectRatio="none" viewBox="-0.5 -0.5 17 14" width="1" height="1">
<use xlink:href="#pattern0_2167_4341_inner" transform="translate(-25.5 -7)"/>
<use xlink:href="#pattern0_2167_4341_inner" transform="translate(-8.5 -7)"/>
<use xlink:href="#pattern0_2167_4341_inner" transform="translate(8.5 -7)"/>
<use xlink:href="#pattern0_2167_4341_inner" transform="translate(-34 0)"/>
<use xlink:href="#pattern0_2167_4341_inner" transform="translate(-17 0)"/>
<g id="pattern0_2167_4341_inner">
<rect width="17" height="7" fill="#F3E1D1" stroke="white"/>
</g>
<use xlink:href="#pattern0_2167_4341_inner" transform="translate(-25.5 7)"/>
<use xlink:href="#pattern0_2167_4341_inner" transform="translate(-8.5 7)"/>
<use xlink:href="#pattern0_2167_4341_inner" transform="translate(8.5 7)"/>
</pattern></defs>
</svg>
