<svg width="501" height="362" viewBox="0 0 501 362" fill="none" xmlns="http://www.w3.org/2000/svg" xmlns:xlink="http://www.w3.org/1999/xlink">
<path d="M0 0H500V362H0V0Z" fill="white"/>
<path d="M500 0H499V362H500H501V0H500Z" fill="#E9E9E9"/>
<path d="M434 288H56C46.6112 288 39 295.611 39 305V321C39 321 44.6904 323.442 48.5 324.5C64.5465 328.955 74.3628 321.735 91 321C110.312 320.147 121.184 320.228 140.5 321C158.307 321.712 168.259 326.189 186 324.5C199.768 323.19 206.946 332.753 220.5 330C242.774 325.476 255.277 321.487 278 321C296.222 320.61 306.308 326.116 324.5 325C335.139 324.347 340.892 322.043 351.5 321L351.814 320.969C372.803 318.905 385.081 317.697 406 321C424.123 323.862 451 334.5 451 334.5V305C451 295.611 443.389 288 434 288Z" fill="#9A8D81" stroke="#304436" stroke-width="2"/>
<path d="M39 354H451V334.5C451 334.5 424.123 323.861 406 321C385.081 317.697 372.803 318.905 351.814 320.969L351.5 321C340.892 322.043 335.139 324.347 324.5 325C306.308 326.116 296.222 320.61 278 321C255.277 321.487 242.774 325.476 220.5 330C206.946 332.753 199.768 323.189 186 324.5C168.259 326.189 158.307 321.712 140.5 321C121.184 320.228 110.312 320.147 91 321C74.3628 321.735 64.5465 328.955 48.5 324.5C44.6904 323.442 39 321 39 321V354Z" fill="#624D45" stroke="#304436" stroke-width="2"/>
<path d="M53.5 332H61.5" stroke="#304436" stroke-width="2" stroke-linecap="round"/>
<path d="M208 301H216" stroke="#304436" stroke-width="2" stroke-linecap="round"/>
<path d="M53 319H61" stroke="#304436" stroke-width="2" stroke-linecap="round"/>
<path d="M392 295H400" stroke="#304436" stroke-width="2" stroke-linecap="round"/>
<path d="M281 333H289" stroke="#304436" stroke-width="2" stroke-linecap="round"/>
<path d="M217 347H225" stroke="#304436" stroke-width="2" stroke-linecap="round"/>
<path d="M198 345H190" stroke="#304436" stroke-width="2" stroke-linecap="round"/>
<path d="M352.5 314H344.5" stroke="#304436" stroke-width="2" stroke-linecap="round"/>
<path d="M361 300H353" stroke="#304436" stroke-width="2" stroke-linecap="round"/>
<path d="M425.5 346H417.5" stroke="#304436" stroke-width="2" stroke-linecap="round"/>
<path d="M174 329H166" stroke="#304436" stroke-width="2" stroke-linecap="round"/>
<path d="M328.5 298H320.5" stroke="#304436" stroke-width="2" stroke-linecap="round"/>
<path d="M134.5 296H126.5" stroke="#304436" stroke-width="2" stroke-linecap="round"/>
<path d="M401.5 330H393.5" stroke="#304436" stroke-width="2" stroke-linecap="round"/>
<path d="M69.5 343H77.5" stroke="#304436" stroke-width="2" stroke-linecap="round"/>
<path d="M224 312H232" stroke="#304436" stroke-width="2" stroke-linecap="round"/>
<path d="M48 306H56" stroke="#304436" stroke-width="2" stroke-linecap="round"/>
<path d="M408 306H416" stroke="#304436" stroke-width="2" stroke-linecap="round"/>
<path d="M297 344H305" stroke="#304436" stroke-width="2" stroke-linecap="round"/>
<path d="M233 336H241" stroke="#304436" stroke-width="2" stroke-linecap="round"/>
<path d="M117.5 330H125.5" stroke="#304436" stroke-width="2" stroke-linecap="round"/>
<path d="M272 299H280" stroke="#304436" stroke-width="2" stroke-linecap="round"/>
<path d="M78 297H86" stroke="#304436" stroke-width="2" stroke-linecap="round"/>
<path d="M199 316H207" stroke="#304436" stroke-width="2" stroke-linecap="round"/>
<path d="M345 331H353" stroke="#304436" stroke-width="2" stroke-linecap="round"/>
<path d="M134 343H126" stroke="#304436" stroke-width="2" stroke-linecap="round"/>
<path d="M288.5 312H280.5" stroke="#304436" stroke-width="2" stroke-linecap="round"/>
<path d="M94.5 310H86.5" stroke="#304436" stroke-width="2" stroke-linecap="round"/>
<path d="M361.5 344H353.5" stroke="#304436" stroke-width="2" stroke-linecap="round"/>
<path d="M100.5 337H103.5" stroke="#304436" stroke-width="2" stroke-linecap="round"/>
<path d="M255 306H258" stroke="#304436" stroke-width="2" stroke-linecap="round"/>
<path d="M180 319H183" stroke="#304436" stroke-width="2" stroke-linecap="round"/>
<path d="M439 300H442" stroke="#304436" stroke-width="2" stroke-linecap="round"/>
<path d="M374 312H377" stroke="#304436" stroke-width="2" stroke-linecap="round"/>
<path d="M328 338H331" stroke="#304436" stroke-width="2" stroke-linecap="round"/>
<path d="M264 342H267" stroke="#304436" stroke-width="2" stroke-linecap="round"/>
<path d="M151 350H148" stroke="#304436" stroke-width="2" stroke-linecap="round"/>
<path d="M305.5 319H302.5" stroke="#304436" stroke-width="2" stroke-linecap="round"/>
<path d="M171 301H168" stroke="#304436" stroke-width="2" stroke-linecap="round"/>
<path d="M378.5 351H375.5" stroke="#304436" stroke-width="2" stroke-linecap="round"/>
<path d="M71 332L75 332" stroke="#304436" stroke-width="2" stroke-linecap="round"/>
<path d="M225.5 301L229.5 301" stroke="#304436" stroke-width="2" stroke-linecap="round"/>
<path d="M160 319L164 319" stroke="#304436" stroke-width="2" stroke-linecap="round"/>
<path d="M119 317L123 317" stroke="#304436" stroke-width="2" stroke-linecap="round"/>
<path d="M409.5 295L413.5 295" stroke="#304436" stroke-width="2" stroke-linecap="round"/>
<path d="M298.5 333L302.5 333" stroke="#304436" stroke-width="2" stroke-linecap="round"/>
<path d="M234.5 347L238.5 347" stroke="#304436" stroke-width="2" stroke-linecap="round"/>
<path d="M180.5 345L176.5 345" stroke="#304436" stroke-width="2" stroke-linecap="round"/>
<path d="M335 314L331 314" stroke="#304436" stroke-width="2" stroke-linecap="round"/>
<path d="M141 312L137 312" stroke="#304436" stroke-width="2" stroke-linecap="round"/>
<path d="M408 346L404 346" stroke="#304436" stroke-width="2" stroke-linecap="round"/>
<path d="M161.5 329L157.5 329" stroke="#304436" stroke-width="2" stroke-linecap="round"/>
<path d="M316 298L312 298" stroke="#304436" stroke-width="2" stroke-linecap="round"/>
<path d="M122 296L118 296" stroke="#304436" stroke-width="2" stroke-linecap="round"/>
<path d="M389 330L385 330" stroke="#304436" stroke-width="2" stroke-linecap="round"/>
<path d="M87 343L91 343" stroke="#304436" stroke-width="2" stroke-linecap="round"/>
<path d="M241.5 312L245.5 312" stroke="#304436" stroke-width="2" stroke-linecap="round"/>
<path d="M74 320L78 320" stroke="#304436" stroke-width="2" stroke-linecap="round"/>
<path d="M425.5 306L429.5 306" stroke="#304436" stroke-width="2" stroke-linecap="round"/>
<path d="M314.5 344L318.5 344" stroke="#304436" stroke-width="2" stroke-linecap="round"/>
<path d="M250.5 336L254.5 336" stroke="#304436" stroke-width="2" stroke-linecap="round"/>
<path d="M199.641 75H412.641V306H199.641V75Z" fill="#F3E1D1" stroke="#304436" stroke-width="2"/>
<rect x="225.641" y="155" width="186" height="4" fill="#CBB9A9"/>
<rect x="225.641" y="239" width="186" height="4" fill="#CBB9A9"/>
<rect x="225.641" y="70" width="188" height="6" fill="#727B74"/>
<rect x="272.641" y="76" width="167" height="3.99999" transform="rotate(90 272.641 76)" fill="#CBB9A9"/>
<rect x="349.641" y="76" width="167" height="3.99999" transform="rotate(90 349.641 76)" fill="#CBB9A9"/>
<path d="M199.641 86.7959V306H263.468C263.468 306 245.003 289.399 240.044 274.538C230.483 245.887 266.419 241.04 263.468 216.495C261.477 199.937 248.406 194.999 245.087 178.694C242.399 165.489 246.919 157.109 245.048 144.061C243.136 130.727 237.716 119.959 232.576 109.748C229.957 104.545 225.037 91.976 223.065 86.7959C222.215 83.3255 221.706 79.751 221.675 76H199.641V86.7959Z" fill="url(#pattern0_2174_4802)" stroke="#304436" stroke-width="2"/>
<path d="M199.606 157.906H194V151H199.606H204.35H214.269H224.054H234.835H244.826V157.906H234.835H224.054H214.269H204.35H199.606Z" fill="#E2D2C3"/>
<path d="M244.826 157.906H204.35M244.826 157.906H214.269M244.826 157.906V151M244.826 151H204.35M244.826 151H214.269M204.35 151H199.606H194V157.906H199.606H204.35M204.35 151V157.906M204.35 151H214.269M204.35 157.906H214.269M214.269 151V157.906M224.054 151V157.906M234.835 151V157.906" stroke="#304436" stroke-width="2"/>
<path d="M199.606 242.906H194V236H199.606H204.35H214.269H224.054H234.835H245.641H256.141L250.141 242.906H245.641H234.835H224.054H214.269H204.35H199.606Z" fill="#E2D2C3"/>
<path d="M250.141 242.906H204.35M250.141 242.906H214.269M250.141 242.906L256.141 236M256.141 236H204.35M256.141 236H214.269M204.35 236H199.606H194V242.906H199.606H204.35M204.35 236V242.906M204.35 236H214.269M204.35 242.906H214.269M214.269 236V242.906M224.054 236V242.906M234.835 236V242.906M245.641 236V242.906" stroke="#304436" stroke-width="2"/>
<path d="M195.591 76.2018H199.473H259.417V70.1586H195.591V76.2018Z" fill="#E2D2C3" stroke="#304436" stroke-width="2"/>
<path d="M230.134 17.4965L202.965 70.1585H416L389 17.4965H230.134Z" fill="#858181" stroke="#304436" stroke-width="2"/>
<path d="M236.313 19.9507L242.781 16.8304L255.719 10.5899L275.126 19.9507V70.1585H242.781H236.313V19.9507Z" fill="#F3E1D1" stroke="#274430" stroke-width="2"/>
<g clip-path="url(#clip0_2174_4802)">
<rect x="241.488" y="21.813" width="28.4629" height="46.6189" rx="2" fill="#93D3F6"/>
<path d="M241.488 42.2087L259.003 21.813H269.951L241.488 56.7771V42.2087Z" fill="white" fill-opacity="0.3"/>
<path d="M242.582 68.4318L269.951 35.4102V41.2375L246.961 68.4318H242.582Z" fill="white" fill-opacity="0.3"/>
<rect x="241.488" y="21.813" width="28.4629" height="7.76981" fill="#565656" fill-opacity="0.3"/>
</g>
<rect x="241.488" y="21.813" width="28.4629" height="46.6189" rx="2" stroke="#274430" stroke-width="2"/>
<path fill-rule="evenodd" clip-rule="evenodd" d="M255.288 70.1585L255.288 21.813L257.013 21.813L257.013 70.1585L255.288 70.1585Z" fill="#304436"/>
<path fill-rule="evenodd" clip-rule="evenodd" d="M269.951 45.9857L241.488 45.9857L241.488 44.2591L269.951 44.2591L269.951 45.9857Z" fill="#304436"/>
<rect x="233.725" y="66.7052" width="43.9881" height="3.45325" rx="1.72662" fill="#F3E1D1" stroke="#274430" stroke-width="2"/>
<g filter="url(#filter0_d_2174_4802)">
<rect x="358" y="73" width="124" height="19" fill="white" shape-rendering="crispEdges"/>
<rect x="358.5" y="73.5" width="123" height="18" stroke="#304436" shape-rendering="crispEdges"/>
<path d="M361.442 89V79.2H364.676C366.832 79.2 368.148 80.306 368.148 82.126C368.148 83.932 366.832 85.038 364.676 85.038H363.43V89H361.442ZM364.76 80.852H363.43V83.386H364.76C365.6 83.386 366.104 82.896 366.104 82.098C366.104 81.356 365.6 80.852 364.76 80.852ZM371.269 89.21C369.855 89.21 368.889 88.398 368.889 87.096C368.889 86.032 369.715 85.234 371.227 84.982L373.383 84.618V84.436C373.383 83.694 372.823 83.218 372.011 83.218C371.325 83.218 370.793 83.54 370.415 84.058L369.113 83.064C369.743 82.196 370.779 81.664 372.067 81.664C374.111 81.664 375.161 82.882 375.161 84.436V89H373.383V88.314C372.935 88.86 372.095 89.21 371.269 89.21ZM370.653 87.012C370.653 87.488 371.031 87.796 371.633 87.796C372.445 87.796 373.033 87.418 373.383 86.858V85.864L371.703 86.144C370.961 86.27 370.653 86.578 370.653 87.012ZM377.197 89V81.944H378.975V82.504C379.465 82.028 380.123 81.664 381.061 81.664C382.587 81.664 383.805 82.714 383.805 84.8V89H382.013V84.87C382.013 83.932 381.481 83.344 380.613 83.344C379.717 83.344 379.241 83.946 378.975 84.394V89H377.197ZM385.824 89V81.944H387.602V82.504C388.092 82.028 388.75 81.664 389.688 81.664C391.214 81.664 392.432 82.714 392.432 84.8V89H390.64V84.87C390.64 83.932 390.108 83.344 389.24 83.344C388.344 83.344 387.868 83.946 387.602 84.394V89H385.824ZM400.947 87.852C400.289 88.734 399.197 89.28 397.867 89.28C395.361 89.28 393.947 87.53 393.947 85.472C393.947 83.386 395.263 81.664 397.573 81.664C399.533 81.664 400.821 82.994 400.821 84.842C400.821 85.234 400.765 85.598 400.709 85.836H395.767C395.935 87.152 396.747 87.684 397.853 87.684C398.623 87.684 399.295 87.348 399.673 86.844L400.947 87.852ZM397.531 83.12C396.621 83.12 396.019 83.624 395.823 84.548H399.071C399.043 83.834 398.525 83.12 397.531 83.12ZM404.45 89.21C403.036 89.21 402.07 88.398 402.07 87.096C402.07 86.032 402.896 85.234 404.408 84.982L406.564 84.618V84.436C406.564 83.694 406.004 83.218 405.192 83.218C404.506 83.218 403.974 83.54 403.596 84.058L402.294 83.064C402.924 82.196 403.96 81.664 405.248 81.664C407.292 81.664 408.342 82.882 408.342 84.436V89H406.564V88.314C406.116 88.86 405.276 89.21 404.45 89.21ZM403.834 87.012C403.834 87.488 404.212 87.796 404.814 87.796C405.626 87.796 406.214 87.418 406.564 86.858V85.864L404.884 86.144C404.142 86.27 403.834 86.578 403.834 87.012ZM415.026 85.948V81.944H416.818V85.864C416.818 87.978 415.586 89.28 413.514 89.28C411.442 89.28 410.224 87.978 410.224 85.864V81.944H412.016V85.948C412.016 86.97 412.548 87.6 413.528 87.6C414.494 87.6 415.026 86.97 415.026 85.948ZM419.856 89H417.812L420.304 85.374L417.952 81.944H419.982L421.438 84.114L422.894 81.944H424.938L422.572 85.374L425.064 89H423.034L421.438 86.634L419.856 89ZM429.573 87.978L430.749 86.914C431.183 87.46 431.701 87.852 432.373 87.852C432.947 87.852 433.241 87.516 433.241 87.096C433.241 85.864 429.867 86.326 429.867 83.848C429.867 82.602 430.917 81.664 432.387 81.664C433.465 81.664 434.445 82.182 434.949 82.868L433.773 83.904C433.409 83.456 432.947 83.092 432.401 83.092C431.841 83.092 431.575 83.4 431.575 83.764C431.575 84.968 434.949 84.548 434.949 86.984C434.921 88.468 433.731 89.28 432.401 89.28C431.141 89.28 430.245 88.776 429.573 87.978ZM439.92 81.664C442.216 81.664 443.784 83.358 443.784 85.472C443.784 87.586 442.216 89.28 439.92 89.28C437.624 89.28 436.056 87.586 436.056 85.472C436.056 83.358 437.624 81.664 439.92 81.664ZM439.948 87.6C441.082 87.6 441.936 86.69 441.936 85.472C441.936 84.24 441.082 83.344 439.948 83.344C438.772 83.344 437.904 84.24 437.904 85.472C437.904 86.704 438.772 87.6 439.948 87.6ZM445.406 89V78.5H447.184V89H445.406ZM451.304 89.21C449.89 89.21 448.924 88.398 448.924 87.096C448.924 86.032 449.75 85.234 451.262 84.982L453.418 84.618V84.436C453.418 83.694 452.858 83.218 452.046 83.218C451.36 83.218 450.828 83.54 450.45 84.058L449.148 83.064C449.778 82.196 450.814 81.664 452.102 81.664C454.146 81.664 455.196 82.882 455.196 84.436V89H453.418V88.314C452.97 88.86 452.13 89.21 451.304 89.21ZM450.688 87.012C450.688 87.488 451.066 87.796 451.668 87.796C452.48 87.796 453.068 87.418 453.418 86.858V85.864L451.738 86.144C450.996 86.27 450.688 86.578 450.688 87.012ZM458.128 80.712C457.498 80.712 456.966 80.18 456.966 79.55C456.966 78.92 457.498 78.388 458.128 78.388C458.758 78.388 459.276 78.92 459.276 79.55C459.276 80.18 458.758 80.712 458.128 80.712ZM457.232 89V81.944H459.01V89H457.232ZM461.142 89V81.944H462.92V82.644C463.382 82.168 463.984 81.804 464.782 81.804C465.02 81.804 465.23 81.846 465.398 81.902V83.652C465.174 83.596 464.936 83.554 464.614 83.554C463.746 83.554 463.186 84.03 462.92 84.478V89H461.142ZM473.025 87.852C472.367 88.734 471.275 89.28 469.945 89.28C467.439 89.28 466.025 87.53 466.025 85.472C466.025 83.386 467.341 81.664 469.651 81.664C471.611 81.664 472.899 82.994 472.899 84.842C472.899 85.234 472.843 85.598 472.787 85.836H467.845C468.013 87.152 468.825 87.684 469.931 87.684C470.701 87.684 471.373 87.348 471.751 86.844L473.025 87.852ZM469.609 83.12C468.699 83.12 468.097 83.624 467.901 84.548H471.149C471.121 83.834 470.603 83.12 469.609 83.12ZM473.925 87.978L475.101 86.914C475.535 87.46 476.053 87.852 476.725 87.852C477.299 87.852 477.593 87.516 477.593 87.096C477.593 85.864 474.219 86.326 474.219 83.848C474.219 82.602 475.269 81.664 476.739 81.664C477.817 81.664 478.797 82.182 479.301 82.868L478.125 83.904C477.761 83.456 477.299 83.092 476.753 83.092C476.193 83.092 475.927 83.4 475.927 83.764C475.927 84.968 479.301 84.548 479.301 86.984C479.273 88.468 478.083 89.28 476.753 89.28C475.493 89.28 474.597 88.776 473.925 87.978Z" fill="#304436"/>
</g>
<path d="M203.912 299V290H205.436V299H203.912ZM210.144 292.712C212.112 292.712 213.456 294.164 213.456 295.976C213.456 297.788 212.112 299.24 210.144 299.24C208.176 299.24 206.832 297.788 206.832 295.976C206.832 294.164 208.176 292.712 210.144 292.712ZM210.168 297.8C211.14 297.8 211.872 297.02 211.872 295.976C211.872 294.92 211.14 294.152 210.168 294.152C209.16 294.152 208.416 294.92 208.416 295.976C208.416 297.032 209.16 297.8 210.168 297.8ZM217.808 297.8C218.408 297.8 218.888 297.524 219.176 297.104L220.364 298.016C219.8 298.76 218.912 299.24 217.808 299.24C215.72 299.24 214.472 297.74 214.472 295.976C214.472 294.212 215.72 292.712 217.808 292.712C218.912 292.712 219.8 293.192 220.364 293.936L219.176 294.848C218.888 294.428 218.408 294.152 217.784 294.152C216.788 294.152 216.056 294.92 216.056 295.976C216.056 297.044 216.788 297.8 217.808 297.8ZM223.1 299.18C221.888 299.18 221.06 298.484 221.06 297.368C221.06 296.456 221.768 295.772 223.064 295.556L224.912 295.244V295.088C224.912 294.452 224.432 294.044 223.736 294.044C223.148 294.044 222.692 294.32 222.368 294.764L221.252 293.912C221.792 293.168 222.68 292.712 223.784 292.712C225.536 292.712 226.436 293.756 226.436 295.088V299H224.912V298.412C224.528 298.88 223.808 299.18 223.1 299.18ZM222.572 297.296C222.572 297.704 222.896 297.968 223.412 297.968C224.108 297.968 224.612 297.644 224.912 297.164V296.312L223.472 296.552C222.836 296.66 222.572 296.924 222.572 297.296ZM228.182 299V290H229.706V299H228.182Z" fill="#535F57"/>
<g filter="url(#filter1_d_2174_4802)">
<rect x="315" y="311" width="121" height="20" fill="white" shape-rendering="crispEdges"/>
<rect x="315.5" y="311.5" width="120" height="19" stroke="#304436" shape-rendering="crispEdges"/>
<path d="M318.236 326.5V318.1H320.708C322.46 318.1 323.528 318.964 323.528 320.38C323.528 321.064 323.216 321.652 322.628 322.036C323.516 322.432 324.008 323.152 324.008 324.028C324.008 325.564 322.82 326.5 320.888 326.5H318.236ZM320.744 319.516H319.94V321.412H320.744C321.392 321.412 321.776 321.064 321.776 320.452C321.776 319.864 321.392 319.516 320.744 319.516ZM320.984 322.828H319.94V325.084H320.984C321.776 325.084 322.256 324.664 322.256 323.956C322.256 323.236 321.776 322.828 320.984 322.828ZM327.257 326.68C326.045 326.68 325.217 325.984 325.217 324.868C325.217 323.956 325.925 323.272 327.221 323.056L329.069 322.744V322.588C329.069 321.952 328.589 321.544 327.893 321.544C327.305 321.544 326.849 321.82 326.525 322.264L325.409 321.412C325.949 320.668 326.837 320.212 327.941 320.212C329.693 320.212 330.593 321.256 330.593 322.588V326.5H329.069V325.912C328.685 326.38 327.965 326.68 327.257 326.68ZM326.729 324.796C326.729 325.204 327.053 325.468 327.569 325.468C328.265 325.468 328.769 325.144 329.069 324.664V323.812L327.629 324.052C326.993 324.16 326.729 324.424 326.729 324.796ZM332.338 326.5V317.5H333.862V326.5H332.338ZM335.689 326.5V317.5H337.213V326.5H335.689ZM341.921 320.212C343.889 320.212 345.233 321.664 345.233 323.476C345.233 325.288 343.889 326.74 341.921 326.74C339.953 326.74 338.609 325.288 338.609 323.476C338.609 321.664 339.953 320.212 341.921 320.212ZM341.945 325.3C342.917 325.3 343.649 324.52 343.649 323.476C343.649 322.42 342.917 321.652 341.945 321.652C340.937 321.652 340.193 322.42 340.193 323.476C340.193 324.532 340.937 325.3 341.945 325.3ZM346.623 326.5V320.452H348.147V320.932C348.567 320.524 349.131 320.212 349.935 320.212C351.243 320.212 352.287 321.112 352.287 322.9V326.5H350.751V322.96C350.751 322.156 350.295 321.652 349.551 321.652C348.783 321.652 348.375 322.168 348.147 322.552V326.5H346.623ZM356.82 323.476C356.82 321.712 357.984 320.212 359.892 320.212C360.708 320.212 361.296 320.464 361.764 320.932V317.5H363.3V326.5H361.764V326.02C361.296 326.488 360.708 326.74 359.892 326.74C357.984 326.74 356.82 325.24 356.82 323.476ZM358.416 323.476C358.416 324.532 359.076 325.3 360.108 325.3C360.792 325.3 361.356 325.012 361.764 324.46V322.492C361.356 321.94 360.792 321.652 360.108 321.652C359.076 321.652 358.416 322.42 358.416 323.476ZM365.941 321.556H364.525L365.605 318.1H367.333L365.941 321.556ZM373.425 325.516C372.861 326.272 371.925 326.74 370.785 326.74C368.637 326.74 367.425 325.24 367.425 323.476C367.425 321.688 368.553 320.212 370.533 320.212C372.213 320.212 373.317 321.352 373.317 322.936C373.317 323.272 373.269 323.584 373.221 323.788H368.985C369.129 324.916 369.825 325.372 370.773 325.372C371.433 325.372 372.009 325.084 372.333 324.652L373.425 325.516ZM370.497 321.46C369.717 321.46 369.201 321.892 369.033 322.684H371.817C371.793 322.072 371.349 321.46 370.497 321.46ZM376.429 326.68C375.217 326.68 374.389 325.984 374.389 324.868C374.389 323.956 375.097 323.272 376.393 323.056L378.241 322.744V322.588C378.241 321.952 377.761 321.544 377.065 321.544C376.477 321.544 376.021 321.82 375.697 322.264L374.581 321.412C375.121 320.668 376.009 320.212 377.113 320.212C378.865 320.212 379.765 321.256 379.765 322.588V326.5H378.241V325.912C377.857 326.38 377.137 326.68 376.429 326.68ZM375.901 324.796C375.901 325.204 376.225 325.468 376.741 325.468C377.437 325.468 377.941 325.144 378.241 324.664V323.812L376.801 324.052C376.165 324.16 375.901 324.424 375.901 324.796ZM385.494 323.884V320.452H387.03V323.812C387.03 325.624 385.974 326.74 384.198 326.74C382.422 326.74 381.378 325.624 381.378 323.812V320.452H382.914V323.884C382.914 324.76 383.37 325.3 384.21 325.3C385.038 325.3 385.494 324.76 385.494 323.884ZM394.855 325.3C395.455 325.3 395.935 325.024 396.223 324.604L397.411 325.516C396.847 326.26 395.959 326.74 394.855 326.74C392.767 326.74 391.519 325.24 391.519 323.476C391.519 321.712 392.767 320.212 394.855 320.212C395.959 320.212 396.847 320.692 397.411 321.436L396.223 322.348C395.935 321.928 395.455 321.652 394.831 321.652C393.835 321.652 393.103 322.42 393.103 323.476C393.103 324.544 393.835 325.3 394.855 325.3ZM398.549 326.5V317.5H400.073V320.932C400.493 320.524 401.057 320.212 401.861 320.212C403.169 320.212 404.213 321.112 404.213 322.9V326.5H402.677V322.96C402.677 322.156 402.233 321.652 401.477 321.652C400.709 321.652 400.301 322.168 400.073 322.552V326.5H398.549ZM407.647 326.68C406.435 326.68 405.607 325.984 405.607 324.868C405.607 323.956 406.315 323.272 407.611 323.056L409.459 322.744V322.588C409.459 321.952 408.979 321.544 408.283 321.544C407.695 321.544 407.239 321.82 406.915 322.264L405.799 321.412C406.339 320.668 407.227 320.212 408.331 320.212C410.083 320.212 410.983 321.256 410.983 322.588V326.5H409.459V325.912C409.075 326.38 408.355 326.68 407.647 326.68ZM407.119 324.796C407.119 325.204 407.443 325.468 407.959 325.468C408.655 325.468 409.159 325.144 409.459 324.664V323.812L408.019 324.052C407.383 324.16 407.119 324.424 407.119 324.796ZM416.712 323.884V320.452H418.248V323.812C418.248 325.624 417.192 326.74 415.416 326.74C413.64 326.74 412.596 325.624 412.596 323.812V320.452H414.132V323.884C414.132 324.76 414.588 325.3 415.428 325.3C416.256 325.3 416.712 324.76 416.712 323.884ZM419.503 323.476C419.503 321.712 420.667 320.212 422.575 320.212C423.391 320.212 423.979 320.464 424.447 320.932V317.5H425.983V326.5H424.447V326.02C423.979 326.488 423.391 326.74 422.575 326.74C420.667 326.74 419.503 325.24 419.503 323.476ZM421.099 323.476C421.099 324.532 421.759 325.3 422.791 325.3C423.475 325.3 424.039 325.012 424.447 324.46V322.492C424.039 321.94 423.475 321.652 422.791 321.652C421.759 321.652 421.099 322.42 421.099 323.476ZM433.378 325.516C432.814 326.272 431.878 326.74 430.738 326.74C428.59 326.74 427.378 325.24 427.378 323.476C427.378 321.688 428.506 320.212 430.486 320.212C432.166 320.212 433.27 321.352 433.27 322.936C433.27 323.272 433.222 323.584 433.174 323.788H428.938C429.082 324.916 429.778 325.372 430.726 325.372C431.386 325.372 431.962 325.084 432.286 324.652L433.378 325.516ZM430.45 321.46C429.67 321.46 429.154 321.892 428.986 322.684H431.77C431.746 322.072 431.302 321.46 430.45 321.46Z" fill="#304436"/>
</g>
<path d="M340.711 267H341M325 61.5H341L341 140.5L341 226.5L341 267M357.5 256.5H350.5V234M355 147.5H350.5V226.5V234M350.5 234H355M341 267H357.5" stroke="#465FB1" stroke-width="2" stroke-linecap="round" stroke-linejoin="round"/>
<path d="M367.411 203.681L368.641 204.91" stroke="#304436" stroke-linecap="round"/>
<path d="M365.567 205.525L367.616 207.575" stroke="#304436" stroke-linecap="round"/>
<path d="M363.722 207.37L365.772 209.419" stroke="#304436" stroke-linecap="round"/>
<path d="M361.878 209.215L363.107 210.444" stroke="#304436" stroke-linecap="round"/>
<path d="M357.641 200H354.641V239H357.641L357.641 202.5L357.641 200Z" fill="white"/>
<path d="M357.641 202.5L357.641 239H354.641V200H357.641L357.641 202.5ZM357.641 202.5L360.641 204" stroke="#304436"/>
<path d="M366.762 202.506C366.762 202.506 364.256 200 361.035 203.221C357.813 206.443 360.319 208.948 360.319 208.948L366.762 202.506Z" fill="white" stroke="#304436"/>
<path d="M367.411 119.681L368.641 120.91" stroke="#304436" stroke-linecap="round"/>
<path d="M365.567 121.525L367.616 123.575" stroke="#304436" stroke-linecap="round"/>
<path d="M363.722 123.37L365.772 125.419" stroke="#304436" stroke-linecap="round"/>
<path d="M361.878 125.215L363.107 126.444" stroke="#304436" stroke-linecap="round"/>
<path d="M357.641 116H354.641V155H357.641L357.641 118.5L357.641 116Z" fill="white"/>
<path d="M357.641 118.5L357.641 155H354.641V116H357.641L357.641 118.5ZM357.641 118.5L360.641 120" stroke="#304436"/>
<path d="M366.762 118.506C366.762 118.506 364.256 116 361.035 119.221C357.813 122.443 360.319 124.948 360.319 124.948L366.762 118.506Z" fill="white" stroke="#304436"/>
<path d="M356.377 252.377C356.377 250.168 358.168 248.377 360.377 248.377L375.254 248.377L390.624 248.377C392.833 248.377 394.624 250.168 394.624 252.377V294.798C394.624 297.007 392.833 298.798 390.624 298.798H360.377C358.168 298.798 356.377 297.007 356.377 294.798V252.377Z" fill="white" stroke="#274430"/>
<path d="M389.628 248.377L392.042 248.377C393.411 248.377 394.52 249.486 394.52 250.854V294.798C394.52 297.007 392.729 298.798 390.52 298.798H389.628V248.377Z" fill="#565656" fill-opacity="0.3"/>
<ellipse cx="375.5" cy="260.466" rx="6.37448" ry="6.33956" fill="#304436" stroke="#274430" stroke-width="2"/>
<path d="M375.5 256.662L376.464 260.498C376.622 261.125 376.147 261.734 375.5 261.734C374.852 261.734 374.378 261.125 374.536 260.498L375.5 256.662Z" fill="white"/>
<ellipse cx="375.5" cy="286.119" rx="5.09959" ry="5.07165" fill="#304436" stroke="#274430" stroke-width="2"/>
<ellipse cx="375.5" cy="286.119" rx="2.54979" ry="2.53583" fill="white" fill-opacity="0.3"/>
<path d="M361.269 298.798H389.731V300.337C389.731 301.441 388.836 302.337 387.731 302.337H363.269C362.164 302.337 361.269 301.441 361.269 300.337V298.798Z" fill="white" stroke="#274430"/>
<rect width="1.27315" height="5.65883" transform="matrix(0.867211 -0.497941 0.502061 0.864832 373.588 283.9)" fill="white"/>
<path d="M389.287 299.241H387.268C386.882 299.241 386.501 299.296 386.13 299.403C385.17 299.681 383.166 300.247 381.726 300.568C378.131 301.368 372.387 301.894 372.387 301.894H389.287V299.241Z" fill="#565656" fill-opacity="0.3"/>
<g clip-path="url(#clip1_2174_4802)">
<path fill-rule="evenodd" clip-rule="evenodd" d="M288 65.3571C288 66.2645 288.746 67 289.667 67L319.667 67C320.587 67 321.333 66.2645 321.333 65.3571L321.333 22.6429C321.333 21.7355 320.587 21 319.667 21L289.667 21C288.746 21 288 21.7355 288 22.6429L288 65.3571Z" fill="#115980" stroke="#304436" stroke-width="2"/>
</g>
<path fill-rule="evenodd" clip-rule="evenodd" d="M311.605 21.807L311.605 66.193L309.977 66.193L309.977 21.807L311.605 21.807Z" fill="#304436"/>
<path fill-rule="evenodd" clip-rule="evenodd" d="M299.395 21.807L299.395 66.193L297.767 66.193L297.767 21.807L299.395 21.807Z" fill="#304436"/>
<path d="M289 47.4167L307.462 22H319C307.284 33.3252 300.716 48.1748 289 59.5V47.4167Z" fill="white" fill-opacity="0.3"/>
<path d="M291 66L320.5 27.0588V32L295.64 66H291Z" fill="white" fill-opacity="0.3"/>
<g clip-path="url(#clip2_2174_4802)">
<path fill-rule="evenodd" clip-rule="evenodd" d="M325 65.3571C325 66.2645 325.746 67 326.667 67L356.667 67C357.587 67 358.333 66.2645 358.333 65.3571L358.333 22.6429C358.333 21.7355 357.587 21 356.667 21L326.667 21C325.746 21 325 21.7355 325 22.6429L325 65.3571Z" fill="#115980" stroke="#304436" stroke-width="2"/>
</g>
<path fill-rule="evenodd" clip-rule="evenodd" d="M348.605 21.807L348.605 66.193L346.977 66.193L346.977 21.807L348.605 21.807Z" fill="#304436"/>
<path fill-rule="evenodd" clip-rule="evenodd" d="M336.395 21.807L336.395 66.193L334.767 66.193L334.767 21.807L336.395 21.807Z" fill="#304436"/>
<path d="M326 47.4167L344.462 22H356C344.284 33.3252 337.716 48.1748 326 59.5V47.4167Z" fill="white" fill-opacity="0.3"/>
<path d="M328 66L357.5 27.0588V32L332.64 66H328Z" fill="white" fill-opacity="0.3"/>
<g clip-path="url(#clip3_2174_4802)">
<path fill-rule="evenodd" clip-rule="evenodd" d="M362 65.3571C362 66.2645 362.597 67 363.333 67L387.333 67C388.07 67 388.667 66.2645 388.667 65.3571L388.667 22.6429C388.667 21.7355 388.07 21 387.333 21L363.333 21C362.597 21 362 21.7355 362 22.6429L362 65.3571Z" fill="#115980" stroke="#304436" stroke-width="2"/>
</g>
<path fill-rule="evenodd" clip-rule="evenodd" d="M380.884 21.807L380.884 66.193L379.581 66.193L379.581 21.807L380.884 21.807Z" fill="#304436"/>
<path fill-rule="evenodd" clip-rule="evenodd" d="M371.116 21.807L371.116 66.193L369.814 66.193L369.814 21.807L371.116 21.807Z" fill="#304436"/>
<path d="M362.8 47.4167L377.569 22L386.8 22C377.427 33.3252 372.173 48.1748 362.8 59.5L362.8 47.4167Z" fill="white" fill-opacity="0.3"/>
<path d="M364.4 66L388 27.0588L388 32L368.112 66L364.4 66Z" fill="white" fill-opacity="0.3"/>
<defs>
<filter id="filter0_d_2174_4802" x="358" y="73" width="125" height="20" filterUnits="userSpaceOnUse" color-interpolation-filters="sRGB">
<feFlood flood-opacity="0" result="BackgroundImageFix"/>
<feColorMatrix in="SourceAlpha" type="matrix" values="0 0 0 0 0 0 0 0 0 0 0 0 0 0 0 0 0 0 127 0" result="hardAlpha"/>
<feOffset dx="1" dy="1"/>
<feComposite in2="hardAlpha" operator="out"/>
<feColorMatrix type="matrix" values="0 0 0 0 0.188235 0 0 0 0 0.266667 0 0 0 0 0.211765 0 0 0 1 0"/>
<feBlend mode="normal" in2="BackgroundImageFix" result="effect1_dropShadow_2174_4802"/>
<feBlend mode="normal" in="SourceGraphic" in2="effect1_dropShadow_2174_4802" result="shape"/>
</filter>
<filter id="filter1_d_2174_4802" x="315" y="311" width="122" height="21" filterUnits="userSpaceOnUse" color-interpolation-filters="sRGB">
<feFlood flood-opacity="0" result="BackgroundImageFix"/>
<feColorMatrix in="SourceAlpha" type="matrix" values="0 0 0 0 0 0 0 0 0 0 0 0 0 0 0 0 0 0 127 0" result="hardAlpha"/>
<feOffset dx="1" dy="1"/>
<feComposite in2="hardAlpha" operator="out"/>
<feColorMatrix type="matrix" values="0 0 0 0 0.188235 0 0 0 0 0.266667 0 0 0 0 0.211765 0 0 0 1 0"/>
<feBlend mode="normal" in2="BackgroundImageFix" result="effect1_dropShadow_2174_4802"/>
<feBlend mode="normal" in="SourceGraphic" in2="effect1_dropShadow_2174_4802" result="shape"/>
</filter>
<clipPath id="clip0_2174_4802">
<rect x="241.488" y="21.813" width="28.4629" height="46.6189" rx="2" fill="white"/>
</clipPath>
<clipPath id="clip1_2174_4802">
<rect x="284.667" y="70.2857" width="52.5714" height="40" rx="1" transform="rotate(-90 284.667 70.2857)" fill="white"/>
</clipPath>
<clipPath id="clip2_2174_4802">
<rect x="321.667" y="70.2857" width="52.5714" height="40" rx="1" transform="rotate(-90 321.667 70.2857)" fill="white"/>
</clipPath>
<clipPath id="clip3_2174_4802">
<rect x="359.333" y="70.2857" width="52.5714" height="32" rx="1" transform="rotate(-90 359.333 70.2857)" fill="white"/>
</clipPath>
<pattern id="pattern0_2174_4802" patternUnits="userSpaceOnUse" patternTransform="matrix(17 0 0 14 199.141 75.5)" preserveAspectRatio="none" viewBox="-0.5 -0.5 17 14" width="1" height="1">
<use xlink:href="#pattern0_2174_4802_inner" transform="translate(-25.5 -7)"/>
<use xlink:href="#pattern0_2174_4802_inner" transform="translate(-8.5 -7)"/>
<use xlink:href="#pattern0_2174_4802_inner" transform="translate(8.5 -7)"/>
<use xlink:href="#pattern0_2174_4802_inner" transform="translate(-34 0)"/>
<use xlink:href="#pattern0_2174_4802_inner" transform="translate(-17 0)"/>
<g id="pattern0_2174_4802_inner">
<rect width="17" height="7" fill="#F3E1D1" stroke="white"/>
</g>
<use xlink:href="#pattern0_2174_4802_inner" transform="translate(-25.5 7)"/>
<use xlink:href="#pattern0_2174_4802_inner" transform="translate(-8.5 7)"/>
<use xlink:href="#pattern0_2174_4802_inner" transform="translate(8.5 7)"/>
</pattern></defs>
</svg>
