<svg width="40" height="40" viewBox="0 0 40 40" fill="none" xmlns="http://www.w3.org/2000/svg">
<path d="M23.1429 20.5714L24.8572 21.7143L18.0357 22.9653L17.7143 21.1429L17.4286 19.4286L23.1429 20.5714Z" fill="#565656" fill-opacity="0.3"/>
<path d="M34.8004 16.5447C34.4733 18.5883 32.6853 21.48 32.6853 21.48L21.0522 19.7174C21.0522 19.7174 25.6493 19.096 27.045 16.8972C28.2159 15.0526 29.8651 11.0508 29.8651 11.0508L34.0953 11.6095C34.0953 11.6095 35.1034 14.6513 34.8004 16.5447Z" fill="#565656" fill-opacity="0.3"/>
<path d="M16.4694 19.3614L18 28.8571C18 28.8571 16.4242 28.5267 15.1429 28L14.0018 19.0089L16.4694 19.3614Z" fill="#565656" fill-opacity="0.3"/>
<path d="M12.2246 6.80781C13.1299 6.7845 14.0316 6.85089 14.7838 7.70737C15.0069 7.96146 15.149 8.29157 15.2425 8.59688C15.3202 8.5727 15.4034 8.56409 15.4869 8.57511L34.1699 11.0427C34.3869 11.0714 34.5686 11.2217 34.6376 11.4295L34.6381 11.4311L34.6387 11.4334C34.6393 11.4352 34.6405 11.4375 34.6415 11.4406C34.6436 11.4472 34.6465 11.4569 34.6504 11.4691C34.6583 11.4935 34.6698 11.5292 34.6839 11.5746C34.712 11.6651 34.7516 11.7955 34.7977 11.9574C34.8901 12.281 35.0099 12.7332 35.1203 13.247C35.3363 14.253 35.5341 15.5761 35.3647 16.6348C35.1865 17.748 34.6231 19.048 34.1314 20.0338C33.8817 20.5346 33.6429 20.9695 33.4663 21.2794C33.3779 21.4343 33.3049 21.5584 33.2537 21.6443C33.2281 21.6872 33.2079 21.7207 33.1939 21.7436C33.187 21.7551 33.1815 21.7643 33.1778 21.7704C33.1759 21.7735 33.1743 21.776 33.1733 21.7777L33.1716 21.7794L33.1711 21.7805C33.0508 21.9748 32.8262 22.0789 32.6002 22.045L25.7285 21.0137L29.113 23.156C29.2829 23.2636 29.3838 23.4528 29.3787 23.6538V23.6588C29.3786 23.6614 29.3782 23.6649 29.3781 23.6694C29.3778 23.6787 29.3776 23.6921 29.377 23.709C29.3757 23.7429 29.3735 23.7919 29.3703 23.8541C29.3638 23.9787 29.3526 24.1569 29.334 24.3759C29.2968 24.8133 29.2296 25.4172 29.1086 26.0813C28.8726 27.3756 28.4112 29.0289 27.4679 30.0667C26.6708 30.9438 26.0452 31.6392 24.7269 31.9964C23.988 32.1966 23.0813 32.0824 22.4272 31.9512C22.087 31.883 21.7878 31.8042 21.5734 31.7425C21.4659 31.7116 21.3786 31.6849 21.3178 31.6655C21.2875 31.6558 21.2637 31.6477 21.247 31.6421C21.2386 31.6393 21.2316 31.637 21.2269 31.6354C21.2246 31.6346 21.2227 31.6342 21.2213 31.6337L21.2196 31.6331L21.2191 31.6326C21.159 31.6119 21.1022 31.5814 21.0522 31.5422L18.5321 29.5679L13.2246 32.5534C13.054 32.6494 12.8457 32.6512 12.6733 32.5584L8.09071 30.0907C7.93685 30.0079 7.82926 29.8594 7.79885 29.6873L4.62642 11.709C4.62065 11.6763 4.61751 11.6429 4.61749 11.6097V10.5517C4.61753 10.4644 4.63761 10.3783 4.67609 10.3L4.67664 10.2994V10.2983L4.67776 10.2967C4.67852 10.2951 4.67932 10.293 4.68055 10.2905C4.68302 10.2856 4.68683 10.2789 4.69115 10.2704C4.69977 10.2535 4.71173 10.2297 4.72743 10.2001C4.75894 10.1407 4.80488 10.0572 4.86303 9.95737C4.9788 9.75854 5.14724 9.48911 5.35689 9.21183C5.56496 8.93667 5.82424 8.63909 6.12419 8.39431C6.42056 8.15248 6.79256 7.93241 7.22296 7.87087C7.87813 7.77728 8.34978 8.07303 8.66046 8.26652C8.99841 8.47699 9.16778 8.57672 9.40432 8.57065C9.76926 8.56125 9.99438 8.3445 10.4004 7.88315C10.7553 7.47993 11.2913 6.83186 12.2246 6.80781ZM12.1225 28.0321C11.854 27.9761 11.523 28.0253 11.1381 28.1834C10.7572 28.3398 10.3686 28.5844 10.0115 28.8541C9.74422 29.056 9.50328 29.2648 9.30667 29.4473L12.9378 31.4027L16.2776 29.5249C15.8255 29.4064 15.3199 29.2519 14.8424 29.0556C13.8635 28.6532 13.0254 28.2206 12.1225 28.0321ZM27.6923 24.6644C26.96 24.9705 26.1486 25.3716 25.6504 25.7911C25.4379 25.9701 25.3522 26.233 25.2615 26.7442C25.1797 27.205 25.0952 27.8798 24.7051 28.4842C24.1567 29.3337 23.4116 30.1013 22.8189 30.6471C22.7576 30.7036 22.6972 30.7574 22.639 30.8093C22.6335 30.8142 22.628 30.8191 22.6225 30.824C22.6324 30.826 22.6421 30.8287 22.6521 30.8307C23.2834 30.9573 23.9634 31.019 24.4278 30.8932C25.3954 30.631 25.8261 30.1734 26.622 29.2978C27.332 28.5165 27.7522 27.1482 27.9841 25.8759C28.0804 25.3477 28.1393 24.858 28.1766 24.4702C28.0271 24.5276 27.8634 24.5928 27.6923 24.6644ZM19.1086 28.5673L21.4021 30.3642C21.5732 30.2236 21.7974 30.0341 22.0449 29.8061C22.6069 29.2886 23.272 28.597 23.7447 27.8647C23.9825 27.4963 24.0396 27.0873 24.1359 26.5444C24.2233 26.0519 24.3521 25.3906 24.9144 24.9172C25.5552 24.3776 26.5065 23.9213 27.252 23.6097C27.3437 23.5714 27.4333 23.5349 27.5198 23.5003L22.9199 20.5891L17.5271 19.5997L19.1086 28.5673ZM12.2542 7.95067C11.8893 7.96007 11.6642 8.17682 11.2581 8.63817C10.9032 9.04139 10.3672 9.68888 9.4339 9.71295C8.80009 9.72928 8.34259 9.4148 8.05611 9.23639C7.7425 9.04109 7.59148 8.97304 7.38479 9.00257C7.23709 9.02368 7.0554 9.10974 6.84685 9.27991C6.64193 9.44715 6.44479 9.66816 6.26872 9.90101C6.09425 10.1317 5.95084 10.3603 5.85075 10.5321C5.81416 10.595 5.78399 10.6499 5.76035 10.6934V11.5606L8.73635 28.4228C8.91101 28.2686 9.10864 28.1041 9.32285 27.9423C9.72407 27.6392 10.1996 27.333 10.704 27.1259C11.2044 26.9204 11.7801 26.7932 12.3558 26.9133C13.3964 27.1305 14.4191 27.6462 15.2765 27.9987C15.8749 28.2447 16.5451 28.4244 17.0751 28.5433C17.3379 28.6023 17.562 28.6451 17.7196 28.6733C17.739 28.6768 17.7575 28.6798 17.7749 28.6828L17.9518 28.5829L16.3279 19.3792L13.5461 18.8692C13.4207 18.8462 13.3065 18.7821 13.2218 18.6867L13.6493 18.3073C13.2529 18.6589 13.224 18.6849 13.2218 18.6867L13.2213 18.6856L13.2196 18.6839C13.2185 18.6827 13.217 18.681 13.2151 18.6789C13.2112 18.6745 13.2055 18.668 13.1984 18.6599C13.1843 18.6438 13.1641 18.6206 13.1387 18.5907C13.0877 18.5309 13.0155 18.4444 12.9278 18.3363C12.7525 18.1203 12.5146 17.8153 12.2643 17.459C11.7759 16.7641 11.1919 15.8078 10.9785 14.915C10.6452 13.5197 10.9731 12.3898 11.7754 11.2754C12.0698 10.8665 12.4023 10.6457 12.7486 10.5238C12.9113 10.4666 13.0667 10.435 13.1973 10.4122C13.3468 10.3861 13.4259 10.3764 13.5355 10.3541C13.7196 10.3166 13.8328 10.2694 13.9434 10.1549C14.0307 10.0645 14.1422 9.91858 14.2414 9.77768C14.2618 9.74868 14.2797 9.72013 14.2972 9.69453C14.2858 9.585 14.2671 9.43762 14.2358 9.27768C14.1651 8.91582 14.0542 8.6084 13.925 8.46127C13.5281 8.00945 13.0895 7.92917 12.2542 7.95067ZM18.4596 10.1209C18.5257 10.414 18.6258 10.7768 18.7403 11.2152C18.9867 12.1593 19.2836 13.4134 19.1515 14.4987C19.0318 15.483 18.5569 16.6682 18.1409 17.5662C17.983 17.907 17.8272 18.2149 17.6962 18.4685L23.2174 19.4819L32.3887 20.8575C32.4144 20.8131 32.4438 20.7651 32.4735 20.7129C32.6423 20.4168 32.8705 20.0011 33.1086 19.5238C33.5927 18.5529 34.0874 17.3849 34.2364 16.4546C34.3699 15.62 34.2148 14.4752 34.0025 13.4869C33.8987 13.0037 33.7856 12.5768 33.6984 12.271C33.6837 12.2195 33.669 12.1718 33.656 12.1276L18.4596 10.1209ZM15.3552 10.1689C15.3537 10.1713 15.3521 10.1743 15.3502 10.1772C15.3408 10.1917 15.3277 10.2124 15.3111 10.2375C15.2779 10.2878 15.2306 10.3574 15.1755 10.4356C15.0702 10.5853 14.9171 10.7919 14.7654 10.949C14.4338 11.2924 14.07 11.4116 13.7631 11.4741C13.6394 11.4993 13.4818 11.5229 13.3937 11.5383C13.2868 11.557 13.2032 11.5755 13.1281 11.6019C12.9987 11.6474 12.8588 11.7269 12.7029 11.9434C12.0574 12.84 11.8477 13.6345 12.0901 14.6493C12.2499 15.318 12.7231 16.1245 13.199 16.8017C13.4307 17.1314 13.652 17.4149 13.815 17.6159C13.8674 17.6804 13.9144 17.7357 13.9529 17.7816L16.5193 18.2526C16.5327 18.2275 16.5477 18.2018 16.5622 18.1744C16.707 17.9019 16.9021 17.5204 17.1035 17.0857C17.5147 16.1981 17.9206 15.1532 18.017 14.3608C18.119 13.5226 17.8875 12.4715 17.6348 11.5037C17.5151 11.0451 17.3858 10.5871 17.3139 10.2358C17.2955 10.1459 17.2787 10.0538 17.2665 9.96295L15.6683 9.75201L15.3552 10.1689Z" fill="#304436"/>
<path d="M12.1225 28.0321C11.854 27.9761 11.523 28.0253 11.1381 28.1834C10.7572 28.3398 10.3686 28.5844 10.0115 28.8541C9.74422 29.056 9.50328 29.2648 9.30667 29.4473L12.9378 31.4027L16.2776 29.5249C15.8255 29.4064 15.3199 29.2519 14.8424 29.0556C13.8635 28.6532 13.0254 28.2206 12.1225 28.0321Z" fill="#304436"/>
<path d="M27.6923 24.6644C26.96 24.9705 26.1486 25.3716 25.6504 25.7911C25.4379 25.9701 25.3522 26.233 25.2615 26.7442C25.1797 27.205 25.0952 27.8798 24.7051 28.4842C24.1567 29.3337 23.4116 30.1013 22.8189 30.6471C22.7576 30.7036 22.6972 30.7574 22.639 30.8093L22.6225 30.824C22.6324 30.826 22.6421 30.8287 22.6521 30.8307C23.2834 30.9573 23.9634 31.019 24.4278 30.8932C25.3954 30.631 25.8261 30.1734 26.622 29.2978C27.332 28.5165 27.7522 27.1482 27.9841 25.8759C28.0804 25.3477 28.1393 24.858 28.1766 24.4702C28.0271 24.5276 27.8634 24.5928 27.6923 24.6644Z" fill="#304436"/>
<path d="M7.65653 15.4837L6.24646 16.5413L7.65653 15.8362L9.41911 16.5413L10.1241 15.4837L11.1817 14.7787L10.1241 15.1312L9.06659 15.8362L7.65653 15.4837Z" fill="#304436"/>
<path d="M9.50128 21.7002L6.48895 21.1822L9.32502 22.0055L12.077 24.4084L13.8475 24.2095L16.0627 24.6744L14.0238 23.9042L11.8086 23.4394L9.50128 21.7002Z" fill="#304436"/>
<path d="M22.4622 15.8363L20.3471 19.0089H20.6996L23.1672 15.8363L22.1097 13.7212V11.6061L21.7572 13.7212L22.4622 15.8363Z" fill="#304436"/>
<path d="M21.8639 23.9895L23.5539 20.5714L23.7302 20.8767L22.2164 24.6L19.8559 24.7417L18.0242 25.7993L19.6796 24.4364L21.8639 23.9895Z" fill="#304436"/>
</svg>
