<svg width="88" height="97" viewBox="0 0 88 97" fill="none" xmlns="http://www.w3.org/2000/svg">
<g filter="url(#filter0_d_3832_5516)">
<ellipse cx="42.5969" cy="54.5492" rx="40.4031" ry="40.4509" fill="white"/>
<path d="M42.5972 15.0983C64.3577 15.0984 82.0005 32.7603 82.0005 54.5494C82.0003 76.3385 64.3576 93.9995 42.5972 93.9996C20.8367 93.9996 3.194 76.3386 3.19385 54.5494C3.19385 32.7602 20.8366 15.0983 42.5972 15.0983Z" stroke="#274430" stroke-width="2"/>
</g>
<g filter="url(#filter1_d_3832_5516)">
<mask id="path-3-inside-1_3832_5516" fill="white">
<path d="M38 5.44124e-06C47.4881 5.02601e-06 56.7803 2.72664 64.7913 7.86145C72.8024 12.9962 79.2015 20.3272 83.2414 28.9981L38 50.5L38 5.44124e-06Z"/>
</mask>
<path d="M38 5.44124e-06C47.4881 5.02601e-06 56.7803 2.72664 64.7913 7.86145C72.8024 12.9962 79.2015 20.3272 83.2414 28.9981L38 50.5L38 5.44124e-06Z" fill="#EDE3F8"/>
<path d="M38 5.44124e-06C47.4881 5.02601e-06 56.7803 2.72664 64.7913 7.86145C72.8024 12.9962 79.2015 20.3272 83.2414 28.9981L38 50.5L38 5.44124e-06Z" stroke="#274430" stroke-width="4" mask="url(#path-3-inside-1_3832_5516)"/>
</g>
<defs>
<filter id="filter0_d_3832_5516" x="2.19385" y="14.0983" width="82.8062" height="82.9017" filterUnits="userSpaceOnUse" color-interpolation-filters="sRGB">
<feFlood flood-opacity="0" result="BackgroundImageFix"/>
<feColorMatrix in="SourceAlpha" type="matrix" values="0 0 0 0 0 0 0 0 0 0 0 0 0 0 0 0 0 0 127 0" result="hardAlpha"/>
<feOffset dx="2" dy="2"/>
<feComposite in2="hardAlpha" operator="out"/>
<feColorMatrix type="matrix" values="0 0 0 0 0.188235 0 0 0 0 0.266667 0 0 0 0 0.211765 0 0 0 1 0"/>
<feBlend mode="normal" in2="BackgroundImageFix" result="effect1_dropShadow_3832_5516"/>
<feBlend mode="normal" in="SourceGraphic" in2="effect1_dropShadow_3832_5516" result="shape"/>
</filter>
<filter id="filter1_d_3832_5516" x="38" y="0" width="49.2412" height="54.5" filterUnits="userSpaceOnUse" color-interpolation-filters="sRGB">
<feFlood flood-opacity="0" result="BackgroundImageFix"/>
<feColorMatrix in="SourceAlpha" type="matrix" values="0 0 0 0 0 0 0 0 0 0 0 0 0 0 0 0 0 0 127 0" result="hardAlpha"/>
<feOffset dx="4" dy="4"/>
<feComposite in2="hardAlpha" operator="out"/>
<feColorMatrix type="matrix" values="0 0 0 0 0.188235 0 0 0 0 0.266667 0 0 0 0 0.211765 0 0 0 1 0"/>
<feBlend mode="normal" in2="BackgroundImageFix" result="effect1_dropShadow_3832_5516"/>
<feBlend mode="normal" in="SourceGraphic" in2="effect1_dropShadow_3832_5516" result="shape"/>
</filter>
</defs>
</svg>
