<svg width="234" height="263" viewBox="0 0 234 263" fill="none" xmlns="http://www.w3.org/2000/svg">
<g filter="url(#filter0_d_3832_5530)">
<rect width="210" height="221" rx="16" transform="matrix(-1 0 0 1 210 12)" fill="white" shape-rendering="crispEdges"/>
<rect x="-1.5" y="1.5" width="207" height="218" rx="14.5" transform="matrix(-1 0 0 1 207 12)" stroke="#274430" stroke-width="3" shape-rendering="crispEdges"/>
<path d="M134.126 82.7735C129.431 82.7735 45.3494 82.7735 45.3494 82.7735C44.991 82.7735 44.8559 82.162 45.2143 81.9829C48.3503 80.4343 51.9075 80.7476 55.16 79.6465C57.0774 79.002 58.2601 77.7488 59.5862 76.3165C60.69 75.0635 62.115 74.135 63.7078 73.631C65.1625 73.1902 66.7078 73.1408 68.1878 73.4878C69.8006 73.8727 71.1894 74.7858 72.7215 75.3676C76.5206 76.7999 80.2211 75.4392 82.936 72.6284C85.176 70.3099 87.4159 68.1526 90.4175 66.8814C91.6609 66.3207 93.0062 66.0211 94.3702 66.0011C95.7342 65.9811 97.0879 66.2411 98.3472 66.7651C101.25 68.081 103.239 70.7217 105.963 72.3151C109.198 74.2039 113.068 73.7563 116.635 74.3203C120.201 74.8842 122.906 77.901 126.078 79.6286C127.1 80.2825 128.28 80.6476 129.492 80.6849C130.178 80.6092 130.86 80.4987 131.535 80.3537C132.033 80.2174 132.56 80.2196 133.057 80.36C133.554 80.5003 134.004 80.7736 134.357 81.1504C134.581 81.4011 134.449 82.7735 134.126 82.7735Z" fill="white"/>
<path fill-rule="evenodd" clip-rule="evenodd" d="M43.6402 82.7098C43.5285 82.1306 43.6775 81.188 44.5893 80.7325C46.3686 79.8538 48.2374 79.519 49.9362 79.2645C50.1793 79.2281 50.4184 79.1933 50.6536 79.159C52.1192 78.9455 53.4392 78.7533 54.7115 78.3225L54.7143 78.3216C56.2476 77.8062 57.2113 76.8235 58.5489 75.3791C59.8191 73.9421 61.4565 72.8771 63.2859 72.2983L63.294 72.2957L63.3022 72.2933C64.9922 71.7812 66.7875 71.7238 68.5068 72.1268L68.5123 72.1281C69.4653 72.3556 70.3231 72.7321 71.0812 73.0896C71.272 73.1796 71.454 73.267 71.6301 73.3516C72.1875 73.6193 72.6858 73.8587 73.2161 74.0602C76.3628 75.2459 79.497 74.1765 81.9303 71.6573C84.1692 69.3399 86.5766 66.9939 89.8574 65.6005C91.2711 64.9655 92.7998 64.6261 94.3496 64.6034C95.9049 64.5806 97.4483 64.8771 98.8842 65.4745L98.9044 65.4829L98.9243 65.492C100.573 66.2392 101.927 67.347 103.13 68.3725C103.269 68.4913 103.406 68.6088 103.541 68.7248C104.616 69.6455 105.578 70.4703 106.669 71.1083C108.033 71.9052 109.578 72.2377 111.323 72.4246C112.013 72.4985 112.705 72.5473 113.425 72.5981L113.425 72.5981C113.621 72.612 113.819 72.6259 114.019 72.6406C114.94 72.7078 115.9 72.7889 116.853 72.9396C118.955 73.272 120.735 74.3165 122.295 75.385C122.828 75.7506 123.325 76.1097 123.804 76.4561C124.805 77.1791 125.814 77.8968 126.832 78.4514C127.614 78.9521 128.514 79.2389 129.441 79.284C130.034 79.2153 130.624 79.1186 131.208 78.9942C131.939 78.8022 132.709 78.8092 133.437 79.0147C134.179 79.2242 134.872 79.6567 135.4 80.219C135.636 80.4838 135.731 80.7722 135.771 80.9162C135.819 81.0875 135.842 81.2534 135.854 81.3906C135.878 81.6669 135.867 81.9598 135.834 82.2245C135.804 82.4783 135.743 82.7931 135.624 83.0848C135.566 83.2253 135.462 83.4422 135.279 83.6466C135.094 83.8534 134.708 84.1712 134.126 84.1712H45.3493C44.2361 84.1712 43.7431 83.2439 43.6402 82.7098ZM45.2142 81.9829C44.8558 82.1619 44.9909 82.7734 45.3493 82.7734H134.126C134.449 82.7734 134.581 81.401 134.357 81.1504C134.004 80.7736 133.554 80.5003 133.057 80.3599C132.56 80.2195 132.033 80.2174 131.535 80.3537C130.86 80.4986 130.178 80.6092 129.492 80.6849C128.279 80.6475 127.1 80.2825 126.078 79.6286C124.981 79.031 123.94 78.2792 122.899 77.528C120.932 76.1074 118.967 74.6891 116.634 74.3202C115.555 74.1496 114.449 74.0716 113.34 73.9934C110.784 73.8132 108.219 73.6324 105.963 72.3151C104.756 71.6091 103.694 70.6975 102.632 69.7867C101.297 68.6417 99.9639 67.4979 98.3471 66.765C97.0878 66.2411 95.7341 65.981 94.3701 66.001C93.0061 66.0211 91.6608 66.3207 90.4174 66.8814C87.4158 68.1525 85.1759 70.3099 82.9359 72.6284C80.221 75.4392 76.5205 76.7999 72.7214 75.3676C72.1297 75.1428 71.5593 74.8687 70.9891 74.5947C70.083 74.1592 69.1775 73.724 68.1877 73.4877C66.7077 73.1408 65.1624 73.1902 63.7077 73.631C62.1149 74.1349 60.6899 75.0634 59.5861 76.3165C58.26 77.7487 57.0773 79.002 55.1599 79.6465C53.757 80.1214 52.2974 80.3332 50.8395 80.5448C49.451 80.7462 48.0639 80.9475 46.7285 81.3756C46.4987 81.4493 46.2705 81.5297 46.044 81.6179C45.8105 81.709 45.4437 81.8739 45.2142 81.9829Z" fill="#274430"/>
<path d="M116.634 74.3204C113.068 73.7564 109.198 74.204 105.963 72.3152C109.198 74.204 113.068 74.8712 116.634 75.4351C120.2 75.9991 122.906 77.901 126.078 79.6287C122.906 77.901 120.2 74.8843 116.634 74.3204Z" fill="white" fill-opacity="0.3"/>
<path d="M45.2144 81.9829C44.856 82.162 44.9911 82.7735 45.3495 82.7735H88.3398C88.3398 82.7735 71.2136 82.7734 64.2233 79.279C62.3012 78.3181 59.5863 76.3165 59.5863 76.3165C58.2602 77.7488 57.0775 79.002 55.1601 79.6466C51.9076 80.7476 48.3504 80.4343 45.2144 81.9829Z" fill="#565656" fill-opacity="0.3"/>
<path d="M105.126 119.773C100.431 119.773 16.3494 119.773 16.3494 119.773C15.991 119.773 15.8559 119.162 16.2143 118.983C19.3503 117.434 22.9075 117.748 26.16 116.647C28.0774 116.002 29.2601 114.749 30.5862 113.317C31.69 112.063 33.115 111.135 34.7078 110.631C36.1625 110.19 37.7078 110.141 39.1878 110.488C40.8006 110.873 42.1894 111.786 43.7215 112.368C47.5206 113.8 51.2211 112.439 53.936 109.628C56.176 107.31 58.4159 105.153 61.4175 103.881C62.6609 103.321 64.0062 103.021 65.3702 103.001C66.7342 102.981 68.0879 103.241 69.3472 103.765C72.2502 105.081 74.2393 107.722 76.9632 109.315C80.1977 111.204 84.0684 110.756 87.6345 111.32C91.2006 111.884 93.9065 114.901 97.0783 116.629C98.0998 117.283 99.2795 117.648 100.492 117.685C101.178 117.609 101.86 117.499 102.535 117.354C103.033 117.217 103.56 117.22 104.057 117.36C104.554 117.5 105.004 117.774 105.357 118.15C105.581 118.401 105.449 119.773 105.126 119.773Z" fill="white"/>
<path fill-rule="evenodd" clip-rule="evenodd" d="M14.6402 119.71C14.5285 119.131 14.6775 118.188 15.5893 117.732C17.3686 116.854 19.2374 116.519 20.9362 116.264C21.1793 116.228 21.4184 116.193 21.6536 116.159C23.1192 115.946 24.4392 115.753 25.7115 115.323L25.7143 115.322C27.2476 114.806 28.2113 113.823 29.5489 112.379C30.8191 110.942 32.4565 109.877 34.2859 109.298L34.294 109.296L34.3022 109.293C35.9922 108.781 37.7875 108.724 39.5068 109.127L39.5123 109.128C40.4653 109.356 41.3231 109.732 42.0812 110.09C42.272 110.18 42.454 110.267 42.6301 110.352C43.1875 110.619 43.6858 110.859 44.2161 111.06C47.3628 112.246 50.497 111.177 52.9303 108.657C55.1692 106.34 57.5766 103.994 60.8574 102.601C62.2711 101.965 63.7998 101.626 65.3496 101.603C66.9049 101.581 68.4483 101.877 69.8842 102.475L69.9044 102.483L69.9243 102.492C71.5729 103.239 72.927 104.347 74.1295 105.372C74.2689 105.491 74.406 105.609 74.5413 105.725C75.6157 106.646 76.578 107.47 77.6686 108.108C79.0334 108.905 80.5784 109.238 82.3233 109.425C83.0134 109.499 83.7048 109.547 84.4246 109.598L84.4254 109.598C84.6211 109.612 84.8189 109.626 85.0193 109.641C85.9402 109.708 86.8999 109.789 87.8528 109.94C89.9547 110.272 91.7351 111.317 93.2945 112.385C93.828 112.751 94.325 113.11 94.8044 113.456C95.805 114.179 96.8139 114.897 97.8321 115.451C98.6142 115.952 99.5137 116.239 100.441 116.284C101.034 116.215 101.624 116.119 102.208 115.994C102.939 115.802 103.709 115.809 104.437 116.015C105.179 116.224 105.872 116.657 106.4 117.219C106.636 117.484 106.731 117.772 106.771 117.916C106.819 118.087 106.842 118.253 106.854 118.391C106.878 118.667 106.867 118.96 106.834 119.224C106.804 119.478 106.743 119.793 106.624 120.085C106.566 120.225 106.462 120.442 106.279 120.647C106.094 120.853 105.708 121.171 105.126 121.171H16.3493C15.2361 121.171 14.7431 120.244 14.6402 119.71ZM16.2142 118.983C15.8558 119.162 15.9909 119.773 16.3493 119.773H105.126C105.449 119.773 105.581 118.401 105.357 118.15C105.004 117.774 104.554 117.5 104.057 117.36C103.56 117.22 103.033 117.217 102.535 117.354C101.86 117.499 101.178 117.609 100.492 117.685C99.2794 117.648 98.0997 117.282 97.0782 116.629C95.9811 116.031 94.9397 115.279 93.8992 114.528C91.9316 113.107 89.967 111.689 87.6344 111.32C86.5554 111.15 85.4486 111.072 84.3399 110.993C81.7843 110.813 79.219 110.632 76.9631 109.315C75.7563 108.609 74.6937 107.698 73.6319 106.787C72.2972 105.642 70.9639 104.498 69.3471 103.765C68.0878 103.241 66.7341 102.981 65.3701 103.001C64.0061 103.021 62.6608 103.321 61.4174 103.881C58.4158 105.153 56.1759 107.31 53.9359 109.628C51.221 112.439 47.5205 113.8 43.7214 112.368C43.1297 112.143 42.5593 111.869 41.9891 111.595C41.083 111.159 40.1775 110.724 39.1877 110.488C37.7077 110.141 36.1624 110.19 34.7077 110.631C33.1149 111.135 31.6899 112.063 30.5861 113.316C29.26 114.749 28.0773 116.002 26.1599 116.647C24.757 117.121 23.2974 117.333 21.8395 117.545C20.451 117.746 19.0639 117.947 17.7285 118.376C17.4987 118.449 17.2705 118.53 17.044 118.618C16.8105 118.709 16.4437 118.874 16.2142 118.983Z" fill="#274430"/>
<path d="M87.6343 111.32C84.0682 110.756 80.1975 111.204 76.963 109.315C80.1975 111.204 84.0682 111.871 87.6343 112.435C91.2004 112.999 93.9063 114.901 97.0781 116.629C93.9063 114.901 91.2004 111.884 87.6343 111.32Z" fill="white" fill-opacity="0.3"/>
<path d="M16.2144 118.983C15.856 119.162 15.9911 119.773 16.3495 119.773H59.3398C59.3398 119.773 42.2136 119.773 35.2233 116.279C33.3012 115.318 30.5863 113.317 30.5863 113.317C29.2602 114.749 28.0775 116.002 26.1601 116.647C22.9076 117.748 19.3504 117.434 16.2144 118.983Z" fill="#565656" fill-opacity="0.3"/>
<path d="M226.643 26.3505C220.024 26.3505 101.493 26.3505 101.493 26.3505C100.987 26.3505 100.797 25.4899 101.302 25.2379C105.723 23.0583 110.738 23.4993 115.323 21.9496C118.026 21.0425 119.693 19.2787 121.562 17.2629C123.118 15.4994 125.127 14.1926 127.373 13.4833C129.423 12.863 131.602 12.7935 133.688 13.2818C135.962 13.8235 137.92 15.1086 140.08 15.9275C145.435 17.9433 150.652 16.0283 154.479 12.0723C157.637 8.80923 160.795 5.77295 165.026 3.98394C166.779 3.19481 168.675 2.77309 170.598 2.74492C172.521 2.71675 174.429 3.08272 176.205 3.82016C180.297 5.67216 183.101 9.38877 186.941 11.6313C191.501 14.2896 196.957 13.6597 201.985 14.4534C207.012 15.2471 210.826 19.4929 215.298 21.9244C216.738 22.8447 218.401 23.3585 220.11 23.4111C221.078 23.3045 222.039 23.1489 222.99 22.9449C223.693 22.7531 224.435 22.7561 225.136 22.9537C225.837 23.1513 226.471 23.5359 226.969 24.0662C227.285 24.419 227.098 26.3505 226.643 26.3505Z" fill="white"/>
<path fill-rule="evenodd" clip-rule="evenodd" d="M99.0829 26.2609C98.9255 25.4457 99.1355 24.1191 100.421 23.478C102.929 22.2414 105.564 21.7702 107.958 21.412C108.301 21.3607 108.638 21.3117 108.97 21.2635C111.036 20.963 112.897 20.6925 114.69 20.0863L114.694 20.0849C116.856 19.3596 118.214 17.9765 120.1 15.9437C121.891 13.9211 124.199 12.4223 126.778 11.6077L126.789 11.6041L126.801 11.6006C129.183 10.8799 131.714 10.7991 134.138 11.3664L134.146 11.3682C135.489 11.6884 136.698 12.2182 137.767 12.7214C138.036 12.848 138.293 12.971 138.541 13.0901C139.327 13.467 140.029 13.8038 140.777 14.0875C145.213 15.7562 149.631 14.2512 153.061 10.7055C156.218 7.444 159.611 4.14224 164.236 2.18124C166.229 1.28747 168.384 0.809857 170.569 0.777846C172.762 0.745724 174.937 1.163 176.962 2.00387L176.99 2.0157L177.018 2.02841C179.342 3.08012 181.251 4.63922 182.946 6.08248C183.143 6.24974 183.336 6.41512 183.527 6.57834C185.041 7.87418 186.398 9.03492 187.935 9.9329C189.86 11.0545 192.037 11.5225 194.497 11.7855C195.47 11.8895 196.445 11.9582 197.46 12.0296L197.461 12.0297C197.737 12.0491 198.015 12.0688 198.298 12.0894C199.596 12.1841 200.949 12.2982 202.292 12.5103C205.255 12.9781 207.765 14.4482 209.964 15.952C210.716 16.4665 211.416 16.9719 212.092 17.4594C213.503 18.4769 214.925 19.4871 216.36 20.2677C217.463 20.9723 218.731 21.376 220.038 21.4394C220.874 21.3427 221.705 21.2066 222.529 21.0316C223.56 20.7614 224.645 20.7712 225.671 21.0604C226.717 21.3552 227.695 21.964 228.439 22.7554C228.772 23.128 228.906 23.534 228.962 23.7366C229.03 23.9777 229.062 24.2111 229.079 24.4043C229.112 24.7931 229.097 25.2054 229.051 25.5779C229.008 25.9352 228.922 26.3782 228.754 26.7887C228.673 26.9865 228.526 27.2918 228.268 27.5794C228.007 27.8704 227.463 28.3177 226.643 28.3177H101.492C99.9229 28.3177 99.228 27.0126 99.0829 26.2609ZM101.302 25.2379C100.797 25.4898 100.987 26.3505 101.492 26.3505H226.643C227.098 26.3505 227.285 24.4189 226.969 24.0662C226.471 23.5359 225.837 23.1513 225.136 22.9537C224.435 22.7561 223.693 22.7531 222.99 22.9449C222.039 23.1489 221.077 23.3045 220.11 23.411C218.401 23.3585 216.738 22.8447 215.298 21.9244C213.751 21.0834 212.283 20.0252 210.816 18.968C208.042 16.9687 205.273 14.9726 201.984 14.4534C200.463 14.2133 198.903 14.1034 197.34 13.9934C193.737 13.7399 190.121 13.4853 186.941 11.6313C185.24 10.6377 183.742 9.35478 182.245 8.07286C180.363 6.46142 178.484 4.85159 176.204 3.82013C174.429 3.08269 172.521 2.71672 170.598 2.74489C168.675 2.77306 166.779 3.19478 165.026 3.98391C160.794 5.77292 157.637 8.80921 154.479 12.0723C150.652 16.0282 145.435 17.9432 140.079 15.9274C139.245 15.6111 138.441 15.2253 137.637 14.8396C136.36 14.2267 135.083 13.6142 133.688 13.2817C131.602 12.7934 129.423 12.863 127.372 13.4833C125.127 14.1926 123.118 15.4994 121.562 17.2629C119.693 19.2787 118.025 21.0425 115.322 21.9496C113.345 22.618 111.287 22.9161 109.232 23.2138C107.274 23.4974 105.319 23.7806 103.437 24.3832C103.113 24.4869 102.791 24.6 102.472 24.7242C102.142 24.8523 101.625 25.0844 101.302 25.2379Z" fill="#274430"/>
<path d="M201.985 14.4534C196.958 13.6597 191.501 14.2897 186.941 11.6313C191.501 14.2897 196.958 15.2287 201.985 16.0224C207.012 16.8161 210.826 19.4929 215.298 21.9245C210.826 19.4929 207.012 15.2472 201.985 14.4534Z" fill="white" fill-opacity="0.3"/>
<path d="M101.302 25.2379C100.797 25.4899 100.987 26.3505 101.492 26.3505H162.097C162.097 26.3505 137.953 26.3505 128.099 21.4324C125.389 20.08 121.562 17.2629 121.562 17.2629C119.693 19.2787 118.025 21.0425 115.322 21.9496C110.737 23.4993 105.723 23.0583 101.302 25.2379Z" fill="#565656" fill-opacity="0.3"/>
<path d="M224.799 80.1522C221.701 80.1522 166.231 80.1522 166.231 80.1522C165.994 80.1522 165.905 79.5634 166.142 79.391C168.211 77.8997 170.557 78.2014 172.703 77.1411C173.968 76.5205 174.748 75.3136 175.623 73.9344C176.351 72.7278 177.292 71.8337 178.342 71.3484C179.302 70.9239 180.322 70.8764 181.298 71.2105C182.362 71.5811 183.278 72.4604 184.289 73.0207C186.795 74.3999 189.237 73.0896 191.028 70.3829C192.505 68.1503 193.983 66.0728 195.963 64.8488C196.784 64.3089 197.671 64.0203 198.571 64.001C199.471 63.9818 200.364 64.2322 201.195 64.7367C203.11 66.0039 204.422 68.5468 206.219 70.0812C208.353 71.9001 210.907 71.469 213.259 72.0121C215.612 72.5552 217.397 75.4602 219.49 77.1239C220.163 77.7535 220.942 78.1051 221.742 78.141C222.194 78.0681 222.644 77.9617 223.089 77.8221C223.418 77.6908 223.766 77.6929 224.094 77.8281C224.422 77.9633 224.718 78.2265 224.951 78.5893C225.099 78.8307 225.012 80.1522 224.799 80.1522Z" fill="white"/>
<path fill-rule="evenodd" clip-rule="evenodd" d="M165.103 80.0909C165.03 79.5331 165.128 78.6255 165.73 78.1868C166.903 77.3407 168.136 77.0183 169.257 76.7732C169.417 76.7381 169.575 76.7046 169.73 76.6716C170.697 76.466 171.568 76.2809 172.407 75.8661L172.409 75.8652C173.421 75.3689 174.057 74.4226 174.939 73.0317C175.777 71.6479 176.857 70.6224 178.064 70.065L178.069 70.0625L178.075 70.0602C179.19 69.5671 180.374 69.5118 181.508 69.8999L181.512 69.9012C182.141 70.1202 182.707 70.4827 183.207 70.827C183.333 70.9136 183.453 70.9978 183.569 71.0793C183.937 71.3371 184.265 71.5676 184.615 71.7617C186.691 72.9034 188.759 71.8737 190.364 69.4477C191.841 67.2162 193.43 64.9571 195.594 63.6153C196.527 63.0038 197.535 62.677 198.558 62.6551C199.584 62.6331 200.602 62.9186 201.549 63.494L201.562 63.5021L201.576 63.5108C202.663 64.2303 203.556 65.2971 204.35 66.2846C204.442 66.399 204.532 66.5122 204.621 66.6239C205.33 67.5105 205.965 68.3047 206.685 68.9191C207.585 69.6865 208.604 70.0067 209.755 70.1867C210.211 70.2578 210.667 70.3048 211.142 70.3537L211.142 70.3538C211.271 70.3671 211.402 70.3805 211.534 70.3946C212.142 70.4594 212.775 70.5375 213.403 70.6826C214.79 71.0027 215.965 72.0085 216.993 73.0374C217.345 73.3894 217.673 73.7353 217.99 74.0688C218.65 74.765 219.315 75.4562 219.987 75.9903C220.503 76.4724 221.096 76.7486 221.708 76.792C222.099 76.7258 222.488 76.6327 222.874 76.5129C223.356 76.3281 223.864 76.3348 224.344 76.5327C224.834 76.7344 225.291 77.1509 225.639 77.6924C225.795 77.9473 225.858 78.2251 225.884 78.3637C225.916 78.5287 225.931 78.6884 225.939 78.8206C225.954 79.0866 225.947 79.3687 225.926 79.6235C225.906 79.868 225.866 80.1711 225.787 80.452C225.749 80.5873 225.68 80.7962 225.56 80.993C225.437 81.1921 225.183 81.4982 224.799 81.4982H166.231C165.496 81.4982 165.171 80.6052 165.103 80.0909ZM166.142 79.3909C165.905 79.5633 165.995 80.1522 166.231 80.1522H224.799C225.012 80.1522 225.099 78.8306 224.951 78.5892C224.718 78.2264 224.422 77.9632 224.094 77.8281C223.766 77.6929 223.418 77.6908 223.089 77.822C222.644 77.9616 222.194 78.0681 221.742 78.141C220.942 78.105 220.163 77.7535 219.49 77.1238C218.766 76.5484 218.079 75.8244 217.392 75.101C216.094 73.7331 214.798 72.3673 213.259 72.0121C212.547 71.8478 211.817 71.7726 211.086 71.6973C209.4 71.5239 207.707 71.3497 206.219 70.0812C205.423 69.4013 204.722 68.5235 204.022 67.6464C203.141 66.5439 202.261 65.4424 201.195 64.7367C200.364 64.2321 199.471 63.9817 198.571 64.001C197.671 64.0203 196.784 64.3088 195.963 64.8487C193.983 66.0728 192.505 68.1503 191.028 70.3829C189.237 73.0896 186.795 74.3998 184.289 73.0206C183.899 72.8042 183.522 72.5402 183.146 72.2763C182.548 71.857 181.951 71.4379 181.298 71.2104C180.322 70.8763 179.302 70.9239 178.342 71.3483C177.292 71.8336 176.351 72.7277 175.623 73.9344C174.748 75.3136 173.968 76.5204 172.703 77.1411C171.778 77.5984 170.815 77.8023 169.853 78.006C168.937 78.2001 168.022 78.3939 167.141 78.8061C166.989 78.8771 166.839 78.9545 166.689 79.0395C166.535 79.1271 166.293 79.2859 166.142 79.3909Z" fill="#274430"/>
<path d="M213.259 72.0121C210.906 71.469 208.353 71.9 206.219 70.0812C208.353 71.9 210.906 72.5425 213.259 73.0856C215.612 73.6286 217.397 75.4601 219.489 77.1238C217.397 75.4601 215.612 72.5552 213.259 72.0121Z" fill="white" fill-opacity="0.3"/>
<path d="M166.141 79.391C165.905 79.5634 165.994 80.1522 166.231 80.1522H194.592C194.592 80.1522 183.294 80.1522 178.682 76.7872C177.414 75.8619 175.623 73.9344 175.623 73.9344C174.748 75.3137 173.968 76.5205 172.703 77.1411C170.557 78.2014 168.21 77.8997 166.141 79.391Z" fill="#565656" fill-opacity="0.3"/>
<path d="M118.31 256.957L118.32 256.97L134.236 237.702C151.427 212.011 156.187 181.099 142.299 151.036C135.533 136.393 124.344 121.952 108.011 108.413L99.3578 101.24L97.8802 100L96.9245 101.722C89.9376 119.522 81.8339 128.452 75.0061 135.976C71.9376 139.358 69.1268 142.455 66.7909 145.946C45.9697 177.063 51.1496 220.778 78.0968 244.882C87.7209 252.364 101.081 257 115.851 257C116.675 257 117.495 256.986 118.31 256.957Z" fill="#92E3A9"/>
<path d="M167.52 226.648C172.668 205.614 170.192 180.467 156.397 153.874C152.104 146.726 152.104 135.976 152.104 135.976C149.159 139.146 144.995 148.808 142.299 151.036C156.187 181.099 151.427 212.011 134.236 237.702L118.32 256.97C141.962 256.277 161.641 243.639 167.52 226.648Z" fill="#80B990"/>
<path d="M118.31 256.957L118.32 256.97L134.236 237.702C151.427 212.011 156.187 181.099 142.299 151.036C135.533 136.393 124.344 121.952 108.011 108.413L99.3578 101.24L97.8802 100L96.9245 101.722C89.9376 119.522 81.8339 128.452 75.0061 135.976C71.9376 139.358 69.1268 142.455 66.7909 145.946C45.9697 177.063 51.1496 220.778 78.0968 244.882C87.7209 252.364 101.081 257 115.851 257C116.675 257 117.495 256.986 118.31 256.957Z" fill="#92E3A9"/>
<path d="M167.52 226.648C172.668 205.614 170.192 180.467 156.397 153.874C152.104 146.726 152.104 135.976 152.104 135.976C149.159 139.146 144.995 148.808 142.299 151.036C156.187 181.099 151.427 212.011 134.236 237.702L118.32 256.97C141.962 256.277 161.641 243.639 167.52 226.648Z" fill="#80B990"/>
<path d="M97.6074 98.5254C97.9927 98.4542 98.3883 98.5364 98.7109 98.751L98.8447 98.8516L100.315 100.086L108.968 107.258C124.672 120.275 135.71 134.163 142.661 148.317C142.859 148.036 143.07 147.723 143.292 147.378C144.081 146.151 144.926 144.671 145.802 143.121C146.668 141.587 147.565 139.985 148.429 138.571C149.282 137.175 150.159 135.865 151.005 134.955C151.425 134.503 152.078 134.355 152.652 134.58C153.226 134.806 153.603 135.359 153.604 135.976V135.998C153.604 136.015 153.604 136.042 153.604 136.079C153.605 136.153 153.607 136.265 153.611 136.411C153.619 136.704 153.636 137.136 153.668 137.678C153.733 138.763 153.864 140.285 154.124 142.022C154.65 145.531 155.686 149.777 157.683 153.102L157.729 153.184L158.374 154.442C171.749 180.859 174.139 205.915 168.978 227.005C168.966 227.05 168.954 227.095 168.938 227.139C162.799 244.882 142.435 257.764 118.364 258.47C118.346 258.47 118.328 258.469 118.311 258.469C118.307 258.469 118.303 258.47 118.299 258.47C118.296 258.47 118.292 258.469 118.289 258.469C118.246 258.468 118.204 258.465 118.162 258.461C117.395 258.486 116.625 258.5 115.851 258.5C101.249 258.5 87.943 254.061 78.1162 246.779L77.1758 246.066L77.0967 246C49.5717 221.379 44.3231 176.827 65.5439 145.112C67.952 141.513 70.8411 138.335 73.8955 134.969C80.6822 127.49 88.6411 118.721 95.5283 101.174L95.6133 100.993L96.5684 99.2715L96.6582 99.1309C96.8827 98.8151 97.2222 98.5967 97.6074 98.5254Z" stroke="#304436" stroke-width="3" stroke-linejoin="round"/>
<path d="M114.996 198.6C114.996 198.6 108.947 200.015 104.995 200.226C99.111 200.539 89.9941 198.6 89.9941 198.6" stroke="#304436" stroke-width="2" stroke-linecap="round"/>
<g opacity="0.55">
<path d="M137.904 158.141C138.059 158.475 138.736 160.208 138.729 160.501C139.006 160.862 139.446 161.205 139.372 161.693C139.317 162.094 138.936 162.288 138.607 162.365C137.641 162.582 136.483 162.261 136.017 161.201C135.55 160.14 135.173 157.139 136.59 157.022C137.241 156.967 137.619 157.541 137.904 158.141ZM88.886 155.501C88.8817 155.573 88.892 155.646 88.9158 155.713C88.9397 155.78 88.9764 155.839 89.0229 155.884C89.0549 155.903 89.0858 155.924 89.1154 155.947C89.2116 156.056 89.1154 156.268 88.9711 156.29C88.8393 156.287 88.7086 156.261 88.5826 156.214C88.0979 156.128 87.9351 156.394 87.5059 155.875C87.3582 155.714 87.2396 155.517 87.1574 155.298C87.0753 155.078 87.0314 154.84 87.0286 154.598C87.1137 153.334 88.7417 153.388 88.7824 152.319C88.7824 151.98 88.5641 151.642 88.6714 151.33C88.9304 151.43 89.1487 151.105 89.3633 150.902C89.4496 150.814 89.5507 150.75 89.6593 150.715C89.768 150.68 89.8817 150.674 89.9923 150.699C90.1005 150.73 90.1965 150.806 90.2639 150.914C90.3314 151.021 90.3661 151.154 90.3623 151.29C90.3522 151.363 90.3348 151.434 90.3105 151.502L90.2291 151.705C90.1552 151.917 90.1259 152.148 90.144 152.378C90.1612 152.507 90.1674 152.639 90.1625 152.77C90.0478 153.844 88.8675 154.417 88.886 155.501ZM90.3364 154.255C90.3935 154.235 90.4543 154.239 90.5097 154.265C90.5651 154.291 90.6121 154.338 90.6435 154.399C90.6743 154.494 90.6833 154.597 90.6694 154.697C90.6694 154.815 90.6509 155.149 90.8285 155.045C90.8634 155.014 90.9042 154.996 90.9469 154.991C90.9708 155 90.9922 155.017 91.0086 155.04C91.025 155.063 91.0356 155.091 91.0394 155.122C91.0486 155.242 91.0334 155.362 90.995 155.474L90.9062 155.803C90.8773 155.932 90.8269 156.051 90.7582 156.155C90.7244 156.201 90.6827 156.238 90.636 156.262C90.5893 156.286 90.5388 156.297 90.4881 156.295C90.3902 156.282 90.296 156.241 90.2127 156.177C90.1294 156.113 90.0591 156.027 90.0071 155.925C89.9132 155.707 89.8698 155.462 89.8816 155.216C89.8933 154.971 89.9597 154.733 90.0737 154.53C90.1 154.465 90.1368 154.407 90.1819 154.36C90.2271 154.312 90.2796 154.277 90.3364 154.255ZM55.8376 173.901L56.0153 173.111C57.1124 172.318 58.1521 171.412 59.1232 170.403C59.3321 170.211 59.5287 170 59.7115 169.771C59.8928 169.546 60.0408 169.279 60.2369 169.072C60.4877 168.838 60.7626 168.645 61.0546 168.498C61.6832 168.139 62.2859 167.717 62.8565 167.235C63.1673 166.969 63.5077 166.513 63.3301 166.097C62.7455 165.791 62.098 166.192 61.5504 166.576C59.9113 167.731 58.2981 168.963 56.7071 170.218C57.5046 167.149 58.4751 164.151 59.6116 161.246L59.7966 161.142C60.2813 160.849 60.1481 160.659 59.8891 160.542C64.2137 149.836 70.7329 140.674 78.8146 133.946C78.9445 134.112 79.0542 134.301 79.1402 134.505C79.5879 135.566 79.8506 136.735 80.2872 137.823C80.6794 138.797 81.4601 140.219 82.5072 139.79C82.7176 139.722 82.8981 139.557 83.0106 139.33C83.1231 139.102 83.1588 138.831 83.1103 138.572C83.0274 138.36 82.8996 138.179 82.7403 138.048C82.3901 137.728 81.997 137.483 81.5785 137.326C81.4472 137.292 81.3219 137.229 81.2085 137.141C81.1497 137.093 81.1048 137.024 81.0802 136.942C81.0556 136.861 81.0526 136.773 81.0716 136.69C81.1493 136.437 81.4231 136.433 81.6377 136.469C82.8698 136.663 85.3081 136.044 86.2886 137.064C86.6956 137.48 86.7215 138.139 86.8399 138.734C87.073 139.899 87.6761 140.883 88.0202 141.997C88.4235 143.274 88.3384 144.773 88.3902 146.14C88.4671 146.74 88.4056 147.354 88.2126 147.914C88.0999 148.156 87.9391 148.359 87.7451 148.505C87.5512 148.651 87.3302 148.735 87.1026 148.749C86.5513 148.749 86.0518 148.374 85.5745 148.031C84.7716 147.44 83.9391 147.467 84.2018 146.05C84.5237 144.245 84.9048 142.891 84.3794 141.009C84.2405 140.993 84.1008 141.027 83.9777 141.107C83.8547 141.188 83.7538 141.31 83.6875 141.46C83.5604 141.768 83.4993 142.109 83.5099 142.453C83.4877 143.617 83.6912 144.881 83.188 145.879C82.9589 146.251 82.7118 146.607 82.448 146.944C82.3207 147.117 82.2281 147.325 82.1774 147.55C82.1267 147.774 82.1193 148.01 82.1557 148.239C82.3111 148.902 82.966 149.142 83.5247 149.173C84.1086 149.201 84.692 149.105 85.2489 148.889C85.519 149.534 85.2193 150.301 84.9418 150.951C84.4164 152.165 84.5015 153.912 85.4413 154.792C85.7203 155.012 85.9699 155.283 86.1813 155.595C86.7955 156.674 85.8964 156.701 85.3932 157.252C84.89 157.802 84.6865 159.021 85.4931 159.436C85.6929 159.549 85.926 159.535 86.1258 159.648C86.2968 159.779 86.4265 159.976 86.4937 160.208C86.5609 160.44 86.5616 160.693 86.4958 160.925C86.35 161.383 86.112 161.788 85.8039 162.103C85.3842 162.678 84.8426 163.099 84.2388 163.322C83.7342 163.431 83.2146 163.293 82.7932 162.937C82.3718 162.581 82.0828 162.037 81.9892 161.422C81.9189 160.826 82.0299 160.154 81.7302 159.675C81.4305 159.197 80.8126 159.138 80.302 158.967C79.8731 158.817 79.4507 158.641 79.0366 158.439C78.6333 158.258 78.2263 157.82 77.7601 158.037C77.577 158.143 77.4154 158.297 77.2865 158.488C76.8835 159.033 76.5126 159.612 76.1765 160.221C75.8805 160.767 75.4772 161.124 75.307 161.765C75.2105 162.166 75.146 162.577 75.1146 162.992C75.085 163.277 75.0517 163.561 75.0221 163.836C74.826 163.836 74.7187 163.548 74.6521 163.313C74.5855 163.078 74.5337 162.812 74.3561 162.713C74.2895 162.681 74.2192 162.668 74.1563 162.636C73.8788 162.482 74.8371 160.925 74.9444 160.659C75.1967 160.058 75.4059 159.431 75.5697 158.786C75.5899 158.725 75.5899 158.657 75.5697 158.597C75.5552 158.567 75.5346 158.542 75.51 158.525C75.4854 158.507 75.4576 158.498 75.4291 158.497C75.1553 158.457 74.937 158.75 74.7705 159.012C74.4005 159.585 74.0305 160.145 73.6605 160.718C73.3723 161.12 73.141 161.577 72.976 162.072C72.8983 162.315 72.8058 162.631 72.606 162.645C72.5375 162.641 72.471 162.615 72.4132 162.57C72.3554 162.525 72.3084 162.462 72.2767 162.388C72.1363 162.067 72.0555 161.713 72.0399 161.35C72.0207 160.988 71.9265 160.639 71.7661 160.334C71.6803 160.187 71.5546 160.081 71.4111 160.035C71.2676 159.99 71.1155 160.008 70.9817 160.086C70.8792 160.183 70.7893 160.299 70.7153 160.429C69.9753 161.503 69.0466 161.047 68.3066 160.167C68.2047 160.024 68.0784 159.91 67.9366 159.833C67.8335 159.801 67.7251 159.802 67.6225 159.837C67.5199 159.872 67.4266 159.939 67.352 160.032C67.2069 160.22 67.0893 160.436 67.0042 160.673C66.5158 161.869 66.0126 163.155 66.1865 164.473C66.1971 164.599 66.2299 164.72 66.2827 164.829C66.3734 164.955 66.4894 165.05 66.6194 165.105C67.1036 165.399 67.6543 165.488 68.1845 165.357C68.625 165.135 69.0517 164.874 69.461 164.577C69.9013 164.351 70.5007 164.346 70.7634 164.834C71.0261 165.321 70.9817 165.624 71.4109 165.94C72.8909 167.027 74.7409 165.971 76.2209 165.38C78.2458 164.521 80.4325 164.405 82.5109 165.046C83.3133 165.262 84.0641 165.7 84.705 166.328C85.2198 166.926 85.6532 167.621 85.9889 168.386C87.3345 171.108 88.5406 173.93 89.6001 176.834C90.3401 178.892 91.0431 181.185 90.5214 183.338C90.181 184.728 89.3781 185.856 88.5974 186.948C87.628 188.302 86.6808 190.076 85.5412 191.209C84.5422 192.202 83.4988 192.436 82.8624 194.016C82.7789 194.304 82.6348 194.561 82.4443 194.761C82.2625 194.889 82.0552 194.955 81.8449 194.95C80.1377 195.044 78.4605 194.38 77.1237 193.082C76.4022 192.378 75.7658 191.47 74.8815 191.118C73.4718 190.559 71.9992 191.606 70.7634 192.608C68.4509 194.476 68.9504 198.646 68.6544 201.517C68.4435 203.493 67.7701 205.348 67.0819 207.158C65.2299 212.126 63.2793 216.514 60.8236 221.076C54.678 206.075 52.3683 190.128 55.8376 173.901ZM65.2208 156.751C66.1347 157.893 67.7035 156.963 68.7654 157.685C68.9834 157.867 69.2108 158.031 69.4462 158.177C69.5648 158.25 69.6985 158.278 69.8303 158.258C69.9621 158.238 70.0859 158.17 70.1862 158.064C70.3239 157.851 70.3877 157.58 70.3638 157.31C70.3638 157.121 70.3416 156.922 70.3453 156.764C70.3453 156.119 70.4156 155.474 70.4674 154.837C70.4785 154.773 70.4707 154.706 70.4452 154.648C70.4196 154.611 70.3864 154.583 70.349 154.566C70.2296 154.512 70.1008 154.497 69.9751 154.521C69.8493 154.546 69.7309 154.61 69.6312 154.706C69.5128 154.819 69.424 154.982 69.3019 155.09C69.2423 155.146 69.1699 155.179 69.0945 155.184C69.0191 155.189 68.9443 155.166 68.8801 155.117C68.7025 154.927 68.8616 154.526 68.7025 154.305C68.5434 154.083 68.3325 154.187 68.1327 154.278L65.4946 155.555C65.3552 155.605 65.2281 155.696 65.1246 155.821C65.0511 155.964 65.0205 156.133 65.038 156.3C65.0556 156.467 65.1202 156.622 65.2208 156.737V156.751Z" fill="white"/>
<path d="M149.374 149.787C148.554 150.372 147.956 151.327 147.709 152.445C147.487 153.465 147.564 154.602 147.109 155.501C146.819 155.972 146.482 156.398 146.106 156.769C145.722 157.297 145.407 157.894 145.17 158.538C144.753 159.363 144.441 160.261 144.245 161.201C144.034 162.37 144.168 163.457 142.821 162.853C141.763 162.374 141.226 160.952 140.923 159.626C140.619 158.299 140.405 156.855 139.624 155.862C139.165 155.279 138.555 154.909 138.044 154.395C137.608 153.925 137.215 153.398 136.871 152.824C136.58 152.428 136.351 151.969 136.198 151.47C136.102 151.078 136.098 150.663 136.024 150.265C135.865 149.363 135.258 148.83 135.025 147.95C134.832 147.117 134.755 146.251 134.796 145.387C134.825 144.001 134.955 142.57 134.577 141.262C134.433 140.747 134.207 140.269 134.096 139.745C134.011 139.34 133.989 138.919 134.03 138.504C134.049 138.216 134.139 137.943 134.289 137.719C134.398 137.604 134.525 137.518 134.662 137.466C134.662 137.466 137.234 141.62 138.726 144.37C140.146 146.989 142.137 151.196 142.137 151.196C142.137 151.196 143.997 149.212 144.98 147.783C146.062 146.212 147.332 143.503 147.332 143.503C147.781 143.648 148.239 143.755 148.693 143.875C149.341 144.018 149.97 144.266 150.565 144.61C151.512 145.202 151.856 146.077 151.531 147.318C151.205 148.559 150.254 149.169 149.374 149.787Z" fill="white"/>
<path d="M131.184 219.181C131.136 218.161 130.814 217.182 130.759 216.166C130.67 214.731 131.299 213.301 132.527 213.116C135.003 212.741 136.372 213.481 139.062 211.229L139.094 211.202C140.303 210.194 141.862 208.896 143.387 208.972C144.168 209.018 144.911 209.469 145.696 209.446C146.345 209.353 146.977 209.137 147.572 208.805C149.422 207.998 151.397 207.903 153.347 207.822C153.602 207.759 153.866 207.804 154.097 207.95C154.327 208.095 154.511 208.331 154.616 208.62C155.445 210.141 156.355 211.428 158.02 210.877C158.453 210.727 158.852 210.459 159.188 210.094C159.524 209.729 159.787 209.276 159.959 208.769C160.036 208.412 160.183 208.084 160.388 207.813C160.758 207.442 161.343 207.641 161.794 207.424C162.657 207.005 162.479 205.755 162.057 205.019C161.936 204.852 161.84 204.661 161.772 204.455C161.748 204.308 161.752 204.156 161.785 204.012C161.818 203.868 161.878 203.735 161.961 203.624C162.129 203.406 162.325 203.221 162.542 203.078C162.79 202.893 163.141 202.722 163.341 202.979C163.443 203.165 163.489 203.388 163.471 203.611C163.519 204.703 164.503 206.432 165.498 205.669C165.834 205.364 166.105 204.965 166.286 204.504C166.782 203.569 167.1 202.509 167.215 201.404C167.333 199.341 165.609 197.604 164.188 196.837C163.659 196.548 163.393 196.02 162.853 195.749L161.743 195.198C161.483 195.052 161.21 194.947 160.929 194.887C159.944 194.724 159.049 195.659 158.538 196.692C158.397 197.026 158.228 197.342 158.035 197.635C157.936 197.78 157.81 197.894 157.668 197.968C157.526 198.043 157.372 198.076 157.218 198.064C157.173 196.882 157.606 195.762 157.887 194.63C158.853 190.744 155.323 188.131 154.557 184.624C153.925 181.686 152.826 182.115 150.624 181.826C150.467 181.821 150.313 181.769 150.176 181.672C150.065 181.559 149.979 181.413 149.925 181.248C149.555 180.287 149.51 179.253 149.259 178.251C149.137 177.773 148.223 176.839 148.578 176.392C148.933 175.945 150.824 177.746 151.142 176.794C151.181 176.582 151.16 176.361 151.081 176.167C151.003 175.972 150.873 175.816 150.713 175.724C150.386 175.553 150.069 175.357 149.762 175.137C149.422 174.821 149.244 174.307 148.948 173.932C148.652 173.558 148.097 173.355 147.838 173.752C147.505 174.239 147.89 175.16 147.468 175.557C147.368 175.625 147.257 175.666 147.143 175.679C147.029 175.691 146.914 175.674 146.806 175.629C146.357 175.512 145.921 175.33 145.507 175.088C145.507 173.472 146.195 172.38 147.028 171.238C147.561 170.516 148.486 169.722 148.648 168.747C148.811 167.772 148.215 166.49 148.589 165.624C148.685 165.417 148.821 165.243 148.985 165.117C149.15 164.99 149.337 164.915 149.531 164.899C149.725 164.882 149.919 164.925 150.096 165.022C150.273 165.119 150.428 165.269 150.546 165.457C150.687 165.678 150.783 165.935 150.939 166.138C151.272 166.553 151.808 166.621 152.178 166.987C153.074 167.853 153.518 169.392 153.991 170.597C154.278 171.236 154.478 171.928 154.583 172.646C154.676 173.549 154.461 174.496 154.509 175.422C154.557 176.347 155.035 177.389 155.797 177.435C156.441 177.48 156.959 176.816 157.332 176.175C157.706 175.535 158.072 174.821 158.712 174.596C158.975 174.567 159.228 174.463 159.452 174.293C159.524 174.199 159.579 174.087 159.613 173.965C159.648 173.843 159.661 173.713 159.652 173.585C159.626 172.438 158.753 171.644 158.02 170.927C155.8 168.774 154.809 165.804 153.077 163.209C152.903 162.947 152.622 162.667 152.385 162.844C152.28 162.94 152.208 163.082 152.186 163.241C152.114 163.568 152.096 163.909 152.133 164.244C152.17 164.579 152.261 164.902 152.4 165.195C152.47 165.339 152.541 165.551 152.426 165.646C152.385 165.67 152.339 165.681 152.293 165.678C152.001 165.671 151.717 165.563 151.474 165.366C151.231 165.17 151.039 164.893 150.92 164.568C150.86 164.325 150.774 164.093 150.665 163.877C150.47 163.624 150.208 163.464 149.925 163.426C149.643 163.391 149.371 163.28 149.129 163.101C149.011 163.006 148.927 162.86 148.895 162.691C148.863 162.523 148.886 162.346 148.959 162.198C149.068 162.076 149.193 161.977 149.329 161.905C149.81 161.548 149.954 160.772 149.929 160.1C149.888 159.152 149 157.062 149.699 156.336C150.591 155.433 152.104 157.112 152.633 157.82C154.039 159.702 155.878 162.099 157.847 163.069C158.971 163.647 160.13 164.117 161.312 164.474C161.312 164.474 163.645 170.405 164.882 174.293C166.19 178.4 167.775 184.942 167.775 184.942C168.365 192.839 167.84 200.852 166.183 208.625C166.146 208.801 166.105 208.972 166.068 209.144C164.699 209.031 163.711 208.386 162.335 208.995C161.184 209.505 160.825 210.606 159.852 211.306C158.638 212.269 157.187 212.685 155.749 212.484C155.623 212.454 155.493 212.476 155.379 212.547C155.317 212.61 155.266 212.688 155.231 212.777C155.196 212.866 155.177 212.963 155.175 213.061C154.99 214.808 155.704 216.469 155.686 218.197C155.664 220.183 155.519 221.244 153.432 224.394C151.346 227.544 147.479 229.173 146.18 230.184C144.882 231.195 145.918 233.465 144.7 236.227C143.59 238.714 142.806 241.408 141.7 243.9C140.253 247.158 138.592 249.577 135.935 251.41C133.63 253.007 134.899 248.657 135.476 247.465C135.677 247.145 135.812 246.77 135.869 246.373C135.86 246.082 135.814 245.794 135.732 245.52C135.532 244.518 135.772 243.48 135.909 242.465C136.046 241.449 136.054 240.294 135.495 239.522C135.125 239.026 134.585 238.755 134.311 238.168C133.941 237.392 134.218 236.394 134.067 235.514C133.945 234.815 133.556 234.237 133.264 233.614C132.664 232.337 133.486 230.423 132.646 229.403C131.284 227.747 130.148 226.086 130.515 223.586C130.737 222.155 131.255 220.698 131.184 219.181Z" fill="white"/>
</g>
<path d="M110.974 217.667C111.943 217.489 112.874 217.31 113.74 217.139C115.78 216.734 117.418 215.431 118.324 213.703C118.324 213.703 109.934 212.625 105.371 214.85C102.84 216.084 99.6478 219.231 99.6478 219.231C103.078 219.004 107.305 218.341 110.974 217.667Z" fill="#80B990"/>
<path d="M127.096 226.123C129.28 217.075 123.955 207.846 119.326 206.073C122.909 207.338 126.15 209.931 128.468 213.984C134.988 225.378 127.165 243.364 95.7065 253.963C116.831 246.345 124.985 234.866 127.096 226.123Z" fill="#565656" fill-opacity="0.3"/>
<path d="M98.1989 208.435C106.699 201.984 118.551 202.836 124.448 213.176C130.968 224.571 123.588 243.413 92.1287 254.013C80.4132 244.913 69.8636 228.643 72.8711 215.724C75.8785 202.806 92.1097 199.957 98.1989 208.435Z" fill="#92E3A9"/>
<path d="M98.3005 207.737C95.0523 203.612 89.4345 202.308 84.2604 203.57C78.9038 204.877 73.9357 208.947 72.3844 215.61C70.7204 222.758 73.1108 230.84 77.4652 238.16C81.1886 244.42 86.3786 250.179 91.8218 254.407L92.0345 254.572L92.2888 254.486C108.085 249.164 117.904 241.751 122.947 234.17C127.995 226.581 128.252 218.818 124.882 212.929L124.594 212.439C121.574 207.45 117.137 204.714 112.372 204.014C107.614 203.316 102.564 204.652 98.3005 207.737Z" fill="#80B990" stroke="#274430"/>
<path d="M72.8713 215.73C71.249 222.699 73.5718 230.643 77.8944 237.91C73.5718 230.643 72.8807 223.175 74.5029 216.206C76.6661 206.914 85.6708 202.833 92.8215 204.429C85.4822 201.753 75.2028 205.715 72.8713 215.73Z" fill="#565656" fill-opacity="0.3"/>
<path opacity="0.6" d="M123.084 225.307C125.269 216.259 119.943 207.031 115.315 205.258C118.898 206.522 122.138 209.116 124.457 213.168C130.976 224.562 123.597 243.404 92.1385 254.003C113.262 246.385 120.974 234.05 123.084 225.307Z" fill="white" fill-opacity="0.3"/>
<path d="M76.3742 231.828C76.7229 232.015 77.0788 232.165 77.4384 232.276C77.5832 232.322 77.7299 232.329 77.8701 232.297C78.0104 232.264 78.1415 232.192 78.256 232.086C78.3705 231.979 78.466 231.84 78.5372 231.676C78.6085 231.511 78.654 231.326 78.6711 231.129C78.6882 230.932 78.6767 230.728 78.6372 230.528C78.5976 230.329 78.5308 230.138 78.4406 229.966C78.3504 229.794 78.2385 229.645 78.1113 229.527C77.9842 229.409 77.8442 229.324 77.6995 229.278C76.3199 228.838 75.5296 227.94 74.4491 225.58C74.2819 225.219 74.0258 224.949 73.7364 224.829C73.447 224.708 73.1476 224.746 72.9033 224.935C72.7828 225.029 72.6796 225.157 72.5997 225.313C72.5199 225.468 72.465 225.648 72.4381 225.841C72.4112 226.034 72.413 226.237 72.4433 226.438C72.4735 226.639 72.5317 226.835 72.6144 227.013C73.6163 229.206 74.6782 230.89 76.3742 231.828Z" fill="#274430"/>
<path d="M73.5152 229.08C73.6749 229.148 73.8434 229.179 74.0103 229.17C74.1773 229.161 74.3392 229.113 74.4863 229.028C76.6735 227.774 79.2256 229.068 79.2565 229.083C79.5581 229.242 79.896 229.259 80.1959 229.129C80.4957 229 80.7329 228.735 80.8553 228.394C80.9777 228.052 80.9752 227.661 80.8485 227.307C80.7217 226.952 80.4811 226.664 80.1794 226.505C78.8995 225.885 77.5315 225.593 76.1723 225.648C76.7317 224.887 77.4763 224.338 78.3176 224.068C78.4708 224.02 78.6128 223.936 78.7354 223.822C78.858 223.709 78.9588 223.567 79.0321 223.405C79.1053 223.243 79.1496 223.065 79.1624 222.88C79.1752 222.695 79.1563 222.507 79.1067 222.327C79.0571 222.147 78.9777 221.978 78.8732 221.83C78.7687 221.682 78.6411 221.558 78.4977 221.465C78.3542 221.372 78.1977 221.312 78.0372 221.288C77.8766 221.264 77.7151 221.276 77.5618 221.325C76.3418 221.732 75.2508 222.508 74.3971 223.574C73.5434 224.64 72.9565 225.961 72.6947 227.405C72.6471 227.666 72.6667 227.942 72.7511 228.198C72.8354 228.455 72.9809 228.681 73.1701 228.85C73.2737 228.949 73.3905 229.027 73.5152 229.08Z" fill="#274430"/>
<path d="M73.2646 227.359C73.5916 227.471 73.9534 227.46 74.277 227.329C74.6007 227.199 74.862 226.957 75.0084 226.654C75.1548 226.352 75.1752 226.009 75.0657 225.697C74.9561 225.385 74.7247 225.126 74.4181 224.972C62.0795 218.628 54.7816 208.429 53.8581 196.254C53.8316 195.909 53.6609 195.59 53.3836 195.368C53.1062 195.146 52.745 195.038 52.3793 195.07C52.0135 195.101 51.6733 195.268 51.4334 195.535C51.1935 195.801 51.0737 196.145 51.1001 196.49C52.0761 209.382 60.0857 220.616 73.0637 227.276C73.1276 227.31 73.1949 227.338 73.2646 227.359Z" fill="#274430"/>
<path d="M119.516 234.189C120.777 233.707 121.942 232.998 122.927 232.115C123.184 231.9 123.347 231.615 123.381 231.324C123.414 231.033 123.316 230.759 123.107 230.562C122.898 230.365 122.596 230.262 122.267 230.275C121.938 230.288 121.609 230.416 121.352 230.631C119.67 232.037 118.636 232.477 117.096 232.441C116.779 232.451 116.461 232.568 116.207 232.768C115.952 232.967 115.78 233.235 115.725 233.515C115.67 233.796 115.737 234.068 115.912 234.278C116.087 234.487 116.357 234.618 116.667 234.643C117.613 234.67 118.585 234.515 119.516 234.189Z" fill="#274430"/>
<path d="M121.909 233.129L121.976 233.098C122.21 233.004 122.407 232.836 122.546 232.613C122.685 232.39 122.76 232.121 122.762 231.837C122.755 230.242 122.37 228.63 121.644 227.159C120.919 225.689 119.878 224.412 118.625 223.454C118.308 223.216 117.931 223.118 117.579 223.181C117.226 223.244 116.927 223.463 116.747 223.79C116.566 224.117 116.52 224.525 116.617 224.925C116.715 225.325 116.948 225.683 117.266 225.921C118.132 226.569 118.838 227.46 119.3 228.488C117.83 227.832 116.284 227.527 114.77 227.592C114.592 227.607 114.422 227.661 114.27 227.751C114.118 227.842 113.988 227.966 113.886 228.118C113.783 228.27 113.712 228.446 113.674 228.637C113.637 228.828 113.636 229.029 113.669 229.229C113.703 229.429 113.771 229.625 113.871 229.804C113.97 229.983 114.098 230.143 114.248 230.274C114.398 230.405 114.566 230.505 114.744 230.568C114.921 230.631 115.104 230.656 115.282 230.641C115.282 230.641 118.345 230.441 120.484 232.7C120.678 232.906 120.913 233.055 121.165 233.13C121.416 233.206 121.673 233.206 121.909 233.129Z" fill="#274430"/>
<path d="M126.759 230.671C138.411 226.834 147.216 218.581 151.281 207.506C151.343 207.34 151.371 207.162 151.365 206.983C151.359 206.804 151.318 206.627 151.246 206.463C151.173 206.298 151.069 206.15 150.941 206.025C150.813 205.9 150.662 205.802 150.498 205.735C150.334 205.669 150.159 205.636 149.984 205.639C149.809 205.641 149.637 205.679 149.477 205.75C149.318 205.82 149.174 205.923 149.054 206.051C148.935 206.179 148.842 206.331 148.78 206.497C144.428 218.352 134.697 226.442 121.381 229.294C121.209 229.328 121.047 229.398 120.903 229.498C120.759 229.598 120.637 229.727 120.543 229.877C120.45 230.027 120.387 230.195 120.357 230.371C120.328 230.547 120.334 230.728 120.374 230.904C120.455 231.258 120.67 231.568 120.97 231.766C121.27 231.965 121.633 232.036 121.979 231.965C123.595 231.619 125.191 231.187 126.759 230.671Z" fill="#274430"/>
<path d="M83.9692 166.177C91.2542 166.177 97.1636 172.11 97.1636 179.435C97.1635 186.759 91.2541 192.693 83.9692 192.693C76.6844 192.692 70.7749 186.759 70.7749 179.435C70.7749 172.111 76.6844 166.177 83.9692 166.177Z" fill="white" stroke="#304436"/>
<ellipse cx="83.1635" cy="183.481" rx="8.05556" ry="8.09278" fill="#304436"/>
<path d="M125.859 166.177C133.144 166.177 139.053 172.11 139.053 179.435C139.053 186.759 133.144 192.693 125.859 192.693C118.574 192.692 112.665 186.759 112.665 179.435C112.665 172.111 118.574 166.177 125.859 166.177Z" fill="white" stroke="#304436"/>
<ellipse cx="125.054" cy="183.481" rx="8.05556" ry="8.09278" fill="#304436"/>
<path d="M180.362 132.366C179.713 132.366 179.175 132.68 178.763 133.063C178.353 133.444 177.995 133.958 177.677 134.536C177.038 135.693 176.45 137.304 175.906 139.195C174.814 142.99 173.838 148.133 173.023 153.583C171.394 164.485 170.382 176.793 170.382 182.382C170.382 188.012 171.404 193.159 173.1 196.935C174.752 200.616 177.243 203.385 180.362 203.385C181.924 203.385 183.339 202.675 184.543 201.539C185.742 200.409 186.776 198.819 187.623 196.932C189.317 193.155 190.339 188.009 190.339 182.382C190.339 176.666 189.28 163.91 187.584 152.823C186.775 147.532 185.814 142.578 184.741 138.93C184.207 137.114 183.629 135.567 183.002 134.454C182.689 133.899 182.336 133.403 181.932 133.036C181.524 132.665 180.996 132.366 180.362 132.366Z" fill="#92E3A9" stroke="#274430" stroke-width="2"/>
<path d="M180.466 133.366C182.818 133.366 185.024 142.727 186.592 153.183C186.592 153.183 184.668 144.339 182.821 139.194C181.976 136.841 180.466 133.366 180.466 133.366Z" fill="white" fill-opacity="0.3"/>
<path d="M180.223 202.378C175.319 202.095 171.382 193.249 171.382 182.382C171.382 171.336 175.45 133.366 180.466 133.366C175.45 133.366 172.609 171.336 172.609 182.382C172.609 193.248 175.358 202.094 180.223 202.378Z" fill="#565656" fill-opacity="0.3"/>
<path d="M175.184 188.154L177.994 189.793L177.429 187.13L178.77 190.247L180.112 191.022L180.206 182.291L175.331 172.094L177.945 176.204L177.502 173.349L178.75 177.477L180.234 179.814L180.381 166.167L180.913 186.067L185.536 178.361L182.995 183.789L185.39 183.373L182.434 184.992L180.97 188.128L181.226 197.723L182.93 195.905L181.279 199.708L182.06 229.036H179.693L180.096 192.417L175.184 188.154Z" fill="#274430"/>
<path d="M175.204 166.167C175.123 166.956 175.294 167.753 175.679 168.39C176.065 169.027 176.636 169.455 177.273 169.584C177.363 168.793 177.196 167.991 176.809 167.351C176.421 166.711 175.844 166.286 175.204 166.167Z" fill="white"/>
<path d="M172.875 172.659C172.817 173.368 172.936 174.086 173.206 174.659C173.476 175.233 173.877 175.618 174.323 175.734C174.385 175.023 174.268 174.302 173.997 173.727C173.726 173.152 173.323 172.768 172.875 172.659Z" fill="white"/>
<path d="M172.86 184.328C172.949 185.084 173.197 185.746 173.553 186.174C173.908 186.602 174.342 186.76 174.762 186.616C174.674 185.86 174.425 185.198 174.069 184.77C173.714 184.342 173.28 184.184 172.86 184.328Z" fill="white"/>
<path d="M187.438 184.307C187.349 185.07 187.101 185.739 186.745 186.171C186.39 186.603 185.955 186.762 185.536 186.614C185.648 185.871 185.891 185.217 186.227 184.751C186.592 184.361 187.018 184.204 187.438 184.307Z" fill="white"/>
<path d="M175.836 179.493C175.762 180.281 175.915 181.078 176.263 181.715C176.611 182.353 177.126 182.781 177.701 182.909C177.775 182.121 177.622 181.324 177.274 180.687C176.926 180.049 176.411 179.621 175.836 179.493Z" fill="white"/>
<path d="M176.677 159.333C176.62 160.201 176.74 161.077 177.011 161.778C177.281 162.479 177.682 162.95 178.128 163.092C178.185 162.224 178.065 161.348 177.795 160.647C177.524 159.946 177.123 159.475 176.677 159.333Z" fill="white"/>
<path d="M178.159 164.8C178.095 165.51 178.212 166.231 178.483 166.807C178.754 167.382 179.157 167.766 179.606 167.875C179.664 167.167 179.545 166.45 179.275 165.877C179.005 165.303 178.605 164.917 178.159 164.8Z" fill="white"/>
<path d="M174.354 160.7C174.296 161.645 174.415 162.6 174.685 163.365C174.956 164.13 175.357 164.644 175.804 164.8C175.862 163.855 175.743 162.9 175.473 162.135C175.202 161.371 174.801 160.856 174.354 160.7Z" fill="white"/>
<path d="M186.995 160.7C187.077 161.646 186.907 162.602 186.521 163.367C186.134 164.132 185.561 164.646 184.923 164.8C184.841 163.854 185.011 162.898 185.397 162.133C185.784 161.368 186.356 160.854 186.995 160.7Z" fill="white"/>
<path d="M176.254 152.841C176.198 153.788 176.317 154.744 176.588 155.509C176.858 156.273 177.259 156.787 177.705 156.942C177.762 155.995 177.643 155.039 177.372 154.274C177.101 153.51 176.701 152.996 176.254 152.841Z" fill="white"/>
<path d="M176.803 146.691C176.617 147.402 176.617 148.173 176.803 148.883C177.051 149.559 177.463 150.11 177.974 150.45C178.196 149.748 178.198 148.96 177.979 148.256C177.76 147.552 177.337 146.99 176.803 146.691Z" fill="white"/>
<path d="M182.803 144.983C182.271 145.34 181.861 145.967 181.659 146.732C181.457 147.497 181.479 148.34 181.72 149.083C182.252 148.725 182.662 148.098 182.864 147.333C183.066 146.568 183.044 145.726 182.803 144.983Z" fill="white"/>
<path d="M180.078 152.841C179.759 153.419 179.596 154.173 179.624 154.94C179.652 155.707 179.869 156.426 180.227 156.942C180.542 156.361 180.702 155.608 180.674 154.844C180.646 154.079 180.433 153.361 180.078 152.841Z" fill="white"/>
<path d="M180.075 141.224C179.758 141.754 179.596 142.445 179.624 143.148C179.652 143.851 179.867 144.51 180.223 144.983C180.54 144.453 180.702 143.762 180.674 143.059C180.646 142.356 180.431 141.697 180.075 141.224Z" fill="white"/>
<path d="M185.942 166.167C186.005 166.958 185.888 167.76 185.617 168.4C185.346 169.04 184.942 169.465 184.493 169.584C184.437 168.795 184.556 167.998 184.826 167.361C185.096 166.724 185.496 166.296 185.942 166.167Z" fill="white"/>
<path d="M187.842 173.342C187.916 174.288 187.763 175.245 187.416 176.009C187.068 176.774 186.554 177.288 185.981 177.442C185.898 176.494 186.048 175.531 186.396 174.763C186.745 173.995 187.265 173.484 187.842 173.342Z" fill="white"/>
<path d="M183.409 176.417C183.463 177.127 183.363 177.848 183.131 178.424C182.899 178.999 182.553 179.383 182.168 179.492C182.119 178.784 182.22 178.067 182.452 177.494C182.683 176.92 183.026 176.534 183.409 176.417Z" fill="white"/>
<path d="M182.374 166.167C182.62 166.91 182.645 167.757 182.443 168.525C182.241 169.293 181.828 169.919 181.294 170.267C181.056 169.523 181.036 168.68 181.237 167.915C181.439 167.15 181.846 166.524 182.374 166.167Z" fill="white"/>
<path d="M185.536 192.815C185.012 192.854 184.498 192.556 184.104 191.984C183.71 191.411 183.466 190.609 183.424 189.746C183.948 189.707 184.462 190.005 184.856 190.577C185.25 191.15 185.494 191.952 185.536 192.815Z" fill="white"/>
<path d="M177.297 191.547C177.129 192.299 176.796 192.952 176.347 193.406C175.864 193.787 175.306 193.925 174.762 193.796C174.892 193.013 175.232 192.336 175.706 191.911C176.181 191.487 176.752 191.349 177.297 191.528V191.547Z" fill="white"/>
<path d="M184.459 159.333C184.539 160.202 184.389 161.083 184.041 161.786C183.693 162.489 183.175 162.958 182.6 163.092C182.52 162.223 182.67 161.343 183.018 160.639C183.366 159.936 183.883 159.467 184.459 159.333Z" fill="white"/>
<path d="M184.462 153.866C184.536 154.576 184.383 155.293 184.035 155.867C183.687 156.44 183.171 156.826 182.597 156.942C182.523 156.232 182.676 155.515 183.024 154.941C183.372 154.368 183.887 153.982 184.462 153.866Z" fill="white"/>
<path d="M205.325 97.2654C203.512 97.2654 201.9 98.3446 200.506 99.9207C199.099 101.511 197.782 103.751 196.556 106.408C194.099 111.73 191.904 118.945 190.07 126.593C186.405 141.883 184.126 159.152 184.126 167.005C184.126 174.936 186.44 182.159 190.231 187.424C194.021 192.687 199.345 196.056 205.325 196.056C211.306 196.056 216.627 192.684 220.414 187.42C224.203 182.154 226.515 174.931 226.515 167.005C226.515 158.975 224.131 141.076 220.315 125.524C218.494 118.101 216.332 111.152 213.92 106.038C212.716 103.485 211.424 101.336 210.044 99.8103C208.675 98.2966 207.096 97.2655 205.325 97.2654Z" fill="#92E3A9" stroke="#274430" stroke-width="2"/>
<path d="M205.325 98.2654C210.771 98.2654 215.88 111.514 219.511 126.313C219.511 126.313 215.056 113.795 210.778 106.515C208.821 103.184 205.325 98.2654 205.325 98.2654Z" fill="white" fill-opacity="0.3"/>
<path d="M204.837 195.048C193.909 194.689 185.126 182.268 185.126 167.004C185.126 151.514 194.171 98.2654 205.325 98.2654C194.171 98.2654 187.855 151.514 187.855 167.004C187.855 182.267 193.987 194.688 204.837 195.048Z" fill="#565656" fill-opacity="0.3"/>
<path d="M194 172.677L200.242 174.815L198.987 171.342L201.968 175.407L204.949 176.418L205.157 165.03L194.325 151.731L200.134 157.091L199.149 153.367L201.923 158.752L205.22 161.799L205.545 144L206.729 169.956L217 159.904L211.354 166.984L216.675 166.441L210.107 168.553L206.855 172.644L207.424 185.159L211.209 182.788L207.542 187.747V225L204.018 226L204.913 178.238L194 172.677Z" fill="#274430"/>
<path d="M193.899 144.461C193.732 145.477 194.085 146.503 194.882 147.323C195.68 148.144 196.86 148.695 198.176 148.861C198.362 147.843 198.017 146.809 197.216 145.985C196.415 145.162 195.223 144.614 193.899 144.461Z" fill="white"/>
<path d="M188.432 153.26C188.305 154.275 188.568 155.301 189.167 156.122C189.765 156.943 190.652 157.494 191.64 157.66C191.777 156.643 191.518 155.612 190.918 154.789C190.318 153.965 189.425 153.416 188.432 153.26Z" fill="white"/>
<path d="M188.401 169.831C188.604 170.873 189.175 171.787 189.991 172.377C190.807 172.967 191.804 173.186 192.768 172.987C192.565 171.944 191.994 171.03 191.178 170.44C190.361 169.85 189.365 169.631 188.401 169.831Z" fill="white"/>
<path d="M221.148 169.801C220.946 170.854 220.375 171.777 219.559 172.373C218.742 172.968 217.745 173.188 216.782 172.984C217.039 171.96 217.597 171.056 218.369 170.414C219.207 169.876 220.185 169.66 221.148 169.801Z" fill="white"/>
<path d="M194.993 163.159C194.822 164.175 195.174 165.201 195.973 166.021C196.772 166.842 197.956 167.393 199.275 167.559C199.445 166.544 199.094 165.518 198.295 164.697C197.496 163.876 196.312 163.325 194.993 163.159Z" fill="white"/>
<path d="M197.164 134.562C197.038 135.832 197.303 137.114 197.903 138.14C198.502 139.165 199.389 139.854 200.378 140.062C200.503 138.792 200.238 137.51 199.639 136.484C199.04 135.458 198.153 134.769 197.164 134.562Z" fill="white"/>
<path d="M200.446 142.261C200.306 143.277 200.564 144.309 201.164 145.132C201.764 145.956 202.657 146.505 203.651 146.661C203.779 145.647 203.517 144.622 202.919 143.801C202.321 142.981 201.434 142.429 200.446 142.261Z" fill="white"/>
<path d="M191.708 136.762C191.58 138.029 191.843 139.311 192.442 140.336C193.041 141.362 193.929 142.052 194.919 142.261C195.047 140.994 194.784 139.713 194.185 138.687C193.586 137.661 192.698 136.971 191.708 136.762Z" fill="white"/>
<path d="M220.015 136.762C220.185 138.031 219.833 139.313 219.035 140.339C218.236 141.365 217.052 142.054 215.732 142.261C215.562 140.992 215.914 139.71 216.713 138.684C217.511 137.658 218.695 136.969 220.015 136.762Z" fill="white"/>
<path d="M196.073 125.763C195.947 127.032 196.212 128.315 196.811 129.34C197.411 130.366 198.298 131.055 199.286 131.262C199.412 129.993 199.147 128.71 198.548 127.685C197.949 126.659 197.061 125.97 196.073 125.763Z" fill="white"/>
<path d="M197.443 116.964C197.03 118.003 197.03 119.132 197.443 120.171C197.993 121.16 198.904 121.966 200.037 122.463C200.529 121.436 200.532 120.283 200.047 119.253C199.561 118.224 198.626 117.401 197.443 116.964Z" fill="white"/>
<path d="M210.885 114.764C209.708 115.243 208.8 116.084 208.353 117.11C207.906 118.136 207.954 119.267 208.489 120.263C209.666 119.784 210.574 118.943 211.021 117.917C211.468 116.891 211.419 115.761 210.885 114.764Z" fill="white"/>
<path d="M204.628 125.763C203.969 126.538 203.632 127.549 203.689 128.578C203.747 129.606 204.195 130.57 204.936 131.262C205.586 130.483 205.917 129.474 205.86 128.449C205.802 127.423 205.361 126.46 204.628 125.763Z" fill="white"/>
<path d="M204.622 109.264C203.967 110.04 203.632 111.05 203.689 112.079C203.747 113.108 204.191 114.072 204.928 114.764C205.582 113.989 205.917 112.978 205.86 111.949C205.803 110.92 205.358 109.956 204.622 109.264Z" fill="white"/>
<path d="M217.837 144.461C217.976 145.479 217.717 146.512 217.117 147.336C216.516 148.16 215.622 148.708 214.629 148.861C214.504 147.845 214.768 146.819 215.366 145.999C215.964 145.178 216.85 144.627 217.837 144.461Z" fill="white"/>
<path d="M222.198 154.36C222.368 155.629 222.017 156.912 221.22 157.938C220.422 158.964 219.241 159.653 217.924 159.86C217.735 158.588 218.079 157.296 218.879 156.266C219.68 155.236 220.873 154.551 222.198 154.36Z" fill="white"/>
<path d="M212.378 158.76C212.518 159.776 212.26 160.807 211.66 161.631C211.06 162.454 210.167 163.003 209.172 163.159C209.045 162.145 209.307 161.12 209.905 160.3C210.503 159.479 211.39 158.927 212.378 158.76Z" fill="white"/>
<path d="M209.78 144.461C210.325 145.457 210.38 146.594 209.932 147.624C209.484 148.654 208.57 149.494 207.388 149.961C206.862 148.962 206.816 147.831 207.262 146.806C207.708 145.78 208.611 144.94 209.78 144.461Z" fill="white"/>
<path d="M216.782 181.853C215.698 181.909 214.637 181.483 213.822 180.664C213.008 179.845 212.504 178.697 212.416 177.463C213.5 177.407 214.561 177.833 215.376 178.652C216.19 179.471 216.694 180.618 216.782 181.853Z" fill="white"/>
<path d="M198.225 179.789C197.864 180.827 197.146 181.728 196.181 182.354C195.14 182.881 193.938 183.07 192.767 182.893C193.049 181.812 193.779 180.878 194.801 180.292C195.823 179.707 197.053 179.517 198.225 179.763V179.789Z" fill="white"/>
<path d="M214.551 134.562C214.734 135.833 214.39 137.122 213.591 138.151C212.792 139.18 211.603 139.866 210.281 140.062C210.097 138.791 210.442 137.502 211.241 136.473C212.04 135.444 213.229 134.758 214.551 134.562Z" fill="white"/>
<path d="M214.557 126.863C214.727 127.878 214.376 128.904 213.577 129.725C212.778 130.545 211.594 131.097 210.275 131.262C210.105 130.247 210.456 129.221 211.255 128.4C212.054 127.58 213.238 127.028 214.557 126.863Z" fill="white"/>
</g>
<defs>
<filter id="filter0_d_3832_5530" x="0" y="0.776123" width="233.097" height="261.724" filterUnits="userSpaceOnUse" color-interpolation-filters="sRGB">
<feFlood flood-opacity="0" result="BackgroundImageFix"/>
<feColorMatrix in="SourceAlpha" type="matrix" values="0 0 0 0 0 0 0 0 0 0 0 0 0 0 0 0 0 0 127 0" result="hardAlpha"/>
<feOffset dx="4" dy="4"/>
<feComposite in2="hardAlpha" operator="out"/>
<feColorMatrix type="matrix" values="0 0 0 0 0.188235 0 0 0 0 0.266667 0 0 0 0 0.211765 0 0 0 1 0"/>
<feBlend mode="normal" in2="BackgroundImageFix" result="effect1_dropShadow_3832_5530"/>
<feBlend mode="normal" in="SourceGraphic" in2="effect1_dropShadow_3832_5530" result="shape"/>
</filter>
</defs>
</svg>
