<svg width="340" height="283" viewBox="0 0 340 283" fill="none" xmlns="http://www.w3.org/2000/svg">
<ellipse cx="24.162" cy="26.1316" rx="4.83241" ry="5.22633" fill="#F7EDDF"/>
<ellipse cx="24.162" cy="255.95" rx="4.83241" ry="5.22633" fill="#F7EDDF"/>
<ellipse cx="199.162" cy="26.1316" rx="4.83241" ry="5.22633" fill="#F7EDDF"/>
<ellipse cx="199.162" cy="255.95" rx="4.83241" ry="5.22633" fill="#F7EDDF"/>
<ellipse cx="24.162" cy="67.9422" rx="4.83241" ry="5.22632" fill="#F7EDDF"/>
<ellipse cx="199.162" cy="67.9422" rx="4.83241" ry="5.22632" fill="#F7EDDF"/>
<ellipse cx="24.162" cy="109.753" rx="4.83241" ry="5.22633" fill="#F7EDDF"/>
<ellipse cx="199.162" cy="109.753" rx="4.83241" ry="5.22633" fill="#F7EDDF"/>
<ellipse cx="24.162" cy="151.563" rx="4.83241" ry="5.22633" fill="#F7EDDF"/>
<ellipse cx="199.162" cy="151.563" rx="4.83241" ry="5.22633" fill="#F7EDDF"/>
<ellipse cx="24.162" cy="193.374" rx="4.83241" ry="5.22633" fill="#F7EDDF"/>
<ellipse cx="199.162" cy="193.374" rx="4.83241" ry="5.22633" fill="#F7EDDF"/>
<ellipse cx="62.8217" cy="26.1316" rx="4.83241" ry="5.22633" fill="#F7EDDF"/>
<ellipse cx="62.8217" cy="255.95" rx="4.83241" ry="5.22633" fill="#F7EDDF"/>
<ellipse cx="237.822" cy="26.1316" rx="4.83241" ry="5.22633" fill="#F7EDDF"/>
<ellipse cx="237.822" cy="255.95" rx="4.83241" ry="5.22633" fill="#F7EDDF"/>
<ellipse cx="62.8217" cy="67.9422" rx="4.83241" ry="5.22632" fill="#F7EDDF"/>
<ellipse cx="237.822" cy="67.9422" rx="4.83241" ry="5.22632" fill="#F7EDDF"/>
<ellipse cx="62.8217" cy="109.753" rx="4.83241" ry="5.22633" fill="#F7EDDF"/>
<ellipse cx="237.822" cy="109.753" rx="4.83241" ry="5.22633" fill="#F7EDDF"/>
<ellipse cx="62.8217" cy="151.563" rx="4.83241" ry="5.22633" fill="#F7EDDF"/>
<ellipse cx="237.822" cy="151.563" rx="4.83241" ry="5.22633" fill="#F7EDDF"/>
<ellipse cx="62.8217" cy="193.374" rx="4.83241" ry="5.22633" fill="#F7EDDF"/>
<ellipse cx="237.822" cy="193.374" rx="4.83241" ry="5.22633" fill="#F7EDDF"/>
<ellipse cx="101.481" cy="26.1316" rx="4.83241" ry="5.22633" fill="#F7EDDF"/>
<ellipse cx="101.481" cy="255.95" rx="4.83241" ry="5.22633" fill="#F7EDDF"/>
<ellipse cx="276.481" cy="26.1316" rx="4.83241" ry="5.22633" fill="#F7EDDF"/>
<ellipse cx="276.481" cy="255.95" rx="4.83241" ry="5.22633" fill="#F7EDDF"/>
<ellipse cx="101.481" cy="67.9422" rx="4.83241" ry="5.22632" fill="#F7EDDF"/>
<ellipse cx="276.481" cy="67.9422" rx="4.83241" ry="5.22632" fill="#F7EDDF"/>
<ellipse cx="101.481" cy="109.753" rx="4.83241" ry="5.22633" fill="#F7EDDF"/>
<ellipse cx="276.481" cy="109.753" rx="4.83241" ry="5.22633" fill="#F7EDDF"/>
<ellipse cx="101.481" cy="151.563" rx="4.83241" ry="5.22633" fill="#F7EDDF"/>
<ellipse cx="276.481" cy="151.563" rx="4.83241" ry="5.22633" fill="#F7EDDF"/>
<ellipse cx="101.481" cy="193.374" rx="4.83241" ry="5.22633" fill="#F7EDDF"/>
<ellipse cx="276.481" cy="193.374" rx="4.83241" ry="5.22633" fill="#F7EDDF"/>
<ellipse cx="140.14" cy="26.1316" rx="4.83241" ry="5.22633" fill="#F7EDDF"/>
<ellipse cx="140.14" cy="255.95" rx="4.83241" ry="5.22633" fill="#F7EDDF"/>
<ellipse cx="315.14" cy="26.1316" rx="4.83241" ry="5.22633" fill="#F7EDDF"/>
<ellipse cx="315.14" cy="255.95" rx="4.83241" ry="5.22633" fill="#F7EDDF"/>
<ellipse cx="140.14" cy="67.9422" rx="4.83241" ry="5.22632" fill="#F7EDDF"/>
<ellipse cx="315.14" cy="67.9422" rx="4.83241" ry="5.22632" fill="#F7EDDF"/>
<ellipse cx="140.14" cy="109.753" rx="4.83241" ry="5.22633" fill="#F7EDDF"/>
<ellipse cx="315.14" cy="109.753" rx="4.83241" ry="5.22633" fill="#F7EDDF"/>
<ellipse cx="140.14" cy="151.563" rx="4.83241" ry="5.22633" fill="#F7EDDF"/>
<ellipse cx="315.14" cy="151.563" rx="4.83241" ry="5.22633" fill="#F7EDDF"/>
<ellipse cx="140.14" cy="193.374" rx="4.83241" ry="5.22633" fill="#F7EDDF"/>
<ellipse cx="315.14" cy="193.374" rx="4.83241" ry="5.22633" fill="#F7EDDF"/>
<ellipse cx="24.162" cy="5.22633" rx="4.83241" ry="5.22633" fill="#F7EDDF"/>
<ellipse cx="24.162" cy="235.045" rx="4.83241" ry="5.22633" fill="#F7EDDF"/>
<ellipse cx="199.162" cy="5.22633" rx="4.83241" ry="5.22633" fill="#F7EDDF"/>
<ellipse cx="199.162" cy="235.045" rx="4.83241" ry="5.22633" fill="#F7EDDF"/>
<ellipse cx="24.162" cy="47.0369" rx="4.83241" ry="5.22633" fill="#F7EDDF"/>
<ellipse cx="24.162" cy="276.855" rx="4.83241" ry="5.22633" fill="#F7EDDF"/>
<ellipse cx="199.162" cy="47.0369" rx="4.83241" ry="5.22633" fill="#F7EDDF"/>
<ellipse cx="199.162" cy="276.855" rx="4.83241" ry="5.22633" fill="#F7EDDF"/>
<ellipse cx="24.162" cy="88.8475" rx="4.83241" ry="5.22632" fill="#F7EDDF"/>
<ellipse cx="199.162" cy="88.8475" rx="4.83241" ry="5.22632" fill="#F7EDDF"/>
<ellipse cx="24.162" cy="130.658" rx="4.83241" ry="5.22633" fill="#F7EDDF"/>
<ellipse cx="199.162" cy="130.658" rx="4.83241" ry="5.22633" fill="#F7EDDF"/>
<ellipse cx="24.162" cy="172.469" rx="4.83241" ry="5.22633" fill="#F7EDDF"/>
<ellipse cx="199.162" cy="172.469" rx="4.83241" ry="5.22633" fill="#F7EDDF"/>
<ellipse cx="24.162" cy="214.279" rx="4.83241" ry="5.22633" fill="#F7EDDF"/>
<ellipse cx="199.162" cy="214.279" rx="4.83241" ry="5.22633" fill="#F7EDDF"/>
<ellipse cx="62.8217" cy="5.22633" rx="4.83241" ry="5.22633" fill="#F7EDDF"/>
<ellipse cx="62.8217" cy="235.045" rx="4.83241" ry="5.22633" fill="#F7EDDF"/>
<ellipse cx="237.822" cy="5.22633" rx="4.83241" ry="5.22633" fill="#F7EDDF"/>
<ellipse cx="237.822" cy="235.045" rx="4.83241" ry="5.22633" fill="#F7EDDF"/>
<ellipse cx="62.8217" cy="47.0369" rx="4.83241" ry="5.22633" fill="#F7EDDF"/>
<ellipse cx="62.8217" cy="276.855" rx="4.83241" ry="5.22633" fill="#F7EDDF"/>
<ellipse cx="237.822" cy="47.0369" rx="4.83241" ry="5.22633" fill="#F7EDDF"/>
<ellipse cx="237.822" cy="276.855" rx="4.83241" ry="5.22633" fill="#F7EDDF"/>
<ellipse cx="62.8217" cy="88.8475" rx="4.83241" ry="5.22632" fill="#F7EDDF"/>
<ellipse cx="237.822" cy="88.8475" rx="4.83241" ry="5.22632" fill="#F7EDDF"/>
<ellipse cx="62.8217" cy="130.658" rx="4.83241" ry="5.22633" fill="#F7EDDF"/>
<ellipse cx="237.822" cy="130.658" rx="4.83241" ry="5.22633" fill="#F7EDDF"/>
<ellipse cx="62.8217" cy="172.469" rx="4.83241" ry="5.22633" fill="#F7EDDF"/>
<ellipse cx="237.822" cy="172.469" rx="4.83241" ry="5.22633" fill="#F7EDDF"/>
<ellipse cx="62.8217" cy="214.279" rx="4.83241" ry="5.22633" fill="#F7EDDF"/>
<ellipse cx="237.822" cy="214.279" rx="4.83241" ry="5.22633" fill="#F7EDDF"/>
<ellipse cx="101.481" cy="5.22633" rx="4.83241" ry="5.22633" fill="#F7EDDF"/>
<ellipse cx="101.481" cy="235.045" rx="4.83241" ry="5.22633" fill="#F7EDDF"/>
<ellipse cx="276.481" cy="5.22633" rx="4.83241" ry="5.22633" fill="#F7EDDF"/>
<ellipse cx="276.481" cy="235.045" rx="4.83241" ry="5.22633" fill="#F7EDDF"/>
<ellipse cx="101.481" cy="47.0369" rx="4.83241" ry="5.22633" fill="#F7EDDF"/>
<ellipse cx="101.481" cy="276.855" rx="4.83241" ry="5.22633" fill="#F7EDDF"/>
<ellipse cx="276.481" cy="47.0369" rx="4.83241" ry="5.22633" fill="#F7EDDF"/>
<ellipse cx="276.481" cy="276.855" rx="4.83241" ry="5.22633" fill="#F7EDDF"/>
<ellipse cx="101.481" cy="88.8475" rx="4.83241" ry="5.22632" fill="#F7EDDF"/>
<ellipse cx="276.481" cy="88.8475" rx="4.83241" ry="5.22632" fill="#F7EDDF"/>
<ellipse cx="101.481" cy="130.658" rx="4.83241" ry="5.22633" fill="#F7EDDF"/>
<ellipse cx="276.481" cy="130.658" rx="4.83241" ry="5.22633" fill="#F7EDDF"/>
<ellipse cx="101.481" cy="172.469" rx="4.83241" ry="5.22633" fill="#F7EDDF"/>
<ellipse cx="276.481" cy="172.469" rx="4.83241" ry="5.22633" fill="#F7EDDF"/>
<ellipse cx="101.481" cy="214.279" rx="4.83241" ry="5.22633" fill="#F7EDDF"/>
<ellipse cx="276.481" cy="214.279" rx="4.83241" ry="5.22633" fill="#F7EDDF"/>
<ellipse cx="140.14" cy="5.22633" rx="4.83241" ry="5.22633" fill="#F7EDDF"/>
<ellipse cx="140.14" cy="235.045" rx="4.83241" ry="5.22633" fill="#F7EDDF"/>
<ellipse cx="315.14" cy="5.22633" rx="4.83241" ry="5.22633" fill="#F7EDDF"/>
<ellipse cx="315.14" cy="235.045" rx="4.83241" ry="5.22633" fill="#F7EDDF"/>
<ellipse cx="140.14" cy="47.0369" rx="4.83241" ry="5.22633" fill="#F7EDDF"/>
<ellipse cx="140.14" cy="276.855" rx="4.83241" ry="5.22633" fill="#F7EDDF"/>
<ellipse cx="315.14" cy="47.0369" rx="4.83241" ry="5.22633" fill="#F7EDDF"/>
<ellipse cx="315.14" cy="276.855" rx="4.83241" ry="5.22633" fill="#F7EDDF"/>
<ellipse cx="140.14" cy="88.8475" rx="4.83241" ry="5.22632" fill="#F7EDDF"/>
<ellipse cx="315.14" cy="88.8475" rx="4.83241" ry="5.22632" fill="#F7EDDF"/>
<ellipse cx="140.14" cy="130.658" rx="4.83241" ry="5.22633" fill="#F7EDDF"/>
<ellipse cx="315.14" cy="130.658" rx="4.83241" ry="5.22633" fill="#F7EDDF"/>
<ellipse cx="140.14" cy="172.469" rx="4.83241" ry="5.22633" fill="#F7EDDF"/>
<ellipse cx="315.14" cy="172.469" rx="4.83241" ry="5.22633" fill="#F7EDDF"/>
<ellipse cx="140.14" cy="214.279" rx="4.83241" ry="5.22633" fill="#F7EDDF"/>
<ellipse cx="315.14" cy="214.279" rx="4.83241" ry="5.22633" fill="#F7EDDF"/>
<ellipse cx="4.83241" cy="5.22633" rx="4.83241" ry="5.22633" fill="#F7EDDF"/>
<ellipse cx="4.83241" cy="235.045" rx="4.83241" ry="5.22633" fill="#F7EDDF"/>
<ellipse cx="179.832" cy="5.22633" rx="4.83241" ry="5.22633" fill="#F7EDDF"/>
<ellipse cx="179.832" cy="235.045" rx="4.83241" ry="5.22633" fill="#F7EDDF"/>
<ellipse cx="4.83241" cy="47.0369" rx="4.83241" ry="5.22633" fill="#F7EDDF"/>
<ellipse cx="4.83241" cy="276.855" rx="4.83241" ry="5.22633" fill="#F7EDDF"/>
<ellipse cx="179.832" cy="47.0369" rx="4.83241" ry="5.22633" fill="#F7EDDF"/>
<ellipse cx="179.832" cy="276.855" rx="4.83241" ry="5.22633" fill="#F7EDDF"/>
<ellipse cx="4.83241" cy="88.8475" rx="4.83241" ry="5.22632" fill="#F7EDDF"/>
<ellipse cx="179.832" cy="88.8475" rx="4.83241" ry="5.22632" fill="#F7EDDF"/>
<ellipse cx="4.83241" cy="130.658" rx="4.83241" ry="5.22633" fill="#F7EDDF"/>
<ellipse cx="179.832" cy="130.658" rx="4.83241" ry="5.22633" fill="#F7EDDF"/>
<ellipse cx="4.83241" cy="172.469" rx="4.83241" ry="5.22633" fill="#F7EDDF"/>
<ellipse cx="179.832" cy="172.469" rx="4.83241" ry="5.22633" fill="#F7EDDF"/>
<ellipse cx="4.83241" cy="214.279" rx="4.83241" ry="5.22633" fill="#F7EDDF"/>
<ellipse cx="179.832" cy="214.279" rx="4.83241" ry="5.22633" fill="#F7EDDF"/>
<ellipse cx="43.4916" cy="5.22633" rx="4.83241" ry="5.22633" fill="#F7EDDF"/>
<ellipse cx="43.4916" cy="235.045" rx="4.83241" ry="5.22633" fill="#F7EDDF"/>
<ellipse cx="218.492" cy="5.22633" rx="4.83241" ry="5.22633" fill="#F7EDDF"/>
<ellipse cx="218.492" cy="235.045" rx="4.83241" ry="5.22633" fill="#F7EDDF"/>
<ellipse cx="43.4916" cy="47.0369" rx="4.83241" ry="5.22633" fill="#F7EDDF"/>
<ellipse cx="43.4916" cy="276.855" rx="4.83241" ry="5.22633" fill="#F7EDDF"/>
<ellipse cx="218.492" cy="47.0369" rx="4.83241" ry="5.22633" fill="#F7EDDF"/>
<ellipse cx="218.492" cy="276.855" rx="4.83241" ry="5.22633" fill="#F7EDDF"/>
<ellipse cx="43.4916" cy="88.8475" rx="4.83241" ry="5.22632" fill="#F7EDDF"/>
<ellipse cx="218.492" cy="88.8475" rx="4.83241" ry="5.22632" fill="#F7EDDF"/>
<ellipse cx="43.4916" cy="130.658" rx="4.83241" ry="5.22633" fill="#F7EDDF"/>
<ellipse cx="218.492" cy="130.658" rx="4.83241" ry="5.22633" fill="#F7EDDF"/>
<ellipse cx="43.4916" cy="172.469" rx="4.83241" ry="5.22633" fill="#F7EDDF"/>
<ellipse cx="218.492" cy="172.469" rx="4.83241" ry="5.22633" fill="#F7EDDF"/>
<ellipse cx="43.4916" cy="214.279" rx="4.83241" ry="5.22633" fill="#F7EDDF"/>
<ellipse cx="218.492" cy="214.279" rx="4.83241" ry="5.22633" fill="#F7EDDF"/>
<ellipse cx="82.1508" cy="5.22633" rx="4.83241" ry="5.22633" fill="#F7EDDF"/>
<ellipse cx="82.1508" cy="235.045" rx="4.83241" ry="5.22633" fill="#F7EDDF"/>
<ellipse cx="257.151" cy="5.22633" rx="4.83241" ry="5.22633" fill="#F7EDDF"/>
<ellipse cx="257.151" cy="235.045" rx="4.83241" ry="5.22633" fill="#F7EDDF"/>
<ellipse cx="82.1508" cy="47.0369" rx="4.83241" ry="5.22633" fill="#F7EDDF"/>
<ellipse cx="82.1508" cy="276.855" rx="4.83241" ry="5.22633" fill="#F7EDDF"/>
<ellipse cx="257.151" cy="47.0369" rx="4.83241" ry="5.22633" fill="#F7EDDF"/>
<ellipse cx="257.151" cy="276.855" rx="4.83241" ry="5.22633" fill="#F7EDDF"/>
<ellipse cx="82.1508" cy="88.8475" rx="4.83241" ry="5.22632" fill="#F7EDDF"/>
<ellipse cx="257.151" cy="88.8475" rx="4.83241" ry="5.22632" fill="#F7EDDF"/>
<ellipse cx="82.1508" cy="130.658" rx="4.83241" ry="5.22633" fill="#F7EDDF"/>
<ellipse cx="257.151" cy="130.658" rx="4.83241" ry="5.22633" fill="#F7EDDF"/>
<ellipse cx="82.1508" cy="172.469" rx="4.83241" ry="5.22633" fill="#F7EDDF"/>
<ellipse cx="257.151" cy="172.469" rx="4.83241" ry="5.22633" fill="#F7EDDF"/>
<ellipse cx="82.1508" cy="214.279" rx="4.83241" ry="5.22633" fill="#F7EDDF"/>
<ellipse cx="257.151" cy="214.279" rx="4.83241" ry="5.22633" fill="#F7EDDF"/>
<ellipse cx="120.81" cy="5.22633" rx="4.83241" ry="5.22633" fill="#F7EDDF"/>
<ellipse cx="120.81" cy="235.045" rx="4.83241" ry="5.22633" fill="#F7EDDF"/>
<ellipse cx="295.81" cy="5.22633" rx="4.83241" ry="5.22633" fill="#F7EDDF"/>
<ellipse cx="295.81" cy="235.045" rx="4.83241" ry="5.22633" fill="#F7EDDF"/>
<ellipse cx="120.81" cy="47.0369" rx="4.83241" ry="5.22633" fill="#F7EDDF"/>
<ellipse cx="120.81" cy="276.855" rx="4.83241" ry="5.22633" fill="#F7EDDF"/>
<ellipse cx="295.81" cy="47.0369" rx="4.83241" ry="5.22633" fill="#F7EDDF"/>
<ellipse cx="295.81" cy="276.855" rx="4.83241" ry="5.22633" fill="#F7EDDF"/>
<ellipse cx="120.81" cy="88.8475" rx="4.83241" ry="5.22632" fill="#F7EDDF"/>
<ellipse cx="295.81" cy="88.8475" rx="4.83241" ry="5.22632" fill="#F7EDDF"/>
<ellipse cx="120.81" cy="130.658" rx="4.83241" ry="5.22633" fill="#F7EDDF"/>
<ellipse cx="295.81" cy="130.658" rx="4.83241" ry="5.22633" fill="#F7EDDF"/>
<ellipse cx="120.81" cy="172.469" rx="4.83241" ry="5.22633" fill="#F7EDDF"/>
<ellipse cx="295.81" cy="172.469" rx="4.83241" ry="5.22633" fill="#F7EDDF"/>
<ellipse cx="120.81" cy="214.279" rx="4.83241" ry="5.22633" fill="#F7EDDF"/>
<ellipse cx="295.81" cy="214.279" rx="4.83241" ry="5.22633" fill="#F7EDDF"/>
<ellipse cx="159.47" cy="5.22633" rx="4.83241" ry="5.22633" fill="#F7EDDF"/>
<ellipse cx="159.47" cy="235.045" rx="4.83241" ry="5.22633" fill="#F7EDDF"/>
<ellipse cx="334.47" cy="5.22633" rx="4.83241" ry="5.22633" fill="#F7EDDF"/>
<ellipse cx="334.47" cy="235.045" rx="4.83241" ry="5.22633" fill="#F7EDDF"/>
<ellipse cx="159.47" cy="47.0369" rx="4.83241" ry="5.22633" fill="#F7EDDF"/>
<ellipse cx="159.47" cy="276.855" rx="4.83241" ry="5.22633" fill="#F7EDDF"/>
<ellipse cx="334.47" cy="47.0369" rx="4.83241" ry="5.22633" fill="#F7EDDF"/>
<ellipse cx="334.47" cy="276.855" rx="4.83241" ry="5.22633" fill="#F7EDDF"/>
<ellipse cx="159.47" cy="88.8475" rx="4.83241" ry="5.22632" fill="#F7EDDF"/>
<ellipse cx="334.47" cy="88.8475" rx="4.83241" ry="5.22632" fill="#F7EDDF"/>
<ellipse cx="159.47" cy="130.658" rx="4.83241" ry="5.22633" fill="#F7EDDF"/>
<ellipse cx="334.47" cy="130.658" rx="4.83241" ry="5.22633" fill="#F7EDDF"/>
<ellipse cx="159.47" cy="172.469" rx="4.83241" ry="5.22633" fill="#F7EDDF"/>
<ellipse cx="334.47" cy="172.469" rx="4.83241" ry="5.22633" fill="#F7EDDF"/>
<ellipse cx="159.47" cy="214.279" rx="4.83241" ry="5.22633" fill="#F7EDDF"/>
<ellipse cx="334.47" cy="214.279" rx="4.83241" ry="5.22633" fill="#F7EDDF"/>
<ellipse cx="4.83241" cy="26.1316" rx="4.83241" ry="5.22633" fill="#F7EDDF"/>
<ellipse cx="4.83241" cy="255.95" rx="4.83241" ry="5.22633" fill="#F7EDDF"/>
<ellipse cx="179.832" cy="26.1316" rx="4.83241" ry="5.22633" fill="#F7EDDF"/>
<ellipse cx="179.832" cy="255.95" rx="4.83241" ry="5.22633" fill="#F7EDDF"/>
<ellipse cx="4.83241" cy="67.9422" rx="4.83241" ry="5.22632" fill="#F7EDDF"/>
<ellipse cx="179.832" cy="67.9422" rx="4.83241" ry="5.22632" fill="#F7EDDF"/>
<ellipse cx="4.83241" cy="109.753" rx="4.83241" ry="5.22633" fill="#F7EDDF"/>
<ellipse cx="179.832" cy="109.753" rx="4.83241" ry="5.22633" fill="#F7EDDF"/>
<ellipse cx="4.83241" cy="151.563" rx="4.83241" ry="5.22633" fill="#F7EDDF"/>
<ellipse cx="179.832" cy="151.563" rx="4.83241" ry="5.22633" fill="#F7EDDF"/>
<ellipse cx="4.83241" cy="193.374" rx="4.83241" ry="5.22633" fill="#F7EDDF"/>
<ellipse cx="179.832" cy="193.374" rx="4.83241" ry="5.22633" fill="#F7EDDF"/>
<ellipse cx="43.4916" cy="26.1316" rx="4.83241" ry="5.22633" fill="#F7EDDF"/>
<ellipse cx="43.4916" cy="255.95" rx="4.83241" ry="5.22633" fill="#F7EDDF"/>
<ellipse cx="218.492" cy="26.1316" rx="4.83241" ry="5.22633" fill="#F7EDDF"/>
<ellipse cx="218.492" cy="255.95" rx="4.83241" ry="5.22633" fill="#F7EDDF"/>
<ellipse cx="43.4916" cy="67.9422" rx="4.83241" ry="5.22632" fill="#F7EDDF"/>
<ellipse cx="218.492" cy="67.9422" rx="4.83241" ry="5.22632" fill="#F7EDDF"/>
<ellipse cx="43.4916" cy="109.753" rx="4.83241" ry="5.22633" fill="#F7EDDF"/>
<ellipse cx="218.492" cy="109.753" rx="4.83241" ry="5.22633" fill="#F7EDDF"/>
<ellipse cx="43.4916" cy="151.563" rx="4.83241" ry="5.22633" fill="#F7EDDF"/>
<ellipse cx="218.492" cy="151.563" rx="4.83241" ry="5.22633" fill="#F7EDDF"/>
<ellipse cx="43.4916" cy="193.374" rx="4.83241" ry="5.22633" fill="#F7EDDF"/>
<ellipse cx="218.492" cy="193.374" rx="4.83241" ry="5.22633" fill="#F7EDDF"/>
<ellipse cx="82.1508" cy="26.1316" rx="4.83241" ry="5.22633" fill="#F7EDDF"/>
<ellipse cx="82.1508" cy="255.95" rx="4.83241" ry="5.22633" fill="#F7EDDF"/>
<ellipse cx="257.151" cy="26.1316" rx="4.83241" ry="5.22633" fill="#F7EDDF"/>
<ellipse cx="257.151" cy="255.95" rx="4.83241" ry="5.22633" fill="#F7EDDF"/>
<ellipse cx="82.1508" cy="67.9422" rx="4.83241" ry="5.22632" fill="#F7EDDF"/>
<ellipse cx="257.151" cy="67.9422" rx="4.83241" ry="5.22632" fill="#F7EDDF"/>
<ellipse cx="82.1508" cy="109.753" rx="4.83241" ry="5.22633" fill="#F7EDDF"/>
<ellipse cx="257.151" cy="109.753" rx="4.83241" ry="5.22633" fill="#F7EDDF"/>
<ellipse cx="82.1508" cy="151.563" rx="4.83241" ry="5.22633" fill="#F7EDDF"/>
<ellipse cx="257.151" cy="151.563" rx="4.83241" ry="5.22633" fill="#F7EDDF"/>
<ellipse cx="82.1508" cy="193.374" rx="4.83241" ry="5.22633" fill="#F7EDDF"/>
<ellipse cx="257.151" cy="193.374" rx="4.83241" ry="5.22633" fill="#F7EDDF"/>
<ellipse cx="120.81" cy="26.1316" rx="4.83241" ry="5.22633" fill="#F7EDDF"/>
<ellipse cx="120.81" cy="255.95" rx="4.83241" ry="5.22633" fill="#F7EDDF"/>
<ellipse cx="295.81" cy="26.1316" rx="4.83241" ry="5.22633" fill="#F7EDDF"/>
<ellipse cx="295.81" cy="255.95" rx="4.83241" ry="5.22633" fill="#F7EDDF"/>
<ellipse cx="120.81" cy="67.9422" rx="4.83241" ry="5.22632" fill="#F7EDDF"/>
<ellipse cx="295.81" cy="67.9422" rx="4.83241" ry="5.22632" fill="#F7EDDF"/>
<ellipse cx="120.81" cy="109.753" rx="4.83241" ry="5.22633" fill="#F7EDDF"/>
<ellipse cx="295.81" cy="109.753" rx="4.83241" ry="5.22633" fill="#F7EDDF"/>
<ellipse cx="120.81" cy="151.563" rx="4.83241" ry="5.22633" fill="#F7EDDF"/>
<ellipse cx="295.81" cy="151.563" rx="4.83241" ry="5.22633" fill="#F7EDDF"/>
<ellipse cx="120.81" cy="193.374" rx="4.83241" ry="5.22633" fill="#F7EDDF"/>
<ellipse cx="295.81" cy="193.374" rx="4.83241" ry="5.22633" fill="#F7EDDF"/>
<ellipse cx="159.47" cy="26.1316" rx="4.83241" ry="5.22633" fill="#F7EDDF"/>
<ellipse cx="159.47" cy="255.95" rx="4.83241" ry="5.22633" fill="#F7EDDF"/>
<ellipse cx="334.47" cy="26.1316" rx="4.83241" ry="5.22633" fill="#F7EDDF"/>
<ellipse cx="334.47" cy="255.95" rx="4.83241" ry="5.22633" fill="#F7EDDF"/>
<ellipse cx="159.47" cy="67.9422" rx="4.83241" ry="5.22632" fill="#F7EDDF"/>
<ellipse cx="334.47" cy="67.9422" rx="4.83241" ry="5.22632" fill="#F7EDDF"/>
<ellipse cx="159.47" cy="109.753" rx="4.83241" ry="5.22633" fill="#F7EDDF"/>
<ellipse cx="334.47" cy="109.753" rx="4.83241" ry="5.22633" fill="#F7EDDF"/>
<ellipse cx="159.47" cy="151.563" rx="4.83241" ry="5.22633" fill="#F7EDDF"/>
<ellipse cx="334.47" cy="151.563" rx="4.83241" ry="5.22633" fill="#F7EDDF"/>
<ellipse cx="159.47" cy="193.374" rx="4.83241" ry="5.22633" fill="#F7EDDF"/>
<ellipse cx="334.47" cy="193.374" rx="4.83241" ry="5.22633" fill="#F7EDDF"/>
</svg>
