<svg width="40" height="40" viewBox="0 0 40 40" fill="none" xmlns="http://www.w3.org/2000/svg">
<path d="M28.7144 10.4638C28.7144 10.1483 28.4585 9.89242 28.1429 9.89242H12.4286C12.113 9.89242 11.8572 10.1483 11.8572 10.4638V12.0353H28.7144V10.4638ZM24.2144 30.1067C23.4463 30.6057 22.133 31.2599 19.8873 31.9728C19.8628 31.9806 19.8385 31.989 19.8142 31.9968C20.6529 31.9686 21.7766 31.5974 22.759 31.1865C23.2571 30.9782 23.6974 30.7696 24.0129 30.6128C24.0877 30.5757 24.1547 30.5401 24.2144 30.5096V30.1067ZM24.2144 27.2496C23.4463 27.7486 22.133 28.4027 19.8873 29.1156C17.8384 29.7661 16.7018 30.4037 16.081 30.8712C16.5329 31.0917 17.1005 31.3452 17.6931 31.5576C18.2223 31.3354 18.8336 31.1082 19.5414 30.8835C21.7595 30.1793 22.9753 29.5562 23.6234 29.1296C23.9463 28.917 24.1237 28.756 24.2132 28.6625C24.2137 28.662 24.2139 28.6613 24.2144 28.6608V27.2496ZM24.2144 24.3924C23.4463 24.8914 22.133 25.5456 19.8873 26.2585C17.681 26.9589 16.5298 27.645 15.9426 28.1218C15.6504 28.359 15.5002 28.5425 15.4281 28.648C15.4143 28.6681 15.4049 28.6865 15.3963 28.701V29.9555C16.1561 29.3841 17.4237 28.6986 19.5414 28.0263C21.7595 27.3222 22.9753 26.699 23.6234 26.2724C23.9463 26.0599 24.1237 25.8989 24.2132 25.8054C24.2137 25.8049 24.2139 25.8042 24.2144 25.8037V24.3924ZM24.2144 21.2496C23.4463 21.7486 22.133 22.4027 19.8873 23.1156C17.681 23.8161 16.5298 24.5022 15.9426 24.9789C15.6504 25.2162 15.5002 25.3996 15.4281 25.5051C15.4143 25.5253 15.4049 25.5436 15.3963 25.5582V27.0989C16.1538 26.5291 17.4195 25.8428 19.5414 25.1692C21.7595 24.465 22.9753 23.8419 23.6234 23.4153C23.9463 23.2027 24.1237 23.0417 24.2132 22.9482C24.2137 22.9478 24.2139 22.947 24.2144 22.9465V21.2496ZM24.2144 18.3924C23.4463 18.8914 22.133 19.5456 19.8873 20.2585C17.681 20.9589 16.5298 21.645 15.9426 22.1218C15.6504 22.359 15.5002 22.5425 15.4281 22.648C15.4143 22.6681 15.4049 22.6865 15.3963 22.701V23.956C16.1538 23.3862 17.4195 22.7 19.5414 22.0263C21.7595 21.3222 22.9753 20.699 23.6234 20.2724C23.9463 20.0599 24.1237 19.8989 24.2132 19.8054C24.2137 19.8049 24.2139 19.8042 24.2144 19.8037V18.3924ZM24.2144 15.5353C23.4463 16.0343 22.133 16.6884 19.8873 17.4013C17.681 18.1018 16.5298 18.7879 15.9426 19.2646C15.6504 19.5019 15.5002 19.6854 15.4281 19.7909C15.4143 19.811 15.4049 19.8293 15.3963 19.8439V21.0989C16.1538 20.5291 17.4195 19.8428 19.5414 19.1692C21.7595 18.465 22.9753 17.8419 23.6234 17.4153C23.9463 17.2027 24.1237 17.0417 24.2132 16.9482C24.2137 16.9478 24.2139 16.947 24.2144 16.9466V15.5353ZM23.8645 13.1781C23.067 13.643 21.8246 14.2149 19.8873 14.8299C17.681 15.5303 16.5298 16.2164 15.9426 16.6932C15.6504 16.9305 15.5002 17.1139 15.4281 17.2194C15.4143 17.2396 15.4049 17.2579 15.3963 17.2724V18.2418C16.1538 17.672 17.4195 16.9857 19.5414 16.3121C21.7595 15.6079 22.9753 14.9847 23.6234 14.5582C23.9463 14.3456 24.1237 14.1846 24.2132 14.0911C24.2137 14.0906 24.2139 14.0899 24.2144 14.0894V13.1781H23.8645ZM15.3963 15.6703C16.1538 15.1005 17.4195 14.4143 19.5414 13.7406C20.152 13.5468 20.6862 13.3574 21.1541 13.1781H15.3963V15.6703ZM24.2144 7.99956C24.2144 7.68397 23.9585 7.42814 23.6429 7.42814H16.9286C16.613 7.42814 16.3572 7.68397 16.3572 7.99956V8.74956H24.2144V7.99956ZM25.3572 8.74956H28.1429C29.0897 8.74956 29.8572 9.51708 29.8572 10.4638V12.0353H38.2858C38.6014 12.0353 38.8572 12.2911 38.8572 12.6067C38.8572 12.9223 38.6014 13.1781 38.2858 13.1781H25.3572V31.1949L25.0603 31.3578L25.057 31.3595C25.0551 31.3605 25.0524 31.3622 25.0492 31.364C25.0425 31.3676 25.033 31.373 25.0207 31.3796C24.9958 31.393 24.9593 31.4122 24.913 31.4365C24.8204 31.4851 24.687 31.5539 24.5213 31.6363C24.1898 31.801 23.7264 32.021 23.1998 32.2412C22.1723 32.6709 20.8114 33.1424 19.7144 33.1424C19.0124 33.1424 18.2348 32.951 17.5269 32.7116C16.3792 32.3236 15.3043 31.7708 14.8198 31.5079C14.7319 31.4602 14.6624 31.4211 14.6145 31.3941C14.5905 31.3806 14.5716 31.3702 14.5587 31.3628C14.5522 31.3591 14.5471 31.356 14.5436 31.3539C14.542 31.353 14.5407 31.3523 14.5397 31.3517C14.5392 31.3514 14.5383 31.3513 14.538 31.3511L14.5375 31.3506L14.2534 31.1854V13.1781H2.28578C1.97019 13.1781 1.71436 12.9223 1.71436 12.6067C1.71436 12.2911 1.97019 12.0353 2.28578 12.0353H10.7144V10.4638C10.7144 9.51708 11.4819 8.74956 12.4286 8.74956H15.2144V7.99956C15.2144 7.05279 15.9819 6.28528 16.9286 6.28528H23.6429C24.5897 6.28528 25.3572 7.05279 25.3572 7.99956V8.74956Z" fill="#304436"/>
<path d="M24.7857 14.2853V30.8567C24.7857 30.8567 23.9413 31.3197 22.8572 31.7645V12.6067H23.7114H24.7857V14.2853Z" fill="#565656" fill-opacity="0.3"/>
</svg>
