<svg width="40" height="40" viewBox="0 0 40 40" fill="none" xmlns="http://www.w3.org/2000/svg">
<path d="M4.93201 14.2495C5.27953 14.2495 5.62708 14.6824 5.91431 15.3768L10.0053 15.3768C10.922 15.3768 11.6652 14.6413 11.6652 13.734L11.6652 9.78146C10.9472 9.50361 10.5407 9.18687 10.5407 8.85071C10.5407 7.74941 14.9037 6.85662 20.2857 6.85662C25.6678 6.85662 30.0308 7.74941 30.0308 8.85071C30.0308 9.20123 29.5888 9.53064 28.8126 9.81685L28.8126 13.734C28.8126 14.6413 29.5558 15.3768 30.4725 15.3768L34.6541 15.3768C34.95 14.626 35.2905 14.1985 35.6529 14.1985C36.7914 14.1985 37.7143 18.4189 37.7143 23.6251C37.7143 28.8313 36.7914 33.0517 35.6529 33.0517C35.3054 33.0517 34.9779 32.6585 34.6907 31.964L5.93376 31.964C5.63788 32.7148 5.34697 33.1423 4.91862 33.1423C3.78012 33.1423 2.85718 28.9219 2.85718 23.7157C2.85718 18.5096 3.7935 14.2495 4.93201 14.2495Z" fill="white"/>
<ellipse cx="4.57137" cy="23.6933" rx="7.69388" ry="1.33333" transform="rotate(-90 4.57137 23.6933)" fill="#304436"/>
<path d="M29.1828 10.1628C29.9899 9.80289 30.4381 9.39717 30.4381 8.95634C30.4381 7.57133 25.9012 6.44856 20.3047 6.44856C18.7615 6.44856 17.2989 6.53393 15.9897 6.68663C12.5512 7.0877 10.1714 7.95324 10.1714 8.95635C10.1714 9.37911 10.5896 9.78303 11.3361 10.1325C12.3606 9.65182 13.9974 9.26353 15.9897 9.03115C17.2989 8.87845 18.7615 8.79308 20.3047 8.79308C24.1283 8.79308 27.4574 9.3612 29.1828 10.1628Z" fill="#565656" fill-opacity="0.3"/>
<path d="M34.7215 32.0215C35.0058 32.7371 35.3299 33.1423 35.6739 33.1423C36.4032 33.1423 37.0433 31.3203 37.404 28.58C37.6006 27.0866 37.7143 25.3205 37.7143 23.428C37.7143 23.428 33.6216 28.58 28.2233 30.0806C22.8251 31.5812 8 32.0215 8 32.0215L34.7215 32.0215Z" fill="#565656" fill-opacity="0.3"/>
<path d="M20.2856 5.79565C23.0263 5.79565 25.5379 6.02193 27.3911 6.40112C28.3087 6.58889 29.1217 6.82521 29.731 7.11987C30.0333 7.26615 30.3425 7.45311 30.5894 7.69995C30.8391 7.94973 31.097 8.33793 31.0972 8.85034C31.0972 9.5036 30.6853 9.94755 30.3706 10.1931C30.2224 10.3088 30.0565 10.4128 29.8794 10.5066V13.7341C29.8795 14.05 30.1395 14.315 30.4722 14.3152H33.9761C34.075 14.1397 34.185 13.9754 34.3071 13.8289C34.5691 13.5148 35.0169 13.1375 35.6528 13.1375C36.1507 13.1375 36.5383 13.3727 36.7993 13.6169C37.0552 13.8564 37.2505 14.1574 37.4038 14.4539C37.7119 15.0497 37.9579 15.8429 38.1528 16.7341C38.5464 18.5338 38.7807 20.9695 38.7808 23.6248C38.7808 26.2803 38.5464 28.7165 38.1528 30.5164C37.9579 31.4076 37.7119 32.2007 37.4038 32.7966C37.2505 33.0931 37.0552 33.3941 36.7993 33.6335C36.5383 33.8778 36.1506 34.113 35.6528 34.113C35.0432 34.113 34.6059 33.7651 34.3433 33.4636C34.2277 33.3309 34.123 33.1825 34.0288 33.0251H6.61963C6.52723 33.1949 6.42329 33.3575 6.30518 33.5027C6.01294 33.8619 5.55558 34.2039 4.91846 34.2039C4.42067 34.2038 4.03295 33.9676 3.77197 33.7234C3.51627 33.484 3.32071 33.1829 3.16748 32.8865C2.85952 32.2907 2.61331 31.4981 2.41846 30.6072C2.02487 28.8074 1.79053 26.3711 1.79053 23.7156C1.79054 21.0593 2.02843 18.6138 2.42529 16.8044C2.62183 15.9085 2.86955 15.1112 3.17822 14.5125C3.33181 14.2146 3.5273 13.912 3.78271 13.6716C4.04265 13.427 4.43127 13.1882 4.93213 13.1882C5.56801 13.1883 6.01217 13.5761 6.25928 13.866C6.37538 14.0022 6.481 14.1541 6.57666 14.3152H10.0054C10.3381 14.3151 10.598 14.0501 10.5981 13.7341V10.4548C10.4402 10.3658 10.2914 10.2679 10.1577 10.1589C9.85451 9.91185 9.47412 9.47722 9.47412 8.85034C9.47424 8.33789 9.73313 7.94973 9.98291 7.69995C10.2297 7.45331 10.5381 7.26607 10.8403 7.11987C11.4496 6.8252 12.2625 6.5889 13.1802 6.40112C15.0334 6.02192 17.545 5.79566 20.2856 5.79565ZM4.93213 14.2498C3.79364 14.2498 2.85695 18.5095 2.85693 23.7156C2.85693 28.9216 3.78 33.1421 4.91846 33.1423C5.33895 33.1423 5.62618 32.73 5.9165 32.0046C6.18462 31.1531 6.41451 30.0094 6.58057 28.6511C6.76417 27.1492 6.86234 25.4535 6.86475 23.7234C6.86715 21.9932 6.77372 20.2911 6.59424 18.7781C6.43153 17.4066 6.20329 16.2465 5.93604 15.3767H5.91455C5.62737 14.6824 5.27958 14.2499 4.93213 14.2498ZM20.2856 6.8562C18.8017 6.8562 17.3952 6.92425 16.1362 7.04565C12.83 7.36452 10.5412 8.05287 10.5405 8.85034C10.5405 9.1865 10.9476 9.50315 11.6655 9.78101V13.7341C11.6654 14.6413 10.922 15.3766 10.0054 15.3767H7.04639C7.29799 16.2817 7.50474 17.3974 7.65381 18.6541C7.83884 20.2138 7.93361 21.9584 7.93115 23.7253C7.92868 25.4921 7.82855 27.2309 7.63916 28.78C7.49003 29.9997 7.28633 31.0826 7.03955 31.9636H34.6909C34.9781 32.6581 35.3053 33.0515 35.6528 33.0515C36.7913 33.0515 37.7144 28.8309 37.7144 23.6248C37.7143 18.4188 36.7913 14.198 35.6528 14.198C35.2905 14.198 34.9497 14.6259 34.6538 15.3767H30.4722C29.5556 15.3766 28.8131 14.6413 28.813 13.7341V9.81714C29.589 9.53095 30.0308 9.20082 30.0308 8.85034C30.0298 7.7492 25.6671 6.8562 20.2856 6.8562Z" fill="#304436"/>
</svg>
