<svg width="233" height="234" viewBox="0 0 233 234" fill="none" xmlns="http://www.w3.org/2000/svg">
<g filter="url(#filter0_d_3832_5599)">
<rect width="202" height="211" rx="16" fill="white" shape-rendering="crispEdges"/>
<rect x="1" y="1" width="200" height="209" rx="15" stroke="#274430" stroke-width="2" shape-rendering="crispEdges"/>
<path d="M205.631 58.9773C208.392 58.9775 210.631 61.216 210.631 63.9773V225.985C210.631 227.642 209.287 228.985 207.631 228.985H42C40.3432 228.985 39.0001 227.642 39 225.985V63.9773C39 61.2159 41.2386 58.9773 44 58.9773H205.631Z" fill="white" stroke="#274430" stroke-width="2"/>
<path d="M190.896 27C192.765 27 194.478 28.0414 195.337 29.7002L210.519 59.0098C210.679 59.3197 210.667 59.691 210.485 59.9893C210.304 60.2875 209.98 60.4696 209.631 60.4697H40C39.6509 60.4697 39.3269 60.2875 39.1455 59.9893C38.9642 59.691 38.9517 59.3197 39.1123 59.0098L54.2939 29.7002C55.1532 28.0415 56.8654 27.0001 58.7334 27H190.896Z" fill="#889596" stroke="#274430" stroke-width="2" stroke-linejoin="round"/>
<path d="M198.405 176.735V228.985H52.2446V176.735H198.405Z" fill="#80B990" stroke="#274430" stroke-width="2"/>
<path d="M193.33 177.735H197.405V227.985H193.33V177.735Z" fill="#565656" fill-opacity="0.3"/>
<g clip-path="url(#clip0_3832_5599)">
<rect x="61.9043" y="187.886" width="36.6769" height="29.4394" rx="2" fill="#93D3F6"/>
<path d="M61.9043 200.766L84.4747 187.886H98.5812L61.9043 209.966V200.766Z" fill="white" fill-opacity="0.3"/>
<path d="M63.3149 217.326L98.5812 196.473V200.153L68.9575 217.326H63.3149Z" fill="white" fill-opacity="0.3"/>
<rect x="61.9043" y="187.886" width="36.6769" height="4.90657" fill="#565656" fill-opacity="0.3"/>
</g>
<rect x="61.9043" y="187.886" width="36.6769" height="29.4394" rx="2" stroke="#274430" stroke-width="2"/>
<path fill-rule="evenodd" clip-rule="evenodd" d="M67.5078 217.833L67.5078 187.379L68.5266 187.379L68.5266 217.833L67.5078 217.833Z" fill="#304436"/>
<path fill-rule="evenodd" clip-rule="evenodd" d="M73.6206 217.833L73.6206 187.886L74.6394 187.886L74.6394 217.833L73.6206 217.833Z" fill="#304436"/>
<path fill-rule="evenodd" clip-rule="evenodd" d="M98.5812 208.189L61.9043 208.189L61.9043 207.174L98.5812 207.174L98.5812 208.189Z" fill="#304436"/>
<path fill-rule="evenodd" clip-rule="evenodd" d="M79.7334 217.833L79.7334 187.886L80.7522 187.886L80.7522 217.833L79.7334 217.833Z" fill="#304436"/>
<path fill-rule="evenodd" clip-rule="evenodd" d="M85.8462 217.833L85.8462 187.886L86.865 187.886L86.865 217.833L85.8462 217.833Z" fill="#304436"/>
<path fill-rule="evenodd" clip-rule="evenodd" d="M98.5812 198.038L61.9043 198.038L61.9043 197.023L98.5812 197.023L98.5812 198.038Z" fill="#304436"/>
<path fill-rule="evenodd" clip-rule="evenodd" d="M91.959 217.833L91.959 187.886L92.9778 187.886L92.9778 217.833L91.959 217.833Z" fill="#304436"/>
<g clip-path="url(#clip1_3832_5599)">
<rect x="151.559" y="187.886" width="36.6769" height="29.4394" rx="2" fill="#93D3F6"/>
<path d="M151.559 200.766L174.129 187.886H188.236L151.559 209.966V200.766Z" fill="white" fill-opacity="0.3"/>
<path d="M152.97 217.326L188.236 196.473V200.153L158.612 217.326H152.97Z" fill="white" fill-opacity="0.3"/>
<rect x="151.559" y="187.886" width="36.6769" height="4.90657" fill="#565656" fill-opacity="0.3"/>
</g>
<rect x="151.559" y="187.886" width="36.6769" height="29.4394" rx="2" stroke="#274430" stroke-width="2"/>
<path fill-rule="evenodd" clip-rule="evenodd" d="M157.163 217.833L157.163 187.379L158.181 187.379L158.181 217.833L157.163 217.833Z" fill="#304436"/>
<path fill-rule="evenodd" clip-rule="evenodd" d="M163.275 217.833L163.275 187.886L164.294 187.886L164.294 217.833L163.275 217.833Z" fill="#304436"/>
<path fill-rule="evenodd" clip-rule="evenodd" d="M188.236 208.189L151.559 208.189L151.559 207.174L188.236 207.174L188.236 208.189Z" fill="#304436"/>
<path fill-rule="evenodd" clip-rule="evenodd" d="M169.388 217.833L169.388 187.886L170.407 187.886L170.407 217.833L169.388 217.833Z" fill="#304436"/>
<path fill-rule="evenodd" clip-rule="evenodd" d="M175.501 217.833L175.501 187.886L176.52 187.886L176.52 217.833L175.501 217.833Z" fill="#304436"/>
<path fill-rule="evenodd" clip-rule="evenodd" d="M188.236 198.038L151.559 198.038L151.559 197.023L188.236 197.023L188.236 198.038Z" fill="#304436"/>
<path fill-rule="evenodd" clip-rule="evenodd" d="M181.614 217.833L181.614 187.886L182.633 187.886L182.633 217.833L181.614 217.833Z" fill="#304436"/>
<path d="M137.371 187.902C140.132 187.902 142.371 190.14 142.371 192.902V228.985H106.75V192.902C106.75 190.14 108.989 187.902 111.75 187.902H137.371Z" fill="#4B7857" stroke="#274430" stroke-width="2"/>
<g clip-path="url(#clip2_3832_5599)">
<rect x="110.807" y="192.455" width="10.6974" height="17.2576" rx="2" fill="#93D3F6"/>
<path d="M110.807 200.005L117.39 192.455H121.504L110.807 205.398V200.005Z" fill="white" fill-opacity="0.3"/>
<path d="M111.218 209.712L121.504 197.488V199.645L112.864 209.712H111.218Z" fill="white" fill-opacity="0.3"/>
<rect x="110.807" y="192.455" width="10.6974" height="2.87626" fill="#565656" fill-opacity="0.3"/>
</g>
<rect x="110.807" y="192.455" width="10.6974" height="17.2576" rx="2" stroke="#274430" stroke-width="2"/>
<g clip-path="url(#clip3_3832_5599)">
<rect x="127.617" y="192.455" width="10.6974" height="17.2576" rx="2" fill="#93D3F6"/>
<path d="M127.617 200.005L134.2 192.455H138.314L127.617 205.398V200.005Z" fill="white" fill-opacity="0.3"/>
<path d="M128.028 209.712L138.314 197.488V199.645L129.674 209.712H128.028Z" fill="white" fill-opacity="0.3"/>
<rect x="127.617" y="192.455" width="10.6974" height="2.87626" fill="#565656" fill-opacity="0.3"/>
</g>
<rect x="127.617" y="192.455" width="10.6974" height="17.2576" rx="2" stroke="#274430" stroke-width="2"/>
<rect x="124.051" y="188.902" width="1.0188" height="40.0985" fill="#274430"/>
<rect x="126.598" y="212.25" width="3.05641" height="1.01515" rx="0.507576" fill="#274430"/>
<g clip-path="url(#clip4_3832_5599)">
<rect x="80.2432" y="129.515" width="22.923" height="27.4091" rx="2" fill="#93D3F6"/>
<path d="M80.2432 141.507L94.3497 129.515H103.166L80.2432 150.072V141.507Z" fill="white" fill-opacity="0.3"/>
<path d="M81.125 156.924L103.166 137.51V140.936L84.6516 156.924H81.125Z" fill="white" fill-opacity="0.3"/>
<rect x="80.2432" y="129.515" width="22.923" height="4.56818" fill="#565656" fill-opacity="0.3"/>
</g>
<rect x="80.2432" y="129.515" width="22.923" height="27.4091" rx="2" stroke="#274430" stroke-width="2"/>
<path fill-rule="evenodd" clip-rule="evenodd" d="M91.4497 157.939L91.4497 129.515L92.4685 129.515L92.4685 157.939L91.4497 157.939Z" fill="#304436"/>
<path fill-rule="evenodd" clip-rule="evenodd" d="M104.185 143.727L80.2432 143.727L80.2432 142.712L104.185 142.712L104.185 143.727Z" fill="#304436"/>
<rect x="78.2241" y="156.432" width="26.9607" height="3.01515" rx="1.50758" fill="white" stroke="#274430" stroke-width="2"/>
<rect x="79.2241" y="158.447" width="24.9607" height="2.0303" rx="1.01515" fill="#565656" fill-opacity="0.3"/>
<rect x="143.918" y="158.447" width="24.9607" height="2.0303" rx="1.01515" fill="#565656" fill-opacity="0.3"/>
<rect x="143.918" y="108.197" width="24.9607" height="2.0303" rx="1.01515" fill="#565656" fill-opacity="0.3"/>
<rect x="79.2241" y="108.197" width="24.9607" height="2.0303" rx="1.01515" fill="#565656" fill-opacity="0.3"/>
<g clip-path="url(#clip5_3832_5599)">
<rect x="80.2432" y="72.6667" width="22.923" height="27.4091" rx="2" fill="#93D3F6"/>
<path d="M80.2432 84.6582L94.3497 72.6667H103.166L80.2432 93.2236V84.6582Z" fill="white" fill-opacity="0.3"/>
<path d="M81.125 100.076L103.166 80.6611V84.0873L84.6516 100.076H81.125Z" fill="white" fill-opacity="0.3"/>
<rect x="80.2432" y="72.6667" width="22.923" height="4.56818" fill="#565656" fill-opacity="0.3"/>
</g>
<rect x="80.2432" y="72.6667" width="22.923" height="27.4091" rx="2" stroke="#274430" stroke-width="2"/>
<path fill-rule="evenodd" clip-rule="evenodd" d="M91.4497 101.091L91.4497 72.6667L92.4685 72.6667L92.4685 101.091L91.4497 101.091Z" fill="#304436"/>
<path fill-rule="evenodd" clip-rule="evenodd" d="M104.185 86.8789L80.2432 86.8789L80.2432 85.8638L104.185 85.8638L104.185 86.8789Z" fill="#304436"/>
<g clip-path="url(#clip6_3832_5599)">
<rect x="144.937" y="129.515" width="22.923" height="27.4091" rx="2" fill="#93D3F6"/>
<path d="M144.937 141.507L159.044 129.515H167.86L144.937 150.072V141.507Z" fill="white" fill-opacity="0.3"/>
<path d="M145.819 156.924L167.86 137.51V140.936L149.345 156.924H145.819Z" fill="white" fill-opacity="0.3"/>
<rect x="144.937" y="129.515" width="22.923" height="4.56818" fill="#565656" fill-opacity="0.3"/>
</g>
<rect x="144.937" y="129.515" width="22.923" height="27.4091" rx="2" stroke="#274430" stroke-width="2"/>
<path fill-rule="evenodd" clip-rule="evenodd" d="M156.144 157.939L156.144 129.515L157.162 129.515L157.162 157.939L156.144 157.939Z" fill="#304436"/>
<path fill-rule="evenodd" clip-rule="evenodd" d="M168.879 143.727L144.937 143.727L144.937 142.712L168.879 142.712L168.879 143.727Z" fill="#304436"/>
<rect x="142.918" y="156.432" width="26.9607" height="3.01515" rx="1.50758" fill="white" stroke="#274430" stroke-width="2"/>
<g clip-path="url(#clip7_3832_5599)">
<rect x="144.937" y="72.6667" width="22.923" height="27.4091" rx="2" fill="#93D3F6"/>
<path d="M144.937 84.6582L159.044 72.6667H167.86L144.937 93.2236V84.6582Z" fill="white" fill-opacity="0.3"/>
<path d="M145.819 100.076L167.86 80.6611V84.0873L149.345 100.076H145.819Z" fill="white" fill-opacity="0.3"/>
<rect x="144.937" y="72.6667" width="22.923" height="4.56818" fill="#565656" fill-opacity="0.3"/>
</g>
<rect x="144.937" y="72.6667" width="22.923" height="27.4091" rx="2" stroke="#274430" stroke-width="2"/>
<path fill-rule="evenodd" clip-rule="evenodd" d="M156.144 101.091L156.144 72.6667L157.162 72.6667L157.162 101.091L156.144 101.091Z" fill="#304436"/>
<path fill-rule="evenodd" clip-rule="evenodd" d="M168.879 86.8789L144.937 86.8789L144.937 85.8638L168.879 85.8638L168.879 86.8789Z" fill="#304436"/>
<rect x="142.918" y="99.0759" width="26.9607" height="3.01515" rx="1.50758" fill="white" stroke="#274430" stroke-width="2"/>
<path d="M116.919 30.0303L129.909 26.4773L139.842 30.0303V59.9773H116.919V30.0303Z" fill="#565656" fill-opacity="0.3"/>
<path d="M137.276 59.9773C137.276 60.5296 136.829 60.9773 136.276 60.9773H113.354C112.801 60.9773 112.354 60.5296 112.354 59.9773V30.03C112.354 29.6477 112.572 29.2991 112.916 29.1316L124.377 23.5476L124.482 23.5037C124.733 23.4152 125.011 23.4298 125.253 23.5476L136.715 29.1316C137.058 29.2991 137.276 29.6478 137.276 30.03V59.9773Z" fill="white" stroke="#274430" stroke-width="2" stroke-linejoin="round"/>
<g clip-path="url(#clip8_3832_5599)">
<rect x="116.41" y="31.0454" width="16.8102" height="27.4091" rx="2" fill="#93D3F6"/>
<path d="M116.41 43.0369L126.755 31.0454H133.22L116.41 51.6022V43.0369Z" fill="white" fill-opacity="0.3"/>
<path d="M117.057 58.4546L133.22 39.0398V42.4659L119.643 58.4546H117.057Z" fill="white" fill-opacity="0.3"/>
<rect x="116.41" y="31.0454" width="16.8102" height="4.56818" fill="#565656" fill-opacity="0.3"/>
</g>
<rect x="116.41" y="31.0454" width="16.8102" height="27.4091" rx="2" stroke="#274430" stroke-width="2"/>
<path fill-rule="evenodd" clip-rule="evenodd" d="M124.561 59.4697L124.561 31.0454L125.579 31.0454L125.579 59.4697L124.561 59.4697Z" fill="#304436"/>
<path fill-rule="evenodd" clip-rule="evenodd" d="M133.22 45.2576L116.41 45.2576L116.41 44.2424L133.22 44.2424L133.22 45.2576Z" fill="#304436"/>
<rect x="110.826" y="57.9622" width="27.9795" height="3.01515" rx="1.50758" fill="white" stroke="#274430" stroke-width="2"/>
<path d="M71.583 30.0303L84.5727 26.4773L94.5061 30.0303V59.9773H71.583V30.0303Z" fill="#565656" fill-opacity="0.3"/>
<path d="M92.4492 59.9773C92.4492 60.5296 92.0015 60.9773 91.4492 60.9773H68.5264C67.9741 60.9773 67.5264 60.5296 67.5264 59.9773V30.03C67.5265 29.6477 67.7451 29.2991 68.0889 29.1316L79.5498 23.5476L79.6553 23.5037C79.9061 23.4152 80.1839 23.4298 80.4258 23.5476L91.8877 29.1316C92.2313 29.2991 92.4491 29.6478 92.4492 30.03V59.9773Z" fill="white" stroke="#274430" stroke-width="2" stroke-linejoin="round"/>
<g clip-path="url(#clip9_3832_5599)">
<rect x="71.583" y="31.0454" width="16.8102" height="27.4091" rx="2" fill="#93D3F6"/>
<path d="M71.583 43.0369L81.9278 31.0454H88.3932L71.583 51.6022V43.0369Z" fill="white" fill-opacity="0.3"/>
<path d="M72.2295 58.4546L88.3932 39.0398V42.4659L74.8157 58.4546H72.2295Z" fill="white" fill-opacity="0.3"/>
<rect x="71.583" y="31.0454" width="16.8102" height="4.56818" fill="#565656" fill-opacity="0.3"/>
</g>
<rect x="71.583" y="31.0454" width="16.8102" height="27.4091" rx="2" stroke="#274430" stroke-width="2"/>
<path fill-rule="evenodd" clip-rule="evenodd" d="M79.7334 59.4697L79.7334 31.0454L80.7522 31.0454L80.7522 59.4697L79.7334 59.4697Z" fill="#304436"/>
<path fill-rule="evenodd" clip-rule="evenodd" d="M88.3932 45.2576L71.583 45.2576L71.583 44.2424L88.3932 44.2424L88.3932 45.2576Z" fill="#304436"/>
<rect x="65.9985" y="57.9622" width="27.9795" height="3.01515" rx="1.50758" fill="white" stroke="#274430" stroke-width="2"/>
<path d="M161.747 30.0303L174.737 26.4773L184.67 30.0303V59.9773H161.747V30.0303Z" fill="#565656" fill-opacity="0.3"/>
<path d="M182.104 59.9773C182.104 60.5296 181.656 60.9773 181.104 60.9773H158.181C157.629 60.9773 157.181 60.5296 157.181 59.9773V30.03C157.181 29.6477 157.4 29.2991 157.744 29.1316L169.205 23.5476L169.31 23.5037C169.561 23.4152 169.839 23.4298 170.081 23.5476L181.542 29.1316C181.886 29.2991 182.104 29.6478 182.104 30.03V59.9773Z" fill="white" stroke="#274430" stroke-width="2" stroke-linejoin="round"/>
<g clip-path="url(#clip10_3832_5599)">
<rect x="161.238" y="31.0454" width="16.8102" height="27.4091" rx="2" fill="#93D3F6"/>
<path d="M161.238 43.0369L171.583 31.0454H178.048L161.238 51.6022V43.0369Z" fill="white" fill-opacity="0.3"/>
<path d="M161.884 58.4546L178.048 39.0398V42.4659L164.47 58.4546H161.884Z" fill="white" fill-opacity="0.3"/>
<rect x="161.238" y="31.0454" width="16.8102" height="4.56818" fill="#565656" fill-opacity="0.3"/>
</g>
<rect x="161.238" y="31.0454" width="16.8102" height="27.4091" rx="2" stroke="#274430" stroke-width="2"/>
<path fill-rule="evenodd" clip-rule="evenodd" d="M169.388 59.4697L169.388 31.0454L170.407 31.0454L170.407 59.4697L169.388 59.4697Z" fill="#304436"/>
<path fill-rule="evenodd" clip-rule="evenodd" d="M178.048 45.2576L161.238 45.2576L161.238 44.2424L178.048 44.2424L178.048 45.2576Z" fill="#304436"/>
<rect x="155.653" y="57.9622" width="27.9795" height="3.01515" rx="1.50758" fill="white" stroke="#274430" stroke-width="2"/>
<rect x="78.2241" y="99.0757" width="26.9607" height="3.01515" rx="1.50758" fill="white" stroke="#274430" stroke-width="2"/>
<path d="M53.2446 177.735H197.405V182.303H53.2446V177.735Z" fill="#565656" fill-opacity="0.3"/>
<path d="M199.199 170.136C201.573 170.136 203.499 172.061 203.499 174.435C203.499 176.81 201.574 178.735 199.199 178.735H51.4492C49.075 178.735 47.1504 176.81 47.1504 174.435C47.1506 172.061 49.0751 170.137 51.4492 170.136H199.199Z" fill="#80B990" stroke="#274430" stroke-width="2"/>
<path d="M199.2 171.136H186.198C186.198 171.136 184.126 173.093 182.625 173.964C179.08 176.022 172.671 177.735 172.671 177.735H199.2C201.022 177.735 202.499 176.258 202.499 174.436C202.499 172.614 201.022 171.136 199.2 171.136Z" fill="#565656" fill-opacity="0.3"/>
<rect x="39" y="108.212" width="171.631" height="5.55303" fill="white" stroke="#274430" stroke-width="2"/>
<rect x="42.5469" y="109.212" width="1.0188" height="3.55303" fill="#274430"/>
<rect x="47.6411" y="109.212" width="1.0188" height="3.55303" fill="#274430"/>
<rect x="52.7349" y="109.212" width="1.0188" height="3.55303" fill="#274430"/>
<rect x="57.8291" y="109.212" width="1.0188" height="3.55303" fill="#274430"/>
<rect x="62.9229" y="109.212" width="1.0188" height="3.55303" fill="#274430"/>
<rect x="68.0171" y="109.212" width="1.0188" height="3.55303" fill="#274430"/>
<rect x="73.1108" y="109.212" width="1.0188" height="3.55303" fill="#274430"/>
<rect x="78.2051" y="109.212" width="1.0188" height="3.55303" fill="#274430"/>
<rect x="83.2988" y="109.212" width="1.0188" height="3.55303" fill="#274430"/>
<rect x="88.3931" y="109.212" width="1.0188" height="3.55303" fill="#274430"/>
<rect x="93.4868" y="109.212" width="1.0188" height="3.55303" fill="#274430"/>
<rect x="98.5811" y="109.212" width="1.0188" height="3.55303" fill="#274430"/>
<rect x="103.675" y="109.212" width="1.0188" height="3.55303" fill="#274430"/>
<rect x="108.769" y="109.212" width="1.0188" height="3.55303" fill="#274430"/>
<rect x="113.863" y="109.212" width="1.01881" height="3.55303" fill="#274430"/>
<rect x="118.957" y="109.212" width="1.01881" height="3.55303" fill="#274430"/>
<rect x="124.051" y="109.212" width="1.0188" height="3.55303" fill="#274430"/>
<rect x="129.145" y="109.212" width="1.0188" height="3.55303" fill="#274430"/>
<rect x="134.239" y="109.212" width="1.01881" height="3.55303" fill="#274430"/>
<rect x="139.333" y="109.212" width="1.01881" height="3.55303" fill="#274430"/>
<rect x="144.427" y="109.212" width="1.0188" height="3.55303" fill="#274430"/>
<rect x="149.521" y="109.212" width="1.0188" height="3.55303" fill="#274430"/>
<rect x="154.615" y="109.212" width="1.0188" height="3.55303" fill="#274430"/>
<rect x="159.709" y="109.212" width="1.01881" height="3.55303" fill="#274430"/>
<rect x="164.803" y="109.212" width="1.01881" height="3.55303" fill="#274430"/>
<rect x="169.897" y="109.212" width="1.01881" height="3.55303" fill="#274430"/>
<rect x="174.991" y="109.212" width="1.01881" height="3.55303" fill="#274430"/>
<rect x="180.085" y="109.212" width="1.0188" height="3.55303" fill="#274430"/>
<rect x="185.179" y="109.212" width="1.0188" height="3.55303" fill="#274430"/>
<rect x="190.273" y="109.212" width="1.0188" height="3.55303" fill="#274430"/>
<rect x="195.367" y="109.212" width="1.0188" height="3.55303" fill="#274430"/>
<rect x="200.461" y="109.212" width="1.0188" height="3.55303" fill="#274430"/>
<rect x="205.555" y="109.212" width="1.0188" height="3.55303" fill="#274430"/>
<rect x="39" y="59.4849" width="171.631" height="4.53788" fill="white" stroke="#274430" stroke-width="2"/>
<rect x="40" y="113.273" width="169.631" height="3.55303" fill="#565656" fill-opacity="0.3"/>
<rect x="40" y="63.5303" width="169.631" height="3.55303" fill="#565656" fill-opacity="0.3"/>
<path d="M202.499 227.985H207.631C208.735 227.985 209.631 227.089 209.631 225.985V59.4697L202.499 45.7651V227.985Z" fill="#565656" fill-opacity="0.3"/>
<g filter="url(#filter1_d_3832_5599)">
<path d="M220.637 166.377C220.637 180.222 215.662 191.451 209.528 191.451C203.394 191.451 198.424 180.214 198.424 166.377C198.424 159.297 199.725 143.376 201.818 129.516C203.815 116.289 206.533 104.938 209.528 104.938C215.662 104.938 220.637 152.533 220.637 166.377Z" fill="#92E3A9"/>
<path d="M209.528 103.938C210.256 103.938 210.868 104.294 211.35 104.749C211.83 105.202 212.257 105.821 212.645 106.532C213.421 107.958 214.142 109.955 214.813 112.318C216.16 117.059 217.365 123.492 218.372 130.32C220.387 143.977 221.637 159.389 221.637 166.378C221.637 173.406 220.376 179.819 218.297 184.511C217.258 186.856 215.995 188.816 214.542 190.203C213.084 191.595 211.388 192.451 209.528 192.451C207.668 192.451 205.972 191.595 204.515 190.202C203.062 188.814 201.799 186.853 200.761 184.508C198.683 179.814 197.424 173.402 197.424 166.378C197.424 159.231 198.732 143.256 200.829 129.366C201.83 122.739 203.016 116.543 204.338 111.988C204.997 109.718 205.705 107.801 206.467 106.432C206.847 105.749 207.267 105.153 207.741 104.717C208.217 104.278 208.818 103.938 209.528 103.938Z" stroke="#274430" stroke-width="2"/>
</g>
<path d="M209.4 104.938C206.49 104.938 203.761 116.672 201.821 129.778C201.821 129.778 204.201 118.692 206.487 112.244C207.532 109.294 209.4 104.938 209.4 104.938Z" fill="white" fill-opacity="0.3"/>
<path d="M209.675 191.443C215.753 191.117 220.637 180.017 220.637 166.377C220.637 152.533 215.605 104.938 209.4 104.938C215.605 104.938 219.119 152.533 219.119 166.377C219.119 180.016 215.709 191.116 209.675 191.443Z" fill="#565656" fill-opacity="0.3"/>
<path d="M215.933 173.613L212.458 175.667L213.157 172.329L211.497 176.236L209.837 177.207L209.722 166.264L215.752 153.483L212.518 158.634L213.066 155.055L211.522 160.23L209.687 163.159L209.505 146.053L208.847 170.997L203.128 161.337L206.271 168.141L203.309 167.619L206.966 169.649L208.776 173.581L208.459 185.607L206.352 183.329L208.394 188.095L207.428 224.857H210.355L209.858 178.956L215.933 173.613Z" fill="#274430"/>
<path d="M215.909 146.053C216.009 147.042 215.798 148.041 215.321 148.839C214.843 149.638 214.137 150.174 213.349 150.336C213.238 149.345 213.444 148.339 213.924 147.537C214.403 146.735 215.116 146.202 215.909 146.053Z" fill="white"/>
<path d="M218.79 154.19C218.861 155.08 218.714 155.979 218.38 156.698C218.046 157.417 217.551 157.9 216.999 158.045C216.922 157.154 217.067 156.251 217.402 155.529C217.737 154.808 218.236 154.327 218.79 154.19Z" fill="white"/>
<path d="M218.808 168.817C218.698 169.764 218.391 170.595 217.951 171.131C217.511 171.667 216.974 171.866 216.456 171.685C216.565 170.738 216.872 169.907 217.312 169.371C217.752 168.835 218.289 168.636 218.808 168.817Z" fill="white"/>
<path d="M200.776 168.79C200.885 169.747 201.192 170.586 201.632 171.127C202.072 171.668 202.609 171.868 203.128 171.683C202.989 170.752 202.689 169.931 202.273 169.348C201.822 168.858 201.295 168.662 200.776 168.79Z" fill="white"/>
<path d="M215.127 162.756C215.218 163.744 215.029 164.743 214.599 165.542C214.168 166.341 213.531 166.878 212.82 167.039C212.728 166.051 212.918 165.052 213.348 164.253C213.778 163.454 214.416 162.917 215.127 162.756Z" fill="white"/>
<path d="M214.087 137.488C214.157 138.575 214.009 139.674 213.674 140.552C213.339 141.431 212.844 142.021 212.291 142.199C212.221 141.111 212.369 140.012 212.704 139.134C213.039 138.255 213.534 137.665 214.087 137.488Z" fill="white"/>
<path d="M212.254 144.34C212.332 145.23 212.188 146.134 211.853 146.855C211.518 147.577 211.018 148.058 210.463 148.195C210.392 147.306 210.538 146.408 210.872 145.689C211.206 144.97 211.702 144.487 212.254 144.34Z" fill="white"/>
<path d="M216.961 139.201C217.032 140.385 216.885 141.583 216.551 142.541C216.216 143.499 215.72 144.144 215.167 144.34C215.095 143.156 215.242 141.958 215.577 141C215.911 140.041 216.407 139.396 216.961 139.201Z" fill="white"/>
<path d="M201.323 139.201C201.222 140.387 201.432 141.585 201.91 142.544C202.388 143.503 203.097 144.147 203.887 144.34C203.988 143.154 203.778 141.956 203.3 140.997C202.822 140.038 202.113 139.394 201.323 139.201Z" fill="white"/>
<path d="M214.61 129.35C214.68 130.537 214.532 131.735 214.197 132.694C213.862 133.652 213.367 134.296 212.814 134.49C212.744 133.303 212.892 132.105 213.227 131.146C213.562 130.188 214.057 129.544 214.61 129.35Z" fill="white"/>
<path d="M213.931 121.641C214.161 122.532 214.161 123.498 213.931 124.389C213.624 125.236 213.115 125.926 212.482 126.352C212.207 125.472 212.205 124.484 212.476 123.603C212.748 122.721 213.27 122.016 213.931 121.641Z" fill="white"/>
<path d="M206.509 119.5C207.167 119.948 207.674 120.734 207.924 121.693C208.173 122.651 208.146 123.708 207.848 124.639C207.19 124.191 206.683 123.405 206.433 122.446C206.183 121.488 206.211 120.431 206.509 119.5Z" fill="white"/>
<path d="M209.88 129.35C210.274 130.075 210.476 131.019 210.442 131.981C210.407 132.942 210.139 133.843 209.695 134.49C209.306 133.761 209.108 132.819 209.143 131.86C209.177 130.902 209.441 130.002 209.88 129.35Z" fill="white"/>
<path d="M209.884 114.789C210.275 115.453 210.476 116.319 210.442 117.2C210.407 118.081 210.141 118.907 209.7 119.5C209.309 118.836 209.108 117.97 209.142 117.089C209.177 116.207 209.443 115.381 209.884 114.789Z" fill="white"/>
<path d="M202.626 146.053C202.548 147.044 202.692 148.05 203.028 148.852C203.363 149.654 203.863 150.187 204.417 150.336C204.487 149.347 204.34 148.349 204.006 147.55C203.671 146.751 203.177 146.215 202.626 146.053Z" fill="white"/>
<path d="M200.275 155.047C200.184 156.233 200.373 157.432 200.802 158.39C201.232 159.349 201.868 159.993 202.578 160.186C202.679 158.998 202.494 157.791 202.063 156.828C201.632 155.865 200.989 155.225 200.275 155.047Z" fill="white"/>
<path d="M205.759 158.902C205.692 159.792 205.816 160.695 206.103 161.417C206.39 162.138 206.818 162.619 207.294 162.756C207.355 161.868 207.23 160.97 206.943 160.251C206.657 159.532 206.232 159.048 205.759 158.902Z" fill="white"/>
<path d="M207.04 146.053C206.735 146.984 206.704 148.046 206.954 149.009C207.205 149.971 207.715 150.756 208.375 151.193C208.67 150.26 208.695 149.203 208.446 148.244C208.197 147.286 207.693 146.5 207.04 146.053Z" fill="white"/>
<path d="M203.128 179.455C203.777 179.504 204.412 179.13 204.899 178.413C205.387 177.696 205.689 176.69 205.741 175.609C205.092 175.56 204.457 175.933 203.97 176.65C203.482 177.368 203.181 178.373 203.128 179.455Z" fill="white"/>
<path d="M213.32 177.865C213.527 178.808 213.94 179.627 214.494 180.196C215.093 180.674 215.783 180.846 216.456 180.685C216.294 179.703 215.874 178.855 215.287 178.322C214.7 177.79 213.993 177.617 213.32 177.842V177.865Z" fill="white"/>
<path d="M204.461 137.488C204.362 138.576 204.547 139.68 204.978 140.562C205.408 141.443 206.048 142.031 206.761 142.199C206.859 141.11 206.674 140.006 206.243 139.124C205.813 138.243 205.173 137.655 204.461 137.488Z" fill="white"/>
<path d="M204.457 130.635C204.366 131.524 204.555 132.423 204.985 133.142C205.415 133.861 206.053 134.344 206.764 134.49C206.856 133.6 206.666 132.701 206.236 131.982C205.806 131.263 205.168 130.78 204.457 130.635Z" fill="white"/>
<g filter="url(#filter2_d_3832_5599)">
<path d="M43.6371 148.377C43.6371 162.222 38.6624 173.451 32.528 173.451C26.3937 173.451 21.4238 162.214 21.4238 148.377C21.4238 141.297 22.7251 125.376 24.8178 111.516C26.8148 98.2887 29.5326 86.9382 32.528 86.9382C38.6624 86.9382 43.6371 134.533 43.6371 148.377Z" fill="#92E3A9"/>
<path d="M32.5283 85.9382C33.2556 85.9383 33.8676 86.2944 34.3496 86.7488C34.8303 87.2019 35.2575 87.821 35.6445 88.532C36.4206 89.9578 37.1422 91.9552 37.8135 94.3181C39.1603 99.0592 40.3648 105.492 41.3721 112.32C43.3866 125.977 44.6367 141.389 44.6367 148.378C44.6367 155.406 43.376 161.819 41.2969 166.511C40.2579 168.856 38.9948 170.816 37.542 172.203C36.0841 173.595 34.3884 174.451 32.5283 174.451C30.668 174.451 28.9721 173.595 27.5146 172.202C26.0622 170.814 24.7991 168.853 23.7607 166.508C21.683 161.814 20.4239 155.402 20.4238 148.378C20.4238 141.231 21.732 125.256 23.8291 111.366C24.8297 104.739 26.0159 98.5428 27.3379 93.988C27.9967 91.7182 28.7049 89.8015 29.4668 88.4324C29.847 87.7492 30.2675 87.153 30.7412 86.7166C31.2171 86.2781 31.818 85.9382 32.5283 85.9382Z" stroke="#274430" stroke-width="2"/>
</g>
<path d="M32.4 86.9382C29.4903 86.9382 26.7611 98.6722 24.8213 111.778C24.8213 111.778 27.2013 100.692 29.4865 94.2442C30.532 91.2942 32.4 86.9382 32.4 86.9382Z" fill="white" fill-opacity="0.3"/>
<path d="M32.6753 173.443C38.7533 173.117 43.6372 162.017 43.6372 148.377C43.6372 134.533 38.6051 86.9382 32.3999 86.9382C38.6051 86.9382 42.119 134.533 42.119 148.377C42.119 162.016 38.709 173.116 32.6753 173.443Z" fill="#565656" fill-opacity="0.3"/>
<path d="M38.9333 155.613L35.4578 157.667L36.1569 154.329L34.4972 158.236L32.8374 159.207L32.7217 148.264L38.7522 135.483L35.5182 140.634L36.0664 137.055L34.5223 142.23L32.6865 145.159L32.5055 128.053L31.8466 152.997L26.1279 143.337L29.2714 150.141L26.309 149.619L29.9655 151.649L31.7762 155.581L31.4593 167.607L29.3519 165.329L31.3939 170.095L30.4282 206.857H33.3555L32.8575 160.956L38.9333 155.613Z" fill="#274430"/>
<path d="M38.9089 128.053C39.0088 129.042 38.798 130.041 38.3206 130.839C37.8433 131.638 37.1367 132.174 36.3493 132.336C36.238 131.345 36.4445 130.339 36.9238 129.537C37.4031 128.735 38.1165 128.202 38.9089 128.053Z" fill="white"/>
<path d="M41.7903 136.19C41.8615 137.08 41.7144 137.979 41.3802 138.698C41.046 139.417 40.5507 139.9 39.9986 140.045C39.9218 139.154 40.0667 138.251 40.4019 137.529C40.7371 136.808 41.2358 136.327 41.7903 136.19Z" fill="white"/>
<path d="M41.8076 150.817C41.6984 151.764 41.391 152.595 40.9512 153.131C40.5115 153.667 39.9745 153.866 39.4556 153.685C39.5647 152.738 39.8721 151.907 40.3119 151.371C40.7517 150.835 41.2887 150.636 41.8076 150.817Z" fill="white"/>
<path d="M23.7759 150.79C23.8848 151.747 24.1923 152.586 24.6322 153.127C25.0722 153.668 25.6093 153.868 26.1279 153.683C25.9895 152.752 25.6891 151.931 25.2733 151.348C24.8217 150.858 24.2946 150.662 23.7759 150.79Z" fill="white"/>
<path d="M38.1268 144.756C38.2184 145.744 38.0291 146.743 37.5988 147.542C37.1684 148.341 36.5307 148.878 35.8199 149.039C35.7283 148.051 35.9176 147.052 36.348 146.253C36.7783 145.454 37.416 144.917 38.1268 144.756Z" fill="white"/>
<path d="M37.0867 119.488C37.1568 120.575 37.0089 121.674 36.6741 122.552C36.3394 123.431 35.8437 124.021 35.2914 124.199C35.2214 123.111 35.3692 122.012 35.704 121.134C36.0388 120.255 36.5344 119.665 37.0867 119.488Z" fill="white"/>
<path d="M35.2538 126.34C35.332 127.23 35.188 128.134 34.8528 128.855C34.5176 129.577 34.0183 130.058 33.463 130.195C33.3916 129.306 33.5383 128.408 33.8723 127.689C34.2063 126.97 34.7015 126.487 35.2538 126.34Z" fill="white"/>
<path d="M39.9606 121.201C40.0321 122.385 39.8851 123.583 39.5505 124.541C39.216 125.499 38.7199 126.144 38.1666 126.34C38.0951 125.156 38.2421 123.958 38.5767 123C38.9112 122.041 39.4073 121.396 39.9606 121.201Z" fill="white"/>
<path d="M24.3234 121.201C24.2216 122.387 24.432 123.585 24.9101 124.544C25.3882 125.503 26.0969 126.147 26.8866 126.34C26.9884 125.154 26.778 123.956 26.2999 122.997C25.8217 122.038 25.1132 121.394 24.3234 121.201Z" fill="white"/>
<path d="M37.6097 111.35C37.6798 112.537 37.5319 113.735 37.1971 114.694C36.8623 115.652 36.3667 116.296 35.8144 116.49C35.7443 115.303 35.8922 114.105 36.227 113.146C36.5618 112.188 37.0574 111.544 37.6097 111.35Z" fill="white"/>
<path d="M36.9309 103.641C37.1614 104.532 37.1614 105.498 36.9309 106.389C36.6239 107.236 36.1147 107.926 35.482 108.352C35.2072 107.472 35.2052 106.484 35.4764 105.603C35.7476 104.721 36.2702 104.016 36.9309 103.641Z" fill="white"/>
<path d="M29.5089 101.5C30.1666 101.948 30.6738 102.734 30.9235 103.693C31.1733 104.651 31.1461 105.708 30.8477 106.639C30.19 106.191 29.6829 105.405 29.4331 104.446C29.1834 103.488 29.2105 102.431 29.5089 101.5Z" fill="white"/>
<path d="M32.8797 111.35C33.2743 112.075 33.476 113.019 33.4415 113.981C33.407 114.942 33.139 115.843 32.6952 116.49C32.3062 115.761 32.1081 114.819 32.1425 113.86C32.1769 112.902 32.4412 112.002 32.8797 111.35Z" fill="white"/>
<path d="M32.8836 96.7888C33.2754 97.4528 33.4758 98.3188 33.4416 99.2C33.4073 100.081 33.1411 100.907 32.7004 101.5C32.3086 100.836 32.1082 99.97 32.1424 99.0887C32.1767 98.2075 32.4429 97.3815 32.8836 96.7888Z" fill="white"/>
<path d="M25.6256 128.053C25.5477 129.044 25.6922 130.05 26.0277 130.852C26.3632 131.654 26.8626 132.187 27.4173 132.336C27.4873 131.347 27.3397 130.349 27.0056 129.55C26.6714 128.751 26.1768 128.215 25.6256 128.053Z" fill="white"/>
<path d="M23.2755 137.047C23.184 138.233 23.373 139.432 23.8024 140.39C24.2319 141.349 24.8683 141.993 25.5776 142.186C25.6793 140.998 25.4944 139.791 25.0631 138.828C24.6319 137.865 23.9893 137.225 23.2755 137.047Z" fill="white"/>
<path d="M28.759 140.902C28.692 141.792 28.8155 142.695 29.1028 143.417C29.3901 144.138 29.8181 144.619 30.2941 144.756C30.3553 143.868 30.2295 142.97 29.9432 142.251C29.657 141.532 29.2325 141.048 28.759 140.902Z" fill="white"/>
<path d="M30.0396 128.053C29.7348 128.984 29.7042 130.046 29.9544 131.009C30.2045 131.971 30.7152 132.756 31.3753 133.193C31.6697 132.26 31.6949 131.203 31.4458 130.244C31.1967 129.286 30.6926 128.5 30.0396 128.053Z" fill="white"/>
<path d="M26.1279 161.455C26.7769 161.504 27.4119 161.13 27.8994 160.413C28.3869 159.696 28.6887 158.69 28.7413 157.609C28.0923 157.56 27.4572 157.933 26.9698 158.65C26.4823 159.368 26.1805 160.373 26.1279 161.455Z" fill="white"/>
<path d="M36.3198 159.865C36.5271 160.808 36.9396 161.627 37.4945 162.196C38.0926 162.674 38.783 162.846 39.4558 162.685C39.2941 161.703 38.8742 160.855 38.2872 160.322C37.7002 159.79 36.9934 159.617 36.3198 159.842V159.865Z" fill="white"/>
<path d="M27.4605 119.488C27.3617 120.576 27.5475 121.68 27.9778 122.562C28.4081 123.443 29.0485 124.031 29.7606 124.199C29.8595 123.11 29.6737 122.006 29.2433 121.124C28.813 120.243 28.1727 119.655 27.4605 119.488Z" fill="white"/>
<path d="M27.4572 112.635C27.3655 113.524 27.5548 114.423 27.9852 115.142C28.4155 115.861 29.0532 116.344 29.764 116.49C29.8556 115.6 29.6663 114.701 29.236 113.982C28.8056 113.263 28.1679 112.78 27.4572 112.635Z" fill="white"/>
</g>
<defs>
<filter id="filter0_d_3832_5599" x="0" y="0" width="233" height="233.985" filterUnits="userSpaceOnUse" color-interpolation-filters="sRGB">
<feFlood flood-opacity="0" result="BackgroundImageFix"/>
<feColorMatrix in="SourceAlpha" type="matrix" values="0 0 0 0 0 0 0 0 0 0 0 0 0 0 0 0 0 0 127 0" result="hardAlpha"/>
<feOffset dx="4" dy="4"/>
<feComposite in2="hardAlpha" operator="out"/>
<feColorMatrix type="matrix" values="0 0 0 0 0.188235 0 0 0 0 0.266667 0 0 0 0 0.211765 0 0 0 1 0"/>
<feBlend mode="normal" in2="BackgroundImageFix" result="effect1_dropShadow_3832_5599"/>
<feBlend mode="normal" in="SourceGraphic" in2="effect1_dropShadow_3832_5599" result="shape"/>
</filter>
<filter id="filter1_d_3832_5599" x="196.424" y="102.938" width="27.2134" height="91.5125" filterUnits="userSpaceOnUse" color-interpolation-filters="sRGB">
<feFlood flood-opacity="0" result="BackgroundImageFix"/>
<feColorMatrix in="SourceAlpha" type="matrix" values="0 0 0 0 0 0 0 0 0 0 0 0 0 0 0 0 0 0 127 0" result="hardAlpha"/>
<feOffset dx="1" dy="1"/>
<feComposite in2="hardAlpha" operator="out"/>
<feColorMatrix type="matrix" values="0 0 0 0 0.188235 0 0 0 0 0.266667 0 0 0 0 0.211765 0 0 0 1 0"/>
<feBlend mode="normal" in2="BackgroundImageFix" result="effect1_dropShadow_3832_5599"/>
<feBlend mode="normal" in="SourceGraphic" in2="effect1_dropShadow_3832_5599" result="shape"/>
</filter>
<filter id="filter2_d_3832_5599" x="19.4238" y="84.9382" width="27.2134" height="91.5125" filterUnits="userSpaceOnUse" color-interpolation-filters="sRGB">
<feFlood flood-opacity="0" result="BackgroundImageFix"/>
<feColorMatrix in="SourceAlpha" type="matrix" values="0 0 0 0 0 0 0 0 0 0 0 0 0 0 0 0 0 0 127 0" result="hardAlpha"/>
<feOffset dx="1" dy="1"/>
<feComposite in2="hardAlpha" operator="out"/>
<feColorMatrix type="matrix" values="0 0 0 0 0.188235 0 0 0 0 0.266667 0 0 0 0 0.211765 0 0 0 1 0"/>
<feBlend mode="normal" in2="BackgroundImageFix" result="effect1_dropShadow_3832_5599"/>
<feBlend mode="normal" in="SourceGraphic" in2="effect1_dropShadow_3832_5599" result="shape"/>
</filter>
<clipPath id="clip0_3832_5599">
<rect x="61.9043" y="187.886" width="36.6769" height="29.4394" rx="2" fill="white"/>
</clipPath>
<clipPath id="clip1_3832_5599">
<rect x="151.559" y="187.886" width="36.6769" height="29.4394" rx="2" fill="white"/>
</clipPath>
<clipPath id="clip2_3832_5599">
<rect x="110.807" y="192.455" width="10.6974" height="17.2576" rx="2" fill="white"/>
</clipPath>
<clipPath id="clip3_3832_5599">
<rect x="127.617" y="192.455" width="10.6974" height="17.2576" rx="2" fill="white"/>
</clipPath>
<clipPath id="clip4_3832_5599">
<rect x="80.2432" y="129.515" width="22.923" height="27.4091" rx="2" fill="white"/>
</clipPath>
<clipPath id="clip5_3832_5599">
<rect x="80.2432" y="72.6667" width="22.923" height="27.4091" rx="2" fill="white"/>
</clipPath>
<clipPath id="clip6_3832_5599">
<rect x="144.937" y="129.515" width="22.923" height="27.4091" rx="2" fill="white"/>
</clipPath>
<clipPath id="clip7_3832_5599">
<rect x="144.937" y="72.6667" width="22.923" height="27.4091" rx="2" fill="white"/>
</clipPath>
<clipPath id="clip8_3832_5599">
<rect x="116.41" y="31.0454" width="16.8102" height="27.4091" rx="2" fill="white"/>
</clipPath>
<clipPath id="clip9_3832_5599">
<rect x="71.583" y="31.0454" width="16.8102" height="27.4091" rx="2" fill="white"/>
</clipPath>
<clipPath id="clip10_3832_5599">
<rect x="161.238" y="31.0454" width="16.8102" height="27.4091" rx="2" fill="white"/>
</clipPath>
</defs>
</svg>
