<svg width="16" height="16" viewBox="0 0 16 16" fill="none" xmlns="http://www.w3.org/2000/svg">
<g clip-path="url(#clip0_3969_946)">
<path d="M8.41154 14.8992C6.78134 13.1722 6.12665 11.1855 6.38956 8.85862C6.43919 8.4185 6.82607 8.60157 6.92032 9.62854C7.11229 11.7168 7.74189 12.8973 9.33997 14.1598L10.1331 13.1818C11.9914 10.8902 12.5061 8.133 11.0047 5.45154C10.2734 4.14543 9.0638 2.8573 7.29821 1.64972L6.36281 1.00995L6.20309 0.899313L6.09977 1.05286C5.34449 2.64062 4.46849 3.43714 3.7304 4.10825C3.3987 4.40986 3.09486 4.68614 2.84234 4.99752C0.591579 7.77299 1.15153 11.6722 4.0645 13.8222C5.10487 14.4896 6.54915 14.9031 8.14567 14.9031C8.23478 14.9031 8.32342 14.9018 8.41154 14.8992Z" fill="#92E3A9"/>
<path d="M13.7312 12.1958C14.2876 10.3197 14.0199 8.07664 12.5287 5.70467C12.0646 5.0671 12.0646 4.10825 12.0646 4.10825C11.7463 4.39096 11.2961 5.25277 11.0047 5.45154C12.5061 8.133 11.9914 10.8902 10.1331 13.1818L9.33997 14.1598C7.74189 12.8973 7.11229 11.7168 6.92032 9.62854C6.82607 8.60157 6.43919 8.4185 6.38956 8.85862C6.12659 11.186 6.78163 13.1731 8.41264 14.9004C10.9683 14.8386 13.0956 13.7113 13.7312 12.1958Z" fill="#80B990"/>
<path d="M8.81487 15.7148C8.89671 15.7148 8.97823 15.7138 9.05938 15.7118C9.07332 15.7122 9.08732 15.7123 9.10137 15.7119C11.8499 15.6455 14.2762 14.4281 15.0246 12.6434C15.0312 12.6277 15.0369 12.6118 15.0416 12.5957C15.6392 10.5808 15.3403 8.20602 13.7849 5.7319C13.5264 5.41629 13.5004 5.03933 13.3474 4.73095C13.1944 4.42257 12.8659 3.85135 12.4183 3.65355C12.3827 3.6351 12.3446 3.61926 12.3043 3.60643C12.0509 3.52582 11.7629 3.58033 11.5789 3.74374C11.4703 3.8402 11.3698 3.96105 11.2841 4.07351C10.5458 3.18773 6.8712 0.330897 6.08338 0.369653C5.8335 0.381946 5.72017 0.498265 5.62479 0.640026L5.52147 0.793578C5.5075 0.814337 5.49523 0.835826 5.48473 0.857904C4.77305 2.35399 3.96045 3.09285 3.24085 3.74717L3.22402 3.76247C2.90317 4.05418 2.57163 4.35562 2.29218 4.70022C-0.131168 7.6885 0.457101 11.8858 3.62201 14.2217C3.63328 14.23 3.64489 14.238 3.65683 14.2457C4.08257 14.5188 4.56494 14.7519 5.09014 14.9378C6.14688 15.4309 7.43617 15.7148 8.81487 15.7148Z" fill="#304436"/>
<path d="M8.41154 14.8992C6.78134 13.1722 6.12665 11.1855 6.38956 8.85862C6.43919 8.4185 6.82607 8.60157 6.92032 9.62854C7.11229 11.7168 7.74189 12.8973 9.33997 14.1598L10.1331 13.1818C11.9914 10.8902 12.5061 8.133 11.0047 5.45154C10.2734 4.14543 9.0638 2.8573 7.29821 1.64972L6.36281 1.00995L6.20309 0.899313L6.09977 1.05286C5.34449 2.64062 4.46849 3.43714 3.7304 4.10825C3.3987 4.40986 3.09486 4.68614 2.84234 4.99752C0.591579 7.77299 1.15153 11.6722 4.0645 13.8222C5.10487 14.4896 6.54915 14.9031 8.14567 14.9031C8.23478 14.9031 8.32342 14.9018 8.41154 14.8992Z" fill="#92E3A9"/>
<path d="M13.7312 12.1958C14.2876 10.3197 14.0199 8.07664 12.5287 5.70467C12.0646 5.0671 12.0646 4.10825 12.0646 4.10825C11.7463 4.39096 11.2961 5.25277 11.0047 5.45154C12.5061 8.133 11.9914 10.8902 10.1331 13.1818L9.33997 14.1598C7.74189 12.8973 7.11229 11.7168 6.92032 9.62854C6.82607 8.60157 6.43919 8.4185 6.38956 8.85862C6.12659 11.186 6.78163 13.1731 8.41264 14.9004C10.9683 14.8386 13.0956 13.7113 13.7312 12.1958Z" fill="#80B990"/>
</g>
<defs>
<clipPath id="clip0_3969_946">
<rect width="16" height="16" fill="white" transform="translate(0 -0.000488281)"/>
</clipPath>
</defs>
</svg>
