<svg width="94" height="143" viewBox="0 0 94 143" fill="none" xmlns="http://www.w3.org/2000/svg">
<path d="M84.7028 0.135134L72.4352 6.65857C72.199 6.78319 72.0003 6.98639 71.8644 7.24232C71.7286 7.49826 71.6617 7.79535 71.6723 8.09579C71.6829 8.39623 71.7705 8.68644 71.9239 8.92948C72.0774 9.17252 72.2897 9.3574 72.534 9.4606L75.3569 10.6714L55.4433 63.1609C55.3848 63.3448 55.2954 63.5135 55.1803 63.6573C55.0653 63.801 54.9268 63.917 54.7728 63.9986C54.6188 64.0803 54.4523 64.1259 54.2829 64.133C54.1135 64.14 53.9445 64.1083 53.7856 64.0397L28.3492 53.1478C28.0272 53.0107 27.6718 53.0268 27.3606 53.1924C27.0495 53.358 26.808 53.6597 26.689 54.0314L0 137.835L13.2001 137.835L34.4496 73.4838C34.5081 73.2999 34.5975 73.1312 34.7126 72.9875C34.8276 72.8437 34.9661 72.7277 35.1201 72.6461C35.2741 72.5645 35.4406 72.5188 35.61 72.5118C35.7794 72.5047 35.9484 72.5364 36.1073 72.605L61.5437 83.497C61.7031 83.5653 61.8725 83.5967 62.0422 83.5893C62.2119 83.5819 62.3787 83.5359 62.5329 83.4538C62.687 83.3718 62.8257 83.2553 62.9408 83.1111C63.0559 82.9669 63.1453 82.7977 63.2038 82.6134L87.6373 15.9225L90.4634 17.1322C90.706 17.2323 90.9686 17.2478 91.2184 17.1766C91.4682 17.1055 91.6942 16.9509 91.8684 16.732C92.0425 16.5132 92.1572 16.2398 92.198 15.9459C92.2388 15.6519 92.2041 15.3504 92.098 15.0787L86.4293 0.869426C86.282 0.509394 86.0184 0.230556 85.6953 0.0931585C85.3723 -0.0442386 85.0157 -0.0291628 84.7028 0.135134Z" fill="#F3B7B7"/>
<path fill-rule="evenodd" clip-rule="evenodd" d="M90.4634 17.1322C90.706 17.2323 90.9686 17.2478 91.2184 17.1766C91.4682 17.1055 91.6942 16.9509 91.8684 16.732C92.0425 16.5132 92.1572 16.2398 92.198 15.9459C92.2388 15.6519 92.2041 15.3504 92.098 15.0787L86.4293 0.869426C86.282 0.509394 86.0184 0.230556 85.6953 0.0931585C85.3723 -0.0442386 85.0157 -0.0291628 84.7028 0.135134L72.4352 6.65857C72.199 6.78319 72.0003 6.98639 71.8644 7.24232C71.7286 7.49826 71.6617 7.79535 71.6723 8.09579C71.6829 8.39623 71.7705 8.68644 71.9239 8.92948C72.0774 9.17252 72.2897 9.3574 72.534 9.4606L75.3569 10.6714L55.4433 63.1609C55.3848 63.3448 55.2954 63.5135 55.1803 63.6573C55.0653 63.801 54.9268 63.917 54.7728 63.9986C54.6188 64.0803 54.4523 64.1259 54.2829 64.133C54.1135 64.14 53.9445 64.1083 53.7856 64.0397L28.3492 53.1478C28.0272 53.0107 27.6718 53.0268 27.3606 53.1924C27.0495 53.358 26.808 53.6597 26.689 54.0314L0 137.835L13.2001 137.835L34.4496 73.4838C34.5081 73.2999 34.5975 73.1312 34.7126 72.9875C34.8276 72.8437 34.9661 72.7277 35.1201 72.6461C35.2741 72.5645 35.4406 72.5188 35.61 72.5118C35.7794 72.5047 35.9484 72.5364 36.1073 72.605L61.5437 83.497C61.7031 83.5653 61.8725 83.5967 62.0422 83.5893C62.2119 83.5819 62.3787 83.5359 62.5329 83.4538C62.687 83.3718 62.8257 83.2553 62.9408 83.1111C63.0559 82.9669 63.1453 82.7977 63.2038 82.6134L87.6373 15.9225L90.4634 17.1322ZM36.9215 70.7215C36.9223 70.7218 36.9232 70.7222 36.924 70.7225L61.5134 81.2518L86.4517 13.1828L89.6799 14.5647L84.8247 2.39476L74.3064 7.98803L77.9763 9.56214L57.3822 63.8454C57.2507 64.2338 57.0525 64.6057 56.7872 64.9372C56.507 65.2872 56.1539 65.5894 55.7377 65.81C55.3201 66.0314 54.8541 66.1622 54.3686 66.1824C53.8838 66.2026 53.4077 66.1112 52.9713 65.9233C52.9705 65.9229 52.9697 65.9226 52.9689 65.9222L28.4089 55.4056L2.81078 135.784L11.7125 135.784L32.4898 72.8628C32.4912 72.8585 32.4925 72.8543 32.4939 72.85C32.6251 72.4433 32.8289 72.0534 33.1057 71.7076C33.3858 71.3576 33.7389 71.0554 34.1552 70.8347C34.5727 70.6134 35.0387 70.4825 35.5243 70.4623C36.0092 70.4421 36.4853 70.5336 36.9215 70.7215ZM62.3536 81.6116L62.3548 81.6121L62.3562 81.6126C62.3553 81.6123 62.3545 81.6119 62.3536 81.6116Z" fill="#274430"/>
<path d="M62.2717 130.691H20.6918C18.9883 130.691 17.6074 132.068 17.6074 133.767V137.14C17.6074 138.839 18.9883 140.217 20.6918 140.217H62.2717C63.9752 140.217 65.3561 138.839 65.3561 137.14V133.767C65.3561 132.068 63.9752 130.691 62.2717 130.691Z" fill="#E3C191"/>
<path fill-rule="evenodd" clip-rule="evenodd" d="M20.6919 128.639H62.2718C65.1109 128.639 67.4124 130.935 67.4124 133.767V137.14C67.4124 139.972 65.1109 142.268 62.2718 142.268H20.6919C17.8528 142.268 15.5513 139.972 15.5513 137.14V133.767C15.5513 130.935 17.8528 128.639 20.6919 128.639ZM20.6919 130.691H62.2718C63.9753 130.691 65.3562 132.068 65.3562 133.767V137.14C65.3562 138.839 63.9753 140.217 62.2718 140.217H20.6919C18.9884 140.217 17.6075 138.839 17.6075 137.14V133.767C17.6075 132.068 18.9884 130.691 20.6919 130.691Z" fill="#274430"/>
<rect x="19.5176" y="130.691" width="1.90995" height="9.52641" fill="#565656" fill-opacity="0.3"/>
<rect x="23.3374" y="130.691" width="1.90995" height="9.52641" fill="#565656" fill-opacity="0.3"/>
<rect x="27.1572" y="130.691" width="1.90995" height="9.52641" fill="#565656" fill-opacity="0.3"/>
<rect x="30.9771" y="130.691" width="1.90995" height="9.52641" fill="#565656" fill-opacity="0.3"/>
<rect x="34.7969" y="130.691" width="1.90995" height="9.52641" fill="#565656" fill-opacity="0.3"/>
<rect x="38.6167" y="130.691" width="1.90995" height="9.52641" fill="#565656" fill-opacity="0.3"/>
<rect x="42.4365" y="130.691" width="1.90994" height="9.52641" fill="#565656" fill-opacity="0.3"/>
<rect x="46.2568" y="130.691" width="1.90995" height="9.52641" fill="#565656" fill-opacity="0.3"/>
<rect x="50.0767" y="130.691" width="1.90995" height="9.52641" fill="#565656" fill-opacity="0.3"/>
<rect x="53.8965" y="130.691" width="1.90995" height="9.52641" fill="#565656" fill-opacity="0.3"/>
<rect x="57.7163" y="130.691" width="1.90995" height="9.52641" fill="#565656" fill-opacity="0.3"/>
<rect x="61.5361" y="130.691" width="1.90994" height="9.52641" fill="#565656" fill-opacity="0.3"/>
<path d="M62.3563 130.691H58.9102C58.9102 130.691 56.5976 135.64 53.8966 137.597C51.2008 139.55 45.7793 140.217 45.7793 140.217H62.3563C64.0131 140.217 65.3563 138.874 65.3563 137.217V133.691C65.3563 132.034 64.0131 130.691 62.3563 130.691Z" fill="#565656" fill-opacity="0.3"/>
<path d="M63.9271 130.691H19.0364C18.2472 130.691 17.6074 131.33 17.6074 132.12H65.3561C65.3561 131.33 64.7163 130.691 63.9271 130.691Z" fill="#565656" fill-opacity="0.3"/>
<path d="M62.2717 100.027H20.6918C18.9883 100.027 17.6074 101.405 17.6074 103.104V106.477C17.6074 108.176 18.9883 109.554 20.6918 109.554H62.2717C63.9752 109.554 65.3561 108.176 65.3561 106.477V103.104C65.3561 101.405 63.9752 100.027 62.2717 100.027Z" fill="#E3C191"/>
<path fill-rule="evenodd" clip-rule="evenodd" d="M20.6919 97.9762H62.2718C65.1109 97.9762 67.4124 100.272 67.4124 103.104V106.477C67.4124 109.309 65.1109 111.605 62.2718 111.605H20.6919C17.8528 111.605 15.5513 109.309 15.5513 106.477V103.104C15.5513 100.272 17.8528 97.9762 20.6919 97.9762ZM20.6919 100.027H62.2718C63.9753 100.027 65.3562 101.405 65.3562 103.104V106.477C65.3562 108.176 63.9753 109.554 62.2718 109.554H20.6919C18.9884 109.554 17.6075 108.176 17.6075 106.477V103.104C17.6075 101.405 18.9884 100.027 20.6919 100.027Z" fill="#274430"/>
<rect x="19.5176" y="100.027" width="1.90995" height="9.52642" fill="#565656" fill-opacity="0.3"/>
<rect x="23.3374" y="100.027" width="1.90995" height="9.52642" fill="#565656" fill-opacity="0.3"/>
<rect x="27.1572" y="100.027" width="1.90995" height="9.52642" fill="#565656" fill-opacity="0.3"/>
<rect x="30.9771" y="100.027" width="1.90995" height="9.52642" fill="#565656" fill-opacity="0.3"/>
<rect x="34.7969" y="100.027" width="1.90995" height="9.52642" fill="#565656" fill-opacity="0.3"/>
<rect x="38.6167" y="100.027" width="1.90995" height="9.52642" fill="#565656" fill-opacity="0.3"/>
<rect x="42.4365" y="100.027" width="1.90994" height="9.52642" fill="#565656" fill-opacity="0.3"/>
<rect x="46.2568" y="100.027" width="1.90995" height="9.52642" fill="#565656" fill-opacity="0.3"/>
<rect x="50.0767" y="100.027" width="1.90995" height="9.52642" fill="#565656" fill-opacity="0.3"/>
<rect x="53.8965" y="100.027" width="1.90995" height="9.52642" fill="#565656" fill-opacity="0.3"/>
<rect x="57.7163" y="100.027" width="1.90995" height="9.52642" fill="#565656" fill-opacity="0.3"/>
<rect x="61.5361" y="100.027" width="1.90994" height="9.52642" fill="#565656" fill-opacity="0.3"/>
<path d="M62.3563 100.027H58.9102C58.9102 100.027 56.5976 104.977 53.8966 106.934C51.2008 108.887 45.7793 109.554 45.7793 109.554H62.3563C64.0131 109.554 65.3563 108.211 65.3563 106.554V103.027C65.3563 101.371 64.0131 100.027 62.3563 100.027Z" fill="#565656" fill-opacity="0.3"/>
<path d="M63.9271 100.027H19.0364C18.2472 100.027 17.6074 100.667 17.6074 101.456H65.3561C65.3561 100.667 64.7163 100.027 63.9271 100.027Z" fill="#565656" fill-opacity="0.3"/>
<path d="M62.8689 69.662H21.289C19.5855 69.662 18.2046 71.0395 18.2046 72.7388V76.1116C18.2046 77.8109 19.5855 79.1884 21.289 79.1884H62.8689C64.5723 79.1884 65.9533 77.8109 65.9533 76.1116V72.7388C65.9533 71.0395 64.5723 69.662 62.8689 69.662Z" fill="#E3C191"/>
<path fill-rule="evenodd" clip-rule="evenodd" d="M21.2891 67.6108H62.869C65.7081 67.6108 68.0096 69.9067 68.0096 72.7389V76.1116C68.0096 78.9437 65.7081 81.2397 62.869 81.2397H21.2891C18.45 81.2397 16.1484 78.9437 16.1484 76.1116V72.7389C16.1484 69.9067 18.45 67.6108 21.2891 67.6108ZM21.2891 69.662H62.869C64.5724 69.662 65.9534 71.0396 65.9534 72.7389V76.1116C65.9534 77.8109 64.5724 79.1884 62.869 79.1884H21.2891C19.5856 79.1884 18.2047 77.8109 18.2047 76.1116V72.7389C18.2047 71.0396 19.5856 69.662 21.2891 69.662Z" fill="#274430"/>
<rect x="20.1147" y="69.662" width="1.90995" height="9.52642" fill="#565656" fill-opacity="0.3"/>
<rect x="23.9346" y="69.662" width="1.90995" height="9.52642" fill="#565656" fill-opacity="0.3"/>
<rect x="27.7544" y="69.662" width="1.90995" height="9.52642" fill="#565656" fill-opacity="0.3"/>
<rect x="31.5742" y="69.662" width="1.90995" height="9.52642" fill="#565656" fill-opacity="0.3"/>
<rect x="35.394" y="69.662" width="1.90995" height="9.52642" fill="#565656" fill-opacity="0.3"/>
<rect x="39.2139" y="69.662" width="1.90995" height="9.52642" fill="#565656" fill-opacity="0.3"/>
<rect x="43.0337" y="69.662" width="1.90994" height="9.52642" fill="#565656" fill-opacity="0.3"/>
<rect x="46.854" y="69.662" width="1.90994" height="9.52642" fill="#565656" fill-opacity="0.3"/>
<rect x="50.6738" y="69.662" width="1.90995" height="9.52642" fill="#565656" fill-opacity="0.3"/>
<rect x="54.4937" y="69.662" width="1.90995" height="9.52642" fill="#565656" fill-opacity="0.3"/>
<rect x="58.3135" y="69.662" width="1.90995" height="9.52642" fill="#565656" fill-opacity="0.3"/>
<rect x="62.1333" y="69.662" width="1.90994" height="9.52642" fill="#565656" fill-opacity="0.3"/>
<path d="M62.9534 69.662H59.5073C59.5073 69.662 57.1948 74.6117 54.4937 76.5686C51.798 78.5218 46.3765 79.1884 46.3765 79.1884H62.9534C64.6103 79.1884 65.9534 77.8453 65.9534 76.1884V72.662C65.9534 71.0051 64.6103 69.662 62.9534 69.662Z" fill="#565656" fill-opacity="0.3"/>
<path d="M64.5243 69.662H19.6336C18.8444 69.662 18.2046 70.3018 18.2046 71.091H65.9533C65.9533 70.3018 65.3135 69.662 64.5243 69.662Z" fill="#565656" fill-opacity="0.3"/>
<path d="M66.1511 120.271H24.5712C22.8677 120.271 21.4868 121.649 21.4868 123.348V126.721C21.4868 128.42 22.8677 129.797 24.5712 129.797H66.1511C67.8546 129.797 69.2355 128.42 69.2355 126.721V123.348C69.2355 121.649 67.8546 120.271 66.1511 120.271Z" fill="#E3C191"/>
<path fill-rule="evenodd" clip-rule="evenodd" d="M24.5713 118.22H66.1512C68.9903 118.22 71.2918 120.516 71.2918 123.348V126.721C71.2918 129.553 68.9903 131.849 66.1512 131.849H24.5713C21.7322 131.849 19.4307 129.553 19.4307 126.721V123.348C19.4307 120.516 21.7322 118.22 24.5713 118.22ZM24.5713 120.271H66.1512C67.8547 120.271 69.2356 121.649 69.2356 123.348V126.721C69.2356 128.42 67.8547 129.797 66.1512 129.797H24.5713C22.8678 129.797 21.4869 128.42 21.4869 126.721V123.348C21.4869 121.649 22.8678 120.271 24.5713 120.271Z" fill="#274430"/>
<rect x="23.397" y="120.271" width="1.90995" height="9.52642" fill="#565656" fill-opacity="0.3"/>
<rect x="27.2168" y="120.271" width="1.90995" height="9.52642" fill="#565656" fill-opacity="0.3"/>
<rect x="31.0366" y="120.271" width="1.90995" height="9.52642" fill="#565656" fill-opacity="0.3"/>
<rect x="34.8564" y="120.271" width="1.90995" height="9.52642" fill="#565656" fill-opacity="0.3"/>
<rect x="38.6763" y="120.271" width="1.90995" height="9.52642" fill="#565656" fill-opacity="0.3"/>
<rect x="42.4961" y="120.271" width="1.90995" height="9.52642" fill="#565656" fill-opacity="0.3"/>
<rect x="46.3159" y="120.271" width="1.90994" height="9.52642" fill="#565656" fill-opacity="0.3"/>
<rect x="50.1362" y="120.271" width="1.90994" height="9.52642" fill="#565656" fill-opacity="0.3"/>
<rect x="53.9561" y="120.271" width="1.90995" height="9.52642" fill="#565656" fill-opacity="0.3"/>
<rect x="57.7759" y="120.271" width="1.90995" height="9.52642" fill="#565656" fill-opacity="0.3"/>
<rect x="61.5957" y="120.271" width="1.90995" height="9.52642" fill="#565656" fill-opacity="0.3"/>
<rect x="65.4155" y="120.271" width="1.90994" height="9.52642" fill="#565656" fill-opacity="0.3"/>
<path d="M66.2356 120.271H62.7896C62.7896 120.271 60.477 125.221 57.776 127.178C55.0802 129.131 49.6587 129.797 49.6587 129.797H66.2356C67.8925 129.797 69.2356 128.454 69.2356 126.797V123.271C69.2356 121.614 67.8925 120.271 66.2356 120.271Z" fill="#565656" fill-opacity="0.3"/>
<path d="M67.8065 120.271H22.9158C22.1266 120.271 21.4868 120.911 21.4868 121.7H69.2355C69.2355 120.911 68.5957 120.271 67.8065 120.271Z" fill="#565656" fill-opacity="0.3"/>
<path d="M66.1511 89.6079H24.5712C22.8677 89.6079 21.4868 90.9855 21.4868 92.6848V96.0575C21.4868 97.7568 22.8677 99.1344 24.5712 99.1344H66.1511C67.8546 99.1344 69.2355 97.7568 69.2355 96.0575V92.6848C69.2355 90.9855 67.8546 89.6079 66.1511 89.6079Z" fill="#E3C191"/>
<path fill-rule="evenodd" clip-rule="evenodd" d="M24.5713 87.5567H66.1512C68.9903 87.5567 71.2918 89.8526 71.2918 92.6848V96.0575C71.2918 98.8897 68.9903 101.186 66.1512 101.186H24.5713C21.7322 101.186 19.4307 98.8897 19.4307 96.0575V92.6848C19.4307 89.8526 21.7322 87.5567 24.5713 87.5567ZM24.5713 89.6079H66.1512C67.8547 89.6079 69.2356 90.9855 69.2356 92.6848V96.0575C69.2356 97.7568 67.8547 99.1344 66.1512 99.1344H24.5713C22.8678 99.1344 21.4869 97.7568 21.4869 96.0575V92.6848C21.4869 90.9855 22.8678 89.6079 24.5713 89.6079Z" fill="#274430"/>
<rect x="23.397" y="89.6079" width="1.90995" height="9.52642" fill="#565656" fill-opacity="0.3"/>
<rect x="27.2168" y="89.6079" width="1.90995" height="9.52642" fill="#565656" fill-opacity="0.3"/>
<rect x="31.0366" y="89.6079" width="1.90995" height="9.52642" fill="#565656" fill-opacity="0.3"/>
<rect x="34.8564" y="89.6079" width="1.90995" height="9.52642" fill="#565656" fill-opacity="0.3"/>
<rect x="38.6763" y="89.6079" width="1.90995" height="9.52642" fill="#565656" fill-opacity="0.3"/>
<rect x="42.4961" y="89.6079" width="1.90995" height="9.52642" fill="#565656" fill-opacity="0.3"/>
<rect x="46.3159" y="89.6079" width="1.90994" height="9.52642" fill="#565656" fill-opacity="0.3"/>
<rect x="50.1362" y="89.6079" width="1.90994" height="9.52642" fill="#565656" fill-opacity="0.3"/>
<rect x="53.9561" y="89.6079" width="1.90995" height="9.52642" fill="#565656" fill-opacity="0.3"/>
<rect x="57.7759" y="89.6079" width="1.90995" height="9.52642" fill="#565656" fill-opacity="0.3"/>
<rect x="61.5957" y="89.6079" width="1.90995" height="9.52642" fill="#565656" fill-opacity="0.3"/>
<rect x="65.4155" y="89.6079" width="1.90994" height="9.52642" fill="#565656" fill-opacity="0.3"/>
<path d="M66.2356 89.6079H62.7896C62.7896 89.6079 60.477 94.5576 57.776 96.5146C55.0802 98.4677 49.6587 99.1344 49.6587 99.1344H66.2356C67.8925 99.1344 69.2356 97.7912 69.2356 96.1344V92.6079C69.2356 90.9511 67.8925 89.6079 66.2356 89.6079Z" fill="#565656" fill-opacity="0.3"/>
<path d="M67.8065 89.6079H22.9158C22.1266 89.6079 21.4868 90.2477 21.4868 91.0369H69.2355C69.2355 90.2477 68.5957 89.6079 67.8065 89.6079Z" fill="#565656" fill-opacity="0.3"/>
<path d="M66.7483 59.2424H25.1684C23.4649 59.2424 22.084 60.62 22.084 62.3193V65.692C22.084 67.3913 23.4649 68.7689 25.1684 68.7689H66.7483C68.4517 68.7689 69.8327 67.3913 69.8327 65.692V62.3193C69.8327 60.62 68.4517 59.2424 66.7483 59.2424Z" fill="#E3C191"/>
<path fill-rule="evenodd" clip-rule="evenodd" d="M25.1685 57.1912H66.7484C69.5875 57.1912 71.889 59.4871 71.889 62.3193V65.692C71.889 68.5242 69.5875 70.8201 66.7484 70.8201H25.1685C22.3294 70.8201 20.0278 68.5242 20.0278 65.692V62.3193C20.0278 59.4871 22.3294 57.1912 25.1685 57.1912ZM25.1685 59.2425H66.7484C68.4518 59.2425 69.8328 60.62 69.8328 62.3193V65.692C69.8328 67.3913 68.4518 68.7689 66.7484 68.7689H25.1685C23.465 68.7689 22.0841 67.3913 22.0841 65.692V62.3193C22.0841 60.62 23.465 59.2425 25.1685 59.2425Z" fill="#274430"/>
<rect x="23.9941" y="59.2424" width="1.90995" height="9.52642" fill="#565656" fill-opacity="0.3"/>
<rect x="27.814" y="59.2424" width="1.90995" height="9.52642" fill="#565656" fill-opacity="0.3"/>
<rect x="31.6338" y="59.2424" width="1.90995" height="9.52642" fill="#565656" fill-opacity="0.3"/>
<rect x="35.4536" y="59.2424" width="1.90995" height="9.52642" fill="#565656" fill-opacity="0.3"/>
<rect x="39.2734" y="59.2424" width="1.90995" height="9.52642" fill="#565656" fill-opacity="0.3"/>
<rect x="43.0933" y="59.2424" width="1.90995" height="9.52642" fill="#565656" fill-opacity="0.3"/>
<rect x="46.9131" y="59.2424" width="1.90994" height="9.52642" fill="#565656" fill-opacity="0.3"/>
<rect x="50.7334" y="59.2424" width="1.90995" height="9.52642" fill="#565656" fill-opacity="0.3"/>
<rect x="54.5532" y="59.2424" width="1.90995" height="9.52642" fill="#565656" fill-opacity="0.3"/>
<rect x="58.373" y="59.2424" width="1.90995" height="9.52642" fill="#565656" fill-opacity="0.3"/>
<rect x="62.1929" y="59.2424" width="1.90995" height="9.52642" fill="#565656" fill-opacity="0.3"/>
<rect x="66.0127" y="59.2424" width="1.90994" height="9.52642" fill="#565656" fill-opacity="0.3"/>
<path d="M66.8328 59.2424H63.3867C63.3867 59.2424 61.0742 64.1921 58.3731 66.1491C55.6774 68.1022 50.2559 68.7689 50.2559 68.7689H66.8328C68.4897 68.7689 69.8328 67.4257 69.8328 65.7689V62.2424C69.8328 60.5856 68.4897 59.2424 66.8328 59.2424Z" fill="#565656" fill-opacity="0.3"/>
<path d="M68.4037 59.2424H23.5129C22.7238 59.2424 22.084 59.8822 22.084 60.6714H69.8327C69.8327 59.8822 69.1929 59.2424 68.4037 59.2424Z" fill="#565656" fill-opacity="0.3"/>
<path d="M58.6907 109.554H17.1107C15.4073 109.554 14.0264 110.931 14.0264 112.631V116.003C14.0264 117.703 15.4073 119.08 17.1107 119.08H58.6907C60.3941 119.08 61.775 117.703 61.775 116.003V112.631C61.775 110.931 60.3941 109.554 58.6907 109.554Z" fill="#E3C191"/>
<path fill-rule="evenodd" clip-rule="evenodd" d="M17.1108 107.503H58.6908C61.5299 107.503 63.8314 109.799 63.8314 112.631V116.003C63.8314 118.836 61.5298 121.131 58.6908 121.131H17.1108C14.2717 121.131 11.9702 118.836 11.9702 116.003V112.631C11.9702 109.799 14.2718 107.503 17.1108 107.503ZM17.1108 109.554H58.6908C60.3942 109.554 61.7751 110.931 61.7751 112.631V116.003C61.7751 117.703 60.3942 119.08 58.6908 119.08H17.1108C15.4074 119.08 14.0265 117.703 14.0265 116.003V112.631C14.0265 110.931 15.4074 109.554 17.1108 109.554Z" fill="#274430"/>
<rect x="15.9365" y="109.554" width="1.90995" height="9.52642" fill="#565656" fill-opacity="0.3"/>
<rect x="19.7563" y="109.554" width="1.90995" height="9.52642" fill="#565656" fill-opacity="0.3"/>
<rect x="23.5762" y="109.554" width="1.90995" height="9.52642" fill="#565656" fill-opacity="0.3"/>
<rect x="27.396" y="109.554" width="1.90995" height="9.52642" fill="#565656" fill-opacity="0.3"/>
<rect x="31.2158" y="109.554" width="1.90995" height="9.52642" fill="#565656" fill-opacity="0.3"/>
<rect x="35.0356" y="109.554" width="1.90995" height="9.52642" fill="#565656" fill-opacity="0.3"/>
<rect x="38.8555" y="109.554" width="1.90994" height="9.52642" fill="#565656" fill-opacity="0.3"/>
<rect x="42.6758" y="109.554" width="1.90994" height="9.52642" fill="#565656" fill-opacity="0.3"/>
<rect x="46.4956" y="109.554" width="1.90995" height="9.52642" fill="#565656" fill-opacity="0.3"/>
<rect x="50.3154" y="109.554" width="1.90995" height="9.52642" fill="#565656" fill-opacity="0.3"/>
<rect x="54.1353" y="109.554" width="1.90995" height="9.52642" fill="#565656" fill-opacity="0.3"/>
<rect x="57.9551" y="109.554" width="1.90994" height="9.52642" fill="#565656" fill-opacity="0.3"/>
<path d="M58.7752 109.554H55.3291C55.3291 109.554 53.0166 114.504 50.3155 116.46C47.6197 118.414 42.1982 119.08 42.1982 119.08H58.7752C60.4321 119.08 61.7752 117.737 61.7752 116.08V112.554C61.7752 110.897 60.4321 109.554 58.7752 109.554Z" fill="#565656" fill-opacity="0.3"/>
<path d="M60.3461 109.554H15.4553C14.6661 109.554 14.0264 110.194 14.0264 110.983H61.775C61.775 110.194 61.1353 109.554 60.3461 109.554Z" fill="#565656" fill-opacity="0.3"/>
<path d="M58.6907 79.1884H17.1107C15.4073 79.1884 14.0264 80.566 14.0264 82.2653V85.638C14.0264 87.3373 15.4073 88.7148 17.1107 88.7148H58.6907C60.3941 88.7148 61.775 87.3373 61.775 85.638V82.2653C61.775 80.566 60.3941 79.1884 58.6907 79.1884Z" fill="#E3C191"/>
<path fill-rule="evenodd" clip-rule="evenodd" d="M17.1108 77.1372H58.6908C61.5299 77.1372 63.8314 79.4331 63.8314 82.2653V85.638C63.8314 88.4702 61.5298 90.7661 58.6908 90.7661H17.1108C14.2717 90.7661 11.9702 88.4702 11.9702 85.638V82.2653C11.9702 79.4331 14.2718 77.1372 17.1108 77.1372ZM17.1108 79.1884H58.6908C60.3942 79.1884 61.7751 80.566 61.7751 82.2653V85.638C61.7751 87.3373 60.3942 88.7149 58.6908 88.7149H17.1108C15.4074 88.7149 14.0265 87.3373 14.0265 85.638V82.2653C14.0265 80.566 15.4074 79.1884 17.1108 79.1884Z" fill="#274430"/>
<rect x="15.9365" y="79.1884" width="1.90995" height="9.52642" fill="#565656" fill-opacity="0.3"/>
<rect x="19.7563" y="79.1884" width="1.90995" height="9.52642" fill="#565656" fill-opacity="0.3"/>
<rect x="23.5762" y="79.1884" width="1.90995" height="9.52642" fill="#565656" fill-opacity="0.3"/>
<rect x="27.396" y="79.1884" width="1.90995" height="9.52642" fill="#565656" fill-opacity="0.3"/>
<rect x="31.2158" y="79.1884" width="1.90995" height="9.52642" fill="#565656" fill-opacity="0.3"/>
<rect x="35.0356" y="79.1884" width="1.90995" height="9.52642" fill="#565656" fill-opacity="0.3"/>
<rect x="38.8555" y="79.1884" width="1.90994" height="9.52642" fill="#565656" fill-opacity="0.3"/>
<rect x="42.6758" y="79.1884" width="1.90994" height="9.52642" fill="#565656" fill-opacity="0.3"/>
<rect x="46.4956" y="79.1884" width="1.90995" height="9.52642" fill="#565656" fill-opacity="0.3"/>
<rect x="50.3154" y="79.1884" width="1.90995" height="9.52642" fill="#565656" fill-opacity="0.3"/>
<rect x="54.1353" y="79.1884" width="1.90995" height="9.52642" fill="#565656" fill-opacity="0.3"/>
<rect x="57.9551" y="79.1884" width="1.90994" height="9.52642" fill="#565656" fill-opacity="0.3"/>
<path d="M58.7752 79.1884H55.3291C55.3291 79.1884 53.0166 84.1381 50.3155 86.0951C47.6197 88.0482 42.1982 88.7148 42.1982 88.7148H58.7752C60.4321 88.7148 61.7752 87.3717 61.7752 85.7148V82.1884C61.7752 80.5316 60.4321 79.1884 58.7752 79.1884Z" fill="#565656" fill-opacity="0.3"/>
<path d="M60.3461 79.1884H15.4553C14.6661 79.1884 14.0264 79.8282 14.0264 80.6174H61.775C61.775 79.8282 61.1353 79.1884 60.3461 79.1884Z" fill="#565656" fill-opacity="0.3"/>
<path d="M58.989 48.8229H17.4091C15.7056 48.8229 14.3247 50.2005 14.3247 51.8998V55.2725C14.3247 56.9718 15.7056 58.3494 17.4091 58.3494H58.989C60.6925 58.3494 62.0734 56.9718 62.0734 55.2725V51.8998C62.0734 50.2005 60.6925 48.8229 58.989 48.8229Z" fill="#E3C191"/>
<path fill-rule="evenodd" clip-rule="evenodd" d="M17.4092 46.7717H58.9891C61.8282 46.7717 64.1297 49.0676 64.1297 51.8998V55.2725C64.1297 58.1047 61.8282 60.4006 58.9891 60.4006H17.4092C14.5701 60.4006 12.2686 58.1047 12.2686 55.2725V51.8998C12.2686 49.0676 14.5701 46.7717 17.4092 46.7717ZM17.4092 48.823H58.9891C60.6926 48.823 62.0735 50.2005 62.0735 51.8998V55.2725C62.0735 56.9718 60.6926 58.3494 58.9891 58.3494H17.4092C15.7057 58.3494 14.3248 56.9718 14.3248 55.2725V51.8998C14.3248 50.2005 15.7057 48.823 17.4092 48.823Z" fill="#274430"/>
<rect x="16.2349" y="48.8229" width="1.90995" height="9.52642" fill="#565656" fill-opacity="0.3"/>
<rect x="20.0547" y="48.8229" width="1.90995" height="9.52642" fill="#565656" fill-opacity="0.3"/>
<rect x="23.8745" y="48.8229" width="1.90995" height="9.52642" fill="#565656" fill-opacity="0.3"/>
<rect x="27.6943" y="48.8229" width="1.90995" height="9.52642" fill="#565656" fill-opacity="0.3"/>
<rect x="31.5142" y="48.8229" width="1.90995" height="9.52642" fill="#565656" fill-opacity="0.3"/>
<rect x="35.334" y="48.8229" width="1.90995" height="9.52642" fill="#565656" fill-opacity="0.3"/>
<rect x="39.1538" y="48.8229" width="1.90994" height="9.52642" fill="#565656" fill-opacity="0.3"/>
<rect x="42.9741" y="48.8229" width="1.90994" height="9.52642" fill="#565656" fill-opacity="0.3"/>
<rect x="46.7939" y="48.8229" width="1.90995" height="9.52642" fill="#565656" fill-opacity="0.3"/>
<rect x="50.6138" y="48.8229" width="1.90995" height="9.52642" fill="#565656" fill-opacity="0.3"/>
<rect x="54.4336" y="48.8229" width="1.90995" height="9.52642" fill="#565656" fill-opacity="0.3"/>
<rect x="58.2534" y="48.8229" width="1.90994" height="9.52642" fill="#565656" fill-opacity="0.3"/>
<path d="M59.0735 48.8229H55.6275C55.6275 48.8229 53.3149 53.7726 50.6139 55.7296C47.9181 57.6827 42.4966 58.3494 42.4966 58.3494H59.0735C60.7304 58.3494 62.0735 57.0062 62.0735 55.3494V51.8229C62.0735 50.1661 60.7304 48.8229 59.0735 48.8229Z" fill="#565656" fill-opacity="0.3"/>
<path d="M60.6444 48.8229H15.7537C14.9645 48.8229 14.3247 49.4627 14.3247 50.2519H62.0734C62.0734 49.4627 61.4336 48.8229 60.6444 48.8229Z" fill="#565656" fill-opacity="0.3"/>
<path d="M91.022 135.078L80.2661 95.0347C79.8252 93.3933 78.1339 92.4192 76.4885 92.859L73.227 93.7308C71.5816 94.1706 70.6051 95.8577 71.046 97.4991L81.802 137.543C82.2428 139.184 83.9341 140.158 85.5795 139.718L88.841 138.847C90.4864 138.407 91.4629 136.72 91.022 135.078Z" fill="#E3C191"/>
<path fill-rule="evenodd" clip-rule="evenodd" d="M82.2524 94.5038L93.0083 134.547C93.7431 137.283 92.1157 140.095 89.3733 140.828L86.1118 141.7C83.3695 142.433 80.5507 140.809 79.8159 138.074L69.06 98.03C68.3251 95.2944 69.9526 92.4825 72.6949 91.7494L75.9564 90.8777C78.6988 90.1446 81.5176 91.7681 82.2524 94.5038ZM80.2662 95.0347L91.0221 135.078C91.463 136.72 90.4865 138.407 88.8411 138.847L85.5796 139.718C83.9342 140.158 82.243 139.184 81.8021 137.543L71.0461 97.4991C70.6053 95.8577 71.5817 94.1706 73.2271 93.7308L76.4886 92.859C78.134 92.4192 79.8253 93.3933 80.2662 95.0347Z" fill="#274430"/>
<rect width="1.90471" height="9.54373" transform="matrix(0.25941 0.965767 -0.966084 0.258229 79.9619 93.9022)" fill="#565656" fill-opacity="0.3"/>
<rect width="1.90471" height="9.54373" transform="matrix(0.25941 0.965767 -0.966084 0.258229 80.9502 97.5812)" fill="#565656" fill-opacity="0.3"/>
<rect width="1.90471" height="9.54373" transform="matrix(0.25941 0.965767 -0.966084 0.258229 81.9385 101.26)" fill="#565656" fill-opacity="0.3"/>
<rect width="1.90471" height="9.54373" transform="matrix(0.25941 0.965767 -0.966084 0.258229 82.9263 104.939)" fill="#565656" fill-opacity="0.3"/>
<rect width="1.90471" height="9.54373" transform="matrix(0.25941 0.965767 -0.966084 0.258229 83.9146 108.618)" fill="#565656" fill-opacity="0.3"/>
<rect width="1.90471" height="9.54373" transform="matrix(0.25941 0.965767 -0.966084 0.258229 84.9028 112.297)" fill="#565656" fill-opacity="0.3"/>
<rect width="1.90471" height="9.54373" transform="matrix(0.25941 0.965767 -0.966084 0.258229 85.8911 115.976)" fill="#565656" fill-opacity="0.3"/>
<rect width="1.90471" height="9.54373" transform="matrix(0.25941 0.965767 -0.966084 0.258229 86.8794 119.655)" fill="#565656" fill-opacity="0.3"/>
<rect width="1.90471" height="9.54373" transform="matrix(0.25941 0.965767 -0.966084 0.258229 87.8677 123.334)" fill="#565656" fill-opacity="0.3"/>
<rect width="1.90471" height="9.54373" transform="matrix(0.25941 0.965767 -0.966084 0.258229 88.8555 127.013)" fill="#565656" fill-opacity="0.3"/>
<rect width="1.90471" height="9.54373" transform="matrix(0.25941 0.965767 -0.966084 0.258229 89.8438 130.692)" fill="#565656" fill-opacity="0.3"/>
<rect width="1.90471" height="9.54373" transform="matrix(0.25941 0.965767 -0.966084 0.258229 90.832 134.371)" fill="#565656" fill-opacity="0.3"/>
<path d="M90.293 132.293L91.0535 135.16C91.4774 136.757 90.5282 138.396 88.9311 138.823L83.4762 140.281C82.9538 140.439 82.6003 140.515 82.6003 140.515L83.4762 140.281C84.8126 139.875 87.2545 138.923 87.7135 137.292C87.9283 136.529 88.1377 135.433 88.296 134.51C88.4783 133.446 89.2503 132.572 90.293 132.293Z" fill="#565656" fill-opacity="0.3"/>
<path d="M91.4537 136.685L79.8353 93.4309C79.6323 92.6753 78.855 92.2265 78.099 92.4285L90.4525 138.42C91.2084 138.217 91.6567 137.441 91.4537 136.685Z" fill="#565656" fill-opacity="0.3"/>
</svg>
