<svg width="192" height="44" viewBox="0 0 192 44" fill="none" xmlns="http://www.w3.org/2000/svg">
<g clip-path="url(#clip0_3396_25845)">
<path d="M25.9586 39.1379C22.4549 34.8481 21.0478 29.9135 21.6129 24.1338C21.7195 23.0406 22.5511 23.4954 22.7536 26.0462C23.1662 31.2333 24.5194 34.1654 27.9541 37.3013L29.6587 34.872C33.6527 29.1801 34.7588 22.3315 31.532 15.6711C29.9602 12.4269 27.3605 9.22732 23.5658 6.22784L21.5554 4.63874L21.2121 4.36394L20.9901 4.74534C19.3668 8.68912 17.484 10.6676 15.8977 12.3345C15.1848 13.0837 14.5317 13.7699 13.989 14.5434C9.15156 21.4373 10.355 31.1225 16.6158 36.4626C18.8518 38.1204 21.9559 39.1475 25.3872 39.1475C25.5787 39.1475 25.7693 39.1443 25.9586 39.1379Z" fill="#92E3A9"/>
<path d="M37.3919 32.423C38.5878 27.7629 38.0125 22.1915 34.8075 16.2998C33.8101 14.7162 33.8101 12.3345 33.8101 12.3345C33.1258 13.0367 32.1584 15.1774 31.532 15.6711C34.7588 22.3315 33.6527 29.1801 29.6587 34.872L27.9541 37.3013C24.5194 34.1654 23.1662 31.2333 22.7536 26.0462C22.5511 23.4954 21.7195 23.0406 21.6129 24.1338C21.0477 29.9148 22.4555 34.8503 25.961 39.1408C31.4538 38.9873 36.0259 36.1872 37.3919 32.423Z" fill="#80B990"/>
<path d="M26.8255 41.1637C27.0014 41.1637 27.1766 41.1613 27.351 41.1563C27.381 41.1573 27.4111 41.1574 27.4413 41.1565C33.3486 40.9914 38.5632 37.9677 40.1718 33.5347C40.1859 33.4958 40.1981 33.4562 40.2084 33.4162C41.4928 28.4115 40.8504 22.5129 37.5074 16.3675C36.9518 15.5835 36.8959 14.6472 36.5671 13.8812C36.2383 13.1153 35.5322 11.6964 34.5703 11.2051C34.4937 11.1593 34.4118 11.1199 34.3251 11.0881C33.7806 10.8878 33.1617 11.0232 32.7661 11.4291C32.5327 11.6687 32.3166 11.9689 32.1324 12.2482C30.5457 10.0481 22.648 2.95207 20.9548 3.04833C20.4178 3.07887 20.1742 3.36779 19.9692 3.71991L19.7471 4.10131C19.7171 4.15287 19.6907 4.20625 19.6682 4.26109C18.1386 7.97716 16.3921 9.81241 14.8455 11.4376L14.8093 11.4756C14.1198 12.2002 13.4072 12.949 12.8066 13.8049C7.59819 21.2274 8.86253 31.653 15.6647 37.455C15.6889 37.4757 15.7139 37.4955 15.7396 37.5146C16.6546 38.1929 17.6913 38.772 18.8201 39.2338C21.0913 40.4586 23.8623 41.1637 26.8255 41.1637Z" fill="#304436"/>
<path d="M25.9586 39.1379C22.4549 34.8481 21.0478 29.9135 21.6129 24.1338C21.7195 23.0406 22.5511 23.4954 22.7536 26.0462C23.1662 31.2333 24.5194 34.1654 27.9541 37.3013L29.6587 34.872C33.6527 29.1801 34.7588 22.3315 31.532 15.6711C29.9602 12.4269 27.3605 9.22732 23.5658 6.22784L21.5554 4.63874L21.2121 4.36394L20.9901 4.74534C19.3668 8.68912 17.484 10.6676 15.8977 12.3345C15.1848 13.0837 14.5317 13.7699 13.989 14.5434C9.15156 21.4373 10.355 31.1225 16.6158 36.4626C18.8518 38.1204 21.9559 39.1475 25.3872 39.1475C25.5787 39.1475 25.7693 39.1443 25.9586 39.1379Z" fill="#92E3A9"/>
<path d="M37.3919 32.423C38.5878 27.7629 38.0125 22.1915 34.8075 16.2998C33.8101 14.7162 33.8101 12.3345 33.8101 12.3345C33.1258 13.0367 32.1584 15.1774 31.532 15.6711C34.7588 22.3315 33.6527 29.1801 29.6587 34.872L27.9541 37.3013C24.5194 34.1654 23.1662 31.2333 22.7536 26.0462C22.5511 23.4954 21.7195 23.0406 21.6129 24.1338C21.0477 29.9148 22.4555 34.8503 25.961 39.1408C31.4538 38.9873 36.0259 36.1872 37.3919 32.423Z" fill="#80B990"/>
</g>
<path d="M53.0151 33.6685V10.8169H61.2539C66.6586 10.8169 69.9871 13.4612 69.9871 17.9335C69.9871 22.3733 66.6586 25.0175 61.2539 25.0175H58.8812V33.6685H53.0151ZM61.5835 15.6157H58.8812V20.2187H61.5835C63.0665 20.2187 63.9233 19.272 63.9233 17.8683C63.9233 16.5624 63.0665 15.6157 61.5835 15.6157Z" fill="#304436"/>
<path d="M76.8541 34.1582C73.4927 34.1582 71.1529 32.2321 71.1529 29.0329C71.1529 26.5192 73.0972 24.5932 76.7223 24.0055L81.4019 23.2221C81.369 21.9815 80.2815 21.0348 78.7326 21.0348C77.3485 21.0348 76.3268 21.6877 75.5689 22.765L71.7461 19.8923C73.262 17.803 75.7996 16.5624 78.8973 16.5624C84.1702 16.5624 86.6089 19.6964 86.6089 23.2873V33.6685H81.4019V32.428C80.4792 33.44 78.6007 34.1582 76.8541 34.1582ZM76.3268 28.7717C76.3268 29.6205 76.9859 30.1428 78.0076 30.1428C79.6883 30.1428 80.7428 29.3593 81.4019 28.38V26.7477L78.1394 27.3027C76.7882 27.5312 76.3268 28.0209 76.3268 28.7717Z" fill="#304436"/>
<path d="M99.0126 29.4573C100.331 29.4573 101.385 28.8044 101.979 27.9556L106.065 31.0243C104.516 33.0483 102.045 34.3214 98.9797 34.3214C93.1137 34.3214 89.7522 30.2408 89.7522 25.4419C89.7522 20.6431 93.1137 16.5624 98.9797 16.5624C102.045 16.5624 104.516 17.8356 106.065 19.8596L101.979 22.9283C101.385 22.0795 100.364 21.4266 98.9138 21.4266C96.7717 21.4266 95.1898 23.0262 95.1898 25.4419C95.1898 27.8903 96.7717 29.4573 99.0126 29.4573Z" fill="#304436"/>
<path d="M116.197 16.5624C121.634 16.5624 125.358 20.4146 125.358 25.4419C125.358 30.4693 121.634 34.3214 116.197 34.3214C110.726 34.3214 107.002 30.4693 107.002 25.4419C107.002 20.4146 110.726 16.5624 116.197 16.5624ZM116.23 29.4573C118.339 29.4573 119.954 27.8577 119.954 25.4419C119.954 22.9609 118.339 21.4266 116.23 21.4266C114.055 21.4266 112.44 22.9935 112.44 25.4419C112.44 27.8903 114.055 29.4573 116.23 29.4573Z" fill="#304436"/>
<path d="M139.165 26.5192V17.2153H144.438V26.2254C144.438 31.1548 141.472 34.3214 136.364 34.3214C131.19 34.3214 128.323 31.1548 128.323 26.2254V17.2153H133.596V26.5192C133.596 28.2494 134.452 29.4573 136.397 29.4573C138.275 29.4573 139.165 28.2494 139.165 26.5192Z" fill="#304436"/>
<path d="M148.38 41.6992V29.4573V17.2153H153.62V18.1294C154.741 17.1174 156.191 16.5624 158.234 16.5624C163.54 16.5624 166.605 20.6431 166.605 25.4419C166.605 30.2408 163.54 34.3214 158.234 34.3214C156.191 34.3214 154.741 33.7664 153.62 32.7544V41.6992H148.38ZM157.476 21.4266C155.795 21.4266 154.543 22.1448 153.62 23.3853V27.4986C154.609 28.7717 155.828 29.4573 157.476 29.4573C159.783 29.4573 161.2 27.8577 161.2 25.4419C161.2 23.0262 159.783 21.4266 157.476 21.4266Z" fill="#304436"/>
<path d="M174.207 34.1582C170.846 34.1582 168.506 32.2321 168.506 29.0329C168.506 26.5192 170.45 24.5932 174.075 24.0055L178.755 23.2221C178.722 21.9815 177.635 21.0348 176.086 21.0348C174.702 21.0348 173.68 21.6877 172.922 22.765L169.099 19.8923C170.615 17.803 173.153 16.5624 176.25 16.5624C181.523 16.5624 183.962 19.6964 183.962 23.2873V33.6685H178.755V32.428C177.832 33.44 175.954 34.1582 174.207 34.1582ZM173.68 28.7717C173.68 29.6205 174.339 30.1428 175.361 30.1428C177.041 30.1428 178.096 29.3593 178.755 28.38V26.7477L175.492 27.3027C174.141 27.5312 173.68 28.0209 173.68 28.7717Z" fill="#304436"/>
<defs>
<clipPath id="clip0_3396_25845">
<rect width="34.3881" height="39.7419" fill="white" transform="translate(7.88037 2.12903)"/>
</clipPath>
</defs>
</svg>
