<svg width="661" height="1003" viewBox="0 0 661 1003" fill="none" xmlns="http://www.w3.org/2000/svg">
<path d="M157 375.5L155.369 376.658L157 375.5ZM526 476.5L524.626 477.954L526 476.5ZM526 829.5L524.013 829.728L526 829.5ZM657.783 1002.37C658.815 1002.76 659.971 1002.25 660.367 1001.22C660.763 1000.19 660.248 999.029 659.217 998.633L658.5 1000.5L657.783 1002.37ZM4.9789 17.8807C5.27384 18.9452 6.37586 19.569 7.44032 19.2741C8.50479 18.9791 9.12861 17.8771 8.83366 16.8126L6.90628 17.3467L4.9789 17.8807ZM18.194 49.3308C17.8788 48.2722 16.765 47.6696 15.7064 47.9848C14.6478 48.3 14.0451 49.4138 14.3603 50.4724L16.2772 49.9016L18.194 49.3308ZM24.3159 82.8995C24.649 83.9527 25.7727 84.5365 26.8259 84.2035C27.879 83.8705 28.4628 82.7467 28.1298 81.6936L26.2229 82.2965L24.3159 82.8995ZM38.6209 113.925C38.2701 112.877 37.1366 112.313 36.0892 112.663C35.0418 113.014 34.4772 114.148 34.828 115.195L36.7244 114.56L38.6209 113.925ZM45.8908 147.277C46.2604 148.318 47.4038 148.862 48.4447 148.492C49.4856 148.123 50.0299 146.98 49.6603 145.939L47.7756 146.608L45.8908 147.277ZM61.3039 177.758C60.914 176.725 59.7601 176.203 58.7266 176.593C57.6932 176.983 57.1715 178.137 57.5614 179.17L59.4326 178.464L61.3039 177.758ZM69.8934 210.818C70.306 211.842 71.4711 212.338 72.4957 211.926C73.5203 211.513 74.0165 210.348 73.6039 209.324L71.7486 210.071L69.8934 210.818ZM86.6426 240.582C86.2041 239.568 85.0268 239.102 84.013 239.54C82.9992 239.979 82.5328 241.156 82.9712 242.17L84.8069 241.376L86.6426 240.582ZM96.9102 273.158C97.3788 274.158 98.5695 274.589 99.5698 274.12C100.57 273.652 101.001 272.461 100.532 271.461L98.7213 272.309L96.9102 273.158ZM115.425 301.852C114.921 300.87 113.715 300.482 112.733 300.987C111.75 301.492 111.363 302.697 111.867 303.68L113.646 302.766L115.425 301.852ZM128.059 333.58C128.608 334.539 129.83 334.871 130.789 334.322C131.747 333.773 132.079 332.551 131.53 331.592L129.795 332.586L128.059 333.58ZM149.139 360.412C148.534 359.488 147.295 359.23 146.371 359.835C145.447 360.44 145.188 361.68 145.793 362.604L147.466 361.508L149.139 360.412ZM166.199 389.556C166.977 390.34 168.244 390.344 169.028 389.566C169.812 388.788 169.816 387.522 169.038 386.738L167.619 388.147L166.199 389.556ZM195.151 405.48C194.164 404.986 192.962 405.385 192.468 406.373C191.973 407.361 192.373 408.562 193.36 409.057L194.256 407.269L195.151 405.48ZM224.838 420.085C225.915 420.334 226.989 419.664 227.238 418.588C227.488 417.512 226.818 416.438 225.741 416.188L225.29 418.137L224.838 420.085ZM258.035 421.128C256.935 421.028 255.963 421.84 255.863 422.94C255.764 424.04 256.576 425.012 257.676 425.111L257.855 423.119L258.035 421.128ZM290.757 426.794C291.861 426.817 292.775 425.941 292.798 424.836C292.821 423.732 291.945 422.818 290.84 422.795L290.799 424.795L290.757 426.794ZM323.767 423.012C322.662 423.013 321.768 423.91 321.769 425.014C321.77 426.119 322.666 427.013 323.771 427.012L323.769 425.012L323.767 423.012ZM356.721 427.134C357.826 427.149 358.734 426.267 358.749 425.162C358.765 424.058 357.882 423.15 356.778 423.134L356.749 425.134L356.721 427.134ZM389.83 424.332C388.727 424.262 387.776 425.098 387.706 426.2C387.635 427.302 388.471 428.253 389.573 428.324L389.701 426.328L389.83 424.332ZM422.182 431.75C423.274 431.917 424.295 431.168 424.462 430.076C424.629 428.984 423.879 427.963 422.788 427.796L422.485 429.773L422.182 431.75ZM455.244 434.822C454.183 434.515 453.074 435.126 452.767 436.187C452.46 437.248 453.071 438.357 454.132 438.665L454.688 436.744L455.244 434.822ZM484.564 450.287C485.557 450.771 486.754 450.36 487.239 449.367C487.724 448.375 487.312 447.177 486.32 446.692L485.442 448.49L484.564 450.287ZM514.659 464.2C513.783 463.527 512.527 463.692 511.855 464.568C511.182 465.444 511.346 466.7 512.222 467.373L513.441 465.786L514.659 464.2ZM535.813 489.091C536.574 489.891 537.84 489.923 538.641 489.163C539.441 488.402 539.473 487.136 538.713 486.335L537.263 487.713L535.813 489.091ZM559.117 510.869C558.477 509.969 557.228 509.759 556.328 510.4C555.429 511.041 555.219 512.29 555.86 513.19L557.489 512.029L559.117 510.869ZM571.536 540.305C571.985 541.315 573.167 541.769 574.176 541.321C575.185 540.872 575.64 539.69 575.191 538.681L573.364 539.493L571.536 540.305ZM584.478 569.371C584.298 568.281 583.269 567.544 582.179 567.724C581.089 567.903 580.352 568.933 580.531 570.023L582.505 569.697L584.478 569.371ZM581.591 601.097C581.494 602.197 582.307 603.167 583.408 603.264C584.508 603.361 585.479 602.548 585.576 601.448L583.583 601.272L581.591 601.097ZM579.664 632.902C579.958 631.837 579.333 630.736 578.269 630.442C577.204 630.148 576.103 630.772 575.809 631.837L577.736 632.37L579.664 632.902ZM565.76 661.678C565.363 662.709 565.878 663.866 566.909 664.263C567.94 664.659 569.097 664.145 569.493 663.114L567.627 662.396L565.76 661.678ZM557.536 692.528C557.961 691.508 557.479 690.337 556.459 689.913C555.439 689.488 554.268 689.97 553.844 690.99L555.69 691.759L557.536 692.528ZM541.96 720.43C541.567 721.462 542.086 722.618 543.118 723.01C544.151 723.403 545.306 722.885 545.699 721.852L543.829 721.141L541.96 720.43ZM535.617 751.708C535.922 750.646 535.308 749.539 534.246 749.235C533.184 748.93 532.077 749.544 531.772 750.606L533.695 751.157L535.617 751.708ZM524.926 781.799C524.766 782.892 525.522 783.908 526.615 784.068C527.708 784.229 528.724 783.473 528.884 782.38L526.905 782.089L524.926 781.799ZM526.909 813.62C526.883 812.516 525.967 811.642 524.862 811.668C523.758 811.694 522.884 812.61 522.91 813.714L524.909 813.667L526.909 813.62ZM525.904 844.168C526.067 845.261 527.084 846.015 528.177 845.852C529.269 845.69 530.023 844.673 529.861 843.58L527.883 843.874L525.904 844.168ZM535.292 871.799C535.03 870.726 533.948 870.068 532.875 870.329C531.802 870.591 531.144 871.673 531.405 872.746L533.349 872.273L535.292 871.799ZM540.095 900.601C540.499 901.629 541.659 902.135 542.688 901.732C543.716 901.328 544.222 900.168 543.819 899.14L541.957 899.87L540.095 900.601ZM556.524 924.677C555.941 923.739 554.707 923.451 553.769 924.035C552.831 924.618 552.544 925.852 553.128 926.79L554.826 925.733L556.524 924.677ZM571.065 949.94C571.828 950.739 573.094 950.768 573.893 950.006C574.692 949.243 574.722 947.977 573.959 947.178L572.512 948.559L571.065 949.94ZM595.515 965.857C594.62 965.21 593.37 965.41 592.723 966.305C592.075 967.2 592.276 968.451 593.171 969.098L594.343 967.478L595.515 965.857ZM617.973 984.468C618.947 984.989 620.159 984.622 620.68 983.648C621.202 982.674 620.834 981.462 619.861 980.941L618.917 982.704L617.973 984.468ZM645.83 993.246C644.812 992.816 643.639 993.292 643.209 994.309C642.779 995.327 643.255 996.5 644.273 996.93L645.051 995.088L645.83 993.246ZM2.5 1C0.562581 1.4964 0.562595 1.49645 0.562615 1.49653C0.56263 1.49658 0.562655 1.49668 0.562684 1.4968C0.562741 1.49702 0.562822 1.49733 0.562925 1.49774C0.563132 1.49854 0.563431 1.49971 0.563822 1.50124C0.564605 1.50429 0.565756 1.50877 0.567275 1.51469C0.570313 1.52652 0.574824 1.54407 0.580803 1.5673C0.592761 1.61376 0.610592 1.68294 0.634267 1.7745C0.681615 1.95763 0.752335 2.2303 0.846177 2.58989C1.03386 3.30906 1.31404 4.3759 1.68471 5.76933C2.42606 8.55619 3.52943 12.6495 4.9789 17.8807L6.90628 17.3467L8.83366 16.8126C7.38808 11.5954 6.2883 7.51541 5.55028 4.74103C5.18126 3.35385 4.90269 2.29309 4.71655 1.57983C4.62348 1.2232 4.55352 0.953444 4.50691 0.773195C4.48361 0.683071 4.46615 0.615323 4.45455 0.570282C4.44876 0.547761 4.44443 0.530917 4.44157 0.51979C4.44014 0.514227 4.43908 0.510093 4.43839 0.507394C4.43804 0.506044 4.43779 0.505053 4.43763 0.504421C4.43755 0.504106 4.43749 0.50388 4.43745 0.503743C4.43744 0.503675 4.43743 0.503641 4.43742 0.503607C4.43742 0.503594 4.43742 0.503605 2.5 1ZM16.2772 49.9016L14.3603 50.4724C17.2568 60.1995 20.5835 71.0957 24.3159 82.8995L26.2229 82.2965L28.1298 81.6936C24.4047 69.9129 21.0845 59.0382 18.194 49.3308L16.2772 49.9016ZM36.7244 114.56L34.828 115.195C38.2836 125.512 41.9751 136.248 45.8908 147.277L47.7756 146.608L49.6603 145.939C45.7532 134.933 42.0694 124.22 38.6209 113.925L36.7244 114.56ZM59.4326 178.464L57.5614 179.17C61.4986 189.606 65.6123 200.186 69.8934 210.818L71.7486 210.071L73.6039 209.324C69.3345 198.722 65.2315 188.168 61.3039 177.758L59.4326 178.464ZM84.8069 241.376L82.9712 242.17C87.4683 252.568 92.1174 262.927 96.9102 273.158L98.7213 272.309L100.532 271.461C95.758 261.269 91.1252 250.947 86.6426 240.582L84.8069 241.376ZM113.646 302.766L111.867 303.68C117.122 313.911 122.522 323.911 128.059 333.58L129.795 332.586L131.53 331.592C126.026 321.981 120.655 312.035 115.425 301.852L113.646 302.766ZM147.466 361.508L145.793 362.604C148.948 367.42 152.14 372.11 155.369 376.658L157 375.5L158.631 374.342C155.433 369.838 152.268 365.19 149.139 360.412L147.466 361.508ZM157 375.5L155.369 376.658C158.724 381.382 162.34 385.668 166.199 389.556L167.619 388.147L169.038 386.738C165.335 383.007 161.86 378.889 158.631 374.342L157 375.5ZM194.256 407.269L193.36 409.057C203.118 413.944 213.675 417.498 224.838 420.085L225.29 418.137L225.741 416.188C214.819 413.657 204.572 410.198 195.151 405.48L194.256 407.269ZM257.855 423.119L257.676 425.111C268.385 426.077 279.454 426.558 290.757 426.794L290.799 424.795L290.84 422.795C279.592 422.56 268.621 422.082 258.035 421.128L257.855 423.119ZM323.769 425.012L323.771 427.012C334.675 427.001 345.684 426.977 356.721 427.134L356.749 425.134L356.778 423.134C345.704 422.977 334.662 423.001 323.767 423.012L323.769 425.012ZM389.701 426.328L389.573 428.324C400.553 429.03 411.453 430.108 422.182 431.75L422.485 429.773L422.788 427.796C411.918 426.133 400.899 425.044 389.83 424.332L389.701 426.328ZM454.688 436.744L454.132 438.665C464.585 441.691 474.761 445.499 484.564 450.287L485.442 448.49L486.32 446.692C476.286 441.792 465.892 437.906 455.244 434.822L454.688 436.744ZM513.441 465.786L512.222 467.373C516.462 470.629 520.6 474.149 524.626 477.954L526 476.5L527.374 475.046C523.248 471.148 519.006 467.539 514.659 464.2L513.441 465.786ZM526 476.5L524.626 477.954C528.596 481.705 532.321 485.417 535.813 489.091L537.263 487.713L538.713 486.335C535.169 482.606 531.393 478.844 527.374 475.046L526 476.5ZM557.489 512.029L555.86 513.19C562.451 522.44 567.606 531.464 571.536 540.305L573.364 539.493L575.191 538.681C571.144 529.574 565.851 520.318 559.117 510.869L557.489 512.029ZM582.505 569.697L580.531 570.023C582.264 580.518 582.494 590.847 581.591 601.097L583.583 601.272L585.576 601.448C586.505 590.9 586.271 580.232 584.478 569.371L582.505 569.697ZM577.736 632.37L575.809 631.837C573.07 641.755 569.607 651.674 565.76 661.678L567.627 662.396L569.493 663.114C573.368 653.039 576.879 642.989 579.664 632.902L577.736 632.37ZM555.69 691.759L553.844 690.99C549.822 700.648 545.758 710.448 541.96 720.43L543.829 721.141L545.699 721.852C549.471 711.936 553.513 702.19 557.536 692.528L555.69 691.759ZM533.695 751.157L531.772 750.606C528.868 760.744 526.492 771.123 524.926 781.799L526.905 782.089L528.884 782.38C530.419 771.91 532.753 761.706 535.617 751.708L533.695 751.157ZM524.909 813.667L522.91 813.714C523.034 818.976 523.392 824.312 524.013 829.728L526 829.5L527.987 829.272C527.38 823.979 527.03 818.764 526.909 813.62L524.909 813.667ZM526 829.5L524.013 829.728C524.58 834.678 525.209 839.49 525.904 844.168L527.883 843.874L529.861 843.58C529.173 838.949 528.55 834.182 527.987 829.272L526 829.5ZM533.349 872.273L531.405 872.746C533.83 882.698 536.703 891.956 540.095 900.601L541.957 899.87L543.819 899.14C540.501 890.684 537.679 881.6 535.292 871.799L533.349 872.273ZM554.826 925.733L553.128 926.79C558.325 935.145 564.273 942.821 571.065 949.94L572.512 948.559L573.959 947.178C567.356 940.258 561.576 932.799 556.524 924.677L554.826 925.733ZM594.343 967.478L593.171 969.098C600.695 974.541 608.942 979.635 617.973 984.468L618.917 982.704L619.861 980.941C610.966 976.182 602.875 971.182 595.515 965.857L594.343 967.478ZM645.051 995.088L644.273 996.93C648.629 998.771 653.131 1000.58 657.783 1002.37L658.5 1000.5L659.217 998.633C654.603 996.862 650.142 995.068 645.83 993.246L645.051 995.088Z" fill="#274430"/>
</svg>
