<svg width="40" height="40" viewBox="0 0 40 40" fill="none" xmlns="http://www.w3.org/2000/svg">
<path d="M2.85718 11.2253C2.85718 9.75933 4.08118 8.57092 5.59107 8.57092H34.9804C36.4903 8.57092 37.7143 9.75933 37.7143 11.2253V26.488C37.7143 27.9539 36.4903 29.1424 34.9804 29.1424H5.59107C4.08118 29.1424 2.85718 27.9539 2.85718 26.488V11.2253Z" fill="white"/>
<path d="M1.71436 26.7423V10.9709C1.71436 8.69866 3.52847 6.85663 5.7663 6.85663V8.22806C4.27442 8.22806 3.065 9.45608 3.065 10.9709V26.7423L3.0683 26.8836C3.13838 28.286 4.24601 29.4107 5.62715 29.4819L5.7663 29.4852H34.8053L34.9444 29.4819C36.3256 29.4107 37.4332 28.286 37.5033 26.8836L37.5066 26.7423V10.9709C37.5066 9.45608 36.2972 8.22806 34.8053 8.22806V6.85663C37.0431 6.85663 38.8572 8.69866 38.8572 10.9709V26.7423C38.8572 29.0146 37.0431 30.8566 34.8053 30.8566H5.7663C3.52847 30.8566 1.71436 29.0146 1.71436 26.7423ZM34.8053 6.85663V8.22806H5.7663V6.85663H34.8053Z" fill="#274430"/>
<path d="M10.2857 12.5709C9.37683 13.1865 9.04847 14.9126 9.64612 15.977C9.91383 16.3515 10.1884 16.5709 10.1884 16.5709C9.95895 16.419 9.77948 16.2145 9.64612 15.977C9.34086 15.5499 9.04445 14.9212 9.17402 14.1862C9.41723 12.8065 10.2857 12.5709 10.2857 12.5709Z" fill="white" fill-opacity="0.3"/>
<rect x="25.1428" y="13.1424" width="8.57143" height="1.14286" rx="0.571429" fill="#304436"/>
<rect x="25.1428" y="15.4281" width="8.57143" height="1.14286" rx="0.571428" fill="#304436"/>
<rect x="25.1428" y="17.7138" width="8.57143" height="1.14286" rx="0.571428" fill="#304436"/>
<path d="M34.2856 7.99951C36.1792 7.99951 37.7142 9.53454 37.7142 11.4281V26.2852C37.7142 28.1788 36.1792 29.7138 34.2856 29.7138V7.99951Z" fill="#565656" fill-opacity="0.3"/>
<path d="M8.57153 30.8566H15.4287V31.9995C15.4287 32.6307 14.8147 33.1423 14.0572 33.1423H9.94296C9.18554 33.1423 8.57153 32.6307 8.57153 31.9995V30.8566Z" fill="white"/>
<path d="M8.24493 31.1424V32.5709C8.24493 33.3107 8.79117 33.9188 9.49107 33.9918L9.63269 33.9995H13.796L13.9376 33.9918C14.6375 33.9188 15.1837 33.3107 15.1837 32.5709V31.1424H8.24493ZM16.5715 32.5709C16.5715 34.1489 15.3288 35.4281 13.796 35.4281H9.63269C8.09982 35.4281 6.85718 34.1489 6.85718 32.5709V29.7138H16.5715V32.5709Z" fill="#274430"/>
<path d="M26.2856 30.8566H31.9999V31.9995C31.9999 32.6307 31.4314 33.1423 30.7301 33.1423H27.5555C26.8542 33.1423 26.2856 32.6307 26.2856 31.9995V30.8566Z" fill="white"/>
<path d="M25.9781 31.1424V32.5709C25.9781 33.3107 26.5318 33.9188 27.2412 33.9918L27.3847 33.9995H30.9012L31.0447 33.9918C31.7541 33.9188 32.3078 33.3107 32.3078 32.5709V31.1424H25.9781ZM33.7144 32.5709C33.7144 34.1489 32.4549 35.4281 30.9012 35.4281H27.3847C25.831 35.4281 24.5715 34.1489 24.5715 32.5709V29.7138H33.7144V32.5709Z" fill="#274430"/>
<path d="M6.79033 20.2122C7.15553 20.1162 7.53321 20.3224 7.63339 20.6723C8.09309 22.2789 9.31396 23.5849 10.9005 24.2116L11.783 21.2563C11.8871 20.9074 12.2667 20.7055 12.6308 20.8052C12.9949 20.905 13.2056 21.2687 13.1015 21.6176L12.0214 25.2377C11.9179 25.5839 11.5433 25.7855 11.181 25.6902C8.81828 25.0678 6.95836 23.2852 6.31022 21.0202C6.21006 20.6702 6.42514 20.3082 6.79033 20.2122ZM18.6285 19.2496C18.6285 18.9882 18.6078 18.7317 18.5703 18.4808L15.5008 19.3176C15.1366 19.4168 14.7573 19.2141 14.6537 18.8652C14.5501 18.5161 14.7615 18.1526 15.1258 18.0534L18.9044 17.024L18.9707 17.0092C19.127 16.9824 19.2892 17.0083 19.4287 17.0837C19.588 17.1698 19.7045 17.3133 19.7528 17.4822C19.9138 18.0458 19.9999 18.6387 19.9999 19.2496C19.9999 21.088 19.2237 22.7543 17.9703 23.9613C17.7032 24.2184 17.2691 24.2192 17.0007 23.9632C16.7325 23.7072 16.7316 23.2911 16.9987 23.034C18.0067 22.0632 18.6285 20.7265 18.6285 19.2496ZM13.0312 12.5709C13.6681 12.5709 14.2863 12.653 14.874 12.8071C15.2393 12.9029 15.4547 13.2643 15.3548 13.6144C15.2548 13.9645 14.8777 14.1703 14.5124 14.0745C14.0415 13.9511 13.5448 13.8852 13.0312 13.8852C11.7263 13.8853 10.5273 14.3137 9.57528 15.0314L11.8453 17.1896C12.1141 17.4452 12.116 17.8612 11.8493 18.1188C11.5827 18.3764 11.1486 18.3781 10.8797 18.1227L8.09141 15.4723C7.96224 15.3495 7.88917 15.182 7.88851 15.0076C7.88794 14.8334 7.95989 14.666 8.08806 14.5424C9.34952 13.3256 11.0991 12.571 13.0312 12.5709Z" fill="#304436"/>
</svg>
