<svg width="40" height="40" viewBox="0 0 40 40" fill="none" xmlns="http://www.w3.org/2000/svg">
<g filter="url(#filter0_d_3969_2326)">
<path d="M15.7143 9.42859L3.42859 19.4286L22.8572 31.7143L34.5714 14.2857L17.4286 9.87015L15.7143 9.42859Z" fill="white"/>
</g>
<g filter="url(#filter1_d_3969_2326)">
<path d="M14.9927 8.54244C15.2742 8.31333 15.648 8.23149 15.9994 8.32202L34.8566 13.1792C35.2158 13.2717 35.5076 13.5328 35.6395 13.8795C35.7713 14.2261 35.7269 14.6152 35.5201 14.923L23.8058 32.3516C23.4606 32.8651 22.769 33.011 22.2461 32.6803L2.8175 20.3946C2.50676 20.198 2.30985 19.8637 2.28792 19.4967C2.26602 19.1297 2.42189 18.7746 2.70701 18.5424L14.9927 8.54244ZM3.42855 19.4286L22.8571 31.7143L34.5714 14.2857L15.7143 9.4286L3.42855 19.4286Z" fill="#304436"/>
</g>
<path d="M16.6707 10.707C16.7904 10.6043 16.9708 10.6177 17.0736 10.7371C17.1764 10.8567 17.163 11.0372 17.0435 11.14L15.4693 12.491L16.8683 12.9637L18.7673 11.3063C18.8862 11.2025 19.067 11.2148 19.1707 11.3337C19.2743 11.4525 19.2621 11.6328 19.1434 11.7366L17.4944 13.1752L18.5642 13.5368L20.4191 11.7862C20.5338 11.678 20.7148 11.6833 20.8231 11.7979C20.9314 11.9127 20.9261 12.0937 20.8114 12.202L19.1769 13.7438L20.2695 14.1127L22.0759 12.2689C22.1863 12.1562 22.3671 12.1541 22.4799 12.2645C22.5926 12.3749 22.5947 12.5557 22.4844 12.6685L20.8705 14.3158L21.9191 14.6702L23.6573 12.731C23.7627 12.6135 23.9433 12.6033 24.0608 12.7087C24.1783 12.814 24.1879 12.9946 24.0826 13.1121L22.5078 14.8688L23.8242 15.3136L25.6082 13.289C25.7125 13.1707 25.8927 13.1592 26.0111 13.2633C26.1296 13.3676 26.1411 13.5484 26.0368 13.6668L24.4113 15.5117L26.0346 16.0602L27.784 13.919C27.8838 13.7968 28.0642 13.7785 28.1864 13.8783C28.3085 13.9781 28.3263 14.1585 28.2265 14.2806L26.6127 16.2555L28.7383 16.9737L30.4341 14.6869C30.5281 14.5602 30.7069 14.5339 30.8337 14.6277C30.9604 14.7217 30.9874 14.9005 30.8934 15.0273L29.3075 17.1662L30.8058 17.6724C30.9552 17.7229 31.0354 17.8851 30.9849 18.0346C30.9343 18.1839 30.7722 18.2642 30.6227 18.2137L28.9498 17.6484L26.4419 21.0318L28.111 21.7366C28.2563 21.7979 28.3246 21.9657 28.2634 22.111C28.202 22.2563 28.0343 22.3246 27.8889 22.2633L26.0915 21.5039L23.4419 25.0786L25.2745 26.0323C25.4145 26.1051 25.4689 26.2774 25.3962 26.4174C25.3234 26.5573 25.1511 26.6118 25.0111 26.539L23.0976 25.5429L20.515 29.0273C20.4211 29.154 20.2422 29.1804 20.1155 29.0865C19.9888 28.9925 19.9624 28.8136 20.0563 28.6869L22.5842 25.2762L20.2416 24.0569L17.6501 27.2304C17.5503 27.3526 17.37 27.3704 17.2477 27.2706C17.1257 27.1708 17.1074 26.991 17.207 26.8688L19.7238 23.7873L17.9403 22.8593L15.3571 25.7924C15.2529 25.9106 15.0726 25.9221 14.9542 25.818C14.8358 25.7137 14.8243 25.533 14.9286 25.4146L17.4179 22.5876L16.1713 21.9386L13.6412 24.7622C13.5358 24.8796 13.3552 24.8893 13.2377 24.784C13.1204 24.6787 13.1107 24.498 13.2159 24.3805L15.6479 21.6663L14.3393 20.9854L11.8119 23.5669C11.7015 23.6796 11.5206 23.6818 11.4079 23.5714C11.2952 23.461 11.2936 23.2801 11.404 23.1674L13.8102 20.7098L12.5111 20.034L9.98156 22.4218C9.8668 22.5301 9.6864 22.5249 9.5781 22.4101C9.46983 22.2953 9.47507 22.1149 9.58982 22.0067L11.9754 19.755L10.7109 19.0971L8.18804 21.2996C8.06916 21.4034 7.88835 21.3912 7.78458 21.2723C7.681 21.1534 7.69323 20.9731 7.81192 20.8694L10.1663 18.8136L8.88335 18.1462L6.47208 20.217C6.35244 20.3197 6.172 20.3058 6.06917 20.1863C5.96646 20.0667 5.97983 19.8863 6.09931 19.7834L8.33703 17.8616L7.62051 17.4888C7.48057 17.416 7.42609 17.2437 7.49886 17.1037C7.5717 16.9638 7.74394 16.9093 7.88391 16.9821L8.80411 17.4609L11.3448 15.2795L10.6239 14.9815C10.4782 14.9212 10.409 14.754 10.4693 14.6082C10.5297 14.4626 10.6969 14.3934 10.8426 14.4536L11.8303 14.8621L14.3354 12.7109L13.6227 12.4704C13.4733 12.4198 13.3931 12.2577 13.4436 12.1082C13.4942 11.9589 13.6564 11.8786 13.8058 11.9291L14.8393 12.2784L16.6707 10.707ZM20.6105 23.6049L22.9286 24.8113L25.5496 21.2751L23.2918 20.3219L20.6105 23.6049ZM18.3292 22.4174L20.0926 23.3353L22.7433 20.0898L21.0201 19.3621L18.3292 22.4174ZM16.5647 21.4994L17.8069 22.1462L20.4648 19.1277L19.1774 18.5842L16.5647 21.4994ZM14.7572 20.5585L16.0418 21.2271L18.6211 18.3493L17.4185 17.8415L14.7572 20.5585ZM23.6691 19.8604L25.9001 20.8024L28.3811 17.4559L26.2271 16.7282L23.6691 19.8604ZM12.9514 19.6188L14.2277 20.2829L16.8527 17.6026L15.6339 17.0876L12.9514 19.6188ZM21.4185 18.9101L23.12 19.6283L25.6484 16.5329L24.0017 15.9765L21.4185 18.9101ZM11.173 18.6936L12.4152 19.3398L15.0586 16.8448L13.8672 16.3415L11.173 18.6936ZM19.5815 18.1339L20.8633 18.6757L23.4152 15.7784L22.0926 15.332L19.5815 18.1339ZM9.35042 17.7449L10.6289 18.4101L13.2818 16.0943L11.9347 15.5256L9.35042 17.7449ZM17.8482 17.4023L19.0245 17.899L21.5039 15.1328L20.4269 14.7689L17.8482 17.4023ZM16.0881 16.6584L17.2829 17.1635L19.8259 14.5658L18.7065 14.188L16.0881 16.6584ZM14.3465 15.9229L15.5128 16.4157L18.0932 13.981L16.9966 13.6099L14.3465 15.9229ZM12.4196 15.1093L13.7611 15.6757L16.37 13.3984L14.9648 12.9241L12.4196 15.1093Z" fill="#304436"/>
<defs>
<filter id="filter0_d_3969_2326" x="3.42859" y="9.42859" width="32.1429" height="23.2857" filterUnits="userSpaceOnUse" color-interpolation-filters="sRGB">
<feFlood flood-opacity="0" result="BackgroundImageFix"/>
<feColorMatrix in="SourceAlpha" type="matrix" values="0 0 0 0 0 0 0 0 0 0 0 0 0 0 0 0 0 0 127 0" result="hardAlpha"/>
<feOffset dx="1" dy="1"/>
<feComposite in2="hardAlpha" operator="out"/>
<feColorMatrix type="matrix" values="0 0 0 0 0.188235 0 0 0 0 0.266667 0 0 0 0 0.211765 0 0 0 1 0"/>
<feBlend mode="normal" in2="BackgroundImageFix" result="effect1_dropShadow_3969_2326"/>
<feBlend mode="normal" in="SourceGraphic" in2="effect1_dropShadow_3969_2326" result="shape"/>
</filter>
<filter id="filter1_d_3969_2326" x="2.28589" y="8.28589" width="34.4283" height="25.5714" filterUnits="userSpaceOnUse" color-interpolation-filters="sRGB">
<feFlood flood-opacity="0" result="BackgroundImageFix"/>
<feColorMatrix in="SourceAlpha" type="matrix" values="0 0 0 0 0 0 0 0 0 0 0 0 0 0 0 0 0 0 127 0" result="hardAlpha"/>
<feOffset dx="1" dy="1"/>
<feComposite in2="hardAlpha" operator="out"/>
<feColorMatrix type="matrix" values="0 0 0 0 0.188235 0 0 0 0 0.266667 0 0 0 0 0.211765 0 0 0 1 0"/>
<feBlend mode="normal" in2="BackgroundImageFix" result="effect1_dropShadow_3969_2326"/>
<feBlend mode="normal" in="SourceGraphic" in2="effect1_dropShadow_3969_2326" result="shape"/>
</filter>
</defs>
</svg>
