<svg width="101" height="101" viewBox="0 0 101 101" fill="none" xmlns="http://www.w3.org/2000/svg">
<path d="M81.023 50.1667C81.023 66.9779 67.3988 80.6061 50.5926 80.6061C33.7863 80.6061 20.1621 66.9779 20.1621 50.1667C20.1621 33.3555 33.7863 19.7273 50.5926 19.7273C67.3988 19.7273 81.023 33.3555 81.023 50.1667Z" fill="#FED992"/>
<path fill-rule="evenodd" clip-rule="evenodd" d="M83.3511 50.1666C83.3511 68.2708 68.6803 82.9394 50.5925 82.9394C32.5048 82.9394 17.834 68.2708 17.834 50.1666C17.834 32.0625 32.5048 17.3939 50.5925 17.3939C68.6803 17.3939 83.3511 32.0625 83.3511 50.1666ZM50.5925 80.606C67.3988 80.606 81.023 66.9779 81.023 50.1666C81.023 33.3554 67.3988 19.7273 50.5925 19.7273C33.7863 19.7273 20.1621 33.3554 20.1621 50.1666C20.1621 66.9779 33.7863 80.606 50.5925 80.606Z" fill="#274430"/>
<path d="M50.5928 21.7273C66.2938 21.7274 79.0234 34.4596 79.0234 50.1667C79.0234 65.8738 66.2938 78.6061 50.5928 78.6062C34.8916 78.6062 22.1621 65.8739 22.1621 50.1667C22.1621 34.4595 34.8916 21.7273 50.5928 21.7273Z" stroke="#FFA451" stroke-opacity="0.3" stroke-width="4"/>
<path d="M50.1409 3.30064C50.6676 2.01095 52.5242 2.01095 53.0509 3.30064L56.163 10.9207C56.5768 11.9339 55.8182 13.0373 54.708 13.0373H48.4838C47.3736 13.0373 46.6151 11.9339 47.0288 10.9207L50.1409 3.30064Z" fill="#FED992"/>
<path d="M17.1437 17.3469C16.6044 16.0624 17.9172 14.7493 19.2013 15.2887L26.7885 18.4757C27.7973 18.8994 28.041 20.2162 27.256 21.0015L22.8548 25.4039C22.0697 26.1892 20.7533 25.9455 20.3297 24.9364L17.1437 17.3469Z" fill="#FED992"/>
<path d="M97.445 46.3698C98.7343 46.8967 98.7343 48.7538 97.445 49.2806L89.8272 52.3937C88.8143 52.8075 87.7112 52.0488 87.7112 50.9382V44.7122C87.7112 43.6017 88.8143 42.8429 89.8272 43.2568L97.445 46.3698Z" fill="#FED992"/>
<path d="M81.0383 14.3426C82.3224 13.8032 83.6351 15.1163 83.0959 16.4008L79.9099 23.9903C79.4863 24.9993 78.1698 25.2431 77.3848 24.4578L72.9836 20.0554C72.1986 19.2701 72.4423 17.9533 73.451 17.5295L81.0383 14.3426Z" fill="#FED992"/>
<path d="M3.74042 49.2806C2.45111 48.7538 2.45111 46.8967 3.74042 46.3698L11.3583 43.2568C12.3711 42.8429 13.4743 43.6017 13.4743 44.7122V50.9382C13.4743 52.0488 12.3711 52.8075 11.3583 52.3937L3.74042 49.2806Z" fill="#FED992"/>
<path d="M16.8368 82.6795C15.5526 83.2189 14.2399 81.9057 14.7791 80.6212L17.9651 73.0318C18.3887 72.0227 19.7052 71.7789 20.4902 72.5642L24.8914 76.9667C25.6764 77.752 25.4327 79.0688 24.424 79.4925L16.8368 82.6795Z" fill="#FED992"/>
<path d="M53.0509 97.0328C52.5242 98.3225 50.6676 98.3225 50.1409 97.0328L47.0288 89.4127C46.6151 88.3996 47.3736 87.2961 48.4838 87.2961H54.708C55.8182 87.2961 56.5768 88.3996 56.163 89.4127L53.0509 97.0328Z" fill="#FED992"/>
<path d="M85.4605 81.5673C85.9997 82.8518 84.6869 84.165 83.4028 83.6256L75.8156 80.4386C74.8068 80.0149 74.5632 78.6981 75.3482 77.9128L79.7494 73.5103C80.5344 72.7251 81.8508 72.9688 82.2744 73.9779L85.4605 81.5673Z" fill="#FED992"/>
<path fill-rule="evenodd" clip-rule="evenodd" d="M55.2055 2.41669L58.3176 10.0368C59.3838 12.6474 57.4054 15.3706 54.708 15.3706H48.4838C45.7864 15.3706 43.808 12.6474 44.8742 10.0368L47.9863 2.41669C49.3023 -0.805564 53.8895 -0.805564 55.2055 2.41669ZM20.1012 13.1367L27.6884 16.3236C30.2778 17.4113 30.8166 20.7364 28.9006 22.6529L24.4994 27.0554C22.5895 28.9659 19.2727 28.4352 18.1838 25.8412L14.9978 18.2518C13.6446 15.0285 16.9067 11.7948 20.1012 13.1367ZM98.324 51.4412L90.7062 54.5542C88.1126 55.6141 85.383 53.6522 85.383 50.9382V44.7121C85.383 41.9981 88.1126 40.0362 90.7062 41.0961L98.324 44.2091C101.545 45.5256 101.545 50.1248 98.324 51.4412ZM85.2418 17.3057L82.0558 24.8951C80.9668 27.4891 77.6501 28.0198 75.7402 26.1093L71.339 21.7068C69.423 19.7903 69.9618 16.4652 72.5511 15.3775L80.1384 12.1906C83.3329 10.8487 86.595 14.0824 85.2418 17.3057ZM2.86141 44.2091L10.4792 41.0961C13.0729 40.0362 15.8024 41.9981 15.8024 44.7121V50.9382C15.8024 53.6522 13.0729 55.6141 10.4792 54.5542L2.86141 51.4412C-0.360054 50.1248 -0.360055 45.5256 2.86141 44.2091ZM12.6332 79.7163L15.8192 72.1268C16.9082 69.5328 20.2249 69.0022 22.1348 70.9126L26.536 75.3151C28.452 77.2317 27.9132 80.5568 25.3239 81.6444L17.7367 84.8314C14.5421 86.1732 11.2801 82.9396 12.6332 79.7163ZM47.9863 97.9166L44.8742 90.2966C43.808 87.6859 45.7864 84.9627 48.4838 84.9627H54.708C57.4054 84.9627 59.3838 87.6859 58.3176 90.2966L55.2055 97.9166C53.8895 101.139 49.3023 101.139 47.9863 97.9166ZM82.5029 85.7775L74.9157 82.5905C72.3264 81.5029 71.7875 78.1778 73.7036 76.2612L78.1047 71.8587C80.0146 69.9483 83.3314 70.4789 84.4204 73.0729L87.6064 80.6624C88.9595 83.8857 85.6974 87.1193 82.5029 85.7775ZM53.0509 3.3006C52.5242 2.01091 50.6676 2.01091 50.1409 3.3006L47.0288 10.9207C46.615 11.9338 47.3736 13.0373 48.4838 13.0373H54.708C55.8182 13.0373 56.5768 11.9338 56.163 10.9207L53.0509 3.3006ZM19.2013 15.2886C17.9172 14.7493 16.6044 16.0624 17.1437 17.3469L20.3297 24.9363C20.7533 25.9454 22.0697 26.1892 22.8548 25.4039L27.256 21.0014C28.041 20.2162 27.7973 18.8993 26.7885 18.4756L19.2013 15.2886ZM97.445 46.3698C98.7343 46.8966 98.7343 48.7537 97.445 49.2806L89.8272 52.3936C88.8143 52.8075 87.7112 52.0487 87.7112 50.9382V44.7121C87.7112 43.6016 88.8143 42.8428 89.8272 43.2567L97.445 46.3698ZM83.0959 16.4008C83.6351 15.1163 82.3224 13.8031 81.0382 14.3425L73.451 17.5295C72.4423 17.9532 72.1986 19.27 72.9836 20.0553L77.3848 24.4578C78.1698 25.2431 79.4863 24.9993 79.9099 23.9902L83.0959 16.4008ZM3.74042 49.2806C2.45111 48.7537 2.45111 46.8966 3.74042 46.3698L11.3582 43.2567C12.3711 42.8428 13.4743 43.6016 13.4743 44.7121V50.9382C13.4743 52.0487 12.3711 52.8075 11.3583 52.3936L3.74042 49.2806ZM14.7791 80.6211C14.2399 81.9056 15.5526 83.2188 16.8368 82.6794L24.424 79.4924C25.4327 79.0687 25.6764 77.7519 24.8914 76.9666L20.4902 72.5642C19.7052 71.7789 18.3887 72.0226 17.9651 73.0317L14.7791 80.6211ZM53.0509 97.0327C52.5242 98.3224 50.6676 98.3224 50.1409 97.0327L47.0288 89.4127C46.615 88.3995 47.3736 87.296 48.4838 87.296H54.708C55.8182 87.296 56.5768 88.3995 56.163 89.4127L53.0509 97.0327ZM83.4028 83.6255C84.6869 84.1649 85.9997 82.8518 85.4605 81.5673L82.2744 73.9778C81.8508 72.9688 80.5344 72.725 79.7494 73.5103L75.3482 77.9127C74.5631 78.698 74.8068 80.0148 75.8156 80.4386L83.4028 83.6255Z" fill="#274430"/>
<path d="M54.708 86.296C56.503 86.2962 57.7809 88.0967 57.0889 89.7911L53.9766 97.4113C53.1111 99.5297 50.0804 99.5297 49.2148 97.4113L46.1025 89.7911C45.4105 88.0967 46.6884 86.2961 48.4834 86.296H54.708Z" fill="#FED992" stroke="#274430" stroke-width="2"/>
<path d="M72.9837 20.0554L77.3849 24.4578C78.1699 25.2431 79.4863 24.9993 79.91 23.9903L73.4511 17.5295C72.4423 17.9533 72.1987 19.2701 72.9837 20.0554Z" fill="white" fill-opacity="0.3"/>
<path d="M48.4836 13.0373H54.7078C55.818 13.0373 56.5765 11.9338 56.1628 10.9207L47.0286 10.9207C46.6148 11.9338 47.3734 13.0373 48.4836 13.0373Z" fill="white" fill-opacity="0.3"/>
<path d="M22.8547 25.4039L27.2558 21.0014C28.0409 20.2161 27.7972 18.8993 26.7884 18.4756L20.3296 24.9363C20.7532 25.9454 22.0696 26.1891 22.8547 25.4039Z" fill="white" fill-opacity="0.3"/>
<path d="M13.4744 50.9382V44.7122C13.4744 43.6016 12.3712 42.8429 11.3584 43.2568L11.3584 52.3936C12.3712 52.8075 13.4744 52.0488 13.4744 50.9382Z" fill="white" fill-opacity="0.3"/>
<path d="M24.8916 76.9666L20.4904 72.5642C19.7054 71.7789 18.3889 72.0226 17.9653 73.0317L24.4242 79.4924C25.4329 79.0687 25.6766 77.7519 24.8916 76.9666Z" fill="white" fill-opacity="0.3"/>
<path d="M54.7078 87.296H48.4836C47.3734 87.296 46.6148 88.3995 47.0286 89.4126H56.1628C56.5765 88.3995 55.818 87.296 54.7078 87.296Z" fill="white" fill-opacity="0.3"/>
<path d="M79.7496 73.5102L75.3484 77.9127C74.5634 78.6979 74.8071 80.0148 75.8159 80.4385L82.2747 73.9778C81.8511 72.9687 80.5347 72.7249 79.7496 73.5102Z" fill="white" fill-opacity="0.3"/>
<path d="M87.7109 44.7122V50.9382C87.7109 52.0488 88.8141 52.8075 89.8269 52.3936V43.2568C88.8141 42.8429 87.7109 43.6016 87.7109 44.7122Z" fill="white" fill-opacity="0.3"/>
</svg>
